<?xml version="1.0" encoding="UTF-8" standalone="no"?>
<!-- Created with Inkscape (http://www.inkscape.org/) -->
<svg
   xmlns:dc="http://purl.org/dc/elements/1.1/"
   xmlns:cc="http://web.resource.org/cc/"
   xmlns:rdf="http://www.w3.org/1999/02/22-rdf-syntax-ns#"
   xmlns:svg="http://www.w3.org/2000/svg"
   xmlns="http://www.w3.org/2000/svg"
   xmlns:xlink="http://www.w3.org/1999/xlink"
   xmlns:sodipodi="http://inkscape.sourceforge.net/DTD/sodipodi-0.dtd"
   xmlns:inkscape="http://www.inkscape.org/namespaces/inkscape"
   sodipodi:docname="galeon.svg"
   sodipodi:docbase="/tmp"
   inkscape:version="0.41+cvs"
   sodipodi:version="0.32"
   id="svg2064"
   height="48.000000pt"
   width="48.000000pt">
  <defs
     id="defs3">
    <linearGradient
       y2="67.262985"
       x2="43.140381"
       y1="21.279398"
       x1="24.625795"
       gradientTransform="matrix(0.585878,0.000000,0.000000,0.585878,229.3796,19.72584)"
       gradientUnits="userSpaceOnUse"
       id="linearGradient2183"
       xlink:href="#linearGradient175"
       inkscape:collect="always" />
    <linearGradient
       id="linearGradient175"
       gradientUnits="userSpaceOnUse"
       x1="30"
       y1="25"
       x2="82"
       y2="90">
      <stop
         offset="0.0000000"
         style="stop-color:#7da8ff;stop-opacity:1.0000000;"
         id="stop551" />
      <stop
         offset="1.0000000"
         style="stop-color:#4875f0;stop-opacity:1.0000000;"
         id="stop552" />
    </linearGradient>
    <linearGradient
       y2="93.243759"
       x2="77.777855"
       y1="-15.268893"
       x1="-13.172056"
       gradientTransform="translate(230.9141,20.17259)"
       gradientUnits="userSpaceOnUse"
       id="linearGradient2180"
       xlink:href="#linearGradient175"
       inkscape:collect="always" />
    <linearGradient
       id="linearGradient632"
       gradientUnits="userSpaceOnUse"
       x1="30"
       y1="25"
       x2="82"
       y2="90">
      <stop
         offset="0.0000000"
         style="stop-color:#00478f;stop-opacity:1.0000000;"
         id="stop633" />
      <stop
         offset="1.000000"
         style="stop-color:#1295d7;stop-opacity:0;"
         id="stop634" />
    </linearGradient>
    <linearGradient
       y2="19.924519"
       x2="22.435419"
       y1="67.809441"
       x1="38.121727"
       gradientTransform="translate(230.9141,20.17259)"
       gradientUnits="userSpaceOnUse"
       id="linearGradient2177"
       xlink:href="#linearGradient632"
       inkscape:collect="always" />
    <radialGradient
       inkscape:collect="always"
       xlink:href="#linearGradient584"
       id="radialGradient2470"
       gradientUnits="userSpaceOnUse"
       gradientTransform="matrix(0.645618,0.000000,0.000000,0.496201,0.409000,-1.046780)"
       cx="2278.8306"
       cy="2478.2480"
       fx="2278.8306"
       fy="2478.2480"
       r="648.22966" />
    <linearGradient
       y2="-7.9169521"
       x2="63.892471"
       y1="23.894041"
       x1="59.799713"
       gradientTransform="matrix(0.753216,0.000000,0.000000,0.425317,230.9141,20.17259)"
       gradientUnits="userSpaceOnUse"
       id="linearGradient2173"
       xlink:href="#linearGradient620"
       inkscape:collect="always" />
    <linearGradient
       id="linearGradient627"
       gradientUnits="userSpaceOnUse"
       x1="30"
       y1="25"
       x2="82"
       y2="90">
      <stop
         offset="0.000000"
         style="stop-color:#009fff;stop-opacity:1;"
         id="stop628" />
      <stop
         offset="1.000000"
         style="stop-color:#125ed7;stop-opacity:1;"
         id="stop629" />
    </linearGradient>
    <radialGradient
       r="52.516875"
       fy="69.850709"
       fx="57.951365"
       cy="69.850709"
       cx="57.951365"
       gradientTransform="matrix(0.385915,0.000000,0.000000,0.830121,230.9141,20.17259)"
       gradientUnits="userSpaceOnUse"
       id="radialGradient2170"
       xlink:href="#linearGradient627"
       inkscape:collect="always" />
    <linearGradient
       y2="58.615963"
       x2="37.799103"
       y1="111.70640"
       x1="37.799103"
       gradientTransform="matrix(0.773008,0.000000,0.000000,0.414427,230.9141,20.17259)"
       gradientUnits="userSpaceOnUse"
       id="linearGradient2166"
       xlink:href="#linearGradient620"
       inkscape:collect="always" />
    <linearGradient
       id="linearGradient3167"
       inkscape:collect="always">
      <stop
         id="stop3169"
         offset="0"
         style="stop-color:#d8ffff;stop-opacity:1;" />
      <stop
         id="stop3171"
         offset="1"
         style="stop-color:#d8ffff;stop-opacity:0;" />
    </linearGradient>
    <linearGradient
       y2="52.828869"
       x2="28.956430"
       y1="5.1730828"
       x1="26.840874"
       gradientTransform="matrix(1.091078,0.000000,0.000000,0.293614,230.9141,20.17259)"
       gradientUnits="userSpaceOnUse"
       id="linearGradient2163"
       xlink:href="#linearGradient3167"
       inkscape:collect="always" />
    <linearGradient
       id="linearGradient620"
       gradientUnits="userSpaceOnUse"
       x1="30"
       y1="25"
       x2="82"
       y2="90">
      <stop
         offset="0.000000"
         style="stop-color:#ffffff;stop-opacity:0;"
         id="stop621" />
      <stop
         offset="1.000000"
         style="stop-color:#ffffff;stop-opacity:1;"
         id="stop622" />
    </linearGradient>
    <linearGradient
       y2="82.469749"
       x2="23.585266"
       y1="46.557785"
       x1="13.962686"
       gradientTransform="translate(230.9141,20.17259)"
       gradientUnits="userSpaceOnUse"
       id="linearGradient2158"
       xlink:href="#linearGradient620"
       inkscape:collect="always" />
    <linearGradient
       y2="67.262985"
       x2="43.140381"
       y1="21.279398"
       x1="24.625795"
       gradientTransform="matrix(0.585878,0.000000,0.000000,0.585878,229.3796,19.72584)"
       gradientUnits="userSpaceOnUse"
       id="linearGradient2124"
       xlink:href="#linearGradient175"
       inkscape:collect="always" />
    <linearGradient
       y2="93.243759"
       x2="77.777855"
       y1="-15.268893"
       x1="-13.172056"
       gradientTransform="translate(230.9141,20.17259)"
       gradientUnits="userSpaceOnUse"
       id="linearGradient2126"
       xlink:href="#linearGradient175"
       inkscape:collect="always" />
    <linearGradient
       y2="19.924519"
       x2="22.435419"
       y1="67.809441"
       x1="38.121727"
       gradientTransform="translate(230.9141,20.17259)"
       gradientUnits="userSpaceOnUse"
       id="linearGradient2128"
       xlink:href="#linearGradient632"
       inkscape:collect="always" />
    <linearGradient
       y2="-7.9169521"
       x2="63.892471"
       y1="23.894041"
       x1="59.799713"
       gradientTransform="matrix(0.753216,0.000000,0.000000,0.425317,230.9141,20.17259)"
       gradientUnits="userSpaceOnUse"
       id="linearGradient2130"
       xlink:href="#linearGradient620"
       inkscape:collect="always" />
    <radialGradient
       r="52.516875"
       fy="69.850709"
       fx="57.951365"
       cy="69.850709"
       cx="57.951365"
       gradientTransform="matrix(0.385915,0.000000,0.000000,0.830121,230.9141,20.17259)"
       gradientUnits="userSpaceOnUse"
       id="radialGradient2132"
       xlink:href="#linearGradient627"
       inkscape:collect="always" />
    <linearGradient
       y2="58.615963"
       x2="37.799103"
       y1="111.70640"
       x1="37.799103"
       gradientTransform="matrix(0.773008,0.000000,0.000000,0.414427,230.9141,20.17259)"
       gradientUnits="userSpaceOnUse"
       id="linearGradient2134"
       xlink:href="#linearGradient620"
       inkscape:collect="always" />
    <linearGradient
       y2="52.828869"
       x2="28.956430"
       y1="5.1730828"
       x1="26.840874"
       gradientTransform="matrix(1.091078,0.000000,0.000000,0.293614,230.9141,20.17259)"
       gradientUnits="userSpaceOnUse"
       id="linearGradient2136"
       xlink:href="#linearGradient3167"
       inkscape:collect="always" />
    <linearGradient
       y2="82.469749"
       x2="23.585266"
       y1="46.557785"
       x1="13.962686"
       gradientTransform="translate(230.9141,20.17259)"
       gradientUnits="userSpaceOnUse"
       id="linearGradient2138"
       xlink:href="#linearGradient620"
       inkscape:collect="always" />
    <linearGradient
       y2="67.262985"
       x2="43.140381"
       y1="21.279398"
       x1="24.625795"
       gradientTransform="matrix(0.585878,0.000000,0.000000,0.585878,229.3796,19.72584)"
       gradientUnits="userSpaceOnUse"
       id="linearGradient2153"
       xlink:href="#linearGradient175"
       inkscape:collect="always" />
    <linearGradient
       y2="93.243759"
       x2="77.777855"
       y1="-15.268893"
       x1="-13.172056"
       gradientTransform="translate(230.9141,20.17259)"
       gradientUnits="userSpaceOnUse"
       id="linearGradient2155"
       xlink:href="#linearGradient175"
       inkscape:collect="always" />
    <linearGradient
       y2="19.924519"
       x2="22.435419"
       y1="67.809441"
       x1="38.121727"
       gradientTransform="translate(230.9141,20.17259)"
       gradientUnits="userSpaceOnUse"
       id="linearGradient2157"
       xlink:href="#linearGradient632"
       inkscape:collect="always" />
    <linearGradient
       y2="-7.9169521"
       x2="63.892471"
       y1="23.894041"
       x1="59.799713"
       gradientTransform="matrix(0.753216,0.000000,0.000000,0.425317,230.9141,20.17259)"
       gradientUnits="userSpaceOnUse"
       id="linearGradient2159"
       xlink:href="#linearGradient620"
       inkscape:collect="always" />
    <radialGradient
       r="52.516875"
       fy="69.850709"
       fx="57.951365"
       cy="69.850709"
       cx="57.951365"
       gradientTransform="matrix(0.385915,0.000000,0.000000,0.830121,230.9141,20.17259)"
       gradientUnits="userSpaceOnUse"
       id="radialGradient2161"
       xlink:href="#linearGradient627"
       inkscape:collect="always" />
    <linearGradient
       y2="58.615963"
       x2="37.799103"
       y1="111.70640"
       x1="37.799103"
       gradientTransform="matrix(0.773008,0.000000,0.000000,0.414427,230.9141,20.17259)"
       gradientUnits="userSpaceOnUse"
       id="linearGradient2164"
       xlink:href="#linearGradient620"
       inkscape:collect="always" />
    <linearGradient
       y2="52.828869"
       x2="28.956430"
       y1="5.1730828"
       x1="26.840874"
       gradientTransform="matrix(1.091078,0.000000,0.000000,0.293614,230.9141,20.17259)"
       gradientUnits="userSpaceOnUse"
       id="linearGradient2167"
       xlink:href="#linearGradient3167"
       inkscape:collect="always" />
    <linearGradient
       y2="82.469749"
       x2="23.585266"
       y1="46.557785"
       x1="13.962686"
       gradientTransform="translate(230.9141,20.17259)"
       gradientUnits="userSpaceOnUse"
       id="linearGradient2169"
       xlink:href="#linearGradient620"
       inkscape:collect="always" />
    <linearGradient
       y2="82.469749"
       x2="23.585266"
       y1="46.557785"
       x1="13.962686"
       gradientTransform="translate(0.409000,-1.046780)"
       gradientUnits="userSpaceOnUse"
       id="linearGradient2172"
       xlink:href="#linearGradient620"
       inkscape:collect="always" />
    <linearGradient
       y2="52.828869"
       x2="28.956430"
       y1="5.1730828"
       x1="26.840874"
       gradientTransform="matrix(1.091078,0.000000,0.000000,0.293614,0.409000,-1.046780)"
       gradientUnits="userSpaceOnUse"
       id="linearGradient2178"
       xlink:href="#linearGradient3167"
       inkscape:collect="always" />
    <linearGradient
       y2="58.615963"
       x2="37.799103"
       y1="111.70640"
       x1="37.799103"
       gradientTransform="matrix(0.773008,0.000000,0.000000,0.414427,0.409000,-1.046780)"
       gradientUnits="userSpaceOnUse"
       id="linearGradient2181"
       xlink:href="#linearGradient620"
       inkscape:collect="always" />
    <radialGradient
       r="52.516875"
       fy="69.850709"
       fx="57.951365"
       cy="69.850709"
       cx="57.951365"
       gradientTransform="matrix(0.385915,0.000000,0.000000,0.830121,0.409000,-1.046780)"
       gradientUnits="userSpaceOnUse"
       id="radialGradient2184"
       xlink:href="#linearGradient627"
       inkscape:collect="always" />
    <linearGradient
       y2="-7.9169521"
       x2="63.892471"
       y1="23.894041"
       x1="59.799713"
       gradientTransform="matrix(0.753216,0.000000,0.000000,0.425317,0.409000,-1.046780)"
       gradientUnits="userSpaceOnUse"
       id="linearGradient2187"
       xlink:href="#linearGradient620"
       inkscape:collect="always" />
    <linearGradient
       y2="19.924519"
       x2="22.435419"
       y1="67.809441"
       x1="38.121727"
       gradientTransform="translate(0.409000,-1.046780)"
       gradientUnits="userSpaceOnUse"
       id="linearGradient2191"
       xlink:href="#linearGradient632"
       inkscape:collect="always" />
    <linearGradient
       y2="93.243759"
       x2="77.777855"
       y1="-15.268893"
       x1="-13.172056"
       gradientTransform="translate(0.409000,-1.046780)"
       gradientUnits="userSpaceOnUse"
       id="linearGradient2194"
       xlink:href="#linearGradient175"
       inkscape:collect="always" />
    <linearGradient
       y2="67.262985"
       x2="43.140381"
       y1="21.279398"
       x1="24.625795"
       gradientTransform="matrix(0.585878,0.000000,0.000000,0.585878,-1.125500,-1.493530)"
       gradientUnits="userSpaceOnUse"
       id="linearGradient2197"
       xlink:href="#linearGradient175"
       inkscape:collect="always" />
  </defs>
  <sodipodi:namedview
     inkscape:window-y="42"
     inkscape:window-x="6"
     inkscape:window-height="512"
     inkscape:window-width="723"
     inkscape:current-layer="layer1"
     inkscape:document-units="pt"
     inkscape:cy="35.173326"
     inkscape:cx="49.411784"
     inkscape:zoom="3.9597980"
     inkscape:pageshadow="2"
     inkscape:pageopacity="0.0"
     borderopacity="1.0"
     bordercolor="#666666"
     pagecolor="#ffffff"
     id="base" />
  <metadata
     id="metadata4">
    <rdf:RDF
       id="RDF5">
      <cc:Work
         id="Work6"
         rdf:about="">
        <dc:format
           id="format7">image/svg+xml</dc:format>
        <dc:type
           rdf:resource="http://purl.org/dc/dcmitype/StillImage"
           id="type9" />
      </cc:Work>
    </rdf:RDF>
  </metadata>
  <g
     id="layer1"
     inkscape:groupmode="layer"
     inkscape:label="Layer 1">
    <path
       id="path2102"
       d="M 49.784030,2.0590230 C 49.480310,2.0156160 49.023660,2.1349220 48.690280,2.1215230 C 48.068770,2.1137590 47.493280,2.0294990 46.815280,2.1215230 C 46.627440,2.1470170 46.413020,2.2131830 46.221530,2.2465230 C 45.587090,2.3449640 44.902230,2.5226720 44.190280,2.7152730 C 43.344110,2.9597590 42.483850,3.2962450 41.596530,3.6527730 C 38.834900,4.7169180 35.780010,6.1885940 32.034030,8.7152730 C 32.084330,8.6850120 33.163830,8.0761800 34.784030,7.2465230 C 33.947730,7.7552000 33.109360,8.1324050 32.284030,8.6840230 C 32.235410,8.6839670 32.240560,8.6840230 32.190280,8.6840230 C 32.150700,8.6857330 32.079520,8.7094360 32.034030,8.7152730 C 31.734760,8.7536620 31.354190,8.8315780 31.002780,8.9027730 C 29.803910,8.9661000 28.653320,9.1695640 27.502780,9.4027730 C 26.765460,9.5446960 26.165950,9.5882880 25.377780,9.8090230 C 25.282450,9.8376790 25.191290,9.8729350 25.096530,9.9027730 C 24.972690,9.9388130 24.846200,9.9896270 24.721530,10.027773 C 24.532250,10.083668 24.350050,10.154391 24.159030,10.215273 C 23.333930,10.486763 22.531260,10.812530 21.690280,11.184023 C 21.155210,11.414949 20.629940,11.689605 20.096530,11.965273 C 19.469070,12.294992 18.836550,12.600961 18.221530,12.996523 C 17.454400,13.483631 16.732380,14.084255 16.002780,14.684023 C 15.642030,14.982547 15.256760,15.231652 14.909030,15.559023 C 14.132250,16.287138 13.444680,17.174575 12.752780,18.059023 C 12.707450,18.116962 12.641420,18.156633 12.596530,18.215273 C 12.358760,18.526350 12.102790,18.790831 11.877780,19.121523 C 11.179760,20.145919 10.618370,21.331180 10.065280,22.559023 C 10.045640,22.602614 10.022210,22.640164 10.002780,22.684023 C 9.8478400,23.032496 9.6441700,23.318731 9.5027800,23.684023 C 8.9564500,25.102010 8.5689700,26.713924 8.2527800,28.402773 C 8.1942600,28.715317 8.0524900,28.955507 8.0027800,29.277773 C 8.2957000,28.857634 8.6113100,28.553915 8.9090300,28.152773 C 9.0275000,27.993371 9.1649300,27.871617 9.2840300,27.715273 C 10.760040,25.774588 12.264570,24.057374 13.784030,22.559023 C 13.928780,22.417159 14.076930,22.290704 14.221530,22.152773 C 15.155110,21.262192 16.090130,20.384165 17.002780,19.652773 C 18.030110,18.829465 19.034840,18.098064 20.002780,17.465273 C 21.421510,16.537773 22.741310,15.764883 23.940280,15.215273 C 23.950150,15.203976 23.961640,15.195319 23.971530,15.184023 C 24.016840,15.163337 24.082860,15.141695 24.127780,15.121523 C 23.978080,15.266800 23.841110,15.413893 23.690280,15.559023 C 23.785490,15.449221 23.844340,15.325013 23.940280,15.215273 C 23.643490,15.509497 23.417790,15.825287 23.127780,16.121523 C 22.821610,16.423045 22.495600,16.721771 22.221530,17.027773 L 22.252780,17.090273 C 22.244780,17.098375 22.229540,17.113391 22.221530,17.121523 C 21.666610,17.703341 21.144870,18.278945 20.502780,19.027773 C 17.258350,22.673718 14.440200,26.361656 12.190280,30.027773 C 12.033240,30.280247 11.850730,30.554119 11.690280,30.809023 C 11.682100,30.821741 11.666340,30.828033 11.659030,30.840273 C 11.647530,30.858184 11.639230,30.884895 11.627780,30.902773 C 11.616370,30.922384 11.609660,30.944721 11.596530,30.965273 C 11.586970,30.980224 11.574800,30.981596 11.565280,30.996523 C 11.271460,31.463536 10.925900,31.977349 10.659030,32.434023 C 10.063010,33.453906 9.6957300,34.247613 9.2840300,35.090273 C 9.2630000,35.132201 9.2424200,35.173388 9.2215300,35.215273 C 9.0411200,35.593431 8.6775900,36.150021 8.5965300,36.434023 C 8.5955500,36.454497 8.5973500,36.476045 8.5965300,36.496523 C 8.2230200,37.287455 8.0172900,38.026661 7.6902800,38.809023 C 7.1908400,40.009739 6.6917000,41.199671 6.3152800,42.340273 C 5.9536100,43.427285 5.6941800,44.430788 5.4402800,45.465273 C 5.2018700,46.448480 5.0119800,47.400124 4.8777800,48.309023 C 4.7220100,49.337918 4.6478700,50.286348 4.6277800,51.215273 C 4.6105300,52.048677 4.6910700,52.766996 4.7840300,53.496523 C 4.8882300,54.308956 4.9088000,55.165282 5.1590300,55.840273 C 5.1949900,55.939868 5.2450000,56.025377 5.2840300,56.121523 C 5.6996200,57.118664 6.2229700,58.014000 7.0027800,58.621523 C 7.2049100,58.771208 7.3944000,58.835600 7.5965300,58.965273 C 8.9024300,59.882537 10.305460,60.391937 11.752780,60.434023 C 14.161810,60.576243 16.490320,59.514401 18.721530,58.184023 C 20.861580,56.980726 22.842440,55.568127 24.565280,54.090273 C 24.690670,53.982707 24.849430,53.884291 24.971530,53.777773 C 25.142790,53.829537 25.329980,53.853513 25.502780,53.902773 C 26.360390,54.141494 27.222240,54.347913 28.127780,54.496523 C 29.438600,54.738785 30.773600,54.934023 32.190280,54.934023 C 33.870470,54.934023 35.512020,54.768289 37.096530,54.465273 C 43.427040,53.255539 48.875370,49.731267 52.377780,44.871523 C 52.383030,44.864208 52.372530,44.847594 52.377780,44.840273 C 55.004210,41.188059 56.534030,36.803067 56.534030,32.027773 C 56.534030,28.844287 56.392220,29.427732 56.346530,29.402773 L 30.971530,29.371523 L 30.940280,38.309023 L 30.940280,38.340273 L 39.690280,38.340273 C 39.415670,38.940036 37.243470,43.371523 32.190280,43.371523 C 28.391780,43.371524 25.137790,40.463354 23.752780,36.309023 C 23.289160,34.926584 23.034030,33.432030 23.034030,31.840273 C 23.034020,25.473244 27.137020,20.309023 32.190280,20.309023 C 34.716870,20.309023 37.399750,21.609210 39.565280,24.996523 L 55.534030,24.996523 C 55.122450,23.791578 54.657770,22.661956 54.127780,21.621523 C 53.973350,21.318362 53.791160,21.067568 53.627780,20.777773 C 53.499320,20.549330 53.355260,20.341863 53.221530,20.121523 C 52.791010,19.414110 52.326260,18.778979 51.846530,18.152773 C 50.842850,16.838659 49.761510,15.672410 48.596530,14.684023 C 48.580490,14.670460 48.550080,14.666278 48.534030,14.652773 C 48.349870,14.497907 48.189850,14.300110 48.002780,14.152773 C 47.979420,14.134381 47.963670,14.108549 47.940280,14.090273 C 46.617040,13.052658 45.224070,12.253435 43.815280,11.559023 C 43.437530,11.373178 43.069520,11.222762 42.690280,11.059023 C 41.869540,10.703513 41.065860,10.380955 40.252780,10.121523 C 40.014000,10.041563 39.773650,10.006432 39.534030,9.9340230 C 39.177750,9.8310500 38.822350,9.6766400 38.471530,9.5902730 C 38.409590,9.5750270 38.345760,9.5425170 38.284030,9.5277730 C 38.151050,9.4970250 38.140560,9.4891270 38.034030,9.4652730 C 38.011320,9.4600620 37.994210,9.4704160 37.971530,9.4652730 C 37.947590,9.4599520 37.932340,9.4704600 37.909030,9.4652730 C 37.453440,9.3639160 37.104590,9.2712650 36.752780,9.1840230 C 42.235840,5.3015120 48.118770,2.6711630 51.534030,4.5590230 C 52.914750,5.3155540 53.922260,7.0694320 54.409030,9.5277730 C 54.554150,11.132434 54.563810,12.915015 54.346530,14.965273 C 54.496200,13.621906 54.555190,12.269960 54.659030,10.902773 C 54.775580,12.124753 54.787700,13.487517 54.627780,14.996523 C 55.122920,10.552331 55.997650,5.4296690 53.002780,3.2465230 C 52.169360,2.6172590 51.114050,2.2798770 49.940280,2.1215230 C 49.876980,2.1109880 49.848650,2.0682590 49.784030,2.0590230 z M 10.752780,42.934023 C 10.827790,43.043228 10.955650,43.138102 11.034030,43.246523 C 11.071900,43.308909 11.120310,43.371787 11.159030,43.434023 C 11.801110,44.466598 12.547390,45.459792 13.409030,46.434023 C 13.447730,46.477342 13.494900,46.515882 13.534030,46.559023 C 16.305130,49.646506 20.136310,52.245551 24.721530,53.684023 C 24.753550,53.694073 24.783180,53.705338 24.815280,53.715273 C 21.672080,55.663957 19.030420,56.837965 16.721530,57.340273 C 16.184350,57.436974 15.662540,57.504043 15.159030,57.527773 C 14.541920,57.561380 13.961130,57.514704 13.409030,57.402773 C 13.043610,57.343840 12.677600,57.295952 12.346530,57.184023 C 11.449350,56.817396 10.617470,56.296157 9.9090300,55.434023 C 9.6000900,55.038934 9.4582100,54.481815 9.2840300,53.965273 C 9.1783200,53.652373 9.0348100,53.385881 8.9715300,53.027773 C 8.8809200,52.488922 8.8993900,51.868301 8.9090300,51.246523 C 8.9143400,50.673912 8.9388900,50.093391 9.0340300,49.434023 C 9.1061200,48.913342 9.1949900,48.364349 9.3152800,47.809023 C 9.6488800,46.388692 10.083920,44.892704 10.815280,43.121523 C 10.661160,43.357458 10.613210,43.574646 10.471530,43.809023 C 10.576660,43.510028 10.638980,43.237377 10.752780,42.934023 z "
       style="font-size:12.000000;opacity:0.20000000;fill:#000000;fill-opacity:1.0000000;fill-rule:evenodd;stroke:none;stroke-opacity:1.0000000" />
    <path
       d="M 53.525500,22.993126 C 49.037030,9.8524100 36.903210,6.7742650 30.182420,6.7742650 C 23.755340,6.7742650 8.6068200,10.361010 6.0142500,27.285854 C 11.797980,18.990349 18.603190,14.420910 22.990590,12.663804 C 20.459720,13.406404 8.5323600,29.151875 6.6099100,34.420383 C 7.2049900,42.394241 16.740920,52.912099 30.182420,52.912099 C 43.623990,52.912099 54.533040,42.746823 54.533040,30.012706 C 54.533040,26.829221 54.388210,27.429570 54.342510,27.404611 L 28.961510,27.386273 L 28.954950,36.317163 L 37.698010,36.332045 C 37.423410,36.931808 35.235560,41.377567 30.182360,41.377567 C 25.129110,41.377567 21.027960,36.210182 21.027960,29.843153 C 21.027960,23.476124 25.129110,18.308680 30.182360,18.308680 C 32.708960,18.308680 35.393100,19.600599 37.558630,22.987912"
       style="font-size:12.000000;fill:url(#linearGradient2197);fill-rule:evenodd"
       id="path166" />
    <path
       id="path179"
       d="M 44.815280,0.10947100 C 40.524690,0.69181500 35.251550,3.3518910 30.284030,6.6719710 C 30.235410,6.6719150 30.240560,6.6719710 30.190280,6.6719710 C 29.826500,6.6876960 29.186020,6.8965150 28.752780,6.9532210 C 21.808750,7.3805910 8.4433800,11.364184 6.0027800,27.296971 C 11.443400,19.493573 17.742180,15.079240 22.127780,13.109471 C 21.475530,13.742462 20.798030,14.372061 20.221530,15.015721 L 20.252780,15.078221 C 20.244780,15.086323 20.229540,15.101339 20.221530,15.109471 C 18.376650,17.040677 16.172260,19.744989 13.846530,22.890721 C 13.479930,23.380851 13.184500,23.630990 12.815280,24.140721 C 12.204250,24.967461 11.630070,25.792507 11.065280,26.640721 C 10.527520,27.430674 10.132670,28.094176 9.6902800,28.796971 C 9.6555400,28.851023 9.6308900,28.899469 9.5965300,28.953221 C 9.2985100,29.429814 8.9326800,29.953699 8.6590300,30.421971 C 7.7622400,31.956530 6.8628800,33.488795 6.5965300,34.421971 C 6.5955500,34.442446 6.5973500,34.463993 6.5965300,34.484471 C 2.0375400,44.138474 0.86254000,53.383933 5.0027800,56.609471 C 11.465070,61.395050 17.947940,55.764724 22.971530,51.765721 C 25.226600,52.447317 27.612370,52.921971 30.190280,52.921971 C 43.631840,52.921971 54.534030,42.749838 54.534030,30.015721 C 54.534030,26.832237 54.392230,27.415680 54.346530,27.390721 L 28.971530,27.390721 L 28.940280,36.328221 L 37.690280,36.328221 C 37.415670,36.927986 35.243470,41.390721 30.190280,41.390721 C 25.137020,41.390720 21.034030,36.195250 21.034030,29.828221 C 21.034020,23.461191 25.137020,18.296971 30.190280,18.296971 C 32.716870,18.296971 35.399750,19.597158 37.565280,22.984471 L 53.534030,22.984471 C 50.241440,13.344909 42.837580,9.1451620 36.471530,7.5782210 C 36.409590,7.5629750 36.345760,7.5304650 36.284030,7.5157210 C 36.151050,7.4849730 36.140560,7.4770750 36.034030,7.4532210 C 36.011320,7.4480100 35.994210,7.4583640 35.971530,7.4532210 C 35.479880,7.3439490 35.122590,7.2636780 34.752780,7.1719710 C 40.235840,3.2894600 46.118770,0.65911100 49.534030,2.5469710 C 51.785240,3.7804620 53.212840,7.4640210 52.627780,12.984471 C 53.122920,8.5402790 53.997650,3.4176170 51.002780,1.2344710 C 49.486230,0.089417000 47.323910,-0.23101700 44.815280,0.10947100 z M 8.7527800,40.921971 C 8.8277900,41.031177 8.9556500,41.126050 9.0340300,41.234471 C 11.739900,45.691227 16.593090,49.777080 22.815280,51.703221 C 15.830410,56.033631 10.996660,57.179452 7.9090300,53.421971 C 6.0442900,51.037188 6.7363000,46.297475 8.7527800,40.921971 z "
       style="font-size:12.000000;fill:url(#linearGradient2194);fill-opacity:1.0000000;fill-rule:evenodd" />
    <path
       style="font-size:12.000000;fill:url(#linearGradient2191);fill-opacity:1.0000000;fill-rule:evenodd"
       d="M 44.815280,0.10947100 C 40.524690,0.69181500 35.251550,3.3518910 30.284030,6.6719710 C 30.235410,6.6719150 30.240560,6.6719710 30.190280,6.6719710 C 29.826500,6.6876960 29.186020,6.8965150 28.752780,6.9532210 C 21.808750,7.3805910 8.4433800,11.364184 6.0027800,27.296971 C 11.443400,19.493573 17.742180,15.079240 22.127780,13.109471 C 21.475530,13.742462 20.798030,14.372061 20.221530,15.015721 L 20.252780,15.078221 C 20.244780,15.086323 20.229540,15.101339 20.221530,15.109471 C 18.376650,17.040677 16.172260,19.744989 13.846530,22.890721 C 13.479930,23.380851 13.184500,23.630990 12.815280,24.140721 C 12.204250,24.967461 11.630070,25.792507 11.065280,26.640721 C 10.527520,27.430674 10.132670,28.094176 9.6902800,28.796971 C 9.6555400,28.851023 9.6308800,28.899469 9.5965300,28.953221 C 9.2985100,29.429814 8.9326800,29.953699 8.6590300,30.421971 C 7.7622400,31.956530 6.8628800,33.488795 6.5965300,34.421971 C 6.5955500,34.442446 6.5973500,34.463993 6.5965300,34.484471 C 2.0375400,44.138474 0.86254000,53.383933 5.0027800,56.609471 C 11.465070,61.395050 17.947940,55.764724 22.971530,51.765721 C 25.226600,52.447317 27.612370,52.921971 30.190280,52.921971 C 43.631840,52.921971 54.534030,42.749838 54.534030,30.015721 C 54.534030,26.832237 54.392230,27.415680 54.346530,27.390721 L 28.971530,27.390721 L 28.940280,36.328221 L 37.690280,36.328221 C 37.415670,36.927986 35.243470,41.390721 30.190280,41.390721 C 25.137020,41.390720 21.034030,36.195250 21.034030,29.828221 C 21.034020,23.461191 25.137020,18.296971 30.190280,18.296971 C 32.716870,18.296971 35.399750,19.597158 37.565280,22.984471 L 53.534030,22.984471 C 50.241440,13.344909 42.837580,9.1451620 36.471530,7.5782210 C 36.409590,7.5629750 36.345760,7.5304650 36.284030,7.5157210 C 36.151050,7.4849730 36.140560,7.4770750 36.034030,7.4532210 C 36.011320,7.4480100 35.994210,7.4583640 35.971530,7.4532210 C 35.479880,7.3439490 35.122590,7.2636780 34.752780,7.1719710 C 40.235840,3.2894600 46.118770,0.65911100 49.534030,2.5469710 C 51.785240,3.7804620 53.212840,7.4640210 52.627780,12.984471 C 53.122920,8.5402790 53.997650,3.4176170 51.002780,1.2344710 C 49.486230,0.089417000 47.323910,-0.23101700 44.815280,0.10947100 z M 8.7527800,40.921971 C 8.8277900,41.031177 8.9556500,41.126050 9.0340300,41.234471 C 11.739900,45.691227 16.593090,49.777080 22.815280,51.703221 C 15.830410,56.033631 10.996660,57.179452 7.9090300,53.421971 C 6.0442900,51.037188 6.7363000,46.297475 8.7527800,40.921971 z "
       id="path2420" />
    <path
       d="M 50.025150,1.9996870 C 52.276360,3.2331780 52.943340,7.4504420 52.358290,12.970894 C 52.853430,8.5267000 53.745120,3.4059110 50.750250,1.2227650 C 47.717160,-1.0673410 41.066850,-0.74848100 29.962560,6.7582080 C 29.962560,6.7582080 44.046730,-1.7386180 50.025150,1.9996870 z "
       style="font-size:12.000000;fill:url(#linearGradient2187);fill-opacity:0.41085300;fill-rule:evenodd"
       id="path187"
       sodipodi:nodetypes="ccccc" />
    <path
       id="path174"
       d="M 22.080920,13.068273 C 5.8783800,31.525138 -0.14228000,50.947852 5.7469900,56.248637 C 9.9586300,59.957793 18.759710,55.563228 23.602390,51.261715 C 18.754610,55.595111 10.776290,61.453346 5.0138000,56.602274 C -1.3408000,51.598933 4.4450200,30.457118 22.080920,13.068273 z "
       style="font-size:12.000000;fill:url(#radialGradient2184);fill-opacity:0.39534900;fill-rule:evenodd" />
    <path
       style="fill:url(#linearGradient2181);fill-opacity:0.79682499;fill-rule:evenodd;stroke:none;stroke-width:3.0000000pt;stroke-linecap:butt;stroke-linejoin:miter;stroke-opacity:1.0000000"
       d="M 37.650650,36.982286 C 36.294480,39.087133 33.751490,41.585673 30.625970,41.651786 C 27.060930,41.735538 24.327700,40.432297 21.604270,35.005532 C 23.540010,42.284994 27.843440,43.498708 30.391900,43.606932 C 34.532860,43.708804 37.721400,40.000614 37.650650,36.982286 z "
       id="path616"
       sodipodi:nodetypes="ccccc" />
    <path
       style="font-size:12.000000;fill:url(#linearGradient2178);fill-opacity:0.79682499;fill-rule:evenodd"
       d="M 12.322350,15.834618 C 29.598100,8.7299490 25.654790,14.015792 33.941250,15.050416 C 41.271790,15.944291 43.531390,14.629168 47.580460,13.612430 C 35.879030,2.9752550 18.815440,5.6395800 12.322350,15.834618 z "
       id="path618"
       sodipodi:nodetypes="cscc" />
    <path
       style="font-size:12.000000;fill:#ccdeff;fill-opacity:0.75000000;fill-rule:evenodd"
       d="M 29.738910,7.2117580 C 25.434380,7.3390450 16.191820,9.5334350 12.182030,15.875060 C 13.730450,13.729802 20.950380,7.8847960 30.306660,8.0800220 C 38.696280,8.2595960 43.874390,10.687744 47.066680,13.954955 C 44.614100,10.253826 36.542450,7.2117580 29.738910,7.2117580 z "
       id="path648"
       sodipodi:nodetypes="ccscc" />
    <rect
       rx="0.30213088"
       style="font-size:12.000000;fill:#bed5ff;fill-opacity:0.75000000;fill-rule:evenodd;stroke-width:0.33496301pt"
       id="rect650"
       width="21.861671"
       height="0.60426158"
       x="30.279446"
       y="28.165789"
       ry="0.30213088" />
    <path
       sodipodi:nodetypes="ccc"
       id="path2426"
       d="M 8.8174600,41.108537 C 0.74763000,53.462931 9.8341700,63.878494 22.971530,51.765721 C 13.298140,58.441819 2.0735500,57.440818 8.8174600,41.108537 z "
       style="font-size:12.000000;fill:url(#linearGradient2172);fill-opacity:1.0000000;fill-rule:evenodd" />
  </g>
</svg>
