<?xml version="1.0" encoding="UTF-8" standalone="no"?>
<!-- Created with Inkscape (http://www.inkscape.org/) -->
<svg
   xmlns:dc="http://purl.org/dc/elements/1.1/"
   xmlns:cc="http://web.resource.org/cc/"
   xmlns:rdf="http://www.w3.org/1999/02/22-rdf-syntax-ns#"
   xmlns:svg="http://www.w3.org/2000/svg"
   xmlns="http://www.w3.org/2000/svg"
   xmlns:xlink="http://www.w3.org/1999/xlink"
   xmlns:sodipodi="http://inkscape.sourceforge.net/DTD/sodipodi-0.dtd"
   xmlns:inkscape="http://www.inkscape.org/namespaces/inkscape"
   sodipodi:docname="gnome-globe.svg"
   sodipodi:docbase="/home/david/.icons/eXperience/normal/apps"
   inkscape:version="0.41+cvs"
   sodipodi:version="0.32"
   id="svg3049"
   height="48.000000pt"
   width="48.000000pt">
  <defs
     id="defs3">
    <linearGradient
       id="linearGradient3116">
      <stop
         offset="0.69999999"
         style="stop-opacity:1.0000000;stop-color:#abf949"
         id="stop3118" />
      <stop
         offset="1.0000000"
         style="stop-opacity:1.0000000;stop-color:#549e00"
         id="stop3120" />
    </linearGradient>
    <linearGradient
       id="linearGradient2059">
      <stop
         style="stop-color:#78acff;stop-opacity:1.0000000;"
         offset="0.0000000"
         id="stop2061" />
      <stop
         style="stop-color:#245bd3;stop-opacity:1.0000000;"
         offset="1.0000000"
         id="stop2063" />
    </linearGradient>
    <linearGradient
       id="linearGradient3565">
      <stop
         id="stop3567"
         offset="0.0000000"
         style="stop-color:#c5c8ff;stop-opacity:1.0000000;" />
      <stop
         id="stop3569"
         offset="1.0000000"
         style="stop-color:#2241c8;stop-opacity:1.0000000;" />
    </linearGradient>
    <linearGradient
       id="linearGradient775">
      <stop
         id="stop777"
         style="stop-color:#000000;stop-opacity:0.81250000;"
         offset="0.0000000" />
      <stop
         offset="0.50000000"
         style="stop-color:#000000;stop-opacity:0.50000000;"
         id="stop3110" />
      <stop
         id="stop779"
         style="stop-color:#000000;stop-opacity:0.0000000;"
         offset="1.0000000" />
    </linearGradient>
    <linearGradient
       id="linearGradient1947">
      <stop
         id="stop1949"
         style="stop-color:#67b00a;stop-opacity:1.0000000;"
         offset="0.69999999" />
      <stop
         id="stop1948"
         style="stop-color:#85ff00;stop-opacity:1.0000000;"
         offset="1.0000000" />
    </linearGradient>
    <linearGradient
       id="linearGradient763">
      <stop
         id="stop765"
         style="stop-color:#bbcff4;stop-opacity:1.0000000;"
         offset="0.0000000" />
      <stop
         id="stop767"
         style="stop-color:#a1c1f5;stop-opacity:0.0000000;"
         offset="1.0000000" />
    </linearGradient>
    <radialGradient
       inkscape:collect="always"
       xlink:href="#linearGradient775"
       id="radialGradient2077"
       gradientUnits="userSpaceOnUse"
       gradientTransform="matrix(1.000000,0.000000,0.000000,0.348315,2.021160e-12,19240.23)"
       cx="12571.429"
       cy="29523.809"
       fx="12571.429"
       fy="29523.809"
       r="8476.1904" />
    <radialGradient
       inkscape:collect="always"
       xlink:href="#linearGradient3116"
       id="radialGradient2091"
       gradientUnits="userSpaceOnUse"
       gradientTransform="matrix(0.559612,2.042961,-1.603172,0.439136,40.72454,-217.5977)"
       cx="94.797943"
       cy="48.357563"
       fx="94.797943"
       fy="48.357563"
       r="23.753850" />
    <radialGradient
       inkscape:collect="always"
       xlink:href="#linearGradient763"
       id="radialGradient2095"
       gradientUnits="userSpaceOnUse"
       gradientTransform="matrix(1.328546,-0.484209,0.486297,1.334278,4.315600,6.573107)"
       cx="8.6528292"
       cy="-1.1707053"
       fx="8.6528292"
       fy="-1.1707053"
       r="31.370909" />
    <radialGradient
       inkscape:collect="always"
       xlink:href="#linearGradient1947"
       id="radialGradient2098"
       gradientUnits="userSpaceOnUse"
       gradientTransform="matrix(0.985059,0.746234,-0.476590,0.629122,171.5575,129.3100)"
       cx="-166.72978"
       cy="-1.0897120"
       fx="-166.72978"
       fy="-1.0897120"
       r="45.540088" />
    <radialGradient
       inkscape:collect="always"
       xlink:href="#linearGradient3565"
       id="radialGradient2101"
       gradientUnits="userSpaceOnUse"
       gradientTransform="matrix(-0.408811,-1.946171,2.533077,-0.532171,169.9691,245.6888)"
       cx="95.778847"
       cy="-27.914494"
       fx="95.778847"
       fy="-27.914494"
       r="27.268733" />
    <radialGradient
       inkscape:collect="always"
       xlink:href="#linearGradient2059"
       id="radialGradient2104"
       gradientUnits="userSpaceOnUse"
       gradientTransform="matrix(-0.428186,-0.606844,0.941832,-0.664559,32.98953,46.66487)"
       cx="44.919426"
       cy="1.6170073"
       fx="44.919426"
       fy="1.6170073"
       r="27.268733" />
  </defs>
  <sodipodi:namedview
     inkscape:window-y="0"
     inkscape:window-x="57"
     inkscape:window-height="511"
     inkscape:window-width="721"
     inkscape:current-layer="layer1"
     inkscape:document-units="px"
     inkscape:cy="63.020041"
     inkscape:cx="26.256736"
     inkscape:zoom="1.4000000"
     inkscape:pageshadow="2"
     inkscape:pageopacity="0.0"
     borderopacity="1.0"
     bordercolor="#666666"
     pagecolor="#ffffff"
     id="base" />
  <metadata
     id="metadata4">
    <rdf:RDF
       id="RDF5">
      <cc:Work
         id="Work6"
         rdf:about="">
        <dc:format
           id="format7">image/svg+xml</dc:format>
        <dc:type
           rdf:resource="http://purl.org/dc/dcmitype/StillImage"
           id="type9" />
      </cc:Work>
    </rdf:RDF>
  </metadata>
  <g
     id="layer1"
     inkscape:groupmode="layer"
     inkscape:label="Layer 1">
    <circle
       cx="12072.000"
       cy="13291.000"
       r="11992.000"
       id="circle2177"
       style="fill-opacity:1.0000000;fill:#000000;opacity:0.083333321;font-size:12.000000"
       transform="matrix(2.256179e-3,0.000000,0.000000,2.256179e-3,4.662917,-1.224052)"
       sodipodi:cx="12072.000"
       sodipodi:cy="13291.000"
       sodipodi:rx="11992.000"
       sodipodi:ry="11992.000"
       d="M 24064.000 13291.000 A 11992.000 11992.000 0 1 0 80.000000,13291.000 A 11992.000 11992.000 0 1 0 24064.000 13291.000 z" />
    <path
       transform="matrix(2.939409e-3,0.000000,0.000000,4.188064e-3,-7.346184,-73.99498)"
       sodipodi:ry="2952.3818"
       sodipodi:rx="8476.1904"
       sodipodi:cy="29523.809"
       sodipodi:cx="12571.429"
       d="M 21047.619 29523.809 A 8476.1904 2952.3818 0 1 1  4095.2383,29523.809 A 8476.1904 2952.3818 0 1 1  21047.619 29523.809 z"
       id="path774"
       style="opacity:1.0000000;fill:url(#radialGradient2077);fill-opacity:1.0000000;stroke-width:1.0000000pt"
       sodipodi:type="arc" />
    <path
       sodipodi:nodetypes="cccccccc"
       d="M 29.904415,2.2883811 C 44.923451,2.2883811 57.173149,14.471406 57.173149,29.413702 C 57.173149,44.353750 44.923451,56.539024 29.904415,56.539024 C 14.880863,56.539024 2.6356826,44.353750 2.6356826,29.413702 C 2.6356826,17.662091 10.209578,7.6204199 20.753852,3.8657487 L 20.753852,3.8657487 C 20.783215,3.8545133 20.812580,3.8455264 20.844205,3.8320448 C 23.681311,2.8343922 26.730744,2.2883811 29.904415,2.2883811 z "
       id="path3233"
       style="font-size:12.000000;fill:url(#radialGradient2104);fill-opacity:1.0000000" />
    <path
       style="font-size:12.000000;fill:url(#radialGradient2101);fill-opacity:1.0000000"
       id="path3628"
       d="M 40.258479,40.169102 C 46.144389,36.333753 57.173149,14.471406 57.173149,29.413702 C 57.173149,44.353750 44.923451,56.539024 29.904415,56.539024 C 14.880863,56.539024 2.6356826,44.353750 2.6356826,29.413702 C 17.030356,50.744587 21.764274,40.416911 31.360454,39.726164 C 40.956633,39.035417 34.445121,43.957174 40.258479,40.169102 z "
       sodipodi:nodetypes="cccczz" />
    <path
       sodipodi:nodetypes="cccccccccccccccccccccccccccccccccccccccccccccccccccccccccccccccccccccccccccccccccccccccccccccccccccccccccccccccccccccccccccccccccccccccccccccccccccccccccccccccccccccccccccccccccccccccccccccccccccccccccccccccccccccccccccccccccccccccccccccccc"
       id="path3247"
       d="M 28.166197,2.9845454 C 27.499089,2.9845454 27.298784,3.1592420 27.013201,3.1592419 C 27.013201,3.5363018 27.187898,3.7277734 27.187897,4.1026027 C 27.105347,4.2699354 27.125830,4.2607885 26.244536,4.6266921 C 26.215531,4.7203993 26.188046,4.8362807 26.174658,4.9411457 C 25.672656,5.0259286 25.545934,5.3454677 25.126479,5.5351137 C 23.917214,6.5792796 19.238921,8.0388250 19.047042,9.8326465 C 19.404022,9.9018106 19.419456,9.8901661 21.213278,9.2386785 C 23.687593,9.1293538 26.397588,8.9763923 28.340894,6.9326853 C 28.778193,6.9616895 29.220128,6.9928788 29.668587,7.0375032 C 29.668587,6.9371028 29.668586,6.8539267 29.668587,6.7579889 C 30.851080,6.6620526 31.609077,6.8657508 32.778184,6.9326853 C 33.757644,6.4998461 33.738452,6.5186355 34.175755,6.4784745 C 34.175755,6.3847675 34.175755,6.2599587 34.175755,6.1640209 C 34.869635,6.0703140 35.576008,5.9997673 36.272113,5.9194459 C 36.272113,5.8235083 36.272115,5.7009313 36.272113,5.6049923 C 36.365821,5.6049923 36.455691,5.6049925 36.551627,5.6049923 C 36.402143,4.8865700 36.039544,4.6998286 35.782963,4.0327242 C 33.946750,3.2295197 28.166197,2.9153804 28.166197,2.9845454 z M 37.390170,4.2074206 C 37.448179,4.3569048 37.530643,4.5009913 37.599806,4.6616314 C 37.883159,4.7865747 38.150536,4.9098655 38.438349,5.0459636 C 38.489666,5.3583207 38.546112,5.6635827 38.613045,5.9893245 C 38.233757,5.9491663 37.863122,5.9484506 37.494988,5.9194459 C 37.521762,6.0644710 37.557414,6.2063229 37.599806,6.3736567 C 37.738134,7.3375021 38.109660,8.5416738 38.368470,9.5880714 C 38.176597,9.5880714 37.966378,9.5880714 37.774502,9.5880714 C 37.774502,9.7754824 37.774501,9.9574575 37.774502,10.147100 C 37.774502,10.171646 37.774501,10.213991 37.774502,10.251918 C 36.986918,10.566508 36.462783,11.006347 35.608266,11.265157 C 33.555633,10.040271 32.771630,9.8924804 30.716766,10.776007 C 30.348631,12.081211 28.679487,12.433326 27.851744,13.466332 C 27.961067,14.144593 27.979496,14.135219 28.236076,14.514511 C 28.523888,14.476583 28.823976,14.438698 29.109558,14.409693 C 29.136331,14.588183 29.134813,14.774614 29.179437,14.968722 C 28.992020,15.417178 29.972689,16.251213 29.843283,15.912083 C 29.950378,15.856303 30.017979,15.802088 30.017980,15.737386 C 30.642697,15.300087 30.912120,14.808442 31.275794,14.130179 C 31.144159,13.940535 31.016406,13.728090 30.891462,13.536211 C 31.081108,13.250628 31.066157,13.273207 31.066158,12.907304 C 31.583780,12.659651 31.605733,12.642606 31.904701,12.767547 C 31.973867,13.392262 31.947671,13.396186 32.289034,14.025361 C 32.601391,13.980738 32.941591,13.947315 33.267334,13.920543 C 33.390045,13.920543 33.496244,13.920543 33.616727,13.920543 C 33.616727,14.041024 33.616726,14.166545 33.616727,14.304875 C 33.331144,14.331647 33.054845,14.369532 32.778184,14.409693 C 32.778184,15.145963 32.855118,15.353054 32.009519,15.353054 C 31.947050,15.611862 31.886138,15.867366 31.834823,16.121719 C 31.181106,16.329212 30.266484,16.896635 29.773405,16.191597 C 29.773405,16.006417 28.885776,16.183432 28.934862,16.156658 C 28.992870,16.123193 28.875293,15.550105 29.109558,15.422933 C 28.884216,15.380539 28.565432,15.144892 28.480651,15.178358 C 28.427103,15.381392 28.381053,15.595308 28.340894,15.807265 C 28.314120,15.974599 28.286638,16.133542 28.271015,16.296415 C 28.014438,16.374504 27.761162,16.479992 27.502351,16.575929 C 27.123062,16.957453 27.099013,16.930364 26.349354,17.309654 C 26.253415,17.240486 26.163550,17.186272 26.069840,17.134958 C 25.906969,17.186274 25.765112,17.240486 25.615629,17.309654 C 25.379128,17.976759 24.485926,17.995766 23.903604,18.078319 C 24.091016,19.028776 24.496324,19.382580 23.938543,20.279494 C 23.572641,20.266102 23.207938,20.257945 22.855425,20.244555 C 21.032595,20.068298 20.480936,21.010180 20.724128,22.899941 C 20.869152,22.957951 21.048174,23.042642 21.213278,23.109577 C 21.253437,23.325996 21.299492,23.524297 21.353036,23.738484 C 21.433358,23.738484 21.534383,23.738484 21.632550,23.738484 C 21.848970,23.644774 22.066593,23.550446 22.296396,23.458970 C 22.349947,23.510286 22.406386,23.599444 22.471093,23.668605 C 23.709365,23.057281 24.044338,22.101022 25.231297,21.572248 C 26.003263,20.659720 26.921990,20.931382 28.131258,21.083098 C 28.227197,21.245970 28.301448,21.407144 28.410772,21.572248 C 28.754366,22.092099 28.930040,21.732308 29.773405,22.934880 C 29.931813,23.157992 29.832975,23.469279 29.598708,23.703545 C 29.558547,23.743705 29.215892,23.589804 29.144497,23.598727 C 28.928081,23.627732 28.618937,23.981544 28.585469,24.052938 C 28.560927,24.122102 28.960831,24.632804 29.074619,24.577027 C 29.137090,24.541325 29.622492,23.757805 29.633648,23.773423 C 29.689424,23.838125 30.505658,23.610869 30.472191,23.039698 C 30.664069,22.901371 30.704050,23.138628 30.891462,23.004759 C 30.224356,22.203788 29.667342,21.751053 29.109558,20.838523 C 29.136331,20.742585 29.134813,20.617775 29.179437,20.524069 C 29.964790,21.146554 30.767721,21.772688 31.555309,22.410791 C 31.736029,22.466568 31.920230,22.555726 32.114337,22.620427 C 32.141112,22.865853 32.174535,23.095337 32.219155,23.354152 C 32.272702,23.287220 32.324686,23.233005 32.393852,23.179455 C 32.418393,23.422647 32.454046,23.687079 32.498669,23.948120 C 32.648154,23.974894 32.792236,23.980072 32.952880,24.017998 C 32.981885,23.732417 33.013078,23.467271 33.057698,23.179455 C 33.394598,23.152681 33.755589,23.134120 34.105877,23.109577 C 34.159425,23.134120 34.213639,23.152682 34.280573,23.179455 C 34.432290,24.049592 34.487620,24.617765 35.328752,24.961359 C 35.574175,24.889962 35.840840,24.840208 36.097416,24.786663 C 36.452165,24.746501 36.779691,24.708618 37.145595,24.681845 C 37.183527,24.588139 37.264513,24.496039 37.320292,24.402331 C 37.467545,24.496039 37.613861,24.588138 37.774502,24.681845 C 37.801275,25.145917 37.843622,25.636896 37.879320,26.114356 C 37.734296,26.995652 37.747864,27.001761 37.460049,27.476988 C 35.295859,27.711256 33.781878,27.128309 31.764944,27.197474 C 31.660082,27.454051 31.579139,27.728882 31.485430,28.001078 C 30.856256,28.177336 27.911359,26.361385 27.572229,25.834842 C 28.049689,25.424314 27.872626,25.150425 27.711987,24.577027 C 26.136813,24.416387 22.842532,24.878362 21.702428,24.262573 C 21.673424,24.139859 21.641476,23.998722 21.632550,23.878241 C 21.534382,23.878241 21.433359,23.878240 21.353036,23.878241 C 20.851036,24.518577 20.401821,24.501079 19.641010,24.786663 C 19.219328,25.277511 19.097647,25.387051 18.977164,26.009538 C 18.334604,26.649866 17.325692,26.898368 16.531413,27.511927 C 15.406927,29.131721 14.383072,31.045123 14.260359,33.102214 C 14.220199,33.443577 14.184545,33.800107 14.155542,34.150393 C 14.429970,35.386434 15.828608,37.143569 16.531413,38.203351 C 19.431872,39.872232 22.837301,38.263138 25.231297,40.998494 C 24.834158,44.519203 26.361755,44.254627 26.908383,47.532141 C 26.714274,47.996218 26.523382,48.491658 26.349354,48.964652 C 26.253415,48.964652 26.163550,48.964653 26.069840,48.964652 C 25.969441,49.087363 25.888495,49.212887 25.790326,49.348984 C 26.049133,50.381993 26.950682,50.806257 27.118019,52.004371 C 27.497307,52.573304 27.475263,52.562416 28.236076,53.122428 C 28.316396,53.367855 28.421885,53.597347 28.515590,53.856153 C 30.490134,53.947631 31.876450,54.110768 33.616727,53.227246 C 34.500251,52.586915 35.377434,51.930299 36.272113,51.305585 C 36.466222,50.341738 36.484652,50.345891 36.656445,50.292345 C 37.564511,49.571693 39.136289,49.087815 39.381710,47.916474 C 39.381710,47.780377 39.381711,47.654857 39.381710,47.532141 C 39.341551,46.833802 39.303667,46.164598 39.276892,45.470723 C 39.381758,44.843778 39.480415,44.747618 39.870860,44.247848 C 40.044889,43.928798 40.238012,43.614615 40.429889,43.304487 C 42.928746,41.057750 44.495206,39.623195 45.146693,36.211811 C 44.820949,36.305515 44.513452,36.397619 44.203332,36.491325 C 43.333195,36.870614 43.006113,37.136703 42.106974,36.875658 C 42.040036,36.643624 41.985827,36.428229 41.932278,36.211811 C 42.329418,36.086867 42.994379,35.565143 43.469607,35.373268 C 45.671726,33.862798 49.187520,31.325763 46.264750,29.014317 C 45.816294,29.152645 45.786843,29.219309 45.565964,29.643224 C 45.293767,29.654378 45.023402,29.688561 44.762361,29.713103 C 44.474546,29.237876 44.203330,29.127436 44.203332,28.839621 C 43.699099,28.395628 43.347029,28.179032 43.155153,27.511927 C 43.181926,27.351286 43.217583,27.211668 43.259971,27.057717 C 43.817750,27.155889 43.836757,27.154237 44.028636,27.442049 C 45.606040,28.595537 47.617738,28.435568 49.304468,27.616745 C 49.862250,27.848780 50.313156,27.881892 50.527344,28.455288 C 50.612124,28.575769 50.678214,28.716907 50.771919,28.839621 C 51.003957,28.839621 51.238671,28.828466 51.470705,28.839621 C 51.767443,29.194369 51.877259,29.897351 52.064672,30.167314 C 52.430580,31.269491 52.803434,32.384372 53.182730,33.486546 C 53.318828,33.433000 53.452514,33.386950 53.602001,33.346789 C 53.791646,32.014811 53.731850,30.439562 54.300787,26.568567 C 54.300787,26.106723 54.502970,25.909405 54.545362,25.380631 C 54.681460,25.394018 54.812919,25.423736 54.964634,25.450509 C 55.085117,25.818645 55.217331,26.187043 55.348966,26.568567 C 55.596618,26.689046 55.858817,26.819034 56.117630,26.952899 C 56.117630,26.352727 56.117628,25.766705 56.117630,25.170995 C 55.260877,24.178148 55.254726,22.660366 54.859816,21.397552 C 54.699176,21.013796 54.552856,20.626077 54.405605,20.244555 C 54.405605,20.054911 54.405606,19.861788 54.405605,19.685526 C 54.309664,19.685526 54.222034,19.685527 54.126091,19.685526 C 53.568311,18.067963 53.559211,18.086400 52.798398,16.575929 C 51.519963,14.021296 49.526159,11.755116 47.417747,9.8675858 C 46.911279,9.4548292 46.417359,9.0507756 45.915357,8.6447106 C 44.661462,7.6630177 43.510351,6.8824425 42.106974,6.1640209 C 40.583122,5.4009752 39.050121,4.6023278 37.390170,4.2074206 z M 17.754289,5.9893245 C 17.238900,6.2882957 16.251899,6.7279601 16.251899,7.4218354 C 16.425072,7.4030580 16.600117,7.4017080 16.775988,7.3868961 C 17.272329,6.6774185 17.754289,5.9464982 17.754289,5.9893245 z M 16.775988,7.3868961 C 16.186298,8.2298085 15.588053,9.0811342 15.588053,9.0290428 C 12.868314,9.0290428 10.546313,10.732675 8.9845270,12.977182 C 9.9528349,12.448407 10.354875,12.120881 11.430277,11.929004 C 11.430277,12.120881 11.430277,12.335558 11.430277,12.522972 C 11.622151,12.522972 11.799661,12.522972 11.989306,12.522972 C 12.288277,11.641680 12.285018,11.619907 12.653152,11.265157 C 12.708930,11.006347 12.795853,10.779087 12.862788,10.531432 C 13.422799,10.629604 13.791778,10.992960 14.365177,11.265157 C 15.775247,10.341472 16.372599,8.5782287 17.474774,7.5965318 C 17.432384,7.5028259 17.396733,7.4129539 17.369956,7.3170175 C 17.166823,7.3312724 16.976256,7.3700295 16.775988,7.3868961 z M 36.097416,7.5266533 C 35.608801,8.3811744 35.884478,9.1536726 36.656445,9.7627679 C 36.685450,9.5753569 36.695087,9.3799976 36.726324,9.2037392 C 36.605844,9.0698720 36.499640,8.9398889 36.376931,8.8194070 C 36.403705,8.3687193 36.406651,7.9594914 36.446809,7.5266533 C 36.310712,7.5266533 36.224590,7.5266532 36.097416,7.5266533 z M 25.161418,14.234997 C 24.976236,14.234997 24.335592,14.374754 24.148179,14.374754 C 23.958534,14.575553 24.511806,14.869034 24.252997,15.038601 C 24.188296,15.038601 24.620997,15.807265 24.567450,15.807265 C 24.431350,16.034838 24.837416,16.028588 24.567450,16.506051 C 24.627689,16.822868 23.939255,16.983908 24.008422,17.309654 C 25.043663,17.309654 25.015592,17.322372 25.301175,17.134958 C 25.397113,17.186274 25.484752,17.135671 25.580690,17.204837 C 25.730174,17.135671 25.834858,16.978868 25.999961,16.925322 C 25.904022,15.849919 25.083332,15.294778 25.161418,14.234997 z M 24.218057,15.422933 C 23.689280,15.072648 23.743988,15.988521 23.239757,16.296415 C 23.143819,16.613236 23.305128,16.715644 23.414454,16.820504 C 23.686650,16.780345 23.794948,16.742462 24.078300,16.715687 C 24.254559,16.548351 24.081956,15.657198 24.218057,15.422933 z M 15.203720,16.121719 C 15.136787,16.130645 15.058787,16.132115 14.994085,16.156658 C 14.967310,16.473476 14.950980,16.809212 14.924206,17.134958 C 14.979986,17.186274 15.027506,17.240486 15.098902,17.309654 C 15.475962,17.365432 15.874841,17.452354 16.251899,17.519290 C 16.428157,17.452354 16.623513,17.365432 16.810928,17.309654 C 16.810928,17.365432 16.810928,17.452354 16.810928,17.519290 C 17.065277,17.461281 17.344564,17.421925 17.614531,17.379533 C 17.654690,17.232278 17.700740,17.096358 17.754289,16.960262 C 17.700741,16.743839 17.654690,16.532155 17.614531,16.331354 C 17.344564,16.291195 17.065277,16.231758 16.810928,16.191597 C 16.810928,16.367858 16.800800,16.386286 16.147081,16.575929 C 15.821336,16.410826 15.518310,16.266740 15.203720,16.121719 z M 27.118019,21.572248 C 26.968532,21.670415 26.929891,21.817493 27.048140,21.991519 C 27.148542,22.145468 27.204186,22.413022 27.362594,22.410791 C 27.387137,22.410791 27.314267,22.639748 27.327654,22.655366 C 27.423589,22.829393 27.506770,22.790661 27.607169,22.795123 C 27.734345,22.806280 27.863657,22.820466 27.816804,22.655366 C 27.725329,22.318466 27.458485,22.356527 27.467412,22.340912 C 27.547733,22.180271 27.460762,21.789381 27.362594,21.642127 C 27.246574,21.468099 27.265272,21.474079 27.118019,21.572248 z M 37.599806,29.119135 C 37.724748,29.119135 37.852501,29.119134 37.984138,29.119135 C 39.452217,31.377032 40.985659,33.183595 41.652764,35.827479 C 41.271240,35.827479 41.093153,35.652785 40.709403,35.652782 C 40.642469,35.559077 40.553314,35.469205 40.499767,35.373268 C 40.238724,34.989517 40.007002,34.586175 39.766042,34.220271 C 39.217184,33.597790 39.260562,33.279499 39.207013,32.438368 C 38.321258,31.891741 37.760448,30.152140 37.599806,29.119135 z M 3.3593011,29.782981 L 4.6171156,36.875658 C 6.0851939,40.615019 7.0717465,43.199669 7.1676839,43.199669 C 7.1676839,42.878388 6.8881699,42.745595 6.8881695,42.431005 C 6.4285585,39.441301 7.6436763,38.600761 5.3857800,35.827479 C 4.4174733,33.986802 3.7720588,31.817766 3.3593011,29.782981 z M 43.085275,46.973113 C 42.759533,47.314472 42.419332,47.668778 42.106974,48.021291 C 40.761608,48.744176 40.989946,48.812576 40.325071,49.803195 C 39.916775,50.280656 39.899866,50.358251 39.870860,50.956192 C 39.993573,51.011969 40.097539,51.061725 40.220253,51.130888 C 41.106007,50.412468 41.714160,49.669777 42.421428,48.755016 C 42.907809,48.132535 43.219724,47.736157 43.469607,46.973113 C 43.335741,46.973113 43.205754,46.973114 43.085275,46.973113 z "
       style="font-size:12.000000;fill:url(#radialGradient2098);stroke:#0034b5;stroke-opacity:1.0000000" />
    <path
       sodipodi:nodetypes="cscccs"
       id="path772"
       d="M 34.473861,12.272036 C 24.857918,10.122025 27.630339,18.911778 16.874136,19.271162 C 6.8542276,19.408000 6.8504530,23.497229 3.5568921,29.164815 C 3.5568921,14.788976 15.210819,3.1350477 29.586630,3.1350477 C 36.774571,3.1350477 43.281999,6.0485293 47.992473,10.758991 C 48.260446,16.425773 39.531999,13.402978 34.473861,12.272036 z "
       style="font-size:12.000000;fill:url(#radialGradient2095)" />
    <path
       style="font-size:12.000000;fill:#ffffff"
       id="path1456"
       d="M 25.121120,5.5260929 C 25.540575,5.3364471 25.665518,5.0352475 26.167520,4.9504646 C 26.180909,4.8455998 26.209910,4.7340445 26.238916,4.6403373 C 27.120209,4.2744335 27.120209,4.2744335 27.202760,4.1071008 C 27.202760,3.7322714 27.013115,3.5359329 27.013115,3.1588730 C 27.298699,3.1588730 27.488344,2.9692274 28.155452,2.9692274 C 28.155452,2.9000624 28.155452,2.8308990 28.155452,2.7773510 C 28.777933,2.7773510 29.402647,2.7773510 30.029591,2.7773510 C 32.180394,3.1722594 33.960830,3.2124197 35.797042,4.0156241 C 36.053622,4.6827284 36.408372,4.8991468 36.557856,5.6175691 C 36.461918,5.6175691 36.368211,5.6175691 36.274503,5.6175691 C 36.274503,5.7135079 36.274503,5.8094455 36.274503,5.9053831 C 35.578396,5.9857044 34.886747,6.0816433 34.192867,6.1753503 C 34.192867,6.2712878 34.192867,6.3694572 34.192867,6.4631643 C 33.755564,6.5033250 33.755564,6.5033250 32.776103,6.9361643 C 31.606995,6.8692300 30.846183,6.6528118 29.663690,6.7487480 C 29.663690,6.8446854 29.663690,6.9361643 29.663690,7.0365647 C 29.215233,6.9919406 28.766776,6.9651685 28.329477,6.9361643 C 26.386171,8.9798717 23.679818,9.1405109 21.205503,9.2498356 C 19.411681,9.9013232 19.411681,9.9013232 19.054701,9.8321590 C 19.246579,8.0383378 23.911855,6.5702588 25.121120,5.5260929 z " />
    <path
       style="font-size:12.000000;fill:url(#radialGradient2091);fill-opacity:1.0000000"
       id="path1458"
       d="M 2.9839264,32.404422 L 3.3453689,29.798471 C 3.7581265,31.833255 4.4207699,33.997443 5.3890766,35.838119 C 7.6469727,38.611402 6.4377043,39.454768 6.8973153,42.444472 C 6.8973153,42.759064 6.8973153,43.073651 6.8973153,43.394932 C 6.8013781,43.394932 6.7121325,43.394932 6.6139626,43.394932 C 5.3890766,40.840295 5.3890766,40.840295 3.9209984,37.100934 C 3.7447398,36.369126 3.4725434,32.734629 2.9839264,32.404422 z M 8.5037244,13.261393 C 10.065511,11.016885 15.043144,5.7157386 17.762882,5.7157386 C 17.762882,5.8116764 17.762882,5.9053831 17.762882,5.9990901 C 17.247494,6.2980616 16.254641,6.7197460 16.254641,7.4136214 C 16.625008,7.3734614 17.002069,7.3444584 17.383589,7.3176851 C 17.410366,7.4136214 17.437139,7.5095598 17.479529,7.6032658 C 16.377354,8.5849616 15.777183,10.352010 14.367114,11.275695 C 13.793715,11.003498 13.414425,10.624209 12.854414,10.526036 C 12.787479,10.773692 12.720544,11.016885 12.664766,11.275695 C 12.296633,11.630444 12.296633,11.630444 11.997661,12.511736 C 11.808016,12.511736 11.618370,12.511736 11.426496,12.511736 C 11.426496,12.324323 11.426496,12.134677 11.426496,11.942799 C 10.351094,12.134677 9.4720324,12.732617 8.5037244,13.261393 z M 52.795962,16.565685 C 53.556776,18.076155 53.556776,18.076155 54.114556,19.693718 C 54.210497,19.693718 54.304202,19.693718 54.400142,19.693718 C 54.400142,19.869979 54.400142,20.061855 54.400142,20.251499 C 54.547393,20.633021 54.714731,21.012310 54.875371,21.396066 C 55.270280,22.658880 55.243504,24.167120 56.100257,25.159968 C 56.100257,25.755677 56.100257,26.355850 56.100257,26.956022 C 55.841445,26.822155 55.598252,26.697211 55.350600,26.576732 C 55.218965,26.195208 55.094022,25.813688 54.973539,25.445552 C 54.821824,25.418778 54.672337,25.407623 54.536239,25.394235 C 54.493847,25.923010 54.304202,26.114888 54.304202,26.576732 C 53.735267,30.447727 53.786584,32.002820 53.596939,33.334799 C 53.447451,33.374961 53.311356,33.417352 53.175258,33.470898 C 52.795962,32.368724 52.414444,31.266551 52.048537,30.164373 C 51.861125,29.894410 51.774111,29.198299 51.477373,28.843551 C 51.245337,28.832396 51.013297,28.832396 50.781259,28.832396 C 50.687555,28.709682 50.605002,28.586970 50.520222,28.466489 C 50.306033,27.893091 49.859811,27.852930 49.302029,27.620896 C 47.615299,28.439718 45.589439,28.586970 44.012035,27.433481 C 43.820157,27.145669 43.820157,27.145669 43.262378,27.047497 C 43.219988,27.201446 43.193215,27.366548 43.166442,27.527189 C 43.358319,28.194295 43.697451,28.399558 44.201684,28.843551 C 44.201684,29.131366 44.485033,29.227305 44.772848,29.702532 C 45.033890,29.677990 45.288238,29.662372 45.560436,29.651218 C 45.781316,29.227305 45.805858,29.146982 46.254314,29.008654 C 49.177083,31.320099 45.656373,33.850189 43.454254,35.360659 C 42.979025,35.552536 42.325306,36.092467 41.928167,36.217411 C 41.981716,36.433829 42.039722,36.650249 42.106660,36.882283 C 43.005798,37.143326 43.331547,36.882283 44.201684,36.502994 C 44.511806,36.409288 44.826395,36.311116 45.152139,36.217411 C 44.500652,39.628795 42.921016,41.058947 40.422159,43.305685 C 40.230284,43.615813 40.036177,43.923707 39.862148,44.242757 C 39.471702,44.742526 39.398077,44.836236 39.293211,45.463181 C 39.319985,46.157058 39.346760,46.846478 39.386919,47.544818 C 39.386919,47.667532 39.386919,47.790241 39.386919,47.926338 C 39.141497,49.097680 37.559629,49.572909 36.651563,50.293562 C 36.479769,50.347107 36.479769,50.347107 36.285659,51.310954 C 35.390980,51.935669 34.502993,52.576001 33.619468,53.216331 C 31.879193,54.099854 30.495896,53.961527 28.521352,53.870048 C 28.427647,53.611243 28.329477,53.368049 28.249157,53.122622 C 27.488344,52.562612 27.488344,52.562612 27.109055,51.993679 C 26.941719,50.795565 26.047037,50.373882 25.788229,49.340873 C 25.886399,49.204774 25.973412,49.082059 26.073811,48.959348 C 26.167520,48.959348 26.263456,48.959348 26.359395,48.959348 C 26.533424,48.486353 26.723067,48.008894 26.917176,47.544818 C 26.370549,44.267302 24.833309,44.526108 25.230447,41.005399 C 22.836453,38.270043 19.425068,39.871990 16.524609,38.203108 C 15.821804,37.143326 14.447434,35.371815 14.173006,34.135773 C 14.202009,33.785486 14.228783,33.444125 14.268944,33.102762 C 14.391656,31.045668 15.400123,29.146982 16.524609,27.527189 C 17.318888,26.913630 18.349670,26.657050 18.992230,26.016721 C 19.112713,25.394235 19.233192,25.284913 19.654874,24.794064 C 20.415685,24.508480 20.852988,24.521869 21.354988,23.881533 C 21.435310,23.881533 21.531248,23.881533 21.629416,23.881533 C 21.638341,24.002015 21.687425,24.147038 21.716430,24.269752 C 22.856534,24.885540 26.120666,24.421468 27.695840,24.582109 C 27.856479,25.155507 28.059512,25.418778 27.582053,25.829305 C 27.921181,26.355850 30.843954,28.167522 31.473128,27.991263 C 31.566837,27.719068 31.662774,27.444636 31.767637,27.188059 C 33.784570,27.118893 35.279421,27.705680 37.443611,27.471412 C 37.731426,26.996184 37.731426,26.996184 37.876450,26.114888 C 37.840752,25.637429 37.807284,25.159968 37.780511,24.695896 C 37.619871,24.602190 37.456999,24.508480 37.309745,24.414771 C 37.253965,24.508480 37.193728,24.602190 37.155795,24.695896 C 36.789893,24.722670 36.435145,24.753903 36.080396,24.794064 C 35.823819,24.847609 35.565006,24.903389 35.319584,24.974786 C 34.478449,24.631191 34.438290,24.046637 34.286573,23.176500 C 34.219639,23.149726 34.150476,23.118493 34.096928,23.093950 C 33.746642,23.118493 33.403048,23.149726 33.066148,23.176500 C 33.021527,23.464315 32.996985,23.745438 32.967981,24.031019 C 32.807338,23.993093 32.642236,23.964087 32.492752,23.937313 C 32.448128,23.676272 32.421355,23.419692 32.396813,23.176500 C 32.327648,23.230049 32.262944,23.299215 32.209397,23.366146 C 32.164776,23.107333 32.138004,22.861913 32.111229,22.616487 C 31.917121,22.551785 31.731938,22.482619 31.551218,22.426843 C 30.763631,21.788740 29.976046,21.161799 29.190692,20.539314 C 29.146068,20.633021 29.119293,20.726727 29.092520,20.822665 C 29.650303,21.735196 30.219237,22.197040 30.886342,22.998010 C 30.698929,23.131879 30.654308,22.897611 30.462429,23.035938 C 30.495896,23.607109 29.681536,23.854761 29.625760,23.790059 C 29.614604,23.774441 29.141605,24.555332 29.079134,24.591034 C 28.965346,24.646809 28.561513,24.138114 28.586055,24.068949 C 28.619524,23.997555 28.945267,23.645037 29.161684,23.616032 C 29.233078,23.607109 29.547669,23.761053 29.587831,23.720893 C 29.822097,23.486627 29.918036,23.145262 29.759627,22.922150 C 28.916262,21.719577 28.771241,22.089944 28.427647,21.570094 C 28.318322,21.404991 28.222384,21.244349 28.126445,21.081477 C 26.917176,20.929761 25.989029,20.657565 25.217063,21.570094 C 24.030103,22.098869 23.719977,23.040404 22.481705,23.651728 C 22.417000,23.582566 22.347839,23.515632 22.294289,23.464315 C 22.064487,23.555792 21.845836,23.651728 21.629416,23.745438 C 21.531248,23.745438 21.435310,23.745438 21.354988,23.745438 C 21.301443,23.531251 21.245662,23.310369 21.205503,23.093950 C 21.040399,23.027015 20.875299,22.960082 20.730275,22.902072 C 20.487085,21.012310 21.040399,20.075242 22.863229,20.251499 C 23.215744,20.264888 23.572726,20.280500 23.938628,20.293893 C 24.496409,19.396978 24.085881,19.026613 23.898469,18.076155 C 24.480791,17.993604 25.364314,17.993604 25.600816,17.326499 C 25.750300,17.257331 25.910940,17.190399 26.073811,17.139084 C 26.167520,17.190399 26.263456,17.257331 26.359395,17.326499 C 27.109055,16.947208 27.109055,16.947208 27.488344,16.565685 C 27.747156,16.469747 28.005964,16.384963 28.262541,16.306874 C 28.278163,16.144003 28.302703,15.983361 28.329477,15.816027 C 28.369636,15.604070 28.412029,15.396579 28.465577,15.193544 C 28.550360,15.160077 28.867178,15.374266 29.092520,15.416659 C 28.858254,15.543832 29.003276,16.135080 28.945267,16.168545 C 28.896183,16.195319 29.757394,16.014600 29.757394,16.199780 C 30.250473,16.904817 31.174159,16.322494 31.827876,16.115000 C 31.879193,15.860649 31.952820,15.604070 32.015290,15.345262 C 32.860889,15.345262 32.776103,15.139998 32.776103,14.403728 C 33.052763,14.363567 33.333885,14.336795 33.619468,14.310023 C 33.619468,14.171692 33.619468,14.048981 33.619468,13.928500 C 33.498986,13.928500 33.376275,13.928500 33.253564,13.928500 C 32.927819,13.955272 32.615463,13.982045 32.303106,14.026668 C 31.961744,13.397493 31.961744,13.397493 31.892578,12.772777 C 31.593610,12.647836 31.593610,12.647836 31.075988,12.895489 C 31.075988,13.261393 31.075988,13.261393 30.886342,13.546976 C 31.011285,13.738854 31.133999,13.928500 31.265634,14.118144 C 30.901961,14.796407 30.654308,15.285022 30.029591,15.722321 C 30.029591,15.787023 29.953735,15.851725 29.846641,15.907504 C 29.976046,16.246635 29.003276,15.409966 29.190692,14.961509 C 29.146068,14.767401 29.119293,14.582219 29.092520,14.403728 C 28.806937,14.432733 28.521352,14.472894 28.233539,14.510822 C 27.976958,14.131530 27.976958,14.131530 27.867635,13.453269 C 28.695379,12.420262 30.341950,12.090054 30.710085,10.784850 C 32.764948,9.9013232 33.554767,10.050809 35.607401,11.275695 C 36.461918,11.016885 36.992927,10.555043 37.780511,10.240453 C 37.780511,10.202527 37.780511,10.173523 37.780511,10.148977 C 37.780511,9.9593347 37.780511,9.7629926 37.780511,9.5755816 C 37.972387,9.5755816 38.162034,9.5755816 38.353908,9.5755816 C 38.095100,8.5291840 37.731426,7.3333027 37.593098,6.3694572 C 37.550704,6.2021240 37.523933,6.0504082 37.497159,5.9053831 C 37.865293,5.9343877 38.244585,5.9589320 38.623874,5.9990901 C 38.556941,5.6733486 38.501164,5.3609902 38.449847,5.0486331 C 38.162034,4.9125349 37.876450,4.7898229 37.593098,4.6648796 C 37.523933,4.5042397 37.456999,4.3547542 37.398989,4.2052700 C 39.058941,4.6001772 40.596191,5.4145363 42.120043,6.1775821 C 43.523419,6.8960032 44.650134,7.6568158 45.904030,8.6385087 C 46.406031,9.0445737 46.905801,9.4506376 47.412268,9.8633942 C 49.520678,11.750924 51.517528,14.011051 52.795962,16.565685 z M 42.120043,48.020048 C 42.432400,47.667532 42.746992,47.315011 43.072733,46.973652 C 43.193215,46.973652 43.320388,46.973652 43.454254,46.973652 C 43.204370,47.736694 42.894242,48.144992 42.407862,48.767474 C 41.700592,49.682236 41.116038,50.416272 40.230284,51.134692 C 40.107570,51.065530 39.984861,51.000826 39.862148,50.945048 C 39.891153,50.347107 39.917927,50.293562 40.326222,49.816101 C 40.991097,48.825482 40.774677,48.742933 42.120043,48.020048 z M 15.114540,17.326499 C 15.043144,17.257331 14.978441,17.190399 14.922661,17.139084 C 14.949435,16.813339 14.978441,16.485363 15.005215,16.168545 C 15.069916,16.144003 15.139081,16.115000 15.206015,16.106074 C 15.520605,16.251096 15.832959,16.400581 16.158703,16.565685 C 16.812423,16.376041 16.812423,16.376041 16.812423,16.199780 C 17.066772,16.239940 17.343429,16.282334 17.613397,16.322494 C 17.653555,16.523295 17.709335,16.730786 17.762882,16.947208 C 17.709335,17.083305 17.653555,17.219403 17.613397,17.366658 C 17.343429,17.409049 17.066772,17.460366 16.812423,17.518376 C 16.812423,17.451440 16.812423,17.382277 16.812423,17.326499 C 16.625008,17.382277 16.430899,17.451440 16.254641,17.518376 C 15.877584,17.451440 15.491599,17.382277 15.114540,17.326499 z M 35.132170,22.616487 C 34.569928,21.965000 35.049619,20.686568 35.607401,20.155560 C 36.368211,20.403213 36.720729,20.592861 37.468154,20.293893 C 38.162034,21.041316 39.116953,21.110482 39.578794,22.049784 C 39.578794,22.076556 39.578794,22.098869 39.578794,22.143490 C 38.844757,22.562940 38.623874,22.455846 37.780511,22.333135 C 37.523933,22.263972 37.267354,22.197040 37.021929,22.143490 C 36.381598,22.290745 35.754654,22.455846 35.132170,22.616487 z M 42.026338,21.570094 C 41.684976,20.575011 40.638580,20.726727 41.276679,19.408136 C 41.426165,19.245260 41.575652,19.095776 41.727364,18.944060 C 41.901395,18.944060 42.079886,18.957448 42.256143,18.970835 C 42.680056,20.865057 43.603740,21.500929 44.295386,23.555792 C 44.052196,23.689658 44.052196,23.689658 42.595273,23.555792 C 42.543956,22.998010 42.488178,22.440229 42.445787,21.895836 C 42.298535,21.788740 42.160205,21.677186 42.026338,21.570094 z M 39.770673,34.231711 C 40.011634,34.597613 40.254826,34.976908 40.515869,35.360659 C 40.569414,35.456598 40.638580,35.552536 40.705513,35.646242 C 41.089263,35.646242 41.276679,35.838119 41.658203,35.838119 C 40.991097,33.194237 39.440466,31.389263 37.972387,29.131366 C 37.840752,29.131366 37.718039,29.131366 37.593098,29.131366 C 37.753739,30.164373 38.311519,31.891264 39.197274,32.437890 C 39.250820,33.279021 39.221815,33.609230 39.770673,34.231711 z M 25.576271,17.192630 C 25.480333,17.123464 25.408938,17.190399 25.313001,17.139084 C 25.027417,17.326499 25.027417,17.326499 23.992175,17.326499 C 23.923010,17.000753 24.623581,16.840112 24.563343,16.523295 C 24.833309,16.045832 24.427243,16.019060 24.563343,15.791487 C 24.616890,15.791487 24.192976,15.028443 24.257677,15.028443 C 24.516487,14.858876 23.965403,14.577754 24.155048,14.376955 C 24.342461,14.376955 24.987254,14.249781 25.172437,14.249781 C 25.094351,15.309562 25.910940,15.860649 26.006880,16.936052 C 25.841775,16.989599 25.725755,17.123464 25.576271,17.192630 z M 23.253676,16.306874 C 23.757906,15.998982 23.697667,15.079760 24.226444,15.430045 C 24.090344,15.664310 24.246524,16.558991 24.070266,16.726326 C 23.786912,16.753101 23.693204,16.766487 23.421008,16.806646 C 23.311681,16.701785 23.157738,16.623695 23.253676,16.306874 z M 36.651563,9.7629926 C 35.879594,9.1538974 35.591781,8.3640804 36.080396,7.5095598 C 36.207569,7.5095598 36.325820,7.5095598 36.461918,7.5095598 C 36.421758,7.9423981 36.394985,8.3796986 36.368211,8.8303864 C 36.490922,8.9508682 36.615865,9.0735784 36.736345,9.2074456 C 36.705111,9.3837040 36.680567,9.5755816 36.651563,9.7629926 z M 27.104591,21.558938 C 27.251843,21.460768 27.260770,21.460768 27.376790,21.634795 C 27.474958,21.782050 27.555280,22.174727 27.474958,22.335368 C 27.466032,22.350983 27.718150,22.301901 27.809625,22.638801 C 27.856479,22.803901 27.733769,22.801674 27.606592,22.790517 C 27.506192,22.786055 27.416947,22.823982 27.321012,22.649956 C 27.307624,22.634338 27.392408,22.408994 27.367864,22.408994 C 27.209456,22.411224 27.135827,22.143490 27.035425,21.989542 C 26.917176,21.815516 26.955104,21.657104 27.104591,21.558938 z " />
    <path
       style="font-size:12.000000;fill:none;stroke:#12007f;stroke-opacity:1.0000000"
       id="path3240"
       d="M 29.904415,2.8752456 C 44.598510,2.8752456 56.583181,14.794686 56.583181,29.413702 C 56.583181,44.030518 44.598510,55.952159 29.904415,55.952159 C 15.205903,55.952159 3.2256499,44.030518 3.2256499,29.413702 C 3.2256499,17.916340 10.635681,8.0919237 20.951827,4.4184866 L 20.951827,4.4184866 C 20.980556,4.4074945 21.009284,4.3987014 21.040225,4.3855117 C 23.815949,3.4094436 26.799407,2.8752456 29.904415,2.8752456 z "
       sodipodi:nodetypes="cccccccc" />
  </g>
</svg>
