<?xml version="1.0" encoding="UTF-8" standalone="no"?>
<!-- Created with Inkscape (http://www.inkscape.org/) -->
<svg
   xmlns:dc="http://purl.org/dc/elements/1.1/"
   xmlns:cc="http://web.resource.org/cc/"
   xmlns:rdf="http://www.w3.org/1999/02/22-rdf-syntax-ns#"
   xmlns:svg="http://www.w3.org/2000/svg"
   xmlns="http://www.w3.org/2000/svg"
   xmlns:xlink="http://www.w3.org/1999/xlink"
   xmlns:sodipodi="http://inkscape.sourceforge.net/DTD/sodipodi-0.dtd"
   xmlns:inkscape="http://www.inkscape.org/namespaces/inkscape"
   sodipodi:docname="gnome-searchtool-animation-rest.svg"
   sodipodi:docbase="/home/david/.icons/eXperience/normal/apps"
   height="60.000000px"
   width="60.000000px"
   inkscape:version="0.41+cvs"
   sodipodi:version="0.32"
   id="svg1">
  <defs
     id="defs3">
    <linearGradient
       id="linearGradient1532">
      <stop
         id="stop1534"
         style="stop-color:#175dc4;stop-opacity:1.0000000;"
         offset="0.0000000" />
      <stop
         id="stop1533"
         style="stop-color:#aeccf5;stop-opacity:1.0000000;"
         offset="1.0000000" />
    </linearGradient>
    <linearGradient
       id="linearGradient1766">
      <stop
         id="stop1767"
         offset="0"
         style="stop-color:#000000;stop-opacity:1;" />
      <stop
         id="stop1768"
         offset="1"
         style="stop-color:#000000;stop-opacity:0;" />
    </linearGradient>
    <linearGradient
       id="linearGradient1762">
      <stop
         id="stop1763"
         offset="0.0000000"
         style="stop-color:#968ecd;stop-opacity:1.0000000;" />
      <stop
         id="stop1764"
         offset="1.0000000"
         style="stop-color:#554d85;stop-opacity:1.0000000;" />
    </linearGradient>
    <linearGradient
       id="linearGradient1751">
      <stop
         id="stop1752"
         offset="0.0000000"
         style="stop-color:#ffffff;stop-opacity:1.0000000;" />
      <stop
         id="stop1753"
         offset="1.0000000"
         style="stop-color:#afd3ff;stop-opacity:1.0000000;" />
    </linearGradient>
    <linearGradient
       id="linearGradient1746">
      <stop
         id="stop1747"
         offset="0.0000000"
         style="stop-color:#ffffff;stop-opacity:1.0000000;" />
      <stop
         id="stop1748"
         offset="1.0000000"
         style="stop-color:#ffffff;stop-opacity:0.0000000;" />
    </linearGradient>
    <radialGradient
       gradientUnits="userSpaceOnUse"
       gradientTransform="matrix(0.824459,0.000000,0.000000,0.548508,8.739827,9.264719)"
       fy="3.1320463"
       fx="43.392352"
       r="59.917704"
       cy="3.1320463"
       cx="43.392352"
       id="radialGradient1750"
       xlink:href="#linearGradient1746"
       inkscape:collect="always" />
    <radialGradient
       gradientUnits="userSpaceOnUse"
       gradientTransform="matrix(0.648891,0.000000,0.000000,0.696915,8.739827,9.264719)"
       fy="47.514152"
       fx="44.574645"
       r="78.146215"
       cy="47.514152"
       cx="44.574645"
       id="radialGradient1757"
       xlink:href="#linearGradient1751"
       inkscape:collect="always" />
    <linearGradient
       gradientUnits="userSpaceOnUse"
       gradientTransform="matrix(0.650559,0.000000,0.000000,0.695128,8.739827,9.264719)"
       y2="51.416283"
       x2="58.475802"
       y1="7.0258278"
       x1="22.609107"
       id="linearGradient1765"
       xlink:href="#linearGradient1762"
       inkscape:collect="always" />
    <linearGradient
       gradientUnits="userSpaceOnUse"
       gradientTransform="matrix(0.667515,0.000000,0.000000,0.677471,8.739827,9.264719)"
       y2="55.049853"
       x2="52.728953"
       y1="51.526812"
       x1="50.651265"
       id="linearGradient1769"
       xlink:href="#linearGradient1766"
       inkscape:collect="always" />
    <defs
       id="defs2327">
      <linearGradient
         y2="62.410500"
         x2="72.902802"
         y1="-4.1747999"
         x1="72.902802"
         gradientUnits="userSpaceOnUse"
         id="linearGradient659">
        <stop
           id="stop661"
           style="stop-color:#ffffff;stop-opacity:1.0000;"
           offset="0" />
        <stop
           id="stop663"
           style="stop-color:#fffff5;stop-opacity:0;"
           offset="1" />
      </linearGradient>
      <linearGradient
         xlink:href="#linearGradient1532"
         spreadMethod="pad"
         y2="62.410500"
         x2="72.902802"
         y1="-4.1747999"
         x1="72.902802"
         gradientUnits="userSpaceOnUse"
         id="aigrd1" />
      <linearGradient
         y2="115.26420"
         x2="135.46680"
         y1="115.26420"
         x1="6.2168002"
         gradientUnits="userSpaceOnUse"
         id="aigrd15">
        <stop
           id="stop2291"
           style="stop-color:#415dc4"
           offset="0" />
        <stop
           id="stop2292"
           style="stop-color:#aeccf5"
           offset="1" />
      </linearGradient>
      <linearGradient
         gradientTransform="scale(0.900565,1.110414)"
         gradientUnits="objectBoundingBox"
         y2="0.60506731"
         x2="0.73793292"
         y1="0.070356607"
         x1="0.36545247"
         id="linearGradient773"
         xlink:href="#aigrd1" />
      <radialGradient
         gradientTransform="scale(1.000001,0.999999)"
         gradientUnits="objectBoundingBox"
         fy="0.093749791"
         fx="0.10135135"
         r="1.1807489"
         cy="0.093749791"
         cx="0.10135135"
         id="radialGradient774"
         xlink:href="#aigrd1" />
      <radialGradient
         gradientUnits="objectBoundingBox"
         fy="0.17187564"
         fx="-0.98913002"
         r="2.1136074"
         cy="0.17187564"
         cx="-0.98913002"
         id="radialGradient775"
         xlink:href="#aigrd1" />
      <radialGradient
         gradientTransform="scale(0.938914,1.065060)"
         gradientUnits="objectBoundingBox"
         fy="0.12469950"
         fx="0.16681667"
         r="0.84018791"
         cy="0.12469950"
         cx="0.16681667"
         id="radialGradient776"
         xlink:href="#linearGradient659" />
      <radialGradient
         fy="0.18749785"
         fx="-0.029411212"
         r="0.85121727"
         cy="0.18749785"
         cx="-0.029411212"
         id="radialGradient777"
         xlink:href="#aigrd1" />
      <radialGradient
         gradientUnits="objectBoundingBox"
         fy="0.50000030"
         fx="-0.85999984"
         r="2.0647945"
         cy="0.50000030"
         cx="-0.85999984"
         id="radialGradient778"
         xlink:href="#aigrd1" />
      <radialGradient
         gradientUnits="objectBoundingBox"
         fy="0.95310795"
         fx="-0.087153599"
         r="1.0279226"
         cy="0.95310795"
         cx="-0.087153599"
         id="radialGradient779"
         xlink:href="#aigrd1" />
      <radialGradient
         gradientUnits="objectBoundingBox"
         gradientTransform="scale(1.000006,0.999994)"
         fy="0.92963868"
         fx="-0.047862746"
         r="0.95944673"
         cy="0.92963868"
         cx="-0.047862746"
         id="radialGradient780"
         xlink:href="#aigrd1" />
      <radialGradient
         fy="0.078127153"
         fx="-0.14773858"
         r="1.5595293"
         cy="0.078127153"
         cx="-0.14773858"
         id="radialGradient781"
         xlink:href="#aigrd1" />
      <radialGradient
         fy="0.19530550"
         fx="-0.71428186"
         r="2.1028900"
         cy="0.19530550"
         cx="-0.71428186"
         id="radialGradient782"
         xlink:href="#aigrd1" />
      <radialGradient
         fy="0.12500304"
         fx="-0.055557165"
         r="1.4306992"
         cy="0.12500304"
         cx="-0.055557165"
         id="radialGradient783"
         xlink:href="#aigrd1" />
      <radialGradient
         gradientUnits="objectBoundingBox"
         fy="0.046874978"
         fx="-0.014925453"
         r="3.3873310"
         cy="0.046874978"
         cx="-0.014925453"
         id="radialGradient784"
         xlink:href="#aigrd1" />
      <radialGradient
         fy="0.16406243"
         fx="-5.2500367"
         r="7.3446145"
         cy="0.16406243"
         cx="-5.2500367"
         id="radialGradient884"
         xlink:href="#aigrd1" />
      <radialGradient
         gradientUnits="objectBoundingBox"
         fy="0.14843710"
         fx="-0.20238160"
         r="1.1100850"
         cy="0.14843710"
         cx="-0.20238160"
         id="radialGradient885"
         xlink:href="#aigrd1" />
    </defs>
    <radialGradient
       cx="2458.00000"
       cy="21915"
       r="8500"
       fx="2458.00000"
       fy="21915"
       id="id3"
       gradientUnits="userSpaceOnUse">
      <stop
         style="stop-color:#a66500;stop-opacity:1.0000;"
         offset="0"
         id="stop598" />
      <stop
         style="stop-color:#da8f00;stop-opacity:1.0000;"
         offset="1"
         id="stop600" />
    </radialGradient>
    <linearGradient
       x1="20158"
       y1="20912"
       x2="10575"
       y2="9295"
       id="id1"
       gradientUnits="userSpaceOnUse">
      <stop
         style="stop-color:#eda700;stop-opacity:1.0000;"
         offset="0"
         id="stop580" />
      <stop
         style="stop-color:#ffffff;stop-opacity:1.0000;"
         offset="0.38823500"
         id="stop582" />
      <stop
         style="stop-color:#ffcb50;stop-opacity:1.0000;"
         offset="0.7"
         id="stop584" />
      <stop
         style="stop-color:#ed8700;stop-opacity:1.0000;"
         offset="1"
         id="stop618" />
    </linearGradient>
    <linearGradient
       x1="10100"
       y1="14100"
       x2="15000"
       y2="19500"
       id="id0"
       gradientUnits="userSpaceOnUse">
      <stop
         style="stop-color:#f5fffa;stop-opacity:1.0000;"
         offset="0"
         id="stop565" />
      <stop
         style="stop-color:#6f6d7f;stop-opacity:1.0000;"
         offset="1.20000005"
         id="stop567" />
    </linearGradient>
    <linearGradient
       x1="10100"
       y1="14100"
       x2="15000"
       y2="19500"
       id="linearGradient629"
       gradientUnits="userSpaceOnUse">
      <stop
         style="stop-color:#ffffff;stop-opacity:0.6980;"
         offset="0"
         id="stop633" />
      <stop
         style="stop-color:#5db7ff;stop-opacity:0.6980;"
         offset="1.20000005"
         id="stop637" />
    </linearGradient>
    <linearGradient
       x1="10100"
       y1="14100"
       x2="15000"
       y2="19500"
       id="linearGradient644"
       gradientUnits="userSpaceOnUse">
      <stop
         style="stop-color:#f5ffff;stop-opacity:1.0000;"
         offset="0"
         id="stop648" />
      <stop
         style="stop-color:#ffffff;stop-opacity:0;"
         offset="1.20000005"
         id="stop652" />
    </linearGradient>
    <linearGradient
       x1="10100"
       y1="14100"
       x2="15000"
       y2="19500"
       id="linearGradient660"
       gradientUnits="userSpaceOnUse">
      <stop
         style="stop-color:#f5ffff;stop-opacity:0.4902;"
         offset="0"
         id="stop662" />
      <stop
         style="stop-color:#ffffff;stop-opacity:0;"
         offset="1.20000005"
         id="stop664" />
    </linearGradient>
    <radialGradient
       inkscape:collect="always"
       xlink:href="#linearGradient629"
       id="radialGradient3390"
       gradientUnits="userSpaceOnUse"
       gradientTransform="matrix(1.185810e-3,0.000000,0.000000,1.185810e-3,21.54985,20.77598)"
       cx="18631.6211"
       cy="17526.4570"
       fx="18631.6211"
       fy="17526.4570"
       r="40170.2656" />
    <radialGradient
       inkscape:collect="always"
       xlink:href="#linearGradient629"
       id="radialGradient3392"
       gradientUnits="userSpaceOnUse"
       cx="18969.1191"
       cy="17830.8145"
       fx="18969.1191"
       fy="17830.8145"
       r="23165.9414" />
    <radialGradient
       inkscape:collect="always"
       xlink:href="#id0"
       id="radialGradient3394"
       gradientUnits="userSpaceOnUse"
       gradientTransform="translate(-1.203106e-5,1.325215e-4)"
       cx="25537.7500"
       cy="27369.5566"
       fx="25537.7500"
       fy="27369.5566"
       r="3682.17627" />
    <radialGradient
       inkscape:collect="always"
       xlink:href="#linearGradient644"
       id="radialGradient3396"
       gradientUnits="userSpaceOnUse"
       gradientTransform="translate(-7.321378e-5,-4.329504e-5)"
       cx="18401.3555"
       cy="17398.3379"
       fx="18401.3555"
       fy="17398.3379"
       r="11887.5078" />
    <radialGradient
       inkscape:collect="always"
       xlink:href="#id0"
       id="radialGradient3398"
       gradientUnits="userSpaceOnUse"
       gradientTransform="matrix(1.177857e-3,0.000000,0.000000,1.193818e-3,21.54985,20.77598)"
       cx="16467.203"
       cy="15673.818"
       fx="16467.203"
       fy="15673.818"
       r="3055.2430" />
    <radialGradient
       inkscape:collect="always"
       xlink:href="#linearGradient629"
       id="radialGradient3400"
       gradientUnits="userSpaceOnUse"
       gradientTransform="matrix(1.185810e-3,0.000000,0.000000,1.185810e-3,21.54985,20.77598)"
       cx="18299.9414"
       cy="17753.1152"
       fx="18299.9414"
       fy="17753.1152"
       r="28430.2363" />
    <radialGradient
       inkscape:collect="always"
       xlink:href="#id0"
       id="radialGradient3402"
       gradientUnits="userSpaceOnUse"
       gradientTransform="matrix(2.013216e-3,-6.897277e-20,1.027261e-20,6.984617e-4,0.547229,29.92897)"
       cx="-2182.7423"
       cy="33086.471"
       fx="-2182.7423"
       fy="33086.471"
       r="11539.996" />
    <radialGradient
       inkscape:collect="always"
       xlink:href="#id0"
       id="radialGradient3404"
       gradientUnits="userSpaceOnUse"
       gradientTransform="matrix(1.200508e-3,0.000000,0.000000,1.171292e-3,21.54985,20.77598)"
       cx="17070.1621"
       cy="18596"
       fx="17070.1621"
       fy="18596"
       r="3734.60205" />
    <linearGradient
       inkscape:collect="always"
       xlink:href="#linearGradient644"
       id="linearGradient3406"
       gradientUnits="userSpaceOnUse"
       gradientTransform="matrix(2.013216e-3,-6.897279e-20,1.027261e-20,6.984617e-4,0.547229,29.92897)"
       x1="-1083.75916"
       y1="39560.3008"
       x2="2312.52173"
       y2="39368.1211" />
    <radialGradient
       inkscape:collect="always"
       xlink:href="#linearGradient629"
       id="radialGradient3408"
       gradientUnits="userSpaceOnUse"
       gradientTransform="translate(-9.447385e-5,4.096389e-5)"
       cx="13189.8584"
       cy="11245.8857"
       fx="13189.8584"
       fy="11245.8857"
       r="16247.8887" />
    <linearGradient
       inkscape:collect="always"
       xlink:href="#id0"
       id="linearGradient3410"
       gradientUnits="userSpaceOnUse"
       gradientTransform="matrix(1.185810e-3,0.000000,0.000000,1.185810e-3,21.54985,20.77598)"
       x1="-1308.28711"
       y1="-85.1431808"
       x2="12508.2441"
       y2="18950.7070" />
    <radialGradient
       inkscape:collect="always"
       xlink:href="#id0"
       id="radialGradient3412"
       gradientUnits="userSpaceOnUse"
       gradientTransform="translate(-1.189675e-4,-1.256190e-4)"
       cx="26631.0430"
       cy="29167.0723"
       fx="26631.0430"
       fy="29167.0723"
       r="4284.19678" />
    <linearGradient
       inkscape:collect="always"
       xlink:href="#id3"
       id="linearGradient3414"
       gradientUnits="userSpaceOnUse"
       gradientTransform="matrix(8.187640e-4,-2.805090e-20,2.525880e-20,1.717408e-3,0.547229,29.92897)"
       x1="850.317566"
       y1="27356.0645"
       x2="6753.38184"
       y2="20482.1387" />
    <linearGradient
       inkscape:collect="always"
       xlink:href="#id1"
       id="linearGradient3416"
       gradientUnits="userSpaceOnUse"
       gradientTransform="matrix(7.749243e-4,-2.654895e-20,2.668776e-20,1.814567e-3,0.547229,29.92897)"
       x1="-3478.94458"
       y1="21261.0059"
       x2="3741.10767"
       y2="21260.9609" />
    <linearGradient
       inkscape:collect="always"
       xlink:href="#id0"
       id="linearGradient3418"
       gradientUnits="userSpaceOnUse"
       gradientTransform="matrix(1.185810e-3,0.000000,0.000000,1.185810e-3,21.54985,20.77598)"
       x1="389.401825"
       y1="405.028870"
       x2="24589.6562"
       y2="29618.1992" />
    <radialGradient
       inkscape:collect="always"
       xlink:href="#linearGradient660"
       id="radialGradient3420"
       gradientUnits="userSpaceOnUse"
       gradientTransform="matrix(1.185810e-3,0.000000,0.000000,1.185810e-3,21.54985,20.77598)"
       cx="11715.2910"
       cy="10444.3965"
       fx="11715.2910"
       fy="10444.3965"
       r="15131.6611" />
  </defs>
  <sodipodi:namedview
     showborder="true"
     inkscape:grid-bbox="false"
     inkscape:grid-points="false"
     showgrid="false"
     gridoriginx="0.0000000pt"
     gridoriginy="0.0000000pt"
     gridspacingx="1.0000000pt"
     gridspacingy="1.0000000pt"
     inkscape:guide-bbox="true"
     showguides="false"
     inkscape:current-layer="svg1"
     inkscape:window-y="141"
     inkscape:window-x="35"
     inkscape:window-height="519"
     inkscape:window-width="857"
     inkscape:cy="-2.2118774"
     inkscape:cx="73.944201"
     inkscape:zoom="2.8284271"
     inkscape:pageshadow="2"
     inkscape:pageopacity="0.0"
     borderopacity="1.0"
     bordercolor="#666666"
     pagecolor="#ffffff"
     id="base">
    <sodipodi:guide
       id="guide2809"
       position="0.0000000"
       orientation="vertical" />
    <sodipodi:guide
       id="guide2810"
       position="48.000000"
       orientation="vertical" />
    <sodipodi:guide
       id="guide2811"
       position="0.0000000"
       orientation="horizontal" />
    <sodipodi:guide
       id="guide2819"
       position="47.000000"
       orientation="horizontal" />
    <sodipodi:guide
       id="guide1774"
       position="48.405405"
       orientation="horizontal" />
  </sodipodi:namedview>
  <metadata
     id="metadata4">
    <rdf:RDF
       id="RDF5">
      <cc:Work
         id="Work6"
         rdf:about="">
        <dc:format
           id="format7">image/svg+xml</dc:format>
        <dc:type
           rdf:resource="http://purl.org/dc/dcmitype/StillImage"
           id="type9" />
      </cc:Work>
    </rdf:RDF>
  </metadata>
  <g
     id="g2255"
     transform="matrix(1.144797,0.000000,0.000000,1.144797,-9.753933,-9.789890)">
    <path
       style="font-size:12.000000;opacity:0.12206573;fill:url(#linearGradient1769);fill-opacity:1.0000000;fill-rule:evenodd"
       d="M 10.086136,52.456698 C 14.456238,52.457599 18.060429,52.204392 25.409239,51.821491 C 29.308905,51.618303 34.954796,51.581327 40.668282,51.416881 C 43.941566,46.914361 44.678703,40.957065 45.264377,37.499077 C 46.513505,30.123873 47.590334,25.515928 47.701611,12.747056 C 37.535656,16.213162 30.640685,17.761568 21.837177,21.169379 C 18.872383,30.650662 13.050931,42.975414 10.086136,52.456698 z "
       id="path913"
       nodetypes="cccccc"
       sodipodi:nodetypes="cscsccc" />
    <path
       style="font-size:12.000000;fill:url(#linearGradient1765);fill-opacity:1.0000000;fill-rule:evenodd"
       d="M 8.9578757,50.515448 C 19.982274,52.046741 38.718433,52.207145 45.099280,50.879821 C 48.193481,36.949069 47.602151,23.969647 45.544176,9.2647623 C 34.158303,10.874006 25.058354,11.119492 11.650514,9.9584693 C 14.223080,18.224395 12.129753,40.274629 8.9578757,50.515448 z "
       id="path861"
       sodipodi:nodetypes="ccccc" />
    <path
       style="font-size:12.000000;fill:url(#radialGradient1757);fill-opacity:1.0000000;fill-rule:evenodd"
       d="M 10.013974,49.674855 C 19.775607,51.074454 39.252527,50.801290 44.294746,49.617824 C 47.077712,28.690505 46.089090,21.867745 44.601347,10.514292 C 29.793816,11.952236 22.182381,11.839814 12.942794,10.945949 C 15.276359,18.089391 12.622794,41.706623 10.013974,49.674855 z "
       id="path863"
       sodipodi:nodetypes="ccccc" />
    <g
       id="g3352"
       style="stroke:#adadad;stroke-linecap:round;stroke-linejoin:round;stroke-opacity:1.0000000"
       transform="matrix(1.064534,0.000000,0.000000,1.064534,-2.861157,-4.361591)">
      <path
         sodipodi:nodetypes="ccccccccc"
         id="path2293"
         d="M 17.528053,19.960078 C 17.652306,18.883380 18.936711,19.960078 20.479392,19.960078 C 21.567206,19.960078 25.010617,20.044637 25.828693,19.783301 C 26.703745,19.503765 28.692915,20.667185 29.886785,20.667185 C 32.587189,20.667185 32.565128,20.444445 34.313794,19.606525 C 34.330054,19.598733 36.826660,20.100149 37.818509,19.783301 C 38.079373,19.699968 38.310398,19.547599 38.556342,19.429748 C 38.877016,19.276089 39.120113,19.960078 39.478636,19.960078 C 40.571702,19.960078 40.821472,19.719650 41.692140,20.136855"
         style="fill:none;fill-opacity:0.75000000;fill-rule:evenodd;stroke:#adadad;stroke-width:1.0214969pt;stroke-linecap:round;stroke-linejoin:round;stroke-opacity:1.0000000" />
      <path
         id="path2295"
         d="M 18.098494,24.909826 C 21.303397,24.909826 20.699001,22.131106 22.993589,24.202719 C 24.796306,25.830258 28.178168,23.095959 29.846721,23.849165 C 30.830452,24.293234 32.074465,25.373435 33.175386,24.379496 C 33.588176,24.006818 34.219673,24.850900 34.741815,25.086602 C 37.383119,26.278921 38.376665,23.518146 39.049499,24.733049 C 39.195661,24.996965 41.831174,25.086602 42.182360,25.086602"
         style="fill:none;fill-opacity:0.75000000;fill-rule:evenodd;stroke:#adadad;stroke-width:1.0524417pt;stroke-linecap:round;stroke-linejoin:round;stroke-opacity:1.0000000" />
      <path
         id="path2297"
         d="M 17.872685,29.506020 C 18.399940,29.506020 20.190260,29.263973 21.147522,28.798913 C 22.299383,28.239313 22.764966,29.152466 24.240424,29.152466 C 25.615009,29.152466 25.117361,27.674629 25.877842,29.152466 C 26.493443,30.348757 26.978522,27.755874 27.515260,28.798913 C 28.527983,30.766928 31.153968,28.782086 31.153968,29.682796 C 31.153968,29.975483 32.786266,29.329243 34.428805,29.329243 C 36.458377,29.329243 38.788516,30.304789 40.432673,29.506020 C 40.697008,29.377599 41.459206,30.004733 41.524285,30.036350"
         style="fill:none;fill-opacity:0.75000000;fill-rule:evenodd;stroke:#adadad;stroke-width:1.0144860pt;stroke-linecap:round;stroke-linejoin:round;stroke-opacity:1.0000000" />
      <path
         id="path2299"
         d="M 17.371261,33.571884 C 17.942640,33.306232 18.994452,32.334447 20.222929,32.334447 C 21.782444,32.334447 22.427882,33.695784 24.215263,32.864777 C 25.245965,32.385573 26.167834,33.850562 27.637265,33.395107 C 29.409668,32.845745 32.092186,34.102214 33.910934,34.102214 C 35.311482,34.102214 36.356825,34.479529 37.523046,33.395107 C 37.826277,33.113146 39.539046,33.041554 39.994491,33.041554 C 40.802649,33.041554 40.493482,32.590754 41.230214,32.864777"
         style="fill:none;fill-opacity:0.75000000;fill-rule:evenodd;stroke:#adadad;stroke-width:1.0370300pt;stroke-linecap:round;stroke-linejoin:round;stroke-opacity:1.0000000" />
      <path
         id="path2301"
         d="M 16.881286,38.168078 C 17.734574,38.168078 18.848014,36.025473 20.508746,36.753864 C 22.897731,37.801664 28.494040,36.621013 29.577393,38.521631 C 30.076581,39.397400 31.634030,38.009451 31.995699,38.168078 C 34.200756,39.135208 33.145007,36.825650 34.212480,38.698408 C 34.421924,39.065853 34.675964,37.337206 35.623158,38.168078 C 36.900345,39.288417 37.329884,37.991301 38.444516,37.991301 C 38.700396,37.991301 40.654532,38.003169 40.862821,37.637748 C 41.006898,37.384982 41.357088,37.717761 41.366635,37.726136"
         style="fill:none;fill-opacity:0.75000000;fill-rule:evenodd;stroke:#adadad;stroke-width:1.0677080pt;stroke-linecap:round;stroke-linejoin:round;stroke-opacity:1.0000000" />
      <path
         id="path2303"
         d="M 16.970563,42.057165 C 17.233712,41.530866 23.138304,41.251949 23.688077,41.526835 C 24.552387,41.958990 26.631033,42.233942 27.400388,42.233942 C 29.032169,42.233942 29.930275,42.057165 31.466252,42.057165 C 34.401598,42.057165 34.152283,43.471379 36.592776,43.471379 C 37.864728,43.471379 37.712325,42.587495 39.244427,42.587495 C 39.921734,42.587495 39.926874,42.915349 40.481864,42.499107"
         style="fill:none;fill-opacity:0.75000000;fill-rule:evenodd;stroke:#adadad;stroke-width:1.0000000pt;stroke-linecap:round;stroke-linejoin:round;stroke-opacity:1.0000000" />
      <path
         id="path2305"
         d="M 16.617010,46.653359 C 17.371554,46.653359 16.737963,45.122846 18.031223,45.769476 C 19.564545,46.536137 20.933203,44.855922 21.743534,46.476583 C 22.606836,48.203188 24.861574,44.942011 25.809398,45.415922 C 27.207918,46.115183 28.787501,45.667537 30.052038,46.299806 C 31.209479,46.878526 29.825274,47.494980 32.880466,46.476583 C 33.128112,46.394034 35.084978,46.653359 35.178563,46.653359 C 35.632313,46.653359 36.150827,47.979187 38.006990,47.360466 C 38.323138,47.255083 38.610807,47.854053 39.244427,47.537243 C 39.303352,47.507780 39.362278,47.478317 39.421203,47.448855"
         style="fill:none;fill-opacity:0.75000000;fill-rule:evenodd;stroke:#adadad;stroke-width:1.0000000pt;stroke-linecap:round;stroke-linejoin:round;stroke-opacity:1.0000000" />
    </g>
    <path
       style="font-size:12.000000;fill:url(#radialGradient1750);fill-opacity:1.0000000;fill-rule:evenodd"
       d="M 45.326038,20.010613 C 45.377823,17.893993 44.973283,13.352655 44.601347,10.514292 C 29.793816,11.952236 22.182381,11.839814 12.942794,10.945949 C 14.230059,15.389172 14.546921,19.985848 14.022713,25.289301 C 20.721843,40.042708 45.377516,27.137827 45.326038,20.010613 z "
       id="path1794"
       sodipodi:nodetypes="ccccc" />
  </g>
  <g
     id="g3361"
     transform="matrix(1.144797,0.000000,0.000000,1.144797,-6.778559,-7.427059)">
    <g
       id="g701"
       style="opacity:0.18469997;fill:#000000;fill-opacity:1.0000000"
       transform="matrix(1.185810e-3,0.000000,0.000000,1.185810e-3,21.37643,21.73426)">
      <path
         sodipodi:type="arc"
         style="fill:#000000;fill-opacity:1.0000000;fill-rule:evenodd;stroke:none;stroke-width:1.0000000pt;stroke-linecap:butt;stroke-linejoin:miter;stroke-opacity:1.0000000"
         id="path695"
         d="M 29523.812 27523.809 A 2285.7148 2285.7148 0 1 1  24952.383,27523.809 A 2285.7148 2285.7148 0 1 1  29523.812 27523.809 z"
         sodipodi:cx="27238.098"
         sodipodi:cy="27523.809"
         sodipodi:rx="2285.7148"
         sodipodi:ry="2285.7148"
         transform="matrix(1.036611,0.000000,0.000000,1.036611,-8223.773,-8828.788)" />
      <path
         style="font-size:12.000000;fill:#000000;fill-opacity:1.0000000;fill-rule:evenodd"
         d="M 19682.640,17385.350 C 19218.720,16813.270 19039.730,17202.010 18796.970,17009.070 C 18610.660,16842.070 18923.690,16578.550 18518.340,16140.130 L 16540.400,18107.420 C 16878.390,18440.920 17063.990,18199.100 17271.000,18482.540 C 17426.230,18708.140 17253.890,19001.780 17753.710,19324.950 L 19682.640,17385.350 z "
         id="path696"
         sodipodi:nodetypes="csccscc" />
      <rect
         style="font-size:12.000000;fill:#000000;fill-opacity:1.0000000;fill-rule:evenodd;stroke-width:1.0000000"
         id="rect697"
         width="4666.6738"
         height="1619.0500"
         x="-2063.9500"
         y="23097.424"
         transform="matrix(0.707107,-0.707107,0.707107,0.707107,0.000000,0.000000)" />
      <path
         d="M 19648.880,9700.2740 C 19648.880,14758.310 15548.540,18858.650 10490.510,18858.650 C 5432.4870,18858.650 1332.1460,14758.310 1332.1460,9700.2740 C 1332.1460,4642.2480 5432.4870,541.90210 10490.510,541.90210 C 15548.540,541.90210 19648.880,4642.2480 19648.880,9700.2740 z M 18741.670,9700.2650 C 18741.670,14257.250 15047.500,17951.420 10490.520,17951.420 C 5933.5440,17951.420 2239.3760,14257.250 2239.3760,9700.2650 C 2239.3760,5143.2790 5933.5440,1449.1140 10490.520,1449.1140 C 15047.500,1449.1140 18741.670,5143.2790 18741.670,9700.2650 z "
         style="font-size:12.000000;fill:#000000;fill-opacity:1.0000000;fill-rule:evenodd"
         id="path698" />
      <path
         sodipodi:type="arc"
         style="fill:#000000;fill-opacity:1.0000000;fill-rule:evenodd;stroke:none;stroke-width:1.0000000pt;stroke-linecap:butt;stroke-linejoin:miter;stroke-opacity:1.0000000"
         id="path699"
         d="M 29523.812 27523.809 A 2285.7148 2285.7148 0 1 1  24952.383,27523.809 A 2285.7148 2285.7148 0 1 1  29523.812 27523.809 z"
         sodipodi:cx="27238.098"
         sodipodi:cy="27523.809"
         sodipodi:rx="2285.7148"
         sodipodi:ry="2285.7148"
         transform="matrix(0.958333,0.000000,0.000000,0.958333,944.4438,99.20413)" />
      <rect
         width="5522.1807"
         height="11583.108"
         x="-2374.9519"
         y="26814.203"
         transform="matrix(0.707107,-0.707107,0.707107,0.707107,0.000000,0.000000)"
         style="font-size:12.000000;fill:#000000;fill-opacity:1.0000000"
         id="rect700" />
    </g>
    <path
       style="font-size:12.000000;opacity:0.29300001;fill:url(#radialGradient3390);fill-opacity:1.0000000;fill-rule:evenodd"
       d="M 42.847226,33.744946 C 42.847226,37.887110 39.489357,41.244979 35.347192,41.244979 C 31.205060,41.244979 27.847181,37.887110 27.847181,33.744946 C 27.847181,29.602799 31.205060,26.244924 35.347192,26.244924 C 39.489357,26.244924 42.847226,29.602799 42.847226,33.744946 z M 43.983967,32.267617 C 43.983967,37.796395 39.502009,42.278389 33.973205,42.278389 C 28.444417,42.278389 23.962449,37.796395 23.962449,32.267617 C 23.962449,26.738826 28.444417,22.256854 33.973205,22.256854 C 39.502009,22.256854 43.983967,26.738826 43.983967,32.267617 z "
       id="path667" />
    <path
       sodipodi:type="arc"
       style="opacity:0.68790001;fill:url(#radialGradient3392);fill-opacity:1.0000000;fill-rule:evenodd;stroke:none;stroke-width:1.0000000pt;stroke-linecap:butt;stroke-linejoin:miter;stroke-opacity:1.0000000"
       id="path643"
       d="M 19394.938 9325.5361 A 9226.0645 9226.0635 0 1 1  942.80859,9325.5361 A 9226.0645 9226.0635 0 1 1  19394.938 9325.5361 z"
       sodipodi:cx="10168.873"
       sodipodi:cy="9325.5361"
       sodipodi:rx="9226.0645"
       sodipodi:ry="9226.0635"
       transform="matrix(1.105348e-3,0.000000,0.000000,1.105348e-3,23.03324,21.81064)" />
    <path
       sodipodi:type="arc"
       style="fill:#717386;fill-opacity:1.0000000;fill-rule:evenodd;stroke:none;stroke-width:1.0000000pt;stroke-linecap:butt;stroke-linejoin:miter;stroke-opacity:1.0000000"
       id="path669"
       d="M 29523.812 27523.809 A 2285.7148 2285.7148 0 1 1  24952.383,27523.809 A 2285.7148 2285.7148 0 1 1  29523.812 27523.809 z"
       sodipodi:cx="27238.098"
       sodipodi:cy="27523.809"
       sodipodi:rx="2285.7148"
       sodipodi:ry="2285.7148"
       transform="matrix(1.229223e-3,0.000000,0.000000,1.229223e-3,11.79802,10.30671)" />
    <path
       sodipodi:type="arc"
       style="opacity:1.0000000;fill:url(#radialGradient3394);fill-opacity:1.0000000;fill-rule:evenodd;stroke:none;stroke-width:1.0000000pt;stroke-linecap:butt;stroke-linejoin:miter;stroke-opacity:1.0000000"
       id="path666"
       d="M 29523.812 27523.809 A 2285.7148 2285.7148 0 1 1  24952.383,27523.809 A 2285.7148 2285.7148 0 1 1  29523.812 27523.809 z"
       sodipodi:cx="27238.098"
       sodipodi:cy="27523.809"
       sodipodi:rx="2285.7148"
       sodipodi:ry="2285.7148"
       transform="matrix(1.121769e-3,0.000000,0.000000,1.121769e-3,14.72490,13.26432)" />
    <path
       sodipodi:type="arc"
       style="opacity:1.0000000;fill:url(#radialGradient3396);fill-opacity:1.0000000;fill-rule:evenodd;stroke:none;stroke-width:1.0000000pt;stroke-linecap:butt;stroke-linejoin:miter;stroke-opacity:1.0000000"
       id="path622"
       d="M 19394.938 9325.5361 A 9226.0645 9226.0635 0 1 1  942.80859,9325.5361 A 9226.0645 9226.0635 0 1 1  19394.938 9325.5361 z"
       sodipodi:cx="10168.873"
       sodipodi:cy="9325.5361"
       sodipodi:rx="9226.0645"
       sodipodi:ry="9226.0635"
       transform="matrix(1.105348e-3,0.000000,0.000000,1.105348e-3,22.92030,21.81064)" />
    <path
       style="font-size:12.000000;opacity:1.0000000;fill:url(#radialGradient3398);fill-rule:evenodd"
       d="M 44.889725,41.391700 C 44.339603,40.713322 44.127356,41.174293 43.839489,40.945503 C 43.618560,40.747473 43.989754,40.434988 43.509086,39.915106 L 41.163626,42.247938 C 41.564417,42.643406 41.784503,42.356652 42.029979,42.692758 C 42.214051,42.960277 42.009689,43.308479 42.602381,43.691697 L 44.889725,41.391700 z "
       id="path675"
       sodipodi:nodetypes="csccscc" />
    <path
       style="font-size:12.000000;opacity:1.0000000;fill:url(#radialGradient3400);fill-rule:evenodd;stroke-width:1.0000000"
       d="M 43.677412,32.497758 C 43.677412,37.645074 39.534927,41.817797 34.424917,41.817797 C 29.314905,41.817797 25.172420,37.645074 25.172420,32.497758 C 25.172420,27.350452 29.314905,23.177736 34.424917,23.177736 C 39.534927,23.177736 43.677412,27.350452 43.677412,32.497758 z M 44.435216,32.119969 C 44.435216,37.895695 39.753081,42.577830 33.977356,42.577830 C 28.201644,42.577830 23.519499,37.895695 23.519499,32.119969 C 23.519499,26.344252 28.201644,21.662109 33.977356,21.662109 C 39.753081,21.662109 44.435216,26.344252 44.435216,32.119969 z "
       id="path661" />
    <rect
       style="font-size:12.000000;opacity:0.95539999;fill:url(#radialGradient3402);fill-opacity:1.0000000;fill-rule:evenodd;stroke-width:1.0000000"
       id="rect982"
       width="5.5338044"
       height="1.9198914"
       x="-1.9002336"
       y="57.318214"
       transform="matrix(0.707107,-0.707107,0.707107,0.707107,0.000000,0.000000)" />
    <path
       style="font-size:12.000000;opacity:1.0000000;fill:url(#radialGradient3404);fill-rule:evenodd"
       d="M 44.748554,41.589339 C 44.198433,40.910960 43.986185,41.371932 43.698317,41.143143 C 43.477389,40.945112 43.820349,40.463223 43.198522,39.858638 L 41.022454,41.993843 C 41.507949,42.474013 41.982143,42.159025 42.227617,42.495132 C 42.411690,42.762650 42.207328,43.110839 42.800019,43.494058 L 44.748554,41.589339 z "
       id="path677"
       sodipodi:nodetypes="csccscc" />
    <rect
       style="font-size:12.000000;opacity:1.0000000;fill:url(#linearGradient3406);fill-opacity:1.0000000;fill-rule:evenodd;stroke-width:1.0000000"
       id="rect983"
       width="4.5852103"
       height="1.5907873"
       x="-1.4259307"
       y="57.163387"
       transform="matrix(0.707107,-0.707107,0.707107,0.707107,0.000000,0.000000)" />
    <path
       sodipodi:type="arc"
       style="opacity:0.21019997;fill:url(#radialGradient3408);fill-opacity:1.0000000;fill-rule:evenodd;stroke:none;stroke-width:1.0000000pt;stroke-linecap:butt;stroke-linejoin:miter;stroke-opacity:1.0000000"
       id="path668"
       d="M 13468.702 7843.9863 A 3569.2063 3569.2063 0 1 1  6330.2898,7843.9863 A 3569.2063 3569.2063 0 1 1  13468.702 7843.9863 z"
       sodipodi:cx="9899.4961"
       sodipodi:cy="7843.9863"
       sodipodi:rx="3569.2063"
       sodipodi:ry="3569.2063"
       transform="matrix(1.001069e-3,0.000000,0.000000,1.001069e-3,20.90065,19.72551)" />
    <path
       d="M 44.849691,32.278660 C 44.849691,38.276529 39.987468,43.138754 33.989606,43.138754 C 27.991752,43.138754 23.129528,38.276529 23.129528,32.278660 C 23.129528,26.280803 27.991752,21.418571 33.989606,21.418571 C 39.987468,21.418571 44.849691,26.280803 44.849691,32.278660 z M 43.773913,32.278649 C 43.773913,37.682368 39.393330,42.062951 33.989617,42.062951 C 28.585911,42.062951 24.205330,37.682368 24.205330,32.278649 C 24.205330,26.874930 28.585911,22.494352 33.989617,22.494352 C 39.393330,22.494352 43.773913,26.874930 43.773913,32.278649 z "
       style="font-size:12.000000;opacity:1.0000000;fill:url(#linearGradient3410);fill-rule:evenodd"
       id="path792" />
    <path
       sodipodi:type="arc"
       style="fill:#808080;fill-opacity:1.0000000;fill-rule:evenodd;stroke:none;stroke-width:1.0000000pt;stroke-linecap:butt;stroke-linejoin:miter;stroke-opacity:1.0000000"
       id="path619"
       d="M 29523.812 27523.809 A 2285.7148 2285.7148 0 1 1  24952.383,27523.809 A 2285.7148 2285.7148 0 1 1  29523.812 27523.809 z"
       sodipodi:cx="27238.098"
       sodipodi:cy="27523.809"
       sodipodi:rx="2285.7148"
       sodipodi:ry="2285.7148"
       transform="matrix(1.136401e-3,0.000000,0.000000,1.136401e-3,22.66979,20.89362)" />
    <path
       sodipodi:type="arc"
       style="fill:url(#radialGradient3412);fill-opacity:1.0000000;fill-rule:evenodd;stroke:none;stroke-width:1.0000000pt;stroke-linecap:butt;stroke-linejoin:miter;stroke-opacity:1.0000000"
       id="path620"
       d="M 29523.812 27523.809 A 2285.7148 2285.7148 0 1 1  24952.383,27523.809 A 2285.7148 2285.7148 0 1 1  29523.812 27523.809 z"
       sodipodi:cx="27238.098"
       sodipodi:cy="27523.809"
       sodipodi:rx="2285.7148"
       sodipodi:ry="2285.7148"
       transform="matrix(1.031590e-3,0.000000,0.000000,1.031590e-3,25.42542,23.76473)" />
    <rect
       width="6.5482740"
       height="13.735400"
       x="-2.2690244"
       y="61.725620"
       transform="matrix(0.707107,-0.707107,0.707107,0.707107,0.000000,0.000000)"
       style="font-size:12.000000;fill:url(#linearGradient3414)"
       id="rect624" />
    <rect
       width="5.2357745"
       height="12.260075"
       x="-1.6126707"
       y="62.463367"
       transform="matrix(0.707107,-0.707107,0.707107,0.707107,0.000000,0.000000)"
       style="font-size:12.000000;fill:url(#linearGradient3416);fill-opacity:1.0000000"
       id="rect629" />
    <path
       style="font-size:12.000000;opacity:1.0000000;fill:url(#linearGradient3418);fill-opacity:1.0000000;fill-rule:evenodd;stroke-width:1.0000000"
       d="M 43.986209,32.193931 C 43.986209,37.681205 39.537880,42.129535 34.050603,42.129535 C 28.563326,42.129535 24.115003,37.681205 24.115003,32.193931 C 24.115003,26.706647 28.563326,22.258328 34.050603,22.258328 C 39.537880,22.258328 43.986209,26.706647 43.986209,32.193931 z M 43.689626,32.193934 C 43.689626,37.517421 39.374072,41.832963 34.050603,41.832963 C 28.727126,41.832963 24.411589,37.517421 24.411589,32.193934 C 24.411589,26.870449 28.727126,22.554913 34.050603,22.554913 C 39.374072,22.554913 43.689626,26.870449 43.689626,32.193934 z "
       id="path646" />
    <path
       style="font-size:12.000000;opacity:0.54140002;fill:url(#radialGradient3420);fill-rule:evenodd;stroke-width:1.0000000"
       d="M 35.621814,29.154318 C 35.621814,31.377525 33.819549,33.179800 31.596333,33.179800 C 29.373126,33.179800 27.570855,31.377525 27.570855,29.154318 C 27.570855,26.931110 29.373126,25.128840 31.596333,25.128840 C 33.819549,25.128840 35.621814,26.931110 35.621814,29.154318 z M 36.328046,28.730594 C 36.328046,31.577869 34.019880,33.886044 31.172598,33.886044 C 28.325333,33.886044 26.017156,31.577869 26.017156,28.730594 C 26.017156,25.883317 28.325333,23.575140 31.172598,23.575140 C 34.019880,23.575140 36.328046,25.883317 36.328046,28.730594 z "
       id="path659" />
    <path
       style="font-size:12.000000;opacity:1.0000000;fill:#9a9ba9;fill-opacity:1.0000000;fill-rule:evenodd"
       d="M 42.606922,43.356101 L 42.785695,43.501587 L 44.767504,41.594224 L 44.659310,41.420503 L 42.606922,43.356101 z "
       id="path680"
       sodipodi:nodetypes="ccccc" />
    <path
       style="font-size:12.000000;opacity:1.0000000;fill:#8a92a0;fill-opacity:1.0000000;fill-rule:evenodd"
       d="M 41.055563,42.036650 L 41.220272,42.158137 L 43.367571,40.052932 L 43.239373,39.855020 L 41.055563,42.036650 z "
       id="path681"
       sodipodi:nodetypes="ccccc" />
  </g>
</svg>
