<?xml version="1.0" encoding="UTF-8" standalone="no"?>
<!DOCTYPE svg PUBLIC "-//W3C//DTD SVG 20010904//EN"
"http://www.w3.org/TR/2001/REC-SVG-20010904/DTD/svg10.dtd">
<!-- Created with Inkscape (http://www.inkscape.org/) -->
<svg
   id="svg1"
   sodipodi:version="0.32"
   inkscape:version="0.38.1"
   width="24.000000pt"
   height="24.000000pt"
   sodipodi:docbase="/home/giangio/giangio@work/UserLinux/RELEASES/userlinux-artwork_0.5/icons/themes/Office-Yellow/24x24/stock"
   sodipodi:docname="stock_find.svg"
   xmlns="http://www.w3.org/2000/svg"
   xmlns:inkscape="http://www.inkscape.org/namespaces/inkscape"
   xmlns:sodipodi="http://sodipodi.sourceforge.net/DTD/sodipodi-0.dtd"
   xmlns:xlink="http://www.w3.org/1999/xlink">
  <defs
     id="defs3">
    <linearGradient
       id="linearGradient851">
      <stop
         style="stop-color:#e3a327;stop-opacity:1.0000000;"
         offset="0.0000000"
         id="stop852" />
      <stop
         style="stop-color:#e3c997;stop-opacity:1.0000000;"
         offset="1.0000000"
         id="stop853" />
    </linearGradient>
    <linearGradient
       id="linearGradient862">
      <stop
         style="stop-color:#ffffff;stop-opacity:1.0000000;"
         offset="0.0000000"
         id="stop863" />
      <stop
         style="stop-color:#c2c2c2;stop-opacity:1.0000000;"
         offset="1.0000000"
         id="stop864" />
    </linearGradient>
    <linearGradient
       id="linearGradient1040">
      <stop
         style="stop-color:#858585;stop-opacity:0.49803922;"
         offset="0.0000000"
         id="stop1041" />
      <stop
         style="stop-color:#dadada;stop-opacity:0.49803922;"
         offset="1.0000000"
         id="stop1042" />
    </linearGradient>
    <linearGradient
       id="linearGradient1036">
      <stop
         style="stop-color:#ffffff;stop-opacity:0.69629627;"
         offset="0.0000000"
         id="stop1037" />
      <stop
         style="stop-color:#ffffff;stop-opacity:0.0000000;"
         offset="1.0000000"
         id="stop1038" />
    </linearGradient>
    <linearGradient
       id="linearGradient1030">
      <stop
         style="stop-color:#9da5af;stop-opacity:1.0000000;"
         offset="0.0000000"
         id="stop1031" />
      <stop
         style="stop-color:#545a61;stop-opacity:1.0000000;"
         offset="1.0000000"
         id="stop1032" />
    </linearGradient>
    <linearGradient
       xlink:href="#linearGradient851"
       id="linearGradient1033"
       x1="0.44499999"
       y1="0.88281250"
       x2="0.48500001"
       y2="0.24218750" />
    <linearGradient
       xlink:href="#linearGradient1036"
       id="linearGradient1035"
       x1="0.083941609"
       y1="0.10937500"
       x2="0.81751823"
       y2="1.0312500" />
    <linearGradient
       xlink:href="#linearGradient1030"
       id="linearGradient858"
       x1="3.4015759e-14"
       y1="0.50000000"
       x2="0.71157146"
       y2="0.50000000" />
    <linearGradient
       xlink:href="#linearGradient862"
       id="linearGradient861"
       x1="0.33446243"
       y1="0.15675750"
       x2="0.83699006"
       y2="0.94264686" />
    <linearGradient
       xlink:href="#linearGradient1036"
       id="linearGradient880"
       x1="-0.029715264"
       y1="0.46419442"
       x2="1.0603334"
       y2="0.48979703" />
    <radialGradient
       xlink:href="#linearGradient1040"
       id="radialGradient855"
       cx="0.67723292"
       cy="0.74591362"
       r="0.80659032"
       fx="0.67723292"
       fy="0.74591362" />
    <radialGradient
       xlink:href="#linearGradient1040"
       id="radialGradient900"
       cx="0.67723292"
       cy="0.74591362"
       r="0.80659032"
       fx="0.67723292"
       fy="0.74591362" />
  </defs>
  <sodipodi:namedview
     id="base"
     pagecolor="#ffffff"
     bordercolor="#666666"
     borderopacity="1.0"
     inkscape:pageopacity="0.0"
     inkscape:pageshadow="2"
     inkscape:zoom="5.4064206"
     inkscape:cx="15.572288"
     inkscape:cy="14.038625"
     inkscape:window-width="734"
     inkscape:window-height="508"
     inkscape:window-x="333"
     inkscape:window-y="205"
     showgrid="false"
     snaptogrid="false"
     showguides="true"
     snaptoguides="true" />
  <g
     id="g853"
     transform="matrix(0.514443,0.000000,0.000000,0.575410,-0.372478,-45.92747)"
     style="">
    <path
       style="fill:#8d92a4;fill-rule:evenodd;stroke:none;stroke-width:0.87500000;stroke-linejoin:round;fill-opacity:0.062745102;stroke-dasharray:none;stroke-opacity:1.0000000;"
       d="M 8.1234138,88.929720 L 8.1234138,130.11201 L 58.456557,130.11201 L 58.456557,93.649067 L 29.143095,93.649067 L 26.426375,88.768241 L 8.1234138,88.929720 z "
       id="path850"
       sodipodi:nodetypes="ccccccc" />
    <path
       style="fill:#8d92a4;fill-rule:evenodd;stroke:none;stroke-width:0.87500000;stroke-linejoin:round;fill-opacity:0.062745102;stroke-dasharray:none;stroke-opacity:1.0000000;"
       d="M 7.5385894,88.389882 L 7.5385894,129.57218 L 57.871733,129.57218 L 57.871733,93.109229 L 28.558271,93.109229 L 25.841551,88.228403 L 7.5385894,88.389882 z "
       id="path851"
       sodipodi:nodetypes="ccccccc" />
    <path
       style="fill:#8d92a4;fill-rule:evenodd;stroke:none;stroke-width:0.87500000;stroke-linejoin:round;fill-opacity:0.062745102;stroke-dasharray:none;stroke-opacity:1.0000000;"
       d="M 6.8637922,87.805058 L 6.8637922,128.98735 L 57.196936,128.98735 L 57.196936,92.524405 L 27.883474,92.524405 L 25.166754,87.643579 L 6.8637922,87.805058 z "
       id="path852"
       sodipodi:nodetypes="ccccccc" />
  </g>
  <path
     style="fill:#8d92a4;fill-rule:evenodd;stroke:#000000;stroke-width:1.3784910;stroke-linejoin:round;stroke-dasharray:none;"
     d="M 4.4731908,8.2127298 L 4.4731908,49.395025 L 54.806334,49.395025 L 54.806334,12.932077 L 25.492872,12.932077 L 22.776152,8.0512516 L 4.4731908,8.2127298 z "
     id="path826"
     sodipodi:nodetypes="ccccccc"
     transform="matrix(0.514443,0.000000,0.000000,0.575410,-0.241562,-1.558744)" />
  <rect
     style="fill:url(#linearGradient861);fill-rule:evenodd;stroke:#000000;stroke-width:1.3785044;stroke-linejoin:round;stroke-dasharray:none;"
     id="rect831"
     width="46.849721"
     height="31.911510"
     x="2.3483123"
     y="13.699128"
     transform="matrix(0.513900,-2.643925e-2,2.683865e-2,0.574626,-0.241562,-1.558744)" />
  <path
     style="fill-opacity:0.26190475;fill-rule:evenodd;stroke-width:0.87500000;stroke-linejoin:round;"
     d="M 54.722077,14.501285 L 54.305348,40.037319 L 9.4153062,38.777697 L 6.4959339,19.672696 L 21.879153,18.682988 L 23.235852,15.401011 L 54.722077,14.501285 z "
     id="path859"
     sodipodi:nodetypes="ccccccc"
     transform="matrix(0.514443,0.000000,0.000000,0.575410,-0.241562,-1.558744)" />
  <path
     style="fill:url(#linearGradient1033);fill-rule:evenodd;stroke:#000000;stroke-width:1.3784910;stroke-linejoin:round;stroke-dasharray:none;"
     d="M 57.080556,15.941374 L 54.809437,49.395026 L 4.4731907,49.395026 L 6.4604219,20.123083 L 23.239168,20.123077 L 23.523059,15.941371 L 57.080556,15.941374 z "
     id="path830"
     sodipodi:nodetypes="ccccccc"
     transform="matrix(0.514443,0.000000,0.000000,0.575410,-0.241562,-1.558744)" />
  <path
     style="fill:url(#linearGradient1035);fill-rule:evenodd;stroke-width:1.0000000pt;"
     d="M 7.9330550,21.746067 L 24.668020,21.656094 L 25.027912,17.427365 L 55.348791,17.427365 L 53.909224,40.100545 C 37.624123,35.661880 22.958535,33.742458 7.0333257,33.262602 L 7.9330550,21.746067 z "
     id="path853"
     sodipodi:nodetypes="ccccccc"
     transform="matrix(0.514443,0.000000,0.000000,0.575410,-0.241562,-1.558744)" />
  <path
     sodipodi:type="arc"
     style="fill:url(#radialGradient855);fill-opacity:0.75000000;fill-rule:evenodd;stroke:#000000;stroke-width:0.80873150;"
     id="path919"
     sodipodi:cx="-1.2087890"
     sodipodi:cy="-4.3550549"
     sodipodi:rx="7.8253179"
     sodipodi:ry="6.2348061"
     d="M 6.6165289 -4.3550549 A 7.8253179 6.2348061 0 1 0 -9.0341069,-4.3550549 A 7.8253179 6.2348061 0 1 0 6.6165289 -4.3550549 z"
     transform="matrix(0.828735,-0.149396,0.186109,1.032393,17.02264,16.04880)" />
  <path
     sodipodi:type="arc"
     style="fill:url(#radialGradient900);fill-opacity:0.75000000;fill-rule:evenodd;stroke:#000000;stroke-width:0.80873150;"
     id="path920"
     sodipodi:cx="-1.2087890"
     sodipodi:cy="-4.3550549"
     sodipodi:rx="7.8253179"
     sodipodi:ry="6.2348061"
     d="M 6.6165289 -4.3550549 A 7.8253179 6.2348061 0 1 0 -9.0341069,-4.3550549 A 7.8253179 6.2348061 0 1 0 6.6165289 -4.3550549 z"
     transform="matrix(0.828735,-0.149396,0.186109,1.032393,17.27250,15.46068)" />
  <path
     style="fill:url(#linearGradient858);fill-opacity:0.75000000;fill-rule:evenodd;stroke:#000000;stroke-width:0.69376671;stroke-linecap:round;stroke-linejoin:round;"
     d="M -18.501323,11.355041 L -18.501323,20.308060 C -18.501323,21.676832 -14.904593,21.807911 -14.904593,20.308060 L -14.904593,11.355041 C -14.904593,12.280750 -18.501323,12.401979 -18.501323,11.355041 z "
     id="path921"
     sodipodi:nodetypes="ccccc"
     transform="matrix(0.537951,-0.842976,0.842976,0.537951,20.16808,-5.498729)" />
  <path
     sodipodi:type="arc"
     style="fill:url(#linearGradient880);fill-opacity:0.75000000;fill-rule:evenodd;stroke-width:0.80873150;"
     id="path922"
     sodipodi:cx="-1.2087890"
     sodipodi:cy="-4.3550549"
     sodipodi:rx="7.8253179"
     sodipodi:ry="6.2348061"
     d="M 6.6165289 -4.3550549 A 7.8253179 6.2348061 0 1 0 -9.0341069,-4.3550549 A 7.8253179 6.2348061 0 1 0 6.6165289 -4.3550549 z"
     transform="matrix(0.613063,-9.085093e-2,0.113177,0.763720,15.98688,13.84885)" />
</svg>
