<?xml version="1.0" encoding="UTF-8" standalone="no"?>
<!DOCTYPE svg PUBLIC "-//W3C//DTD SVG 20010904//EN"
"http://www.w3.org/TR/2001/REC-SVG-20010904/DTD/svg10.dtd">
<!-- Created with Inkscape (http://www.inkscape.org/) -->
<svg
   id="svg1"
   sodipodi:version="0.32"
   inkscape:version="0.39cvs"
   width="128.00000pt"
   height="128.00000pt"
   sodipodi:docbase="/home/andy/Desktop/Etiquette/etiquette-icons-0.6/scalable/emblems"
   sodipodi:docname="emblem-generic.svg"
   xmlns="http://www.w3.org/2000/svg"
   xmlns:inkscape="http://www.inkscape.org/namespaces/inkscape"
   xmlns:sodipodi="http://sodipodi.sourceforge.net/DTD/sodipodi-0.dtd"
   xmlns:xlink="http://www.w3.org/1999/xlink">
  <defs
     id="defs3">
    <linearGradient
       id="linearGradient1290">
      <stop
         style="stop-color:#c5d2c8;stop-opacity:1.0000000;"
         offset="0.0000000"
         id="stop1291" />
      <stop
         style="stop-color:#46a046;stop-opacity:1.0000000;"
         offset="0.50000000"
         id="stop1664" />
      <stop
         style="stop-color:#445632;stop-opacity:1.0000000;"
         offset="1.0000000"
         id="stop1292" />
    </linearGradient>
    <linearGradient
       id="linearGradient1501">
      <stop
         style="stop-color:#ffffff;stop-opacity:1.0000000;"
         offset="0.0000000"
         id="stop1502" />
      <stop
         style="stop-color:#ffffff;stop-opacity:0.0000000;"
         offset="1.0000000"
         id="stop1504" />
    </linearGradient>
    <linearGradient
       id="linearGradient1492">
      <stop
         style="stop-color:#cbcbcb;stop-opacity:1.0000000;"
         offset="0.0000000"
         id="stop1493" />
      <stop
         style="stop-color:#f0f0f0;stop-opacity:1.0000000;"
         offset="0.34923077"
         id="stop1496" />
      <stop
         style="stop-color:#e2e2e2;stop-opacity:1.0000000;"
         offset="1.0000000"
         id="stop1494" />
    </linearGradient>
    <linearGradient
       id="linearGradient853">
      <stop
         style="stop-color:#000000;stop-opacity:0.29752067;"
         offset="0.00000000"
         id="stop854" />
      <stop
         style="stop-color:#000000;stop-opacity:0.00000000;"
         offset="1.0000000"
         id="stop855" />
    </linearGradient>
    <linearGradient
       id="linearGradient841">
      <stop
         style="stop-color:#ffffff;stop-opacity:1.0000000;"
         offset="0.00000000"
         id="stop842" />
      <stop
         style="stop-color:#ffffff;stop-opacity:0.00000000;"
         offset="1.0000000"
         id="stop843" />
    </linearGradient>
    <linearGradient
       id="linearGradient1894">
      <stop
         style="stop-color:#ffffff;stop-opacity:0.0000000;"
         offset="0.0000000"
         id="stop1895" />
      <stop
         style="stop-color:#000000;stop-opacity:0.30693069;"
         offset="1.0000000"
         id="stop1896" />
    </linearGradient>
    <linearGradient
       id="linearGradient1868">
      <stop
         style="stop-color:#ffffff;stop-opacity:0.0000000;"
         offset="0.0000000"
         id="stop1869" />
      <stop
         style="stop-color:#fff;stop-opacity:1;"
         offset="1"
         id="stop1870" />
    </linearGradient>
    <linearGradient
       id="linearGradient1507">
      <stop
         style="stop-color:#000000;stop-opacity:0.095505618;"
         offset="0.0000000"
         id="stop1508" />
      <stop
         style="stop-color:#000000;stop-opacity:0.0000000;"
         offset="1.0000000"
         id="stop1510" />
    </linearGradient>
    <linearGradient
       xlink:href="#linearGradient1868"
       id="linearGradient852"
       x1="0.55038762"
       y1="0.69531250"
       x2="0.55038762"
       y2="1.6250000" />
    <linearGradient
       xlink:href="#linearGradient1868"
       id="linearGradient844"
       x1="0.68421054"
       y1="0.45312500"
       x2="0.63909775"
       y2="-0.51562500" />
    <linearGradient
       xlink:href="#linearGradient841"
       id="linearGradient845"
       x1="1.0740740"
       y1="0.58709675"
       x2="-1.3333334"
       y2="-0.090322584" />
    <linearGradient
       xlink:href="#linearGradient853"
       id="linearGradient840"
       x1="1.6744186"
       y1="1.8828125"
       x2="0.16279070"
       y2="-0.15625000" />
    <linearGradient
       xlink:href="#linearGradient1501"
       id="linearGradient849"
       x1="0.93793106"
       y1="0.85161293"
       x2="0.18620689"
       y2="-1.6462386e-16" />
    <radialGradient
       xlink:href="#linearGradient853"
       id="radialGradient864"
       cx="0.50000000"
       cy="0.50000000"
       r="0.50000000"
       fx="0.50000000"
       fy="0.14942528" />
    <linearGradient
       xlink:href="#linearGradient1290"
       id="linearGradient860"
       x1="0.47535211"
       y1="0.81081080"
       x2="0.50000000"
       y2="-0.74324322" />
    <linearGradient
       xlink:href="#linearGradient846"
       id="linearGradient851"
       x1="0.39788732"
       y1="0.32222223"
       x2="0.80985916"
       y2="0.35555556" />
    <linearGradient
       xlink:href="#linearGradient846"
       id="linearGradient858"
       x1="0.64285713"
       y1="1.2647059"
       x2="0.57142860"
       y2="0.049019609" />
    <linearGradient
       id="linearGradient846">
      <stop
         style="stop-color:#e7e7e7;stop-opacity:1.0000000;"
         offset="0.00000000"
         id="stop847" />
      <stop
         style="stop-color:#a5a5a5;stop-opacity:1.0000000;"
         offset="1.0000000"
         id="stop848" />
    </linearGradient>
    <linearGradient
       xlink:href="#linearGradient846"
       id="linearGradient850" />
    <linearGradient
       xlink:href="#linearGradient853"
       id="linearGradient859"
       x1="1.4647887"
       y1="-1.1486486"
       x2="0.26408452"
       y2="1.2905406" />
    <radialGradient
       xlink:href="#linearGradient853"
       id="radialGradient861"
       cx="0.50000000"
       cy="0.50000000"
       r="0.50000000"
       fx="0.50704223"
       fy="0.29885057" />
    <linearGradient
       xlink:href="#linearGradient1492"
       id="linearGradient1495"
       x1="0.92307693"
       y1="0.16406250"
       x2="0.14529915"
       y2="1.1718750" />
    <linearGradient
       xlink:href="#linearGradient1492"
       id="linearGradient1497"
       x1="0.63247865"
       y1="0.32812500"
       x2="-0.37606838"
       y2="1.3281250" />
    <linearGradient
       xlink:href="#linearGradient1501"
       id="linearGradient1499"
       x1="1.1417323"
       y1="-0.16406250"
       x2="0.50393701"
       y2="0.61718750" />
    <linearGradient
       xlink:href="#linearGradient1507"
       id="linearGradient1506"
       x1="0.052173913"
       y1="0.97656250"
       x2="0.78260869"
       y2="0.0078125000" />
    <linearGradient
       xlink:href="#linearGradient1507"
       id="linearGradient1556"
       x1="0.31111112"
       y1="-0.56250000"
       x2="0.62222224"
       y2="0.79687500" />
    <radialGradient
       xlink:href="#linearGradient841"
       id="radialGradient856"
       cx="0.50000000"
       cy="0.89285713"
       r="0.54606670"
       fx="0.54117650"
       fy="3.5200000" />
    <linearGradient
       xlink:href="#linearGradient841"
       id="linearGradient1944" />
    <linearGradient
       xlink:href="#linearGradient1868"
       id="linearGradient1867" />
    <radialGradient
       xlink:href="#linearGradient1290"
       id="radialGradient1887"
       cx="0.50000000"
       cy="0.50000000"
       r="0.60857725"
       fx="0.50387597"
       fy="0.15625000" />
  </defs>
  <sodipodi:namedview
     id="base"
     pagecolor="#ffffff"
     bordercolor="#666666"
     borderopacity="1.0"
     inkscape:pageopacity="0.0"
     inkscape:pageshadow="2"
     inkscape:zoom="1.3279774"
     inkscape:cx="47.198524"
     inkscape:cy="77.545291"
     inkscape:window-width="460"
     inkscape:window-height="515"
     inkscape:window-x="149"
     inkscape:window-y="209"
     showgrid="false"
     snaptogrid="false" />
  <g
     id="g1806"
     style="fill:url(#linearGradient840);"
     transform="matrix(1.745234,0.000000,0.000000,1.745234,-116.0773,-473.7672)">
    <path
       sodipodi:type="arc"
       style="fill-opacity:0.10691822;fill-rule:evenodd;stroke-width:1.0000000pt;"
       id="path1795"
       sodipodi:cx="81.602463"
       sodipodi:cy="280.17816"
       sodipodi:rx="52.670681"
       sodipodi:ry="52.670681"
       d="M 134.27314 280.17816 A 52.670681 52.670681 0 1 0 28.931782,280.17816 A 52.670681 52.670681 0 1 0 134.27314 280.17816 z"
       transform="matrix(0.788120,0.000000,0.000000,0.788120,49.51840,98.21454)" />
    <path
       sodipodi:type="arc"
       style="fill-opacity:0.10691822;fill-rule:evenodd;stroke-width:1.0000000pt;"
       id="path1804"
       sodipodi:cx="81.602463"
       sodipodi:cy="280.17816"
       sodipodi:rx="52.670681"
       sodipodi:ry="52.670681"
       d="M 134.27314 280.17816 A 52.670681 52.670681 0 1 0 28.931782,280.17816 A 52.670681 52.670681 0 1 0 134.27314 280.17816 z"
       transform="matrix(0.809308,0.000000,0.000000,0.809308,47.78940,92.27811)" />
    <path
       sodipodi:type="arc"
       style="fill-opacity:0.10691822;fill-rule:evenodd;stroke-width:1.0000000pt;"
       id="path1805"
       sodipodi:cx="81.602463"
       sodipodi:cy="280.17816"
       sodipodi:rx="52.670681"
       sodipodi:ry="52.670681"
       d="M 134.27314 280.17816 A 52.670681 52.670681 0 1 0 28.931782,280.17816 A 52.670681 52.670681 0 1 0 134.27314 280.17816 z"
       transform="matrix(0.766932,0.000000,0.000000,0.766932,51.24740,104.1510)" />
  </g>
  <path
     sodipodi:type="arc"
     style="fill:url(#radialGradient1887);fill-rule:evenodd;stroke-width:1.0000000pt;"
     id="path1026"
     sodipodi:cx="81.602463"
     sodipodi:cy="280.17816"
     sodipodi:rx="52.670681"
     sodipodi:ry="52.670681"
     d="M 134.27314 280.17816 A 52.670681 52.670681 0 1 0 28.931782,280.17816 A 52.670681 52.670681 0 1 0 134.27314 280.17816 z"
     transform="matrix(1.379214,0.000000,0.000000,1.379214,-32.67906,-306.0048)" />
  <path
     sodipodi:type="arc"
     style="fill:url(#linearGradient852);fill-rule:evenodd;stroke-width:1.0000000pt;"
     id="path1702"
     sodipodi:cx="81.602463"
     sodipodi:cy="280.17816"
     sodipodi:rx="52.670681"
     sodipodi:ry="52.670681"
     d="M 134.27314 280.17816 A 52.670681 52.670681 0 1 0 28.931782,280.17816 A 52.670681 52.670681 0 1 0 134.27314 280.17816 z"
     transform="matrix(1.151704,0.000000,0.000000,1.151704,-14.30022,-234.8542)" />
  <path
     sodipodi:type="arc"
     style="fill:url(#linearGradient844);fill-rule:evenodd;stroke-width:1.0000000pt;"
     id="path1703"
     sodipodi:cx="81.602463"
     sodipodi:cy="280.17816"
     sodipodi:rx="52.670681"
     sodipodi:ry="52.670681"
     d="M 134.27314 280.17816 A 52.670681 52.670681 0 1 0 28.931782,280.17816 A 52.670681 52.670681 0 1 0 134.27314 280.17816 z"
     transform="matrix(1.119079,0.000000,0.000000,1.079300,-11.25318,-234.5344)" />
  <path
     style="font-size:12.000000;fill:#ffffff;stroke:url(#linearGradient849);stroke-width:3.5893745;font-family:Bitstream Vera Sans;"
     d="M 74.709442,48.592731 C 73.554001,53.410830 78.138134,69.449643 74.709442,71.143268 C 71.280749,72.836886 58.578398,59.120284 54.137651,58.753837 C 49.696899,58.387398 45.450367,65.280857 48.112291,68.968429 C 50.774213,72.656003 70.091740,76.881795 70.092379,80.858714 C 70.093011,84.835634 50.771794,89.122373 48.112291,92.820297 C 45.452786,96.518217 49.698213,103.35600 54.137651,102.98141 C 58.577091,102.60683 71.280749,88.830034 74.709442,90.591986 C 78.138134,92.353938 72.754467,109.72578 74.709442,113.55254 C 76.664416,117.37930 84.484314,117.37930 86.439281,113.55254 C 88.394256,109.72578 83.013546,92.353967 86.439281,90.591986 C 89.865023,88.830004 102.55653,102.60687 106.99325,102.98141 C 111.42996,103.35596 115.67795,96.518148 113.01861,92.820297 C 110.35927,89.122452 91.037888,84.835641 91.038526,80.858714 C 91.039158,76.881780 110.35649,72.656125 113.01861,68.968429 C 115.68073,65.280735 111.43089,58.387664 106.99325,58.753837 C 102.55560,59.120018 89.865023,72.908213 86.439281,71.143268 C 83.013546,69.378315 88.662733,51.994621 86.707760,48.164895 C 84.752785,44.335166 75.917582,43.554860 74.709442,48.592731 z "
     id="path982"
     sodipodi:nodetypes="czzzzzzzzzzzzzzzzzz" />
</svg>
