<?xml version="1.0" encoding="UTF-8" standalone="no"?>
<!DOCTYPE svg PUBLIC "-//W3C//DTD SVG 20010904//EN"
"http://www.w3.org/TR/2001/REC-SVG-20010904/DTD/svg10.dtd">
<!-- Created with Inkscape (http://www.inkscape.org/) -->
<svg
   id="svg1"
   sodipodi:version="0.32"
   inkscape:version="0.39cvs"
   width="128.00000pt"
   height="128.00000pt"
   sodipodi:docbase="/home/andy/Desktop/etiquette-icons-0.5/scalable/emblems"
   sodipodi:docname="emblem-certified.svg"
   xmlns="http://www.w3.org/2000/svg"
   xmlns:inkscape="http://www.inkscape.org/namespaces/inkscape"
   xmlns:sodipodi="http://sodipodi.sourceforge.net/DTD/sodipodi-0.dtd"
   xmlns:xlink="http://www.w3.org/1999/xlink">
  <defs
     id="defs3">
    <linearGradient
       id="linearGradient1501">
      <stop
         style="stop-color:#ffffff;stop-opacity:1.0000000;"
         offset="0.0000000"
         id="stop1502" />
      <stop
         style="stop-color:#ffffff;stop-opacity:0.0000000;"
         offset="1.0000000"
         id="stop1504" />
    </linearGradient>
    <linearGradient
       id="linearGradient1290">
      <stop
         style="stop-color:#b2a269;stop-opacity:1.0000000;"
         offset="0.0000000"
         id="stop1291" />
      <stop
         style="stop-color:#6d5b18;stop-opacity:1.0000000;"
         offset="1.0000000"
         id="stop1292" />
    </linearGradient>
    <linearGradient
       id="linearGradient846">
      <stop
         style="stop-color:#e7e7e7;stop-opacity:1.0000000;"
         offset="0.00000000"
         id="stop847" />
      <stop
         style="stop-color:#a5a5a5;stop-opacity:1.0000000;"
         offset="1.0000000"
         id="stop848" />
    </linearGradient>
    <linearGradient
       id="linearGradient853">
      <stop
         style="stop-color:#000000;stop-opacity:0.29752067;"
         offset="0.00000000"
         id="stop854" />
      <stop
         style="stop-color:#000000;stop-opacity:0.00000000;"
         offset="1.0000000"
         id="stop855" />
    </linearGradient>
    <linearGradient
       id="linearGradient841">
      <stop
         style="stop-color:#ffffff;stop-opacity:1.0000000;"
         offset="0.00000000"
         id="stop842" />
      <stop
         style="stop-color:#ffffff;stop-opacity:0.00000000;"
         offset="1.0000000"
         id="stop843" />
    </linearGradient>
    <linearGradient
       xlink:href="#linearGradient1557"
       id="linearGradient1562"
       x1="0.70542634"
       y1="0.62500000"
       x2="0.71317828"
       y2="1.8750000" />
    <linearGradient
       id="linearGradient1557">
      <stop
         style="stop-color:#ffffff;stop-opacity:0.0000000;"
         offset="0.0000000"
         id="stop1558" />
      <stop
         style="stop-color:#fff;stop-opacity:1;"
         offset="1"
         id="stop1559" />
    </linearGradient>
    <linearGradient
       id="linearGradient1636">
      <stop
         style="stop-color:#df421e;stop-opacity:0.0000000;"
         offset="0.0000000"
         id="stop1637" />
      <stop
         style="stop-color:#fff;stop-opacity:1;"
         offset="1"
         id="stop1638" />
    </linearGradient>
    <linearGradient
       xlink:href="#linearGradient1636"
       id="linearGradient1564"
       x1="0.63120568"
       y1="0.32812500"
       x2="0.90070921"
       y2="1.0156250" />
    <linearGradient
       id="linearGradient1507">
      <stop
         style="stop-color:#000000;stop-opacity:0.095505618;"
         offset="0.0000000"
         id="stop1508" />
      <stop
         style="stop-color:#000000;stop-opacity:0.0000000;"
         offset="1.0000000"
         id="stop1510" />
    </linearGradient>
    <linearGradient
       xlink:href="#linearGradient1636"
       id="linearGradient852"
       x1="0.71793914"
       y1="0.45640624"
       x2="1.0758952"
       y2="0.87495607" />
    <linearGradient
       xlink:href="#linearGradient1557"
       id="linearGradient844"
       x1="0.45040563"
       y1="0.41174671"
       x2="-0.48067868"
       y2="-0.36291894" />
    <linearGradient
       xlink:href="#linearGradient841"
       id="linearGradient845"
       x1="-0.20410034"
       y1="-0.85120738"
       x2="0.54688710"
       y2="0.51391011" />
    <linearGradient
       xlink:href="#linearGradient853"
       id="linearGradient840"
       x1="1.6766210"
       y1="1.1056447"
       x2="0.37118945"
       y2="0.54594773" />
    <linearGradient
       xlink:href="#linearGradient853"
       id="linearGradient849"
       x1="0.31600001"
       y1="-0.0039215689"
       x2="0.51599997"
       y2="0.40784314" />
    <radialGradient
       xlink:href="#linearGradient853"
       id="radialGradient864"
       cx="0.50000000"
       cy="0.50000000"
       r="0.50000000"
       fx="0.50000000"
       fy="0.14942528" />
    <linearGradient
       xlink:href="#linearGradient1501"
       id="linearGradient860"
       x1="0.91544116"
       y1="-0.10731708"
       x2="0.75735295"
       y2="0.36097562" />
    <linearGradient
       xlink:href="#linearGradient846"
       id="linearGradient851"
       x1="0.39788732"
       y1="0.32222223"
       x2="0.80985916"
       y2="0.35555556" />
    <linearGradient
       xlink:href="#linearGradient846"
       id="linearGradient858"
       x1="0.64285713"
       y1="1.2647059"
       x2="0.57142860"
       y2="0.049019609" />
    <linearGradient
       xlink:href="#linearGradient846"
       id="linearGradient850" />
    <linearGradient
       xlink:href="#linearGradient853"
       id="linearGradient859"
       x1="1.4647887"
       y1="-1.1486486"
       x2="0.26408452"
       y2="1.2905406" />
    <radialGradient
       xlink:href="#linearGradient853"
       id="radialGradient861"
       cx="0.50000000"
       cy="0.50000000"
       r="0.50000000"
       fx="0.50704223"
       fy="0.29885057" />
    <linearGradient
       id="linearGradient1492">
      <stop
         style="stop-color:#cbcbcb;stop-opacity:1.0000000;"
         offset="0.0000000"
         id="stop1493" />
      <stop
         style="stop-color:#f0f0f0;stop-opacity:1.0000000;"
         offset="0.34923077"
         id="stop1496" />
      <stop
         style="stop-color:#e2e2e2;stop-opacity:1.0000000;"
         offset="1.0000000"
         id="stop1494" />
    </linearGradient>
    <linearGradient
       xlink:href="#linearGradient1492"
       id="linearGradient1495"
       x1="0.92307693"
       y1="0.16406250"
       x2="0.14529915"
       y2="1.1718750" />
    <linearGradient
       xlink:href="#linearGradient1492"
       id="linearGradient1497"
       x1="0.63247865"
       y1="0.32812500"
       x2="-0.37606838"
       y2="1.3281250" />
    <linearGradient
       xlink:href="#linearGradient1501"
       id="linearGradient1499"
       x1="0.85826772"
       y1="0.14062500"
       x2="0.062992126"
       y2="0.54687500" />
    <linearGradient
       xlink:href="#linearGradient1507"
       id="linearGradient1506"
       x1="0.052173913"
       y1="0.97656250"
       x2="0.78260869"
       y2="0.0078125000" />
    <linearGradient
       xlink:href="#linearGradient1507"
       id="linearGradient1556"
       x1="0.31111112"
       y1="-0.56250000"
       x2="0.62222224"
       y2="0.79687500" />
    <radialGradient
       xlink:href="#linearGradient841"
       id="radialGradient856"
       cx="0.50000000"
       cy="0.89285713"
       r="0.54606670"
       fx="0.54117650"
       fy="3.5200000" />
    <linearGradient
       xlink:href="#linearGradient841"
       id="linearGradient1944" />
    <linearGradient
       xlink:href="#linearGradient1557"
       id="linearGradient1560"
       x1="0.50735295"
       y1="0.55629140"
       x2="0.16176471"
       y2="-0.19867550" />
  </defs>
  <sodipodi:namedview
     id="base"
     pagecolor="#ffffff"
     bordercolor="#666666"
     borderopacity="1.0"
     inkscape:pageopacity="0.0"
     inkscape:pageshadow="2"
     inkscape:zoom="1.5468292"
     inkscape:cx="68.599715"
     inkscape:cy="50.693971"
     inkscape:window-width="427"
     inkscape:window-height="491"
     inkscape:window-x="24"
     inkscape:window-y="177"
     showborder="true"
     showgrid="false"
     snaptogrid="false" />
  <g
     id="g2308"
     transform="matrix(2.676848,0.000000,0.000000,2.676848,-247.3805,-267.8865)">
    <g
       id="g2300"
       transform="translate(-42.02145,-76.76995)"
       style="fill-opacity:0.079545446;">
      <path
         style="fill-rule:evenodd;stroke-width:25.000000;"
         d="M 165.98017,227.75087 C 158.48622,229.01119 159.04474,221.66925 155.03853,220.23456 C 151.03232,218.79985 146.70461,224.90948 141.94292,219.14265 C 137.34349,213.57233 143.74204,210.09559 142.98142,205.90876 C 142.22081,201.72192 135.80680,202.35210 138.84535,194.20494 C 141.58795,186.85132 146.11378,191.05622 149.35937,188.30410 C 152.60497,185.55198 149.43452,180.00855 156.66953,178.79177 C 165.37577,177.32757 163.78822,183.59053 167.79443,185.02523 C 171.80064,186.45994 175.37675,179.44003 180.89005,186.11713 C 186.45560,192.85751 179.09093,195.16420 179.85154,199.35103 C 180.61215,203.53786 188.09719,204.15031 185.45373,211.23811 C 182.90735,218.06567 176.71918,214.20356 173.47359,216.95569 C 170.22800,219.70781 173.61505,226.46685 165.98017,227.75087 z "
         id="path2299"
         sodipodi:nodetypes="czzzzzzzzzzzz" />
      <path
         style="fill-rule:evenodd;stroke-width:25.000000;"
         d="M 165.60336,225.41512 C 158.82336,226.55537 159.32867,219.91289 155.70413,218.61488 C 152.07959,217.31686 148.16418,222.84443 143.85613,217.62700 C 139.69489,212.58736 145.48385,209.44185 144.79570,205.65390 C 144.10755,201.86594 138.30460,202.43608 141.05367,195.06510 C 143.53498,188.41206 147.62964,192.21636 150.56602,189.72643 C 153.50241,187.23650 150.63401,182.22119 157.17974,181.12034 C 165.05654,179.79563 163.62024,185.46192 167.24478,186.75994 C 170.86932,188.05796 174.10473,181.70684 179.09278,187.74781 C 184.12810,193.84604 177.46506,195.93297 178.15321,199.72092 C 178.84136,203.50887 185.61330,204.06298 183.22168,210.47552 C 180.91789,216.65262 175.31927,213.15846 172.38289,215.64839 C 169.44650,218.13832 172.51087,224.25343 165.60336,225.41512 z "
         id="path2277"
         sodipodi:nodetypes="czzzzzzzzzzzz" />
      <path
         style="fill-rule:evenodd;stroke-width:25.000000;"
         d="M 165.80955,226.69326 C 158.63888,227.89921 159.17330,220.87398 155.33991,219.50118 C 151.50652,218.12836 147.36550,223.97444 142.80921,218.45637 C 138.40819,213.12634 144.53072,209.79958 143.80292,205.79336 C 143.07512,201.78713 136.93779,202.39013 139.84527,194.59442 C 142.46955,187.55802 146.80015,191.58153 149.90573,188.94812 C 153.01132,186.31472 149.97764,181.01042 156.90055,179.84613 C 165.23122,178.44509 163.71216,184.43788 167.54555,185.81070 C 171.37895,187.18351 174.80079,180.46643 180.07626,186.85549 C 185.40172,193.30511 178.35474,195.51229 179.08255,199.51851 C 179.81035,203.52473 186.97250,204.11077 184.44307,210.89281 C 182.00653,217.42585 176.08531,213.73035 172.97973,216.36375 C 169.87414,218.99716 173.11508,225.46463 165.80955,226.69326 z "
         id="path2298"
         sodipodi:nodetypes="czzzzzzzzzzzz" />
    </g>
    <g
       id="g2231"
       transform="matrix(0.744803,0.000000,0.000000,0.744803,-15.81411,33.32497)">
      <path
         style="fill:#22364b;"
         d="M 192.44720,114.50882 C 192.44720,114.50882 180.42572,131.10727 180.42572,138.55179 C 180.42572,146.00136 194.16672,141.99589 199.60345,147.42755 C 205.04017,152.86934 186.71714,167.18183 186.71714,167.18183 L 205.04017,162.02326 L 212.48975,169.75100 C 212.48975,160.30374 223.36825,152.86428 217.64326,147.13422 C 211.91826,141.40417 195.59797,142.01612 194.74833,134.53619 C 193.88856,127.06133 192.45226,114.50376 192.45226,114.50376 L 192.44720,114.50882 z "
         id="path64" />
      <path
         style="fill:#ac0000;fill-rule:evenodd;stroke-width:25.000000;"
         d="M 426.11179,669.43739 C 357.89354,708.82322 336.72344,635.49297 292.61702,636.07033 C 248.51061,636.64769 228.60937,711.66257 161.47330,672.90154 C 96.624879,635.46129 146.17585,578.51674 123.62264,540.60814 C 101.06943,502.69954 41.057317,532.05336 41.057317,441.91916 C 41.057317,360.56417 100.24493,385.00957 121.79813,346.52362 C 143.35133,308.03767 92.479115,265.68250 158.34018,227.65760 C 237.59405,181.90035 244.86159,248.47865 288.96800,247.90129 C 333.07442,247.32393 342.37863,166.19086 420.11172,211.07008 C 498.58166,256.37472 435.40917,305.45488 457.96238,343.36348 C 480.51559,381.27208 555.43100,360.10752 555.43100,438.52167 C 555.43100,514.05671 481.34009,498.96205 459.78689,537.44800 C 438.23369,575.93395 495.61291,629.31090 426.11179,669.43739 z "
         id="path1357"
         sodipodi:nodetypes="czzzzzzzzzzzz"
         transform="matrix(0.109798,4.095008e-2,-4.095008e-2,0.109798,168.5971,62.92562)" />
      <path
         style="fill:url(#linearGradient852);fill-rule:evenodd;stroke-width:25.000000;"
         d="M 506.72753,587.14782 C 438.50928,626.53365 417.33918,553.20340 373.23276,553.78076 C 329.12635,554.35812 309.22511,629.37300 242.08904,590.61197 C 177.24062,553.17172 226.79159,496.22717 204.23838,458.31857 C 181.68517,420.40997 106.76976,453.29458 106.76976,363.16038 C 106.76976,281.80540 180.86067,302.72001 202.41387,264.23406 C 223.96707,225.74811 170.22791,170.26957 236.08897,132.24467 C 315.34284,86.487416 325.47733,166.18909 369.58374,165.61173 C 413.69016,165.03437 422.99437,83.901296 500.72746,128.78052 C 579.19740,174.08516 516.02491,223.16532 538.57812,261.07392 C 561.13133,298.98252 636.04674,277.81796 636.04674,356.23210 C 636.04674,431.76714 561.95583,416.67248 540.40263,455.15843 C 518.84943,493.64438 576.22865,547.02133 506.72753,587.14782 z "
         id="path1358"
         sodipodi:nodetypes="czzzzzzzzzzzz"
         transform="matrix(0.109798,4.095008e-2,-4.095008e-2,0.109798,156.6811,66.88409)" />
      <path
         style="fill:url(#linearGradient849);fill-rule:evenodd;stroke-width:25.000000;"
         d="M 127.50617,348.72618 C 114.51637,350.91079 115.48449,338.18448 108.54024,335.69761 C 101.59600,333.21073 94.094461,343.80101 85.840689,333.80494 C 77.868168,324.14951 88.959231,318.12302 87.640812,310.86569 C 86.322383,303.60837 72.663184,304.38302 77.930126,290.26097 C 82.684056,277.51443 93.070343,285.12075 98.696162,280.35029 C 104.32197,275.57983 99.144082,263.74735 111.68502,261.63823 C 126.77617,259.10022 123.70670,272.17993 130.65094,274.66680 C 137.59519,277.15368 143.79392,264.98559 153.35050,276.55947 C 162.99767,288.24305 150.23195,292.24139 151.55038,299.49872 C 152.86881,306.75605 165.84315,307.81766 161.26107,320.10344 C 156.84722,331.93812 146.12085,325.24366 140.49504,330.01412 C 134.86922,334.78458 140.74024,346.50049 127.50617,348.72618 z "
         id="path1958"
         sodipodi:nodetypes="czzzzzzzzzzzz"
         transform="matrix(0.618772,0.000000,0.000000,0.618772,108.5096,-66.92548)" />
      <path
         sodipodi:type="arc"
         style="fill:#cb0000;fill-rule:evenodd;stroke:#000000;stroke-width:19.772703;stroke-opacity:0.069182344;"
         id="path1359"
         sodipodi:cx="293.67163"
         sodipodi:cy="450.62323"
         sodipodi:rx="166.98976"
         sodipodi:ry="166.98976"
         d="M 460.66139 450.62323 A 166.98976 166.98976 0 1 0 126.68187,450.62323 A 166.98976 166.98976 0 1 0 460.66139 450.62323 z"
         transform="matrix(0.108835,4.059093e-2,-4.059093e-2,0.108835,168.7180,63.46510)" />
      <path
         sodipodi:type="arc"
         style="fill:url(#linearGradient845);fill-opacity:0.75000000;fill-rule:evenodd;stroke-width:1.0000000pt;"
         id="path1360"
         sodipodi:cx="293.67163"
         sodipodi:cy="450.62323"
         sodipodi:rx="166.98976"
         sodipodi:ry="166.98976"
         d="M 460.66139 450.62323 A 166.98976 166.98976 0 1 0 126.68187,450.62323 A 166.98976 166.98976 0 1 0 460.66139 450.62323 z"
         transform="matrix(8.819373e-2,3.289260e-2,-3.289260e-2,8.819373e-2,171.3744,71.37675)" />
      <path
         sodipodi:type="arc"
         style="fill:url(#linearGradient840);fill-opacity:0.75000000;fill-rule:evenodd;stroke-width:1.0000000pt;"
         id="path1957"
         sodipodi:cx="293.67163"
         sodipodi:cy="450.62323"
         sodipodi:rx="166.98976"
         sodipodi:ry="166.98976"
         d="M 460.66139 450.62323 A 166.98976 166.98976 0 1 0 126.68187,450.62323 A 166.98976 166.98976 0 1 0 460.66139 450.62323 z"
         transform="matrix(8.720283e-2,3.252287e-2,-3.252287e-2,8.720283e-2,172.8277,76.96071)" />
      <path
         sodipodi:type="arc"
         style="fill:url(#linearGradient1562);fill-opacity:0.75000000;fill-rule:evenodd;stroke-width:1.0000000pt;"
         id="path1361"
         sodipodi:cx="293.67163"
         sodipodi:cy="450.62323"
         sodipodi:rx="166.98976"
         sodipodi:ry="166.98976"
         d="M 460.66139 450.62323 A 166.98976 166.98976 0 1 0 126.68187,450.62323 A 166.98976 166.98976 0 1 0 460.66139 450.62323 z"
         transform="matrix(8.819373e-2,3.289260e-2,-3.289260e-2,8.819373e-2,170.3376,77.84625)" />
      <path
         sodipodi:type="arc"
         style="fill:url(#linearGradient844);fill-opacity:0.75000000;fill-rule:evenodd;stroke-width:1.0000000pt;"
         id="path1956"
         sodipodi:cx="293.67163"
         sodipodi:cy="450.62323"
         sodipodi:rx="166.98976"
         sodipodi:ry="166.98976"
         d="M 460.66139 450.62323 A 166.98976 166.98976 0 1 0 126.68187,450.62323 A 166.98976 166.98976 0 1 0 460.66139 450.62323 z"
         transform="matrix(6.781695e-2,2.529282e-2,-2.529282e-2,6.781695e-2,170.1008,82.30664)" />
      <path
         style="fill:url(#linearGradient860);"
         d="M 200.26806,147.94862 C 215.05407,168.88585 222.35996,153.00263 217.03797,147.67593 C 211.71598,142.34925 195.21405,142.89931 200.26806,147.94862 z "
         id="path1970"
         sodipodi:nodetypes="ccc" />
    </g>
    <path
       style="fill:url(#linearGradient1560);fill-rule:evenodd;stroke-width:1.0000000pt;"
       d="M 111.61946,109.49346 C 111.61946,109.49346 112.73061,102.62456 117.98329,103.83672 C 123.23597,105.04888 122.02381,106.36205 122.02381,106.36205 C 119.80152,105.85698 115.76100,104.44280 111.61946,109.49346 z "
       id="path2304"
       sodipodi:nodetypes="cccc" />
    <path
       style="fill:url(#linearGradient1560);fill-rule:evenodd;stroke-width:1.0000000pt;"
       d="M 101.69754,123.26086 C 101.69754,123.26086 97.897851,117.43174 102.59929,114.79423 C 107.30073,112.15672 107.28755,113.94378 107.28755,113.94378 C 105.30370,115.06540 101.36307,116.73785 101.69754,123.26086 z "
       id="path2305"
       sodipodi:nodetypes="cccc" />
    <path
       style="fill:url(#linearGradient1560);fill-rule:evenodd;stroke-width:1.0000000pt;"
       d="M 103.63533,141.13797 C 103.63533,141.13797 105.79623,129.83650 103.87698,129.43245 C 100.20298,134.43495 99.612105,137.71781 103.63533,141.13797 z "
       id="path2306"
       sodipodi:nodetypes="ccc" />
    <path
       style="fill:url(#linearGradient1560);fill-rule:evenodd;stroke-width:1.0000000pt;"
       d="M 129.03773,109.51665 C 133.73917,106.87914 133.72599,108.66620 133.72599,108.66620 C 127.49959,115.04050 126.25554,110.84099 129.03773,109.51665 z "
       id="path2307"
       sodipodi:nodetypes="ccc" />
  </g>
</svg>
