<?xml version="1.0" encoding="UTF-8" standalone="no"?>
<!DOCTYPE svg PUBLIC "-//W3C//DTD SVG 20010904//EN"
"http://www.w3.org/TR/2001/REC-SVG-20010904/DTD/svg10.dtd">
<!-- Created with Sodipodi ("http://www.sodipodi.com/") -->
<svg
   i:viewOrigin="178 524"
   i:rulerOrigin="-178 -268"
   i:pageBounds="178 524 434 268"
   width="48pt"
   height="48pt"
   viewBox="0 0 256 256"
   style="overflow:visible;enable-background:new 0 0 256 256"
   xml:space="preserve"
   id="svg153"
   sodipodi:version="0.32pre"
   sodipodi:docname="/home/cschalle/gnome-themes-extras/Lush/icons/scalable/mimetypes/gnome-mime-application-vnd.sun.xml.impress.svg"
   sodipodi:docbase="/home/cschalle/gnome-themes-extras/Lush/icons/scalable/mimetypes"
   xmlns="http://www.w3.org/2000/svg"
   xmlns:sodipodi="http://sodipodi.sourceforge.net/DTD/sodipodi-0.dtd"
   xmlns:ns="&amp;amp;ns_vars;"
   xmlns:i="&amp;amp;ns_ai;"
   xmlns:xml="http://www.w3.org/XML/1998/namespace"
   xmlns:a="http://ns.adobe.com/AdobeSVGViewerExtensions/3.0/"
   xmlns:xlink="http://www.w3.org/1999/xlink">
  <defs
     id="defs232">
    <linearGradient
       id="XMLID_1_"
       gradientUnits="userSpaceOnUse"
       x1="131.2803"
       y1="242.2021"
       x2="131.2803"
       y2="225.9855">
      <stop
         offset="0"
         style="stop-color:#CCCCCC"
         id="stop157" />
      <stop
         offset="1"
         style="stop-color:#000000"
         id="stop158" />
      <a:midPointStop
         offset="0"
         style="stop-color:#CCCCCC"
         id="midPointStop159" />
      <a:midPointStop
         offset="0.5"
         style="stop-color:#CCCCCC"
         id="midPointStop160" />
      <a:midPointStop
         offset="1"
         style="stop-color:#000000"
         id="midPointStop161" />
    </linearGradient>
    <linearGradient
       id="XMLID_2_"
       gradientUnits="userSpaceOnUse"
       x1="101.2012"
       y1="49.4717"
       x2="130.5948"
       y2="153.5337">
      <stop
         offset="0"
         style="stop-color:#D4D4D4"
         id="stop165" />
      <stop
         offset="1"
         style="stop-color:#F0F0F0"
         id="stop166" />
      <a:midPointStop
         offset="0"
         style="stop-color:#D4D4D4"
         id="midPointStop167" />
      <a:midPointStop
         offset="0.5"
         style="stop-color:#D4D4D4"
         id="midPointStop168" />
      <a:midPointStop
         offset="1"
         style="stop-color:#F0F0F0"
         id="midPointStop169" />
    </linearGradient>
    <radialGradient
       id="XMLID_3_"
       cx="122.9863"
       cy="61.2827"
       r="7.46"
       fx="122.9863"
       fy="61.2827"
       gradientTransform="matrix(0.8964 0.0346 -0.3107 1.1036 32.3881 -10.5311)"
       gradientUnits="userSpaceOnUse">
      <stop
         offset="0.8595"
         style="stop-color:#C2C2C2"
         id="stop175" />
      <stop
         offset="1"
         style="stop-color:#000000"
         id="stop176" />
      <a:midPointStop
         offset="0.8595"
         style="stop-color:#C2C2C2"
         id="midPointStop177" />
      <a:midPointStop
         offset="0.5"
         style="stop-color:#C2C2C2"
         id="midPointStop178" />
      <a:midPointStop
         offset="1"
         style="stop-color:#000000"
         id="midPointStop179" />
    </radialGradient>
    <radialGradient
       id="XMLID_4_"
       cx="183.2773"
       cy="65.5967"
       r="8.1347"
       fx="183.2773"
       fy="65.5967"
       gradientTransform="matrix(0.8964 0.0346 -0.3107 1.1036 32.3881 -10.5311)"
       gradientUnits="userSpaceOnUse">
      <stop
         offset="0.8595"
         style="stop-color:#C2C2C2"
         id="stop182" />
      <stop
         offset="1"
         style="stop-color:#000000"
         id="stop183" />
      <a:midPointStop
         offset="0.8595"
         style="stop-color:#C2C2C2"
         id="midPointStop184" />
      <a:midPointStop
         offset="0.5"
         style="stop-color:#C2C2C2"
         id="midPointStop185" />
      <a:midPointStop
         offset="1"
         style="stop-color:#000000"
         id="midPointStop186" />
    </radialGradient>
    <linearGradient
       id="XMLID_5_"
       gradientUnits="userSpaceOnUse"
       x1="121.1802"
       y1="85.2573"
       x2="136.8195"
       y2="85.2573"
       gradientTransform="matrix(0.8214 -0.5704 0.5704 0.8214 -85.32 98.286)">
      <stop
         offset="0"
         style="stop-color:#FEE382"
         id="stop193" />
      <stop
         offset="0.5449"
         style="stop-color:#FFE649"
         id="stop194" />
      <stop
         offset="0.6371"
         style="stop-color:#FFE34C"
         id="stop195" />
      <stop
         offset="1"
         style="stop-color:#FED953"
         id="stop196" />
      <a:midPointStop
         offset="0"
         style="stop-color:#FEE382"
         id="midPointStop197" />
      <a:midPointStop
         offset="0.5"
         style="stop-color:#FEE382"
         id="midPointStop198" />
      <a:midPointStop
         offset="0.5449"
         style="stop-color:#FFE649"
         id="midPointStop199" />
      <a:midPointStop
         offset="0.4068"
         style="stop-color:#FFE649"
         id="midPointStop200" />
      <a:midPointStop
         offset="1"
         style="stop-color:#FED953"
         id="midPointStop201" />
    </linearGradient>
    <linearGradient
       id="XMLID_6_"
       gradientUnits="userSpaceOnUse"
       x1="133.9443"
       y1="85.2563"
       x2="120.6206"
       y2="85.2563"
       gradientTransform="matrix(0.8214 -0.5704 0.5704 0.8214 -85.32 98.286)">
      <stop
         offset="0"
         style="stop-color:#FF7300"
         id="stop204" />
      <stop
         offset="0.6629"
         style="stop-color:#FF9900"
         id="stop205" />
      <a:midPointStop
         offset="0"
         style="stop-color:#FF7300"
         id="midPointStop206" />
      <a:midPointStop
         offset="0.5"
         style="stop-color:#FF7300"
         id="midPointStop207" />
      <a:midPointStop
         offset="0.6629"
         style="stop-color:#FF9900"
         id="midPointStop208" />
    </linearGradient>
    <linearGradient
       id="XMLID_7_"
       gradientUnits="userSpaceOnUse"
       x1="127.6997"
       y1="159.0645"
       x2="139.748"
       y2="171.1127"
       gradientTransform="matrix(0.8214 -0.5704 0.5704 0.8214 -85.32 98.286)">
      <stop
         offset="0"
         style="stop-color:#FEDBB1"
         id="stop211" />
      <stop
         offset="1"
         style="stop-color:#DEAF78"
         id="stop212" />
      <a:midPointStop
         offset="0"
         style="stop-color:#FEDBB1"
         id="midPointStop213" />
      <a:midPointStop
         offset="0.5"
         style="stop-color:#FEDBB1"
         id="midPointStop214" />
      <a:midPointStop
         offset="1"
         style="stop-color:#DEAF78"
         id="midPointStop215" />
    </linearGradient>
    <linearGradient
       id="XMLID_8_"
       gradientUnits="userSpaceOnUse"
       x1="116.9121"
       y1="168.2646"
       x2="120.4124"
       y2="163.7643">
      <stop
         offset="0"
         style="stop-color:#C2BAAD"
         id="stop218" />
      <stop
         offset="1"
         style="stop-color:#D4CCBF"
         id="stop219" />
      <a:midPointStop
         offset="0"
         style="stop-color:#C2BAAD"
         id="midPointStop220" />
      <a:midPointStop
         offset="0.5"
         style="stop-color:#C2BAAD"
         id="midPointStop221" />
      <a:midPointStop
         offset="1"
         style="stop-color:#D4CCBF"
         id="midPointStop222" />
    </linearGradient>
    <linearGradient
       id="XMLID_9_"
       gradientUnits="userSpaceOnUse"
       x1="126.7168"
       y1="75.5078"
       x2="134.1342"
       y2="82.9252"
       gradientTransform="matrix(0.8214 -0.5704 0.5704 0.8214 -85.32 98.286)">
      <stop
         offset="0"
         style="stop-color:#FFFFFF"
         id="stop225" />
      <stop
         offset="1"
         style="stop-color:#FFE649"
         id="stop226" />
      <a:midPointStop
         offset="0"
         style="stop-color:#FFFFFF"
         id="midPointStop227" />
      <a:midPointStop
         offset="0.5"
         style="stop-color:#FFFFFF"
         id="midPointStop228" />
      <a:midPointStop
         offset="1"
         style="stop-color:#FFE649"
         id="midPointStop229" />
    </linearGradient>
  </defs>
  <sodipodi:namedview
     id="base" />
  <metadata
     id="metadata154">
    <ns:variableSets>
      <ns:variableSet
         varSetName="binding1"
         locked="none">
        <ns:variables />
        <ns:sampleDataSets />
      </ns:variableSet>
    </ns:variableSets>
  </metadata>
  <path
     i:knockout="Off"
     style="font-size:12;opacity:0.36;fill:url(#XMLID_1_);"
     d="M21.45,228.51c-1.577,8.76,46.318,16.188,106.977,16.592    c60.658,0.402,111.107-6.375,112.685-15.134c1.576-8.759-46.316-16.187-106.975-16.589    C73.478,212.976,23.026,219.751,21.45,228.51z"
     id="path162" />
  <path
     i:knockout="Off"
     style="font-size:12;"
     d="M222.378,44.725L106.815,33.279l0.824,0.114c-12.484-2.223-31.43,10.05-34.033,17.923    l0.215-0.547L10.899,188.715l-0.092,0.278c-2.847,8.613,3.999,17.251,15.257,19.255l134.77,23.995    c11.258,2.004,22.734-3.372,25.58-11.984l51.628-156.205c2.847-8.613-3.998-17.251-15.256-19.256L222.378,44.725z"
     id="path163" />
  <path
     i:knockout="Off"
     style="font-size:12;fill:url(#XMLID_2_);"
     d="M17.192,189.302c-1.711,5.178,2.388,10.348,9.154,11.554l134.769,23.994    c6.767,1.204,13.638-2.014,15.349-7.191l51.627-156.203c1.711-5.177-2.388-10.35-9.153-11.555L103.789,38.497    c-6.766-1.205-22.087,7.953-23.797,13.129L17.192,189.302z"
     id="path170"
     transform="translate(0,-7.62939e-06)" />
  <path
     i:knockout="Off"
     style="font-size:12;fill:#ffffff;"
     d="M19.313,192.584L82.112,54.909c1.711-5.177,17.033-14.334,23.798-13.129l117.878,9.91    c-1.382-0.833-3.015-1.461-4.851-1.788L103.789,38.497c-6.766-1.205-22.087,7.953-23.797,13.129l-62.8,137.676    c-0.975,2.951-0.057,5.901,2.164,8.116C18.818,195.892,18.765,194.24,19.313,192.584z"
     id="path171" />
  <path
     i:knockout="Off"
     style="font-size:12;fill:#c2c2c2;"
     d="M170.909,211.829c-1.711,5.177-8.582,8.396-15.349,7.191l-90.616-11.294l96.17,17.123    c6.767,1.204,13.638-2.014,15.349-7.191l46.879-141.839L170.909,211.829z"
     id="path172" />
  <path
     i:knockout="Off"
     style="font-size:12;fill:none;"
     d="M256,256H0V0h256V256z"
     id="path173" />
  <path
     i:knockout="Off"
     style="font-size:12;fill:url(#XMLID_3_);"
     d="M116.158,59.226c-1.259,4.127,0.663,7.579,4.294,7.708c3.63,0.13,7.594-3.113,8.852-7.241    c1.259-4.128-0.666-7.579-4.294-7.708C121.378,51.855,117.416,55.097,116.158,59.226z"
     id="path180"
     transform="translate(1.62026,0.810112)" />
  <path
     i:knockout="Off"
     style="font-size:12;fill:url(#XMLID_4_);"
     d="M168.191,65.88c-1.373,4.5,0.723,8.264,4.682,8.405c3.958,0.142,8.28-3.395,9.652-7.896    c1.372-4.501-0.726-8.264-4.683-8.405C173.884,57.843,169.563,61.378,168.191,65.88z"
     id="path187" />
  <path
     i:knockout="Off"
     style="font-size:12;"
     d="M118.663,51c0-11.875,7.377-21.5,16.478-21.5c3.754,0,6.589,7.242,9.359,10    c-2.61-7.379-4.61-18.5-13.021-18C122.941,22.008,116,32.021,116,45c0,7.096,2.075,13.452,5.35,17.761    C119.653,59.381,118.663,55.342,118.663,51z"
     id="path188" />
  <path
     i:knockout="Off"
     style="font-size:12;"
     d="M170.663,56c0-11.875,7.378-21.5,16.478-21.5c3.754,0,6.589,7.242,9.359,10    c-2.61-7.379-4.61-18.5-13.021-18C174.941,27.008,168,37.021,168,50c0,7.096,2.074,13.452,5.35,17.761    C171.652,64.381,170.663,60.342,170.663,56z"
     id="path189" />
  <g
     id="Layer_x0020_2"
     style="fill-rule:nonzero;clip-rule:nonzero;stroke:#000000;stroke-miterlimit:4;"
     transform="matrix(3.45391,0,0,2.89992,46.1772,65.6203)">
    <path
       style="fill:none;stroke:none;"
       d="M48.2,53.3H0V0h48.2v53.3z"
       id="path752" />
  </g>
  <g
     id="Layer_x0020_4"
     style="fill-rule:nonzero;clip-rule:nonzero;fill:#959595;stroke:#000000;stroke-miterlimit:4;"
     transform="matrix(3.45391,0,0,2.89992,46.1772,65.6203)">
    <path
       style="fill:#969696;stroke:none;"
       d="M17.1,15.5c-0.6,0-1,0.5-1,1v0.2c0,0.4,0.3,0.8,0.7,0.9c0,0.4,0,18.4,0,18.4s9.6,0,10.1,0c0,0.4,0,1.5,0,1.7c-0.3,0.2-0.5,0.6-0.5,0.9c0,0,0,0.1,0,0.1c-0.3,0.2-7.1,5.3-7.1,5.3l2.3,0l1,0c0,0,4.6-4.1,4.8-4.2c0.1,0,0.2,0,0.2,0    c0.1,0,0.2,0,0.2,0c0.2,0.2,4.8,4.2,4.8,4.2l1.7,0h1.6c0,0-6.8-5.1-7.1-5.3c0-0.1,0-0.1,0-0.1c0-0.4-0.2-0.7-0.5-0.9c0-0.2,0-1.3,0-1.7c0.5,0,9.3,0,9.3,0s0-17.9,0-18.3c0.5-0.1,0.8-0.5,0.8-1v-0.2c0-0.6-0.5-1-1-1H17.1z"
       id="path754" />
    <path
       style="fill:#000000;stroke:none;"
       d="M16.6,14.9c-0.6,0-1,0.5-1,1v0.2c0,0.4,0.3,0.8,0.7,0.9c0,0.4,0,18.4,0,18.4s9.6,0,10.1,0c0,0.4,0,1.5,0,1.7c-0.3,0.2-0.5,0.6-0.5,0.9c0,0,0,0.1,0,0.1c-0.3,0.2-7.1,5.3-7.1,5.3l2.3,0l1,0c0,0,4.6-4.1,4.8-4.2c0.1,0,0.2,0,0.2,0    c0.1,0,0.2,0,0.2,0c0.2,0.2,4.8,4.2,4.8,4.2l1.7,0h1.6c0,0-6.8-5.1-7.1-5.3c0-0.1,0-0.1,0-0.1c0-0.4-0.2-0.7-0.5-0.9c0-0.2,0-1.3,0-1.7c0.5,0,9.3,0,9.3,0s0-17.9,0-18.3c0.5-0.1,0.8-0.5,0.8-1V16c0-0.6-0.5-1-1-1H16.6z"
       id="path755" />
    <path
       style="fill:#A4A4A4;stroke:none;"
       d="M27.2,38.1h-0.4V15.7h0.4v22.4z"
       id="path756" />
    <linearGradient
       id="aigrd5"
       gradientUnits="userSpaceOnUse"
       x1="29.4048"
       y1="32.0811"
       x2="22.8732"
       y2="17.1976">
      <stop
         offset="0"
         style="stop-color:#FFFFFF"
         id="stop758" />
      <stop
         offset="1"
         style="stop-color:#EAEAEA"
         id="stop759" />
    </linearGradient>
    <path
       style="fill:url(#aigrd5);stroke:none;"
       d="M36.5,34.9H16.7V16.5h19.8v18.4z"
       id="path760" />
    <path
       style="fill:#F9F9F9;stroke:none;"
       d="M16.7,34.9l0.8-17.7l19-0.6H16.7v18.3z"
       id="path761" />
    <g
       style="fill:#A4A4A4;stroke:none;"
       id="g762">
      <path
         d="M32.2,42.9l1.5,0l-6.5-4.8l-0.5,0l5.4,4.8z"
         id="path763" />
      <path
         d="M21.8,42.9l-1.5,0l6.5-4.8l0.5,0l-5.4,4.8z"
         id="path764" />
      <path
         style="fill:#DEDEDE;"
         d="M20.3,42.9H21v-0.2l5.7-4.5l-6.5,4.8"
         id="path765" />
      <path
         style="fill:#DEDEDE;"
         d="M32.7,42.9l-0.4-0.2l-5.4-4.6l5.3,4.7h0.5z"
         id="path766" />
      <path
         style="fill:#757575;"
         d="M27.2,38.1l-5.4,4.8h-0.4l0.4-0.2l5.4-4.6z"
         id="path767" />
      <path
         style="fill:#878787;"
         d="M33.7,42.9h-0.3L27.1,38l6.6,4.9z"
         id="path768" />
    </g>
    <linearGradient
       id="aigrd6"
       gradientUnits="userSpaceOnUse"
       x1="26.6362"
       y1="15.4888"
       x2="26.6362"
       y2="16.6145">
      <stop
         offset="0"
         style="stop-color:#F0F0F0"
         id="stop770" />
      <stop
         offset="1"
         style="stop-color:#686868"
         id="stop771" />
    </linearGradient>
    <path
       style="fill:url(#aigrd6);stroke:none;"
       d="M37.3,16c0,0.3-0.2,0.5-0.5,0.5H16.5c-0.3,0-0.5-0.2-0.5-0.5v-0.2c0-0.3,0.2-0.5,0.5-0.5h20.3c0.3,0,0.5,0.2,0.5,0.5V16z"
       id="path772" />
    <path
       style="opacity:0.16;fill:#000000;stroke:none;"
       d="M36.5,16.6H16.7V18c1.1-1.6,19.8-1.4,19.8-1.4z"
       id="path773" />
    <path
       style="fill:#C9C9C9;stroke:none;"
       d="M36.5,34.9V16.6l-0.6,17.6l-19.3,0.7h19.8z"
       id="path774" />
    <radialGradient
       id="aigrd7"
       cx="26.812"
       cy="37.7578"
       r="0.6069"
       fx="26.812"
       fy="37.7578"
       gradientUnits="userSpaceOnUse">
      <stop
         offset="0"
         style="stop-color:#F0F0F0"
         id="stop776" />
      <stop
         offset="1"
         style="stop-color:#848484"
         id="stop777" />
    </radialGradient>
    <path
       style="fill:url(#aigrd7);stroke:none;"
       d="M27.7,38c0,0.4-0.3,0.7-0.7,0.7c-0.4,0-0.7-0.3-0.7-0.7c0-0.4,0.3-0.7,0.7-0.7c0.4,0,0.7,0.3,0.7,0.7z"
       id="path778" />
    <path
       style="stroke:none;"
       d="M35.1,32h-16v-1.6h16V32z"
       id="path779" />
    <path
       style="stroke:none;"
       d="M35.1,29.5h-16v-1.6h16v1.6z"
       id="path780" />
    <path
       style="stroke:none;"
       d="M35.1,26.9h-6.3v-1.6h6.3v1.6z"
       id="path781" />
    <path
       style="stroke:none;"
       d="M35.1,24.3h-6.3v-1.6h6.3v1.6z"
       id="path782" />
    <path
       style="stroke:none;"
       d="M35.1,21.8h-6.3v-1.6h6.3v1.6z"
       id="path783" />
  </g>
  <g
     id="Layer_x0020_3"
     style="fill-rule:nonzero;clip-rule:nonzero;fill:#FFFFFF;stroke:#000000;stroke-miterlimit:4;"
     transform="matrix(3.45391,0,0,2.89992,46.1772,65.6203)">
    <path
       style="opacity:0.15;fill:#000000;stroke:none;"
       d="M38.1,18.4c-0.7-0.8-1.7-1.3-2.9-1.4c-3.2-0.4-7.3,1.4-10.2,3.3L23.8,21c-0.2,0.1-0.3,0.2-0.4,0.3c-0.1-0.2-0.4-0.4-0.7-0.6c-0.2-0.1-0.5-0.1-0.7-0.2c0-0.1,0.2-1.5,0.2-1.5c0.3-2.8,0-5.7-1.2-7.7h-9.8c-1.2,1.4-2.2,3.2-2.7,5v4.3    c0.1,0.4,0.3,0.8,0.5,1.2c-0.2,0.2-0.4,0.4-0.5,0.5v8.7C8.7,31.1,8.8,31.1,9,31c0.5,0.5,1.2,0.8,2,0.8c1,0.1,2.1-0.1,3.1-0.5c0,0.1,0,0.2-0.1,0.3c-0.1,0.9,0.2,1.4,0.9,1.7c0.7,0.3,1.4,0.1,2-0.3c0.1,0.6,0.3,1.1,0.6,1.6c0.4,0.6,1,1,1.7,1.2c0.1,0.5,0.1,1.5,0,2    c0,1.4-0.1,2.2,0.6,2.7l1.1,0.4c1.6,0,2-1.3,2.1-2.4c0-0.2,0-0.5,0.1-0.7c0-0.3,0-0.6,0.1-0.8c0.1-0.7,0.3-1.5,0.7-1.7l0.5-0.2c1.9-0.8,4.1-1.6,4.7-3.3c0.1-0.2,0.1-0.4,0.1-0.6c0,0,0-0.1,0-0.1c1.6-0.2,3-0.7,4.2-1.5c2.9-1.8,5.1-4.9,5.6-7.7c0-0.1,0-0.2,0-0.3    c0.2-1.3-0.2-2.5-0.9-3.4z"
       id="path785" />
    <path
       style="fill:#000000;stroke:none;"
       d="M4.8,13.9c0,1.5,0.4,3,1.2,4.5c-0.8,1-1,2.3-1,3.6c0,0.7,0.1,1.4,0.1,2l0,0.5c0,0,0,0,0,0c0,0.7-1.3,1.5-2.1,2c-0.9,0.6-2.3,1.5-2.3,2.7c0,0.3,0.1,0.6,0.3,0.9L2,30.9c0.8,0.2,1.6-0.2,3-1.1c0.6-0.3,1.5-0.9,2-1.1c0.6,0.5,1.2,0.7,2,0.8    c1,0,2-0.3,2.9-0.9c0,0.1,0,0.2,0,0.4c0,1,0.4,1.6,1.1,1.9c0.3,0.1,0.6,0.2,0.9,0.1c0.1,0.7,0.2,1.2,0.6,1.7c0.2,0.2,0.4,0.4,0.7,0.6c0,0.5-0.1,1.3-0.2,1.8c-0.1,0.7-0.2,1.3-0.2,1.8c0,0.6,0.1,1,0.5,1.4c0.4,0.3,0.9,0.4,1.4,0.3c1.3-0.4,1.5-1.8,1.8-3.3    c0.2-1.1,0.4-2.6,1-3.1l0.4-0.3c1.4-1.1,2.9-2.4,3.5-4.1c0.1-0.3,0.2-0.7,0.2-1c1.2-0.5,2.3-1.4,3.3-2.4c2.4-2.6,4.9-7.4,4.9-10.7c0-0.7-0.1-1.4-0.4-1.9c-0.4-0.7-1.1-1.2-1.9-1.3c-2.9-0.3-7.2,4.1-8.4,5.5c0,0-0.7,0.7-0.9,1c-0.1-0.5-0.5-0.9-0.9-1.1    c-0.2-0.1-0.5-0.1-0.7-0.1c0-0.1,0-1.7,0-1.7c0-5.6-2.2-11.6-6.2-11.6c-4.1,0-7.4,6.4-7.4,11.6z M15.8,23.5c0.1,0,0.5,0.2,1.1,0.5c-0.6-0.1-1.1-0.2-1.1-0.2c0-0.1,0-0.1,0.1-0.3z"
       id="path786" />
    <linearGradient
       id="aigrd8"
       gradientUnits="userSpaceOnUse"
       x1="-154.2046"
       y1="14.582"
       x2="-147.7615"
       y2="13.5857"
       gradientTransform="matrix(-0.9994 -3.400000e-002 -3.400000e-002 0.9994 -127.5091 -1.0452)">
      <stop
         offset="0"
         style="stop-color:#A3D6E2"
         id="stop788" />
      <stop
         offset="1"
         style="stop-color:#35AECA"
         id="stop789" />
    </linearGradient>
    <path
       style="fill:url(#aigrd8);stroke:none;"
       d="M25.7,23c-3.1,3.5-7.5,3.2-8.5,1.4c-1-1.8,1.6-4.4,4.8-7.9s7-6.3,8.1-4.5c1,1.8-1.2,7.5-4.3,11z"
       id="path790" />
    <linearGradient
       id="aigrd9"
       gradientUnits="userSpaceOnUse"
       x1="-134.478"
       y1="9.6455"
       x2="-141.6935"
       y2="19.8042"
       gradientTransform="matrix(-1 0 0 1 -124.667 0)">
      <stop
         offset="0"
         style="stop-color:#3EAACE"
         id="stop792" />
      <stop
         offset="1"
         style="stop-color:#2E86A1"
         id="stop793" />
    </linearGradient>
    <path
       style="fill:url(#aigrd9);stroke:none;"
       d="M6.1,13.6c0,4.9,5.2,8.9,8.2,8.9s2.6-4,2.6-8.9c0-4.9-1.8-10.2-4.8-10.2s-6,5.4-6,10.2z"
       id="path794" />
    <radialGradient
       id="aigrd10"
       cx="23.3354"
       cy="8.9082"
       r="6.9057"
       fx="23.3354"
       fy="8.9082"
       gradientUnits="userSpaceOnUse">
      <stop
         offset="0"
         style="stop-color:#787878"
         id="stop796" />
      <stop
         offset="1"
         style="stop-color:#313131"
         id="stop797" />
    </radialGradient>
    <path
       style="fill:url(#aigrd10);stroke:none;"
       d="M19.4,15.9l0.2,0.1c1.9-2.6,7.1-9.2,9-8l0.1-0.2c-2.4-1.7-9,7.6-9.3,8z"
       id="path798" />
    <radialGradient
       id="aigrd11"
       cx="19.5972"
       cy="5.1641"
       r="8.3226"
       fx="19.5972"
       fy="5.1641"
       gradientUnits="userSpaceOnUse">
      <stop
         offset="0"
         style="stop-color:#787878"
         id="stop800" />
      <stop
         offset="1"
         style="stop-color:#313131"
         id="stop801" />
    </radialGradient>
    <path
       style="fill:url(#aigrd11);stroke:none;"
       d="M19.1,3.8c2.2,0.5,0.7,8.8,0,12l0.2,0.1c0.1-0.5,2.7-11.6-0.2-12.3l-0.1,0.2z"
       id="path802" />
    <linearGradient
       id="aigrd12"
       gradientUnits="userSpaceOnUse"
       x1="-148.1592"
       y1="26.0337"
       x2="-144.4599"
       y2="25.4616"
       gradientTransform="matrix(-0.9994 -3.400000e-002 -3.400000e-002 0.9994 -127.5091 -1.0452)">
      <stop
         offset="0"
         style="stop-color:#3BB1CE"
         id="stop804" />
      <stop
         offset="1"
         style="stop-color:#37A6C2"
         id="stop805" />
    </linearGradient>
    <path
       style="fill:url(#aigrd12);stroke:none;"
       d="M16.2,36.8c1-0.3,0.5-4.6,2.3-6.1c1.4-1.1,3-2.3,3.4-3.8c0.8-2.4-1.7-4.3-3.2-4.4s-2.2,2-2.7,3.3c-0.8,2.4-1.6,6.1,0.1,6c0.9-0.1-0.5,5.2,0,5z"
       id="path806" />
    <linearGradient
       id="aigrd13"
       gradientUnits="userSpaceOnUse"
       x1="-220.8203"
       y1="85.2461"
       x2="-215.2613"
       y2="84.3865"
       gradientTransform="matrix(0.5742 0.8187 -0.8187 0.5742 203.2852 154.5803)">
      <stop
         offset="0"
         style="stop-color:#2C7F9A"
         id="stop808" />
      <stop
         offset="1"
         style="stop-color:#24667A"
         id="stop809" />
    </linearGradient>
    <path
       style="fill:url(#aigrd13);stroke:none;"
       d="M2.2,29.2c-0.7-1.3,4.5-2.4,4.3-5.1c-0.1-2-0.4-4.2,0.7-5.3c1.8-1.9,6.3,0,8,1.7s0.1,3.2-0.9,4.3c-1.8,1.9-5.1,4.2-6.6,2.4c-0.8-1-5.1,2.6-5.4,2z"
       id="path810" />
    <radialGradient
       id="aigrd14"
       cx="-115.9253"
       cy="11.1514"
       r="6.3103"
       fx="-115.9253"
       fy="11.1514"
       gradientTransform="matrix(-1.3608 -0.5505 -0.5505 1.3608 -133.5183 -60.679)"
       gradientUnits="userSpaceOnUse">
      <stop
         offset="0"
         style="stop-color:#787878"
         id="stop812" />
      <stop
         offset="1"
         style="stop-color:#313131"
         id="stop813" />
    </radialGradient>
    <path
       style="fill:url(#aigrd14);stroke:none;"
       d="M15,22.6c-1.4,3.5-2.1,6.5-1.6,6.7c0.5,0.2,2.1-2.4,3.5-5.9c1.4-3.5,2.1-6.5,1.6-6.7c-0.5-0.2-2.1,2.4-3.5,5.9z"
       id="path814" />
    <radialGradient
       id="aigrd15"
       cx="19.0098"
       cy="3.3965"
       r="0.7158"
       fx="19.0098"
       fy="3.3965"
       gradientUnits="userSpaceOnUse">
      <stop
         offset="0"
         style="stop-color:#787878"
         id="stop816" />
      <stop
         offset="1"
         style="stop-color:#313131"
         id="stop817" />
    </radialGradient>
    <path
       style="fill:url(#aigrd15);stroke:none;"
       d="M18.6,3.7c0,0.2,0.2,0.4,0.4,0.4c0.2,0,0.4-0.2,0.4-0.4c0-0.2-0.2-0.4-0.4-0.4c-0.2,0-0.4,0.2-0.4,0.4z"
       id="path818" />
    <radialGradient
       id="aigrd16"
       cx="28.5522"
       cy="7.6436"
       r="0.7154"
       fx="28.5522"
       fy="7.6436"
       gradientUnits="userSpaceOnUse">
      <stop
         offset="0"
         style="stop-color:#787878"
         id="stop820" />
      <stop
         offset="1"
         style="stop-color:#313131"
         id="stop821" />
    </radialGradient>
    <path
       style="fill:url(#aigrd16);stroke:none;"
       d="M28.2,8c0,0.2,0.2,0.4,0.4,0.4c0.2,0,0.4-0.2,0.4-0.4s-0.2-0.4-0.4-0.4c-0.2,0-0.4,0.2-0.4,0.4z"
       id="path822" />
    <path
       style="opacity:0.55;stroke:none;"
       d="M14.6,4.7c0,0-2-2.7-4.5-0.6c-3.4,2.9-4.2,8-3.8,11.1c0.4-8.8,5.2-13.7,8.3-10.5z"
       id="path823" />
    <path
       style="opacity:0.55;stroke:none;"
       d="M17.8,21.3C22,15.9,28.2,9.4,30,12c-2.3-0.7-6.3,2.7-12.3,9.4z"
       id="path824" />
    <path
       style="opacity:0.55;stroke:none;"
       d="M18.8,17.3c-0.5-0.8-5,7.6-5.5,11.1c0.8-5.4,4.2-11,4.9-11.6c0.6-0.6,0.6,0.5,0.6,0.5z"
       id="path825" />
    <path
       style="opacity:0.55;stroke:none;"
       d="M12.9,19c-1.6-1-4.9-1.4-6,0c-1.1,1.4-0.4,4.2-0.4,5.6s-3.9,3.2-4.1,3.8c1.4-1,4-1.9,4.4-3.1s0-4.4,0.8-5.8c0.9-1.4,3.8-1,5.3-0.5z"
       id="path826" />
  </g>
</svg>
