<?xml version="1.0" encoding="UTF-8" standalone="no"?>
<!DOCTYPE svg PUBLIC "-//W3C//DTD SVG 20010904//EN"
"http://www.w3.org/TR/2001/REC-SVG-20010904/DTD/svg10.dtd">
<!-- Created with Sodipodi ("http://www.sodipodi.com/") -->
<svg
   i:viewOrigin="178 524"
   i:rulerOrigin="-178 -268"
   i:pageBounds="178 524 434 268"
   width="48pt"
   height="48pt"
   viewBox="0 0 256 256"
   style="overflow:visible;enable-background:new 0 0 256 256"
   xml:space="preserve"
   xmlns="http://www.w3.org/2000/svg"
   xmlns:ns="&amp;ns_vars;"
   xmlns:i="&amp;ns_ai;"
   xmlns:xml="http://www.w3.org/XML/1998/namespace"
   xmlns:a="http://ns.adobe.com/AdobeSVGViewerExtensions/3.0/"
   xmlns:sodipodi="http://sodipodi.sourceforge.net/DTD/sodipodi-0.dtd"
   xmlns:xlink="http://www.w3.org/1999/xlink"
   id="svg153"
   sodipodi:version="0.32pre"
   sodipodi:docname="/home/cschalle/gnome-themes-extras/Lush/icons/scalable/mimetypes/gnome-mime-video.svgz"
   sodipodi:docbase="/home/cschalle/gnome-themes-extras/Lush/icons/scalable/mimetypes/">
  <defs
     id="defs229" />
  <sodipodi:namedview
     id="base" />
  <metadata
     id="metadata154">
    <ns:variableSets>
      <ns:variableSet
         varSetName="binding1"
         locked="none">
        <ns:variables />
        <ns:sampleDataSets />
      </ns:variableSet>
    </ns:variableSets>
  </metadata>
  <g
     id="Layer_1"
     i:layer="yes"
     i:dimmedPercent="50"
     i:rgbTrio="#4F008000FFFF"
     style="stroke:#000000;">
    <linearGradient
       id="XMLID_1_"
       gradientUnits="userSpaceOnUse"
       x1="131.2803"
       y1="242.2021"
       x2="131.2803"
       y2="225.9855">
      <stop
         offset="0"
         style="stop-color:#CCCCCC"
         id="stop157" />
      <stop
         offset="1"
         style="stop-color:#000000"
         id="stop158" />
      <a:midPointStop
         offset="0"
         style="stop-color:#CCCCCC"
         id="midPointStop159" />
      <a:midPointStop
         offset="0.5"
         style="stop-color:#CCCCCC"
         id="midPointStop160" />
      <a:midPointStop
         offset="1"
         style="stop-color:#000000"
         id="midPointStop161" />
    </linearGradient>
    <path
       i:knockout="Off"
       style="opacity:0.36;fill:url(#XMLID_1_);stroke:none;"
       d="M21.45,228.51c-1.577,8.76,46.318,16.188,106.977,16.592    c60.658,0.402,111.107-6.375,112.685-15.134c1.576-8.759-46.316-16.187-106.975-16.589    C73.478,212.976,23.026,219.751,21.45,228.51z"
       id="path162" />
    <path
       i:knockout="Off"
       style="stroke:none;"
       d="M222.378,44.725L106.815,33.279l0.824,0.114c-12.484-2.223-31.43,10.05-34.033,17.923    l0.215-0.547L10.899,188.715l-0.092,0.278c-2.847,8.613,3.999,17.251,15.257,19.255l134.77,23.995    c11.258,2.004,22.734-3.372,25.58-11.984l51.628-156.205c2.847-8.613-3.998-17.251-15.256-19.256L222.378,44.725z"
       id="path163" />
    <linearGradient
       id="XMLID_2_"
       gradientUnits="userSpaceOnUse"
       x1="101.2012"
       y1="49.4717"
       x2="130.5948"
       y2="153.5337">
      <stop
         offset="0"
         style="stop-color:#D4D4D4"
         id="stop165" />
      <stop
         offset="1"
         style="stop-color:#F0F0F0"
         id="stop166" />
      <a:midPointStop
         offset="0"
         style="stop-color:#D4D4D4"
         id="midPointStop167" />
      <a:midPointStop
         offset="0.5"
         style="stop-color:#D4D4D4"
         id="midPointStop168" />
      <a:midPointStop
         offset="1"
         style="stop-color:#F0F0F0"
         id="midPointStop169" />
    </linearGradient>
    <path
       i:knockout="Off"
       style="fill:url(#XMLID_2_);stroke:none;"
       d="M17.192,189.302c-1.711,5.178,2.388,10.348,9.154,11.554l134.769,23.994    c6.767,1.204,13.638-2.014,15.349-7.191l51.627-156.203c1.711-5.177-2.388-10.35-9.153-11.555L103.789,38.497    c-6.766-1.205-22.087,7.953-23.797,13.129L17.192,189.302z"
       id="path170" />
    <path
       i:knockout="Off"
       style="fill:none;stroke:none;"
       d="M19.313,192.584L82.112,54.909c1.711-5.177,17.033-14.334,23.798-13.129l117.878,9.91    c-1.382-0.833-3.015-1.461-4.851-1.788L103.789,38.497c-6.766-1.205-22.087,7.953-23.797,13.129l-62.8,137.676    c-0.975,2.951-0.057,5.901,2.164,8.116C18.818,195.892,18.765,194.24,19.313,192.584z"
       id="path171" />
    <g
       i:knockout="Off"
       id="g172" />
    <path
       i:knockout="Off"
       style="fill:#C2C2C2;stroke:none;"
       d="M170.909,211.829c-1.711,5.177-8.582,8.396-15.349,7.191l-90.616-11.294l96.17,17.123    c6.767,1.204,13.638-2.014,15.349-7.191l46.879-141.839L170.909,211.829z"
       id="path173" />
    <radialGradient
       id="XMLID_3_"
       cx="122.9863"
       cy="61.2827"
       r="7.46"
       fx="122.9863"
       fy="61.2827"
       gradientTransform="matrix(0.8964 0.0346 -0.3107 1.1036 32.3881 -10.5311)"
       gradientUnits="userSpaceOnUse">
      <stop
         offset="0.8595"
         style="stop-color:#C2C2C2"
         id="stop175" />
      <stop
         offset="1"
         style="stop-color:#000000"
         id="stop176" />
      <a:midPointStop
         offset="0.8595"
         style="stop-color:#C2C2C2"
         id="midPointStop177" />
      <a:midPointStop
         offset="0.5"
         style="stop-color:#C2C2C2"
         id="midPointStop178" />
      <a:midPointStop
         offset="1"
         style="stop-color:#000000"
         id="midPointStop179" />
    </radialGradient>
    <path
       i:knockout="Off"
       style="fill:url(#XMLID_3_);stroke:none;"
       d="M116.158,59.226c-1.259,4.127,0.663,7.579,4.294,7.708c3.63,0.13,7.594-3.113,8.852-7.241    c1.259-4.128-0.666-7.579-4.294-7.708C121.378,51.855,117.416,55.097,116.158,59.226z"
       id="path180" />
    <radialGradient
       id="XMLID_4_"
       cx="183.2773"
       cy="65.5967"
       r="8.1347"
       fx="183.2773"
       fy="65.5967"
       gradientTransform="matrix(0.8964 0.0346 -0.3107 1.1036 32.3881 -10.5311)"
       gradientUnits="userSpaceOnUse">
      <stop
         offset="0.8595"
         style="stop-color:#C2C2C2"
         id="stop182" />
      <stop
         offset="1"
         style="stop-color:#000000"
         id="stop183" />
      <a:midPointStop
         offset="0.8595"
         style="stop-color:#C2C2C2"
         id="midPointStop184" />
      <a:midPointStop
         offset="0.5"
         style="stop-color:#C2C2C2"
         id="midPointStop185" />
      <a:midPointStop
         offset="1"
         style="stop-color:#000000"
         id="midPointStop186" />
    </radialGradient>
    <path
       i:knockout="Off"
       style="fill:url(#XMLID_4_);stroke:none;"
       d="M168.191,65.88c-1.373,4.5,0.723,8.264,4.682,8.405c3.958,0.142,8.28-3.395,9.652-7.896    c1.372-4.501-0.726-8.264-4.683-8.405C173.884,57.843,169.563,61.378,168.191,65.88z"
       id="path187" />
    <path
       i:knockout="Off"
       style="stroke:none;"
       d="M118.663,51c0-11.875,7.377-21.5,16.478-21.5c3.754,0,6.589,7.242,9.359,10    c-2.61-7.379-4.61-18.5-13.021-18C122.941,22.008,116,32.021,116,45c0,7.096,2.075,13.452,5.35,17.761    C119.653,59.381,118.663,55.342,118.663,51z"
       id="path188" />
    <path
       i:knockout="Off"
       style="stroke:none;"
       d="M170.663,56c0-11.875,7.378-21.5,16.478-21.5c3.754,0,6.589,7.242,9.359,10    c-2.61-7.379-4.61-18.5-13.021-18C174.941,27.008,168,37.021,168,50c0,7.096,2.074,13.452,5.35,17.761    C171.652,64.381,170.663,60.342,170.663,56z"
       id="path189" />
    <path
       i:knockout="Off"
       style="opacity:0.36;fill:#999999;stroke:none;"
       d="M200.637,108.876L63.574,87.618l-7.926,17.375l25.482,3.952l-13.005,43.897l-32.037-4.969    l-7.926,17.375l148.931,23.099L200.637,108.876z M67.195,100.451l-5.85-0.907l1.906-6.434l5.85,0.908L67.195,100.451z     M78.298,102.173l-5.849-0.907l1.907-6.434l5.848,0.907L78.298,102.173z M185.39,112.053l5.851,0.907l-1.908,6.434l-5.85-0.908    L185.39,112.053z M174.286,110.331l5.85,0.908l-1.906,6.433l-5.849-0.907L174.286,110.331z M163.184,108.608l5.847,0.907    l-1.902,6.434l-5.851-0.907L163.184,108.608z M152.08,106.886l5.849,0.907l-1.907,6.434l-5.848-0.907L152.08,106.886z     M140.978,105.164l5.849,0.907l-1.905,6.434l-5.851-0.907L140.978,105.164z M129.873,103.442l5.85,0.907l-1.905,6.433    l-5.851-0.907L129.873,103.442z M118.769,101.72l5.85,0.907l-1.906,6.434l-5.85-0.908L118.769,101.72z M107.666,99.998    l5.849,0.907l-1.906,6.434l-5.849-0.907L107.666,99.998z M96.562,98.276l5.849,0.908l-1.905,6.433l-5.849-0.907L96.562,98.276z     M85.459,96.554l5.849,0.907l-1.906,6.433l-5.849-0.907L85.459,96.554z M37.542,161.345l-5.85-0.907l1.906-6.433l5.85,0.906    L37.542,161.345z M48.646,163.066l-5.849-0.906l1.906-6.433l5.849,0.907L48.646,163.066z M59.749,164.789l-5.848-0.905    l1.906-6.435l5.849,0.906L59.749,164.789z M70.853,166.511l-5.849-0.906l1.905-6.434l5.849,0.907L70.853,166.511z M81.956,168.234    l-5.85-0.907l1.907-6.434l5.849,0.907L81.956,168.234z M93.06,169.955l-5.85-0.906l1.906-6.434l5.849,0.908L93.06,169.955z     M104.163,171.678l-5.849-0.906l1.905-6.434l5.85,0.907L104.163,171.678z M115.267,173.399l-5.85-0.907l1.906-6.433l5.849,0.908    L115.267,173.399z M79.481,154.604l13.004-43.898l39.915,6.191l-13.005,43.897L79.481,154.604z M126.37,175.122l-5.849-0.906    l1.906-6.434l5.849,0.907L126.37,175.122z M143.755,118.657l39.914,6.19l-13.003,43.897l-39.916-6.189L143.755,118.657z     M137.474,176.843l-5.85-0.906l1.907-6.434l5.848,0.909L137.474,176.843z M148.577,178.566l-5.85-0.907l1.905-6.433l5.85,0.907    L148.577,178.566z M159.681,180.287l-5.85-0.906l1.906-6.434l5.85,0.908L159.681,180.287z M170.784,182.01l-5.85-0.906    l1.906-6.434l5.85,0.908L170.784,182.01z"
       id="path190" />
    <g
       id="g191">
      <g
         i:knockout="Off"
         id="g192">
        <g
           id="g193">
          <path
             i:knockout="Off"
             style="stroke:none;"
             d="M28.787,68.153L5.244,147.624l165.851,25.723l23.542-79.47L28.787,68.153z        M157.184,93.608l5.847,0.907l-1.902,6.434l-5.851-0.907L157.184,93.608z M146.08,91.886l5.849,0.907l-1.907,6.434       l-5.848-0.907L146.08,91.886z M134.978,90.164l5.849,0.907l-1.905,6.434l-5.851-0.907L134.978,90.164z M123.873,88.442       l5.85,0.907l-1.905,6.433l-5.851-0.907L123.873,88.442z M112.769,86.72l5.85,0.907l-1.906,6.434l-5.85-0.908L112.769,86.72z        M101.666,84.998l5.849,0.907l-1.906,6.434l-5.849-0.907L101.666,84.998z M90.562,83.276l5.849,0.908l-1.905,6.433       l-5.849-0.907L90.562,83.276z M79.459,81.554l5.849,0.907l-1.906,6.433l-5.849-0.907L79.459,81.554z M68.355,79.832       l5.848,0.907l-1.906,6.434l-5.849-0.907L68.355,79.832z M57.251,78.109l5.85,0.908l-1.906,6.434l-5.85-0.907L57.251,78.109z        M46.148,76.388l5.85,0.907l-1.906,6.433l-5.85-0.907L46.148,76.388z M35.044,74.665l5.85,0.908l-1.906,6.434l-5.85-0.908       L35.044,74.665z M20.438,144.623l-5.849-0.906l1.905-6.433l5.85,0.906L20.438,144.623z M31.542,146.345l-5.85-0.907       l1.906-6.433l5.85,0.906L31.542,146.345z M42.646,148.066l-5.849-0.906l1.906-6.433l5.849,0.907L42.646,148.066z        M53.749,149.789l-5.848-0.905l1.906-6.435l5.849,0.906L53.749,149.789z M64.853,151.511l-5.849-0.906l1.905-6.434l5.849,0.907       L64.853,151.511z M75.956,153.234l-5.85-0.907l1.907-6.434l5.849,0.907L75.956,153.234z M87.06,154.955l-5.85-0.906       l1.906-6.434l5.849,0.908L87.06,154.955z M98.163,156.678l-5.849-0.906l1.905-6.434l5.85,0.907L98.163,156.678z        M109.267,158.399l-5.85-0.907l1.906-6.433l5.849,0.908L109.267,158.399z M120.37,160.122l-5.849-0.906l1.906-6.434       l5.849,0.907L120.37,160.122z M131.474,161.843l-5.85-0.906l1.907-6.434l5.848,0.909L131.474,161.843z M142.577,163.566       l-5.85-0.907l1.905-6.433l5.85,0.907L142.577,163.566z M153.681,165.287l-5.85-0.906l1.906-6.434l5.85,0.908L153.681,165.287z        M164.784,167.01l-5.85-0.906l1.906-6.434l5.85,0.908L164.784,167.01z M172.229,102.671l-5.849-0.907l1.905-6.434l5.85,0.908       L172.229,102.671z M177.482,103.486l1.907-6.433l5.851,0.907l-1.908,6.434L177.482,103.486z"
             id="path194" />
        </g>
      </g>
      <g
         id="g195">
        <linearGradient
           id="XMLID_5_"
           gradientUnits="userSpaceOnUse"
           x1="45.7017"
           y1="99.5591"
           x2="46.8087"
           y2="154.1765"
           gradientTransform="matrix(0.9324 0.1446 -0.3038 1.0254 42.2358 -17.3043)">
          <stop
             offset="0"
             style="stop-color:#FFFFFF"
             id="stop197" />
          <stop
             offset="0.5"
             style="stop-color:#FFD100"
             id="stop198" />
          <stop
             offset="1"
             style="stop-color:#FFB30F"
             id="stop199" />
          <a:midPointStop
             offset="0"
             style="stop-color:#FFFFFF"
             id="midPointStop200" />
          <a:midPointStop
             offset="0.5"
             style="stop-color:#FFFFFF"
             id="midPointStop201" />
          <a:midPointStop
             offset="0.5"
             style="stop-color:#FFD100"
             id="midPointStop202" />
          <a:midPointStop
             offset="0.5"
             style="stop-color:#FFD100"
             id="midPointStop203" />
          <a:midPointStop
             offset="1"
             style="stop-color:#FFB30F"
             id="midPointStop204" />
        </linearGradient>
        <path
           i:knockout="Off"
           style="fill:url(#XMLID_5_);stroke:none;"
           d="M62.126,137.842l-39.914-6.19l13.004-43.896l39.915,6.19L62.126,137.842z"
           id="path205" />
        <linearGradient
           id="XMLID_6_"
           gradientUnits="userSpaceOnUse"
           x1="100.665"
           y1="98.4458"
           x2="101.7721"
           y2="153.0644"
           gradientTransform="matrix(0.9324 0.1446 -0.3038 1.0254 42.2358 -17.3043)">
          <stop
             offset="0"
             style="stop-color:#FFFFFF"
             id="stop207" />
          <stop
             offset="0.5"
             style="stop-color:#FFD100"
             id="stop208" />
          <stop
             offset="1"
             style="stop-color:#FFB30F"
             id="stop209" />
          <a:midPointStop
             offset="0"
             style="stop-color:#FFFFFF"
             id="midPointStop210" />
          <a:midPointStop
             offset="0.5"
             style="stop-color:#FFFFFF"
             id="midPointStop211" />
          <a:midPointStop
             offset="0.5"
             style="stop-color:#FFD100"
             id="midPointStop212" />
          <a:midPointStop
             offset="0.5"
             style="stop-color:#FFD100"
             id="midPointStop213" />
          <a:midPointStop
             offset="1"
             style="stop-color:#FFB30F"
             id="midPointStop214" />
        </linearGradient>
        <path
           i:knockout="Off"
           style="fill:url(#XMLID_6_);stroke:none;"
           d="M113.396,145.794l-39.914-6.19l13.004-43.898l39.915,6.191L113.396,145.794z"
           id="path215" />
        <linearGradient
           id="XMLID_7_"
           gradientUnits="userSpaceOnUse"
           x1="155.6279"
           y1="97.3325"
           x2="156.735"
           y2="151.9512"
           gradientTransform="matrix(0.9324 0.1446 -0.3038 1.0254 42.2358 -17.3043)">
          <stop
             offset="0"
             style="stop-color:#FFFFFF"
             id="stop217" />
          <stop
             offset="0.5"
             style="stop-color:#FFD100"
             id="stop218" />
          <stop
             offset="1"
             style="stop-color:#FFB30F"
             id="stop219" />
          <a:midPointStop
             offset="0"
             style="stop-color:#FFFFFF"
             id="midPointStop220" />
          <a:midPointStop
             offset="0.5"
             style="stop-color:#FFFFFF"
             id="midPointStop221" />
          <a:midPointStop
             offset="0.5"
             style="stop-color:#FFD100"
             id="midPointStop222" />
          <a:midPointStop
             offset="0.5"
             style="stop-color:#FFD100"
             id="midPointStop223" />
          <a:midPointStop
             offset="1"
             style="stop-color:#FFB30F"
             id="midPointStop224" />
        </linearGradient>
        <path
           i:knockout="Off"
           style="fill:url(#XMLID_7_);stroke:none;"
           d="M164.666,153.745l-39.917-6.189l13.005-43.898l39.914,6.19L164.666,153.745z"
           id="path225" />
      </g>
    </g>
  </g>
  <g
     id="Layer_2"
     i:layer="yes"
     i:editable="no"
     i:dimmedPercent="50"
     i:rgbTrio="#FFFF4F004F00"
     style="stroke:#000000;">
    <path
       i:knockout="Off"
       style="fill:none;stroke:none;"
       d="M256,256H0V0h256V256z"
       id="path227" />
  </g>
</svg>
