<?xml version="1.0" encoding="UTF-8" standalone="no"?>
<!DOCTYPE svg PUBLIC "-//W3C//DTD SVG 20010904//EN"
"http://www.w3.org/TR/2001/REC-SVG-20010904/DTD/svg10.dtd">
<!-- Created with Sodipodi ("http://www.sodipodi.com/") -->
<svg
   i:viewOrigin="178 524"
   i:rulerOrigin="-178 -268"
   i:pageBounds="178 524 434 268"
   width="48pt"
   height="48pt"
   viewBox="0 0 256 256"
   style="overflow:visible;enable-background:new 0 0 256 256"
   xml:space="preserve"
   xmlns="http://www.w3.org/2000/svg"
   xmlns:ns="&amp;ns_vars;"
   xmlns:i="&amp;ns_ai;"
   xmlns:xml="http://www.w3.org/XML/1998/namespace"
   xmlns:a="http://ns.adobe.com/AdobeSVGViewerExtensions/3.0/"
   xmlns:sodipodi="http://sodipodi.sourceforge.net/DTD/sodipodi-0.dtd"
   xmlns:xlink="http://www.w3.org/1999/xlink"
   id="svg153"
   sodipodi:version="0.32pre"
   sodipodi:docname="/home/cschalle/gnome-themes-extras/Lush/icons/scalable/mimetypes/gnome-mime-text-x-sh.svgz"
   sodipodi:docbase="/home/cschalle/gnome-themes-extras/Lush/icons/scalable/mimetypes/">
  <defs
     id="defs236" />
  <sodipodi:namedview
     id="base" />
  <metadata
     id="metadata154">
    <ns:variableSets>
      <ns:variableSet
         varSetName="binding1"
         locked="none">
        <ns:variables />
        <ns:sampleDataSets />
      </ns:variableSet>
    </ns:variableSets>
  </metadata>
  <g
     id="Layer_1"
     i:layer="yes"
     i:dimmedPercent="50"
     i:rgbTrio="#4F008000FFFF"
     style="stroke:#000000;">
    <linearGradient
       id="XMLID_1_"
       gradientUnits="userSpaceOnUse"
       x1="131.2803"
       y1="242.2021"
       x2="131.2803"
       y2="225.9855">
      <stop
         offset="0"
         style="stop-color:#CCCCCC"
         id="stop157" />
      <stop
         offset="1"
         style="stop-color:#000000"
         id="stop158" />
      <a:midPointStop
         offset="0"
         style="stop-color:#CCCCCC"
         id="midPointStop159" />
      <a:midPointStop
         offset="0.5"
         style="stop-color:#CCCCCC"
         id="midPointStop160" />
      <a:midPointStop
         offset="1"
         style="stop-color:#000000"
         id="midPointStop161" />
    </linearGradient>
    <path
       i:knockout="Off"
       style="opacity:0.36;fill:url(#XMLID_1_);stroke:none;"
       d="M21.45,228.51c-1.577,8.76,46.318,16.188,106.977,16.592    c60.658,0.402,111.107-6.375,112.685-15.134c1.576-8.759-46.316-16.187-106.975-16.589    C73.478,212.976,23.026,219.751,21.45,228.51z"
       id="path162" />
    <path
       i:knockout="Off"
       style="stroke:none;"
       d="M222.378,44.725L106.815,33.279l0.824,0.114c-12.484-2.223-31.43,10.05-34.033,17.923    l0.215-0.547L10.899,188.715l-0.092,0.278c-2.847,8.613,3.999,17.251,15.257,19.255l134.77,23.995    c11.258,2.004,22.734-3.372,25.58-11.984l51.628-156.205c2.847-8.613-3.998-17.251-15.256-19.256L222.378,44.725z"
       id="path163" />
    <linearGradient
       id="XMLID_2_"
       gradientUnits="userSpaceOnUse"
       x1="101.2012"
       y1="49.4717"
       x2="130.5948"
       y2="153.5337">
      <stop
         offset="0"
         style="stop-color:#D4D4D4"
         id="stop165" />
      <stop
         offset="1"
         style="stop-color:#F0F0F0"
         id="stop166" />
      <a:midPointStop
         offset="0"
         style="stop-color:#D4D4D4"
         id="midPointStop167" />
      <a:midPointStop
         offset="0.5"
         style="stop-color:#D4D4D4"
         id="midPointStop168" />
      <a:midPointStop
         offset="1"
         style="stop-color:#F0F0F0"
         id="midPointStop169" />
    </linearGradient>
    <path
       i:knockout="Off"
       style="fill:url(#XMLID_2_);stroke:none;"
       d="M17.192,189.302c-1.711,5.178,2.388,10.348,9.154,11.554l134.769,23.994    c6.767,1.204,13.638-2.014,15.349-7.191l51.627-156.203c1.711-5.177-2.388-10.35-9.153-11.555L103.789,38.497    c-6.766-1.205-22.087,7.953-23.797,13.129L17.192,189.302z"
       id="path170" />
    <path
       i:knockout="Off"
       style="fill:#FFFFFF;stroke:none;"
       d="M19.313,192.584L82.112,54.909c1.711-5.177,17.033-14.334,23.798-13.129l117.878,9.91    c-1.382-0.833-3.015-1.461-4.851-1.788L103.789,38.497c-6.766-1.205-22.087,7.953-23.797,13.129l-62.8,137.676    c-0.975,2.951-0.057,5.901,2.164,8.116C18.818,195.892,18.765,194.24,19.313,192.584z"
       id="path171" />
    <path
       i:knockout="Off"
       style="fill:#C2C2C2;stroke:none;"
       d="M170.909,211.829c-1.711,5.177-8.582,8.396-15.349,7.191l-90.616-11.294l96.17,17.123    c6.767,1.204,13.638-2.014,15.349-7.191l46.879-141.839L170.909,211.829z"
       id="path172" />
    <path
       i:knockout="Off"
       style="fill:none;stroke:none;"
       d="M256,256H0V0h256V256z"
       id="path173" />
    <radialGradient
       id="XMLID_3_"
       cx="122.9863"
       cy="61.2827"
       r="7.46"
       fx="122.9863"
       fy="61.2827"
       gradientTransform="matrix(0.8964 0.0346 -0.3107 1.1036 32.3881 -10.5311)"
       gradientUnits="userSpaceOnUse">
      <stop
         offset="0.8595"
         style="stop-color:#C2C2C2"
         id="stop175" />
      <stop
         offset="1"
         style="stop-color:#000000"
         id="stop176" />
      <a:midPointStop
         offset="0.8595"
         style="stop-color:#C2C2C2"
         id="midPointStop177" />
      <a:midPointStop
         offset="0.5"
         style="stop-color:#C2C2C2"
         id="midPointStop178" />
      <a:midPointStop
         offset="1"
         style="stop-color:#000000"
         id="midPointStop179" />
    </radialGradient>
    <path
       i:knockout="Off"
       style="fill:url(#XMLID_3_);stroke:none;"
       d="M116.158,59.226c-1.259,4.127,0.663,7.579,4.294,7.708c3.63,0.13,7.594-3.113,8.852-7.241    c1.259-4.128-0.666-7.579-4.294-7.708C121.378,51.855,117.416,55.097,116.158,59.226z"
       id="path180" />
    <radialGradient
       id="XMLID_4_"
       cx="183.2773"
       cy="65.5967"
       r="8.1347"
       fx="183.2773"
       fy="65.5967"
       gradientTransform="matrix(0.8964 0.0346 -0.3107 1.1036 32.3881 -10.5311)"
       gradientUnits="userSpaceOnUse">
      <stop
         offset="0.8595"
         style="stop-color:#C2C2C2"
         id="stop182" />
      <stop
         offset="1"
         style="stop-color:#000000"
         id="stop183" />
      <a:midPointStop
         offset="0.8595"
         style="stop-color:#C2C2C2"
         id="midPointStop184" />
      <a:midPointStop
         offset="0.5"
         style="stop-color:#C2C2C2"
         id="midPointStop185" />
      <a:midPointStop
         offset="1"
         style="stop-color:#000000"
         id="midPointStop186" />
    </radialGradient>
    <path
       i:knockout="Off"
       style="fill:url(#XMLID_4_);stroke:none;"
       d="M168.191,65.88c-1.373,4.5,0.723,8.264,4.682,8.405c3.958,0.142,8.28-3.395,9.652-7.896    c1.372-4.501-0.726-8.264-4.683-8.405C173.884,57.843,169.563,61.378,168.191,65.88z"
       id="path187" />
    <path
       i:knockout="Off"
       style="stroke:none;"
       d="M118.663,51c0-11.875,7.377-21.5,16.478-21.5c3.754,0,6.589,7.242,9.359,10    c-2.61-7.379-4.61-18.5-13.021-18C122.941,22.008,116,32.021,116,45c0,7.096,2.075,13.452,5.35,17.761    C119.653,59.381,118.663,55.342,118.663,51z"
       id="path188" />
    <path
       i:knockout="Off"
       style="stroke:none;"
       d="M170.663,56c0-11.875,7.378-21.5,16.478-21.5c3.754,0,6.589,7.242,9.359,10    c-2.61-7.379-4.61-18.5-13.021-18C174.941,27.008,168,37.021,168,50c0,7.096,2.074,13.452,5.35,17.761    C171.652,64.381,170.663,60.342,170.663,56z"
       id="path189" />
    <linearGradient
       id="XMLID_5_"
       gradientUnits="userSpaceOnUse"
       x1="73.1479"
       y1="104.3174"
       x2="151.771"
       y2="182.9405">
      <stop
         offset="0"
         style="stop-color:#F0EBE6"
         id="stop191" />
      <stop
         offset="1"
         style="stop-color:#FFFFFF"
         id="stop192" />
      <a:midPointStop
         offset="0"
         style="stop-color:#F0EBE6"
         id="midPointStop193" />
      <a:midPointStop
         offset="0.5"
         style="stop-color:#F0EBE6"
         id="midPointStop194" />
      <a:midPointStop
         offset="1"
         style="stop-color:#FFFFFF"
         id="midPointStop195" />
    </linearGradient>
    <path
       i:knockout="Off"
       style="opacity:0.3;fill:url(#XMLID_5_);stroke:none;adobe-blending-mode:softLight;"
       d="M182.467,101.316H62.515c-4.399,0-7.966,4.053-7.966,9.054v90.65    c22.12-26.686,56.303-34.027,87.811-45.113c18.527-6.588,33.056-19.307,48.073-31.942V110.37    C190.433,105.369,186.866,101.316,182.467,101.316z"
       id="path196" />
    <path
       i:knockout="Off"
       style="opacity:0.36;fill:#999999;stroke:none;"
       d="M52.938,77.115c-6.331,0-11.482,5.548-11.482,12.367v86.624    c0,6.819,5.151,12.367,11.482,12.367h97.604c6.331,0,11.482-5.548,11.482-12.367V89.482c0-6.819-5.151-12.367-11.482-12.367    H52.938z"
       id="path197" />
    <path
       i:knockout="Off"
       style="stroke:none;"
       d="M45.938,71.115c-6.331,0-11.482,5.548-11.482,12.367v86.624    c0,6.819,5.151,12.367,11.482,12.367h97.604c6.331,0,11.482-5.548,11.482-12.367V83.482c0-6.819-5.151-12.367-11.482-12.367    H45.938z"
       id="path198" />
    <linearGradient
       id="XMLID_6_"
       gradientUnits="userSpaceOnUse"
       x1="94.7407"
       y1="80.2407"
       x2="94.7407"
       y2="179.2471">
      <stop
         offset="0"
         style="stop-color:#F0EBE6"
         id="stop200" />
      <stop
         offset="1"
         style="stop-color:#9D9282"
         id="stop201" />
      <a:midPointStop
         offset="0"
         style="stop-color:#F0EBE6"
         id="midPointStop202" />
      <a:midPointStop
         offset="0.5"
         style="stop-color:#F0EBE6"
         id="midPointStop203" />
      <a:midPointStop
         offset="1"
         style="stop-color:#9D9282"
         id="midPointStop204" />
    </linearGradient>
    <path
       i:knockout="Off"
       style="fill:url(#XMLID_6_);stroke:none;"
       d="M150.025,170.105c0,4.067-2.902,7.367-6.482,7.367H45.938c-3.58,0-6.482-3.3-6.482-7.367    V83.482c0-4.069,2.902-7.367,6.482-7.367h97.604c3.58,0,6.482,3.298,6.482,7.367V170.105z"
       id="path205" />
    <linearGradient
       id="XMLID_7_"
       gradientUnits="userSpaceOnUse"
       x1="94.7407"
       y1="82.5249"
       x2="94.7407"
       y2="162.8678">
      <stop
         offset="0"
         style="stop-color:#FFFFFF"
         id="stop207" />
      <stop
         offset="0.0422"
         style="stop-color:#FBFAF9"
         id="stop208" />
      <stop
         offset="0.3084"
         style="stop-color:#E2DED8"
         id="stop209" />
      <stop
         offset="0.5633"
         style="stop-color:#D0CAC0"
         id="stop210" />
      <stop
         offset="0.7998"
         style="stop-color:#C6BEB2"
         id="stop211" />
      <stop
         offset="1"
         style="stop-color:#C2BAAD"
         id="stop212" />
      <a:midPointStop
         offset="0"
         style="stop-color:#FFFFFF"
         id="midPointStop213" />
      <a:midPointStop
         offset="0.3277"
         style="stop-color:#FFFFFF"
         id="midPointStop214" />
      <a:midPointStop
         offset="1"
         style="stop-color:#C2BAAD"
         id="midPointStop215" />
    </linearGradient>
    <path
       i:knockout="Off"
       style="fill:url(#XMLID_7_);stroke:none;"
       d="M45.938,81.288c-0.721,0-1.309,0.537-1.309,1.197v74.902    c0,0.658,0.587,1.197,1.309,1.197h97.604c0.721,0,1.309-0.539,1.309-1.197V82.485c0-0.661-0.588-1.197-1.309-1.197H45.938z"
       id="path216" />
    <path
       i:knockout="Off"
       style="stroke:#9D9282;stroke-width:3;stroke-linecap:round;stroke-linejoin:round;"
       d="M49.804,86.461c0,6.731,0,60.218,0,66.95c6.836,0,83.038,0,89.874,0    c0-6.732,0-60.219,0-66.95C132.842,86.461,56.64,86.461,49.804,86.461z"
       id="path217" />
    <linearGradient
       id="XMLID_8_"
       gradientUnits="userSpaceOnUse"
       x1="94.7397"
       y1="83.9248"
       x2="94.7397"
       y2="130.7887">
      <stop
         offset="0"
         style="stop-color:#FFFFFF"
         id="stop219" />
      <stop
         offset="1"
         style="stop-color:#000000"
         id="stop220" />
      <a:midPointStop
         offset="0"
         style="stop-color:#FFFFFF"
         id="midPointStop221" />
      <a:midPointStop
         offset="0.5"
         style="stop-color:#FFFFFF"
         id="midPointStop222" />
      <a:midPointStop
         offset="1"
         style="stop-color:#000000"
         id="midPointStop223" />
    </linearGradient>
    <path
       i:knockout="Off"
       style="fill:url(#XMLID_8_);stroke:none;"
       d="M52.391,89.047c0,4.195,0,38.316,0,46.953c0.625-0.422,1.264-0.821,1.924-1.182    l0.078-0.044l0.081-0.036c8.689-3.988,17.56-7.63,26.138-11.149c19.964-8.194,38.836-15.972,56.478-28.014    c0-1.501,0-4.104,0-6.527C132.356,89.047,57.125,89.047,52.391,89.047z"
       id="path224" />
    <text
       i:knockout="Off"
       transform="matrix(1 0 0 1 56.0811 113.5449)"
       id="text225">
      <tspan
         x="0"
         y="0"
         style="fill:#FFFFFF;stroke:none;"
         id="tspan226">
$&gt; _</tspan>
    </text>
    <linearGradient
       id="XMLID_9_"
       gradientUnits="userSpaceOnUse"
       x1="94.7417"
       y1="175.5459"
       x2="94.7417"
       y2="168.6469">
      <stop
         offset="0"
         style="stop-color:#E8E3DA"
         id="stop229" />
      <stop
         offset="1"
         style="stop-color:#6F6754"
         id="stop230" />
      <a:midPointStop
         offset="0"
         style="stop-color:#E8E3DA"
         id="midPointStop231" />
      <a:midPointStop
         offset="0.5"
         style="stop-color:#E8E3DA"
         id="midPointStop232" />
      <a:midPointStop
         offset="1"
         style="stop-color:#6F6754"
         id="midPointStop233" />
    </linearGradient>
    <path
       i:knockout="Off"
       style="fill:url(#XMLID_9_);stroke:none;"
       d="M45.896,169.522c-0.814,0-1.589-0.107-2.301-0.297v1.957    c0,1.166,1.073,2.151,2.343,2.151h97.604c1.27,0,2.344-0.985,2.344-2.151v-1.978c-0.735,0.205-1.541,0.317-2.387,0.317H45.896z"
       id="path234" />
  </g>
</svg>
