<?xml version="1.0" encoding="UTF-8" standalone="no"?>
<!DOCTYPE svg PUBLIC "-//W3C//DTD SVG 20010904//EN"
"http://www.w3.org/TR/2001/REC-SVG-20010904/DTD/svg10.dtd">
<!-- Created with Sodipodi ("http://www.sodipodi.com/") -->
<svg
   i:viewOrigin="178 524"
   i:rulerOrigin="-178 -268"
   i:pageBounds="178 524 434 268"
   width="48pt"
   height="48pt"
   viewBox="0 0 256 256"
   style="overflow:visible;enable-background:new 0 0 256 256"
   xml:space="preserve"
   xmlns="http://www.w3.org/2000/svg"
   xmlns:ns="&amp;ns_vars;"
   xmlns:i="&amp;ns_ai;"
   xmlns:xml="http://www.w3.org/XML/1998/namespace"
   xmlns:a="http://ns.adobe.com/AdobeSVGViewerExtensions/3.0/"
   xmlns:sodipodi="http://sodipodi.sourceforge.net/DTD/sodipodi-0.dtd"
   xmlns:xlink="http://www.w3.org/1999/xlink"
   id="svg153"
   sodipodi:version="0.32pre"
   sodipodi:docname="/home/cschalle/gnome-themes-extras/Lush/icons/scalable/mimetypes/gnome-mime-audio.svgz"
   sodipodi:docbase="/home/cschalle/gnome-themes-extras/Lush/icons/scalable/mimetypes/">
  <defs
     id="defs266" />
  <sodipodi:namedview
     id="base" />
  <metadata
     id="metadata154">
    <ns:variableSets>
      <ns:variableSet
         varSetName="binding1"
         locked="none">
        <ns:variables />
        <ns:sampleDataSets />
      </ns:variableSet>
    </ns:variableSets>
  </metadata>
  <g
     id="Layer_1"
     i:layer="yes"
     i:dimmedPercent="50"
     i:rgbTrio="#4F008000FFFF"
     style="stroke:#000000;">
    <linearGradient
       id="XMLID_1_"
       gradientUnits="userSpaceOnUse"
       x1="131.2803"
       y1="242.2021"
       x2="131.2803"
       y2="225.9855">
      <stop
         offset="0"
         style="stop-color:#CCCCCC"
         id="stop157" />
      <stop
         offset="1"
         style="stop-color:#000000"
         id="stop158" />
      <a:midPointStop
         offset="0"
         style="stop-color:#CCCCCC"
         id="midPointStop159" />
      <a:midPointStop
         offset="0.5"
         style="stop-color:#CCCCCC"
         id="midPointStop160" />
      <a:midPointStop
         offset="1"
         style="stop-color:#000000"
         id="midPointStop161" />
    </linearGradient>
    <path
       i:knockout="Off"
       style="opacity:0.36;fill:url(#XMLID_1_);stroke:none;"
       d="M21.45,228.51c-1.577,8.76,46.318,16.188,106.977,16.592    c60.658,0.402,111.107-6.375,112.685-15.134c1.576-8.759-46.316-16.187-106.975-16.589    C73.478,212.976,23.026,219.751,21.45,228.51z"
       id="path162" />
    <path
       i:knockout="Off"
       style="stroke:none;"
       d="M222.378,44.725L106.815,33.279l0.824,0.114c-12.484-2.223-31.43,10.05-34.033,17.923    l0.215-0.547L10.899,188.715l-0.092,0.278c-2.847,8.613,3.999,17.251,15.257,19.255l134.77,23.995    c11.258,2.004,22.734-3.372,25.58-11.984l51.628-156.205c2.847-8.613-3.998-17.251-15.256-19.256L222.378,44.725z"
       id="path163" />
    <linearGradient
       id="XMLID_2_"
       gradientUnits="userSpaceOnUse"
       x1="101.2012"
       y1="49.4717"
       x2="130.5948"
       y2="153.5337">
      <stop
         offset="0"
         style="stop-color:#D4D4D4"
         id="stop165" />
      <stop
         offset="1"
         style="stop-color:#F0F0F0"
         id="stop166" />
      <a:midPointStop
         offset="0"
         style="stop-color:#D4D4D4"
         id="midPointStop167" />
      <a:midPointStop
         offset="0.5"
         style="stop-color:#D4D4D4"
         id="midPointStop168" />
      <a:midPointStop
         offset="1"
         style="stop-color:#F0F0F0"
         id="midPointStop169" />
    </linearGradient>
    <path
       i:knockout="Off"
       style="fill:url(#XMLID_2_);stroke:none;"
       d="M17.192,189.302c-1.711,5.178,2.388,10.348,9.154,11.554l134.769,23.994    c6.767,1.204,13.638-2.014,15.349-7.191l51.627-156.203c1.711-5.177-2.388-10.35-9.153-11.555L103.789,38.497    c-6.766-1.205-22.087,7.953-23.797,13.129L17.192,189.302z"
       id="path170" />
    <path
       i:knockout="Off"
       style="fill:#FFFFFF;stroke:none;"
       d="M19.313,192.584L82.112,54.909c1.711-5.177,17.033-14.334,23.798-13.129l117.878,9.91    c-1.382-0.833-3.015-1.461-4.851-1.788L103.789,38.497c-6.766-1.205-22.087,7.953-23.797,13.129l-62.8,137.676    c-0.975,2.951-0.057,5.901,2.164,8.116C18.818,195.892,18.765,194.24,19.313,192.584z"
       id="path171" />
    <path
       i:knockout="Off"
       style="fill:#C2C2C2;stroke:none;"
       d="M170.909,211.829c-1.711,5.177-8.582,8.396-15.349,7.191l-90.616-11.294l96.17,17.123    c6.767,1.204,13.638-2.014,15.349-7.191l46.879-141.839L170.909,211.829z"
       id="path172" />
    <path
       i:knockout="Off"
       style="fill:none;stroke:none;"
       d="M256,256H0V0h256V256z"
       id="path173" />
    <radialGradient
       id="XMLID_3_"
       cx="122.9863"
       cy="61.2827"
       r="7.46"
       fx="122.9863"
       fy="61.2827"
       gradientTransform="matrix(0.8964 0.0346 -0.3107 1.1036 32.3881 -10.5311)"
       gradientUnits="userSpaceOnUse">
      <stop
         offset="0.8595"
         style="stop-color:#C2C2C2"
         id="stop175" />
      <stop
         offset="1"
         style="stop-color:#000000"
         id="stop176" />
      <a:midPointStop
         offset="0.8595"
         style="stop-color:#C2C2C2"
         id="midPointStop177" />
      <a:midPointStop
         offset="0.5"
         style="stop-color:#C2C2C2"
         id="midPointStop178" />
      <a:midPointStop
         offset="1"
         style="stop-color:#000000"
         id="midPointStop179" />
    </radialGradient>
    <path
       i:knockout="Off"
       style="fill:url(#XMLID_3_);stroke:none;"
       d="M116.158,59.226c-1.259,4.127,0.663,7.579,4.294,7.708c3.63,0.13,7.594-3.113,8.852-7.241    c1.259-4.128-0.666-7.579-4.294-7.708C121.378,51.855,117.416,55.097,116.158,59.226z"
       id="path180" />
    <radialGradient
       id="XMLID_4_"
       cx="183.2773"
       cy="65.5967"
       r="8.1347"
       fx="183.2773"
       fy="65.5967"
       gradientTransform="matrix(0.8964 0.0346 -0.3107 1.1036 32.3881 -10.5311)"
       gradientUnits="userSpaceOnUse">
      <stop
         offset="0.8595"
         style="stop-color:#C2C2C2"
         id="stop182" />
      <stop
         offset="1"
         style="stop-color:#000000"
         id="stop183" />
      <a:midPointStop
         offset="0.8595"
         style="stop-color:#C2C2C2"
         id="midPointStop184" />
      <a:midPointStop
         offset="0.5"
         style="stop-color:#C2C2C2"
         id="midPointStop185" />
      <a:midPointStop
         offset="1"
         style="stop-color:#000000"
         id="midPointStop186" />
    </radialGradient>
    <path
       i:knockout="Off"
       style="fill:url(#XMLID_4_);stroke:none;"
       d="M168.191,65.88c-1.373,4.5,0.723,8.264,4.682,8.405c3.958,0.142,8.28-3.395,9.652-7.896    c1.372-4.501-0.726-8.264-4.683-8.405C173.884,57.843,169.563,61.378,168.191,65.88z"
       id="path187" />
    <path
       i:knockout="Off"
       style="stroke:none;"
       d="M118.663,51c0-11.875,7.377-21.5,16.478-21.5c3.754,0,6.589,7.242,9.359,10    c-2.61-7.379-4.61-18.5-13.021-18C122.941,22.008,116,32.021,116,45c0,7.096,2.075,13.452,5.35,17.761    C119.653,59.381,118.663,55.342,118.663,51z"
       id="path188" />
    <path
       i:knockout="Off"
       style="stroke:none;"
       d="M170.663,56c0-11.875,7.378-21.5,16.478-21.5c3.754,0,6.589,7.242,9.359,10    c-2.61-7.379-4.61-18.5-13.021-18C174.941,27.008,168,37.021,168,50c0,7.096,2.074,13.452,5.35,17.761    C171.652,64.381,170.663,60.342,170.663,56z"
       id="path189" />
    <path
       i:knockout="Off"
       style="opacity:0.36;fill:#CCCCCC;stroke:none;"
       d="M130.023,79.736c0,0,0,63.26,0,75.719c-5.718-2.109-12.408-3.289-19.343-3.289    c-20.385,0-36.354,9.635-36.354,21.934c0,12.3,15.969,21.934,36.354,21.934c20.387,0,36.356-9.634,36.356-21.934    c0-1.31-0.238-2.612-0.602-3.9c0-0.999,0-52.778,0-65.695c2.96,2.167,6.32,4.551,10.891,5.27    c7.653,1.203,14.32-1.261,20.204-3.436l2.471-0.902l-3.006-9.129c-5.24,1.587-9.109-1.527-14.988-6.74    c-4.385-3.889-9.268-8.166-15.571-9.423c0-0.057,0-0.388,0-0.388s-2.134,0-3.516,0c-0.23-0.001-0.46-0.007-0.693,0    c-0.13,0-2.088,0-2.088,0l-5.307-0.02H130.023z"
       id="path190" />
    <g
       id="g191">
      <linearGradient
         id="XMLID_5_"
         gradientUnits="userSpaceOnUse"
         x1="105.4912"
         y1="133.7793"
         x2="163.1794"
         y2="133.7793">
        <stop
           offset="0"
           style="stop-color:#99CCFF"
           id="stop193" />
        <stop
           offset="1"
           style="stop-color:#C7E3EF"
           id="stop194" />
        <a:midPointStop
           offset="0"
           style="stop-color:#99CCFF"
           id="midPointStop195" />
        <a:midPointStop
           offset="0.5"
           style="stop-color:#99CCFF"
           id="midPointStop196" />
        <a:midPointStop
           offset="1"
           style="stop-color:#C7E3EF"
           id="midPointStop197" />
      </linearGradient>
      <path
         i:knockout="Off"
         style="fill:url(#XMLID_5_);stroke:none;"
         d="M125.419,75.631c0,0,0,63.26,0,75.719c-5.72-2.109-12.41-3.289-19.344-3.289     c-20.386,0-36.355,9.634-36.355,21.934c0,12.299,15.969,21.934,36.355,21.934c20.387,0,36.356-9.635,36.356-21.934     c0-1.309-0.237-2.612-0.602-3.9c0-1,0-52.778,0-65.694c2.96,2.166,6.319,4.55,10.891,5.27c7.653,1.203,14.32-1.262,20.203-3.436     l2.472-0.902l-3.006-9.129c-5.24,1.587-9.109-1.526-14.987-6.74c-4.386-3.89-9.27-8.167-15.572-9.423c0-0.057,0-0.388,0-0.388     s-2.135,0-3.515,0c-0.231-0.001-0.461-0.007-0.694,0c-0.13,0-2.088,0-2.088,0l-5.308-0.02H125.419z"
         id="path198" />
      <linearGradient
         id="XMLID_6_"
         gradientUnits="userSpaceOnUse"
         x1="124.1548"
         y1="74.4316"
         x2="124.1548"
         y2="107.1832">
        <stop
           offset="0"
           style="stop-color:#0066CC"
           id="stop200" />
        <stop
           offset="0.1414"
           style="stop-color:#0D73D9"
           id="stop201" />
        <stop
           offset="0.4377"
           style="stop-color:#2288EE"
           id="stop202" />
        <stop
           offset="0.7273"
           style="stop-color:#2F95FB"
           id="stop203" />
        <stop
           offset="1"
           style="stop-color:#3399FF"
           id="stop204" />
        <a:midPointStop
           offset="0"
           style="stop-color:#0066CC"
           id="midPointStop205" />
        <a:midPointStop
           offset="0.5"
           style="stop-color:#0066CC"
           id="midPointStop206" />
        <a:midPointStop
           offset="0.1414"
           style="stop-color:#0D73D9"
           id="midPointStop207" />
        <a:midPointStop
           offset="0.5"
           style="stop-color:#0D73D9"
           id="midPointStop208" />
        <a:midPointStop
           offset="0.4377"
           style="stop-color:#2288EE"
           id="midPointStop209" />
        <a:midPointStop
           offset="0.5"
           style="stop-color:#2288EE"
           id="midPointStop210" />
        <a:midPointStop
           offset="0.7273"
           style="stop-color:#2F95FB"
           id="midPointStop211" />
        <a:midPointStop
           offset="0.5"
           style="stop-color:#2F95FB"
           id="midPointStop212" />
        <a:midPointStop
           offset="1"
           style="stop-color:#3399FF"
           id="midPointStop213" />
      </linearGradient>
      <path
         style="fill:url(#XMLID_6_);stroke:none;"
         d="M137.621,80.458l-0.599,0.218v-0.218h-1.489v-0.02h-5.308v78.558c-5.785-3.742-14.448-6.128-24.15-6.128     c-17.423,0-31.548,7.668-31.548,17.126c0,9.459,14.125,17.126,31.548,17.126s31.548-7.667,31.548-17.126     c0-1.14-0.209-2.252-0.601-3.329v-74.5c5.983,1.666,9.87,7.721,16.443,8.754c7.378,1.16,13.865-1.82,20.317-4.118     C158.757,101.353,151.91,79.909,137.621,80.458z"
         id="path214" />
      <linearGradient
         id="XMLID_7_"
         gradientUnits="userSpaceOnUse"
         x1="-105.5034"
         y1="396.8789"
         x2="-103.1097"
         y2="382.5169"
         gradientTransform="matrix(1 0 0 -1 194.1221 555.4082)">
        <stop
           offset="0"
           style="stop-color:#FFFFFF"
           id="stop216" />
        <stop
           offset="0.0154"
           style="stop-color:#F9F9F9"
           id="stop217" />
        <stop
           offset="0.1111"
           style="stop-color:#DCDCDC"
           id="stop218" />
        <stop
           offset="0.2173"
           style="stop-color:#C3C3C3"
           id="stop219" />
        <stop
           offset="0.3363"
           style="stop-color:#B0B0B0"
           id="stop220" />
        <stop
           offset="0.4752"
           style="stop-color:#A3A3A3"
           id="stop221" />
        <stop
           offset="0.6526"
           style="stop-color:#9B9B9B"
           id="stop222" />
        <stop
           offset="1"
           style="stop-color:#999999"
           id="stop223" />
        <a:midPointStop
           offset="0"
           style="stop-color:#FFFFFF"
           id="midPointStop224" />
        <a:midPointStop
           offset="0.5"
           style="stop-color:#FFFFFF"
           id="midPointStop225" />
        <a:midPointStop
           offset="0.0154"
           style="stop-color:#F9F9F9"
           id="midPointStop226" />
        <a:midPointStop
           offset="0.5"
           style="stop-color:#F9F9F9"
           id="midPointStop227" />
        <a:midPointStop
           offset="0.1111"
           style="stop-color:#DCDCDC"
           id="midPointStop228" />
        <a:midPointStop
           offset="0.5"
           style="stop-color:#DCDCDC"
           id="midPointStop229" />
        <a:midPointStop
           offset="0.2173"
           style="stop-color:#C3C3C3"
           id="midPointStop230" />
        <a:midPointStop
           offset="0.5"
           style="stop-color:#C3C3C3"
           id="midPointStop231" />
        <a:midPointStop
           offset="0.3363"
           style="stop-color:#B0B0B0"
           id="midPointStop232" />
        <a:midPointStop
           offset="0.5"
           style="stop-color:#B0B0B0"
           id="midPointStop233" />
        <a:midPointStop
           offset="0.4752"
           style="stop-color:#A3A3A3"
           id="midPointStop234" />
        <a:midPointStop
           offset="0.5"
           style="stop-color:#A3A3A3"
           id="midPointStop235" />
        <a:midPointStop
           offset="0.6526"
           style="stop-color:#9B9B9B"
           id="midPointStop236" />
        <a:midPointStop
           offset="0.5"
           style="stop-color:#9B9B9B"
           id="midPointStop237" />
        <a:midPointStop
           offset="1"
           style="stop-color:#999999"
           id="midPointStop238" />
      </linearGradient>
      <path
         style="opacity:0.5;fill:url(#XMLID_7_);stroke:none;adobe-blending-mode:screen;"
         d="M102.646,154.255c-15.228,1.105-26.917,7.57-26.917,15.382c0,3.064,1.804,5.918,4.908,8.325     C81.623,168.353,90.01,159.857,102.646,154.255z"
         id="path239" />
      <linearGradient
         id="XMLID_8_"
         gradientUnits="userSpaceOnUse"
         x1="-66.9321"
         y1="368.9697"
         x2="-78.8009"
         y2="380.8385"
         gradientTransform="matrix(1 0 0 -1 194.1221 555.4082)">
        <stop
           offset="0"
           style="stop-color:#FFFFFF"
           id="stop241" />
        <stop
           offset="0.0154"
           style="stop-color:#F9F9F9"
           id="stop242" />
        <stop
           offset="0.1111"
           style="stop-color:#DCDCDC"
           id="stop243" />
        <stop
           offset="0.2173"
           style="stop-color:#C3C3C3"
           id="stop244" />
        <stop
           offset="0.3363"
           style="stop-color:#B0B0B0"
           id="stop245" />
        <stop
           offset="0.4752"
           style="stop-color:#A3A3A3"
           id="stop246" />
        <stop
           offset="0.6526"
           style="stop-color:#9B9B9B"
           id="stop247" />
        <stop
           offset="1"
           style="stop-color:#999999"
           id="stop248" />
        <a:midPointStop
           offset="0"
           style="stop-color:#FFFFFF"
           id="midPointStop249" />
        <a:midPointStop
           offset="0.5"
           style="stop-color:#FFFFFF"
           id="midPointStop250" />
        <a:midPointStop
           offset="0.0154"
           style="stop-color:#F9F9F9"
           id="midPointStop251" />
        <a:midPointStop
           offset="0.5"
           style="stop-color:#F9F9F9"
           id="midPointStop252" />
        <a:midPointStop
           offset="0.1111"
           style="stop-color:#DCDCDC"
           id="midPointStop253" />
        <a:midPointStop
           offset="0.5"
           style="stop-color:#DCDCDC"
           id="midPointStop254" />
        <a:midPointStop
           offset="0.2173"
           style="stop-color:#C3C3C3"
           id="midPointStop255" />
        <a:midPointStop
           offset="0.5"
           style="stop-color:#C3C3C3"
           id="midPointStop256" />
        <a:midPointStop
           offset="0.3363"
           style="stop-color:#B0B0B0"
           id="midPointStop257" />
        <a:midPointStop
           offset="0.5"
           style="stop-color:#B0B0B0"
           id="midPointStop258" />
        <a:midPointStop
           offset="0.4752"
           style="stop-color:#A3A3A3"
           id="midPointStop259" />
        <a:midPointStop
           offset="0.5"
           style="stop-color:#A3A3A3"
           id="midPointStop260" />
        <a:midPointStop
           offset="0.6526"
           style="stop-color:#9B9B9B"
           id="midPointStop261" />
        <a:midPointStop
           offset="0.5"
           style="stop-color:#9B9B9B"
           id="midPointStop262" />
        <a:midPointStop
           offset="1"
           style="stop-color:#999999"
           id="midPointStop263" />
      </linearGradient>
      <path
         style="opacity:0.5;fill:url(#XMLID_8_);stroke:none;adobe-blending-mode:screen;"
         d="M129.156,164.138c0.623,1.152,0.955,2.359,0.955,3.604c0,8.048-13.855,14.572-30.947,14.572     c-0.237,0-0.472-0.006-0.706-0.01c3.461,0.963,7.439,1.512,11.673,1.512c13.357,0,24.187-5.448,24.187-12.169     C134.317,168.813,132.387,166.206,129.156,164.138z"
         id="path264" />
    </g>
  </g>
</svg>
