<?xml version="1.0" encoding="UTF-8" standalone="no"?>
<!DOCTYPE svg PUBLIC "-//W3C//DTD SVG 20010904//EN"
"http://www.w3.org/TR/2001/REC-SVG-20010904/DTD/svg10.dtd">
<!-- Created with Sodipodi ("http://www.sodipodi.com/") -->
<svg
   i:viewOrigin="178 524"
   i:rulerOrigin="-178 -268"
   i:pageBounds="178 524 434 268"
   width="48pt"
   height="48pt"
   viewBox="0 0 256 256"
   style="overflow:visible;enable-background:new 0 0 256 256"
   xml:space="preserve"
   xmlns="http://www.w3.org/2000/svg"
   xmlns:ns="&amp;ns_vars;"
   xmlns:i="&amp;ns_ai;"
   xmlns:xml="http://www.w3.org/XML/1998/namespace"
   xmlns:a="http://ns.adobe.com/AdobeSVGViewerExtensions/3.0/"
   xmlns:sodipodi="http://sodipodi.sourceforge.net/DTD/sodipodi-0.dtd"
   xmlns:xlink="http://www.w3.org/1999/xlink"
   id="svg153"
   sodipodi:version="0.32pre"
   sodipodi:docname="/home/cschalle/gnome-themes-extras/Lush/icons/scalable/mimetypes/gnome-library.svgz"
   sodipodi:docbase="/home/cschalle/gnome-themes-extras/Lush/icons/scalable/mimetypes/">
  <defs
     id="defs238" />
  <sodipodi:namedview
     id="base" />
  <metadata
     id="metadata154">
    <ns:variableSets>
      <ns:variableSet
         varSetName="binding1"
         locked="none">
        <ns:variables />
        <ns:sampleDataSets />
      </ns:variableSet>
    </ns:variableSets>
  </metadata>
  <g
     id="Layer_1"
     i:layer="yes"
     i:dimmedPercent="50"
     i:rgbTrio="#4F008000FFFF"
     style="stroke:#000000;">
    <linearGradient
       id="XMLID_1_"
       gradientUnits="userSpaceOnUse"
       x1="131.2803"
       y1="242.2021"
       x2="131.2803"
       y2="225.9855">
      <stop
         offset="0"
         style="stop-color:#CCCCCC"
         id="stop157" />
      <stop
         offset="1"
         style="stop-color:#000000"
         id="stop158" />
      <a:midPointStop
         offset="0"
         style="stop-color:#CCCCCC"
         id="midPointStop159" />
      <a:midPointStop
         offset="0.5"
         style="stop-color:#CCCCCC"
         id="midPointStop160" />
      <a:midPointStop
         offset="1"
         style="stop-color:#000000"
         id="midPointStop161" />
    </linearGradient>
    <path
       i:knockout="Off"
       style="opacity:0.36;fill:url(#XMLID_1_);stroke:none;"
       d="M21.45,228.51c-1.577,8.76,46.318,16.188,106.977,16.592    c60.658,0.402,111.107-6.375,112.685-15.134c1.576-8.759-46.316-16.187-106.975-16.589    C73.478,212.976,23.026,219.751,21.45,228.51z"
       id="path162" />
    <path
       i:knockout="Off"
       style="stroke:none;"
       d="M222.378,44.725L106.815,33.279l0.824,0.114c-12.484-2.223-31.43,10.05-34.033,17.923    l0.215-0.547L10.899,188.715l-0.092,0.278c-2.847,8.613,3.999,17.251,15.257,19.255l134.77,23.995    c11.258,2.004,22.734-3.372,25.58-11.984l51.628-156.205c2.847-8.613-3.998-17.251-15.256-19.256L222.378,44.725z"
       id="path163" />
    <linearGradient
       id="XMLID_2_"
       gradientUnits="userSpaceOnUse"
       x1="101.2012"
       y1="49.4717"
       x2="130.5948"
       y2="153.5337">
      <stop
         offset="0"
         style="stop-color:#D4D4D4"
         id="stop165" />
      <stop
         offset="1"
         style="stop-color:#F0F0F0"
         id="stop166" />
      <a:midPointStop
         offset="0"
         style="stop-color:#D4D4D4"
         id="midPointStop167" />
      <a:midPointStop
         offset="0.5"
         style="stop-color:#D4D4D4"
         id="midPointStop168" />
      <a:midPointStop
         offset="1"
         style="stop-color:#F0F0F0"
         id="midPointStop169" />
    </linearGradient>
    <path
       i:knockout="Off"
       style="fill:url(#XMLID_2_);stroke:none;"
       d="M17.192,189.302c-1.711,5.178,2.388,10.348,9.154,11.554l134.769,23.994    c6.767,1.204,13.638-2.014,15.349-7.191l51.627-156.203c1.711-5.177-2.388-10.35-9.153-11.555L103.789,38.497    c-6.766-1.205-22.087,7.953-23.797,13.129L17.192,189.302z"
       id="path170" />
    <path
       i:knockout="Off"
       style="fill:none;stroke:none;"
       d="M19.313,192.584L82.112,54.909c1.711-5.177,17.033-14.334,23.798-13.129l117.878,9.91    c-1.382-0.833-3.015-1.461-4.851-1.788L103.789,38.497c-6.766-1.205-22.087,7.953-23.797,13.129l-62.8,137.676    c-0.975,2.951-0.057,5.901,2.164,8.116C18.818,195.892,18.765,194.24,19.313,192.584z"
       id="path171" />
    <g
       i:knockout="Off"
       id="g172" />
    <path
       i:knockout="Off"
       style="fill:#C2C2C2;stroke:none;"
       d="M170.909,211.829c-1.711,5.177-8.582,8.396-15.349,7.191l-90.616-11.294l96.17,17.123    c6.767,1.204,13.638-2.014,15.349-7.191l46.879-141.839L170.909,211.829z"
       id="path173" />
    <radialGradient
       id="XMLID_3_"
       cx="122.9863"
       cy="61.2827"
       r="7.46"
       fx="122.9863"
       fy="61.2827"
       gradientTransform="matrix(0.8964 0.0346 -0.3107 1.1036 32.3881 -10.5311)"
       gradientUnits="userSpaceOnUse">
      <stop
         offset="0.8595"
         style="stop-color:#C2C2C2"
         id="stop175" />
      <stop
         offset="1"
         style="stop-color:#000000"
         id="stop176" />
      <a:midPointStop
         offset="0.8595"
         style="stop-color:#C2C2C2"
         id="midPointStop177" />
      <a:midPointStop
         offset="0.5"
         style="stop-color:#C2C2C2"
         id="midPointStop178" />
      <a:midPointStop
         offset="1"
         style="stop-color:#000000"
         id="midPointStop179" />
    </radialGradient>
    <path
       i:knockout="Off"
       style="fill:url(#XMLID_3_);stroke:none;"
       d="M116.158,59.226c-1.259,4.127,0.663,7.579,4.294,7.708c3.63,0.13,7.594-3.113,8.852-7.241    c1.259-4.128-0.666-7.579-4.294-7.708C121.378,51.855,117.416,55.097,116.158,59.226z"
       id="path180" />
    <radialGradient
       id="XMLID_4_"
       cx="183.2773"
       cy="65.5967"
       r="8.1347"
       fx="183.2773"
       fy="65.5967"
       gradientTransform="matrix(0.8964 0.0346 -0.3107 1.1036 32.3881 -10.5311)"
       gradientUnits="userSpaceOnUse">
      <stop
         offset="0.8595"
         style="stop-color:#C2C2C2"
         id="stop182" />
      <stop
         offset="1"
         style="stop-color:#000000"
         id="stop183" />
      <a:midPointStop
         offset="0.8595"
         style="stop-color:#C2C2C2"
         id="midPointStop184" />
      <a:midPointStop
         offset="0.5"
         style="stop-color:#C2C2C2"
         id="midPointStop185" />
      <a:midPointStop
         offset="1"
         style="stop-color:#000000"
         id="midPointStop186" />
    </radialGradient>
    <path
       i:knockout="Off"
       style="fill:url(#XMLID_4_);stroke:none;"
       d="M168.191,65.88c-1.373,4.5,0.723,8.264,4.682,8.405c3.958,0.142,8.28-3.395,9.652-7.896    c1.372-4.501-0.726-8.264-4.683-8.405C173.884,57.843,169.563,61.378,168.191,65.88z"
       id="path187" />
    <path
       i:knockout="Off"
       style="stroke:none;"
       d="M118.663,51c0-11.875,7.377-21.5,16.478-21.5c3.754,0,6.589,7.242,9.359,10    c-2.61-7.379-4.61-18.5-13.021-18C122.941,22.008,116,32.021,116,45c0,7.096,2.075,13.452,5.35,17.761    C119.653,59.381,118.663,55.342,118.663,51z"
       id="path188" />
    <path
       i:knockout="Off"
       style="stroke:none;"
       d="M170.663,56c0-11.875,7.378-21.5,16.478-21.5c3.754,0,6.589,7.242,9.359,10    c-2.61-7.379-4.61-18.5-13.021-18C174.941,27.008,168,37.021,168,50c0,7.096,2.074,13.452,5.35,17.761    C171.652,64.381,170.663,60.342,170.663,56z"
       id="path189" />
    <path
       i:knockout="Off"
       style="fill:#1B7157;stroke:none;"
       d="M102.868,180.804l14.933,12.33"
       id="path190" />
    <path
       i:knockout="Off"
       style="stroke:none;"
       d="M58.927,44.75c0,0-0.299,2.921-0.312,3.039c-0.023,0.14-1.474,8.75-1.917,11.38    c-3.05,0.339-5.978,0.987-8.75,1.938c-2.696-2.225-16.235-13.401-16.235-13.401L16.409,61.393l-2.297,13.118    c0,0,7.032,10.795,9.21,14.14c-4.052-0.003-15.83-0.016-15.83-0.016l-2.634,14.619l2.278,21.141c0,0,14.372,6.089,17.126,7.255    c1.102,3.047,2.426,6.077,3.958,9.055c-0.715,1.166-2.731,4.455-2.731,4.455L22.963,157.8l17.486,19.493    c0,0,10.941-5.237,13.497-6.46c3.863,2.853,7.892,5.316,12.03,7.358c0.807,2.69,5.4,18.001,5.4,18.001l23.128,5.089l3.657-12.217    c0,0,0.395-3.603,0.494-4.508c2.939-0.382,5.749-1.053,8.399-2.005c2.703,2.231,15.6,12.88,15.6,12.88l13.789-12.338l4.452-13.6    c0,0-7.388-11.342-9.537-14.641c4.263,0.029,14.5,0.102,14.5,0.102l4.206-12.387l-2.529-23.408c0,0-14.689-6.307-17.418-7.479    c-1.368-3.756-3.077-7.486-5.106-11.133c0.871-2.018,6.799-14.812,6.799-14.812l-1.708-1.907l-16.08-17.924    c0,0-11.323,5.417-13.882,6.642c-3.68-2.674-7.483-4.987-11.359-6.907c-0.82-2.688-5.598-18.329-5.598-18.329l-23.975-5.279    L58.927,44.75z M72.041,98.52c14.491,3.191,28.247,17.31,31.664,32.357c0.004,0.018,0.008,0.038,0.012,0.058    c-0.981,3.402-2.777,6.277-5.271,8.308c-4.106,3.342-9.839,4.419-16.14,3.032c-13.211-2.911-25.551-15.576-28.704-29.461    c-0.268-1.181-0.467-2.367-0.593-3.525c-0.261-2.436-0.145-4.761,0.255-6.963C57.999,98.251,64.624,96.889,72.041,98.52z"
       id="path191" />
    <path
       i:knockout="Off"
       style="opacity:0.36;fill:#999999;stroke:none;"
       d="M63.255,51.586c0,0-0.303,2.92-0.314,3.039c-0.023,0.139-1.473,8.748-1.915,11.379    c-3.051,0.34-5.979,0.988-8.751,1.938C49.578,65.717,36.039,54.54,36.039,54.54L20.736,68.228l-2.297,13.118    c0,0,7.031,10.796,9.21,14.14c-4.052-0.003-15.83-0.015-15.83-0.015l-2.634,14.619l2.278,21.141c0,0,14.373,6.087,17.127,7.254    c1.101,3.046,2.426,6.077,3.958,9.055c-0.714,1.166-2.731,4.455-2.731,4.455l-2.527,12.642l17.485,19.492    c0,0,10.942-5.237,13.497-6.459c3.863,2.853,7.892,5.315,12.03,7.357c0.808,2.69,5.401,18,5.401,18l23.128,5.09l3.657-12.216    c0,0,0.394-3.603,0.494-4.508c2.938-0.383,5.75-1.054,8.398-2.006c2.704,2.232,15.601,12.881,15.601,12.881l13.789-12.338    l4.452-13.601c0,0-7.389-11.342-9.537-14.641c4.262,0.029,14.5,0.103,14.5,0.103l4.204-12.387l-2.526-23.408    c0,0-14.69-6.306-17.42-7.479c-1.367-3.757-3.077-7.486-5.106-11.134c0.872-2.017,6.8-14.811,6.8-14.811l-1.709-1.906    l-16.079-17.925c0,0-11.322,5.417-13.882,6.643c-3.68-2.674-7.483-4.987-11.36-6.907c-0.819-2.688-5.598-18.329-5.598-18.329    l-23.974-5.279L63.255,51.586z M76.367,105.356c14.491,3.19,28.247,17.309,31.663,32.355c0.005,0.02,0.008,0.038,0.013,0.058    c-0.98,3.402-2.777,6.278-5.271,8.308c-4.108,3.343-9.839,4.419-16.141,3.031c-13.21-2.91-25.55-15.575-28.703-29.46    c-0.269-1.18-0.467-2.368-0.592-3.525c-0.262-2.436-0.146-4.761,0.254-6.963C62.325,105.087,68.951,103.725,76.367,105.356z"
       id="path192" />
    <linearGradient
       id="XMLID_5_"
       gradientUnits="userSpaceOnUse"
       x1="137.6816"
       y1="176.1084"
       x2="41.4068"
       y2="68.5801"
       gradientTransform="matrix(1.0099 -4.000000e-004 0.2248 0.9901 -30.7693 1.8087)">
      <stop
         offset="0"
         style="stop-color:#009272"
         id="stop194" />
      <stop
         offset="1"
         style="stop-color:#6AC29F"
         id="stop195" />
      <a:midPointStop
         offset="0"
         style="stop-color:#009272"
         id="midPointStop196" />
      <a:midPointStop
         offset="0.5"
         style="stop-color:#009272"
         id="midPointStop197" />
      <a:midPointStop
         offset="1"
         style="stop-color:#6AC29F"
         id="midPointStop198" />
    </linearGradient>
    <path
       i:knockout="Off"
       style="fill:url(#XMLID_5_);stroke:none;"
       d="M61.882,48.28c0,0-1.118,10.861-1.412,13.714c-4.502,0.205-8.716,1.102-12.607,2.665    c-2.513-2.074-15.54-12.828-15.54-12.828l-11.829,10.58c0,0,9.317,14.306,10.883,16.711c-2.111,3.787-3.522,8.018-4.244,12.627    c-2.983-0.003-16.127-0.016-16.127-0.016l1.99,18.461c0,0,14.116,5.98,16.667,7.061c1.767,5.344,4.245,10.599,7.398,15.697    c-1.219,1.989-7.605,12.41-7.605,12.41l14.12,15.736c0,0,10.741-5.14,13.14-6.288c4.671,3.636,9.57,6.651,14.647,8.986    c0.75,2.5,5.255,17.505,5.255,17.505l18.622,4.099c0,0,1.459-13.323,1.768-16.144c4.569-0.215,8.843-1.136,12.775-2.743    c2.507,2.069,15.2,12.55,15.2,12.55l11.829-10.588c0,0-9.145-14.041-10.702-16.431c2.114-3.817,3.517-8.075,4.224-12.707    c3.012,0.021,16.214,0.116,16.214,0.116l-1.993-18.469c0,0-14.339-6.156-16.87-7.242c-1.796-5.369-4.307-10.634-7.486-15.726    c1.226-2.001,7.651-12.488,7.651-12.488l-14.117-15.737c0,0-10.948,5.239-13.352,6.389c-4.535-3.493-9.284-6.403-14.196-8.673    c-0.761-2.493-5.408-17.704-5.408-17.704l-18.628-4.102L61.882,48.28z M50.445,112.815c-0.292-1.29-0.512-2.588-0.652-3.887    c-0.875-8.122,1.606-15.209,6.808-19.444c4.741-3.857,11.337-5.104,18.575-3.511c16.126,3.551,30.69,19.859,32.468,36.356    c0.876,8.124-1.608,15.211-6.812,19.446c-4.738,3.855-11.334,5.103-18.571,3.509C67.406,142.014,53.874,127.912,50.445,112.815z"
       id="path199" />
    <path
       i:knockout="Off"
       style="fill:#1B7157;stroke:none;"
       d="M120.198,98.018c0.43,0.688,0.845,1.381,1.25,2.075l6.069-14.021    C126.189,88.237,121.256,96.289,120.198,98.018z"
       id="path200" />
    <path
       i:knockout="Off"
       style="fill:#1B7157;stroke:none;"
       d="M59.599,62.05c0.291-0.019,0.578-0.043,0.871-0.056    c0.255-2.471,1.127-10.942,1.356-13.169L59.599,62.05z"
       id="path201" />
    <path
       i:knockout="Off"
       style="fill:#1B7157;stroke:none;"
       d="M20.737,62.193l-0.025-0.001l-0.007,0.029L20.737,62.193z"
       id="path202" />
    <linearGradient
       id="XMLID_6_"
       gradientUnits="userSpaceOnUse"
       x1="57.9883"
       y1="107.8184"
       x2="110.103"
       y2="107.8184"
       gradientTransform="matrix(1.0099 -4.000000e-004 0.2248 0.9901 -30.7693 1.8087)">
      <stop
         offset="0"
         style="stop-color:#1B7157"
         id="stop204" />
      <stop
         offset="1"
         style="stop-color:#6AC29F"
         id="stop205" />
      <a:midPointStop
         offset="0"
         style="stop-color:#1B7157"
         id="midPointStop206" />
      <a:midPointStop
         offset="0.5"
         style="stop-color:#1B7157"
         id="midPointStop207" />
      <a:midPointStop
         offset="1"
         style="stop-color:#6AC29F"
         id="midPointStop208" />
    </linearGradient>
    <path
       i:knockout="Off"
       style="fill:url(#XMLID_6_);stroke:none;"
       d="M107.644,122.331c-1.777-16.497-16.342-32.806-32.468-36.356    c-7.237-1.593-13.834-0.347-18.575,3.511c-3.267,2.659-5.458,6.442-6.422,10.9c5.159-4.837,12.895-6.86,21.906-4.876    c16.54,3.641,31.568,19.48,34.961,36.226C107.786,128.861,108.006,125.688,107.644,122.331z"
       id="path209" />
    <path
       i:knockout="Off"
       style="fill:#2BA475;stroke:none;"
       d="M123.935,178.197c-3.057-2.524-11.91-9.832-14.085-11.627    c-0.978,4.083-1.604,8.449-2.651,12.476l14.396,11.89C122.09,186.529,123.352,182.474,123.935,178.197z"
       id="path210" />
    <path
       i:knockout="Off"
       style="fill:#01835E;stroke:none;"
       d="M109.782,166.514c-3.932,1.607-8.206,2.528-12.775,2.743    c-0.205,1.861-0.91,8.299-1.365,12.461c4.132-0.341,7.979-1.27,11.469-2.743l0.087,0.071c1.047-4.026,1.673-8.393,2.651-12.476    C109.831,166.553,109.801,166.53,109.782,166.514z"
       id="path211" />
    <path
       i:knockout="Off"
       style="fill:#1B7157;stroke:none;"
       d="M136.574,168.688c0,0-11.984,10.049-12.64,9.509c-0.583,4.276-1.845,8.332-2.34,12.738    l0.449,0.37l11.419-10.217l3.132-12.39C136.587,168.696,136.581,168.692,136.574,168.688z"
       id="path212" />
    <path
       i:knockout="Off"
       style="fill:#01835E;stroke:none;"
       d="M76.617,181.302c0,0-0.058-0.192-0.156-0.521c-0.962,4.065-1.923,8.131-2.885,12.196    l0.218,0.726l18.129,3.989l3.118-12.334L76.617,181.302z"
       id="path213" />
    <path
       i:knockout="Off"
       style="fill:#1B7157;stroke:none;"
       d="M43.575,161.099l-0.089-0.1c-1.213,3.955-2.598,7.965-2.807,12.339l0.06,0.067    l12.915-6.182c0.472-4.007,1.212-7.893,1.791-11.805C51.773,157.176,43.575,161.099,43.575,161.099z"
       id="path214" />
    <path
       i:knockout="Off"
       style="fill:#01835E;stroke:none;"
       d="M29.563,145.481l-3.047,12.066l14.164,15.79c0.208-4.374,1.593-8.384,2.807-12.339    L29.563,145.481z"
       id="path215" />
    <path
       i:knockout="Off"
       style="fill:#018B71;stroke:none;"
       d="M71.362,163.797c-5.077-2.335-9.976-5.351-14.647-8.986    c-0.303,0.145-0.74,0.354-1.271,0.608c-0.578,3.912-1.318,7.798-1.791,11.805l0.066-0.03c4.527,3.544,9.381,6.561,14.443,8.934    c1.782-3.384,2.863-6.991,3.651-10.821C71.616,164.64,71.458,164.115,71.362,163.797z"
       id="path216" />
    <path
       i:knockout="Off"
       style="fill:#2BA475;stroke:none;"
       d="M68.164,176.127c0.14,0.066,0.277,0.136,0.417,0.2l4.996,16.649    c0.961-4.065,1.923-8.131,2.885-12.196c-0.681-2.27-3.448-11.485-4.646-15.475C71.027,169.136,69.946,172.743,68.164,176.127z"
       id="path217" />
    <path
       i:knockout="Off"
       style="fill:#2BA475;stroke:none;"
       d="M31.376,79.122c-1.463-2.247-9.689-14.878-10.765-16.529l-3.03,11.994l9.907,15.209    C28.276,85.94,29.567,82.367,31.376,79.122z"
       id="path218" />
    <path
       i:knockout="Off"
       style="fill:#006648;stroke:none;"
       d="M130.333,139.338c-0.707,4.632-2.109,8.89-4.224,12.707    c0.224,0.342,0.605,0.93,1.091,1.675c-0.088-0.722-0.097-1.392-0.011-1.986l15.966,0.112l3.133-12.393    C144.454,139.439,133.1,139.357,130.333,139.338z"
       id="path219" />
    <path
       i:knockout="Off"
       style="fill:#1B7157;stroke:none;"
       d="M29.662,117.255c-2.31-0.977-14.097-5.971-16.308-6.908    c-1.316,3.25-2.599,6.544-3.478,9.973l0.241,2.236l16.399,6.945c0.957-3.698,2.453-7.158,3.668-10.743    C30.006,118.258,29.828,117.759,29.662,117.255z"
       id="path220" />
    <path
       i:knockout="Off"
       style="fill:#01835E;stroke:none;"
       d="M12.995,110.194L11.11,92.711c-0.003,0.001-0.009,0.001-0.012,0.002l-2.968,11.41    l1.745,16.197c0.878-3.429,2.162-6.724,3.478-9.973C13.122,110.249,12.995,110.194,12.995,110.194z"
       id="path221" />
    <path
       i:knockout="Off"
       style="fill:#018B71;stroke:none;"
       d="M30.184,118.758c-1.215,3.585-2.711,7.045-3.668,10.743l0.189,0.08    c1.345,4.044,3.085,8.01,5.166,11.838c1.945-3.172,4.469-7.292,5.189-8.467C34.202,128.333,31.906,123.584,30.184,118.758z"
       id="path222" />
    <linearGradient
       id="XMLID_7_"
       gradientUnits="userSpaceOnUse"
       x1="122.0898"
       y1="165.1465"
       x2="58.3223"
       y2="83.4578"
       gradientTransform="matrix(1.0099 -4.000000e-004 0.2248 0.9901 -30.7693 1.8087)">
      <stop
         offset="0"
         style="stop-color:#50B796"
         id="stop224" />
      <stop
         offset="1"
         style="stop-color:#B8E4D4"
         id="stop225" />
      <a:midPointStop
         offset="0"
         style="stop-color:#50B796"
         id="midPointStop226" />
      <a:midPointStop
         offset="0.5"
         style="stop-color:#50B796"
         id="midPointStop227" />
      <a:midPointStop
         offset="1"
         style="stop-color:#B8E4D4"
         id="midPointStop228" />
    </linearGradient>
    <path
       i:knockout="Off"
       style="fill:url(#XMLID_7_);stroke:none;"
       d="M143.213,136.499l-1.486-13.782l-16.292-6.993c-1.939-6.369-4.935-12.566-8.736-18.327    l7.391-12.063l-10.633-11.854l-12.816,6.132c-5.223-4.271-10.94-7.819-16.934-10.379l-5.212-17.066l-13.556-2.985l-1.603,15.546    c-5.77-0.029-11.025,1.121-15.593,3.267l-14.84-12.25l-8.534,7.633l10.464,16.068c-2.696,4.318-4.458,9.454-5.081,15.24    l-15.415-0.015l1.486,13.779l16.096,6.819c1.906,6.36,4.87,12.549,8.637,18.31l-7.34,11.979l10.636,11.854l12.613-6.036    c5.346,4.42,11.222,8.084,17.385,10.7l5.063,16.865l13.555,2.981l1.685-15.396c5.835,0.022,11.146-1.156,15.745-3.357    l14.507,11.979l8.535-7.64l-10.281-15.785c2.695-4.345,4.45-9.513,5.05-15.337L143.213,136.499z M82.221,148.143    c-17.634-3.884-33.548-21.623-35.48-39.554c-1.933-17.927,10.843-29.354,28.478-25.472c17.629,3.881,33.545,21.625,35.477,39.55    C112.627,140.596,99.854,152.025,82.221,148.143z"
       id="path229" />
    <path
       i:knockout="Off"
       style="fill:#FFFFFF;stroke:none;"
       d="M34.832,79.447L24.367,63.379l7.04-6.297l-0.119-0.097l-8.534,7.633l10.464,16.067    c-2.501,4.006-4.185,8.722-4.914,14.001l1.446,0.001C30.374,88.9,32.135,83.765,34.832,79.447z"
       id="path230" />
    <path
       i:knockout="Off"
       style="fill:#FFFFFF;stroke:none;"
       d="M73.849,162.076c-6.163-2.616-12.039-6.28-17.385-10.7l-12.613,6.036l-10.636-11.854    l7.34-11.979c-3.767-5.761-6.731-11.95-8.637-18.31l-16.096-6.819l-1.352-12.538l-1.748-0.002l1.486,13.78l16.096,6.819    c1.906,6.359,4.87,12.547,8.636,18.309l-7.34,11.978l10.635,11.854l12.614-6.035c5.346,4.421,11.223,8.084,17.386,10.701    l5.063,16.865l13.555,2.981l0.171-1.557l-12.113-2.664L73.849,162.076z"
       id="path231" />
    <path
       i:knockout="Off"
       style="fill:#FFFFFF;stroke:none;"
       d="M75.219,83.117c-8.585-1.89-16.011-0.145-21.156,4.206    c5.031-3.431,11.822-4.667,19.542-2.967c17.631,3.882,33.546,21.626,35.478,39.553c0.991,9.202-1.9,16.685-7.325,21.27    c6.46-4.403,10.021-12.429,8.938-22.51C108.765,104.743,92.849,86.999,75.219,83.117z"
       id="path232" />
    <path
       i:knockout="Off"
       style="fill:#FFFFFF;stroke:none;"
       d="M94.151,166.527l-0.132,1.207c5.252-0.166,10.059-1.313,14.263-3.326l14.509,11.979    l1.493-1.337l-14.388-11.881C105.297,165.371,99.986,166.55,94.151,166.527z"
       id="path233" />
    <path
       i:knockout="Off"
       style="fill:#FFFFFF;stroke:none;"
       d="M127.545,137.636l14.056,0.102l-0.137-1.251l-13.757-0.099    C127.663,136.81,127.602,137.222,127.545,137.636z"
       id="path234" />
  </g>
  <g
     id="Layer_2"
     i:layer="yes"
     i:editable="no"
     i:dimmedPercent="50"
     i:rgbTrio="#FFFF4F004F00"
     style="stroke:#000000;">
    <path
       i:knockout="Off"
       style="fill:none;stroke:none;"
       d="M256,256H0V0h256V256z"
       id="path236" />
  </g>
</svg>
