<?xml version="1.0" encoding="UTF-8" standalone="no"?>
<!DOCTYPE svg PUBLIC "-//W3C//DTD SVG 20010904//EN"
"http://www.w3.org/TR/2001/REC-SVG-20010904/DTD/svg10.dtd">
<!-- Created with Sodipodi ("http://www.sodipodi.com/") -->
<svg
   i:viewOrigin="178 524"
   i:rulerOrigin="-178 -268"
   i:pageBounds="178 524 434 268"
   width="48pt"
   height="48pt"
   viewBox="0 0 256 256"
   style="overflow:visible;enable-background:new 0 0 256 256"
   xml:space="preserve"
   xmlns="http://www.w3.org/2000/svg"
   xmlns:ns="&amp;ns_vars;"
   xmlns:i="&amp;ns_ai;"
   xmlns:xml="http://www.w3.org/XML/1998/namespace"
   xmlns:a="http://ns.adobe.com/AdobeSVGViewerExtensions/3.0/"
   xmlns:sodipodi="http://sodipodi.sourceforge.net/DTD/sodipodi-0.dtd"
   xmlns:xlink="http://www.w3.org/1999/xlink"
   id="svg153"
   sodipodi:version="0.32pre"
   sodipodi:docname="/home/cschalle/gnome-themes-extras/Lush/icons/scalable/mimetypes/gnome-mime-audio-basic.svgz"
   sodipodi:docbase="/home/cschalle/gnome-themes-extras/Lush/icons/scalable/mimetypes/">
  <defs
     id="defs260" />
  <sodipodi:namedview
     id="base" />
  <metadata
     id="metadata154">
    <ns:variableSets>
      <ns:variableSet
         varSetName="binding1"
         locked="none">
        <ns:variables />
        <ns:sampleDataSets />
      </ns:variableSet>
    </ns:variableSets>
  </metadata>
  <g
     id="Layer_2"
     i:layer="yes"
     i:editable="no"
     i:dimmedPercent="50"
     i:rgbTrio="#FFFF4F004F00"
     style="stroke:#000000;">
    <path
       i:knockout="Off"
       style="fill:none;stroke:none;"
       d="M256,256H0V0h256V256z"
       id="path156" />
  </g>
  <g
     id="Layer_1"
     i:layer="yes"
     i:dimmedPercent="50"
     i:rgbTrio="#4F008000FFFF"
     style="stroke:#000000;">
    <linearGradient
       id="XMLID_1_"
       gradientUnits="userSpaceOnUse"
       x1="131.2803"
       y1="242.2021"
       x2="131.2803"
       y2="225.9855">
      <stop
         offset="0"
         style="stop-color:#CCCCCC"
         id="stop159" />
      <stop
         offset="1"
         style="stop-color:#000000"
         id="stop160" />
      <a:midPointStop
         offset="0"
         style="stop-color:#CCCCCC"
         id="midPointStop161" />
      <a:midPointStop
         offset="0.5"
         style="stop-color:#CCCCCC"
         id="midPointStop162" />
      <a:midPointStop
         offset="1"
         style="stop-color:#000000"
         id="midPointStop163" />
    </linearGradient>
    <path
       i:knockout="Off"
       style="opacity:0.36;fill:url(#XMLID_1_);stroke:none;"
       d="M21.45,228.51c-1.577,8.76,46.318,16.188,106.977,16.592    c60.658,0.402,111.107-6.375,112.685-15.134c1.576-8.759-46.316-16.187-106.975-16.589    C73.478,212.976,23.026,219.751,21.45,228.51z"
       id="path164" />
    <path
       i:knockout="Off"
       style="stroke:none;"
       d="M222.378,44.725L106.815,33.279l0.824,0.114c-12.484-2.223-31.43,10.05-34.033,17.923    l0.215-0.547L10.899,188.715l-0.092,0.278c-2.847,8.613,3.999,17.251,15.257,19.255l134.77,23.995    c11.258,2.004,22.734-3.372,25.58-11.984l51.628-156.205c2.847-8.613-3.998-17.251-15.256-19.256L222.378,44.725z"
       id="path165" />
    <linearGradient
       id="XMLID_2_"
       gradientUnits="userSpaceOnUse"
       x1="101.2012"
       y1="49.4717"
       x2="130.5948"
       y2="153.5337">
      <stop
         offset="0"
         style="stop-color:#D4D4D4"
         id="stop167" />
      <stop
         offset="1"
         style="stop-color:#F0F0F0"
         id="stop168" />
      <a:midPointStop
         offset="0"
         style="stop-color:#D4D4D4"
         id="midPointStop169" />
      <a:midPointStop
         offset="0.5"
         style="stop-color:#D4D4D4"
         id="midPointStop170" />
      <a:midPointStop
         offset="1"
         style="stop-color:#F0F0F0"
         id="midPointStop171" />
    </linearGradient>
    <path
       i:knockout="Off"
       style="fill:url(#XMLID_2_);stroke:none;"
       d="M17.192,189.302c-1.711,5.178,2.388,10.348,9.154,11.554l134.769,23.994    c6.767,1.204,13.638-2.014,15.349-7.191l51.627-156.203c1.711-5.177-2.388-10.35-9.153-11.555L103.789,38.497    c-6.766-1.205-22.087,7.953-23.797,13.129L17.192,189.302z"
       id="path172" />
    <path
       i:knockout="Off"
       style="fill:none;stroke:none;"
       d="M19.313,192.584L82.112,54.909c1.711-5.177,17.033-14.334,23.798-13.129l117.878,9.91    c-1.382-0.833-3.015-1.461-4.851-1.788L103.789,38.497c-6.766-1.205-22.087,7.953-23.797,13.129l-62.8,137.676    c-0.975,2.951-0.057,5.901,2.164,8.116C18.818,195.892,18.765,194.24,19.313,192.584z"
       id="path173" />
    <g
       i:knockout="Off"
       id="g174" />
    <path
       i:knockout="Off"
       style="fill:#C2C2C2;stroke:none;"
       d="M170.909,211.829c-1.711,5.177-8.582,8.396-15.349,7.191l-90.616-11.294l96.17,17.123    c6.767,1.204,13.638-2.014,15.349-7.191l46.879-141.839L170.909,211.829z"
       id="path175" />
    <radialGradient
       id="XMLID_3_"
       cx="122.9863"
       cy="61.2827"
       r="7.46"
       fx="122.9863"
       fy="61.2827"
       gradientTransform="matrix(0.8964 0.0346 -0.3107 1.1036 32.3881 -10.5311)"
       gradientUnits="userSpaceOnUse">
      <stop
         offset="0.8595"
         style="stop-color:#C2C2C2"
         id="stop177" />
      <stop
         offset="1"
         style="stop-color:#000000"
         id="stop178" />
      <a:midPointStop
         offset="0.8595"
         style="stop-color:#C2C2C2"
         id="midPointStop179" />
      <a:midPointStop
         offset="0.5"
         style="stop-color:#C2C2C2"
         id="midPointStop180" />
      <a:midPointStop
         offset="1"
         style="stop-color:#000000"
         id="midPointStop181" />
    </radialGradient>
    <path
       i:knockout="Off"
       style="fill:url(#XMLID_3_);stroke:none;"
       d="M116.158,59.226c-1.259,4.127,0.663,7.579,4.294,7.708c3.63,0.13,7.594-3.113,8.852-7.241    c1.259-4.128-0.666-7.579-4.294-7.708C121.378,51.855,117.416,55.097,116.158,59.226z"
       id="path182" />
    <radialGradient
       id="XMLID_4_"
       cx="183.2773"
       cy="65.5967"
       r="8.1347"
       fx="183.2773"
       fy="65.5967"
       gradientTransform="matrix(0.8964 0.0346 -0.3107 1.1036 32.3881 -10.5311)"
       gradientUnits="userSpaceOnUse">
      <stop
         offset="0.8595"
         style="stop-color:#C2C2C2"
         id="stop184" />
      <stop
         offset="1"
         style="stop-color:#000000"
         id="stop185" />
      <a:midPointStop
         offset="0.8595"
         style="stop-color:#C2C2C2"
         id="midPointStop186" />
      <a:midPointStop
         offset="0.5"
         style="stop-color:#C2C2C2"
         id="midPointStop187" />
      <a:midPointStop
         offset="1"
         style="stop-color:#000000"
         id="midPointStop188" />
    </radialGradient>
    <path
       i:knockout="Off"
       style="fill:url(#XMLID_4_);stroke:none;"
       d="M168.191,65.88c-1.373,4.5,0.723,8.264,4.682,8.405c3.958,0.142,8.28-3.395,9.652-7.896    c1.372-4.501-0.726-8.264-4.683-8.405C173.884,57.843,169.563,61.378,168.191,65.88z"
       id="path189" />
    <path
       i:knockout="Off"
       style="stroke:none;"
       d="M118.663,51c0-11.875,7.377-21.5,16.478-21.5c3.754,0,6.589,7.242,9.359,10    c-2.61-7.379-4.61-18.5-13.021-18C122.941,22.008,116,32.021,116,45c0,7.096,2.075,13.452,5.35,17.761    C119.653,59.381,118.663,55.342,118.663,51z"
       id="path190" />
    <path
       i:knockout="Off"
       style="stroke:none;"
       d="M170.663,56c0-11.875,7.378-21.5,16.478-21.5c3.754,0,6.589,7.242,9.359,10    c-2.61-7.379-4.61-18.5-13.021-18C174.941,27.008,168,37.021,168,50c0,7.096,2.074,13.452,5.35,17.761    C171.652,64.381,170.663,60.342,170.663,56z"
       id="path191" />
    <g
       id="g192">
      <path
         i:knockout="Off"
         style="fill:#FFFFFF;stroke:none;"
         d="M177.692,151.746c0.235-0.706,17.391-53.346,17.391-53.346l23.735,11.045l16.92,22.325     l5.875,13.159l3.762,18.565l-58.986,4.701l-9.401-15.98"
         id="path193" />
      <path
         i:knockout="Off"
         style="stroke:none;"
         d="M95.042,162.993c0,40.324,34.228,73.129,76.3,73.129     c42.071,0,76.301-32.805,76.301-73.129c0-40.323-34.229-73.128-76.301-73.128C129.27,89.865,95.042,122.67,95.042,162.993z      M168.519,162.994c0-0.936,1.16-1.979,2.823-1.979c1.664,0,2.823,1.043,2.823,1.979s-1.159,1.979-2.823,1.979     C169.679,164.973,168.519,163.93,168.519,162.994z"
         id="path194" />
      <linearGradient
         id="XMLID_5_"
         gradientUnits="userSpaceOnUse"
         x1="170.0498"
         y1="223.9844"
         x2="170.0498"
         y2="152.0668">
        <stop
           offset="0"
           style="stop-color:#AFB0CB"
           id="stop196" />
        <stop
           offset="1"
           style="stop-color:#CBD5E8"
           id="stop197" />
        <a:midPointStop
           offset="0"
           style="stop-color:#AFB0CB"
           id="midPointStop198" />
        <a:midPointStop
           offset="0.5"
           style="stop-color:#AFB0CB"
           id="midPointStop199" />
        <a:midPointStop
           offset="1"
           style="stop-color:#CBD5E8"
           id="midPointStop200" />
      </linearGradient>
      <path
         i:knockout="Off"
         style="fill:url(#XMLID_5_);stroke:none;"
         d="M170.05,95.431c-38.354,0-69.444,29.67-69.444,66.271     c0,36.601,31.09,66.272,69.444,66.272c38.353,0,69.444-29.672,69.444-66.272C239.494,125.101,208.402,95.431,170.05,95.431z      M170.061,172.746c-4.54,0-10.34-6.965-10.34-11.045c0-4.079,5.788-7.398,10.329-7.398c4.54,0,12.701,3.555,12.701,7.633     C182.751,166.017,174.6,172.746,170.061,172.746z"
         id="path201" />
      <linearGradient
         id="XMLID_6_"
         gradientUnits="userSpaceOnUse"
         x1="179.1035"
         y1="134.5898"
         x2="240.9082"
         y2="134.5898">
        <stop
           offset="0"
           style="stop-color:#D8E1ED"
           id="stop203" />
        <stop
           offset="1"
           style="stop-color:#FFFFFF"
           id="stop204" />
        <a:midPointStop
           offset="0"
           style="stop-color:#D8E1ED"
           id="midPointStop205" />
        <a:midPointStop
           offset="0.5"
           style="stop-color:#D8E1ED"
           id="midPointStop206" />
        <a:midPointStop
           offset="1"
           style="stop-color:#FFFFFF"
           id="midPointStop207" />
      </linearGradient>
      <path
         i:knockout="Off"
         style="opacity:0.5;fill:url(#XMLID_6_);stroke:none;"
         d="M179.104,150.57l24.187-47.706l17.261,12.185l8.409,11.495l6.195,8.506l3.763,9.425     l0.663,7.588l1.327,7.356l-53.771,6.896L179.104,150.57z"
         id="path208" />
      <linearGradient
         id="XMLID_7_"
         gradientUnits="userSpaceOnUse"
         x1="105.0762"
         y1="194.0469"
         x2="165.7061"
         y2="194.0469">
        <stop
           offset="0"
           style="stop-color:#FFFFFF"
           id="stop210" />
        <stop
           offset="1"
           style="stop-color:#D8E1ED"
           id="stop211" />
        <a:midPointStop
           offset="0"
           style="stop-color:#FFFFFF"
           id="midPointStop212" />
        <a:midPointStop
           offset="0.5"
           style="stop-color:#FFFFFF"
           id="midPointStop213" />
        <a:midPointStop
           offset="1"
           style="stop-color:#D8E1ED"
           id="midPointStop214" />
      </linearGradient>
      <path
         i:knockout="Off"
         style="opacity:0.5;fill:url(#XMLID_7_);stroke:none;"
         d="M165.706,177.295l-21.148,47.067l-18.097-9.636l-9.436-11.225l-6.195-8.507l-3.763-9.425     l-0.663-7.587l-1.328-7.355l53.771-6.897L165.706,177.295z"
         id="path215" />
      <path
         i:knockout="Off"
         style="opacity:0.5;fill:#FFFFFF;stroke:none;"
         d="M162.887,173.13l-32.195,44.651l-4.23-3.055l-9.436-11.225l-6.195-8.507l-3.763-9.425     l-0.663-7.587l1.492,7.133l52.406-17.155L162.887,173.13z"
         id="path216" />
      <path
         i:knockout="Off"
         style="opacity:0.5;fill:#FFFFFF;stroke:none;"
         d="M181.606,154.802l32.194-44.652l4.231,3.055l9.435,11.225l6.197,8.507l3.762,9.424     l0.663,7.588l-1.492-7.133l-52.405,17.154L181.606,154.802z"
         id="path217" />
      <path
         i:knockout="Off"
         style="fill:#DDDDE8;stroke:none;"
         d="M171.342,95.431c-0.216,0-0.431,0.006-0.646,0.007     c38.057,0.332,68.799,29.869,68.799,66.263c0,36.601-31.092,66.272-69.444,66.272c-38.127,0-69.071-29.323-69.435-65.627     c-0.002,0.216-0.009,0.431-0.009,0.646c0,37.315,31.669,67.564,70.736,67.564s70.736-30.249,70.736-67.564     C242.078,125.68,210.408,95.431,171.342,95.431z"
         id="path218" />
      <path
         i:knockout="Off"
         style="fill:#FFFFFF;stroke:none;"
         d="M107.563,167.501c0-38.558,32.809-69.976,73.851-71.386     c-3.29-0.448-6.652-0.684-10.071-0.684c-39.066,0-70.736,30.25-70.736,67.563c0,22.296,11.31,42.067,28.746,54.374     C115.872,204.492,107.563,186.902,107.563,167.501z"
         id="path219" />
      <linearGradient
         id="XMLID_8_"
         gradientUnits="userSpaceOnUse"
         x1="178.2188"
         y1="169.8711"
         x2="163.8839"
         y2="155.5363">
        <stop
           offset="0"
           style="stop-color:#ECEAF4"
           id="stop221" />
        <stop
           offset="1"
           style="stop-color:#FFFFFF"
           id="stop222" />
        <a:midPointStop
           offset="0"
           style="stop-color:#ECEAF4"
           id="midPointStop223" />
        <a:midPointStop
           offset="0.5"
           style="stop-color:#ECEAF4"
           id="midPointStop224" />
        <a:midPointStop
           offset="1"
           style="stop-color:#FFFFFF"
           id="midPointStop225" />
      </linearGradient>
      <path
         i:knockout="Off"
         style="fill:url(#XMLID_8_);stroke:none;"
         d="M171.342,145.017c-10.395,0-18.821,8.049-18.821,17.978     c0,9.928,8.427,17.979,18.821,17.979s18.821-8.051,18.821-17.979C190.163,153.065,181.736,145.017,171.342,145.017z      M171.342,170.537c-4.624,0-8.389-3.385-8.389-7.543s3.765-7.543,8.389-7.543c4.626,0,8.388,3.385,8.388,7.543     S175.968,170.537,171.342,170.537z"
         id="path226" />
    </g>
    <path
       i:knockout="Off"
       style="opacity:0.36;fill:#999999;stroke:none;"
       d="M112.419,99.131c0,0,0,63.26,0,75.719c-5.72-2.109-12.41-3.289-19.344-3.289    c-20.386,0-36.355,9.634-36.355,21.934c0,12.299,15.969,21.934,36.355,21.934c20.387,0,36.356-9.635,36.356-21.934    c0-1.309-0.237-2.612-0.602-3.9c0-1,0-52.777,0-65.694c2.96,2.166,6.319,4.55,10.891,5.27c7.653,1.203,14.32-1.262,20.203-3.436    l2.472-0.902l-3.006-9.129c-5.24,1.587-9.109-1.526-14.987-6.74c-4.386-3.89-9.27-8.167-15.572-9.423c0-0.057,0-0.388,0-0.388    s-2.135,0-3.515,0c-0.231-0.001-0.461-0.007-0.694,0c-0.13,0-2.088,0-2.088,0l-5.308-0.02H112.419z"
       id="path227" />
    <path
       i:knockout="Off"
       style="stroke:none;"
       d="M109.226,96.938c0,0,0,67.856,0,76.584c-5.983-2.659-13.404-4.154-21.15-4.154    c-19.373,0-34.548,8.841-34.548,20.126s15.175,20.126,34.548,20.126s34.548-8.841,34.548-20.126c0-1.237-0.229-2.472-0.601-3.687    c0-0.662,0-61.093,0-69.386c0.86,0.562,1.72,1.175,2.6,1.82c2.859,2.095,6.1,4.47,10.377,5.142    c7.189,1.13,13.346-1.145,19.299-3.346l2.491-0.91l-1.877-5.697c-6.474,1.961-11.218-2.246-16.711-7.117    c-4.534-4.021-9.625-8.473-16.18-9.214c0-0.013,0-0.142,0-0.142s-0.89,0-1.737,0c-0.221-0.002-0.44-0.007-0.665,0    c-0.191,0-2.088,0-2.088,0l-5.308-0.02H109.226z"
       id="path228" />
    <linearGradient
       id="XMLID_9_"
       gradientUnits="userSpaceOnUse"
       x1="56.5273"
       y1="153.2793"
       x2="155.7832"
       y2="153.2793">
      <stop
         offset="0"
         style="stop-color:#0066CC"
         id="stop230" />
      <stop
         offset="0.1414"
         style="stop-color:#0D73D9"
         id="stop231" />
      <stop
         offset="0.4377"
         style="stop-color:#2288EE"
         id="stop232" />
      <stop
         offset="0.7273"
         style="stop-color:#2F95FB"
         id="stop233" />
      <stop
         offset="1"
         style="stop-color:#3399FF"
         id="stop234" />
      <a:midPointStop
         offset="0"
         style="stop-color:#0066CC"
         id="midPointStop235" />
      <a:midPointStop
         offset="0.5"
         style="stop-color:#0066CC"
         id="midPointStop236" />
      <a:midPointStop
         offset="0.1414"
         style="stop-color:#0D73D9"
         id="midPointStop237" />
      <a:midPointStop
         offset="0.5"
         style="stop-color:#0D73D9"
         id="midPointStop238" />
      <a:midPointStop
         offset="0.4377"
         style="stop-color:#2288EE"
         id="midPointStop239" />
      <a:midPointStop
         offset="0.5"
         style="stop-color:#2288EE"
         id="midPointStop240" />
      <a:midPointStop
         offset="0.7273"
         style="stop-color:#2F95FB"
         id="midPointStop241" />
      <a:midPointStop
         offset="0.5"
         style="stop-color:#2F95FB"
         id="midPointStop242" />
      <a:midPointStop
         offset="1"
         style="stop-color:#3399FF"
         id="midPointStop243" />
    </linearGradient>
    <path
       style="fill:url(#XMLID_9_);stroke:none;"
       d="M119.621,99.958l-0.599,0.218v-0.218h-1.489v-0.02h-5.308v78.558c-5.785-3.742-14.448-6.128-24.15-6.128    c-17.423,0-31.548,7.668-31.548,17.126c0,9.459,14.125,17.126,31.548,17.126s31.548-7.667,31.548-17.126    c0-1.14-0.209-2.252-0.601-3.329v-74.5c5.983,1.666,9.87,7.721,16.443,8.754c7.378,1.16,13.865-1.82,20.317-4.118    C140.757,120.853,133.91,99.409,119.621,99.958z"
       id="path244" />
    <linearGradient
       id="XMLID_10_"
       gradientUnits="userSpaceOnUse"
       x1="68.5171"
       y1="180.4834"
       x2="76.2674"
       y2="188.2337">
      <stop
         offset="0"
         style="stop-color:#F9F9F9"
         id="stop246" />
      <stop
         offset="1"
         style="stop-color:#3399FF"
         id="stop247" />
      <a:midPointStop
         offset="0"
         style="stop-color:#F9F9F9"
         id="midPointStop248" />
      <a:midPointStop
         offset="0.5"
         style="stop-color:#F9F9F9"
         id="midPointStop249" />
      <a:midPointStop
         offset="1"
         style="stop-color:#3399FF"
         id="midPointStop250" />
    </linearGradient>
    <path
       style="opacity:0.5;fill:url(#XMLID_10_);stroke:none;"
       d="M84.646,173.755c-15.228,1.105-26.917,7.57-26.917,15.382c0,3.064,1.804,5.918,4.908,8.325    C63.623,187.853,72.01,179.357,84.646,173.755z"
       id="path251" />
    <linearGradient
       id="XMLID_11_"
       gradientUnits="userSpaceOnUse"
       x1="108.6245"
       y1="205.376"
       x2="96.3745"
       y2="193.126">
      <stop
         offset="0"
         style="stop-color:#FFFFFF"
         id="stop253" />
      <stop
         offset="1"
         style="stop-color:#3399FF"
         id="stop254" />
      <a:midPointStop
         offset="0"
         style="stop-color:#FFFFFF"
         id="midPointStop255" />
      <a:midPointStop
         offset="0.5"
         style="stop-color:#FFFFFF"
         id="midPointStop256" />
      <a:midPointStop
         offset="1"
         style="stop-color:#3399FF"
         id="midPointStop257" />
    </linearGradient>
    <path
       style="opacity:0.5;fill:url(#XMLID_11_);stroke:none;"
       d="M111.156,183.638c0.623,1.152,0.955,2.359,0.955,3.604c0,8.048-13.855,14.572-30.947,14.572    c-0.237,0-0.472-0.006-0.706-0.01c3.461,0.963,7.439,1.512,11.673,1.512c13.357,0,24.187-5.448,24.187-12.169    C116.317,188.313,114.387,185.706,111.156,183.638z"
       id="path258" />
  </g>
</svg>
