<?xml version="1.0" encoding="UTF-8" standalone="no"?>
<!DOCTYPE svg PUBLIC "-//W3C//DTD SVG 1.0//EN"
"http://www.w3.org/TR/2001/REC-SVG-20010904/DTD/svg10.dtd">
<!-- Created with Inkscape (http://www.inkscape.org/) -->
<svg
   xmlns="http://www.w3.org/2000/svg"
   xmlns:xlink="http://www.w3.org/1999/xlink"
   version="1.0"
   x="0.0000000"
   y="0.0000000"
   width="60.000000"
   height="60.000000"
   viewBox="0 0 256 256"
   id="svg153"
   xml:space="preserve">
  <defs
   id="defs197">
    <linearGradient
   x1="131.28030"
   y1="242.20210"
   x2="131.28030"
   y2="225.98550"
   id="XMLID_1_"
   gradientUnits="userSpaceOnUse">
      <stop
   style="stop-color:#cccccc;stop-opacity:1.0000000;"
   offset="0.0000000"
   id="stop157" />


      <stop
   style="stop-color:#000000;stop-opacity:1.0000000;"
   offset="1.0000000"
   id="stop158" />


      <midPointStop
   offset="0"
   style="stop-color:#CCCCCC"
   id="midPointStop159" />


      <midPointStop
   offset="0.5"
   style="stop-color:#CCCCCC"
   id="midPointStop160" />


      <midPointStop
   offset="1"
   style="stop-color:#000000"
   id="midPointStop161" />


    </linearGradient>


    
    
    <linearGradient
   x1="101.20120"
   y1="49.471699"
   x2="130.59480"
   y2="153.53371"
   id="XMLID_2_"
   gradientUnits="userSpaceOnUse">
      <stop
   style="stop-color:#d4d4d4;stop-opacity:1.0000000;"
   offset="0.0000000"
   id="stop165" />


      <stop
   style="stop-color:#f0f0f0;stop-opacity:1.0000000;"
   offset="1.0000000"
   id="stop166" />


      <midPointStop
   offset="0"
   style="stop-color:#D4D4D4"
   id="midPointStop167" />


      <midPointStop
   offset="0.5"
   style="stop-color:#D4D4D4"
   id="midPointStop168" />


      <midPointStop
   offset="1"
   style="stop-color:#F0F0F0"
   id="midPointStop169" />


    </linearGradient>


    
    
    
    
    <radialGradient
   cx="122.98630"
   cy="61.282700"
   r="7.4600000"
   fx="122.98630"
   fy="61.282700"
   id="XMLID_3_"
   gradientUnits="userSpaceOnUse"
   gradientTransform="matrix(0.896400,3.460000e-2,-0.310700,1.103600,32.38810,-10.53110)">
      <stop
   style="stop-color:#c2c2c2;stop-opacity:1.0000000;"
   offset="0.85949999"
   id="stop175" />


      <stop
   style="stop-color:#000000;stop-opacity:1.0000000;"
   offset="1.0000000"
   id="stop176" />


      <midPointStop
   offset="0.8595"
   style="stop-color:#C2C2C2"
   id="midPointStop177" />


      <midPointStop
   offset="0.5"
   style="stop-color:#C2C2C2"
   id="midPointStop178" />


      <midPointStop
   offset="1"
   style="stop-color:#000000"
   id="midPointStop179" />


    </radialGradient>


    
    <radialGradient
   cx="183.27730"
   cy="65.596703"
   r="8.1346998"
   fx="183.27730"
   fy="65.596703"
   id="XMLID_4_"
   gradientUnits="userSpaceOnUse"
   gradientTransform="matrix(0.896400,3.460000e-2,-0.310700,1.103600,32.38810,-10.53110)">
      <stop
   style="stop-color:#c2c2c2;stop-opacity:1.0000000;"
   offset="0.85949999"
   id="stop182" />


      <stop
   style="stop-color:#000000;stop-opacity:1.0000000;"
   offset="1.0000000"
   id="stop183" />


      <midPointStop
   offset="0.8595"
   style="stop-color:#C2C2C2"
   id="midPointStop184" />


      <midPointStop
   offset="0.5"
   style="stop-color:#C2C2C2"
   id="midPointStop185" />


      <midPointStop
   offset="1"
   style="stop-color:#000000"
   id="midPointStop186" />


    </radialGradient>


    
    
    
    
  
  
  
  
  
  
  
  
  
  
  
  
  
</defs>


  
  
  
  
<path
   d="M 21.450000,228.51000 C 19.873000,237.27000 67.768000,244.69800 128.42700,245.10200 C 189.08500,245.50400 239.53400,238.72700 241.11200,229.96800 C 242.68800,221.20900 194.79600,213.78100 134.13700,213.37900 C 73.478000,212.97600 23.026000,219.75100 21.450000,228.51000 z "
   style="opacity:0.35999998;fill:url(#XMLID_1_);stroke:none"
   id="path162" />
<path
   d="M 222.37800,44.725000 L 106.81500,33.279000 L 107.63900,33.393000 C 95.155000,31.170000 76.209000,43.443000 73.606000,51.316000 L 73.821000,50.769000 L 10.899000,188.71500 L 10.807000,188.99300 C 7.9600000,197.60600 14.806000,206.24400 26.064000,208.24800 L 160.83400,232.24300 C 172.09200,234.24700 183.56800,228.87100 186.41400,220.25900 L 238.04200,64.054000 C 240.88900,55.441000 234.04400,46.803000 222.78600,44.798000 L 222.37800,44.725000 z "
   style="stroke:none"
   id="path163" />
<path
   d="M 17.192000,189.30200 C 15.481000,194.48000 19.580000,199.65000 26.346000,200.85600 L 161.11500,224.85000 C 167.88200,226.05400 174.75300,222.83600 176.46400,217.65900 L 228.09100,61.456000 C 229.80200,56.279000 225.70300,51.106000 218.93800,49.901000 L 103.78900,38.497000 C 97.023000,37.292000 81.702000,46.450000 79.992000,51.626000 L 17.192000,189.30200 z "
   style="fill:url(#XMLID_2_);stroke:none"
   id="path170" />
<path
   d="M 19.313000,192.58400 L 82.112000,54.909000 C 83.823000,49.732000 99.145000,40.575000 105.91000,41.780000 L 223.78800,51.690000 C 222.40600,50.857000 220.77300,50.229000 218.93700,49.902000 L 103.78900,38.497000 C 97.023000,37.292000 81.702000,46.450000 79.992000,51.626000 L 17.192000,189.30200 C 16.217000,192.25300 17.135000,195.20300 19.356000,197.41800 C 18.818000,195.89200 18.765000,194.24000 19.313000,192.58400 z "
   style="fill:none;stroke:none"
   id="path171" />
<g
   style="stroke:#000000"
   id="g172" />
<path
   d="M 170.90900,211.82900 C 169.19800,217.00600 162.32700,220.22500 155.56000,219.02000 L 64.944000,207.72600 L 161.11400,224.84900 C 167.88100,226.05300 174.75200,222.83500 176.46300,217.65800 L 223.34200,75.819000 L 170.90900,211.82900 z "
   style="fill:#c2c2c2;stroke:none"
   id="path173" />
<path
   d="M 116.15800,59.226000 C 114.89900,63.353000 116.82100,66.805000 120.45200,66.934000 C 124.08200,67.064000 128.04600,63.821000 129.30400,59.693000 C 130.56300,55.565000 128.63800,52.114000 125.01000,51.985000 C 121.37800,51.855000 117.41600,55.097000 116.15800,59.226000 z "
   style="fill:url(#XMLID_3_);stroke:none"
   id="path180" />
<path
   d="M 168.19100,65.880000 C 166.81800,70.380000 168.91400,74.144000 172.87300,74.285000 C 176.83100,74.427000 181.15300,70.890000 182.52500,66.389000 C 183.89700,61.888000 181.79900,58.125000 177.84200,57.984000 C 173.88400,57.843000 169.56300,61.378000 168.19100,65.880000 z "
   style="fill:url(#XMLID_4_);stroke:none"
   id="path187" />
<path
   d="M 118.66300,51.000000 C 118.66300,39.125000 126.04000,29.500000 135.14100,29.500000 C 138.89500,29.500000 141.73000,36.742000 144.50000,39.500000 C 141.89000,32.121000 139.89000,21.000000 131.47900,21.500000 C 122.94100,22.008000 116.00000,32.021000 116.00000,45.000000 C 116.00000,52.096000 118.07500,58.452000 121.35000,62.761000 C 119.65300,59.381000 118.66300,55.342000 118.66300,51.000000 z "
   style="stroke:none"
   id="path188" />
<path
   d="M 170.66300,56.000000 C 170.66300,44.125000 178.04100,34.500000 187.14100,34.500000 C 190.89500,34.500000 193.73000,41.742000 196.50000,44.500000 C 193.89000,37.121000 191.89000,26.000000 183.47900,26.500000 C 174.94100,27.008000 168.00000,37.021000 168.00000,50.000000 C 168.00000,57.096000 170.07400,63.452000 173.35000,67.761000 C 171.65200,64.381000 170.66300,60.342000 170.66300,56.000000 z "
   style="stroke:none"
   id="path189" />
<g
   style="stroke:#000000"
   id="Layer_2">
    <path
   d="M 256.00000,256.00000 L 0.0000000,256.00000 L 0.0000000,0.0000000 L 256.00000,0.0000000 L 256.00000,256.00000 z "
   style="fill:none;stroke:none"
   id="path195" />


  </g>

<path
   d="M 29.155231,176.10510 L 39.828055,178.07814 L 34.601242,189.11286 L 23.928421,187.13980 L 29.155231,176.10510 M 60.276289,150.73820 L 76.788495,153.79077 C 80.043457,154.39254 82.438129,155.36469 83.972512,156.70722 C 85.523171,158.05283 86.521490,159.75713 86.967493,161.82008 C 87.413390,163.88310 87.358576,166.17708 86.803035,168.70201 C 86.247401,171.22697 85.329070,173.84175 84.048037,176.54631 C 82.040962,180.78352 80.040678,183.99244 78.047183,186.17313 C 76.078508,188.33879 73.941457,190.07135 71.636027,191.37078 C 69.339071,192.65217 67.175328,193.38951 65.144788,193.58281 C 62.365978,193.85346 59.986997,193.80586 58.007844,193.43998 L 41.495642,190.38740 L 60.276289,150.73820 M 67.137558,161.77212 L 56.876097,183.43584 L 59.599503,183.93931 C 61.922151,184.36870 63.706564,184.39464 64.952756,184.01711 C 66.207434,183.62157 67.445931,182.77202 68.668256,181.46842 C 69.899061,180.14685 71.266042,177.89935 72.769210,174.72596 C 74.759119,170.52486 75.499774,167.53408 74.991181,165.75361 C 74.482515,163.97320 72.788802,162.81687 69.910036,162.28466 L 67.137558,161.77212 M 88.387508,177.52504 C 91.453545,171.05209 95.476297,166.31493 100.45580,163.31355 C 105.43524,160.31225 110.84467,159.35133 116.68408,160.43081 C 122.67063,161.53757 126.44199,164.16631 127.99821,168.31700 C 129.56287,172.44975 128.83355,177.70751 125.81024,184.09030 C 123.61529,188.72417 121.10171,192.39708 118.26952,195.10905 C 115.46214,197.80599 112.32434,199.73591 108.85614,200.89883 C 105.41277,202.04672 101.69556,202.25177 97.704528,201.51395 C 93.648009,200.76403 90.624042,199.43044 88.632602,197.51313 C 86.657488,195.59886 85.574139,192.94740 85.382539,189.55876 C 85.190927,186.17014 86.192580,182.15889 88.387508,177.52504 M 99.476336,179.63382 C 97.580317,183.63662 96.888725,186.63647 97.401582,188.63337 C 97.930741,190.63333 99.356668,191.84799 101.67935,192.27738 C 104.06743,192.71885 106.32142,192.20410 108.44135,190.73310 C 110.56121,189.26212 112.67164,186.30887 114.77265,181.87333 C 116.54051,178.14102 117.14314,175.29141 116.58056,173.32448 C 116.04279,171.34260 114.60443,170.13542 112.26544,169.70300 C 110.02452,169.28877 107.81105,169.83062 105.62504,171.32857 C 103.43896,172.82659 101.38940,175.59499 99.476336,179.63382 M 153.93470,193.55465 L 162.13790,198.60086 C 160.05731,201.49100 157.83543,203.81576 155.47224,205.57514 C 153.10899,207.33452 150.63713,208.53454 148.05669,209.17524 C 145.49254,209.81894 142.59933,209.84295 139.37706,209.24726 C 135.46777,208.52455 132.56465,207.31134 130.66772,205.60761 C 128.79569,203.88886 127.70732,201.28552 127.40270,197.79754 C 127.09802,194.30959 128.11148,190.10443 130.44305,185.18207 C 133.55180,178.61897 137.51730,173.87123 142.33959,170.93885 C 147.18674,167.99151 152.50547,167.05306 158.29582,168.12346 C 162.82660,168.96110 165.90594,170.62849 167.53382,173.12565 C 169.17796,175.62590 169.63910,179.08396 168.91721,183.49986 L 157.96298,184.09264 C 158.19165,182.82112 158.25028,181.87110 158.13888,181.24257 C 157.96140,180.19009 157.54242,179.32828 156.88197,178.65708 C 156.22143,177.98595 155.33506,177.54755 154.22285,177.34190 C 151.70386,176.87624 149.24424,177.63732 146.84398,179.62515 C 145.04410,181.09650 143.30292,183.60818 141.62047,187.16018 C 139.53657,191.55965 138.71122,194.69164 139.14445,196.55617 C 139.58620,198.40271 140.90297,199.52854 143.09482,199.93373 C 145.22118,200.32684 147.13587,199.96507 148.83891,198.84841 C 150.55825,197.73478 152.25685,195.97019 153.93470,193.55465"
   style="fill:#263062;fill-opacity:1.0000000"
   id="text3165" />
</svg>
