<?xml version="1.0" encoding="UTF-8" standalone="no"?>
<!DOCTYPE svg PUBLIC "-//W3C//DTD SVG 20010904//EN"
"http://www.w3.org/TR/2001/REC-SVG-20010904/DTD/svg10.dtd">
<!-- Created with Sodipodi ("http://www.sodipodi.com/") -->
<svg
   id="svg199"
   sodipodi:version="0.32"
   width="72pt"
   height="72pt"
   sodipodi:docbase="/home/max/.icons/Offyce/scalable/filesystems"
   sodipodi:docname="gnome-fs-trash-full.svg"
   xmlns="http://www.w3.org/2000/svg"
   xmlns:sodipodi="http://sodipodi.sourceforge.net/DTD/sodipodi-0.dtd"
   xmlns:xlink="http://www.w3.org/1999/xlink"
   xmlns:inkscape="http://www.inkscape.org/namespaces/inkscape"
   inkscape:version="0.40"
   xmlns:rdf="http://www.w3.org/1999/02/22-rdf-syntax-ns#"
   xmlns:cc="http://web.resource.org/cc/"
   xmlns:dc="http://purl.org/dc/elements/1.1/">
  <metadata
     id="metadata32">
    <rdf:RDF
       id="RDF33">
      <cc:Work
         rdf:about=""
         id="Work34">
        <dc:format
           id="format35">image/svg+xml</dc:format>
        <dc:type
           id="type37"
           rdf:resource="http://purl.org/dc/dcmitype/StillImage" />
      </cc:Work>
    </rdf:RDF>
  </metadata>
  <defs
     id="defs201">
    <linearGradient
       id="linearGradient208">
      <stop
         style="stop-color:#fffffa;stop-opacity:1.0000000;"
         offset="0.0000000"
         id="stop209" />
      <stop
         style="stop-color:#1f278e;stop-opacity:1.0000000;"
         offset="1.0000000"
         id="stop210" />
    </linearGradient>
    <linearGradient
       xlink:href="#linearGradient208"
       id="linearGradient211"
       x1="0.02702686"
       y1="-0.00000001"
       x2="0.91891873"
       y2="1.03125000"
       gradientUnits="objectBoundingBox"
       spreadMethod="pad" />
    <linearGradient
       xlink:href="#linearGradient208"
       id="linearGradient224"
       x1="0.310077"
       y1="0.148437"
       x2="0.348837"
       y2="0.179687"
       gradientUnits="objectBoundingBox"
       spreadMethod="pad" />
    <radialGradient
       xlink:href="#linearGradient208"
       id="radialGradient620"
       cx="0.04255325"
       cy="0.07031272"
       fx="0.04255325"
       fy="0.07031272"
       r="1.30279243"
       gradientUnits="objectBoundingBox"
       spreadMethod="pad" />
    <linearGradient
       inkscape:collect="always"
       xlink:href="#linearGradient3596"
       id="linearGradient8007"
       gradientUnits="userSpaceOnUse"
       gradientTransform="matrix(1.082011,0.000000,0.247540,0.828987,12.81851,8.240630e-14)"
       x1="157.03386"
       y1="709.89008"
       x2="124.70767"
       y2="566.34509" />
    <linearGradient
       inkscape:collect="always"
       xlink:href="#linearGradient4224"
       id="linearGradient8006"
       gradientUnits="userSpaceOnUse"
       gradientTransform="matrix(0.952141,0.000000,6.719266e-2,0.988349,-21.97983,1.108280e-13)"
       x1="408.82480"
       y1="439.03958"
       x2="400.40845"
       y2="527.74536" />
    <linearGradient
       inkscape:collect="always"
       xlink:href="#linearGradient4224"
       id="linearGradient8005"
       gradientUnits="userSpaceOnUse"
       gradientTransform="matrix(0.952141,0.000000,-2.877022e-2,0.942448,40.17118,27.33455)"
       x1="408.82480"
       y1="439.03958"
       x2="400.40845"
       y2="527.74536" />
    <linearGradient
       inkscape:collect="always"
       xlink:href="#linearGradient4224"
       id="linearGradient8004"
       gradientUnits="userSpaceOnUse"
       gradientTransform="matrix(0.952141,0.000000,-0.172361,0.876146,125.0726,64.21636)"
       x1="408.82480"
       y1="439.03958"
       x2="400.40845"
       y2="527.74536" />
    <linearGradient
       inkscape:collect="always"
       xlink:href="#linearGradient3593"
       id="linearGradient8003"
       gradientUnits="userSpaceOnUse"
       gradientTransform="matrix(1.042036,0.000000,-0.206558,0.876004,12.81851,8.240630e-14)"
       x1="534.45001"
       y1="643.11554"
       x2="504.91022"
       y2="533.86469" />
    <linearGradient
       inkscape:collect="always"
       xlink:href="#linearGradient3596"
       id="linearGradient7369"
       gradientUnits="userSpaceOnUse"
       gradientTransform="matrix(1.082011,0.000000,0.247540,0.828987,12.81851,2.842171e-14)"
       x1="157.03386"
       y1="709.89008"
       x2="124.70767"
       y2="566.34509" />
    <linearGradient
       inkscape:collect="always"
       xlink:href="#linearGradient4224"
       id="linearGradient7368"
       gradientUnits="userSpaceOnUse"
       gradientTransform="matrix(0.952141,0.000000,6.719266e-2,0.988349,-21.97983,5.684342e-14)"
       x1="408.82480"
       y1="439.03958"
       x2="400.40845"
       y2="527.74536" />
    <linearGradient
       inkscape:collect="always"
       xlink:href="#linearGradient4224"
       id="linearGradient7367"
       gradientUnits="userSpaceOnUse"
       gradientTransform="matrix(0.952141,0.000000,-2.877022e-2,0.942448,40.17118,27.33455)"
       x1="408.82480"
       y1="439.03958"
       x2="400.40845"
       y2="527.74536" />
    <linearGradient
       inkscape:collect="always"
       xlink:href="#linearGradient4224"
       id="linearGradient7366"
       gradientUnits="userSpaceOnUse"
       gradientTransform="matrix(0.952141,0.000000,-0.172361,0.876146,125.0726,64.21636)"
       x1="408.82480"
       y1="439.03958"
       x2="400.40845"
       y2="527.74536" />
    <linearGradient
       inkscape:collect="always"
       xlink:href="#linearGradient3593"
       id="linearGradient7365"
       gradientUnits="userSpaceOnUse"
       gradientTransform="matrix(1.042036,0.000000,-0.206558,0.876004,12.81851,2.842171e-14)"
       x1="534.45001"
       y1="643.11554"
       x2="504.91022"
       y2="533.86469" />
    <linearGradient
       inkscape:collect="always"
       xlink:href="#linearGradient3596"
       id="linearGradient4241"
       gradientUnits="userSpaceOnUse"
       gradientTransform="matrix(1.082011,0.000000,0.247540,0.324975,361.9677,381.5503)"
       x1="157.03386"
       y1="709.89008"
       x2="124.70767"
       y2="566.34509" />
    <linearGradient
       inkscape:collect="always"
       xlink:href="#linearGradient4863"
       id="linearGradient4240"
       gradientUnits="userSpaceOnUse"
       gradientTransform="matrix(0.952141,0.000000,6.719266e-2,0.988349,327.1693,9.161311)"
       x1="408.82480"
       y1="439.03958"
       x2="400.40845"
       y2="527.74536" />
    <linearGradient
       inkscape:collect="always"
       xlink:href="#linearGradient5487"
       id="linearGradient4239"
       gradientUnits="userSpaceOnUse"
       gradientTransform="matrix(0.952141,0.000000,-2.877022e-2,0.942448,389.3203,36.49591)"
       x1="408.82480"
       y1="439.03958"
       x2="400.40845"
       y2="527.74536" />
    <linearGradient
       inkscape:collect="always"
       xlink:href="#linearGradient5487"
       id="linearGradient4238"
       gradientUnits="userSpaceOnUse"
       gradientTransform="matrix(0.952141,0.000000,-0.172361,0.876146,474.2217,73.37771)"
       x1="408.82480"
       y1="439.03958"
       x2="400.40845"
       y2="527.74536" />
    <linearGradient
       inkscape:collect="always"
       xlink:href="#linearGradient3593"
       id="linearGradient4237"
       gradientUnits="userSpaceOnUse"
       gradientTransform="matrix(1.042036,0.000000,-0.206558,0.876004,361.9677,9.161311)"
       x1="534.45001"
       y1="643.11554"
       x2="504.91022"
       y2="533.86469" />
    <linearGradient
       id="linearGradient3593">
      <stop
         style="stop-color:#070b28;stop-opacity:0.89215684;"
         offset="0.0000000"
         id="stop3594" />
      <stop
         style="stop-color:#232f82;stop-opacity:0.58823532;"
         offset="1.0000000"
         id="stop3595" />
    </linearGradient>
    <linearGradient
       id="linearGradient3596">
      <stop
         style="stop-color:#3f50d4;stop-opacity:1.0000000;"
         offset="0.0000000"
         id="stop3597" />
      <stop
         style="stop-color:#7182e9;stop-opacity:0.74509805;"
         offset="1.0000000"
         id="stop3598" />
    </linearGradient>
    <linearGradient
       id="linearGradient4224">
      <stop
         style="stop-color:#f9f1ff;stop-opacity:1.0000000;"
         offset="0.0000000"
         id="stop4225" />
      <stop
         style="stop-color:#37366f;stop-opacity:1.0000000;"
         offset="1.0000000"
         id="stop4226" />
    </linearGradient>
    <linearGradient
       id="linearGradient4863">
      <stop
         style="stop-color:#ffffff;stop-opacity:1.0000000;"
         offset="0.0000000"
         id="stop4864" />
      <stop
         style="stop-color:#dbdbdb;stop-opacity:1.0000000;"
         offset="1.0000000"
         id="stop4865" />
    </linearGradient>
    <linearGradient
       id="linearGradient5487">
      <stop
         style="stop-color:#f9f1ff;stop-opacity:1.0000000;"
         offset="0.0000000"
         id="stop5488" />
      <stop
         style="stop-color:#8b8aa7;stop-opacity:1.0000000;"
         offset="1.0000000"
         id="stop5489" />
    </linearGradient>
    <linearGradient
       id="linearGradient1731">
      <stop
         style="stop-color:#ffffff;stop-opacity:0.0000000;"
         offset="0.0000000"
         id="stop1732" />
      <stop
         style="stop-color:#cad2ff;stop-opacity:0.72277230;"
         offset="1.0000000"
         id="stop1733" />
    </linearGradient>
    <linearGradient
       id="linearGradient1736">
      <stop
         style="stop-color:#ffffff;stop-opacity:0.0000000;"
         offset="0.0000000"
         id="stop1737" />
      <stop
         style="stop-color:#cad2ff;stop-opacity:0.72277230;"
         offset="1.0000000"
         id="stop1738" />
    </linearGradient>
    <linearGradient
       inkscape:collect="always"
       xlink:href="#linearGradient3593"
       id="linearGradient6937"
       gradientUnits="userSpaceOnUse"
       gradientTransform="matrix(0.164224,-8.055551e-2,3.516693e-2,0.154026,-115.5831,-18.10236)"
       x1="534.45001"
       y1="643.11554"
       x2="504.91022"
       y2="533.86469" />
    <linearGradient
       inkscape:collect="always"
       xlink:href="#linearGradient4224"
       id="linearGradient6938"
       gradientUnits="userSpaceOnUse"
       gradientTransform="matrix(0.150056,-7.360610e-2,4.056732e-2,0.151404,-92.92768,-16.65982)"
       x1="408.82480"
       y1="439.03958"
       x2="400.40845"
       y2="527.74536" />
    <linearGradient
       inkscape:collect="always"
       xlink:href="#linearGradient4224"
       id="linearGradient6939"
       gradientUnits="userSpaceOnUse"
       gradientTransform="matrix(0.150056,-7.360610e-2,6.832261e-2,0.150753,-109.1592,-15.90898)"
       x1="408.82480"
       y1="439.03958"
       x2="400.40845"
       y2="527.74536" />
    <linearGradient
       inkscape:collect="always"
       xlink:href="#linearGradient4224"
       id="linearGradient6940"
       gradientUnits="userSpaceOnUse"
       gradientTransform="matrix(0.150056,-7.360610e-2,8.699469e-2,0.150568,-121.0673,-15.41224)"
       x1="408.82480"
       y1="439.03958"
       x2="400.40845"
       y2="527.74536" />
    <linearGradient
       inkscape:collect="always"
       xlink:href="#linearGradient3596"
       id="linearGradient6941"
       gradientUnits="userSpaceOnUse"
       gradientTransform="matrix(0.170524,-8.364581e-2,0.103098,0.111511,-115.5831,-18.10236)"
       x1="157.03386"
       y1="709.89008"
       x2="124.70767"
       y2="566.34509" />
    <linearGradient
       inkscape:collect="always"
       xlink:href="#linearGradient1731"
       id="linearGradient6942"
       gradientUnits="userSpaceOnUse"
       gradientTransform="matrix(0.464136,-0.227669,0.851880,1.736677,-58.66787,20.58196)"
       x1="1.6647604"
       y1="20.433912"
       x2="1.3802001"
       y2="15.332913" />
    <radialGradient
       xlink:href="#linearGradient208"
       id="radialGradient7628"
       cx="0.04255325"
       cy="0.07031272"
       fx="0.04255325"
       fy="0.07031272"
       r="1.30279243"
       gradientUnits="objectBoundingBox"
       spreadMethod="pad" />
    <linearGradient
       xlink:href="#linearGradient208"
       id="linearGradient7627"
       x1="0.310077"
       y1="0.148437"
       x2="0.348837"
       y2="0.179687"
       gradientUnits="objectBoundingBox"
       spreadMethod="pad" />
    <linearGradient
       xlink:href="#linearGradient208"
       id="linearGradient7626" />
    <linearGradient
       id="linearGradient7623">
      <stop
         style="stop-color:#fffffa;stop-opacity:1.0000000;"
         offset="0.0000000"
         id="stop7624" />
      <stop
         style="stop-color:#1f278e;stop-opacity:1.0000000;"
         offset="1.0000000"
         id="stop7625" />
    </linearGradient>
    <radialGradient
       inkscape:collect="always"
       xlink:href="#linearGradient208"
       id="radialGradient7644"
       gradientUnits="userSpaceOnUse"
       spreadMethod="pad"
       cx="10.859391"
       cy="34.042125"
       fx="10.859391"
       fy="34.042125"
       r="54.425137"
       gradientTransform="scale(0.851602,1.174258)" />
  </defs>
  <sodipodi:namedview
     id="base"
     inkscape:zoom="5.0416667"
     inkscape:cx="36.000000"
     inkscape:cy="46.919042"
     inkscape:window-width="1024"
     inkscape:window-height="717"
     inkscape:window-x="0"
     inkscape:window-y="26"
     inkscape:current-layer="svg199" />
  <path
     style="font-size:12;fill:#000000;fill-opacity:0.43;fill-rule:evenodd;stroke-width:1pt;"
     d="M 45.2991 88.2322 C 65.1865 90.6629 77.7818 73.8692 86.1787 63.4835 C 98.3321 42.0493 43.5313 39.3976 35.7973 43.1542 C 28.0633 46.9107 13.9212 68.7868 15.6889 72.1014 C 17.4567 75.4159 42.8684 88.0113 45.2991 88.2322 z "
     id="path637"
     sodipodi:nodetypes="ccccc" />
  <path
     style="font-size:12;fill-rule:evenodd;stroke-width:1pt;"
     d="M 3.75651 36.525 C 3.75651 36.525 8.61787 67.6819 16.7938 76.0788 C 24.9697 84.4757 43.7522 88.6741 43.7522 88.6741 L 43.3103 52.6559 L 3.75651 36.525 z "
     id="path617"
     sodipodi:nodetypes="ccccc" />
  <path
     style="font-size:12;fill-rule:evenodd;stroke-width:1pt;"
     d="M 43.5313 54.8656 L 43.7523 88.8951 C 44.6362 88.6742 60.5461 89.558 68.722 71.8803 C 76.8979 54.2027 77.3399 42.7122 77.5608 39.6186 L 43.5313 54.8656 z "
     id="path616"
     sodipodi:nodetypes="ccccc" />
  <path
     style="font-size:12;fill:#1f288e;fill-rule:evenodd;stroke-width:1pt;fill-opacity:1.0000000;"
     d="M 42.4264 55.3075 L 43.3104 85.8015 C 46.625 86.2435 55.9057 83.5917 64.3026 72.3222 C 66.2913 70.1126 72.9204 54.2027 72.6994 41.1654 L 42.4264 55.3075 z "
     id="path633"
     sodipodi:nodetypes="ccccc" />
  <path
     style="font-size:12;fill:url(#radialGradient620);fill-rule:evenodd;stroke-width:1pt;"
     d="M 7.73399 36.525 C 7.73399 36.525 10.8276 65.0303 19.0035 73.4271 C 27.1794 81.8241 40.8796 84.0337 43.3103 85.5805 L 42.8684 52.6559 L 7.73399 36.525 z "
     id="path619"
     sodipodi:nodetypes="ccccc" />
  <path
     style="font-size:12;fill-rule:evenodd;stroke-width:1pt;"
     d="M 39.3328 55.0865 L -4.76837e-06 34.7573 L 1.49012e-07 23.7087 C 0.0736562 22.0146 0.147312 20.0995 2.87262 18.6264 L 28.9472 7.13589 C 31.3042 5.66275 35.208 5.29447 37.3441 7.13589 L 76.456 27.0233 C 81.3542 29.0489 79.8442 32.0136 79.7982 34.4258 C 79.7521 36.8381 80.2861 38.6979 78.8867 40.0606 L 46.6249 55.3075 C 45.0044 56.7807 41.8371 57.1489 39.3328 55.0865 z "
     id="path615"
     sodipodi:nodetypes="cccccccsccc" />
  <path
     style="font-size:12.000000;fill:#9ea09f;fill-rule:evenodd;stroke-width:1.0000000pt"
     d="M 37.921355,39.728079 L 36.153651,13.211479 L 69.962055,30.447180 L 44.550455,42.821579 L 37.921355,39.728079 z "
     id="path6900"
     sodipodi:nodetypes="ccccc" />
  <path
     style="font-size:12.000000;fill:#e8e8e8;fill-rule:evenodd;stroke-width:1.0000000pt"
     d="M 33.520970,9.4117545 C 32.324040,9.4761995 31.145920,9.8813941 30.114720,10.443004 L 18.177220,15.818005 L 5.5834701,21.380505 C 3.9630081,22.577405 2.9964385,24.433605 3.3647181,25.630505 L 43.583470,46.630501 L 49.395970,44.099251 L 59.145970,38.911751 L 71.364721,33.255505 L 76.052221,30.724255 L 36.958470,10.380504 C 35.927270,9.6163145 34.717890,9.3473095 33.520970,9.4117545 z M 36.083470,12.380505 L 36.114720,13.068005 L 69.427221,30.068005 L 44.020970,42.443001 L 37.833470,39.536751 L 37.833470,39.786751 L 8.4584701,24.536755 C 8.4584701,24.536755 31.222170,12.159505 36.083470,12.380505 z "
     id="path6899" />
  <path
     style="font-size:12.000000;fill:#79787a;fill-rule:evenodd;stroke-width:1.0000000pt"
     d="M 37.752441,39.982654 L 35.984641,12.582254 C 31.123341,12.361254 8.3632615,24.735654 8.3632615,24.735654 L 37.752441,39.982654 z "
     id="path611"
     sodipodi:nodetypes="cccc" />
  <g
     id="g6917"
     transform="matrix(0.985141,-0.392733,0.388086,0.908017,46.52703,-14.03293)">
    <path
       style="color:#000000;fill:url(#linearGradient6937);fill-opacity:1.0000000;fill-rule:nonzero;stroke:#000000;stroke-width:2.1379030;stroke-linecap:round;stroke-linejoin:round;stroke-miterlimit:0.0000000;stroke-dashoffset:0.0000000;stroke-opacity:1.0000000;marker:none;marker-start:none;marker-mid:none;marker-end:none;visibility:visible;display:block"
       d="M -30.159408,30.815656 C -20.642953,26.147619 -7.6116385,15.955713 -1.6100446,16.811547 C -6.0989017,23.028091 6.8512389,41.307580 4.2436362,42.449744 C -5.2728171,47.117780 -14.789272,51.785817 -24.305725,56.453853 C -26.256953,47.907787 -28.208180,39.361722 -30.159408,30.815656 z "
       id="rect1686"
       sodipodi:nodetypes="ccccc" />
    <path
       style="color:#000000;fill:url(#linearGradient6938);fill-opacity:1.0000000;fill-rule:nonzero;stroke:#000000;stroke-width:1.5881565;stroke-linecap:round;stroke-linejoin:round;stroke-miterlimit:0.0000000;stroke-dashoffset:0.0000000;stroke-opacity:1.0000000;marker:none;marker-start:none;marker-mid:none;marker-end:none;visibility:visible;display:block"
       d="M -30.819013,25.414539 C -19.558687,16.981261 -12.595816,22.572446 -4.1996309,13.188513 C -9.4036822,17.901389 -3.6508892,33.867306 -1.0064244,43.736935 C -9.1454309,47.729302 -17.284439,51.721670 -25.423445,55.714037 C -28.067912,45.844409 -35.020325,29.635553 -30.819013,25.414539 z "
       id="path4229"
       sodipodi:nodetypes="ccccc" />
    <path
       style="color:#000000;fill:url(#linearGradient6939);fill-opacity:1.0000000;fill-rule:nonzero;stroke:#000000;stroke-width:1.5881565;stroke-linecap:round;stroke-linejoin:round;stroke-miterlimit:0.0000000;stroke-dashoffset:0.0000000;stroke-opacity:1.0000000;marker:none;marker-start:none;marker-mid:none;marker-end:none;visibility:visible;display:block"
       d="M -35.297284,25.889600 C -24.508422,17.467385 -16.086253,23.024328 -8.5431953,13.660412 C -13.397247,18.365075 -4.6003638,34.259567 -0.14659891,44.086741 C -8.2856070,48.079109 -16.424614,52.071476 -24.563622,56.063844 C -29.017386,46.236670 -39.148594,30.102401 -35.297284,25.889600 z "
       id="path4228"
       sodipodi:nodetypes="ccccc" />
    <path
       style="color:#000000;fill:url(#linearGradient6940);fill-opacity:1.0000000;fill-rule:nonzero;stroke:#000000;stroke-width:1.5881565;stroke-linecap:round;stroke-linejoin:round;stroke-miterlimit:0.0000000;stroke-dashoffset:0.0000000;stroke-opacity:1.0000000;marker:none;marker-start:none;marker-mid:none;marker-end:none;visibility:visible;display:block"
       d="M -39.298482,26.308193 C -28.826792,17.889113 -19.422900,23.436353 -12.453773,14.078109 C -17.072364,18.780446 -6.2276147,34.654695 -0.55666672,44.469839 C -8.6956748,48.462206 -16.834681,52.454573 -24.973689,56.446941 C -35.607291,50.260240 -42.914333,30.518668 -39.298482,26.308193 z "
       id="path2314"
       sodipodi:nodetypes="ccccc" />
    <path
       style="color:#000000;fill:url(#linearGradient6941);fill-opacity:1.0000000;fill-rule:nonzero;stroke:#000000;stroke-width:2.1379030;stroke-linecap:round;stroke-linejoin:round;stroke-miterlimit:0.0000000;stroke-dashoffset:0.0000000;stroke-opacity:1.0000000;marker:none;marker-start:none;marker-mid:none;marker-end:none;visibility:visible;display:block"
       d="M -48.513601,36.300346 C -39.020520,35.584259 -27.969182,24.815526 -16.381943,20.539040 C -15.001769,25.632009 0.33250078,42.386330 4.0277359,42.614323 C -6.6828166,47.868092 -17.393368,53.121860 -28.103922,58.375629 C -31.558100,59.759034 -46.013151,42.462209 -48.513601,36.300346 z "
       id="rect1687"
       sodipodi:nodetypes="ccccc" />
    <path
       style="opacity:0.49999997;fill:url(#linearGradient6942);fill-opacity:1.0000000;fill-rule:evenodd;stroke:none;stroke-width:0.25000000pt;stroke-linecap:butt;stroke-linejoin:miter;stroke-opacity:1.0000000"
       d="M -46.933959,37.204361 C -42.760889,43.357288 -35.921663,52.591090 -30.615603,56.109407 C -30.272500,55.710123 -30.899496,56.479647 -30.556393,56.080363 C -33.285302,52.814430 -47.739702,40.561206 -39.863217,34.857090 C -40.842746,35.607053 -45.538159,36.596684 -46.933959,37.204361 z "
       id="path1730"
       sodipodi:nodetypes="ccccc" />
  </g>
  <path
     style="font-size:12;fill-opacity:0.9948;fill-rule:evenodd;stroke-width:1pt;"
     d="M 16.7938 77.4047 C 16.7201 74.753 16.6465 66.3562 16.5728 63.7045 C 20.9922 68.3449 32.7036 74.0901 38.4489 75.195 C 38.6699 77.773 38.2279 86.0962 38.4489 88.6742 C 32.7773 87.422 22.4653 82.6343 16.7938 77.4047 z "
     id="path634"
     transform="translate(0.220969,-3.535538)"
     sodipodi:nodetypes="ccccc" />
  <path
     style="font-size:12;fill:#7b80c2;fill-opacity:0.99479997;fill-rule:evenodd;stroke-width:1pt;"
     d="M 19.2245 77.4047 C 19.1508 74.753 19.0772 72.1014 19.0035 69.4497 C 23.4229 73.2062 30.052 76.2998 35.5763 78.0676 C 35.7973 80.6456 35.3553 83.0026 35.5763 85.5806 C 29.9047 84.3284 24.896 82.6343 19.2245 77.4047 z "
     id="path618"
     transform="translate(0.220969,-3.535538)"
     sodipodi:nodetypes="ccccc" />
  <path
     style="font-size:12;fill:#262e9f;fill-rule:evenodd;stroke-width:1pt;fill-opacity:1.0000000;"
     d="M 33.3666 76.2998 L 33.1456 81.6031 L 35.5763 82.0451 L 36.2392 74.3111 L 33.3666 76.2998 z "
     id="path636"
     sodipodi:nodetypes="ccccc" />
  <path
     style="font-size:12;fill:#b8bcf1;fill-rule:evenodd;stroke-width:1pt;fill-opacity:1.0000000;"
     d="M 19.4454 66.3561 L 35.7973 74.3111 C 35.429 75.5632 34.8397 76.1525 33.3666 76.0788 L 19.2245 69.0078 L 19.4454 66.3561 z "
     id="path635"
     sodipodi:nodetypes="ccccc" />
  <g
     inkscape:label="Layer 1"
     inkscape:groupmode="layer"
     id="layer1"
     transform="translate(-5.464876,21.15702)" />
  <path
     style="fill:#000000;fill-opacity:1.0000000;fill-rule:evenodd;stroke:none;stroke-width:0.25000000pt;stroke-linecap:butt;stroke-linejoin:miter;stroke-opacity:1.0000000;"
     d="M 15.619835,41.652893 L 38.677686,51.818182 L 42.396694,44.132231 L 9.6694215,27.024793 L 10.413223,36.198347 L 15.619835,41.652893 z "
     id="path6943" />
  <path
     style="font-size:12;fill:#838383;fill-rule:evenodd;stroke-width:1pt;"
     d="M 2.87262 25.2555 L 3.31456 32.1056 L 42.4264 51.993 L 76.235 36.746 L 76.014 30.1169 L 43.3103 46.0268 L 2.87262 25.2555 z "
     id="path614"
     sodipodi:nodetypes="ccccccc" />
  <path
     style="font-size:12;fill:#e8e8e8;fill-rule:evenodd;stroke-width:1pt;"
     d="M 5.3125000,21.437500 C 3.6920401,22.634400 2.7254700,24.490600 3.0937500,25.687500 L 43.312500,46.687500 L 49.125000,44.156250 L 58.875000,38.968750 L 71.093750,33.312500 L 75.781250,30.781250 L 68.156250,29.781250 L 69.468750,30.437500 L 67.625000,31.343750 L 67.906250,31.375000 L 61.250000,34.437500 L 44.062500,42.812500 L 37.562500,39.781250 L 37.562500,39.843750 L 7.6875000,23.843750 L 5.3125000,21.437500 z "
     id="path613"
     sodipodi:nodetypes="ccccccccccccccccc" />
</svg>
