<?xml version="1.0" encoding="UTF-8" standalone="no"?>
<!DOCTYPE svg PUBLIC "-//W3C//DTD SVG 1.0//EN"
"http://www.w3.org/TR/2001/REC-SVG-20010904/DTD/svg10.dtd">
<!-- Created with Inkscape (http://www.inkscape.org/) -->
<svg
   id="svg3261"
   sodipodi:version="0.32"
   inkscape:version="0.39cvs"
   xmlns="http://www.w3.org/2000/svg"
   xmlns:sodipodi="http://sodipodi.sourceforge.net/DTD/sodipodi-0.dtd"
   xmlns:inkscape="http://www.inkscape.org/namespaces/inkscape"
   xmlns:xlink="http://www.w3.org/1999/xlink"
   width="24.000000pt"
   height="24.000000pt"
   sodipodi:docbase="/home/andy/Desktop"
   sodipodi:docname="stock-spiral.svg">
  <defs
     id="defs3263">
    <linearGradient
       id="linearGradient3699">
      <stop
         style="stop-color:#5c74c6;stop-opacity:1.0000000;"
         offset="0.0000000"
         id="stop3700" />
      <stop
         style="stop-color:#fff;stop-opacity:1;"
         offset="1"
         id="stop3701" />
    </linearGradient>
    <linearGradient
       xlink:href="#linearGradient3699"
       id="linearGradient2222"
       x1="0.54482758"
       y1="0.25781250"
       x2="0.57931036"
       y2="2.0156250" />
    <linearGradient
       xlink:href="#linearGradient1513"
       id="linearGradient2312"
       x1="0.45882353"
       y1="-0.58685446"
       x2="0.65490198"
       y2="0.45070422" />
    <linearGradient
       xlink:href="#linearGradient1513"
       id="linearGradient2313"
       x1="-0.0078431377"
       y1="-1.2448980"
       x2="0.59607846"
       y2="0.36054420" />
    <linearGradient
       xlink:href="#linearGradient1513"
       id="linearGradient2314"
       x1="-0.45098040"
       y1="-0.15053764"
       x2="0.47058824"
       y2="0.36559141" />
    <linearGradient
       xlink:href="#linearGradient2122"
       id="linearGradient1516"
       x1="0.45882353"
       y1="1.2772278"
       x2="0.69019610"
       y2="-0.29702970" />
    <linearGradient
       xlink:href="#linearGradient1513"
       id="linearGradient2223"
       x1="-0.18232045"
       y1="-0.43962848"
       x2="0.68508285"
       y2="0.42414862" />
    <linearGradient
       id="linearGradient2122">
      <stop
         style="stop-color:#000000;stop-opacity:0.40784314;"
         offset="0.0000000"
         id="stop2123" />
      <stop
         style="stop-color:#000000;stop-opacity:0.0000000;"
         offset="1.0000000"
         id="stop2124" />
    </linearGradient>
    <linearGradient
       xlink:href="#linearGradient2122"
       id="linearGradient2138"
       x1="1.3783784"
       y1="0.25386998"
       x2="0.58378381"
       y2="0.13003096" />
    <linearGradient
       xlink:href="#linearGradient1513"
       id="linearGradient2224"
       x1="-0.14213198"
       y1="-0.28792569"
       x2="0.49753696"
       y2="0.35603714" />
    <linearGradient
       xlink:href="#linearGradient1918"
       id="linearGradient1512"
       x1="0.99512196"
       y1="0.64396286"
       x2="0.32682925"
       y2="0.30030960" />
    <linearGradient
       xlink:href="#linearGradient1513"
       id="linearGradient2315"
       x1="0.27843139"
       y1="-0.063694268"
       x2="0.45098040"
       y2="0.61146498" />
    <linearGradient
       id="linearGradient2317">
      <stop
         style="stop-color:#d6d6d6;stop-opacity:1.0000000;"
         offset="0.0000000"
         id="stop2318" />
      <stop
         style="stop-color:#eaeaea;stop-opacity:1.0000000;"
         offset="0.25769231"
         id="stop2322" />
      <stop
         style="stop-color:#919191;stop-opacity:1.0000000;"
         offset="0.70594490"
         id="stop2320" />
      <stop
         style="stop-color:#d2d2d2;stop-opacity:1.0000000;"
         offset="0.73347497"
         id="stop2321" />
      <stop
         style="stop-color:#a6a6a6;stop-opacity:1.0000000;"
         offset="1.0000000"
         id="stop2319" />
    </linearGradient>
    <linearGradient
       xlink:href="#linearGradient2317"
       id="linearGradient2316"
       x1="0.47450981"
       y1="0.21771218"
       x2="0.80392158"
       y2="0.52029520" />
    <linearGradient
       id="linearGradient1513">
      <stop
         style="stop-color:#ffffff;stop-opacity:1.0000000;"
         offset="0.0000000"
         id="stop1514" />
      <stop
         style="stop-color:#ffffff;stop-opacity:0.0000000;"
         offset="1.0000000"
         id="stop1515" />
    </linearGradient>
    <linearGradient
       xlink:href="#linearGradient1513"
       id="linearGradient2121"
       x1="0.41568628"
       y1="0.27687296"
       x2="0.59607846"
       y2="0.44299674" />
    <radialGradient
       xlink:href="#linearGradient1918"
       id="radialGradient2541"
       cx="0.50000000"
       cy="0.50000000"
       r="0.50000000"
       fx="0.38431373"
       fy="0.47619048" />
    <linearGradient
       id="linearGradient1918">
      <stop
         style="stop-color:#000000;stop-opacity:0.31372550;"
         offset="0.0000000"
         id="stop1919" />
      <stop
         style="stop-color:#000000;stop-opacity:0.0000000;"
         offset="1.0000000"
         id="stop1921" />
    </linearGradient>
    <radialGradient
       xlink:href="#linearGradient1918"
       id="radialGradient1502"
       cx="0.50000000"
       cy="0.50000000"
       r="0.50000000"
       fx="0.50588238"
       fy="0.50000000" />
  </defs>
  <sodipodi:namedview
     id="base"
     pagecolor="#ffffff"
     bordercolor="#666666"
     borderopacity="1.0"
     inkscape:pageopacity="0.0"
     inkscape:pageshadow="2"
     inkscape:zoom="5.6568542"
     inkscape:cx="28.987430"
     inkscape:cy="3.3360316"
     inkscape:window-width="581"
     inkscape:window-height="471"
     showborder="true"
     inkscape:window-x="83"
     inkscape:window-y="296" />
  <path
     sodipodi:type="arc"
     style="fill:url(#radialGradient1502);fill-opacity:0.75000000;fill-rule:evenodd;stroke-width:1.0000000pt;"
     id="path1934"
     sodipodi:cx="41.875938"
     sodipodi:cy="37.865574"
     sodipodi:rx="12.562782"
     sodipodi:ry="12.562782"
     d="M 54.438721 37.865574 A 12.562782 12.562782 0 1 0 29.313156,37.865574 A 12.562782 12.562782 0 1 0 54.438721 37.865574 z"
     transform="matrix(1.100904,0.000000,0.000000,0.325754,-31.49173,12.42491)" />
  <path
     style="fill-rule:evenodd;stroke-width:2.6250000;stroke-linecap:round;stroke-linejoin:round;"
     d="M 16.899209,3.7730713 C 13.746165,3.3396788 10.438391,4.1162318 7.7852749,6.2990306 C 3.3529097,9.9456714 2.2539074,16.783469 6.1468147,21.318248 C 9.2923331,24.982407 15.121602,25.845348 18.879015,22.410555 C 21.772802,19.765234 22.430661,14.966496 19.425169,11.999506 C 18.350753,10.938854 16.918896,10.319947 15.431422,10.258643 C 13.943948,10.197338 12.336134,10.745371 11.267003,12.067776 C 10.587736,12.907957 10.255635,13.968307 10.311234,15.071619 C 10.366834,16.174931 10.976984,17.449147 12.222771,18.007194 C 13.136552,18.416518 13.751494,18.273916 14.509788,17.938924 C 14.888936,17.771429 15.366652,17.498939 15.636230,16.880752 C 15.905808,16.262566 15.747206,15.482470 15.431422,15.003350 C 15.207355,14.640583 14.833455,14.396363 14.411222,14.336986 C 13.988990,14.277609 13.562235,14.409238 13.246809,14.696139 C 13.291534,14.402676 13.349240,14.045758 13.485751,13.876909 C 13.946960,13.306441 14.550091,13.095252 15.294884,13.125948 C 16.039676,13.156644 16.876649,13.519851 17.411228,14.047582 C 19.128268,15.742624 18.708102,18.671837 16.933344,20.294211 C 14.468319,22.547583 10.484375,21.948775 8.3314282,19.440846 C 5.5567590,16.208683 6.3449293,11.157088 9.5944079,8.4836441 C 13.591917,5.1947722 19.684312,6.2282697 22.872762,10.224508 C 25.000494,12.891297 25.685151,16.551383 24.750164,19.850461 C 24.533366,20.613967 24.976561,21.408662 25.740067,21.625460 C 26.503573,21.842257 27.298268,21.399063 27.515066,20.635557 C 28.698311,16.460507 27.863135,11.880539 25.125645,8.4495095 C 23.051605,5.8500163 20.052253,4.2064637 16.899209,3.7730713 z "
     id="path3708" />
</svg>
