<?xml version="1.0" encoding="UTF-8" standalone="no"?>
<!-- Created with Inkscape (http://www.inkscape.org/) -->
<svg
   xmlns:dc="http://purl.org/dc/elements/1.1/"
   xmlns:cc="http://web.resource.org/cc/"
   xmlns:rdf="http://www.w3.org/1999/02/22-rdf-syntax-ns#"
   xmlns:svg="http://www.w3.org/2000/svg"
   xmlns="http://www.w3.org/2000/svg"
   xmlns:xlink="http://www.w3.org/1999/xlink"
   xmlns:sodipodi="http://inkscape.sourceforge.net/DTD/sodipodi-0.dtd"
   xmlns:inkscape="http://www.inkscape.org/namespaces/inkscape"
   width="60.000000px"
   height="60.000000px"
   id="svg2071"
   sodipodi:version="0.32"
   inkscape:version="0.41+cvs"
   sodipodi:docbase="/home/david/.icons/eXperience/normal/stock/other icons"
   sodipodi:docname="gtk-dialog-question_old.svg">
  <defs
     id="defs3">
    <linearGradient
       y2="32065"
       x2="33477"
       y1="4162"
       x1="5722"
       gradientUnits="userSpaceOnUse"
       id="linearGradient2186">
      <stop
         id="stop2188"
         style="stop-opacity:1.0000000;stop-color:#b5b6ba"
         offset="0" />
      <stop
         id="stop2190"
         style="stop-color:#fffff3;stop-opacity:1.0000;"
         offset="1" />
    </linearGradient>
    <linearGradient
       spreadMethod="pad"
       gradientUnits="objectBoundingBox"
       id="linearGradient604"
       y2="0.00000000"
       x2="1.00000000"
       y1="0.00000000"
       x1="0.00000000">
      <stop
         id="stop608"
         offset="0.0000000"
         style="stop-color:#8790ff;stop-opacity:1.0000000;" />
      <stop
         id="stop606"
         offset="0.60000002"
         style="stop-color:#061de7;stop-opacity:1.0000000;" />
      <stop
         id="stop605"
         offset="1.0000000"
         style="stop-color:#031192;stop-opacity:1.0000000;" />
    </linearGradient>
    <linearGradient
       inkscape:collect="always"
       xlink:href="#linearGradient604"
       id="linearGradient2064"
       gradientUnits="userSpaceOnUse"
       x1="24961.625"
       y1="24652.912"
       x2="2498.9380"
       y2="-4829.0477" />
    <radialGradient
       inkscape:collect="always"
       xlink:href="#linearGradient604"
       id="radialGradient2066"
       gradientUnits="userSpaceOnUse"
       gradientTransform="matrix(1.493079,-0.461222,0.464190,1.502609,147334.8,20582.84)"
       spreadMethod="pad"
       cx="-78237.500"
       cy="-12962.734"
       fx="-78237.500"
       fy="-12962.734"
       r="48197.5195" />
    <linearGradient
       inkscape:collect="always"
       xlink:href="#linearGradient2186"
       id="linearGradient2074"
       gradientUnits="userSpaceOnUse"
       gradientTransform="matrix(3.953695e-6,0.000000,0.000000,6.381680e-6,-4.154492,-3.808062)"
       x1="15182252."
       y1="10593867."
       x2="4930463.0"
       y2="1479228.5" />
    <radialGradient
       inkscape:collect="always"
       xlink:href="#linearGradient604"
       id="radialGradient2078"
       gradientUnits="userSpaceOnUse"
       gradientTransform="matrix(6.806898e-3,-6.806898e-3,6.521196e-3,6.515793e-3,13.12629,44.10876)"
       cx="2191.8594"
       cy="-2741.0149"
       fx="2191.8594"
       fy="-2741.0149"
       r="10694.468" />
  </defs>
  <sodipodi:namedview
     id="base"
     pagecolor="#ffffff"
     bordercolor="#666666"
     borderopacity="1.0"
     inkscape:pageopacity="0.0"
     inkscape:pageshadow="2"
     inkscape:zoom="1.2500000"
     inkscape:cx="59.607031"
     inkscape:cy="-7.7149536"
     inkscape:current-layer="layer1"
     showgrid="true"
     inkscape:grid-bbox="true"
     inkscape:document-units="px"
     inkscape:window-width="721"
     inkscape:window-height="511"
     inkscape:window-x="243"
     inkscape:window-y="97" />
  <metadata
     id="metadata4">
    <rdf:RDF
       id="RDF5">
      <cc:Work
         rdf:about=""
         id="Work6">
        <dc:format
           id="format7">image/svg+xml</dc:format>
        <dc:type
           id="type9"
           rdf:resource="http://purl.org/dc/dcmitype/StillImage" />
      </cc:Work>
    </rdf:RDF>
  </metadata>
  <g
     id="layer1"
     inkscape:label="Layer 1"
     inkscape:groupmode="layer">
    <path
       sodipodi:nodetypes="ccccc"
       id="path2133"
       d="M 59.289254,30.887901 C 59.289254,46.648928 46.512384,59.425775 30.751380,59.425775 C 14.990310,59.425775 2.2134643,46.648928 2.2134643,30.887901 C 2.2134643,15.126834 14.990310,2.3499800 30.751380,2.3499800 C 46.512384,2.3499800 59.289254,15.126834 59.289254,30.887901 z "
       style="font-size:12.000000;fill:#000000;fill-opacity:0.29803923;fill-rule:evenodd;stroke-width:1.0000000" />
    <circle
       sodipodi:ry="14267.000"
       sodipodi:rx="14267.000"
       sodipodi:cy="15011.000"
       sodipodi:cx="15010.000"
       cx="15010.000"
       cy="15011.000"
       r="14267.000"
       transform="matrix(1.985700e-3,0.000000,0.000000,1.985700e-3,0.297842,0.227107)"
       style="font-size:12.000000;fill:url(#linearGradient2064)"
       id="circle570" />
    <circle
       sodipodi:ry="12870.000"
       sodipodi:rx="12870.000"
       sodipodi:cy="15000.000"
       sodipodi:cx="15000.000"
       cx="15000.000"
       cy="15000.000"
       r="12870.000"
       transform="matrix(1.985700e-3,0.000000,0.000000,1.985700e-3,0.297842,0.227107)"
       style="font-size:12.000000;fill:url(#radialGradient2066)"
       id="circle572" />
    <path
       d="M 30.079930,1.7044682 C 39.214221,1.7044682 47.352628,6.1444937 52.485610,12.995159 C 49.916168,10.169508 46.199804,10.408673 42.426861,12.248112 C 38.653943,14.087555 34.824492,17.527280 32.028857,21.102753 C 25.391829,29.324316 18.788907,28.295575 14.318112,29.232805 C 9.8473294,30.170056 7.5087049,33.073278 9.4003332,49.158760 C 4.8105526,44.113087 2.0000000,37.395453 2.0000000,30.034454 C 2.0000000,14.430825 14.614027,1.7044682 30.079930,1.7044682 z "
       style="font-size:12.000000;fill:url(#radialGradient2078);fill-opacity:1.0000000"
       id="path571"
       sodipodi:nodetypes="ccsssccc" />
    <path
       style="font-size:12.000000;fill:#07196b;fill-opacity:1.0000000;fill-rule:evenodd;stroke-width:1.0000000"
       d="M 57.398749,29.913698 C 57.398749,45.054233 45.124967,57.328041 29.984430,57.328041 C 14.843879,57.328041 2.5700532,45.054233 2.5700532,29.913698 C 2.5700532,14.773147 14.843879,2.4993150 29.984430,2.4993150 C 45.124967,2.4993150 57.398749,14.773147 57.398749,29.913698 z M 58.522304,29.913698 C 58.522304,45.674724 45.745435,58.451571 29.984430,58.451571 C 14.223360,58.451571 1.4465143,45.674724 1.4465143,29.913698 C 1.4465143,14.152630 14.223360,1.3757761 29.984430,1.3757761 C 45.745435,1.3757761 58.522304,14.152630 58.522304,29.913698 z "
       id="path847" />
    <path
       class="fil1"
       d="M 33.289241,33.882353 L 33.334418,33.751335 L 33.381858,33.620316 L 33.433811,33.489298 L 33.497062,33.337950 L 33.576126,33.197895 L 33.650669,33.073653 L 33.734250,32.949412 L 33.822350,32.825170 L 33.914968,32.698671 L 34.014359,32.574428 L 34.118270,32.450188 L 34.226700,32.325946 L 34.341906,32.201702 L 34.461629,32.075202 L 34.585872,31.950962 L 34.716889,31.824461 L 34.852425,31.697960 L 34.994739,31.569201 L 35.139310,31.442700 L 35.295177,31.309422 L 35.545921,31.115154 L 35.783107,30.927661 L 36.013519,30.742429 L 36.239413,30.559456 L 36.460789,30.376481 L 36.677647,30.195766 L 36.889989,30.015051 L 37.097810,29.836595 L 37.298856,29.658138 L 37.497641,29.481941 L 37.689652,29.308003 L 37.877144,29.134066 L 38.060117,28.962385 L 38.236315,28.790706 L 38.410253,28.621287 L 38.577413,28.451867 L 38.742319,28.284704 L 38.900443,28.119802 L 39.054051,27.954899 L 39.203141,27.792254 L 39.345454,27.629611 L 39.485509,27.469228 L 39.618785,27.311102 L 39.747544,27.152976 L 39.874046,26.997110 L 39.991509,26.843502 L 40.106716,26.689896 L 40.217404,26.538545 L 40.323574,26.387197 L 40.422967,26.238106 L 40.520102,26.091276 L 40.608199,25.946702 L 40.691780,25.804390 L 40.773104,25.662077 L 40.849908,25.517505 L 40.926709,25.372933 L 40.998997,25.226101 L 41.069024,25.077011 L 41.136792,24.927922 L 41.202301,24.776572 L 41.263292,24.625224 L 41.324284,24.471616 L 41.380756,24.318010 L 41.434972,24.162141 L 41.486928,24.006276 L 41.536624,23.848149 L 41.581802,23.687765 L 41.626981,23.527381 L 41.667642,23.364736 L 41.706044,23.202093 L 41.742187,23.037191 L 41.776070,22.872288 L 41.807696,22.702867 L 41.834804,22.535706 L 41.859651,22.366286 L 41.882241,22.194608 L 41.902572,22.020668 L 41.920644,21.846730 L 41.934197,21.672792 L 41.947751,21.496596 L 41.956786,21.318138 L 41.963563,21.137424 L 41.968081,20.956708 L 41.968081,20.778253 L 41.963563,20.455224 L 41.950010,20.136713 L 41.929679,19.822722 L 41.904831,19.513247 L 41.870947,19.210549 L 41.832545,18.914629 L 41.787367,18.623222 L 41.735411,18.336338 L 41.678937,18.056230 L 41.613427,17.780639 L 41.543399,17.509566 L 41.466597,17.245270 L 41.383016,16.987750 L 41.294918,16.734752 L 41.197783,16.486268 L 41.096130,16.242302 L 40.989961,16.005113 L 40.874754,15.772443 L 40.755031,15.546550 L 40.626271,15.322914 L 40.495253,15.106056 L 40.355199,14.895974 L 40.210627,14.688154 L 40.057020,14.487109 L 39.898894,14.290579 L 39.736250,14.098570 L 39.564570,13.913337 L 39.386115,13.730364 L 39.203141,13.554166 L 39.013389,13.382485 L 38.816862,13.215325 L 38.609039,13.050421 L 38.398958,12.883261 L 38.188877,12.725134 L 37.974278,12.571526 L 37.759679,12.422437 L 37.540562,12.280125 L 37.316927,12.142328 L 37.093293,12.009052 L 36.862880,11.882550 L 36.632467,11.760567 L 36.397539,11.643102 L 36.160351,11.532416 L 35.918644,11.423988 L 35.674679,11.324594 L 35.428456,11.227458 L 35.177713,11.137102 L 34.922452,11.051262 L 34.667192,10.969940 L 34.405155,10.895393 L 34.143119,10.823109 L 33.876565,10.757600 L 33.605492,10.698868 L 33.332160,10.644653 L 33.054310,10.594956 L 32.776461,10.549777 L 32.491834,10.511375 L 32.204950,10.477492 L 31.913547,10.448126 L 31.619884,10.425537 L 31.323963,10.405206 L 31.023525,10.393912 L 30.718569,10.384875 L 30.411352,10.382616 L 30.072512,10.384875 L 29.735930,10.393912 L 29.403866,10.409724 L 29.076320,10.427795 L 28.751034,10.454902 L 28.432523,10.486526 L 28.116271,10.524931 L 27.804538,10.567849 L 27.497323,10.615286 L 27.194624,10.669501 L 26.896444,10.730492 L 26.602783,10.796002 L 26.311379,10.868288 L 26.024495,10.945091 L 25.742126,11.028672 L 25.464278,11.116771 L 25.188688,11.211645 L 24.919874,11.311039 L 24.653319,11.417209 L 24.391282,11.527897 L 24.131504,11.645362 L 23.878502,11.767345 L 23.627762,11.896104 L 23.381537,12.029382 L 23.139829,12.169436 L 22.900383,12.314007 L 22.665453,12.465357 L 22.435040,12.623483 L 22.206889,12.786125 L 21.983254,12.953288 L 21.764136,13.127225 L 21.547278,13.305684 L 21.337197,13.490913 L 21.131633,13.680666 L 20.930589,13.874934 L 20.736320,14.075980 L 20.548828,14.281544 L 20.365853,14.491624 L 20.187397,14.708482 L 20.013460,14.929859 L 19.848558,15.158011 L 19.685913,15.390682 L 19.530047,15.627870 L 19.378698,15.871836 L 19.234125,16.122577 L 19.094071,16.375579 L 18.958536,16.637616 L 18.829776,16.901912 L 18.705535,17.175244 L 18.588069,17.450833 L 18.475123,17.735460 L 18.366693,18.022345 L 18.265042,18.318266 L 18.170166,18.616447 L 18.077549,18.923664 L 17.991711,19.233138 L 17.912648,19.551648 L 17.838102,19.874676 L 17.768076,20.202223 L 17.704825,20.536546 L 17.646092,20.875387 L 17.594136,21.221005 L 17.557995,21.492078 L 24.904061,21.968712 L 24.922133,21.837694 L 24.944721,21.706676 L 24.969570,21.573398 L 24.996678,21.444640 L 25.026045,21.315879 L 25.059927,21.187120 L 25.096071,21.060619 L 25.132213,20.936378 L 25.172875,20.814396 L 25.215794,20.692412 L 25.260972,20.570429 L 25.310669,20.450706 L 25.360366,20.333242 L 25.414581,20.218036 L 25.471055,20.102829 L 25.529787,19.989883 L 25.588519,19.876937 L 25.654029,19.766248 L 25.719537,19.657818 L 25.787306,19.549390 L 25.859592,19.443219 L 25.934137,19.339309 L 26.010940,19.235396 L 26.090004,19.136005 L 26.171326,19.034351 L 26.254907,18.937218 L 26.340747,18.840083 L 26.428843,18.745206 L 26.516943,18.657106 L 26.600523,18.569008 L 26.693139,18.478651 L 26.788016,18.392810 L 26.885149,18.306972 L 26.984543,18.225650 L 27.088456,18.146586 L 27.192365,18.072042 L 27.300795,17.999756 L 27.409223,17.929728 L 27.522172,17.861960 L 27.637377,17.798711 L 27.754842,17.735460 L 27.872306,17.676729 L 27.994289,17.622514 L 28.118530,17.570558 L 28.245031,17.518602 L 28.373789,17.473422 L 28.502551,17.428243 L 28.635827,17.387584 L 28.771365,17.349182 L 28.909158,17.313038 L 29.046953,17.281413 L 29.189267,17.252049 L 29.331580,17.224941 L 29.478411,17.200093 L 29.625242,17.179762 L 29.776591,17.161690 L 29.927939,17.143619 L 30.083808,17.132324 L 30.239673,17.121029 L 30.397800,17.114253 L 30.564961,17.107475 L 30.793113,17.111993 L 31.014489,17.125547 L 31.229089,17.145878 L 31.441428,17.175244 L 31.649251,17.213646 L 31.852555,17.261083 L 32.051341,17.317557 L 32.245611,17.380807 L 32.435361,17.455351 L 32.620594,17.538932 L 32.799051,17.631550 L 32.972990,17.730941 L 33.142410,17.841630 L 33.305053,17.959094 L 33.463178,18.085595 L 33.616786,18.221131 L 33.761359,18.365705 L 33.899153,18.519312 L 34.025654,18.679696 L 34.143119,18.846860 L 34.251547,19.023057 L 34.350940,19.206031 L 34.439039,19.395781 L 34.518103,19.590051 L 34.588129,19.793356 L 34.649121,20.001178 L 34.698817,20.218036 L 34.739479,20.437152 L 34.771102,20.665305 L 34.793692,20.897976 L 34.807246,21.135164 L 34.811764,21.385907 L 34.807246,21.519183 L 34.795953,21.643426 L 34.782397,21.769926 L 34.764327,21.894169 L 34.741738,22.020668 L 34.714630,22.144911 L 34.685263,22.269151 L 34.651380,22.393394 L 34.612978,22.515375 L 34.570057,22.639618 L 34.524880,22.763858 L 34.475183,22.885842 L 34.420968,23.007825 L 34.364496,23.132065 L 34.303503,23.254049 L 34.237993,23.373772 L 34.167966,23.495754 L 34.095682,23.615480 L 34.021136,23.737461 L 33.939814,23.857185 L 33.856234,23.976909 L 33.770394,24.096632 L 33.677777,24.216356 L 33.585161,24.333821 L 33.485767,24.453545 L 33.384114,24.571009 L 33.280204,24.690734 L 33.169515,24.808198 L 33.058829,24.927922 L 32.943624,25.045386 L 32.823898,25.162852 L 32.701917,25.278057 L 32.582193,25.393263 L 32.457951,25.510727 L 32.331451,25.630453 L 32.204950,25.752434 L 32.073931,25.876676 L 31.940654,26.003177 L 31.805117,26.129677 L 31.669581,26.260695 L 31.529528,26.391713 L 31.387213,26.524991 L 31.242642,26.660527 L 31.095812,26.798323 L 30.946721,26.938377 L 30.793113,27.080689 L 30.639504,27.225262 L 30.483639,27.369836 L 30.325513,27.516666 L 30.162871,27.668014 L 30.000227,27.819363 L 29.833065,27.972971 L 29.665903,28.128837 L 29.494223,28.286965 L 29.320286,28.445089 L 29.144088,28.607732 L 28.967892,28.770376 L 28.787178,28.935279 L 28.604202,29.104698 L 28.418970,29.271860 L 28.231478,29.443539 L 28.039468,29.617479 L 27.847457,29.793675 L 27.657706,29.965355 L 27.542499,30.073783 L 27.434072,30.184471 L 27.327902,30.297419 L 27.226250,30.410364 L 27.126857,30.527831 L 27.031981,30.647553 L 26.941623,30.767279 L 26.855785,30.891519 L 26.772204,31.018020 L 26.693139,31.146779 L 26.616337,31.277798 L 26.544050,31.408816 L 26.476281,31.544352 L 26.410773,31.682148 L 26.349782,31.824461 L 26.291049,31.966775 L 26.239094,32.111346 L 26.187139,32.260436 L 26.139701,32.411785 L 26.096780,32.565392 L 26.058378,32.721259 L 26.022236,32.879385 L 25.990612,33.042028 L 25.961245,33.204671 L 25.936396,33.371834 L 25.916066,33.541254 L 25.897995,33.715192 L 25.884441,33.889130 L 25.873146,34.067585 L 25.868628,34.248301 L 25.866369,34.431276 L 25.866369,34.623285 L 25.866369,36.622446 L 33.022685,36.622446 L 33.022685,35.427468 L 33.024944,35.303225 L 33.031721,35.176726 L 33.040756,35.050224 L 33.054310,34.921465 L 33.070123,34.792707 L 33.090453,34.663946 L 33.115303,34.535187 L 33.142410,34.404168 L 33.174035,34.275409 L 33.207918,34.144391 L 33.246320,34.013373 L 33.289241,33.882353 z M 25.014748,45.174786 L 25.014748,45.296768 L 25.019268,45.418751 L 25.026045,45.538474 L 25.035079,45.655940 L 25.048633,45.773404 L 25.062186,45.888611 L 25.080258,46.001556 L 25.100588,46.112246 L 25.123178,46.222933 L 25.148026,46.331363 L 25.175134,46.439791 L 25.204501,46.545962 L 25.238384,46.647615 L 25.274528,46.751524 L 25.310669,46.853178 L 25.351331,46.952569 L 25.394250,47.049705 L 25.441689,47.146841 L 25.489127,47.241715 L 25.541081,47.336589 L 25.595296,47.429206 L 25.651771,47.519564 L 25.710501,47.609923 L 25.771493,47.700278 L 25.834743,47.786119 L 25.902512,47.871957 L 25.972540,47.957799 L 26.044825,48.041378 L 26.119370,48.122700 L 26.198432,48.206282 L 26.279754,48.285343 L 26.376889,48.377961 L 26.469507,48.477355 L 26.546309,48.558675 L 26.625372,48.637739 L 26.704435,48.712284 L 26.785758,48.784569 L 26.869338,48.854597 L 26.952918,48.922364 L 27.036499,48.987873 L 27.122339,49.048865 L 27.210436,49.109857 L 27.298536,49.166330 L 27.388895,49.220544 L 27.479250,49.272500 L 27.571868,49.322196 L 27.666743,49.367376 L 27.761618,49.412555 L 27.856492,49.453214 L 27.955887,49.493878 L 28.055281,49.530018 L 28.156932,49.563903 L 28.258583,49.595529 L 28.362496,49.624895 L 28.468666,49.652002 L 28.574835,49.676851 L 28.683265,49.699439 L 28.793953,49.719770 L 28.904641,49.735583 L 29.019848,49.751395 L 29.132794,49.762690 L 29.250260,49.771725 L 29.369983,49.778502 L 29.478411,49.783020 L 29.589100,49.778502 L 29.711081,49.771725 L 29.833065,49.762690 L 29.950529,49.749136 L 30.067994,49.735583 L 30.183199,49.717510 L 30.296147,49.699439 L 30.406834,49.676851 L 30.517524,49.652002 L 30.628210,49.624895 L 30.734381,49.595529 L 30.840552,49.563903 L 30.944462,49.527760 L 31.048373,49.491617 L 31.150026,49.453214 L 31.249419,49.410296 L 31.348812,49.365116 L 31.445947,49.317679 L 31.540821,49.270241 L 31.635696,49.216025 L 31.730574,49.161814 L 31.820929,49.105339 L 31.913547,49.044347 L 32.001646,48.983355 L 32.092003,48.917847 L 32.177843,48.850078 L 32.265942,48.780053 L 32.349522,48.705507 L 32.433103,48.630961 L 32.516685,48.551899 L 32.598005,48.470577 L 32.681587,48.384737 L 32.758389,48.303415 L 32.830676,48.222094 L 32.900702,48.140772 L 32.966213,48.059450 L 33.031721,47.975870 L 33.094971,47.890030 L 33.155961,47.804191 L 33.212436,47.716091 L 33.268909,47.625734 L 33.323124,47.535377 L 33.375080,47.445019 L 33.422517,47.350143 L 33.469955,47.255268 L 33.515134,47.160393 L 33.558053,47.060999 L 33.598716,46.961607 L 33.637117,46.862214 L 33.671000,46.758302 L 33.704884,46.654390 L 33.736509,46.550479 L 33.765875,46.442050 L 33.792984,46.335881 L 33.817831,46.225192 L 33.840421,46.112246 L 33.860752,45.999299 L 33.878824,45.884093 L 33.894637,45.768886 L 33.908189,45.651422 L 33.919483,45.531698 L 33.928519,45.409716 L 33.935295,45.287732 L 33.939814,45.172527 L 33.935295,45.055062 L 33.928519,44.928561 L 33.919483,44.802061 L 33.908189,44.677820 L 33.894637,44.555836 L 33.878824,44.436113 L 33.860752,44.316390 L 33.840421,44.198925 L 33.817831,44.083718 L 33.792984,43.968513 L 33.765875,43.855565 L 33.736509,43.744878 L 33.704884,43.636450 L 33.671000,43.528020 L 33.634856,43.421849 L 33.596456,43.317939 L 33.555795,43.214027 L 33.512876,43.112375 L 33.467696,43.012982 L 33.420258,42.913589 L 33.370562,42.816455 L 33.320866,42.721578 L 33.266650,42.626703 L 33.210177,42.534087 L 33.151445,42.441469 L 33.090453,42.353372 L 33.027204,42.263014 L 32.961695,42.177175 L 32.893926,42.091335 L 32.826158,42.007753 L 32.753871,41.924173 L 32.683843,41.849629 L 32.611559,41.777342 L 32.530236,41.702799 L 32.446656,41.630511 L 32.363076,41.560484 L 32.277237,41.492715 L 32.191396,41.427207 L 32.103297,41.363957 L 32.015200,41.302967 L 31.924841,41.246493 L 31.832225,41.190018 L 31.739609,41.135804 L 31.644733,41.083850 L 31.549857,41.034153 L 31.452723,40.986715 L 31.355588,40.943794 L 31.256195,40.900875 L 31.156802,40.860213 L 31.052891,40.821813 L 30.948979,40.785669 L 30.845068,40.751786 L 30.738898,40.722420 L 30.628210,40.693052 L 30.519781,40.665945 L 30.409095,40.641096 L 30.296147,40.618507 L 30.180941,40.598178 L 30.065735,40.580104 L 29.948270,40.566553 L 29.828546,40.552999 L 29.708822,40.541703 L 29.584582,40.532668 L 29.478411,40.528150 L 29.374500,40.532668 L 29.254775,40.541703 L 29.137312,40.552999 L 29.022105,40.566553 L 28.906899,40.580104 L 28.793953,40.598178 L 28.683265,40.618507 L 28.574835,40.641096 L 28.466407,40.663686 L 28.360236,40.690793 L 28.254068,40.720159 L 28.152414,40.751786 L 28.050763,40.785669 L 27.949110,40.819552 L 27.849716,40.857954 L 27.752583,40.898616 L 27.657706,40.941535 L 27.562832,40.984456 L 27.470215,41.031894 L 27.377598,41.081589 L 27.287241,41.133545 L 27.199142,41.185502 L 27.111044,41.241974 L 27.025203,41.300708 L 26.939365,41.359438 L 26.855785,41.422690 L 26.774461,41.488200 L 26.693139,41.555967 L 26.611819,41.623734 L 26.532756,41.696021 L 26.455953,41.770565 L 26.374630,41.854147 L 26.284273,41.942245 L 26.202950,42.023566 L 26.126146,42.109406 L 26.049343,42.195245 L 25.977056,42.281086 L 25.907031,42.369185 L 25.839262,42.459543 L 25.776011,42.549899 L 25.712762,42.642516 L 25.654029,42.737392 L 25.597555,42.832267 L 25.543340,42.929403 L 25.491386,43.026536 L 25.443947,43.125929 L 25.396510,43.225322 L 25.353590,43.326975 L 25.312928,43.430885 L 25.274528,43.537056 L 25.240643,43.643227 L 25.206759,43.751655 L 25.175134,43.860083 L 25.148026,43.970771 L 25.123178,44.083718 L 25.100588,44.198925 L 25.080258,44.314132 L 25.062186,44.431596 L 25.048633,44.551318 L 25.035079,44.673301 L 25.026045,44.795284 L 25.019268,44.919525 L 25.014748,45.046028 L 25.014748,45.174786 z "
       id="path857"
       style="font-size:12.000000;fill:url(#linearGradient2074);fill-rule:evenodd;stroke:#07196b;stroke-width:0.63496441;stroke-miterlimit:4.0000000;stroke-dasharray:none;stroke-opacity:1.0000000" />
  </g>
</svg>
