<?xml version="1.0" encoding="UTF-8" standalone="no"?>
<!-- Created with Inkscape (http://www.inkscape.org/) -->
<svg
   xmlns:dc="http://purl.org/dc/elements/1.1/"
   xmlns:cc="http://web.resource.org/cc/"
   xmlns:rdf="http://www.w3.org/1999/02/22-rdf-syntax-ns#"
   xmlns:svg="http://www.w3.org/2000/svg"
   xmlns="http://www.w3.org/2000/svg"
   xmlns:xlink="http://www.w3.org/1999/xlink"
   xmlns:sodipodi="http://inkscape.sourceforge.net/DTD/sodipodi-0.dtd"
   xmlns:inkscape="http://www.inkscape.org/namespaces/inkscape"
   width="60.000000px"
   height="60.000000px"
   id="svg2030"
   sodipodi:version="0.32"
   inkscape:version="0.41+cvs"
   sodipodi:docbase="/home/david/.icons/eXperience/normal/apps"
   sodipodi:docname="gnome-system-tools.svg">
  <defs
     id="defs3">
    <linearGradient
       id="linearGradient5805"
       inkscape:collect="always">
      <stop
         id="stop5807"
         offset="0"
         style="stop-color:#00008d;stop-opacity:1;" />
      <stop
         id="stop5809"
         offset="1"
         style="stop-color:#00008d;stop-opacity:0;" />
    </linearGradient>
    <linearGradient
       x2="7568.37"
       x1="5848.37"
       y2="27865"
       y1="23685"
       id="Grad3"
       gradientUnits="userSpaceOnUse">
      <stop
         id="stop5030"
         stop-opacity="1"
         stop-color="#9999ff"
         offset="0%" />
      <stop
         id="stop5032"
         stop-opacity="1"
         stop-color="#003399"
         offset="100%" />
    </linearGradient>
    <linearGradient
       x2="25143"
       x1="18040.1"
       y2="16116.9"
       y1="16116.9"
       id="Grad16"
       gradientUnits="userSpaceOnUse">
      <stop
         id="stop5181"
         stop-opacity="1"
         stop-color="#95670b"
         offset="0%" />
      <stop
         id="stop5183"
         stop-opacity="1"
         stop-color="#8f710d"
         offset="3.13725%" />
      <stop
         id="stop5185"
         stop-opacity="1"
         stop-color="#f9d017"
         offset="9.01961%" />
      <stop
         id="stop5187"
         stop-opacity="1"
         stop-color="#fbee8b"
         offset="21.9608%" />
      <stop
         id="stop5189"
         stop-opacity="1"
         stop-color="#eeb300"
         offset="25.8824%" />
      <stop
         id="stop5191"
         stop-opacity="1"
         stop-color="#da9900"
         offset="32.1569%" />
      <stop
         id="stop5193"
         stop-opacity="1"
         stop-color="#a45d00"
         offset="81.1765%" />
      <stop
         id="stop5195"
         stop-opacity="1"
         stop-color="#a56423"
         offset="100%" />
    </linearGradient>
    <radialGradient
       id="Grad18"
       r="21.0335"
       cy="-4.07199"
       gradientUnits="userSpaceOnUse"
       cx="-42.1489">
      <stop
         id="stop5215"
         stop-opacity="1"
         stop-color="#ffffff"
         offset="0%" />
      <stop
         id="stop5217"
         stop-opacity="1"
         stop-color="#0083ca"
         offset="100%" />
    </radialGradient>
    <radialGradient
       id="Grad19"
       r="24.675"
       cy="-4.07199"
       gradientUnits="userSpaceOnUse"
       cx="-42.1489">
      <stop
         id="stop5226"
         stop-opacity="1"
         stop-color="#ffffff"
         offset="0%" />
      <stop
         id="stop5228"
         stop-opacity="0"
         stop-color="#ffffff"
         offset="100%" />
    </radialGradient>
    <radialGradient
       id="Grad20"
       r="23.3012"
       cy="-37.0257"
       gradientUnits="userSpaceOnUse"
       cx="-49.9382">
      <stop
         id="stop5237"
         stop-opacity="1"
         stop-color="#ffff00"
         offset="0%" />
      <stop
         id="stop5239"
         stop-opacity="0"
         stop-color="#ffff00"
         offset="100%" />
    </radialGradient>
    <radialGradient
       cx="-34490.5"
       gradientUnits="userSpaceOnUse"
       cy="5568.02"
       r="19.6529"
       id="Grad0">
      <stop
         offset="0%"
         stop-color="#000000"
         stop-opacity="1"
         id="stop4451" />
      <stop
         offset="100%"
         stop-color="#000000"
         stop-opacity="0"
         id="stop4453" />
    </radialGradient>
    <radialGradient
       inkscape:collect="always"
       xlink:href="#Grad19"
       id="radialGradient3453"
       gradientUnits="userSpaceOnUse"
       gradientTransform="matrix(-0.806127,-2.293295,2.190554,-0.770007,-50.74991,130.5052)"
       cx="18.518608"
       cy="40.677761"
       fx="18.518608"
       fy="40.677761"
       r="10.278411" />
    <linearGradient
       inkscape:collect="always"
       xlink:href="#Grad3"
       id="linearGradient3494"
       gradientUnits="userSpaceOnUse"
       x1="8.0000000"
       y1="13.285714"
       x2="23.000000"
       y2="47.857143" />
    <linearGradient
       inkscape:collect="always"
       xlink:href="#Grad3"
       id="linearGradient2175"
       gradientUnits="userSpaceOnUse"
       x1="7.0261741"
       y1="-0.87859738"
       x2="1.3794134"
       y2="19.450006"
       gradientTransform="matrix(0.639493,0.000000,0.000000,0.639493,4.649668,37.41900)" />
    <linearGradient
       inkscape:collect="always"
       xlink:href="#Grad3"
       id="linearGradient2179"
       gradientUnits="userSpaceOnUse"
       x1="0.061099309"
       y1="-2.2339125"
       x2="4.1944098"
       y2="10.297900"
       gradientTransform="matrix(0.639493,0.000000,0.000000,0.639493,17.03199,47.63887)" />
    <linearGradient
       inkscape:collect="always"
       xlink:href="#Grad3"
       id="linearGradient2184"
       gradientUnits="userSpaceOnUse"
       x1="2.2669427"
       y1="7.0914383"
       x2="10.741066"
       y2="24.069174"
       gradientTransform="matrix(0.639493,0.000000,0.000000,0.639493,4.776416,6.165055)" />
    <linearGradient
       inkscape:collect="always"
       xlink:href="#Grad3"
       id="linearGradient2187"
       gradientUnits="userSpaceOnUse"
       x1="-3.2614744"
       y1="2.5979450"
       x2="7.4613056"
       y2="5.1958899"
       gradientTransform="matrix(0.639493,0.000000,0.000000,0.639493,15.08569,14.58136)" />
    <linearGradient
       inkscape:collect="always"
       xlink:href="#Grad3"
       id="linearGradient2190"
       gradientUnits="userSpaceOnUse"
       x1="3.1243465"
       y1="0.41350415"
       x2="5.0198841"
       y2="13.208384"
       gradientTransform="matrix(0.639493,0.000000,0.000000,0.639493,18.91216,9.328955)" />
    <linearGradient
       inkscape:collect="always"
       xlink:href="#linearGradient5805"
       id="linearGradient2194"
       gradientUnits="userSpaceOnUse"
       x1="-0.93260252"
       y1="15.092892"
       x2="3.0932074"
       y2="15.027462"
       gradientTransform="matrix(0.639493,0.000000,0.000000,0.639493,10.91677,22.50839)" />
    <linearGradient
       inkscape:collect="always"
       xlink:href="#Grad19"
       id="linearGradient2197"
       gradientUnits="userSpaceOnUse"
       x1="-1.0052600"
       y1="-11.288920"
       x2="13.958666"
       y2="11.085245"
       gradientTransform="matrix(0.639493,0.000000,0.000000,0.639493,6.642857,38.79061)" />
    <linearGradient
       inkscape:collect="always"
       xlink:href="#Grad19"
       id="linearGradient2200"
       gradientUnits="userSpaceOnUse"
       x1="-7.9883695"
       y1="-8.0716171"
       x2="8.7245932"
       y2="20.137289"
       gradientTransform="matrix(0.639493,0.000000,0.000000,0.639493,7.734903,6.976955)" />
    <linearGradient
       inkscape:collect="always"
       xlink:href="#Grad18"
       id="linearGradient2204"
       gradientUnits="userSpaceOnUse"
       x1="8.3719578"
       y1="13.888423"
       x2="1.6344585"
       y2="-3.1714165"
       gradientTransform="matrix(0.639493,0.000000,0.000000,0.639493,23.59581,18.44524)" />
    <linearGradient
       inkscape:collect="always"
       xlink:href="#Grad16"
       id="linearGradient2207"
       gradientUnits="userSpaceOnUse"
       x1="0.21206000"
       y1="30.916388"
       x2="23.065544"
       y2="30.916388"
       gradientTransform="matrix(0.639493,0.000000,0.000000,0.639493,35.77304,18.44716)" />
    <linearGradient
       inkscape:collect="always"
       xlink:href="#Grad0"
       id="linearGradient2210"
       gradientUnits="userSpaceOnUse"
       x1="11.524468"
       y1="-3.9609637"
       x2="12.864817"
       y2="14.927939"
       gradientTransform="matrix(0.639493,0.000000,0.000000,0.639493,35.77304,15.96158)" />
    <linearGradient
       inkscape:collect="always"
       xlink:href="#Grad18"
       id="linearGradient2213"
       gradientUnits="userSpaceOnUse"
       x1="35.622028"
       y1="29.215115"
       x2="21.033501"
       y2="0.0000000"
       gradientTransform="matrix(0.639493,0.000000,0.000000,0.639493,30.79139,8.031425)" />
    <radialGradient
       inkscape:collect="always"
       xlink:href="#Grad19"
       id="radialGradient2216"
       gradientUnits="userSpaceOnUse"
       cx="-42.1489"
       cy="-4.07199"
       r="24.675"
       gradientTransform="matrix(0.639493,0.000000,0.000000,0.639493,30.79139,8.031425)" />
    <radialGradient
       inkscape:collect="always"
       xlink:href="#Grad20"
       id="radialGradient2219"
       gradientUnits="userSpaceOnUse"
       gradientTransform="matrix(0.985380,-1.755888,1.918148,1.076450,-111.8755,55.73907)"
       cx="33.057331"
       cy="76.626480"
       fx="33.057331"
       fy="76.626480"
       r="23.3012" />
    <linearGradient
       inkscape:collect="always"
       xlink:href="#Grad18"
       id="linearGradient2222"
       gradientUnits="userSpaceOnUse"
       x1="-42.649597"
       y1="-21.622955"
       x2="54.946609"
       y2="42.825325"
       gradientTransform="matrix(0.639493,0.000000,0.000000,0.639493,30.79139,8.215915)" />
    <linearGradient
       inkscape:collect="always"
       xlink:href="#Grad18"
       id="linearGradient2225"
       gradientUnits="userSpaceOnUse"
       x1="16.879995"
       y1="24.350000"
       x2="0.0000000"
       y2="6.1305676"
       gradientTransform="matrix(0.639493,0.000000,0.000000,0.639493,23.60732,9.079545)" />
    <linearGradient
       inkscape:collect="always"
       xlink:href="#Grad18"
       id="linearGradient2228"
       gradientUnits="userSpaceOnUse"
       x1="7.1073775"
       y1="-4.0066214"
       x2="17.692722"
       y2="22.353546"
       gradientTransform="matrix(0.639493,0.000000,0.000000,0.639493,23.67127,8.641685)" />
    <linearGradient
       inkscape:collect="always"
       xlink:href="#Grad18"
       id="linearGradient2231"
       gradientUnits="userSpaceOnUse"
       x1="5.8752894"
       y1="-8.1117268"
       x2="26.726206"
       y2="14.267808"
       gradientTransform="matrix(0.639493,0.000000,0.000000,0.639493,30.38595,7.002605)" />
    <linearGradient
       inkscape:collect="always"
       xlink:href="#Grad18"
       id="linearGradient2234"
       gradientUnits="userSpaceOnUse"
       x1="15.124811"
       y1="4.5922647"
       x2="-2.1740847"
       y2="0.0000000"
       gradientTransform="matrix(0.639493,0.000000,0.000000,0.639493,38.37066,7.959735)" />
    <linearGradient
       inkscape:collect="always"
       xlink:href="#Grad18"
       id="linearGradient2237"
       gradientUnits="userSpaceOnUse"
       x1="1.1685599"
       y1="1.0383420"
       x2="18.328312"
       y2="1.6701880"
       gradientTransform="matrix(0.639493,0.000000,0.000000,0.639493,40.03334,8.060455)" />
    <linearGradient
       inkscape:collect="always"
       xlink:href="#Grad16"
       id="linearGradient2240"
       gradientUnits="userSpaceOnUse"
       x1="-3.4751525"
       y1="-6.5677929"
       x2="47.862324"
       y2="23.367268"
       gradientTransform="matrix(0.639493,0.000000,0.000000,0.639493,38.80488,8.201905)" />
    <linearGradient
       inkscape:collect="always"
       xlink:href="#Grad16"
       id="linearGradient2243"
       gradientUnits="userSpaceOnUse"
       x1="5.8894372"
       y1="0.78619999"
       x2="-20.272137"
       y2="-10.563561"
       gradientTransform="matrix(0.639493,0.000000,0.000000,0.639493,38.97179,8.554525)" />
    <linearGradient
       inkscape:collect="always"
       xlink:href="#Grad0"
       id="linearGradient2246"
       gradientUnits="userSpaceOnUse"
       x1="20.829586"
       y1="14.642800"
       x2="-5.7079415"
       y2="-7.4718056"
       gradientTransform="matrix(0.639493,0.000000,0.000000,0.639493,35.77304,50.02994)" />
  </defs>
  <sodipodi:namedview
     id="base"
     pagecolor="#ffffff"
     bordercolor="#666666"
     borderopacity="1.0"
     inkscape:pageopacity="0.0"
     inkscape:pageshadow="2"
     inkscape:zoom="3.5000000"
     inkscape:cx="70.802126"
     inkscape:cy="26.545585"
     inkscape:current-layer="layer1"
     showgrid="true"
     inkscape:grid-bbox="true"
     inkscape:document-units="px"
     inkscape:window-width="723"
     inkscape:window-height="512"
     inkscape:window-x="117"
     inkscape:window-y="114" />
  <metadata
     id="metadata4">
    <rdf:RDF
       id="RDF5">
      <cc:Work
         rdf:about=""
         id="Work6">
        <dc:format
           id="format7">image/svg+xml</dc:format>
        <dc:type
           id="type9"
           rdf:resource="http://purl.org/dc/dcmitype/StillImage" />
      </cc:Work>
    </rdf:RDF>
  </metadata>
  <g
     id="layer1"
     inkscape:label="Layer 1"
     inkscape:groupmode="layer">
    <path
       id="path3229"
       d="M 12.375000,7.5937500 C 11.977363,7.4831874 11.187558,7.7694018 10.906250,8.0312500 C 8.5150692,10.214327 7.4009132,14.173655 7.5625000,17.000000 C 7.7213823,19.779109 9.5478421,23.643559 12.250000,24.906250 C 12.250000,24.906250 12.205971,38.503458 12.218750,39.625000 C 8.8647161,41.045543 4.6331187,45.817760 6.3125000,51.812500 C 6.6183816,53.163663 7.2864023,52.834943 8.5937500,53.812500 C 10.387255,54.277630 10.953370,54.438791 11.687500,54.500000 C 12.302864,54.726184 12.832543,53.863722 12.906250,53.656250 C 12.906250,53.656251 14.375000,49.218750 14.375000,49.218750 C 14.456464,48.773361 14.614622,48.526720 15.125000,48.437500 C 15.125000,48.437499 17.781250,47.562499 17.781250,47.562500 C 18.006221,47.824323 19.813803,49.520045 19.718750,49.875000 C 19.718751,49.874999 18.187500,55.281250 18.187500,55.281250 C 18.687176,55.702024 19.731027,56.416564 20.687500,56.843750 C 20.687501,56.843749 23.406249,57.531249 23.406250,57.531250 C 24.310100,57.750389 25.114878,56.810729 25.625000,56.281250 C 27.300798,54.533667 28.099581,52.173232 28.093750,49.562500 C 28.084071,46.022724 26.314588,42.734221 23.531250,41.031250 C 23.518149,37.798355 23.481377,29.147487 23.468750,26.031250 C 24.470626,25.626171 25.355029,24.967898 26.187500,24.218750 C 26.803191,24.426519 31.812500,26.093750 31.812500,26.093750 C 32.553736,26.343855 33.384637,26.191486 34.156250,26.062500 C 34.156251,26.062500 37.312500,25.531250 37.312500,25.531250 C 37.312500,25.531251 37.437500,56.687500 37.437500,56.687500 C 37.450481,60.302680 39.062958,60.118202 41.875000,60.437500 C 44.600201,60.670469 50.360803,59.522948 50.375000,56.781250 C 50.374999,56.781249 50.531250,23.437500 50.531250,23.437500 C 50.531251,23.437499 58.218750,22.062500 58.218750,22.062500 C 59.113209,21.901860 60.109268,20.939906 60.125000,20.031250 C 60.125001,20.031250 60.281250,11.718750 60.281250,11.718750 C 60.294424,10.956085 59.600398,9.6902111 58.843750,9.5937500 C 58.843751,9.5937500 51.875000,8.6875000 51.875000,8.6875000 C 51.110230,8.5900041 50.327973,8.5022846 49.562500,8.5937500 C 49.562500,8.5937501 33.718750,10.500000 33.718750,10.500000 C 32.983845,10.587802 32.965870,10.706109 32.500000,11.281250 C 32.500000,11.281250 30.995450,13.160972 29.531250,14.968750 C 29.430724,14.225416 29.414421,13.440690 29.187500,12.843750 C 29.084693,12.574139 27.896490,11.735886 26.843750,11.500000 C 26.843749,11.500000 23.531250,10.718750 23.531250,10.718750 C 23.178285,10.594613 22.622163,10.906033 22.500000,11.156250 C 22.500000,11.156250 21.343750,15.500000 21.343750,15.500000 C 21.093529,16.165295 20.677579,16.595056 20.093750,16.781250 C 20.093750,16.781250 17.406250,17.656250 17.406250,17.656250 C 16.946569,17.094275 16.125000,16.125000 16.125000,16.125000 C 15.744859,15.649808 15.430595,15.208996 15.562500,14.656250 C 15.562500,14.656250 16.750000,10.156250 16.750000,10.156250 C 16.718402,9.5675220 16.397020,9.0661557 16.187500,9.0312500 C 16.187500,9.0312498 14.406250,8.1562499 14.406250,8.1562500 C 14.406250,8.1562501 12.375000,7.5937499 12.375000,7.5937500 z "
       style="opacity:0.29999998;fill:#000000;fill-opacity:1.0000000;fill-rule:evenodd;stroke:none;stroke-width:1.0000000pt;stroke-linecap:butt;stroke-linejoin:miter;stroke-dasharray:none" />
    <g
       transform="matrix(0.639493,0.000000,0.000000,0.639493,2.331577,5.203721)"
       style="fill:#00008d;fill-rule:nonzero;stroke:none;stroke-width:1.0000000pt;stroke-linecap:butt;stroke-linejoin:miter;stroke-dasharray:none"
       id="g3374">
      <path
         sodipodi:nodetypes="cccccccccccccccccccccccccccccccccc"
         id="path3376"
         d="M 12.577367,0.61311185 C 11.955566,0.44022092 10.700132,0.88825551 10.260240,1.2977178 C 6.5210586,4.7114803 4.7940233,10.886142 5.0467028,15.305808 C 5.2951530,19.651608 8.1675203,25.719883 12.392990,27.694401 C 12.392990,27.694401 12.294075,48.940869 12.314058,50.694668 C 7.0692258,52.916023 0.47209543,60.384104 3.0982090,69.758311 C 3.5765279,71.871175 4.6348744,71.336724 6.6792246,72.865368 C 9.4837984,73.592709 10.376140,73.875554 11.524128,73.971270 C 12.486398,74.324966 13.304701,72.979152 13.419960,72.654720 C 13.419960,72.654720 15.684425,65.703337 15.684425,65.703337 C 15.811814,65.006868 16.097554,64.631628 16.895651,64.492111 C 16.895651,64.492111 21.055948,63.122898 21.055948,63.122899 C 21.407743,63.532324 24.206319,66.148859 24.057682,66.703915 C 24.057682,66.703915 21.687894,75.182496 21.687893,75.182496 C 22.469255,75.840478 24.089206,76.936940 25.584881,77.604948 C 25.584881,77.604948 29.850500,78.710848 29.850502,78.710849 C 31.263889,79.053524 32.475833,77.590322 33.273531,76.762356 C 35.894043,74.029591 37.179637,70.312462 37.170519,66.229958 C 37.155384,60.694674 34.360901,55.569474 30.008488,52.906473 C 29.988001,47.851071 29.922910,34.292203 29.903164,29.419223 C 35.473154,27.167162 39.803619,21.002161 39.803619,14.568541 C 39.803619,12.736609 39.471391,10.448017 38.855703,8.8283831 C 38.694940,8.4067821 36.868235,7.0907664 35.222025,6.7219032 C 35.222025,6.7219032 30.008488,5.5106775 30.008488,5.5106774 C 29.456543,5.3165594 28.619659,5.8040101 28.428628,6.1952833 C 28.428628,6.1952833 26.585458,12.988680 26.585458,12.988680 C 26.194175,14.029028 25.549921,14.698679 24.636965,14.989837 C 24.636965,14.989837 20.424005,16.359048 20.424005,16.359048 C 19.705184,15.480267 18.422849,13.936596 18.422849,13.936596 C 17.828408,13.193521 17.373992,12.536480 17.580257,11.672130 C 17.580257,11.672130 19.423427,4.6154234 19.423427,4.6154234 C 19.374016,3.6948074 18.855809,2.9321609 18.528174,2.8775776 C 18.528174,2.8775776 15.737088,1.5083656 15.737088,1.5083657 C 15.737088,1.5083657 12.577367,0.61311168 12.577367,0.61311185 z "
         style="fill-rule:nonzero" />
      <path
         style="fill-rule:nonzero"
         d="M 12.577367,0.61311185 C 11.955566,0.44022092 10.700132,0.88825551 10.260240,1.2977178 C 6.5210586,4.7114803 4.7940233,10.886142 5.0467028,15.305808 C 5.2951530,19.651608 8.1675203,25.719883 12.392990,27.694401 C 12.392990,27.694401 12.294075,48.940869 12.314058,50.694668 C 7.0692258,52.916023 0.47209543,60.384104 3.0982090,69.758311 C 3.5765279,71.871175 4.6348744,71.336724 6.6792246,72.865368 C 9.4837984,73.592709 10.376140,73.875554 11.524128,73.971270 C 12.486398,74.324966 13.304701,72.979152 13.419960,72.654720 C 13.419960,72.654720 15.684425,65.703337 15.684425,65.703337 C 15.811814,65.006868 16.097554,64.631628 16.895651,64.492111 C 16.895651,64.492111 21.055948,63.122898 21.055948,63.122899 C 21.407743,63.532324 24.206319,66.148859 24.057682,66.703915 C 24.057682,66.703915 21.687894,75.182496 21.687893,75.182496 C 22.469255,75.840478 24.089206,76.936940 25.584881,77.604948 C 25.584881,77.604948 29.850500,78.710848 29.850502,78.710849 C 31.263889,79.053524 32.475833,77.590322 33.273531,76.762356 C 35.894043,74.029591 37.179637,70.312462 37.170519,66.229958 C 37.155384,60.694674 34.360901,55.569474 30.008488,52.906473 C 29.988001,47.851071 29.922910,34.292203 29.903164,29.419223 C 35.473154,27.167162 39.803619,21.002161 39.803619,14.568541 C 39.803619,12.736609 39.471391,10.448017 38.855703,8.8283831 C 38.694940,8.4067821 36.868235,7.0907664 35.222025,6.7219032 C 35.222025,6.7219032 30.008488,5.5106775 30.008488,5.5106774 C 29.456543,5.3165594 28.619659,5.8040101 28.428628,6.1952833 C 28.428628,6.1952833 26.585458,12.988680 26.585458,12.988680 C 26.194175,14.029028 25.549921,14.698679 24.636965,14.989837 C 24.636965,14.989837 20.424005,16.359048 20.424005,16.359048 C 19.705184,15.480267 18.422849,13.936596 18.422849,13.936596 C 17.828408,13.193521 17.373992,12.536480 17.580257,11.672130 C 17.580257,11.672130 19.423427,4.6154234 19.423427,4.6154234 C 19.374016,3.6948074 18.855809,2.9321609 18.528174,2.8775776 C 18.528174,2.8775776 15.737088,1.5083656 15.737088,1.5083657 C 15.737088,1.5083657 12.577367,0.61311168 12.577367,0.61311185 z "
         id="path3385"
         sodipodi:nodetypes="cccccccccccccccccccccccccccccccccc" />
    </g>
    <path
       d="M 5.1805316,50.177141 C 4.7271662,49.028228 4.6496680,48.687250 4.6806676,47.317456 C 4.7814157,42.712135 6.8506175,39.759461 11.043274,37.957618 C 12.564161,37.419000 11.539755,38.556203 12.438754,38.536843 C 12.438754,38.536843 16.243420,37.864625 16.243420,37.864625 C 16.243420,37.864625 16.076768,37.862685 16.076768,37.862685 C 10.824337,37.862685 7.4008564,51.275662 7.6875987,51.452034 C 7.4783566,51.413281 7.1993586,51.322217 7.0501776,51.233072 C 7.0501776,51.233072 5.3045280,50.308877 5.3045280,50.308877 C 5.2250940,50.268205 5.2154064,50.262386 5.1805316,50.177141 z "
       id="path5058"
       style="fill:url(#linearGradient2175);fill-opacity:0.93288589;fill-rule:evenodd;stroke:none;stroke-width:1.0000000pt;stroke-linecap:butt;stroke-linejoin:miter;stroke-dasharray:none"
       sodipodi:nodetypes="cccccccccc" />
    <path
       d="M 18.599398,48.220322 C 18.599398,48.220322 21.249828,49.086374 21.249828,49.086374 C 21.249828,49.086374 17.450485,44.025740 17.450485,44.025740 C 17.450485,44.025740 15.803650,44.496544 15.803650,44.496544 C 15.803650,44.496544 18.223530,47.639086 18.223530,47.639086 C 18.223530,47.639086 18.599398,48.220322 18.599398,48.220322 z "
       id="path4999"
       style="fill:#0044c1;fill-rule:evenodd;stroke:none;stroke-width:1.0000000pt;stroke-linecap:butt;stroke-linejoin:miter;stroke-dasharray:none" />
    <path
       d="M 18.223525,47.638870 C 18.394021,47.881052 18.508330,48.034119 18.667199,48.041859 C 19.781228,48.092235 19.850977,48.657972 20.839071,48.696726 C 20.839071,48.696726 19.581681,54.224305 19.581681,54.224305 C 19.581681,54.224305 18.705952,54.073129 18.705952,54.073129 C 18.705952,54.073129 17.254797,53.294316 17.254797,53.294316 C 17.080426,53.203246 17.031990,53.046314 17.101739,52.811876 C 17.101739,52.811876 18.347523,48.380912 18.347523,48.380912 C 18.425017,48.101933 18.438580,47.946927 18.223525,47.638870 z "
       id="path5036"
       style="fill:url(#linearGradient2179);fill-opacity:0.93288589;fill-rule:evenodd;stroke:none;stroke-width:1.0000000pt;stroke-linecap:butt;stroke-linejoin:miter;stroke-dasharray:none" />
    <path
       d="M 12.499104,6.8257521 C 12.499104,6.8257521 13.956067,7.6917944 13.956067,7.6917944 C 14.182755,7.8312934 14.271874,8.1839099 14.207938,8.3989650 C 14.207938,8.3989650 10.294278,7.3159260 10.294278,7.3159260 C 10.294278,7.3159260 9.9222860,6.2677650 9.9222860,6.2677650 C 9.9222860,6.2677650 10.383401,6.2735766 10.383401,6.2735766 C 10.383401,6.2735766 12.010864,6.6475062 12.010864,6.6475062 C 12.233669,6.6940044 12.363480,6.7327538 12.499104,6.8257521 z "
       id="path5062"
       style="fill:#9999ff;fill-rule:evenodd;stroke:none;stroke-width:1.0000000pt;stroke-linecap:butt;stroke-linejoin:miter;stroke-dasharray:none" />
    <path
       d="M 11.861679,7.3372137 C 11.861679,7.3372137 11.960480,7.5755208 11.960480,7.5755208 C 11.960480,7.5755208 11.540078,13.093386 11.540078,13.093386 C 11.540078,13.093386 15.132110,17.530189 15.132110,17.530189 C 15.132110,17.530189 20.442652,15.681862 20.442652,15.681862 C 20.442652,15.681862 22.155406,9.5633528 22.155406,9.5633528 C 22.155406,9.5633528 25.018927,10.475890 25.018927,10.475890 C 25.501361,11.694553 25.788110,12.816358 25.788110,14.221004 C 25.788110,19.833834 19.008972,24.086527 13.857281,23.015120 C 12.413881,22.714814 11.993414,23.365818 10.922027,22.697356 C 4.7764160,18.863148 4.9527242,10.415835 9.7653631,6.3471769 C 9.9009868,6.2328656 10.065669,6.1650550 10.383414,6.2735527 C 9.7634254,6.2832397 10.054049,6.4362985 10.150920,6.4634239 C 10.648842,6.6009833 10.892962,6.9594140 11.313377,7.2287173 C 11.416080,7.2965291 11.656337,7.2713395 11.861679,7.3372137 z "
       id="path5073"
       style="fill:url(#linearGradient2184);fill-opacity:0.93288589;fill-rule:evenodd;stroke:none;stroke-width:1.0000000pt;stroke-linecap:butt;stroke-linejoin:miter;stroke-dasharray:none" />
    <path
       d="M 20.696557,14.581360 C 20.696557,14.581360 22.967249,16.536252 22.967249,16.536252 C 22.967249,16.536252 16.467097,17.904095 16.467097,17.904095 C 16.467097,17.904095 15.085690,16.412254 15.085690,16.412254 C 15.085690,16.412254 18.912167,15.137409 18.912167,15.137409 C 18.912167,15.137409 20.696557,14.581360 20.696557,14.581360 z "
       id="path5084"
       style="fill:url(#linearGradient2187);fill-opacity:0.93288589;fill-rule:evenodd;stroke:none;stroke-width:1.0000000pt;stroke-linecap:butt;stroke-linejoin:miter;stroke-dasharray:none" />
    <path
       d="M 18.912160,15.137444 C 19.208591,15.077383 19.999061,14.842951 20.345865,15.216882 C 20.719789,15.617934 20.936788,15.908571 22.155445,15.800049 C 22.155445,15.800049 23.868154,10.406181 23.868154,10.406181 C 23.656987,10.351933 23.449663,10.295747 23.267555,10.216309 C 22.763814,9.9896280 21.942334,9.7125696 21.434710,9.5827615 C 21.295224,9.5459484 21.395976,9.4316390 21.754387,9.4161403 C 21.368836,9.3289550 21.173151,9.4219520 21.107277,9.6389473 C 21.107277,9.6389473 20.037815,13.918788 20.037815,13.918788 C 19.935125,14.337279 19.452711,15.104510 18.912160,15.137444 z "
       id="path5095"
       style="fill:url(#linearGradient2190);fill-rule:evenodd;stroke:none;stroke-width:1.0000000pt;stroke-linecap:butt;stroke-linejoin:miter;stroke-dasharray:none" />
    <path
       d="M 24.877608,10.200789 C 24.877608,10.200789 26.082714,10.822709 26.082714,10.822709 C 26.319077,10.929268 26.470208,11.124953 26.541882,11.409757 C 26.541882,11.409757 25.222480,11.194702 25.222480,11.194702 C 25.222480,11.194702 23.490394,10.305410 23.490394,10.305410 C 23.490394,10.305410 21.260380,9.6079256 21.260380,9.6079256 C 21.260380,9.6079256 21.382432,9.4025550 21.382432,9.4025550 C 21.382432,9.4025550 21.754423,9.4161179 21.754423,9.4161179 C 21.754423,9.4161179 24.532736,10.074854 24.532736,10.074854 C 24.678042,10.105850 24.792357,10.146541 24.877608,10.200789 z "
       id="path5099"
       style="fill:#333c99;fill-rule:evenodd;stroke:none;stroke-width:1.0000000pt;stroke-linecap:butt;stroke-linejoin:miter;stroke-dasharray:none" />
    <path
       d="M 18.682064,54.098898 C 19.113594,54.129913 19.388448,53.996387 19.510336,53.696401 C 19.510336,53.696401 20.634692,49.198911 20.634692,49.198911 C 20.729529,48.844760 20.576626,48.469313 20.352164,48.208080 C 20.352164,48.208080 17.435756,44.771125 17.435756,44.771125 C 17.220951,44.583370 16.948079,44.540780 16.615223,44.647255 C 16.615223,44.647255 12.288049,46.085155 12.288049,46.085155 C 12.022928,46.174109 11.839080,46.340569 11.757800,46.601802 C 11.757800,46.601802 10.256060,51.716659 10.256060,51.716659 C 10.182524,51.923727 10.023834,52.006925 9.7761202,51.964334 C 9.7761202,51.964334 9.4239067,51.883119 9.4239067,51.883119 C 9.4239067,51.883119 7.6763961,51.480558 7.6763961,51.480558 C 7.3957866,51.416737 7.2138764,51.325737 7.0938915,51.105112 C 7.0745392,51.072178 7.1248532,50.973504 7.1055041,50.936733 C 6.5945989,49.961378 6.5307380,48.780874 6.5307380,47.615846 C 6.5307380,43.520916 8.7191638,40.212759 12.249024,38.790399 C 11.152263,38.497825 20.766300,37.359146 20.936597,39.282804 C 23.713659,40.981937 25.571450,44.084118 25.581171,47.615846 C 25.586990,50.220693 24.605752,52.595258 22.933733,54.338900 C 22.424761,54.867249 21.968035,55.076235 21.066286,54.857529 C 21.066286,54.857529 19.767732,54.547886 19.767732,54.547886 C 19.372909,54.441474 19.020740,54.278915 18.682064,54.098898 z M 14.189242,8.3044974 C 14.189242,8.3044974 13.070705,12.726502 13.070705,12.726502 C 12.939097,13.278039 13.064886,13.788968 13.444233,14.263089 C 13.444233,14.263089 16.066474,17.351712 16.066474,17.351712 C 16.343183,17.669092 16.681858,17.727158 17.140502,17.568436 C 17.140502,17.568436 20.778706,16.360881 20.778706,16.360881 C 21.361220,16.175109 21.779193,15.749334 22.028915,15.085540 C 22.028915,15.085540 23.346782,10.599683 23.346782,10.599683 C 23.468733,10.350031 23.625473,10.204898 23.977706,10.328755 C 23.977706,10.328755 25.845153,10.758373 25.845153,10.758373 C 26.176091,10.833852 26.406372,11.042851 26.508947,11.311847 C 26.901788,12.345255 27.087560,13.475438 27.087560,14.644290 C 27.087560,18.845695 24.447925,22.439454 20.772951,23.786354 C 20.066567,27.656822 14.246221,24.581500 13.245670,23.027532 C 11.288054,21.988228 8.0391101,17.508874 8.0391101,14.745305 C 8.0391101,11.916022 9.2350836,9.2624323 11.141284,7.4839601 C 11.421894,7.2227035 11.656057,7.1510950 12.052779,7.2614069 C 12.052779,7.2614069 13.748056,7.6794198 13.748056,7.6794198 C 13.957042,7.7142517 14.237652,8.1167806 14.189242,8.3044974 z M 10.961900,22.702925 C 10.961900,22.702925 13.683378,22.855508 13.683378,22.855508 C 13.683378,22.855508 20.856724,21.726356 20.856724,21.726356 C 20.856724,21.726356 20.957739,39.662736 20.957739,39.662736 C 21.046757,39.796262 10.959111,39.037728 10.961669,38.037497 C 10.961669,38.037497 10.961900,22.702925 10.961900,22.702925 z "
       id="path5110"
       style="fill:url(#linearGradient3494);fill-rule:nonzero;stroke:none;stroke-width:1.0000000pt;stroke-linecap:butt;stroke-linejoin:miter;stroke-dasharray:none"
       sodipodi:nodetypes="ccccccccccccccccccccccccccccccccccccccccccccccc" />
    <path
       sodipodi:nodetypes="ccccccccccccccccccccccccccccccccccccccccccccccc"
       style="fill:url(#radialGradient3453);fill-rule:nonzero;stroke:none;stroke-width:1.0000000pt;stroke-linecap:butt;stroke-linejoin:miter;stroke-dasharray:none"
       id="path5827"
       d="M 18.682064,54.098898 C 19.113594,54.129913 19.388448,53.996387 19.510336,53.696401 C 19.510336,53.696401 20.634692,49.198911 20.634692,49.198911 C 20.729529,48.844760 20.576626,48.469313 20.352164,48.208080 C 20.352164,48.208080 17.435756,44.771125 17.435756,44.771125 C 17.220951,44.583370 16.948079,44.540780 16.615223,44.647255 C 16.615223,44.647255 12.288049,46.085155 12.288049,46.085155 C 12.022928,46.174109 11.839080,46.340569 11.757800,46.601802 C 11.757800,46.601802 10.256060,51.716659 10.256060,51.716659 C 10.182524,51.923727 10.023834,52.006925 9.7761200,51.964334 C 9.7761200,51.964334 9.4239070,51.883119 9.4239070,51.883119 C 9.4239070,51.883119 7.6763960,51.480558 7.6763960,51.480558 C 7.3957870,51.416737 7.2138760,51.325737 7.0938910,51.105112 C 7.0745390,51.072178 7.1248530,50.973504 7.1055040,50.936733 C 6.5945990,49.961378 6.5307380,48.780874 6.5307380,47.615846 C 6.5307380,43.520916 8.7191640,40.212759 12.249024,38.790399 C 11.152263,38.497825 20.766300,37.359146 20.936597,39.282804 C 23.713659,40.981937 25.571450,44.084118 25.581171,47.615846 C 25.586990,50.220693 24.605752,52.595258 22.933733,54.338900 C 22.424761,54.867249 21.968035,55.076235 21.066286,54.857529 C 21.066286,54.857529 19.767732,54.547886 19.767732,54.547886 C 19.372909,54.441474 19.020740,54.278915 18.682064,54.098898 z M 14.189242,8.3044974 C 14.189242,8.3044974 13.070705,12.726502 13.070705,12.726502 C 12.939097,13.278039 13.064886,13.788968 13.444233,14.263089 C 13.444233,14.263089 16.066474,17.351712 16.066474,17.351712 C 16.343183,17.669092 16.681858,17.727158 17.140502,17.568436 C 17.140502,17.568436 20.778706,16.360881 20.778706,16.360881 C 21.361220,16.175109 21.779193,15.749334 22.028915,15.085540 C 22.028915,15.085540 23.346782,10.599683 23.346782,10.599683 C 23.468733,10.350031 23.625473,10.204898 23.977706,10.328755 C 23.977706,10.328755 25.845153,10.758373 25.845153,10.758373 C 26.176091,10.833852 26.406372,11.042851 26.508947,11.311847 C 26.901788,12.345255 27.087560,13.475438 27.087560,14.644290 C 27.087560,18.845695 24.447925,22.439454 20.772951,23.786354 C 20.066567,27.656822 14.246221,24.581500 13.245670,23.027532 C 11.288054,21.988228 8.0391100,17.508874 8.0391100,14.745305 C 8.0391100,11.916022 9.2350840,9.2624323 11.141284,7.4839601 C 11.421894,7.2227035 11.656057,7.1510950 12.052779,7.2614069 C 12.052779,7.2614069 13.748056,7.6794198 13.748056,7.6794198 C 13.957042,7.7142517 14.237652,8.1167806 14.189242,8.3044974 z M 10.961900,22.702925 C 10.961900,22.702925 13.683378,22.855508 13.683378,22.855508 C 13.683378,22.855508 20.856724,21.726356 20.856724,21.726356 C 20.856724,21.726356 20.957739,39.662736 20.957739,39.662736 C 21.046757,39.796262 10.959111,39.037728 10.961669,38.037497 C 10.961669,38.037497 10.961900,22.702925 10.961900,22.702925 z " />
    <path
       d="M 10.954643,22.710421 C 10.954643,22.710421 12.437286,22.691504 12.437286,22.691504 C 12.437286,22.691504 13.486138,40.422699 12.407895,38.824287 C 12.260863,38.607307 12.395019,38.491822 12.117287,38.517018 C 11.756388,38.549952 11.289550,38.572454 10.916770,38.120972 C 10.916770,38.120972 10.954643,22.710421 10.954643,22.710421 z "
       id="path5121"
       style="fill:url(#linearGradient2194);fill-opacity:0.93288589;fill-rule:nonzero;stroke:none;stroke-width:1.0000000pt;stroke-linecap:butt;stroke-linejoin:miter;stroke-dasharray:none"
       sodipodi:nodetypes="cccccc" />
    <path
       d="M 18.171829,40.017433 C 17.606069,41.722295 16.097633,43.039932 12.622097,42.379266 C 10.526907,41.966486 7.8636172,45.105782 6.6428570,47.571424 C 7.3753131,43.121218 9.4631043,40.364044 13.088755,38.903090 C 15.474831,41.919521 18.610393,38.790610 18.171829,40.017433 z "
       id="path5132"
       style="fill:url(#linearGradient2197);fill-rule:evenodd;stroke:none;stroke-width:1.0000000pt;stroke-linecap:butt;stroke-linejoin:miter;stroke-dasharray:none" />
    <path
       d="M 14.051904,8.1616478 C 10.823105,9.4013003 9.6829981,14.759142 13.404182,17.789764 C 16.407062,20.096095 19.643542,24.495290 18.261981,23.284090 C 16.605119,21.831610 11.569399,22.237368 10.909461,21.585405 C 9.0509348,19.748717 8.0379488,17.511899 8.0379488,14.673445 C 8.0379488,11.767384 8.9633179,9.1455653 10.921228,7.3188516 C 11.209448,7.0505101 11.449967,6.9769550 11.857452,7.0902591 C 11.857452,7.0902591 13.598702,7.5196153 13.598702,7.5196153 C 13.813373,7.5553879 14.101593,7.9688406 14.051904,8.1616478 z "
       id="path5143"
       style="fill:url(#linearGradient2200);fill-rule:evenodd;stroke:none;stroke-width:1.0000000pt;stroke-linecap:butt;stroke-linejoin:miter;stroke-dasharray:none"
       sodipodi:nodetypes="ccccccccc" />
    <path
       d="M 35.310619,23.533814 C 35.310619,23.533814 35.422211,54.695605 35.422211,54.695605 C 35.435192,58.310786 37.047994,58.107556 39.860036,58.426854 C 42.585236,58.659822 48.356148,57.523634 48.370345,54.781936 C 48.370345,54.781936 48.543008,21.451625 48.543008,21.451625 C 48.543008,21.451625 56.210018,20.074860 56.210018,20.074860 C 57.104477,19.914220 58.123700,18.935284 58.139432,18.026628 C 58.139432,18.026628 58.283062,9.7187829 58.283062,9.7187829 C 58.296236,8.9561172 57.587677,7.6788066 56.831029,7.5823455 C 56.831029,7.5823455 49.881083,6.6963452 49.881083,6.6963452 C 49.116314,6.5988494 48.335557,6.5123650 47.570084,6.6038304 C 47.570084,6.6038304 31.711169,8.4987326 31.711169,8.4987326 C 30.976263,8.5865350 30.966223,8.7026349 30.500353,9.2777757 C 30.500353,9.2777757 23.648385,17.737577 23.648385,17.737577 C 23.376638,18.073056 23.066950,18.598079 23.073276,19.029801 C 23.073276,19.029801 23.101211,20.937856 23.101211,20.937856 C 23.108008,21.401425 23.410953,21.931500 23.850233,22.079735 C 23.850233,22.079735 29.823769,24.095545 29.823769,24.095545 C 30.565005,24.345650 31.398840,24.187824 32.170453,24.058838 C 32.170453,24.058838 35.310619,23.533814 35.310619,23.533814 z "
       id="path5165"
       style="fill:#00008d;fill-opacity:1.0000000;fill-rule:evenodd;stroke:none;stroke-width:1.0000000pt;stroke-linecap:butt;stroke-linejoin:miter;stroke-dasharray:none" />
    <path
       d="M 31.611087,23.606614 C 30.930987,23.722861 30.677236,23.703484 30.247113,23.562054 C 30.247113,23.562054 24.425047,21.643978 24.425047,21.643978 C 23.880609,21.461856 23.628747,21.281673 23.595810,20.768249 C 23.595810,20.768249 23.607430,19.326781 23.607430,19.326781 C 23.607430,19.326781 23.985240,18.607986 23.985240,18.607986 C 23.985240,18.607986 26.666675,18.445240 26.666675,18.445240 C 26.666675,18.445240 31.132491,19.923518 31.132491,19.923518 C 31.132491,19.923518 31.611087,23.606614 31.611087,23.606614 z "
       id="path5176"
       style="fill:url(#linearGradient2204);fill-opacity:1.0000000;fill-rule:evenodd;stroke:none;stroke-width:1.0000000pt;stroke-linecap:butt;stroke-linejoin:miter;stroke-dasharray:none" />
    <path
       d="M 35.908651,18.447160 C 35.908651,18.447160 47.796851,18.447160 47.796851,18.447160 C 47.796851,18.447160 47.796851,54.144810 47.796851,54.144810 C 47.837587,54.417938 47.825948,55.563014 46.930850,56.153906 C 44.962427,57.453931 40.481058,58.907051 36.840578,57.238933 C 35.773040,56.750680 35.968725,54.309480 35.908651,53.346531 C 35.908651,53.346531 35.908651,18.447160 35.908651,18.447160 z "
       id="path5199"
       style="fill:url(#linearGradient2207);fill-opacity:1.0000000;fill-rule:evenodd;stroke:none;stroke-width:1.0000000pt;stroke-linecap:butt;stroke-linejoin:miter;stroke-dasharray:none" />
    <path
       d="M 35.908651,26.146785 C 39.225362,21.506406 39.789299,25.131398 46.022066,22.570101 C 47.161323,22.101231 47.577953,26.605941 47.734884,27.793607 C 47.734884,27.793607 47.796851,18.214840 47.796851,18.214840 C 47.837587,18.086967 47.825948,17.544479 46.930850,17.263549 C 44.962427,16.649374 40.481058,15.961580 36.840578,16.750126 C 35.773040,16.982614 35.968725,18.137340 35.908651,18.592640 C 35.908651,18.592640 35.908651,26.146785 35.908651,26.146785 z "
       id="path5210"
       style="fill:url(#linearGradient2210);fill-rule:evenodd;stroke:none;stroke-width:1.0000000pt;stroke-linecap:butt;stroke-linejoin:miter;stroke-dasharray:none" />
    <path
       d="M 39.318134,10.412558 C 39.318134,10.412558 47.660832,8.0314250 47.660832,8.0314250 C 47.660832,8.0314250 57.040020,8.1980462 57.040020,8.1980462 C 57.413931,8.5835991 57.677466,9.0544028 57.692942,9.6995745 C 57.692942,9.6995745 57.692942,16.126127 57.692942,16.126127 C 57.648369,19.090433 57.365522,19.328708 54.713160,19.780126 C 54.713160,19.780126 31.581867,23.610498 31.581867,23.610498 C 31.399744,23.253980 31.091688,23.860412 30.799130,23.017624 C 30.799130,23.017624 30.791390,21.196412 30.791390,21.196412 C 30.791390,21.196412 32.932265,14.762153 32.932265,14.762153 C 32.932265,14.762153 39.318134,10.412558 39.318134,10.412558 z "
       id="path5221"
       style="fill:url(#linearGradient2213);fill-rule:evenodd;stroke:none;stroke-width:1.0000000pt;stroke-linecap:butt;stroke-linejoin:miter;stroke-dasharray:none" />
    <path
       d="M 39.318134,10.412558 C 39.318134,10.412558 47.660832,8.0314250 47.660832,8.0314250 C 47.660832,8.0314250 57.040020,8.1980481 57.040020,8.1980481 C 54.120862,11.701833 62.350370,20.507742 43.484942,14.096402 C 38.231635,12.293448 33.458357,16.994751 31.581867,23.610498 C 31.399744,23.253980 31.091688,23.860412 30.799130,23.017624 C 30.799130,23.017624 30.791390,21.196412 30.791390,21.196412 C 30.791390,21.196412 32.932265,14.762153 32.932265,14.762153 C 32.932265,14.762153 39.318134,10.412558 39.318134,10.412558 z "
       id="path5232"
       style="fill:url(#radialGradient2216);fill-rule:evenodd;stroke:none;stroke-width:1.0000000pt;stroke-linecap:butt;stroke-linejoin:miter;stroke-dasharray:none" />
    <path
       d="M 35.908651,35.653680 C 37.067259,50.727106 39.713820,56.343773 40.147805,54.696950 C 43.081102,43.573993 46.368991,45.635462 47.796851,29.105080 C 47.796851,29.105080 47.796851,54.144748 47.796851,54.144748 C 47.837587,54.417940 47.825948,55.562952 46.930850,56.153907 C 44.962427,57.453933 40.481058,58.907053 36.840578,57.238871 C 35.773040,56.750618 35.968725,54.309482 35.908651,53.346533 C 35.908651,53.346533 35.908651,35.653680 35.908651,35.653680 z "
       id="path5243"
       style="fill:url(#radialGradient2219);fill-rule:evenodd;stroke:none;stroke-width:1.0000000pt;stroke-linecap:butt;stroke-linejoin:miter;stroke-dasharray:none" />
    <path
       d="M 38.454882,10.079123 C 38.454882,10.079123 47.660832,8.2159150 47.660832,8.2159150 C 47.660832,8.2159150 57.040020,8.3825400 57.040020,8.3825400 C 54.120862,11.886311 53.302759,15.206149 44.592097,14.280892 C 40.091025,13.822395 37.333275,12.381758 31.581867,23.794988 C 31.399744,23.438470 31.091688,24.044902 30.799130,23.202114 C 30.799130,23.202114 30.791390,21.380902 30.791390,21.380902 C 30.791390,21.380902 32.932265,14.946643 32.932265,14.946643 C 32.932265,14.946643 38.454882,10.079123 38.454882,10.079123 z "
       id="path5254"
       style="fill:url(#linearGradient2222);fill-opacity:1.0000000;fill-rule:evenodd;stroke:none;stroke-width:1.0000000pt;stroke-linecap:butt;stroke-linejoin:miter;stroke-dasharray:none" />
    <path
       d="M 30.777827,21.729164 C 30.661631,21.647821 30.822400,20.723625 30.084233,20.477612 C 27.584915,19.640644 27.205184,20.555119 24.370683,19.053589 C 23.907636,18.906314 23.766188,19.667758 23.607320,19.326781 C 23.613139,19.012854 23.671255,18.664138 24.078124,18.172048 C 24.078124,18.172048 30.537186,10.022848 30.537186,10.022848 C 30.537186,10.022848 31.125328,9.3322458 31.125328,9.3322458 C 31.125328,9.3322458 39.653350,9.0795450 39.653350,9.0795450 C 39.653350,9.0795450 39.194131,10.563636 39.194131,10.563636 C 39.194131,10.563636 38.901115,10.789485 38.901115,10.789485 C 38.901115,10.789485 31.293195,20.615167 31.293195,20.615167 C 30.919283,20.981341 30.785565,21.326220 30.777827,21.729164 z "
       id="path5265"
       style="fill:url(#linearGradient2225);fill-rule:evenodd;stroke:none;stroke-width:1.0000000pt;stroke-linecap:butt;stroke-linejoin:miter;stroke-dasharray:none" />
    <path
       d="M 34.493986,13.053087 C 29.819560,13.479207 23.671270,18.664139 24.078138,18.172049 C 24.078138,18.172049 30.918163,9.5257479 30.918163,9.5257479 C 30.918163,9.5257479 31.589751,9.2131136 31.589751,9.2131136 C 31.589751,9.2131136 39.653351,9.0795529 39.653351,9.0795529 C 39.653351,9.0795529 38.573823,12.665893 34.493986,13.053087 z "
       id="path5276"
       style="fill:url(#linearGradient2228);fill-rule:evenodd;stroke:none;stroke-width:1.0000000pt;stroke-linecap:butt;stroke-linejoin:miter;stroke-dasharray:none"
       sodipodi:nodetypes="cccccc" />
    <path
       d="M 30.934248,9.5133121 C 31.089239,9.3292532 31.279104,9.1897542 31.546483,9.1451943 C 31.546483,9.1451943 47.213185,7.0956020 47.213185,7.0956020 C 47.860288,7.0026050 48.513210,7.0161679 49.162232,7.1188501 C 49.162232,7.1188501 56.675699,8.0623920 56.675699,8.0623920 C 57.049611,8.1108272 57.239476,8.2328872 57.551421,9.0039943 C 57.127117,8.4421357 56.522668,8.3065120 55.844550,8.3878811 C 55.844550,8.3878811 39.771405,10.488091 39.771405,10.488091 C 39.246381,10.666331 38.806538,10.987951 38.469461,11.480066 C 38.151697,11.338630 38.331906,10.662455 38.060633,10.530713 C 36.008858,9.5445449 34.255036,9.9647302 32.036648,9.4358119 C 31.420554,9.2904999 30.385950,10.216601 30.537060,10.022860 C 30.537060,10.022860 30.934248,9.5133121 30.934248,9.5133121 z "
       id="path5287"
       style="fill:url(#linearGradient2231);fill-rule:evenodd;stroke:none;stroke-width:1.0000000pt;stroke-linecap:butt;stroke-linejoin:miter;stroke-dasharray:none" />
    <path
       style="fill:url(#linearGradient2234);fill-rule:evenodd;stroke:none;stroke-width:1.0688000pt;stroke-linecap:butt;stroke-linejoin:miter;stroke-dasharray:none"
       d="M 46.197990,8.8761540 C 46.197990,9.3822936 44.445856,9.7925667 42.284319,9.7925667 C 40.122864,9.7925667 38.370660,9.3822936 38.370660,8.8761540 C 38.370660,8.3700286 40.122864,7.9597350 42.284319,7.9597350 C 44.445856,7.9597350 46.197990,8.3700286 46.197990,8.8761540 z "
       id="path5291" />
    <path
       sodipodi:nodetypes="ccccc"
       style="fill:url(#linearGradient2237);fill-rule:evenodd;stroke:none;stroke-width:1.0000000pt;stroke-linecap:butt;stroke-linejoin:miter;stroke-dasharray:none"
       d="M 44.063252,8.0604550 C 45.328412,8.2135132 46.198328,8.5215697 46.198328,8.8761219 C 46.198328,9.3818010 44.439121,9.7925410 42.284669,9.7925410 C 41.476746,9.7925410 40.723084,9.7344175 40.099215,9.6356094 C 41.927376,9.7551927 47.358860,8.9865560 44.063252,8.0604550 z "
       id="path5295" />
    <path
       d="M 45.717735,8.8819546 C 45.717735,9.2575481 44.170297,9.5619979 42.261301,9.5619979 C 40.352370,9.5619979 38.804880,9.2575481 38.804880,8.8819546 C 38.804880,8.5063727 40.352370,8.2019050 42.261301,8.2019050 C 44.170297,8.2019050 45.717735,8.5063727 45.717735,8.8819546 z "
       id="path5316"
       style="fill:url(#linearGradient2240);fill-rule:evenodd;stroke:none;stroke-width:1.0688000pt;stroke-linecap:butt;stroke-linejoin:miter;stroke-dasharray:none" />
    <path
       d="M 45.287890,8.5545250 C 45.561062,8.6513992 45.717994,8.7637709 45.717994,8.8819556 C 45.717994,9.2558826 44.164173,9.5600638 42.261598,9.5600638 C 40.727115,9.5600638 39.421276,9.3624477 38.971790,9.0892639 C 39.560784,9.2985112 40.698057,9.4418791 42.000039,9.4418791 C 43.902614,9.4418791 45.456441,9.1377004 45.456441,8.7637709 C 45.456441,8.6901487 45.396392,8.6203998 45.287890,8.5545250 z "
       id="path5337"
       style="fill:url(#linearGradient2243);fill-rule:evenodd;stroke:none;stroke-width:1.0000000pt;stroke-linecap:butt;stroke-linejoin:miter;stroke-dasharray:none" />
    <path
       d="M 47.796851,50.029940 C 47.796851,50.029940 47.796851,54.145103 47.796851,54.145103 C 47.837587,54.418282 47.825948,55.563319 46.930850,56.154249 C 44.962427,57.454262 40.481058,58.907382 36.840578,57.239200 C 35.773040,56.751011 35.968725,54.309792 35.908651,53.346869 C 36.230267,56.855569 38.927218,57.640290 43.106298,56.582441 C 47.029652,55.586571 43.577093,54.689523 47.796851,50.029940 z "
       id="path5348"
       style="fill:url(#linearGradient2246);fill-opacity:0.43999997;fill-rule:evenodd;stroke:none;stroke-width:1.0000000pt;stroke-linecap:butt;stroke-linejoin:miter;stroke-dasharray:none" />
  </g>
</svg>
