<?xml version="1.0" encoding="UTF-8" standalone="no"?>
<!-- Created with Inkscape (http://www.inkscape.org/) -->
<svg
   xmlns:dc="http://purl.org/dc/elements/1.1/"
   xmlns:cc="http://web.resource.org/cc/"
   xmlns:rdf="http://www.w3.org/1999/02/22-rdf-syntax-ns#"
   xmlns:svg="http://www.w3.org/2000/svg"
   xmlns="http://www.w3.org/2000/svg"
   xmlns:xlink="http://www.w3.org/1999/xlink"
   xmlns:sodipodi="http://inkscape.sourceforge.net/DTD/sodipodi-0.dtd"
   xmlns:inkscape="http://www.inkscape.org/namespaces/inkscape"
   sodipodi:docname="gtk-dialog-error.svg"
   sodipodi:docbase="/home/david/.icons/eXperienceCrystal/scalable/stock"
   inkscape:version="0.41+cvs"
   sodipodi:version="0.32"
   id="svg2071"
   height="60.000000px"
   width="60.000000px">
  <defs
     id="defs3">
    <linearGradient
       id="linearGradient597">
      <stop
         id="stop598"
         style="stop-color:#ffffff;stop-opacity:1.0000;"
         offset="0" />
      <stop
         id="stop601"
         style="stop-color:#333333;stop-opacity:1.0000;"
         offset="1" />
    </linearGradient>
    <linearGradient
       spreadMethod="pad"
       gradientUnits="objectBoundingBox"
       id="linearGradient2100"
       y2="0.00000000"
       x2="1.00000000"
       y1="0.00000000"
       x1="0.00000000">
      <stop
         id="stop2102"
         offset="0.00000000"
         style="stop-color:#ffb087;stop-opacity:1;" />
      <stop
         id="stop607"
         offset="0.25097999"
         style="stop-color:#f55e42;stop-opacity:1;" />
      <stop
         id="stop2105"
         offset="0.60000002"
         style="stop-color:#e72106;stop-opacity:1;" />
      <stop
         id="stop2107"
         offset="1.00000000"
         style="stop-color:#571f00;stop-opacity:1;" />
    </linearGradient>
    <linearGradient
       inkscape:collect="always"
       xlink:href="#linearGradient2100"
       id="linearGradient2803"
       gradientUnits="userSpaceOnUse"
       x1="24961.625"
       y1="24652.912"
       x2="2498.9380"
       y2="-4829.0477" />
    <radialGradient
       inkscape:collect="always"
       xlink:href="#linearGradient2100"
       id="radialGradient2805"
       gradientUnits="userSpaceOnUse"
       gradientTransform="matrix(0.755842,-0.202522,0.365328,1.363422,88373.68,39018.66)"
       spreadMethod="pad"
       cx="-78237.500"
       cy="-12962.734"
       fx="-78237.500"
       fy="-12962.734"
       r="48197.5195" />
    <linearGradient
       inkscape:collect="always"
       xlink:href="#linearGradient597"
       id="linearGradient2812"
       gradientUnits="userSpaceOnUse"
       gradientTransform="matrix(4.146911e-3,-4.146911e-3,8.071713e-4,8.071713e-4,-24.82726,30.08036)"
       x1="4915.3340"
       y1="31602.098"
       x2="24751.489"
       y2="69825.743" />
    <radialGradient
       inkscape:collect="always"
       xlink:href="#linearGradient2100"
       id="radialGradient2816"
       gradientUnits="userSpaceOnUse"
       gradientTransform="matrix(6.594942e-3,-5.686640e-3,6.022586e-3,6.979255e-3,12.22417,42.92367)"
       cx="3260.7122"
       cy="-4907.6958"
       fx="3260.7122"
       fy="-4907.6958"
       r="10694.468" />
  </defs>
  <sodipodi:namedview
     inkscape:window-y="78"
     inkscape:window-x="366"
     inkscape:window-height="511"
     inkscape:window-width="721"
     inkscape:document-units="px"
     inkscape:grid-bbox="true"
     showgrid="true"
     inkscape:current-layer="layer1"
     inkscape:cy="-17.927539"
     inkscape:cx="94.028439"
     inkscape:zoom="2.5000000"
     inkscape:pageshadow="2"
     inkscape:pageopacity="0.0"
     borderopacity="1.0"
     bordercolor="#666666"
     pagecolor="#ffffff"
     id="base" />
  <metadata
     id="metadata4">
    <rdf:RDF
       id="RDF5">
      <cc:Work
         id="Work6"
         rdf:about="">
        <dc:format
           id="format7">image/svg+xml</dc:format>
        <dc:type
           rdf:resource="http://purl.org/dc/dcmitype/StillImage"
           id="type9" />
      </cc:Work>
    </rdf:RDF>
  </metadata>
  <g
     inkscape:groupmode="layer"
     inkscape:label="Layer 1"
     id="layer1">
    <path
       style="font-size:12.000000;fill:#000000;fill-opacity:0.29803923;fill-rule:evenodd;stroke-width:1.0000000"
       d="M 59.289254,30.887901 C 59.289254,46.648928 46.512384,59.425775 30.751380,59.425775 C 14.990310,59.425775 2.2134643,46.648928 2.2134643,30.887901 C 2.2134643,15.126834 14.990310,2.3499800 30.751380,2.3499800 C 46.512384,2.3499800 59.289254,15.126834 59.289254,30.887901 z "
       id="path2133"
       sodipodi:nodetypes="ccccc" />
    <circle
       id="circle570"
       style="font-size:12.000000;fill:url(#linearGradient2803)"
       transform="matrix(1.985700e-3,0.000000,0.000000,1.985700e-3,0.297842,0.227107)"
       r="14267.000"
       cy="15011.000"
       cx="15010.000"
       sodipodi:cx="15010.000"
       sodipodi:cy="15011.000"
       sodipodi:rx="14267.000"
       sodipodi:ry="14267.000" />
    <circle
       id="circle572"
       style="font-size:12.000000;fill:url(#radialGradient2805)"
       transform="matrix(1.985700e-3,0.000000,0.000000,1.985700e-3,0.297842,0.227107)"
       r="12870.000"
       cy="15000.000"
       cx="15000.000"
       sodipodi:cx="15000.000"
       sodipodi:cy="15000.000"
       sodipodi:rx="12870.000"
       sodipodi:ry="12870.000" />
    <path
       sodipodi:nodetypes="ccsssccc"
       id="path571"
       style="font-size:12.000000;fill:url(#radialGradient2816);fill-opacity:1.0000000"
       d="M 30.079930,1.7044682 C 39.214221,1.7044682 47.352628,6.1444937 52.485610,12.995159 C 49.916168,10.169508 46.199804,10.408673 42.426861,12.248112 C 38.653943,14.087555 34.824492,17.527280 32.028857,21.102753 C 25.391829,29.324316 18.788907,28.295575 14.318112,29.232805 C 9.8473294,30.170056 7.5087049,33.073278 9.4003332,49.158760 C 4.8105526,44.113087 2.0000000,37.395453 2.0000000,30.034454 C 2.0000000,14.430825 14.614027,1.7044682 30.079930,1.7044682 z " />
    <path
       id="path847"
       d="M 57.398749,29.913698 C 57.398749,45.054233 45.124967,57.328041 29.984430,57.328041 C 14.843879,57.328041 2.5700532,45.054233 2.5700532,29.913698 C 2.5700532,14.773147 14.843879,2.4993150 29.984430,2.4993150 C 45.124967,2.4993150 57.398749,14.773147 57.398749,29.913698 z M 58.522304,29.913698 C 58.522304,45.674724 45.745435,58.451571 29.984430,58.451571 C 14.223360,58.451571 1.4465143,45.674724 1.4465143,29.913698 C 1.4465143,14.152630 14.223360,1.3757761 29.984430,1.3757761 C 45.745435,1.3757761 58.522304,14.152630 58.522304,29.913698 z "
       style="font-size:12.000000;fill:#a90000;fill-opacity:1.0000000;fill-rule:evenodd;stroke-width:1.0000000" />
    <path
       style="font-size:12.000000;fill:url(#linearGradient2812);stroke:#a90000;stroke-width:0.81178999;stroke-miterlimit:4.0000000;stroke-opacity:1.0000000"
       d="M 17.968750,13.000000 L 13.000000,17.968750 L 24.687500,29.656250 C 24.808330,29.769676 24.876871,29.928023 24.876871,30.093750 C 24.876871,30.259477 24.808330,30.417824 24.687500,30.531250 L 13.000000,42.218750 L 17.968750,47.187500 L 29.656250,35.500000 C 29.769676,35.379170 29.928023,35.310629 30.093750,35.310629 C 30.259477,35.310629 30.417824,35.379170 30.531250,35.500000 L 42.218750,47.187500 L 47.187500,42.218750 L 35.500000,30.531250 C 35.379170,30.417824 35.310629,30.259477 35.310629,30.093750 C 35.310629,29.928023 35.379170,29.769676 35.500000,29.656250 L 47.187500,17.968750 L 42.218750,13.000000 L 30.531250,24.687500 C 30.417824,24.808330 30.259477,24.876871 30.093750,24.876871 C 29.928023,24.876871 29.769676,24.808330 29.656250,24.687500 L 17.968750,13.000000 z "
       id="path2788" />
  </g>
</svg>
