<?xml version="1.0" encoding="UTF-8" standalone="no"?>
<!-- Created with Sodipodi ("http://www.sodipodi.com/") -->
<svg
   xmlns:xml="http://www.w3.org/XML/1998/namespace"
   xmlns:dc="http://purl.org/dc/elements/1.1/"
   xmlns:cc="http://web.resource.org/cc/"
   xmlns:rdf="http://www.w3.org/1999/02/22-rdf-syntax-ns#"
   xmlns:svg="http://www.w3.org/2000/svg"
   xmlns="http://www.w3.org/2000/svg"
   xmlns:xlink="http://www.w3.org/1999/xlink"
   xmlns:sodipodi="http://inkscape.sourceforge.net/DTD/sodipodi-0.dtd"
   xmlns:inkscape="http://www.inkscape.org/namespaces/inkscape"
   version="1.0"
   x="0"
   y="0"
   width="48.00000pt"
   height="48.00000pt"
   id="svg559"
   xml:space="preserve"
   sodipodi:version="0.32"
   sodipodi:docname="gnome-fs-trash-full.svg"
   sodipodi:docbase="/home/david/.icons/eXperience/normal/filesystems"
   inkscape:version="0.41+cvs"><metadata
   id="metadata149"><rdf:RDF
     id="RDF151"><cc:Work
       rdf:about=""
       id="Work153"><dc:format
         id="format155">image/svg+xml</dc:format><dc:type
         id="type157"
         rdf:resource="http://purl.org/dc/dcmitype/StillImage" /></cc:Work></rdf:RDF></metadata>
  <sodipodi:namedview
   id="base"
   inkscape:zoom="3.3488577"
   inkscape:cx="102.84448"
   inkscape:cy="-7.0191134"
   inkscape:window-width="1022"
   inkscape:window-height="723"
   inkscape:window-x="40"
   inkscape:window-y="0"
   inkscape:current-layer="svg559"
   showguides="true"
   inkscape:guide-bbox="true" />
  <defs
   id="defs672"><linearGradient
     id="linearGradient2829">
    <stop
   id="stop2831"
   style="stop-color:#000000;stop-opacity:0.63265306;"
   offset="0.0000000" /><stop
   offset="0.0000000"
   style="stop-color:#000000;stop-opacity:0.48979592;"
   id="stop2833" />






    <stop
   id="stop2837"
   style="stop-color:#000000;stop-opacity:0.0000000;"
   offset="1.0000000" />






  </linearGradient><radialGradient
     gradientUnits="userSpaceOnUse"
     gradientTransform="scale(1.762174,0.567481)"
     fy="59993.841"
     fx="9877.0660"
     r="1431.3176"
     cy="59993.841"
     cx="9877.0660"
     id="radialGradient3641"
     xlink:href="#linearGradient2829" /><linearGradient
     id="linearGradient2934">
  <stop
   id="stop2935"
   style="stop-color:#eeefd2;stop-opacity:1.0000;"
   offset="0" />



  <stop
   id="stop2936"
   style="stop-color:#cda73f;stop-opacity:1.0000;"
   offset="1" />



</linearGradient><linearGradient
     id="linearGradient739">
    <stop
   offset="0.0000000"
   style="stop-color:#000000;stop-opacity:0.51020408;"
   id="stop741" /><stop
   id="stop4096"
   style="stop-color:#000000;stop-opacity:0.0000000;"
   offset="0.0000000" /><stop
   offset="0.82456142"
   style="stop-color:#000000;stop-opacity:0.12941176;"
   id="stop4106" />






    <stop
   offset="1.0000000"
   style="stop-color:#000000;stop-opacity:0.0000000;"
   id="stop743" />






  </linearGradient><linearGradient
     id="linearGradient3098"><stop
       style="stop-color:#a7c6ec;stop-opacity:1.0000000;"
       offset="0.0000000"
       id="stop3100" /><stop
       style="stop-color:#ffffff;stop-opacity:0.0000000;"
       offset="1.0000000"
       id="stop3102" /></linearGradient><linearGradient
     id="linearGradient816">
    <stop
   offset="0"
   style="stop-color:#ffffff;stop-opacity:0.8863;"
   id="stop817" />







    <stop
   offset="1.0000000"
   style="stop-color:#ffffff;stop-opacity:0.0000000;"
   id="stop818" />







  </linearGradient><linearGradient
     id="linearGradient787">
    <stop
   offset="0"
   style="stop-color:#ffffff;stop-opacity:1.0000;"
   id="stop789" />







    <stop
   offset="1"
   style="stop-color:#a7caff;stop-opacity:1.0000;"
   id="stop788" />







  </linearGradient><linearGradient
     y2="26610"
     x2="-2598"
     y1="21628"
     x1="19681"
     gradientUnits="userSpaceOnUse"
     id="linearGradient3129"><stop
       id="stop3131"
       style="stop-color:#80ff3d;stop-opacity:1.0000000;"
       offset="0.0000000" /><stop
       id="stop3133"
       style="stop-color:#06a700;stop-opacity:1.0000000;"
       offset="1.0000000" /></linearGradient><radialGradient
     inkscape:collect="always"
     xlink:href="#linearGradient787"
     id="radialGradient3444"
     gradientUnits="userSpaceOnUse"
     gradientTransform="matrix(0.741704,-5.709515e-17,0.000000,1.348247,-14.88221,-61.47180)"
     cx="76.429031"
     cy="42.388439"
     fx="75.405251"
     fy="42.100262"
     r="23.251600" /><radialGradient
     inkscape:collect="always"
     xlink:href="#linearGradient787"
     id="radialGradient3446"
     gradientUnits="userSpaceOnUse"
     gradientTransform="matrix(0.741556,-5.708375e-17,0.000000,1.348516,-14.88221,-59.68516)"
     cx="36.235981"
     cy="40.595402"
     fx="36.235981"
     fy="40.595402"
     r="20.875322" /><radialGradient
     inkscape:collect="always"
     xlink:href="#linearGradient3129"
     id="radialGradient3448"
     gradientUnits="userSpaceOnUse"
     gradientTransform="matrix(0.741023,-2.810384e-2,8.176624e-2,2.155958,-18.94751,-99.08777)"
     cx="32.495594"
     cy="49.930374"
     fx="32.495594"
     fy="49.930374"
     r="20.875322" /><radialGradient
     inkscape:collect="always"
     xlink:href="#linearGradient3129"
     id="radialGradient3450"
     gradientUnits="userSpaceOnUse"
     gradientTransform="matrix(0.741700,-2.348220e-3,4.588116e-3,1.449186,-15.08840,-65.84499)"
     cx="71.970230"
     cy="44.999588"
     fx="70.946449"
     fy="44.711411"
     r="23.251600" /><linearGradient
     inkscape:collect="always"
     xlink:href="#linearGradient3129"
     id="linearGradient3452"
     gradientUnits="userSpaceOnUse"
     gradientTransform="matrix(1.118251,-8.608110e-17,0.000000,0.894254,-14.88221,-61.47180)"
     x1="23.388313"
     y1="-5.7868624"
     x2="33.546825"
     y2="16.484520" /><linearGradient
     inkscape:collect="always"
     xlink:href="#linearGradient3129"
     id="linearGradient3454"
     gradientUnits="userSpaceOnUse"
     gradientTransform="translate(-14.88221,-61.47180)"
     x1="29.017241"
     y1="1.2187502"
     x2="35.204742"
     y2="16.580818" /><linearGradient
     inkscape:collect="always"
     xlink:href="#linearGradient3129"
     id="linearGradient3456"
     gradientUnits="userSpaceOnUse"
     gradientTransform="translate(-14.88221,-61.47180)"
     x1="33.391163"
     y1="27.995689"
     x2="52.487068"
     y2="42.688202" /><radialGradient
     inkscape:collect="always"
     xlink:href="#linearGradient3129"
     id="radialGradient3458"
     gradientUnits="userSpaceOnUse"
     gradientTransform="matrix(-1.835281,-1.587866,1.330389,-1.537685,127.4206,45.94318)"
     cx="51.359165"
     cy="7.9099178"
     fx="51.359165"
     fy="7.9099178"
     r="7.5814556" /><linearGradient
     inkscape:collect="always"
     xlink:href="#linearGradient3129"
     id="linearGradient3460"
     gradientUnits="userSpaceOnUse"
     gradientTransform="matrix(0.860848,-6.626665e-17,0.000000,1.161646,-14.88221,-59.68516)"
     x1="3.2162819"
     y1="-1.0285689"
     x2="20.330252"
     y2="22.476402" /><radialGradient
     inkscape:collect="always"
     xlink:href="#linearGradient3129"
     id="radialGradient3462"
     gradientUnits="userSpaceOnUse"
     gradientTransform="matrix(3.277819,-1.621559e-7,7.344657e-8,1.399721,-62.60505,-73.20946)"
     cx="17.868340"
     cy="38.738316"
     fx="17.868340"
     fy="38.738316"
     r="10.726928" /><radialGradient
     inkscape:collect="always"
     xlink:href="#linearGradient739"
     id="radialGradient4104"
     gradientUnits="userSpaceOnUse"
     gradientTransform="matrix(1.004452,-2.051784e-2,9.228083e-3,0.333638,-252.9966,20179.76)"
     cx="17410.762"
     cy="29697.170"
     fx="17410.762"
     fy="29697.170"
     r="11313.720" /><radialGradient
     gradientUnits="userSpaceOnUse"
     gradientTransform="scale(1.762174,0.567481)"
     r="1431.3176"
     fy="59993.841"
     fx="9877.0660"
     cy="59993.841"
     cx="9877.0660"
     id="radialGradient2532"
     xlink:href="#linearGradient2829"
     inkscape:collect="always" /><radialGradient
     r="41351954."
     fy="1.6527217e+08"
     fx="69593246."
     cy="1.6527217e+08"
     cx="69593246."
     gradientTransform="matrix(1.941364e-3,0.000000,0.000000,1.933563e-3,18.81289,-4.169855)"
     gradientUnits="userSpaceOnUse"
     id="radialGradient2758"
     xlink:href="#linearGradient2934"
     inkscape:collect="always" /><radialGradient
     r="57868681."
     fy="87047477."
     fx="-1.1696003e+08"
     cy="87047477."
     cx="-1.1696003e+08"
     gradientTransform="matrix(1.860390e-3,0.000000,0.000000,2.150092e-3,75.01908,-4.195425)"
     gradientUnits="userSpaceOnUse"
     id="radialGradient2760"
     xlink:href="#linearGradient2934"
     inkscape:collect="always" /><radialGradient
     r="30272192."
     fy="1.2329952e+08"
     fx="-62398670."
     cy="1.2329952e+08"
     cx="-62398670."
     gradientTransform="matrix(1.897194e-3,0.000000,0.000000,1.978579e-3,72.45098,-8.317395)"
     gradientUnits="userSpaceOnUse"
     id="radialGradient2762"
     xlink:href="#linearGradient2934"
     inkscape:collect="always" /><radialGradient
     r="6985.1229"
     fy="20373.946"
     fx="11416.404"
     cy="20373.946"
     cx="11416.404"
     gradientTransform="matrix(1.712311e-3,0.000000,0.000000,2.192212e-3,18.81289,-4.169855)"
     gradientUnits="userSpaceOnUse"
     id="radialGradient2764"
     xlink:href="#linearGradient2934"
     inkscape:collect="always" /><radialGradient
     r="1602.0344"
     fy="14956.026"
     fx="12793.786"
     cy="14956.026"
     cx="12793.786"
     gradientTransform="matrix(2.012094e-3,0.000000,0.000000,1.865592e-3,18.81289,-4.169855)"
     gradientUnits="userSpaceOnUse"
     id="radialGradient2766"
     xlink:href="#linearGradient2934"
     inkscape:collect="always" /><radialGradient
     r="1304.1794"
     fy="15028.885"
     fx="15700.468"
     cy="15028.885"
     cx="15700.468"
     gradientTransform="matrix(2.078171e-3,0.000000,0.000000,1.806276e-3,18.81289,-4.169855)"
     gradientUnits="userSpaceOnUse"
     id="radialGradient2768"
     xlink:href="#linearGradient2934"
     inkscape:collect="always" /><radialGradient
     r="2985.6787"
     fy="27284.907"
     fx="15735.694"
     cy="27284.907"
     cx="15735.694"
     gradientTransform="matrix(1.969236e-3,0.000000,0.000000,1.906196e-3,18.81289,-4.169855)"
     gradientUnits="userSpaceOnUse"
     id="radialGradient2770"
     xlink:href="#linearGradient2934"
     inkscape:collect="always" /><radialGradient
     r="5247.3718"
     fy="6571.6636"
     fx="14948.041"
     cy="6571.6636"
     cx="14948.041"
     gradientTransform="matrix(2.014159e-3,0.000000,0.000000,1.863680e-3,18.81289,-4.169855)"
     gradientUnits="userSpaceOnUse"
     id="radialGradient2772"
     xlink:href="#linearGradient2934"
     inkscape:collect="always" /><radialGradient
     r="4777.8245"
     fy="7726.2844"
     fx="28743.412"
     cy="7726.2844"
     cx="28743.412"
     gradientTransform="matrix(1.709153e-3,0.000000,0.000000,2.196260e-3,18.81289,-4.169855)"
     gradientUnits="userSpaceOnUse"
     id="radialGradient2774"
     xlink:href="#linearGradient2934"
     inkscape:collect="always" /><radialGradient
     r="5344.0340"
     fy="24116.791"
     fx="20518.475"
     cy="24116.791"
     cx="20518.475"
     gradientTransform="matrix(1.984088e-3,0.000000,0.000000,1.891927e-3,18.81289,-4.169855)"
     gradientUnits="userSpaceOnUse"
     id="radialGradient2776"
     xlink:href="#linearGradient2934"
     inkscape:collect="always" /><linearGradient
     y2="6010.3395"
     x2="11610.255"
     y1="5701.0915"
     x1="9063.7703"
     gradientTransform="matrix(1.778266e-3,0.000000,0.000000,2.110903e-3,18.81289,-4.169855)"
     gradientUnits="userSpaceOnUse"
     id="linearGradient2778"
     xlink:href="#linearGradient2934"
     inkscape:collect="always" /><radialGradient
     r="3167.4658"
     fy="4463.9239"
     fx="24112.293"
     cy="4463.9239"
     cx="24112.293"
     gradientTransform="matrix(1.908135e-3,0.000000,0.000000,1.967234e-3,18.81289,-4.169855)"
     gradientUnits="userSpaceOnUse"
     id="radialGradient2780"
     xlink:href="#linearGradient2934"
     inkscape:collect="always" /><radialGradient
     r="3620.0488"
     fy="17849.277"
     fx="17933.322"
     cy="17849.277"
     cx="17933.322"
     gradientTransform="matrix(1.969096e-3,0.000000,0.000000,1.906330e-3,18.81289,-4.169855)"
     gradientUnits="userSpaceOnUse"
     id="radialGradient2782"
     xlink:href="#linearGradient2934"
     inkscape:collect="always" /><radialGradient
     r="23.251600"
     fy="44.711411"
     fx="70.946449"
     cy="44.999588"
     cx="71.970230"
     gradientTransform="matrix(1.406482e-3,-4.648341e-6,8.700421e-6,2.868688e-3,18.78427,-4.300195)"
     gradientUnits="userSpaceOnUse"
     id="radialGradient2784"
     xlink:href="#linearGradient2934"
     inkscape:collect="always" /><radialGradient
     r="5586.5075"
     fy="4438.3305"
     fx="19232.451"
     cy="4438.3305"
     cx="19232.451"
     gradientTransform="matrix(1.709042e-3,0.000000,0.000000,2.196407e-3,18.81289,-4.169855)"
     gradientUnits="userSpaceOnUse"
     id="radialGradient2786"
     xlink:href="#linearGradient2934"
     inkscape:collect="always" /><radialGradient
     r="6701.4407"
     fy="21046.764"
     fx="14236.478"
     cy="21046.764"
     cx="14236.478"
     gradientTransform="matrix(1.983126e-3,0.000000,0.000000,1.892844e-3,18.81289,-4.169855)"
     gradientUnits="userSpaceOnUse"
     id="radialGradient2788"
     xlink:href="#linearGradient2934"
     inkscape:collect="always" /><radialGradient
     r="2833.3671"
     fy="8895.4719"
     fx="13216.403"
     cy="8895.4719"
     cx="13216.403"
     gradientTransform="matrix(1.750639e-3,0.000000,0.000000,2.144215e-3,18.81289,-4.169855)"
     gradientUnits="userSpaceOnUse"
     id="radialGradient2790"
     xlink:href="#linearGradient2934"
     inkscape:collect="always" /><radialGradient
     r="4802.0726"
     fy="8154.8849"
     fx="23515.004"
     cy="8154.8849"
     cx="23515.004"
     gradientTransform="matrix(1.796463e-3,0.000000,0.000000,2.089523e-3,18.81289,-4.169855)"
     gradientUnits="userSpaceOnUse"
     id="radialGradient2792"
     xlink:href="#linearGradient2934"
     inkscape:collect="always" /><radialGradient
     r="2961.6727"
     fy="20717.618"
     fx="26639.377"
     cy="20717.618"
     cx="26639.377"
     gradientTransform="matrix(1.812725e-3,0.000000,0.000000,2.070777e-3,18.81289,-4.169855)"
     gradientUnits="userSpaceOnUse"
     id="radialGradient2794"
     xlink:href="#linearGradient2934"
     inkscape:collect="always" /><radialGradient
     r="4523.5688"
     fy="21961.082"
     fx="21153.560"
     cy="21961.082"
     cx="21153.560"
     gradientTransform="matrix(1.968597e-3,0.000000,0.000000,1.906815e-3,18.81289,-4.169855)"
     gradientUnits="userSpaceOnUse"
     id="radialGradient2796"
     xlink:href="#linearGradient2934"
     inkscape:collect="always" /><radialGradient
     r="5270.7079"
     fy="7427.7740"
     fx="-18426.593"
     cy="7427.7740"
     cx="-18426.593"
     gradientTransform="matrix(1.888325e-3,0.000000,0.000000,1.987873e-3,72.45098,-8.317395)"
     gradientUnits="userSpaceOnUse"
     id="radialGradient2798"
     xlink:href="#linearGradient2934"
     inkscape:collect="always" /><radialGradient
     r="5169.1358"
     fy="3527.5000"
     fx="19520.819"
     cy="3527.5000"
     cx="19520.819"
     gradientTransform="matrix(1.968041e-3,0.000000,0.000000,1.907352e-3,18.81289,-4.169855)"
     gradientUnits="userSpaceOnUse"
     id="radialGradient2800"
     xlink:href="#linearGradient2934"
     inkscape:collect="always" /><radialGradient
     r="5741.5900"
     fy="19516.345"
     fx="8503.5734"
     cy="19516.345"
     cx="8503.5734"
     gradientTransform="matrix(1.678462e-3,0.000000,0.000000,2.236423e-3,18.81289,-4.169855)"
     gradientUnits="userSpaceOnUse"
     id="radialGradient2802"
     xlink:href="#linearGradient2934"
     inkscape:collect="always" /><radialGradient
     r="3965.8209"
     fy="14187.559"
     fx="-11473.074"
     cy="14187.559"
     cx="-11473.074"
     gradientTransform="matrix(1.959316e-3,0.000000,0.000000,1.915846e-3,72.45098,-8.317395)"
     gradientUnits="userSpaceOnUse"
     id="radialGradient2804"
     xlink:href="#linearGradient2934"
     inkscape:collect="always" /><radialGradient
     r="2647.4778"
     fy="16030.865"
     fx="21543.169"
     cy="16030.865"
     cx="21543.169"
     gradientTransform="matrix(1.999433e-3,0.000000,0.000000,1.877406e-3,18.81289,-4.169855)"
     gradientUnits="userSpaceOnUse"
     id="radialGradient2806"
     xlink:href="#linearGradient2934"
     inkscape:collect="always" /><radialGradient
     r="3168.9501"
     fy="17733.198"
     fx="21122.878"
     cy="17733.198"
     cx="21122.878"
     gradientTransform="matrix(2.002893e-3,0.000000,0.000000,1.874163e-3,18.81289,-4.169855)"
     gradientUnits="userSpaceOnUse"
     id="radialGradient2808"
     xlink:href="#linearGradient2934"
     inkscape:collect="always" /><radialGradient
     r="5577.5233"
     fy="5377.5243"
     fx="2923.7080"
     cy="5377.5243"
     cx="2923.7080"
     gradientTransform="matrix(1.836114e-3,0.000000,0.000000,2.044398e-3,18.81289,-4.169855)"
     gradientUnits="userSpaceOnUse"
     id="radialGradient2810"
     xlink:href="#linearGradient2934"
     inkscape:collect="always" /><radialGradient
     r="4074.7440"
     fy="2872.6970"
     fx="17926.214"
     cy="2872.6970"
     cx="17926.214"
     gradientTransform="matrix(1.800519e-3,0.000000,0.000000,2.084815e-3,18.81289,-4.169855)"
     gradientUnits="userSpaceOnUse"
     id="radialGradient2812"
     xlink:href="#linearGradient2934"
     inkscape:collect="always" /><radialGradient
     r="3869.0721"
     fy="15387.049"
     fx="17123.109"
     cy="15387.049"
     cx="17123.109"
     gradientTransform="matrix(1.735047e-3,0.000000,0.000000,2.163485e-3,18.81289,-4.169855)"
     gradientUnits="userSpaceOnUse"
     id="radialGradient2814"
     xlink:href="#linearGradient2934"
     inkscape:collect="always" /><radialGradient
     r="5587.1332"
     fy="14211.517"
     fx="-14917.945"
     cy="14211.517"
     cx="-14917.945"
     gradientTransform="matrix(2.176226e-3,0.000000,0.000000,1.724890e-3,72.45098,-8.317395)"
     gradientUnits="userSpaceOnUse"
     id="radialGradient2816"
     xlink:href="#linearGradient2934"
     inkscape:collect="always" /><radialGradient
     r="4703.3739"
     fy="8025.1086"
     fx="19960.797"
     cy="8025.1086"
     cx="19960.797"
     gradientTransform="matrix(1.935941e-3,0.000000,0.000000,1.938978e-3,18.81289,-4.169855)"
     gradientUnits="userSpaceOnUse"
     id="radialGradient2818"
     xlink:href="#linearGradient2934"
     inkscape:collect="always" /><radialGradient
     r="6111.3141"
     fy="13348.984"
     fx="10028.233"
     cy="13348.984"
     cx="10028.233"
     gradientTransform="matrix(1.778410e-3,0.000000,0.000000,2.110733e-3,18.81289,-4.169855)"
     gradientUnits="userSpaceOnUse"
     id="radialGradient2820"
     xlink:href="#linearGradient2934"
     inkscape:collect="always" /><radialGradient
     r="4933.8773"
     fy="14291.296"
     fx="-21924.074"
     cy="14291.296"
     cx="-21924.074"
     gradientTransform="matrix(2.250333e-3,0.000000,0.000000,1.777518e-3,75.01908,-4.195425)"
     gradientUnits="userSpaceOnUse"
     id="radialGradient2822"
     xlink:href="#linearGradient2934"
     inkscape:collect="always" /><radialGradient
     r="6.1987742"
     fy="49.634001"
     fx="55.497156"
     cy="49.634001"
     cx="55.497156"
     gradientTransform="matrix(1.016400,0.000000,0.000000,0.983864,1.642355,-2.090265)"
     gradientUnits="userSpaceOnUse"
     id="radialGradient3263"
     xlink:href="#linearGradient2934"
     inkscape:collect="always" /><radialGradient
     r="6.8279020"
     fy="61.626922"
     fx="32.397487"
     cy="61.626922"
     cx="32.397487"
     gradientTransform="matrix(1.142325,0.000000,0.000000,0.875408,1.642355,-2.090265)"
     gradientUnits="userSpaceOnUse"
     id="radialGradient3266"
     xlink:href="#linearGradient2934"
     inkscape:collect="always" /><linearGradient
     y2="30.586987"
     x2="27.173445"
     y1="12.222516"
     x1="9.2568874"
     gradientUnits="userSpaceOnUse"
     id="linearGradient3273"
     xlink:href="#linearGradient816"
     inkscape:collect="always" /><linearGradient
     y2="74.500610"
     x2="62.857254"
     y1="-1.8121212"
     x1="-16.722118"
     gradientUnits="userSpaceOnUse"
     id="linearGradient3287"
     xlink:href="#linearGradient3098"
     inkscape:collect="always" /><radialGradient
     r="4.2327849"
     fy="55.607393"
     fx="42.295377"
     cy="55.607393"
     cx="42.295377"
     gradientTransform="matrix(1.139322,0.000000,0.000000,0.877715,-3.786753,-16.10950)"
     gradientUnits="userSpaceOnUse"
     id="radialGradient3326"
     xlink:href="#linearGradient2934"
     inkscape:collect="always" /><linearGradient
     y2="74.482552"
     x2="-18.961689"
     y1="-3.0065587"
     x1="55.171364"
     gradientUnits="userSpaceOnUse"
     id="linearGradient3329"
     xlink:href="#linearGradient3098"
     inkscape:collect="always" /><linearGradient
     y2="107.86775"
     x2="132.92793"
     y1="11.583967"
     x1="-103.07365"
     gradientUnits="userSpaceOnUse"
     id="linearGradient3332"
     xlink:href="#linearGradient3098"
     inkscape:collect="always" /></defs>
  
  
  
  
  
  
  
  
  
  
<path
   style="font-size:12.000000;fill:#ffffff;fill-opacity:0.50335568"
   d="M 51.468750 1.2500000 C 48.771647 1.0130819 45.281471 1.8827178 42.312500 3.7187500 C 34.329414 8.6555466 31.219046 10.446745 22.750000 12.718750 C 18.239666 10.606940 12.933715 9.2034076 8.6250000 9.1250000 C 6.2847305 9.0824131 4.2461816 9.3835198 2.8125000 10.187500 C 1.3788184 10.991480 0.59446379 12.453326 0.96875000 14.250000 L 8.5312500 50.156250 L 8.5625000 50.187500 C 8.7471572 50.798062 9.2101168 51.333234 9.5625000 51.906250 C 9.6977551 52.169803 9.7998009 52.442483 10.000000 52.687500 C 10.313397 53.080695 10.739314 53.426087 11.156250 53.781250 C 11.264631 53.859932 11.383984 53.924092 11.500000 54.000000 C 12.176241 54.527211 12.768052 55.097463 13.718750 55.500000 C 16.690831 56.758414 21.076455 57.373405 27.531250 56.968750 C 34.000431 56.563193 39.949387 55.016884 44.343750 52.875000 C 46.540932 51.804058 48.345566 50.573661 49.625000 49.250000 C 50.840880 47.992090 51.545518 46.610150 51.625000 45.187500 C 51.625694 45.175083 51.655659 45.168675 51.656250 45.156250 C 51.669432 45.126930 51.651440 45.109020 51.656250 45.093750 C 51.665871 45.063210 51.683227 45.050706 51.687500 45.031250 C 51.691522 45.012939 51.684101 44.987314 51.687500 44.968750 C 51.691324 44.947866 51.714875 44.930280 51.718750 44.906250 C 51.733389 44.815469 51.730299 44.715650 51.750000 44.562500 C 51.789402 44.256199 51.844772 43.802155 51.906250 43.250000 C 52.029206 42.145690 52.183394 40.590194 52.375000 38.718750 C 52.758211 34.975863 53.264150 30.006910 53.750000 25.031250 C 54.235850 20.055590 54.704341 15.064286 55.062500 11.312500 C 55.241579 9.4366071 55.396022 7.8906644 55.500000 6.7812500 C 55.551989 6.2265428 55.597141 5.7747501 55.625000 5.4687500 C 55.638930 5.3157500 55.648953 5.1782726 55.656250 5.0937500 C 55.659899 5.0514887 55.654241 5.0256469 55.656250 5.0000000 C 55.658259 4.9743531 55.656250 5.0124097 55.656250 4.9375000 C 55.670302 4.7876392 55.711532 4.6529770 55.718750 4.5000000 L 55.531250 4.5000000 C 55.467236 3.7406781 55.272339 3.0625216 54.781250 2.5625000 C 54.003318 1.7704182 52.817302 1.3684590 51.468750 1.2500000 z "
   id="path3231" /><ellipse
   sodipodi:ry="3771.2412"
   sodipodi:rx="11313.720"
   sodipodi:cy="29730.625"
   sodipodi:cx="17509.328"
   d="M 28823.048 29730.625 A 11313.720 3771.2412 0 1 0 6195.6084,29730.625 A 11313.720 3771.2412 0 1 0 28823.048 29730.625 z"
   id="ellipse4102"
   style="font-size:12.000000;fill:url(#radialGradient4104)"
   transform="matrix(2.123013e-3,-2.995810e-4,2.265316e-4,2.502918e-3,-15.53112,-19.50482)"
   ry="3771.2412"
   rx="11313.720"
   cy="29730.625"
   cx="17509.328" /><path
   d="M 28.512415,39.574642 C 40.036235,37.904784 50.115252,40.281741 50.947326,44.868803 C 51.779398,49.454063 43.059928,54.557868 31.536128,56.227687 C 20.010490,57.899346 9.9332728,55.520629 9.1012208,50.935347 C 8.2691485,46.348266 16.988597,41.244481 28.512415,39.574642 z "
   style="font-size:12.000000;fill:url(#linearGradient3332);fill-opacity:1.0000000"
   id="path779" /><path
   d="M 1.5292585,13.885206 C 1.4730633,17.103393 10.721828,15.524221 16.058652,14.575983 C 36.638858,12.164680 39.859270,1.7766670 51.308362,1.4199561 C 54.092534,1.6089114 55.560627,4.5804316 55.081847,5.8977403 L 50.992620,45.269515 C 41.011495,32.815500 9.0631440,43.532571 9.1320380,50.888203 L 1.5292585,13.885206 z "
   style="font-size:12.000000;fill:url(#linearGradient3329);fill-opacity:1.0000000"
   id="path594"
   sodipodi:nodetypes="ccccccc" /><path
   d="M 50.142280,36.797888 L 50.449890,36.981124 C 47.613370,39.221850 47.729810,38.795474 45.419920,35.867111 C 45.077530,35.435315 44.168510,35.522382 43.700960,35.683855 L 43.730500,35.683855 C 43.468060,35.691116 43.297740,35.825387 43.120450,36.003202 L 43.049200,36.090290 L 40.443810,34.404749 L 40.622160,32.230988 L 42.942650,29.636492 C 42.377750,30.632556 44.613450,29.217518 44.613450,30.371454 L 45.948420,29.990462 C 45.948420,30.694440 45.282610,31.184281 45.748420,31.423781 L 46.891180,31.042789 C 47.753250,31.494547 50.823580,31.703184 51.826460,31.133477 C 50.807940,32.486989 50.908740,33.356062 51.176410,35.192175 L 50.142280,36.797888 z "
   style="font-size:12.000000;fill:url(#radialGradient3326)"
   id="path2334"
   sodipodi:nodetypes="ccccccccccccccccc" /><path
   style="opacity:1.0000000;color:#000000;fill:none;fill-opacity:1.0000000;fill-rule:nonzero;stroke:#7a97d6;stroke-width:1.0000000;stroke-linecap:butt;stroke-linejoin:miter;marker:none;marker-start:none;marker-mid:none;marker-end:none;stroke-miterlimit:4.0000000;stroke-dasharray:none;stroke-dashoffset:0.0000000;stroke-opacity:1.0000000;visibility:visible;display:inline;overflow:visible;font-family:Bitstream Vera Sans"
   d="M 9.4061924,51.265678 C 8.0723557,47.123257 17.077996,41.173298 30.532799,39.843873 C 44.062254,38.514448 51.776124,42.800539 51.062188,46.040016"
   id="path3126"
   sodipodi:nodetypes="czc" /><path
   d="M 1.5217331,13.867470 C 1.5692924,17.402400 9.2459565,16.637162 20.176051,13.942537 C 31.106145,11.247912 33.725972,9.6261417 42.579317,4.1511712 C 48.336977,0.59059369 56.281497,0.73916439 55.017760,5.7930739"
   style="font-size:12.000000;fill:none;fill-opacity:1.0000000;stroke:#7a97d6;stroke-opacity:1.0000000"
   id="path596"
   sodipodi:nodetypes="czsc" /><g
   transform="translate(-18.06586,1.493047)"
   id="g2722"><path
     d="M 33.433318,37.815703 L 30.795572,34.961239 L 36.715805,36.247925 L 42.874971,43.439510 L 39.180988,47.376770 L 32.629289,49.694784 L 35.896605,42.315145 C 33.740518,42.788249 31.262060,43.609749 29.128728,43.552343 L 29.373350,43.552343 C 28.995988,43.160399 28.650862,43.106952 28.081973,43.106952 C 28.635692,42.530912 30.122387,41.980606 29.707098,41.040336 L 33.433318,37.815703 z "
     style="fill:url(#radialGradient2758)"
     id="path1066" /><path
     d="M 41.715018,30.387640 L 40.746017,34.219980 L 38.726462,28.271524 L 41.421102,19.041053 L 46.561943,20.296058 L 51.860191,24.938025 L 44.121422,25.854542 C 45.627079,27.531202 47.585959,29.316711 48.645973,31.248732 L 48.520823,31.030974 C 48.393774,31.571379 48.530302,31.905927 48.826118,32.414670 C 48.065720,32.220674 46.844500,31.179447 46.288885,32.038558 L 41.715018,30.387640 z "
     style="fill:url(#radialGradient2760)"
     id="path1068" /><path
     d="M 52.934825,30.368756 L 49.523391,32.112711 L 52.511951,26.625489 L 60.959937,22.713964 L 63.415637,27.593473 L 63.518037,34.812772 L 57.793127,29.303776 C 57.561777,31.590118 57.550397,34.304036 56.844980,36.406283 L 56.918935,36.162802 C 56.446758,36.416181 56.291262,36.742801 56.116803,37.308943 C 55.760299,36.582460 55.716684,34.937481 54.730611,35.060211 L 52.934825,30.368756 z "
     style="fill:url(#radialGradient2762)"
     id="path1070" /><path
     d="M 31.174831,35.691681 L 28.597766,38.605530 L 29.485232,32.362133 L 36.008486,25.526861 L 39.986913,29.149377 L 42.582941,35.842124 L 35.335302,32.864931 L 38.081137,43.431592 L 31.174831,35.691681 z "
     style="fill:url(#radialGradient2764)"
     id="path1072" /><path
     d="M 43.624007,33.884382 L 47.346434,34.672230 L 41.773223,37.120892 L 32.792370,34.846427 L 33.693110,29.416612 L 37.827033,23.626525 L 39.150647,31.637630 L 46.377428,23.705705 L 43.624007,33.884382 z "
     style="fill:url(#radialGradient2766)"
     id="path1074" /><path
     d="M 50.306551,31.960291 L 52.170609,35.414548 L 46.749101,32.617491 L 42.520364,24.038264 L 47.044923,21.197657 L 53.943645,20.673085 L 49.005692,26.960031 L 59.480827,27.474706 L 50.306551,31.960291 z "
     style="fill:url(#radialGradient2768)"
     id="path1076" /><path
     d="M 51.819794,47.301548 C 55.197096,46.301892 51.753424,51.658465 49.127055,51.658465 C 48.518345,51.446657 47.367294,51.282357 46.840124,51.842560 C 44.003266,54.792040 41.813045,50.676625 41.031772,48.083457 L 41.560838,44.747971 C 42.033016,44.593569 42.222645,44.965718 42.673963,44.965718 L 42.673963,44.965718 C 42.964097,44.965718 43.191652,44.910292 43.443859,44.755889 L 44.162555,46.883870 C 45.252925,44.959779 46.341398,41.687638 48.258552,40.686002 L 48.258552,40.686002 C 49.000004,40.299996 49.254107,39.539862 49.686462,38.884642 C 51.184535,39.761568 51.440535,45.361621 51.819794,47.301548 z M 54.734400,46.438479 L 55.473955,46.218752 L 54.891792,46.945235 C 54.825422,46.778956 54.806459,46.604758 54.734400,46.438479 z "
     style="fill:url(#radialGradient2770)"
     id="path1078" /><path
     d="M 42.416067,9.4393264 C 39.861758,6.9589916 44.460273,7.6478635 45.582880,7.8774875 C 46.187798,8.3822643 46.959590,8.8533894 47.382464,9.5798721 C 47.524686,10.233113 47.985486,11.345601 48.719352,11.523758 C 52.606757,12.523414 50.372921,16.615076 48.656774,18.657937 L 45.649250,19.916910 C 45.277576,19.576433 45.484273,19.214181 45.249132,18.810360 L 45.249132,18.810360 C 45.099325,18.553023 44.936243,18.376846 44.680244,18.232341 L 46.049369,16.486407 C 43.906555,16.514120 40.661994,17.240603 38.847240,16.048934 L 38.847240,16.048934 C 38.145611,15.587706 37.390886,15.755965 36.630471,15.710436 C 36.571686,13.918973 41.024187,10.781439 42.416067,9.4393264 z M 40.197402,7.2856119 L 39.632306,6.7392652 L 40.531150,6.8817904 C 40.428750,7.0262952 40.296009,7.1351686 40.197402,7.2856119 z "
     style="fill:url(#radialGradient2772)"
     id="path1080" /><path
     d="M 67.225297,15.013646 C 67.348557,11.373314 69.859247,15.455079 70.426237,16.492345 C 70.456577,17.299988 70.621557,18.216505 70.371247,19.024148 C 69.991987,19.564556 69.487577,20.657249 69.838387,21.354039 C 71.656937,25.077511 67.232877,25.990068 64.629267,25.970273 L 61.748797,24.422291 C 61.752587,23.905637 62.150807,23.830415 62.289237,23.381065 L 62.289237,23.381065 C 62.378367,23.094035 62.397327,22.850554 62.334747,22.553627 L 64.494627,22.492262 C 63.074307,20.819570 60.425177,18.733159 60.100917,16.520059 L 60.100917,16.520059 C 59.975757,15.664907 59.361357,15.179926 58.896767,14.548460 C 60.155907,13.331057 65.340377,14.793920 67.225297,15.013646 z M 67.331487,11.852358 L 67.359927,11.050653 L 67.843487,11.852358 C 67.672817,11.866214 67.507847,11.832562 67.331487,11.852358 z "
     style="fill:url(#radialGradient2774)"
     id="path1082" /><path
     d="M 56.236265,48.350692 C 57.165450,51.884130 52.062520,48.241819 52.085275,45.500188 C 52.293868,44.866742 52.462638,43.667155 51.929779,43.112890 C 49.128952,40.125799 53.090312,37.875088 55.580147,37.081302 L 58.771607,37.663280 C 58.915727,38.156180 58.557327,38.352152 58.555437,38.823277 L 58.553537,38.825256 C 58.551637,39.126143 58.600947,39.365664 58.746957,39.628940 L 56.702754,40.361361 C 58.538367,41.515420 61.661567,42.679376 62.604027,44.690565 L 62.604027,44.690565 C 62.968117,45.468515 63.694397,45.739709 64.318277,46.196978 C 63.464937,47.750898 58.096527,47.970625 56.236265,48.350692 z "
     style="fill:url(#radialGradient2776)"
     id="path1084" /><path
     d="M 40.982468,4.9517614 C 43.396452,2.2893110 43.058911,8.7346184 40.804217,10.136116 C 40.176543,10.278642 39.107033,10.749767 38.928781,11.513860 C 37.937019,15.563952 34.038236,13.196450 32.096430,11.385192 L 30.916934,8.2357801 C 31.244993,7.8517538 31.590119,8.0695007 31.978860,7.8279996 L 31.980756,7.8279996 C 32.227274,7.6755768 32.397941,7.5053383 32.536370,7.2381035 L 34.197525,8.6831509 C 34.191836,6.4462967 33.524340,3.0534046 34.681080,1.1689044 L 34.681080,1.1708839 C 34.927598,0.77102146 34.992072,0.35136386 35.009139,-0.076211836 C 35.204457,-0.036621536 35.413050,-0.016826336 35.667153,-0.016826336 L 35.505968,-0.18706474 L 35.505968,-0.18706474 C 35.815064,0.13757596 36.291034,0.22863376 36.664605,0.42460596 L 36.664605,0.42262646 C 36.907330,0.55129506 37.197463,0.51962276 37.462945,0.52358186 C 38.820692,2.0022811 40.210676,4.0669173 40.982468,4.9517614 z "
     style="fill:url(#linearGradient2778)"
     id="path1086" /><path
     d="M 69.536877,10.945739 C 73.046917,11.110039 68.154477,15.057196 65.664647,14.196106 C 65.150747,13.794264 64.109687,13.259794 63.440287,13.616107 C 59.856297,15.484771 59.020027,10.858640 59.063637,8.1387838 L 60.573087,5.1477336 C 61.350577,5.1615902 61.403667,5.9949668 62.355607,5.7732609 L 62.395427,8.0299103 C 64.011077,6.5630882 66.032527,3.8155186 68.154477,3.4948369 L 68.154477,3.4968164 C 68.973677,3.3740863 69.445857,2.7347023 70.054567,2.2556592 C 71.209407,3.5799561 69.762537,8.9820580 69.536877,10.945739 z "
     style="fill:url(#radialGradient2780)"
     id="path1088" /><path
     d="M 55.938547,34.450524 C 59.293097,33.456806 56.342458,37.204032 55.572562,38.084917 C 54.844385,38.364029 54.059319,38.807441 53.245808,38.807441 C 52.637097,38.595632 51.486046,38.431332 50.958876,38.993515 C 48.122019,41.942996 45.931798,37.827580 45.150525,35.234412 L 45.679591,31.898926 C 46.149872,31.742544 46.339502,32.114694 46.792716,32.114694 L 46.792716,32.116673 C 47.082849,32.116673 47.310405,32.061247 47.562612,31.906844 L 48.281308,34.034825 C 49.371677,32.108755 50.460151,28.836614 52.377305,27.834978 L 52.377305,27.834978 C 53.118756,27.448972 53.372860,26.688838 53.805215,26.033617 C 55.301392,26.910543 55.559288,32.512577 55.938547,34.450524 z M 58.851257,33.587454 L 59.592707,33.367728 L 59.010547,34.096190 C 58.944177,33.929911 58.925207,33.755713 58.851257,33.587454 z "
     style="fill:url(#radialGradient2782)"
     id="path1090" /><path
     d="M 29.756402,12.432356 C 27.200196,9.9540008 31.800608,10.642873 32.921318,10.872497 C 33.528133,11.377274 34.298028,11.846419 34.720902,12.572902 C 34.863124,13.226142 35.325820,14.338631 36.059686,14.518767 C 39.947091,15.518423 37.713256,19.608105 35.995212,21.652946 L 32.989585,22.911919 C 32.617911,22.571442 32.824607,22.209191 32.589467,21.803390 L 32.589467,21.803390 C 32.439659,21.546052 32.276578,21.371855 32.018682,21.227350 L 33.387807,19.481416 C 31.246890,19.507150 28.002329,20.233633 26.187575,19.041963 L 26.187575,19.041963 C 25.485946,18.580736 24.731220,18.750974 23.970806,18.703466 C 23.912021,16.913983 28.364521,13.776448 29.756402,12.432356 z M 27.535840,10.280621 L 26.972641,9.7342745 L 27.871485,9.8748202 C 27.769085,10.019325 27.636344,10.128198 27.535840,10.280621 z "
     style="fill:url(#radialGradient2784)"
     id="path1092" /><path
     d="M 56.772917,6.9768072 C 56.896176,3.3384550 59.406867,7.4202191 59.973867,8.4555065 C 60.004207,9.2651289 60.169177,10.179666 59.918867,10.989288 C 59.539607,11.529696 59.035197,12.622390 59.386007,13.317200 C 61.204557,17.040672 56.780502,17.955209 54.176889,17.935413 L 51.296417,16.385452 C 51.300209,15.870777 51.698431,15.795555 51.836861,15.346205 L 51.836861,15.346205 C 51.925987,15.059175 51.944950,14.815695 51.882372,14.518767 L 54.044148,14.457402 C 52.621927,12.782731 49.972803,10.698299 49.648536,8.4851992 L 49.648536,8.4851992 C 49.523381,7.6300479 48.908981,7.1450662 48.444389,6.5136003 C 49.703529,5.2942178 54.889896,6.7590604 56.772917,6.9768072 z M 56.879109,3.8174981 L 56.907554,3.0138142 L 57.391109,3.8155186 C 57.220442,3.8293752 57.055465,3.7977030 56.879109,3.8174981 z "
     style="fill:url(#radialGradient2786)"
     id="path1094" /><path
     d="M 49.821099,42.897123 L 50.156743,43.097054 C 47.061990,45.541757 47.189042,45.076571 44.668866,41.881631 C 44.295296,41.410505 43.303533,41.505522 42.793430,41.681699 L 42.825667,41.681699 C 42.539326,41.689617 42.353490,41.836102 42.160067,42.030094 L 42.082319,42.125111 L 39.239773,40.286140 L 41.720127,35.420487 L 45.290851,32.797627 C 44.674555,33.884382 43.788985,34.626701 43.788985,35.885674 L 43.790881,35.885674 C 43.790881,36.653726 44.519058,36.772497 45.027266,37.033793 L 45.027266,37.033793 C 45.967828,37.526693 50.564447,37.338639 51.658609,36.717071 C 50.547380,38.193790 50.657365,39.141979 50.949395,41.145250 L 49.821099,42.897123 z "
     style="fill:url(#radialGradient2788)"
     id="path1096" /><path
     d="M 39.846588,13.507234 L 39.837106,13.105392 C 43.443859,14.597948 42.998230,14.724637 41.689786,18.632203 C 41.496364,19.210222 42.089905,20.045579 42.499504,20.407830 L 42.482438,20.380117 C 42.636038,20.631516 42.854111,20.720594 43.112008,20.791856 L 43.231474,20.813631 L 43.201133,24.303520 L 37.929433,24.616283 L 33.928251,22.791169 C 35.138087,22.777312 36.205701,23.181133 37.235389,22.527893 L 37.235389,22.525913 C 37.863063,22.128030 37.582411,21.417384 37.535004,20.827488 L 37.533108,20.827488 C 37.447774,19.732815 34.908635,15.728252 33.833436,15.075011 C 35.617850,15.300676 36.338442,14.708801 37.827033,13.408258 L 39.846588,13.507234 z "
     style="fill:url(#radialGradient2790)"
     id="path1098" /><path
     d="M 62.596437,15.647092 L 62.880887,15.375898 C 64.160887,19.200325 63.775937,18.931110 60.089537,20.455339 C 59.545297,20.681003 59.327227,21.696496 59.332917,22.256699 L 59.342397,22.223047 C 59.260857,22.510077 59.338607,22.739701 59.456177,22.991100 L 59.516857,23.099973 L 56.970131,25.356623 L 53.293215,21.401548 L 51.998046,17.048590 C 52.800179,17.994799 53.205986,19.101349 54.353244,19.487355 L 54.353244,19.487355 C 55.052977,19.720938 55.384829,19.034045 55.779258,18.610429 L 55.779258,18.610429 C 56.516917,17.826540 57.757097,13.202388 57.525747,11.925600 C 58.530787,13.481500 59.429627,13.663616 61.344887,13.988256 L 62.596437,15.647092 z "
     style="fill:url(#radialGradient2792)"
     id="path1100" /><path
     d="M 60.472587,46.301892 L 60.279167,46.650287 C 57.963787,43.397941 58.407527,43.536507 61.490897,40.931462 C 61.946007,40.547436 61.862577,39.510169 61.697597,38.977679 L 61.697597,39.011331 C 61.693807,38.712424 61.555377,38.516452 61.369537,38.314541 L 61.280407,38.229422 L 63.066717,35.279941 L 67.706957,37.910719 L 70.187307,41.661904 C 69.151927,41.008664 68.448407,40.078291 67.240467,40.068393 L 67.240467,40.068393 C 66.506597,40.064434 66.387137,40.822589 66.131137,41.349140 L 66.131137,41.349140 C 65.651367,42.327022 65.789797,47.127351 66.375757,48.273491 C 64.972497,47.101617 64.062277,47.208511 62.141327,47.495541 L 60.472587,46.301892 z "
     style="fill:url(#radialGradient2794)"
     id="path1102" /><path
     d="M 56.374695,45.438823 L 57.351287,49.271167 L 52.773631,45.145854 L 50.737010,35.735230 L 55.798221,34.165473 L 62.602127,35.460077 L 56.896176,37.453451 L 66.332137,43.492957 L 56.374695,45.438823 z "
     style="fill:url(#radialGradient2796)"
     id="path1104" /><path
     d="M 39.605768,10.258845 L 33.509179,16.405243 L 29.595226,12.705526 L 27.124354,5.9613134 L 31.717180,10.017344 L 31.736143,5.4901884 C 33.549001,5.1457524 33.037002,2.3526539 35.961089,3.5720364 C 36.704436,3.8828206 37.483814,5.1239777 38.039428,5.7732593 C 38.009087,6.4106638 38.024258,7.0757815 38.490746,7.5627427 L 38.492642,7.5607632 C 39.376316,8.4832181 39.266331,8.9761178 39.605768,10.258845 z "
     style="fill:url(#radialGradient2798)"
     id="path1106" /><path
     d="M 69.483787,10.906148 L 65.552767,13.402319 L 56.348147,12.539250 L 56.471406,7.0282747 L 59.738727,0.66808656 L 59.805097,6.9471145 L 62.867607,4.2054835 C 62.988967,4.2510124 63.112227,4.2589304 63.239287,4.2589304 L 63.239287,4.2589304 C 64.335337,4.2589304 65.055937,2.8514938 66.258187,2.8336782 L 66.459187,3.1523804 L 66.459187,3.1523804 C 66.654507,3.4552465 67.081177,3.5918332 67.418717,3.6294440 C 66.737947,5.1695083 65.433297,6.1889595 66.402307,8.2140054 L 66.402307,8.1843126 C 66.402307,11.503963 67.797977,9.9916117 69.478097,10.870517 L 69.466717,10.858640 L 69.487577,10.878435 L 69.483787,10.906148 z "
     style="fill:url(#radialGradient2800)"
     id="path1108" /><path
     d="M 32.989585,48.396221 L 32.648252,48.997994 C 32.052815,48.730759 31.455482,48.756493 30.890386,49.112806 L 30.664727,45.512065 C 32.268993,42.907020 33.550888,40.749347 36.139331,39.395357 C 36.827686,40.036721 38.693640,40.436583 39.289077,39.488394 C 39.653165,39.698223 39.759358,40.064434 40.028632,40.341566 L 40.026736,40.341566 C 40.559594,40.895831 40.563387,41.349140 40.965402,41.766819 L 40.954024,41.754941 C 41.003328,41.857876 41.058320,41.952893 41.137964,42.034053 L 41.136068,42.034053 L 41.056424,41.950914 C 41.103831,42.142927 41.050735,42.313165 41.149342,42.517055 L 41.149342,42.517055 L 41.143653,42.509137 C 41.143653,42.758557 41.238468,43.114870 41.373105,43.324698 L 41.373105,43.324698 C 41.642379,43.748315 42.423652,44.567835 42.423652,45.104284 L 38.809314,43.184153 C 39.086173,44.435207 39.785906,45.905989 39.226499,47.075883 C 38.847240,47.632127 38.858618,49.138540 39.186677,49.821473 L 39.186677,49.821473 C 39.651269,50.781539 39.234084,52.416620 39.685402,53.063922 C 37.176604,52.091979 38.198707,49.918470 34.914324,49.795740 L 32.989585,48.396221 z M 35.358057,37.888945 L 35.661465,37.396045 L 36.053998,37.621710 C 35.777138,37.671198 35.578028,37.764235 35.358057,37.888945 z "
     style="fill:url(#radialGradient2802)"
     id="path1110" /><path
     d="M 53.086529,25.671362 L 53.755915,25.663444 C 53.845041,26.332521 54.176893,26.853134 54.760952,27.173816 L 51.929789,29.242411 C 48.963983,29.163230 46.532933,29.139476 44.081024,27.532108 C 44.247898,26.583920 43.606950,24.713276 42.522269,24.673686 C 42.503306,24.242151 42.747928,23.955121 42.837054,23.571095 L 42.837054,23.571095 C 43.017202,22.808981 43.383187,22.569459 43.515928,21.995399 L 43.512135,22.011235 C 43.559543,21.932055 43.690387,21.518336 43.620224,21.819222 C 43.752965,21.676697 43.919839,21.637107 44.035513,21.441134 L 44.037409,21.443114 L 44.031720,21.451032 C 44.917290,20.888849 44.691631,19.471515 45.493764,18.958820 L 45.797171,23.185089 C 46.677052,22.288368 47.519007,20.898747 48.766769,20.791853 C 49.521494,20.849259 53.211684,17.830495 53.431655,17.274251 C 53.937960,20.017862 51.628278,20.233629 53.232544,23.226659 L 53.086529,25.671362 z "
     style="fill:url(#radialGradient2804)"
     id="path1112" /><path
     d="M 62.446627,34.056600 L 62.890367,34.581172 C 62.463697,35.089908 62.302517,35.691681 62.452317,36.362737 L 59.101567,35.481852 C 57.218546,33.088616 55.644621,31.154628 55.206577,28.165557 C 56.001125,27.678596 56.939791,25.948498 56.257124,25.065634 C 56.558635,24.768706 56.924620,24.772665 57.262161,24.592529 L 57.262161,24.592529 C 57.931557,24.236216 58.344947,24.368844 58.849357,24.097650 L 58.834187,24.105568 C 58.923317,24.089732 59.304467,23.921473 59.044677,24.063998 C 59.232407,24.075875 59.372737,24.180790 59.588917,24.145158 L 59.588917,24.147138 L 59.579437,24.147138 C 59.810777,24.224339 60.161597,24.240175 60.394837,24.172871 L 60.394837,24.170892 C 60.863227,24.034305 61.849297,23.507754 62.340437,23.672054 L 59.480827,26.674981 C 60.703937,26.783854 62.260797,26.538394 63.153947,27.454911 C 63.607167,28.088356 68.207577,29.024668 68.755607,28.834634 C 67.100137,31.029918 65.429507,29.347329 64.312587,32.575921 L 62.446627,34.056600 z "
     style="fill:url(#radialGradient2806)"
     id="path1114" /><path
     d="M 55.352592,28.686170 L 54.779911,28.323919 C 55.039703,27.704330 55.020740,27.078802 54.685096,26.486927 L 58.136357,26.283037 C 60.616707,27.979483 62.672287,29.337431 63.944707,32.051349 C 63.326517,32.765955 62.928287,34.707861 63.830927,35.337347 C 63.626127,35.715435 63.275317,35.826288 63.006037,36.101441 L 63.006037,36.101441 C 62.469387,36.651747 62.037027,36.653726 61.633117,37.069425 L 61.644497,37.055568 C 61.545887,37.107036 61.454867,37.164442 61.375227,37.245602 L 61.375227,37.245602 L 61.456767,37.160482 C 61.270927,37.207991 61.109747,37.152564 60.912527,37.253520 L 60.912527,37.253520 L 60.922007,37.249561 C 60.681177,37.245602 60.339847,37.340619 60.136947,37.479185 C 59.810777,37.819662 58.902457,38.565940 58.422697,38.561981 L 60.294337,34.804857 C 59.093977,35.081990 57.679347,35.800554 56.562428,35.206699 C 56.033362,34.804857 54.590281,34.804857 53.934163,35.141375 C 53.934163,35.139396 51.015765,35.489770 50.822343,35.634275 C 51.774283,33.023292 53.848830,34.110047 53.994845,30.681523 L 55.352592,28.686170 z "
     style="fill:url(#radialGradient2808)"
     id="path1116" /><path
     d="M 25.339931,15.945999 L 25.339931,16.646748 C 24.697087,16.733847 24.196465,17.076303 23.883576,17.682035 L 21.928496,14.708801 C 22.029000,11.616795 22.074511,9.0770748 23.635162,6.5333954 C 24.541591,6.7155110 26.339278,6.0622704 26.386686,4.9319662 C 26.801974,4.9161301 27.073144,5.1714878 27.441026,5.2684841 L 27.441026,5.2704636 C 28.169203,5.4624767 28.392966,5.8465030 28.944788,5.9929873 L 28.925825,5.9890283 C 29.018743,6.0484138 29.113558,6.1018607 29.223543,6.1295740 L 29.221647,6.1315535 L 29.109765,6.0998812 L 29.462476,6.5333954 C 29.985854,7.4657480 31.351186,7.2361240 31.832845,8.0793982 L 27.784255,8.3604897 C 28.635692,9.2888831 29.959305,10.177686 30.050328,11.484167 C 29.989646,12.270036 32.851155,16.147909 33.380222,16.381493 C 30.748164,16.890228 30.560431,14.473238 27.678063,16.122176 L 25.339931,15.945999 z "
     style="fill:url(#radialGradient2810)"
     id="path1118" /><path
     d="M 51.338135,5.7910766 L 50.829928,6.2483450 C 50.346373,5.7970151 49.769899,5.6267766 49.127055,5.7752404 L 50.001247,2.2873315 C 52.309038,0.34344576 54.176889,-1.2817376 57.040294,-1.7152519 C 57.502987,-0.87989574 59.152767,0.11184226 60.004207,-0.58890674 C 60.567407,0.040579664 60.563607,1.4064464 60.906837,2.1230316 L 60.899257,2.1052159 C 60.914427,2.2200279 60.939077,2.3289014 60.990277,2.4338158 L 60.988377,2.4338158 L 60.937177,2.3249423 L 60.853747,2.8871252 C 60.518097,3.9085559 61.580027,4.8369494 61.284207,5.7693019 L 58.432177,2.7564770 C 58.316497,4.0372245 58.538367,5.6624080 57.652797,6.5888219 C 57.044087,7.0540084 56.105421,11.850378 56.281776,12.422458 C 54.193956,10.676524 55.820977,8.9484062 52.741394,7.7507984 L 51.338135,5.7910766 z "
     style="fill:url(#radialGradient2812)"
     id="path1120" /><path
     d="M 44.636629,28.557502 C 45.306021,28.414976 46.447590,28.511973 46.654287,27.639006 C 48.156152,27.922077 49.312892,26.831363 50.773039,26.512661 L 52.189572,31.803909 C 51.197809,31.964250 49.982284,32.589778 49.043618,32.965886 L 49.026552,32.914419 C 48.869159,33.173735 48.042375,33.343974 47.765515,33.486499 L 47.858434,33.486499 C 47.357812,33.500356 46.860983,34.106088 46.860983,34.638578 C 46.860983,38.696588 45.639769,36.356799 44.306673,39.141979 L 44.306673,39.141979 C 44.177725,39.409214 44.069637,39.621022 43.889489,39.860544 C 44.041192,39.332013 44.044985,38.748055 43.771918,38.310582 C 43.284570,36.913043 44.355977,35.980690 42.070942,35.980690 C 42.070942,34.430729 41.735297,34.375302 41.484986,32.839197 C 42.372453,31.809848 43.043741,30.544937 43.751059,29.361186 C 44.111355,29.161254 44.424244,28.909856 44.636629,28.557502 z M 42.070942,36.053932 L 42.133519,36.119257 M 51.806520,33.850730 L 50.843202,38.900478 L 49.559411,34.670250 C 50.281899,34.260490 51.030935,34.114006 51.806520,33.850730 z "
     style="fill:url(#radialGradient2814)"
     id="path1122" /><path
     d="M 31.879162,25.576345 C 31.414570,25.051773 30.902570,23.982834 30.079578,24.250069 C 29.533445,22.765431 28.039165,22.300245 27.018958,21.162023 L 30.618126,17.151521 C 31.264762,17.953225 32.406332,18.711380 33.202776,19.354723 L 33.168643,19.396293 C 33.462568,19.402232 34.031457,20.053493 34.291249,20.225711 L 34.243842,20.140592 C 34.515012,20.582024 35.267841,20.710693 35.703989,20.433560 C 39.026298,18.327354 37.744402,20.631512 40.717793,20.376154 L 40.717793,20.376154 C 41.002237,20.352400 41.231689,20.338543 41.521822,20.374175 C 41.011719,20.514720 40.530060,20.813628 40.313882,21.284753 C 39.422623,22.444750 38.102802,21.971645 39.289883,24.010547 C 38.019365,24.814231 38.148313,25.144811 37.021914,26.164262 C 35.717263,25.906925 34.332968,25.964331 32.996080,25.946515 C 32.645265,25.730748 32.277384,25.580304 31.879162,25.576345 z M 39.348668,23.972937 L 39.369527,23.883858 M 32.491665,16.430977 L 37.128107,14.669207 L 34.329175,18.010631 C 33.619961,17.577117 33.111754,16.985242 32.491665,16.430977 z "
     style="fill:url(#radialGradient2816)"
     id="path1124" /><path
     d="M 47.930493,16.397329 C 48.008241,15.688662 48.446285,14.584091 47.712419,14.109007 C 48.433011,12.705529 47.792064,11.220892 47.949456,9.6729094 L 53.209778,9.8906563 C 53.052386,10.923964 53.249601,12.323483 53.302697,13.372627 L 53.251497,13.372627 C 53.439230,13.608189 53.340623,14.483136 53.386134,14.801838 L 53.414578,14.708801 C 53.272356,15.209618 53.672474,15.888593 54.159822,16.052893 C 57.857597,17.298009 55.350695,17.792888 57.480237,19.974316 L 57.480237,19.974316 C 57.685037,20.182165 57.844327,20.354383 58.009297,20.607761 C 57.571257,20.294998 57.040294,20.110903 56.558635,20.249469 C 55.136414,20.304895 54.614933,18.954865 53.913304,21.223391 C 52.500564,20.748307 52.345068,21.065030 50.869750,20.841344 C 50.202255,19.643737 49.256003,18.588654 48.393189,17.523674 C 48.321130,17.104016 48.188389,16.716031 47.930493,16.397329 z M 53.979674,21.245166 L 54.059319,21.203596 M 54.956266,10.898230 L 59.266547,13.404299 L 55.015051,13.380545 C 54.865244,12.539250 54.961955,11.749423 54.956266,10.898230 z "
     style="fill:url(#radialGradient2818)"
     id="path1126" /><path
     d="M 39.880721,30.479613 C 41.075387,29.483916 40.855417,29.099889 41.881312,29.774905 C 41.515327,30.538998 41.278290,30.944799 41.672720,31.991964 C 41.338972,33.124247 40.705609,35.000829 39.347862,35.000829 C 38.799833,35.000829 38.242322,35.564992 38.244218,36.152908 L 38.244218,36.152908 L 38.246115,36.212294 C 36.620990,37.465328 33.814473,40.402931 32.600844,37.813723 C 32.530681,35.731271 28.956165,32.447253 29.583839,30.061935 C 31.794919,29.943164 33.327125,30.497428 33.454177,27.191635 C 33.454177,27.346037 35.811272,25.863379 35.005346,23.016834 C 35.560961,23.866046 35.712664,24.527205 36.444634,25.287340 L 36.444634,25.287340 L 36.431360,25.275462 C 36.480664,25.378397 36.492042,25.489250 36.541345,25.592185 L 36.541345,25.594165 L 36.968012,26.482968 L 36.968012,26.482968 C 37.540693,27.728084 39.082381,29.258251 39.880721,30.479613 z M 42.692926,28.135864 L 42.848423,28.007196 M 33.492103,24.950822 L 33.566059,24.608365 C 33.560370,24.671710 33.537614,24.911231 33.492103,24.950822 z "
     style="fill:url(#radialGradient2820)"
     id="path1128" /><path
     d="M 22.952047,26.837424 C 22.952047,26.837424 22.819918,26.646948 22.952047,26.837424 z M 32.738410,28.124912 L 33.316023,28.386433 C 33.121698,28.952241 33.194932,29.495426 33.567142,29.981667 L 30.299808,30.487429 C 27.788813,29.239725 25.712982,28.249102 24.261800,25.998754 C 24.789817,25.316937 24.999380,23.580172 24.084475,23.115533 C 24.245682,22.765684 24.571035,22.638253 24.801536,22.369331 L 24.801696,22.371071 C 25.263179,21.838487 25.676565,21.797263 26.024257,21.395510 L 26.014378,21.406851 C 26.104210,21.353286 26.186344,21.295161 26.253798,21.215715 L 26.253958,21.217455 L 26.184684,21.297081 C 26.355990,21.237797 26.515757,21.272119 26.693642,21.165110 L 26.693642,21.165110 L 26.686883,21.170951 C 26.914504,21.150189 27.231798,21.033980 27.412104,20.893608 L 27.412104,20.893608 C 27.776274,20.612504 28.459138,19.831039 28.948698,19.786375 L 27.497257,23.245844 C 28.615946,22.888934 29.899961,22.127691 31.014190,22.541005 C 31.553426,22.840910 32.927254,22.705119 33.523206,22.348769 L 33.523206,22.348769 C 34.360717,21.844727 35.887653,22.089428 36.440828,21.623549 C 35.762663,23.994807 33.693972,23.242644 33.855399,26.251235 L 32.738410,28.124912 z "
     style="fill:url(#radialGradient2822)"
     id="path2700"
     sodipodi:nodetypes="cccccccccccccccccccccccccccc" /></g><path
   d="M 50.994461,45.249554 C 51.295377,49.733287 42.740893,54.603192 31.534310,56.227687 C 20.010490,57.899346 9.5272268,53.276022 9.1012208,50.935347 L 7.2558112,41.971521 L 1.4567442,14.137207 C 0.10079489,7.6282859 14.457964,8.8085844 23.739386,13.616862 C 32.036450,17.913840 54.484037,16.350971 55.210957,4.7944501 L 50.994461,45.249554 z "
   style="font-size:12.000000;fill:url(#linearGradient3287);fill-opacity:1.0000000"
   id="path602" /><g
   id="g2314"
   transform="matrix(0.398966,-7.771991e-2,0.000000,0.398966,27.56340,48.04732)"><path
     sodipodi:nodetypes="cccscsccc"
     style="font-size:12.000000;fill:url(#radialGradient3444);fill-rule:evenodd;stroke:#146000;stroke-width:3.3750000;stroke-linejoin:round;stroke-miterlimit:4.0000000;stroke-dasharray:none;stroke-opacity:1.0000000"
     id="path3156"
     d="M 13.330116,-57.939158 L 36.401312,-57.704988 L 29.119478,-50.668686 C 33.225344,-49.236158 44.347654,-39.302278 41.814095,-25.323880 C 38.723317,-8.2917850 27.515249,-6.3102190 21.884866,-5.4873190 C 26.959352,-7.6688040 32.795435,-16.529823 32.361180,-23.891428 C 31.609404,-36.771023 21.964578,-41.027513 20.433639,-42.044601 L 13.600415,-33.997064 L 13.330116,-57.939158 z "
     class="fil1" /><path
     sodipodi:nodetypes="cccscsccc"
     style="font-size:12.000000;fill:url(#radialGradient3446);fill-rule:evenodd;stroke:#146000;stroke-width:3.1250000;stroke-linejoin:round;stroke-miterlimit:4.0000000;stroke-dasharray:none;stroke-opacity:1.0000000"
     id="path2105"
     d="M 16.669850,-3.4224780 L -6.5391728,-3.3807120 L 1.0184230,-11.106513 C -3.6389470,-12.952914 -14.347587,-22.059126 -11.814174,-36.037525 C -8.7233316,-53.069851 2.6717140,-54.957886 7.9514000,-56.061128 C 2.8772370,-53.879563 -2.7954130,-44.831698 -2.3612150,-37.470168 C -1.6093270,-24.590572 7.7595500,-20.333891 9.2904890,-19.316824 L 16.399361,-27.364148 L 16.669850,-3.4224780 z "
     class="fil1" /><path
     class="fil1"
     d="M 16.669850,-3.4224780 L -6.5391728,-3.3807120 L 1.0184230,-11.106513 C -3.6389470,-12.952914 -14.347587,-22.059126 -11.814174,-36.037525 C -8.7233316,-53.069851 2.6717140,-54.957886 7.9514000,-56.061128 C 2.8772370,-53.879563 -2.7954130,-44.831698 -2.3612150,-37.470168 C -1.6093270,-24.590572 7.7595500,-20.333891 9.2904890,-19.316824 L 16.399361,-27.364148 L 16.669850,-3.4224780 z "
     id="path675"
     style="font-size:12.000000;fill:url(#radialGradient3448);fill-rule:evenodd"
     sodipodi:nodetypes="cccscsccc" /><path
     class="fil1"
     d="M 13.330116,-57.939158 L 36.401312,-57.704988 L 29.119478,-50.668686 C 33.225344,-49.236158 44.347654,-39.302278 41.814095,-25.323880 C 38.723317,-8.2917850 27.515249,-6.3102190 21.884866,-5.4873190 C 26.959352,-7.6688040 32.795435,-16.529823 32.361180,-23.891428 C 31.609404,-36.771023 21.964578,-41.027513 20.433639,-42.044601 L 13.600415,-33.997064 L 13.330116,-57.939158 z "
     id="path583"
     style="font-size:12.000000;fill:url(#radialGradient3450);fill-rule:evenodd"
     sodipodi:nodetypes="cccscsccc" /><path
     class="fil2"
     d="M 13.361222,-57.878006 L 34.992017,-57.680814 C 29.820631,-54.195903 24.657936,-50.199254 20.288760,-52.454225 C 14.683689,-55.474288 17.475269,-42.724219 13.449115,-40.580087 L 13.361222,-57.878006 z "
     id="path584"
     style="font-size:12.000000;fill:url(#linearGradient3452);fill-rule:evenodd"
     sodipodi:nodetypes="ccscc" /><path
     class="fil5"
     d="M 13.343220,-57.860431 L 35.194317,-57.708979 C 37.650619,-57.161593 15.784340,-57.771719 14.593212,-56.422401 C 12.839949,-54.624220 16.160928,-47.265030 13.557479,-42.881643 L 13.343220,-57.860431 z "
     id="path585"
     style="font-size:12.000000;fill:url(#linearGradient3454);fill-rule:evenodd"
     sodipodi:nodetypes="ccscc" /><path
     class="fil5"
     d="M 21.959414,-5.5158880 C 31.607075,-8.4387350 40.314594,-13.148588 42.152692,-31.695080 C 42.525087,-13.664804 32.214228,-6.3838780 21.959414,-5.5158880 z "
     id="path586"
     style="font-size:12.000000;fill:url(#linearGradient3456);fill-rule:evenodd"
     sodipodi:nodetypes="ccc" /><path
     class="fil2"
     d="M 29.139500,-50.768494 C 35.079849,-47.801059 40.870787,-40.582391 41.180563,-34.439116 C 37.837807,-29.342841 33.723631,-40.219961 30.229198,-42.265627 C 28.330869,-43.418189 22.434155,-47.122649 29.139500,-50.768494 z "
     id="path638"
     style="font-size:12.000000;fill:url(#radialGradient3458);fill-rule:evenodd"
     sodipodi:nodetypes="ccsc" /><path
     class="fil2"
     d="M -4.4015062,-37.485030 C -3.5234710,-29.790716 -4.8916179,-24.125809 -7.1519166,-23.848913 C -9.1447797,-23.604779 -11.151858,-30.210896 -12.113479,-34.460977 C -9.2791292,-51.448296 0.10409100,-54.263878 7.3115650,-55.994079 C 2.0803270,-54.039626 -5.5888074,-47.889480 -4.4015062,-37.485030 z "
     id="path2268"
     style="font-size:12.000000;fill:url(#linearGradient3460);fill-rule:evenodd"
     sodipodi:nodetypes="csccs" /><path
     class="fil5"
     d="M 16.719075,-3.3309570 L -4.5296343,-3.4121140 C -6.9860685,-3.9593100 13.405029,-3.7237000 14.596348,-5.0732670 C 16.349608,-6.8714110 13.948461,-14.043262 16.551719,-18.426765 L 16.719075,-3.3309570 z "
     id="path658"
     style="font-size:12.000000;fill:url(#radialGradient3462);fill-rule:evenodd"
     sodipodi:nodetypes="ccscc" /></g><path
   d="M 6.5420899,36.988427 L 1.4567442,14.137207 C 0.062717893,7.6373466 14.448904,8.8249050 23.739386,13.616862 C 28.037477,15.832427 36.184069,16.447058 43.099804,14.936774 C 43.664959,22.082246 37.417849,32.606382 24.826597,25.763933 C 13.989581,19.779717 8.7826668,30.569253 6.5420899,36.988427 z "
   style="font-size:12.000000;fill:url(#linearGradient3273);fill-opacity:0.50196099"
   id="path604" /><path
   d="M 54.315129,8.3671645 C 49.567784,15.602795 35.292904,19.548428 23.664733,14.512689 C 14.248094,10.434685 0.62336116,7.7775905 1.7553535,14.958383"
   style="font-size:12.000000;fill:none;fill-opacity:1.0000000;stroke:#ffffff;stroke-width:1.0000000;stroke-miterlimit:4.0000000;stroke-dasharray:none;stroke-opacity:1.0000000"
   id="path2106"
   sodipodi:nodetypes="csc" /><path
   d="M 55.210957,4.4852438 C 54.644142,16.498623 32.041908,17.908401 23.739386,13.616862 C 14.454344,8.8140231 0.10079490,7.6282859 1.4567442,14.137207 L 9.0316690,50.041875 C 10.222672,53.979883 14.667268,57.260243 27.484846,56.456702 C 40.302424,55.653161 51.153464,50.301017 51.185433,44.967824 C 51.384918,44.768339 55.171641,5.2060192 55.171641,4.9264302"
   style="font-size:12.000000;fill:none;fill-opacity:1.0000000;stroke:#7a97d6;stroke-opacity:1.0000000"
   id="path668"
   sodipodi:nodetypes="cccczcc" /><path
   transform="matrix(1.999837e-3,0.000000,0.000000,2.000167e-3,8.494095,-12.00552)"
   sodipodi:ry="904.76367"
   sodipodi:rx="2809.5239"
   sodipodi:cy="33952.383"
   sodipodi:cx="17476.191"
   d="M 20285.715 33952.383 A 2809.5239 904.76367 0 1 1  14666.667,33952.383 A 2809.5239 904.76367 0 1 1  20285.715 33952.383 z"
   id="path3640"
   style="fill:url(#radialGradient2532);fill-rule:evenodd;stroke-width:1.0000000pt"
   sodipodi:type="arc" /><path
   transform="matrix(1.999837e-3,0.000000,0.000000,2.000167e-3,19.92176,-12.95800)"
   sodipodi:ry="904.76367"
   sodipodi:rx="2809.5239"
   sodipodi:cy="33952.383"
   sodipodi:cx="17476.191"
   d="M 20285.715 33952.383 A 2809.5239 904.76367 0 1 1  14666.667,33952.383 A 2809.5239 904.76367 0 1 1  20285.715 33952.383 z"
   id="path3642"
   style="fill:url(#radialGradient3641);fill-rule:evenodd;stroke-width:1.0000000pt"
   sodipodi:type="arc" /><path
   id="path2362"
   style="font-size:12.000000;fill:url(#radialGradient3266)"
   d="M 46.016355,53.650921 L 46.593965,53.912443 C 46.399645,54.478250 46.472875,55.021436 46.845085,55.507676 L 43.577755,56.013438 C 41.066755,54.765735 38.990926,53.775112 37.539745,51.524765 C 38.067762,50.842949 38.277325,49.106184 37.362419,48.641545 C 37.523627,48.291696 37.848980,48.164265 38.079481,47.895343 L 38.079640,47.897083 C 38.541124,47.364498 38.954507,47.323275 39.302200,46.921522 L 39.292321,46.932863 C 39.382153,46.879298 39.464287,46.821173 39.531742,46.741727 L 39.531902,46.743467 L 39.462628,46.823094 C 39.633933,46.763809 39.793705,46.798132 39.971585,46.691123 L 39.971585,46.691123 L 39.964825,46.696963 C 40.192445,46.676202 40.509745,46.559991 40.690045,46.419620 L 40.690045,46.419620 C 41.054215,46.138517 41.737085,45.357052 42.226645,45.312388 L 40.775205,48.771856 C 41.893885,48.414946 43.177905,47.653702 44.292135,48.067018 C 44.831365,48.366922 46.205195,48.231131 46.801145,47.874782 L 46.801145,47.874782 C 47.638655,47.370740 49.165595,47.615440 49.718775,47.149561 C 49.040605,49.520819 46.971915,48.768655 47.133345,51.777246 L 46.016355,53.650921 z M 36.229992,52.363435 L 35.754909,52.127455 L 35.928175,51.750324 C 35.996370,51.998944 36.097863,52.172959 36.229992,52.363435 z " /><path
   id="path2298"
   style="font-size:12.000000;fill:url(#radialGradient3263)"
   d="M 58.355585,50.853709 C 61.451095,49.937473 58.294775,54.847101 55.887545,54.847101 C 55.329635,54.652965 54.274595,54.502373 53.791435,55.015835 C 51.191265,57.719220 49.183795,53.947166 48.467695,51.570389 L 48.952635,48.513194 C 49.385415,48.371682 49.559225,48.712791 49.972885,48.712791 L 49.972885,48.712791 C 50.238785,48.712791 50.447375,48.661987 50.678535,48.520455 L 51.337255,50.470877 C 52.336655,48.707351 53.334295,45.708221 55.091515,44.790165 L 55.091515,44.790165 C 55.771075,44.436355 56.003995,43.739657 56.400265,43.139088 C 57.773355,43.942854 58.007995,49.075641 58.355585,50.853709 z M 61.027025,50.062664 L 61.704855,49.861267 L 61.171275,50.527122 C 61.110435,50.374729 61.093065,50.215056 61.027025,50.062664 z " /></svg>