<?xml version="1.0" encoding="UTF-8" standalone="no"?>
<!DOCTYPE svg PUBLIC "-//W3C//DTD SVG 20010904//EN"
"http://www.w3.org/TR/2001/REC-SVG-20010904/DTD/svg10.dtd">
<!-- Created with Inkscape (http://www.inkscape.org/) -->
<svg
   id="svg1"
   sodipodi:version="0.32"
   inkscape:version="0.39cvs"
   width="128.00000pt"
   height="128.00000pt"
   sodipodi:docbase="/home/andy/Desktop/etiquette-icons-0.4/scalable/filesystems"
   sodipodi:docname="gnome-fs-directory-visiting.svg"
   xmlns="http://www.w3.org/2000/svg"
   xmlns:inkscape="http://www.inkscape.org/namespaces/inkscape"
   xmlns:sodipodi="http://sodipodi.sourceforge.net/DTD/sodipodi-0.dtd"
   xmlns:xlink="http://www.w3.org/1999/xlink">
  <defs
     id="defs3">
    <linearGradient
       id="linearGradient1501">
      <stop
         style="stop-color:#ffffff;stop-opacity:1.0000000;"
         offset="0.0000000"
         id="stop1502" />
      <stop
         style="stop-color:#ffffff;stop-opacity:0.0000000;"
         offset="1.0000000"
         id="stop1504" />
    </linearGradient>
    <linearGradient
       xlink:href="#linearGradient1501"
       id="linearGradient1499"
       x1="0.85826772"
       y1="0.14062500"
       x2="0.062992126"
       y2="0.54687500" />
    <linearGradient
       xlink:href="#linearGradient1492"
       id="linearGradient1497"
       x1="0.63247865"
       y1="0.32812500"
       x2="-0.37606838"
       y2="1.3281250" />
    <linearGradient
       id="linearGradient1492">
      <stop
         style="stop-color:#c0c0c0;stop-opacity:1.0000000;"
         offset="0.0000000"
         id="stop1493" />
      <stop
         style="stop-color:#f1f1f1;stop-opacity:1.0000000;"
         offset="0.34923077"
         id="stop1496" />
      <stop
         style="stop-color:#f0f0f0;stop-opacity:1.0000000;"
         offset="1.0000000"
         id="stop1494" />
    </linearGradient>
    <linearGradient
       xlink:href="#linearGradient1492"
       id="linearGradient1495"
       x1="0.88034189"
       y1="0.21093750"
       x2="0.085470088"
       y2="1.1796875" />
    <radialGradient
       xlink:href="#linearGradient1806"
       id="radialGradient1505"
       cx="0.49032259"
       cy="0.50649351"
       r="0.46014288"
       fx="0.50977784"
       fy="0.15800871" />
    <linearGradient
       id="linearGradient1806">
      <stop
         style="stop-color:#000000;stop-opacity:0.40677965;"
         offset="0.0000000"
         id="stop1807" />
      <stop
         style="stop-color:#000000;stop-opacity:0.073446326;"
         offset="0.64777780"
         id="stop3276" />
      <stop
         style="stop-color:#000000;stop-opacity:0.0000000;"
         offset="1.0000000"
         id="stop1808" />
    </linearGradient>
    <radialGradient
       xlink:href="#linearGradient1806"
       id="radialGradient1502"
       cx="0.49032259"
       cy="0.50649351"
       r="0.46014288"
       fx="0.49027237"
       fy="0.095238097" />
    <linearGradient
       id="linearGradient1520">
      <stop
         style="stop-color:#bab5ab;stop-opacity:1.0000000;"
         offset="0.0000000"
         id="stop1522" />
      <stop
         style="stop-color:#807d74;stop-opacity:1.0000000;"
         offset="1.0000000"
         id="stop1523" />
    </linearGradient>
    <linearGradient
       id="linearGradient2102">
      <stop
         style="stop-color:#bab5ab;stop-opacity:1.0000000;"
         offset="0.0000000"
         id="stop2103" />
      <stop
         style="stop-color:#eae8e3;stop-opacity:1.0000000;"
         offset="1.0000000"
         id="stop2104" />
    </linearGradient>
    <linearGradient
       id="linearGradient1518">
      <stop
         style="stop-color:#000000;stop-opacity:1.0000000;"
         offset="0.0000000"
         id="stop1520" />
      <stop
         style="stop-color:#ebebeb;stop-opacity:1.0000000;"
         offset="1.0000000"
         id="stop1521" />
    </linearGradient>
    <linearGradient
       id="linearGradient1792">
      <stop
         style="stop-color:#000000;stop-opacity:0.084745765;"
         offset="0.0000000"
         id="stop1793" />
      <stop
         style="stop-color:#000000;stop-opacity:0.38418078;"
         offset="0.63222224"
         id="stop1795" />
      <stop
         style="stop-color:#000000;stop-opacity:0.0000000;"
         offset="1.0000000"
         id="stop1794" />
    </linearGradient>
    <linearGradient
       id="linearGradient1517">
      <stop
         style="stop-color:#ffffff;stop-opacity:0.0000000;"
         offset="0.0000000"
         id="stop1518" />
      <stop
         style="stop-color:#ffffff;stop-opacity:1.0000000;"
         offset="1.0000000"
         id="stop1519" />
    </linearGradient>
    <linearGradient
       id="linearGradient1511">
      <stop
         style="stop-color:#bab5ab;stop-opacity:1.0000000;"
         offset="0.0000000"
         id="stop1512" />
      <stop
         style="stop-color:#eae8e3;stop-opacity:1.0000000;"
         offset="1.0000000"
         id="stop1513" />
    </linearGradient>
    <linearGradient
       id="linearGradient1504">
      <stop
         style="stop-color:#a3a3a3;stop-opacity:1.0000000;"
         offset="0.0000000"
         id="stop1505" />
      <stop
         style="stop-color:#ffffff;stop-opacity:1.0000000;"
         offset="1.0000000"
         id="stop1506" />
    </linearGradient>
    <linearGradient
       xlink:href="#linearGradient1511"
       id="linearGradient1507"
       x1="68.708969"
       y1="111.90047"
       x2="68.708969"
       y2="191.01146"
       gradientUnits="userSpaceOnUse"
       gradientTransform="scale(1.385990,0.721506)" />
    <linearGradient
       xlink:href="#linearGradient1504"
       id="linearGradient1510"
       x1="0.54601228"
       y1="0.74218750"
       x2="0.54601228"
       y2="0.054687500" />
    <linearGradient
       xlink:href="#linearGradient1520"
       id="linearGradient1514"
       x1="0.49707603"
       y1="0.053910151"
       x2="0.49707603"
       y2="0.40625000" />
    <radialGradient
       xlink:href="#linearGradient1511"
       id="radialGradient1515" />
    <linearGradient
       xlink:href="#linearGradient1517"
       id="linearGradient1516"
       x1="0.51567942"
       y1="0.76666665"
       x2="0.53310102"
       y2="-0.10000000" />
    <linearGradient
       xlink:href="#linearGradient1792"
       id="linearGradient1521" />
    <radialGradient
       xlink:href="#linearGradient1792"
       id="radialGradient1950"
       cx="0.50522649"
       cy="0.54545456"
       r="0.38421080"
       fx="0.50871080"
       fy="0.26136363" />
    <linearGradient
       xlink:href="#linearGradient1518"
       id="linearGradient1522"
       x1="0.36585367"
       y1="0.10687023"
       x2="1.0731708"
       y2="1.9312977" />
    <linearGradient
       xlink:href="#linearGradient1792"
       id="linearGradient1599" />
    <linearGradient
       xlink:href="#linearGradient1792"
       id="linearGradient2352"
       x1="0.50522649"
       y1="1.8974513"
       x2="0.50522649"
       y2="0.32051283" />
    <linearGradient
       xlink:href="#linearGradient1806"
       id="linearGradient1506"
       x1="0.63984674"
       y1="1.6216216"
       x2="0.63218391"
       y2="0.36486486" />
  </defs>
  <sodipodi:namedview
     id="base"
     pagecolor="#ffffff"
     bordercolor="#666666"
     borderopacity="1.0"
     inkscape:pageopacity="0.0"
     inkscape:pageshadow="2"
     inkscape:zoom="1.6987524"
     inkscape:cx="128.20889"
     inkscape:cy="45.077979"
     inkscape:window-width="599"
     inkscape:window-height="501"
     showgrid="false"
     snaptogrid="false"
     gridspacingx="2.5000000mm"
     gridspacingy="2.5000000mm"
     inkscape:window-x="277"
     inkscape:window-y="206" />
  <path
     style="fill:url(#linearGradient1514);fill-rule:evenodd;stroke-width:1.2500000;stroke-opacity:0.33962265;stroke:#565248;stroke-miterlimit:4.0000000;stroke-dasharray:none;"
     d="M 27.173984,101.15517 L 27.173984,29.929794 C 27.173984,22.731705 30.722756,17.534706 38.179233,17.534706 L 74.626759,17.534706 C 82.083245,17.534706 82.987870,29.692836 90.444357,29.692836 L 131.96554,29.692836 C 135.33208,29.692836 137.89713,33.175177 137.89713,37.176511 L 137.89713,101.15517 L 27.173984,101.15517 z "
     id="path1502"
     sodipodi:nodetypes="cczzzzzcc" />
  <path
     sodipodi:type="arc"
     style="fill:url(#radialGradient1505);fill-opacity:0.75000000;fill-rule:evenodd;stroke-width:1.0000000pt;"
     id="path1809"
     sodipodi:cx="25.912205"
     sodipodi:cy="175.83524"
     sodipodi:rx="56.143108"
     sodipodi:ry="56.143108"
     d="M 82.055313 175.83524 A 56.143108 56.143108 0 1 0 -30.230904,175.83524 A 56.143108 56.143108 0 1 0 82.055313 175.83524 z"
     transform="matrix(1.442331,0.000000,0.000000,0.353388,43.56779,65.05502)" />
  <g
     id="g1527"
     transform="matrix(0.926940,0.000000,0.000000,1.039779,-57.30231,-46.13672)"
     style="fill-opacity:0.037735824;">
    <path
       style="fill-rule:evenodd;stroke-width:1.2259742;stroke-opacity:0.28272250;"
       d="M 77.776110,171.71342 L 83.600639,155.83612 C 84.135181,154.37897 88.524659,152.72237 92.914636,152.72237 L 207.01118,152.72237 C 210.89125,152.72237 213.36492,154.55589 213.99669,155.83612 L 221.83189,171.71342 C 223.23784,174.56248 218.51026,177.42373 211.59415,177.42373 L 88.013849,177.42373 C 81.097741,177.42373 76.724895,174.57895 77.776110,171.71342 z "
       id="path2363"
       sodipodi:nodetypes="czzzzzzzz" />
    <path
       style="fill-rule:evenodd;stroke-width:1.2259742;stroke-opacity:0.28272250;"
       d="M 81.210337,170.03356 L 86.757335,155.99569 C 87.266408,154.70737 91.446733,153.24269 95.627534,153.24269 L 204.28755,153.24269 C 207.98274,153.24269 210.33854,154.86378 210.94020,155.99569 L 218.40207,170.03356 C 219.74103,172.55255 215.23871,175.08232 208.65215,175.08232 L 90.960262,175.08232 C 84.373697,175.08232 80.209211,172.56711 81.210337,170.03356 z "
       id="path1525"
       sodipodi:nodetypes="czzzzzzzz" />
    <path
       style="fill-rule:evenodd;stroke-width:1.2259742;stroke-opacity:0.28272250;"
       d="M 88.078791,168.67401 L 93.070728,156.64279 C 93.528861,155.53862 97.290882,154.28331 101.05333,154.28331 L 198.84028,154.28331 C 202.16571,154.28331 204.28577,155.67268 204.82723,156.64279 L 211.54243,168.67401 C 212.74740,170.83292 208.69561,173.00107 202.76813,173.00107 L 96.853089,173.00107 C 90.925609,173.00107 87.177842,170.84540 88.078791,168.67401 z "
       id="path1526"
       sodipodi:nodetypes="czzzzzzzz" />
  </g>
  <g
     id="g2581"
     transform="matrix(1.140383,0.178688,-0.178688,1.140383,2.233745,-14.83654)">
    <path
       style="fill:#ffffff;fill-rule:evenodd;stroke-width:0.42649043;stroke-opacity:0.36477986;"
       d="M 17.159384,6.3292894 L 17.159384,43.068526 L 17.159384,79.807768 L 17.159384,116.54700 L 17.159384,153.28624 L 50.687024,153.28624 L 84.214664,153.28624 L 117.74230,153.28624 L 151.26994,153.28624 L 151.26994,116.54700 L 151.26994,79.807768 L 151.26994,43.068526 L 117.74230,6.3292894 L 84.214664,6.3292894 L 50.687024,6.3292894 L 17.159384,6.3292894 z "
       id="path2582"
       sodipodi:nodetypes="cccccccccccccccc"
       transform="matrix(0.507602,0.000000,0.000000,0.507602,40.01792,28.87961)" />
    <g
       id="g2583"
       transform="matrix(0.154398,0.000000,0.000000,0.151048,21.38690,-28.21952)"
       style="fill-opacity:0.044025127;">
      <path
         style="fill-rule:evenodd;stroke-width:0.95407495pt;"
         d="M 173.35959,408.81260 L 173.35959,531.07360 L 173.35959,653.33460 L 173.35959,775.59560 L 173.35959,897.85660 L 282.12187,897.85660 L 390.88417,897.85660 L 499.64646,897.85660 L 608.40874,897.85660 L 608.40874,775.59560 L 608.40874,653.33460 L 608.40874,531.07360 L 499.64646,408.81260 L 390.88417,408.81260 L 282.12187,408.81260 L 173.35959,408.81260 z "
         id="path2584"
         sodipodi:nodetypes="cccccccccccccccc" />
      <path
         style="fill-rule:evenodd;stroke-width:0.95407495pt;"
         d="M 170.12500,407.18750 C 170.12500,571.82292 170.12500,736.45833 170.12500,901.09375 C 317.30208,901.09375 464.47917,901.09375 611.65625,901.09375 C 611.65625,777.33333 611.65625,653.57292 611.65625,529.81250 C 574.80918,488.38978 537.97604,446.95335 501.09375,405.56250 C 390.77083,405.56250 280.44792,405.56250 170.12500,405.56250 C 170.12500,405.89583 170.12500,406.97917 170.12500,407.18750 z "
         id="path2585" />
      <path
         style="fill-rule:evenodd;stroke-width:0.95407495pt;"
         d="M 166.87500,403.93750 C 166.87500,570.73958 166.87500,737.54167 166.87500,904.34375 C 316.21875,904.34375 465.56250,904.34375 614.90625,904.34375 C 614.90625,779.08333 614.90625,653.82292 614.90625,528.56250 C 577.45517,486.47298 540.01754,444.37017 502.53125,402.31250 C 390.64583,402.31250 278.76042,402.31250 166.87500,402.31250 C 166.87500,402.64583 166.87500,403.72917 166.87500,403.93750 z "
         id="path2586" />
    </g>
    <path
       style="fill:url(#linearGradient1495);fill-opacity:0.75000000;fill-rule:evenodd;stroke:#000000;stroke-width:1.4375000;stroke-opacity:0.36477986;"
       d="M 297.99034,136.74154 L 297.99034,260.57234 L 297.99034,384.40315 L 297.99034,508.23395 L 297.99034,632.06475 L 410.99634,632.06475 L 524.00235,632.06475 L 637.00835,632.06475 L 750.01435,632.06475 L 750.01435,508.23395 L 750.01435,384.40315 L 750.01435,260.57234 L 637.00835,136.74154 L 524.00235,136.74154 L 410.99634,136.74154 L 297.99034,136.74154 z "
       id="path2587"
       sodipodi:nodetypes="cccccccccccccccc"
       transform="matrix(0.150600,0.000000,0.000000,0.150600,3.878680,11.59157)" />
    <path
       style="fill:url(#linearGradient1497);fill-opacity:0.75000000;fill-rule:evenodd;stroke-width:0.95407495pt;"
       d="M 750.01435,260.57234 C 715.94460,250.48602 671.79788,251.91624 638.44792,257.66516 C 644.20618,220.71628 644.92597,174.41021 637.00835,136.74154 L 750.01435,260.57234 z "
       id="path2588"
       sodipodi:nodetypes="cccc"
       transform="matrix(0.150600,0.000000,0.000000,0.150600,3.878680,11.59157)" />
    <path
       style="fill:url(#linearGradient1499);fill-opacity:0.75000000;fill-rule:evenodd;stroke-width:1.0000000pt;"
       d="M 301.30655,174.90867 L 299.27069,628.90434 L 743.08709,628.90434 L 743.34157,516.67783 C 733.41677,520.49506 633.15091,378.49417 506.92790,384.60173 C 380.59029,390.71484 413.27857,193.23136 301.30655,174.90867 z "
       id="path2589"
       sodipodi:nodetypes="cccczc"
       transform="matrix(0.150600,0.000000,0.000000,0.150600,3.878680,11.59157)" />
  </g>
  <path
     style="fill:url(#linearGradient1507);fill-rule:evenodd;stroke:#807d74;stroke-width:1.1181197;stroke-opacity:0.33962265;"
     d="M 16.340118,89.466914 L 21.660243,124.16575 C 22.148493,127.35021 26.157842,130.97060 30.167647,130.97060 L 134.38341,130.97060 C 137.92746,130.97060 140.18692,126.96357 140.76397,124.16575 L 147.92063,89.466914 C 149.20483,83.240495 144.88666,76.987435 138.56949,76.987435 L 25.691267,76.987435 C 19.374096,76.987435 15.379940,83.204474 16.340118,89.466914 z "
     id="path1501"
     sodipodi:nodetypes="czzzzzzzz" />
  <path
     style="fill:url(#linearGradient1516);fill-rule:evenodd;stroke-width:0.90415878pt;"
     d="M 17.363760,93.278499 C 17.144790,94.349628 21.236974,83.836670 28.174951,83.836670 L 134.15847,83.836670 C 142.69349,83.836670 145.42542,94.349628 145.64440,93.278499 C 145.86338,92.207379 150.22438,77.409898 134.33482,77.409898 L 28.673341,77.409898 C 15.227487,77.409898 17.582722,92.207379 17.363760,93.278499 z "
     id="path1503"
     sodipodi:nodetypes="czzzzzz" />
  <path
     style="fill:url(#linearGradient1506);fill-opacity:0.75000000;fill-rule:evenodd;stroke-width:1.0000000pt;"
     d="M 25.018362,88.561652 L 27.593781,116.68187 C 28.067663,121.85605 34.224990,128.04027 40.470880,127.99109 L 118.10138,127.37979 C 125.72934,127.31972 136.41342,122.40755 136.49724,116.07057 L 136.86515,88.255998 L 25.018362,88.561652 z "
     id="path2521"
     sodipodi:nodetypes="czzzzcc" />
</svg>
