<?xml version="1.0" encoding="UTF-8" standalone="no"?>
<!DOCTYPE svg PUBLIC "-//W3C//DTD SVG 20010904//EN"
"http://www.w3.org/TR/2001/REC-SVG-20010904/DTD/svg10.dtd">
<!-- Created with Inkscape (http://www.inkscape.org/) -->
<svg
   id="svg1"
   sodipodi:version="0.32"
   inkscape:version="0.39cvs"
   width="128.00000pt"
   height="128.00000pt"
   sodipodi:docbase="/home/andy/Desktop/Etiquette/etiquette-icons-0.6/scalable/filesystems"
   sodipodi:docname="gnome-fs-trash-full.svg"
   xmlns="http://www.w3.org/2000/svg"
   xmlns:inkscape="http://www.inkscape.org/namespaces/inkscape"
   xmlns:sodipodi="http://sodipodi.sourceforge.net/DTD/sodipodi-0.dtd"
   xmlns:xlink="http://www.w3.org/1999/xlink">
  <defs
     id="defs3">
    <linearGradient
       id="linearGradient1942">
      <stop
         style="stop-color:#000000;stop-opacity:0.095505618;"
         offset="0.0000000"
         id="stop1943" />
      <stop
         style="stop-color:#000000;stop-opacity:0.0000000;"
         offset="1.0000000"
         id="stop1944" />
    </linearGradient>
    <linearGradient
       id="linearGradient1501">
      <stop
         style="stop-color:#ffffff;stop-opacity:1.0000000;"
         offset="0.0000000"
         id="stop1896" />
      <stop
         style="stop-color:#ffffff;stop-opacity:0.0000000;"
         offset="1.0000000"
         id="stop1504" />
    </linearGradient>
    <linearGradient
       id="linearGradient1492">
      <stop
         style="stop-color:#dadada;stop-opacity:1.0000000;"
         offset="0.0000000"
         id="stop1493" />
      <stop
         style="stop-color:#f1f1f1;stop-opacity:1.0000000;"
         offset="0.34923077"
         id="stop1892" />
      <stop
         style="stop-color:#f0f0f0;stop-opacity:1.0000000;"
         offset="1.0000000"
         id="stop1494" />
    </linearGradient>
    <linearGradient
       id="linearGradient1507">
      <stop
         style="stop-color:#000000;stop-opacity:0.095505618;"
         offset="0.0000000"
         id="stop1887" />
      <stop
         style="stop-color:#000000;stop-opacity:0.0000000;"
         offset="1.0000000"
         id="stop1888" />
    </linearGradient>
    <radialGradient
       xlink:href="#linearGradient1806"
       id="radialGradient1502"
       cx="0.49032259"
       cy="0.50649351"
       r="0.46014288"
       fx="0.49027237"
       fy="0.095238097" />
    <linearGradient
       id="linearGradient1806">
      <stop
         style="stop-color:#000000;stop-opacity:0.40784314;"
         offset="0.0000000"
         id="stop1807" />
      <stop
         style="stop-color:#000000;stop-opacity:0.073446326;"
         offset="0.64777780"
         id="stop3276" />
      <stop
         style="stop-color:#939393;stop-opacity:0.0000000;"
         offset="1.0000000"
         id="stop1808" />
    </linearGradient>
    <radialGradient
       xlink:href="#linearGradient1806"
       id="radialGradient1505"
       cx="0.49032259"
       cy="0.50649351"
       r="0.46014288"
       fx="0.50977784"
       fy="0.15800871" />
    <linearGradient
       id="linearGradient1506">
      <stop
         style="stop-color:#000000;stop-opacity:1.0000000;"
         offset="0.0000000"
         id="stop1507" />
      <stop
         style="stop-color:#565248;stop-opacity:1.0000000;"
         offset="1.0000000"
         id="stop1508" />
    </linearGradient>
    <linearGradient
       id="linearGradient1498">
      <stop
         style="stop-color:#807d74;stop-opacity:1.0000000;"
         offset="0.0000000"
         id="stop1499" />
      <stop
         style="stop-color:#f2f0eb;stop-opacity:1.0000000;"
         offset="0.38708624"
         id="stop1501" />
      <stop
         style="stop-color:#565248;stop-opacity:1.0000000;"
         offset="0.80849576"
         id="stop1502" />
      <stop
         style="stop-color:#eae8e3;stop-opacity:1.0000000;"
         offset="1.0000000"
         id="stop1500" />
    </linearGradient>
    <linearGradient
       id="linearGradient1494">
      <stop
         style="stop-color:#ffffff;stop-opacity:0.0000000;"
         offset="0.0000000"
         id="stop1495" />
      <stop
         style="stop-color:#fff;stop-opacity:1;"
         offset="1"
         id="stop1496" />
    </linearGradient>
    <linearGradient
       id="linearGradient1488">
      <stop
         style="stop-color:#000000;stop-opacity:1.0000000;"
         offset="0.0000000"
         id="stop1489" />
      <stop
         style="stop-color:#565248;stop-opacity:1.0000000;"
         offset="1.0000000"
         id="stop1490" />
    </linearGradient>
    <linearGradient
       xlink:href="#linearGradient1488"
       id="linearGradient1491"
       x1="0.60784316"
       y1="0.70338982"
       x2="0.62745100"
       y2="-0.059322033" />
    <linearGradient
       xlink:href="#linearGradient1494"
       id="linearGradient1493"
       x1="0.51372552"
       y1="0.75641024"
       x2="0.56078434"
       y2="-2.6923077" />
    <linearGradient
       xlink:href="#linearGradient1498"
       id="linearGradient1497"
       x1="0.93604052"
       y1="0.27143183"
       x2="0.055066593"
       y2="0.27143183" />
    <linearGradient
       xlink:href="#linearGradient1506"
       id="linearGradient1505"
       x1="-0.12226591"
       y1="0.38999999"
       x2="0.52344245"
       y2="0.38999999" />
    <linearGradient
       xlink:href="#linearGradient1498"
       id="linearGradient1509"
       x1="0.63113105"
       y1="1.1349775"
       x2="0.63113105"
       y2="-1.5166378" />
    <linearGradient
       xlink:href="#linearGradient1498"
       id="linearGradient1499"
       x1="1.5706525"
       y1="7.3970599"
       x2="0.59355915"
       y2="0.19183010" />
    <linearGradient
       xlink:href="#linearGradient1488"
       id="linearGradient1495"
       x1="0.49019608"
       y1="-0.44999999"
       x2="0.48627451"
       y2="1.0000000" />
    <linearGradient
       xlink:href="#linearGradient1498"
       id="linearGradient2508"
       x1="1.2447070"
       y1="5.0252600"
       x2="0.56983900"
       y2="0.12465091" />
    <linearGradient
       xlink:href="#linearGradient1501"
       id="linearGradient2647"
       x1="0.40983605"
       y1="0.68750000"
       x2="0.75409836"
       y2="0.20312500" />
    <linearGradient
       xlink:href="#linearGradient1501"
       id="linearGradient2648"
       x1="1.0408053"
       y1="0.046222433"
       x2="0.96963912"
       y2="0.53786105"
       gradientTransform="scale(0.537861,1.859216)" />
    <linearGradient
       xlink:href="#linearGradient1501"
       id="linearGradient2649"
       x1="0.95652860"
       y1="0.21713430"
       x2="1.2807755"
       y2="0.50664669"
       gradientTransform="scale(0.487600,2.050862)" />
    <linearGradient
       xlink:href="#linearGradient1501"
       id="linearGradient2662"
       x1="1.1659650"
       y1="0.42123049"
       x2="1.0406960"
       y2="-0.18570377"
       gradientTransform="scale(0.579758,1.724857)" />
    <linearGradient
       xlink:href="#linearGradient1501"
       id="linearGradient2663"
       x1="0.21822967"
       y1="0.97007757"
       x2="1.1308264"
       y2="0.38418916"
       gradientTransform="scale(1.229405,0.813401)" />
    <linearGradient
       xlink:href="#linearGradient1501"
       id="linearGradient2664"
       x1="0.59156424"
       y1="0.12029064"
       x2="0.85917658"
       y2="1.2363205"
       gradientTransform="scale(0.855400,1.169044)" />
    <linearGradient
       xlink:href="#linearGradient1501"
       id="linearGradient1941"
       x1="0.89348507"
       y1="0.35148546"
       x2="0.56161922"
       y2="-0.036360566"
       gradientTransform="scale(0.775692,1.289171)" />
    <linearGradient
       xlink:href="#linearGradient1942"
       id="linearGradient2043" />
  </defs>
  <sodipodi:namedview
     id="base"
     pagecolor="#ffffff"
     bordercolor="#666666"
     borderopacity="1.0"
     inkscape:pageopacity="0.0"
     inkscape:pageshadow="2"
     inkscape:zoom="2.4559706"
     inkscape:cx="86.251126"
     inkscape:cy="69.645339"
     inkscape:window-width="513"
     inkscape:window-height="491"
     inkscape:window-x="22"
     inkscape:window-y="163" />
  <path
     sodipodi:type="arc"
     style="fill:url(#radialGradient1505);fill-opacity:0.75000000;fill-rule:evenodd;stroke-width:1.0000000pt;"
     id="path2509"
     sodipodi:cx="25.912205"
     sodipodi:cy="175.83524"
     sodipodi:rx="56.143108"
     sodipodi:ry="56.143108"
     d="M 82.055313 175.83524 A 56.143108 56.143108 0 1 0 -30.230904,175.83524 A 56.143108 56.143108 0 1 0 82.055313 175.83524 z"
     transform="matrix(1.230378,0.000000,0.000000,-0.256585,45.13503,167.1428)" />
  <path
     sodipodi:type="arc"
     style="fill:url(#linearGradient1505);fill-opacity:0.75000000;fill-rule:evenodd;stroke:url(#linearGradient1509);stroke-width:6.4378209;"
     id="path1504"
     sodipodi:cx="361.33130"
     sodipodi:cy="427.59015"
     sodipodi:rx="119.48405"
     sodipodi:ry="46.066139"
     d="M 480.81535 427.59015 A 119.48405 46.066139 0 1 0 241.84725,427.59015 A 119.48405 46.066139 0 1 0 480.81535 427.59015 z"
     transform="matrix(0.312215,0.000000,0.000000,0.195248,-32.77299,-34.88550)" />
  <path
     sodipodi:type="arc"
     style="fill:url(#radialGradient1502);fill-opacity:0.75000000;fill-rule:evenodd;stroke-width:1.0000000pt;"
     id="path3277"
     sodipodi:cx="25.912205"
     sodipodi:cy="175.83524"
     sodipodi:rx="56.143108"
     sodipodi:ry="56.143108"
     d="M 82.055313 175.83524 A 56.143108 56.143108 0 1 0 -30.230904,175.83524 A 56.143108 56.143108 0 1 0 82.055313 175.83524 z"
     transform="matrix(1.029008,0.000000,0.000000,0.485115,49.65733,61.12891)" />
  <path
     sodipodi:type="arc"
     style="fill:url(#radialGradient1505);fill-opacity:0.75000000;fill-rule:evenodd;stroke-width:1.0000000pt;"
     id="path1809"
     sodipodi:cx="25.912205"
     sodipodi:cy="175.83524"
     sodipodi:rx="56.143108"
     sodipodi:ry="56.143108"
     d="M 82.055313 175.83524 A 56.143108 56.143108 0 1 0 -30.230904,175.83524 A 56.143108 56.143108 0 1 0 82.055313 175.83524 z"
     transform="matrix(1.407629,0.000000,0.000000,0.293549,42.67682,85.68735)" />
  <g
     id="g1945"
     transform="matrix(0.626459,-0.399965,0.339862,0.737244,-60.04449,56.57420)">
    <path
       style="fill:#b1b1b1;fill-rule:evenodd;stroke-width:0.087337655pt;"
       d="M 156.49250,105.72451 L 143.43226,91.691493 L 142.66751,78.020586 L 154.22650,69.515784 L 176.55925,75.676065 L 188.04586,86.217226 L 184.42289,101.32225 L 156.49250,105.72451 z "
       id="path1340"
       sodipodi:nodetypes="cccccccc" />
    <path
       style="fill:url(#linearGradient1941);fill-opacity:0.75000000;fill-rule:evenodd;stroke-width:0.087337655pt;"
       d="M 180.03162,92.984575 L 164.12809,97.032169 L 164.28182,83.191665 L 176.73978,76.648155 L 180.03162,92.984575 z "
       id="path1341"
       sodipodi:nodetypes="ccccc" />
    <path
       style="fill:url(#linearGradient2664);fill-opacity:0.75000000;fill-rule:evenodd;stroke-width:0.087337655pt;"
       d="M 148.86512,87.143635 L 157.46666,88.891672 L 155.01752,69.480348 L 142.90032,77.825628 L 143.30544,91.391263 L 148.86512,87.143635 z "
       id="path1342"
       sodipodi:nodetypes="cccccc" />
    <path
       style="fill:url(#linearGradient2663);fill-opacity:0.75000000;fill-rule:evenodd;stroke-width:0.087337655pt;"
       d="M 156.99930,89.902866 L 163.84387,96.908054 L 163.78561,83.822758 L 155.66657,70.580065 L 156.99930,89.902866 z "
       id="path1343" />
    <path
       style="fill:url(#linearGradient2662);fill-opacity:0.75000000;fill-rule:evenodd;stroke-width:0.087337655pt;"
       d="M 145.01596,92.179019 L 149.74772,88.074762 L 156.87908,90.033870 L 169.01773,103.10403 L 156.90338,105.25996 L 145.01596,92.179019 z "
       id="path1344" />
    <path
       style="fill:url(#linearGradient2649);fill-opacity:0.75000000;fill-rule:evenodd;stroke-width:0.087337655pt;"
       d="M 183.90634,100.98431 L 178.99751,93.220382 L 163.48421,97.285241 L 169.50585,103.56336 L 183.90634,100.98431 z "
       id="path1345" />
    <path
       style="fill:url(#linearGradient2648);fill-opacity:0.75000000;fill-rule:evenodd;stroke-width:0.087337655pt;"
       d="M 163.91934,84.214703 L 176.99259,76.039966 L 155.25698,69.774555 L 163.91934,84.214703 z "
       id="path1346"
       sodipodi:nodetypes="cccc" />
    <path
       style="fill:url(#linearGradient2647);fill-opacity:0.75000000;fill-rule:evenodd;stroke-width:0.087337655pt;"
       d="M 176.60133,77.483861 L 179.52012,92.711575 L 184.11443,100.06503 L 187.20189,86.970572 L 176.60133,77.483861 z "
       id="path1347" />
  </g>
  <path
     style="fill:#ffffff;fill-rule:evenodd;stroke-width:0.83010836pt;"
     d="M 41.662021,50.317726 L 41.662021,122.08205 C 41.662021,136.76054 58.714363,143.00037 79.895965,143.00037 L 79.895965,143.00037 C 101.07757,143.00037 118.12990,136.76054 118.12990,122.08205 L 118.12990,50.317726 C 106.12552,62.278073 48.225500,60.752374 41.662021,50.317726 z "
     id="path962"
     sodipodi:nodetypes="ccccccc" />
  <g
     id="g1954"
     transform="matrix(0.256906,0.782363,-0.664798,0.302338,113.8871,-94.37514)">
    <path
       style="fill:#b1b1b1;fill-rule:evenodd;stroke-width:0.087337655pt;"
       d="M 156.49250,105.72451 L 143.43226,91.691493 L 142.66751,78.020586 L 154.22650,69.515784 L 176.55925,75.676065 L 188.04586,86.217226 L 184.42289,101.32225 L 156.49250,105.72451 z "
       id="path1955"
       sodipodi:nodetypes="cccccccc" />
    <path
       style="fill:url(#linearGradient1941);fill-opacity:0.75000000;fill-rule:evenodd;stroke-width:0.087337655pt;"
       d="M 180.03162,92.984575 L 164.12809,97.032169 L 164.28182,83.191665 L 176.73978,76.648155 L 180.03162,92.984575 z "
       id="path1956"
       sodipodi:nodetypes="ccccc" />
    <path
       style="fill:url(#linearGradient2664);fill-opacity:0.75000000;fill-rule:evenodd;stroke-width:0.087337655pt;"
       d="M 148.86512,87.143635 L 157.46666,88.891672 L 155.01752,69.480348 L 142.90032,77.825628 L 143.30544,91.391263 L 148.86512,87.143635 z "
       id="path1957"
       sodipodi:nodetypes="cccccc" />
    <path
       style="fill:url(#linearGradient2663);fill-opacity:0.75000000;fill-rule:evenodd;stroke-width:0.087337655pt;"
       d="M 156.99930,89.902866 L 163.84387,96.908054 L 163.78561,83.822758 L 155.66657,70.580065 L 156.99930,89.902866 z "
       id="path1958" />
    <path
       style="fill:url(#linearGradient2662);fill-opacity:0.75000000;fill-rule:evenodd;stroke-width:0.087337655pt;"
       d="M 145.01596,92.179019 L 149.74772,88.074762 L 156.87908,90.033870 L 169.01773,103.10403 L 156.90338,105.25996 L 145.01596,92.179019 z "
       id="path1959" />
    <path
       style="fill:url(#linearGradient2649);fill-opacity:0.75000000;fill-rule:evenodd;stroke-width:0.087337655pt;"
       d="M 183.90634,100.98431 L 178.99751,93.220382 L 163.48421,97.285241 L 169.50585,103.56336 L 183.90634,100.98431 z "
       id="path1960" />
    <path
       style="fill:url(#linearGradient2648);fill-opacity:0.75000000;fill-rule:evenodd;stroke-width:0.087337655pt;"
       d="M 163.91934,84.214703 L 176.99259,76.039966 L 155.25698,69.774555 L 163.91934,84.214703 z "
       id="path1961"
       sodipodi:nodetypes="cccc" />
    <path
       style="fill:url(#linearGradient2647);fill-opacity:0.75000000;fill-rule:evenodd;stroke-width:0.087337655pt;"
       d="M 176.60133,77.483861 L 179.52012,92.711575 L 184.11443,100.06503 L 187.20189,86.970572 L 176.60133,77.483861 z "
       id="path1962" />
  </g>
  <path
     style="fill:#ffffff;fill-rule:evenodd;stroke-width:0.83010836pt;"
     d="M 114.38053,51.776003 C 105.54878,56.495518 95.321243,57.345069 85.505548,57.983417 C 73.627518,58.482799 61.526181,57.871449 50.058493,54.539866 C 47.629127,53.811905 45.235466,52.587676 43.215164,51.295013 C 42.607686,54.069087 43.258313,57.166400 43.013948,60.066610 C 43.094826,81.136544 42.860739,102.21096 43.206967,123.27782 C 43.697927,129.64512 48.667327,134.61775 54.216206,137.18332 C 62.999339,141.42632 73.010400,141.85731 82.604205,141.75208 C 91.486160,141.39193 100.69765,139.88784 108.34468,135.09960 C 113.30854,131.90649 115.82425,125.98691 115.78619,120.20889 C 115.85946,97.024913 115.78105,73.836833 115.80943,50.651122 C 115.33314,51.026088 114.85682,51.401045 114.38053,51.776003 z "
     id="path2045" />
  <path
     style="fill:url(#linearGradient1497);fill-opacity:0.75000000;fill-rule:evenodd;stroke-width:0.83010836pt;"
     d="M 41.667911,47.255062 L 41.667911,121.80605 C 41.667911,137.05451 58.720253,143.53664 79.901855,143.53664 L 79.901855,143.53664 C 101.08347,143.53664 118.13580,137.05451 118.13580,121.80605 L 118.13580,47.255062 C 106.13142,59.679836 48.231390,58.094894 41.667911,47.255062 z "
     id="rect900"
     sodipodi:nodetypes="ccccccc" />
  <path
     style="fill:url(#linearGradient1491);fill-opacity:0.75000000;fill-rule:evenodd;stroke-width:1.0000000pt;"
     d="M 66.418262,120.60267 L 63.623629,134.91031 L 94.675095,134.91031 L 91.569947,120.90709 L 66.418262,120.60267 z "
     id="path902"
     transform="matrix(1.144062,0.000000,0.000000,1.144062,-11.40272,-3.048838)" />
  <path
     style="fill:url(#linearGradient1495);fill-opacity:0.75000000;fill-rule:evenodd;stroke-width:1.0000000pt;"
     d="M 65.232684,137.16531 L 63.595624,134.84128 L 94.669528,134.84128 L 93.056202,137.11586 L 65.232684,137.16531 z "
     id="path2506"
     sodipodi:nodetypes="ccccc"
     transform="matrix(1.144062,0.000000,0.000000,1.144062,-11.40272,-3.048838)" />
  <path
     style="fill:url(#linearGradient1493);fill-opacity:0.75000000;fill-rule:evenodd;stroke-width:1.0000000pt;"
     d="M 67.806164,127.83141 C 67.806164,125.02226 63.052328,122.67902 78.258085,122.67902 C 93.433909,122.67902 90.151639,125.14321 90.151639,127.83141 C 90.151639,130.52892 67.806164,130.41733 67.806164,127.83141 z "
     id="path1492"
     sodipodi:nodetypes="czzz"
     transform="matrix(1.144062,0.000000,0.000000,1.144062,-11.40272,-3.048838)" />
  <path
     sodipodi:type="arc"
     style="fill:#ffffff;fill-rule:evenodd;stroke-width:6.4378209;"
     id="path981"
     sodipodi:cx="361.33130"
     sodipodi:cy="427.59015"
     sodipodi:rx="119.48405"
     sodipodi:ry="46.066139"
     d="M 480.81535 427.59015 A 119.48405 46.066139 0 1 0 241.84725,427.59015 A 119.48405 46.066139 0 1 0 480.81535 427.59015 z"
     transform="matrix(0.253092,-0.168882,0.105613,0.158275,-62.51761,22.08493)" />
  <path
     sodipodi:type="arc"
     style="fill:url(#linearGradient1499);fill-opacity:0.75000000;fill-rule:evenodd;stroke:url(#linearGradient2508);stroke-width:6.4378209;"
     id="path2507"
     sodipodi:cx="361.33130"
     sodipodi:cy="427.59015"
     sodipodi:rx="119.48405"
     sodipodi:ry="46.066139"
     d="M 480.81535 427.59015 A 119.48405 46.066139 0 1 0 241.84725,427.59015 A 119.48405 46.066139 0 1 0 480.81535 427.59015 z"
     transform="matrix(0.259704,-0.173295,0.108372,0.162410,-66.16531,21.83607)" />
</svg>
