<?xml version="1.0" encoding="UTF-8" standalone="no"?>
<!DOCTYPE svg PUBLIC "-//W3C//DTD SVG 20010904//EN"
"http://www.w3.org/TR/2001/REC-SVG-20010904/DTD/svg10.dtd">
<!-- Created with Inkscape (http://www.inkscape.org/) -->
<svg
   id="svg2542"
   sodipodi:version="0.32"
   inkscape:version="0.39cvs"
   width="128.00000pt"
   height="128.00000pt"
   sodipodi:docbase="/home/andy/Desktop"
   sodipodi:docname="apacheconf..svg"
   xmlns="http://www.w3.org/2000/svg"
   xmlns:inkscape="http://www.inkscape.org/namespaces/inkscape"
   xmlns:sodipodi="http://sodipodi.sourceforge.net/DTD/sodipodi-0.dtd"
   xmlns:xlink="http://www.w3.org/1999/xlink">
  <defs
     id="defs2544">
    <linearGradient
       id="linearGradient3070">
      <stop
         style="stop-color:#ffffff;stop-opacity:1.0000000;"
         offset="0.0000000"
         id="stop3071" />
      <stop
         style="stop-color:#ffffff;stop-opacity:0.0000000;"
         offset="1.0000000"
         id="stop3072" />
    </linearGradient>
    <linearGradient
       id="linearGradient2698">
      <stop
         style="stop-color:#000000;stop-opacity:1.0000000;"
         offset="0.0000000"
         id="stop2699" />
      <stop
         style="stop-color:#000000;stop-opacity:0.0000000;"
         offset="1.0000000"
         id="stop2700" />
    </linearGradient>
    <linearGradient
       id="linearGradient2648">
      <stop
         style="stop-color:#ffffff;stop-opacity:1.0000000;"
         offset="0.0000000"
         id="stop2649" />
      <stop
         style="stop-color:#4d4d4d;stop-opacity:1.0000000;"
         offset="1.0000000"
         id="stop2650" />
    </linearGradient>
    <linearGradient
       xlink:href="#linearGradient865"
       id="linearGradient1011"
       x1="0.51162791"
       y1="1.7170019"
       x2="0.51162791"
       y2="0.48507461" />
    <linearGradient
       xlink:href="#linearGradient865"
       id="linearGradient1010"
       x1="0.42241380"
       y1="-0.35119733"
       x2="0.37790698"
       y2="0.58955216" />
    <linearGradient
       xlink:href="#linearGradient865"
       id="linearGradient864"
       y2="0.27586207"
       x2="0.35915494"
       y1="-0.060344826"
       x1="0.72887325" />
    <linearGradient
       id="linearGradient865">
      <stop
         style="stop-color:#ffffff;stop-opacity:1.0000000;"
         offset="0.00000000"
         id="stop866" />
      <stop
         style="stop-color:#ffffff;stop-opacity:0.00000000;"
         offset="1.0000000"
         id="stop868" />
    </linearGradient>
    <linearGradient
       xlink:href="#linearGradient865"
       id="linearGradient870"
       x1="-0.038732372"
       y1="1.1760001"
       x2="0.50352114"
       y2="0.57600003" />
    <linearGradient
       id="linearGradient853">
      <stop
         style="stop-color:#e3f9ff;stop-opacity:1.0000000;"
         offset="0.0000000"
         id="stop854" />
      <stop
         style="stop-color:#73bee7;stop-opacity:1.0000000;"
         offset="0.36194703"
         id="stop867" />
      <stop
         style="stop-color:#438ec5;stop-opacity:1.0000000;"
         offset="0.62534887"
         id="stop856" />
      <stop
         style="stop-color:#477daf;stop-opacity:1.0000000;"
         offset="0.72607356"
         id="stop1185" />
      <stop
         style="stop-color:#020407;stop-opacity:1.0000000;"
         offset="1.0000000"
         id="stop855" />
    </linearGradient>
    <radialGradient
       xlink:href="#linearGradient853"
       id="radialGradient852"
       cx="0.50704223"
       cy="0.57042253"
       r="0.58099657"
       fx="0.54577458"
       fy="0.13028193" />
    <linearGradient
       id="linearGradient1400">
      <stop
         style="stop-color:#000000;stop-opacity:0.67843139;"
         offset="0.0000000"
         id="stop1401" />
      <stop
         style="stop-color:#000000;stop-opacity:0.34831461;"
         offset="0.41707692"
         id="stop1403" />
      <stop
         style="stop-color:#ffffff;stop-opacity:0.0000000;"
         offset="1.0000000"
         id="stop1402" />
    </linearGradient>
    <radialGradient
       xlink:href="#linearGradient1400"
       id="radialGradient858"
       cx="0.50000000"
       cy="0.50000000"
       r="0.50000000"
       fx="0.50000000"
       fy="0.50000000" />
    <pattern
       width="48.000000"
       height="46.000000"
       id="pattern2548">
      <image
         xlink:href="/usr/share/icons/hicolor/48x48/apps/apacheconf.png"
         sodipodi:absref="/usr/share/icons/hicolor/48x48/apps/apacheconf.png"
         width="48.000000"
         height="46.000000"
         id="image2549" />
    </pattern>
    <linearGradient
       xlink:href="#linearGradient2648"
       id="linearGradient2646"
       x1="0.27843139"
       y1="-0.18947369"
       x2="0.95294118"
       y2="2.2631578" />
    <linearGradient
       xlink:href="#linearGradient2648"
       id="linearGradient2647"
       x1="0.22745098"
       y1="-0.16822430"
       x2="2.2000000"
       y2="3.9719627" />
    <linearGradient
       xlink:href="#linearGradient2648"
       id="linearGradient2651"
       x1="3.2696629"
       y1="2.2774193"
       x2="-0.022471910"
       y2="-0.10322580" />
    <linearGradient
       xlink:href="#linearGradient2648"
       id="linearGradient2652"
       x1="0.16000000"
       y1="0.070312500"
       x2="3.6133332"
       y2="2.6015625" />
    <linearGradient
       xlink:href="#linearGradient2648"
       id="linearGradient2661"
       x1="0.077519380"
       y1="0.078125000"
       x2="1.7984496"
       y2="1.9296875" />
    <linearGradient
       xlink:href="#linearGradient3070"
       id="linearGradient2662"
       x1="14.779338"
       y1="0.85161293"
       x2="14.779338"
       y2="0.11612903" />
    <linearGradient
       xlink:href="#linearGradient2648"
       id="linearGradient2664"
       x1="0.33333334"
       y1="-0.031914894"
       x2="0.70588237"
       y2="2.3829787" />
    <linearGradient
       xlink:href="#linearGradient2648"
       id="linearGradient2665"
       x1="0.20392157"
       y1="-0.46093750"
       x2="1.1254902"
       y2="2.8125000" />
    <radialGradient
       xlink:href="#linearGradient1400"
       id="radialGradient2927"
       cx="0.50000000"
       cy="0.50000000"
       r="0.50000000"
       fx="0.47843137"
       fy="-0.076086953" />
    <linearGradient
       xlink:href="#linearGradient2698"
       id="linearGradient2928"
       x1="-0.49044585"
       y1="-1.0967742"
       x2="0.52229297"
       y2="0.63870966" />
    <linearGradient
       xlink:href="#linearGradient3070"
       id="linearGradient3205"
       x1="9.2094307"
       y1="0.85161293"
       x2="9.2094307"
       y2="0.11612903" />
    <linearGradient
       xlink:href="#linearGradient3070"
       id="linearGradient3206"
       x1="3.6395216"
       y1="0.85161293"
       x2="3.6395216"
       y2="0.11612903" />
    <linearGradient
       xlink:href="#linearGradient3070"
       id="linearGradient3207"
       x1="-1.9303855"
       y1="0.85161293"
       x2="-1.9303855"
       y2="0.11612903" />
    <linearGradient
       xlink:href="#linearGradient3070"
       id="linearGradient2697"
       x1="0.095238097"
       y1="0.89062500"
       x2="0.95698923"
       y2="0.90625000" />
    <linearGradient
       xlink:href="#linearGradient3070"
       id="linearGradient3543" />
  </defs>
  <sodipodi:namedview
     id="base"
     pagecolor="#ffffff"
     bordercolor="#666666"
     borderopacity="1.0"
     inkscape:pageopacity="0.0"
     inkscape:pageshadow="2"
     inkscape:zoom="1.3766509"
     inkscape:cx="62.637662"
     inkscape:cy="60.293198"
     inkscape:window-width="385"
     inkscape:window-height="531"
     inkscape:window-x="470"
     inkscape:window-y="41"
     showgrid="false" />
  <path
     sodipodi:type="arc"
     style="fill:url(#radialGradient2927);fill-opacity:0.75000000;fill-rule:evenodd;stroke-width:1.0000000pt;"
     id="path3115"
     sodipodi:cx="79.895966"
     sodipodi:cy="77.944687"
     sodipodi:rx="68.379425"
     sodipodi:ry="68.379425"
     d="M 148.27539 77.944687 A 68.379425 68.379425 0 1 0 11.516541,77.944687 A 68.379425 68.379425 0 1 0 148.27539 77.944687 z"
     transform="matrix(-0.700276,0.000000,0.000000,0.250625,123.6198,94.15580)" />
  <g
     id="g970">
    <path
       sodipodi:type="arc"
       style="fill:url(#radialGradient858);fill-opacity:0.75000000;fill-rule:evenodd;stroke-width:1.0000000pt;"
       id="path1399"
       sodipodi:cx="79.895966"
       sodipodi:cy="77.944687"
       sodipodi:rx="68.379425"
       sodipodi:ry="68.379425"
       d="M 148.27539 77.944687 A 68.379425 68.379425 0 1 0 11.516541,77.944687 A 68.379425 68.379425 0 1 0 148.27539 77.944687 z"
       transform="matrix(-0.700276,0.000000,0.000000,0.250625,150.6139,79.33446)" />
    <path
       sodipodi:type="arc"
       style="fill:url(#radialGradient852);fill-opacity:0.75000000;fill-rule:evenodd;stroke-width:1.0000000pt;"
       id="path825"
       sodipodi:cx="224.57243"
       sodipodi:cy="453.50235"
       sodipodi:rx="172.74803"
       sodipodi:ry="172.74803"
       d="M 397.32047 453.50235 A 172.74803 172.74803 0 1 0 51.824402,453.50235 A 172.74803 172.74803 0 1 0 397.32047 453.50235 z"
       transform="matrix(-0.235549,0.000000,0.000000,0.235549,145.5463,-37.04545)" />
    <path
       style="fill:#0e7a0c;fill-opacity:0.59375000;fill-rule:evenodd;stroke-width:1.0000000pt;"
       d="M 80.468008,74.848774 C 78.638992,74.636181 78.620801,71.540737 80.437967,71.290146 C 81.579682,71.932585 82.640218,69.221654 83.222726,70.303248 C 82.741565,72.352365 85.355727,71.888219 85.854996,70.314312 C 86.597353,69.044264 86.225403,71.411393 86.510079,71.915085 C 87.174487,73.546799 85.117845,75.826937 83.601527,74.447281 C 82.517168,73.483852 81.522221,74.508091 80.468008,74.848774 z M 84.294079,75.975680 C 84.477422,76.684241 84.850358,76.747940 85.093783,76.000927 C 85.337210,75.293275 84.422654,75.424576 84.294079,75.975680 L 84.294079,75.975680 z M 70.447437,58.815866 C 68.936489,60.313019 68.489838,62.474165 67.987420,64.459933 C 68.360604,65.861340 69.486534,67.288996 68.189724,68.569094 C 67.360648,70.370814 64.692070,69.237170 65.357034,67.404822 C 65.323348,65.234216 65.057588,62.935263 66.100685,60.936968 C 66.672061,59.666367 67.753492,58.136931 69.315154,58.282342 C 69.727282,58.373941 70.093006,58.596105 70.447437,58.815866 z M 73.787627,63.826150 C 73.680434,62.084586 75.582532,62.233643 75.153570,60.153097 C 75.080494,58.387700 71.396597,59.267263 72.475602,57.161406 C 73.479963,55.587488 73.360196,54.779609 75.874452,54.373454 C 78.388710,53.855959 81.078635,53.250796 85.307631,56.369904 C 89.425286,59.489013 81.882972,57.015554 80.978557,58.160217 C 79.526257,59.383540 80.180901,62.061299 78.486886,62.623150 C 77.022830,63.561598 77.139340,65.501991 76.894888,67.022708 C 77.186212,68.268918 81.042484,67.384094 79.239295,69.093804 C 77.405764,69.559026 76.176632,67.713028 74.901761,66.739302 C 74.255947,66.128639 73.894819,65.456375 73.787627,63.826150 z M 86.480348,61.265339 C 88.037485,61.165563 88.676415,62.952184 88.539297,64.248774 C 87.690884,65.663307 89.558263,66.980768 90.481222,65.527281 C 91.476217,63.769624 89.853143,61.570199 88.333487,60.639322 C 87.661465,60.044025 86.337630,60.125268 86.480348,61.265339 z M 71.115475,76.184855 C 73.071535,76.155317 75.045842,75.711222 76.989887,76.119795 C 77.748283,77.138949 79.886787,77.851554 79.915342,78.917037 C 78.405551,79.972679 76.444899,78.981226 74.868165,78.572120 C 73.616317,78.192581 71.837274,78.455919 71.190422,77.048521 C 71.099284,76.772805 71.051914,76.472927 71.115475,76.184855 z "
       id="path846"
       sodipodi:nodetypes="ccczcccczzzcccccccccczzccccczccccccccccc"
       transform="matrix(2.932405,0.000000,0.000000,2.932405,-136.1383,-124.3852)" />
    <path
       style="fill:url(#linearGradient864);fill-opacity:0.75000000;fill-rule:evenodd;stroke-width:1.0000000pt;"
       d="M 66.012956,31.409303 C 91.447606,15.908323 143.19392,38.838783 135.60664,82.029373 C 125.33475,95.725223 106.73377,25.695983 66.012956,31.409303 z "
       id="path863"
       sodipodi:nodetypes="ccc"
       transform="matrix(-0.700276,0.000000,0.000000,0.700276,149.1820,13.14436)" />
    <path
       sodipodi:type="arc"
       style="fill:url(#linearGradient1010);fill-opacity:0.75000000;fill-rule:evenodd;stroke-width:1.0000000pt;"
       id="path868"
       sodipodi:cx="51.104626"
       sodipodi:cy="31.158760"
       sodipodi:rx="49.665058"
       sodipodi:ry="49.665058"
       d="M 100.76968 31.158760 A 49.665058 49.665058 0 1 0 1.4395676,31.158760 A 49.665058 49.665058 0 1 0 100.76968 31.158760 z"
       transform="matrix(-0.588639,0.000000,0.000000,0.395807,122.0548,37.37086)" />
    <path
       sodipodi:type="arc"
       style="fill:url(#linearGradient1011);fill-opacity:0.75000000;fill-rule:evenodd;stroke-width:1.0000000pt;"
       id="path884"
       sodipodi:cx="51.104626"
       sodipodi:cy="31.158760"
       sodipodi:rx="49.665058"
       sodipodi:ry="49.665058"
       d="M 100.76968 31.158760 A 49.665058 49.665058 0 1 0 1.4395676,31.158760 A 49.665058 49.665058 0 1 0 100.76968 31.158760 z"
       transform="matrix(-0.614010,0.000000,0.000000,0.482073,124.4614,70.92427)" />
    <rect
       style="fill:none;fill-opacity:0.75000000;fill-rule:evenodd;stroke:url(#linearGradient2647);stroke-width:5.0000000;stroke-linecap:round;stroke-linejoin:round;"
       id="rect3102"
       width="161.96339"
       height="59.425419"
       x="181.75784"
       y="732.31366"
       transform="matrix(0.141088,0.000000,0.000000,0.141088,16.62334,-8.271551)" />
    <path
       style="fill:none;fill-opacity:0.75000000;fill-rule:evenodd;stroke:url(#linearGradient2662);stroke-width:4.5195727;stroke-linecap:round;stroke-linejoin:round;stroke-opacity:1.0000000;"
       d="M 191.46943,842.08488 L 191.46943,927.28750"
       id="path2940"
       transform="matrix(0.141088,0.000000,0.000000,0.141088,16.62334,-8.271551)" />
    <path
       style="fill:none;fill-opacity:0.75000000;fill-rule:evenodd;stroke:url(#linearGradient3205);stroke-width:4.5195727;stroke-linecap:round;stroke-linejoin:round;stroke-opacity:1.0000000;"
       d="M 216.64303,842.08488 L 216.64303,927.28750"
       id="path2941"
       transform="matrix(0.141088,0.000000,0.000000,0.141088,16.62334,-8.271551)" />
    <path
       style="fill:none;fill-opacity:0.75000000;fill-rule:evenodd;stroke:url(#linearGradient3206);stroke-width:4.5195727;stroke-linecap:round;stroke-linejoin:round;stroke-opacity:1.0000000;"
       d="M 241.81664,842.08488 L 241.81664,927.28750"
       id="path2942"
       transform="matrix(0.141088,0.000000,0.000000,0.141088,16.62334,-8.271551)" />
    <path
       style="fill:none;fill-opacity:0.75000000;fill-rule:evenodd;stroke:url(#linearGradient3207);stroke-width:4.5195727;stroke-linecap:round;stroke-linejoin:round;stroke-opacity:1.0000000;"
       d="M 266.99024,842.08488 L 266.99024,927.28750"
       id="path2943"
       transform="matrix(0.141088,0.000000,0.000000,0.141088,16.62334,-8.271551)" />
    <path
       style="fill:none;fill-opacity:0.75000000;fill-rule:evenodd;stroke:#000000;stroke-width:4.5195727;stroke-linecap:round;stroke-linejoin:round;stroke-opacity:0.20754714;"
       d="M 188.57290,842.44477 L 188.57290,927.64739"
       id="path3109"
       transform="matrix(0.141088,0.000000,0.000000,0.141088,16.62334,-8.271551)" />
    <path
       style="fill:none;fill-opacity:0.75000000;fill-rule:evenodd;stroke:#000000;stroke-width:4.5195727;stroke-linecap:round;stroke-linejoin:round;stroke-opacity:0.20754714;"
       d="M 213.74651,842.44477 L 213.74651,927.64739"
       id="path2930"
       transform="matrix(0.141088,0.000000,0.000000,0.141088,16.62334,-8.271551)" />
    <path
       style="fill:none;fill-opacity:0.75000000;fill-rule:evenodd;stroke:#000000;stroke-width:4.5195727;stroke-linecap:round;stroke-linejoin:round;stroke-opacity:0.20754714;"
       d="M 238.92011,842.44477 L 238.92011,927.64739"
       id="path2931"
       transform="matrix(0.141088,0.000000,0.000000,0.141088,16.62334,-8.271551)" />
    <path
       style="fill:none;fill-opacity:0.75000000;fill-rule:evenodd;stroke:#000000;stroke-width:4.5195727;stroke-linecap:round;stroke-linejoin:round;stroke-opacity:0.20754714;"
       d="M 264.09372,842.44477 L 264.09372,927.64739"
       id="path2932"
       transform="matrix(0.141088,0.000000,0.000000,0.141088,16.62334,-8.271551)" />
  </g>
  <g
     id="g1007">
    <path
       style="fill:#ffffff;fill-rule:evenodd;stroke-width:1.1347766;"
       d="M 25.455767,124.11752 L 26.142685,58.173321 C 26.175609,55.015252 29.510187,47.904046 32.668438,47.904046 L 65.297078,47.904046 C 67.887608,47.904046 70.792423,54.208955 70.792423,56.799485 L 70.792423,121.71331 C 70.792423,124.54668 67.615261,127.72384 64.781890,127.72384 L 30.607683,127.72384 C 28.511433,127.72384 25.433949,126.21362 25.455767,124.11752 z "
       id="path3542"
       sodipodi:nodetypes="czzzzzzzz" />
    <path
       style="fill:url(#linearGradient2652);fill-opacity:0.75000000;fill-rule:evenodd;stroke:url(#linearGradient2651);stroke-width:8.0430412;"
       d="M 61.025699,938.26551 L 65.894421,470.86786 C 66.127776,448.48418 89.762521,398.08155 112.14749,398.08155 L 343.41195,398.08155 C 361.77304,398.08155 382.36172,442.76933 382.36172,461.13042 L 382.36172,921.22499 C 382.36172,941.30728 359.84271,963.82630 339.76041,963.82630 L 97.541322,963.82630 C 82.683573,963.82630 60.871059,953.12219 61.025699,938.26551 z "
       id="path3098"
       sodipodi:nodetypes="czzzzzzzz"
       transform="matrix(0.141088,0.000000,0.000000,0.141088,16.62334,-8.271551)" />
    <rect
       style="fill:none;fill-opacity:0.75000000;fill-rule:evenodd;stroke:url(#linearGradient2664);stroke-width:5.0000000;stroke-linecap:round;stroke-linejoin:round;"
       id="rect3099"
       width="247.24902"
       height="87.789070"
       x="98.678825"
       y="486.32764"
       transform="matrix(0.141088,0.000000,0.000000,0.141088,16.62334,-8.271551)" />
    <path
       sodipodi:type="arc"
       style="fill:url(#linearGradient2661);fill-opacity:0.75000000;fill-rule:evenodd;stroke:url(#linearGradient2928);stroke-width:0.23312077;"
       id="path3100"
       sodipodi:cx="57.945324"
       sodipodi:cy="76.854073"
       sodipodi:rx="1.4446203"
       sodipodi:ry="1.4446203"
       d="M 59.389944 76.854073 A 1.4446203 1.4446203 0 1 0 56.500704,76.854073 A 1.4446203 1.4446203 0 1 0 59.389944 76.854073 z"
       transform="matrix(3.026071,0.000000,0.000000,3.026071,-141.2021,-132.8789)" />
    <rect
       style="fill:none;fill-opacity:0.75000000;fill-rule:evenodd;stroke:url(#linearGradient2646);stroke-width:5.0000000;stroke-linecap:round;stroke-linejoin:round;"
       id="rect3101"
       width="247.24902"
       height="87.789070"
       x="97.818100"
       y="600.79700"
       transform="matrix(0.141088,0.000000,0.000000,0.141088,16.62334,-8.271551)" />
    <rect
       style="fill:url(#linearGradient2665);fill-opacity:0.75000000;fill-rule:evenodd;stroke-width:0.20000000;stroke-linecap:round;stroke-linejoin:round;stroke-opacity:0.13836475;"
       id="rect3103"
       width="251.85912"
       height="124.75816"
       x="92.023590"
       y="820.57336"
       transform="matrix(0.141088,0.000000,0.000000,0.141088,16.62334,-8.271551)" />
    <path
       style="fill:url(#linearGradient2697);fill-opacity:0.75000000;fill-rule:evenodd;stroke-width:1.0000000pt;"
       d="M 68.903078,74.796363 C 61.601272,88.991082 59.185569,104.34056 45.087475,106.87527 C 30.989382,109.40998 26.210044,118.89392 26.773968,123.96334 C 27.337891,129.03277 65.684705,128.18787 67.376478,125.65315 C 69.068248,123.11844 69.068248,119.31637 69.068248,117.20411 C 69.068248,115.09185 71.158773,75.430041 68.903078,74.796363 z "
       id="path3069"
       sodipodi:nodetypes="czzccc" />
    <path
       style="fill:none;fill-opacity:0.75000000;fill-rule:evenodd;stroke:#ffffff;stroke-width:4.5195727;stroke-linecap:round;stroke-linejoin:round;"
       d="M 166.29582,842.08488 L 166.29582,927.28750"
       id="path2944"
       transform="matrix(0.141088,0.000000,0.000000,0.141088,16.62334,-8.271551)" />
    <path
       style="fill:none;fill-opacity:0.75000000;fill-rule:evenodd;stroke:#000000;stroke-width:4.5195727;stroke-linecap:round;stroke-linejoin:round;stroke-opacity:0.20754714;"
       d="M 163.39930,842.44477 L 163.39930,927.64739"
       id="path2935"
       transform="matrix(0.141088,0.000000,0.000000,0.141088,16.62334,-8.271551)" />
  </g>
</svg>
