<?xml version="1.0" encoding="UTF-8" standalone="no"?>
<!DOCTYPE svg PUBLIC "-//W3C//DTD SVG 20010904//EN"
"http://www.w3.org/TR/2001/REC-SVG-20010904/DTD/svg10.dtd">
<!-- Created with Inkscape (http://www.inkscape.org/) -->
<svg
   id="svg1"
   sodipodi:version="0.32"
   inkscape:version="0.39cvs"
   width="128.00000pt"
   height="128.00000pt"
   sodipodi:docbase="/home/andy/Desktop/Etiquette/etiquette-icons-0.6/scalable/apps"
   sodipodi:docname="firefox.svg"
   xmlns="http://www.w3.org/2000/svg"
   xmlns:inkscape="http://www.inkscape.org/namespaces/inkscape"
   xmlns:sodipodi="http://sodipodi.sourceforge.net/DTD/sodipodi-0.dtd"
   xmlns:xlink="http://www.w3.org/1999/xlink">
  <defs
     id="defs3">
    <linearGradient
       id="linearGradient1715">
      <stop
         style="stop-color:#d1940c;stop-opacity:1.0000000;"
         offset="0.0000000"
         id="stop1716" />
      <stop
         style="stop-color:#eed680;stop-opacity:1.0000000;"
         offset="1.0000000"
         id="stop1717" />
    </linearGradient>
    <linearGradient
       id="linearGradient1678">
      <stop
         style="stop-color:#d1940c;stop-opacity:0.0000000;"
         offset="0.0000000"
         id="stop1679" />
      <stop
         style="stop-color:#ffe689;stop-opacity:1.0000000;"
         offset="1.0000000"
         id="stop1680" />
    </linearGradient>
    <linearGradient
       id="linearGradient865">
      <stop
         style="stop-color:#ffffff;stop-opacity:1.0000000;"
         offset="0.00000000"
         id="stop866" />
      <stop
         style="stop-color:#ffffff;stop-opacity:0.00000000;"
         offset="1.0000000"
         id="stop868" />
    </linearGradient>
    <linearGradient
       id="linearGradient853">
      <stop
         style="stop-color:#578dbb;stop-opacity:1.0000000;"
         offset="0.0000000"
         id="stop854" />
      <stop
         style="stop-color:#0b335d;stop-opacity:1.0000000;"
         offset="1.0000000"
         id="stop855" />
    </linearGradient>
    <linearGradient
       id="linearGradient1400">
      <stop
         style="stop-color:#000000;stop-opacity:0.67843139;"
         offset="0.0000000"
         id="stop1401" />
      <stop
         style="stop-color:#000000;stop-opacity:0.32941177;"
         offset="0.56999999"
         id="stop1403" />
      <stop
         style="stop-color:#000000;stop-opacity:0.00000000;"
         offset="1.0000000"
         id="stop1402" />
    </linearGradient>
    <linearGradient
       id="linearGradient1544">
      <stop
         style="stop-color:#000000;stop-opacity:0.0000000;"
         offset="0.0000000"
         id="stop1545" />
      <stop
         style="stop-color:#000000;stop-opacity:0.32989690;"
         offset="1.0000000"
         id="stop1546" />
    </linearGradient>
    <linearGradient
       id="linearGradient1539">
      <stop
         style="stop-color:#ffffff;stop-opacity:0.0000000;"
         offset="0.0000000"
         id="stop1540" />
      <stop
         style="stop-color:#fff;stop-opacity:1;"
         offset="1"
         id="stop1541" />
    </linearGradient>
    <pattern
       width="399.00000"
       height="109.00000"
       id="pattern903">
      <image
         xlink:href="/home/andy/Desktop/h-ff-dl.png"
         sodipodi:absref="/home/andy/Desktop/h-ff-dl.png"
         width="399.00000"
         height="109.00000"
         id="image904" />
    </pattern>
    <pattern
       width="1600.0000"
       height="1200.0000"
       id="pattern912">
      <image
         xlink:href="/home/andy/ffox.png"
         sodipodi:absref="/home/andy/ffox.png"
         width="1600.0000"
         height="1200.0000"
         id="image913" />
    </pattern>
    <linearGradient
       xlink:href="#linearGradient1539"
       id="linearGradient1542"
       x1="0.52765960"
       y1="0.46093750"
       x2="0.35319149"
       y2="-1.3281250" />
    <linearGradient
       xlink:href="#linearGradient1544"
       id="linearGradient1543"
       x1="0.57391304"
       y1="0.79691941"
       x2="0.57391304"
       y2="-0.054687500" />
    <linearGradient
       xlink:href="#linearGradient1544"
       id="linearGradient1547"
       x1="0.99607843"
       y1="0.69512194"
       x2="-0.042956594"
       y2="0.67073172" />
    <linearGradient
       xlink:href="#linearGradient1544"
       id="linearGradient1548"
       x1="0.93162394"
       y1="0.75781250"
       x2="0.18803419"
       y2="-0.054687500" />
    <linearGradient
       xlink:href="#linearGradient1544"
       id="linearGradient1011"
       x1="0.78918916"
       y1="0.75781250"
       x2="-0.28108108"
       y2="0.50781250" />
    <linearGradient
       xlink:href="#linearGradient1678"
       id="linearGradient1010"
       x1="0.53521127"
       y1="0.12500000"
       x2="0.12676056"
       y2="1.0312500" />
    <linearGradient
       xlink:href="#linearGradient1678"
       id="linearGradient864"
       x1="0.62745100"
       y1="0.20312500"
       x2="0.52941179"
       y2="1.2031250" />
    <linearGradient
       xlink:href="#linearGradient1678"
       id="linearGradient870"
       x1="0.74358976"
       y1="0.22656250"
       x2="0.68376070"
       y2="1.5390625" />
    <linearGradient
       xlink:href="#linearGradient865"
       id="linearGradient1681"
       x1="1.4666667"
       y1="0.74528301"
       x2="0.43137255"
       y2="0.55660379" />
    <linearGradient
       xlink:href="#linearGradient1678"
       id="linearGradient2268"
       x1="0.27027026"
       y1="0.72656250"
       x2="0.37837839"
       y2="-0.093750000" />
    <linearGradient
       xlink:href="#linearGradient1678"
       id="linearGradient2270"
       x1="0.45901638"
       y1="0.82031250"
       x2="1.2786885"
       y2="-1.0859375" />
    <linearGradient
       xlink:href="#linearGradient1678"
       id="linearGradient2271"
       x1="0.69105691"
       y1="0.21875000"
       x2="0.36585367"
       y2="1.2968750" />
    <linearGradient
       xlink:href="#linearGradient1678"
       id="linearGradient3443"
       x1="0.31360948"
       y1="0.54687500"
       x2="1.1775148"
       y2="0.046875000" />
    <radialGradient
       xlink:href="#linearGradient1400"
       id="radialGradient852"
       cx="0.50000000"
       cy="0.50000000"
       r="0.44235423"
       fx="0.50810808"
       fy="0.68750000" />
    <linearGradient
       xlink:href="#linearGradient865"
       id="linearGradient4617"
       x1="2.4314721"
       y1="0.015625000"
       x2="-0.26395938"
       y2="0.47656250" />
    <linearGradient
       xlink:href="#linearGradient1678"
       id="linearGradient5789"
       x1="0.45454547"
       y1="0.35937500"
       x2="1.3030303"
       y2="2.2031250" />
    <radialGradient
       xlink:href="#linearGradient853"
       id="radialGradient858"
       cx="0.53488374"
       cy="0.22656250"
       r="0.63570690"
       fx="0.53875971"
       fy="-0.031250000" />
    <linearGradient
       xlink:href="#linearGradient1539"
       id="linearGradient7622"
       x1="0.37209302"
       y1="0.60156250"
       x2="0.37209302"
       y2="-0.12500000" />
    <linearGradient
       xlink:href="#linearGradient1678"
       id="linearGradient7625"
       x1="0.51999998"
       y1="0.66406250"
       x2="0.22666667"
       y2="-0.070312500" />
    <linearGradient
       xlink:href="#linearGradient1539"
       id="linearGradient3418"
       x1="0.62162161"
       y1="0.65625000"
       x2="0.67027026"
       y2="2.1171875" />
    <linearGradient
       xlink:href="#linearGradient1715"
       id="linearGradient1714"
       x1="0.57254905"
       y1="0.43043479"
       x2="-0.098039217"
       y2="-0.38260868" />
    <linearGradient
       xlink:href="#linearGradient1400"
       id="linearGradient1770"
       x1="1.0629370"
       y1="0.85937500"
       x2="0.59440559"
       y2="0.32031250" />
  </defs>
  <sodipodi:namedview
     id="base"
     pagecolor="#ffffff"
     bordercolor="#666666"
     borderopacity="1.0"
     inkscape:pageopacity="0.0"
     inkscape:pageshadow="2"
     inkscape:zoom="4.9119413"
     inkscape:cx="92.369997"
     inkscape:cy="70.338292"
     inkscape:window-width="640"
     inkscape:window-height="491"
     inkscape:window-x="64"
     inkscape:window-y="213" />
  <path
     sodipodi:type="arc"
     style="fill:url(#radialGradient852);fill-opacity:0.75000000;fill-rule:evenodd;stroke-width:1.0000000pt;"
     id="path3419"
     sodipodi:cx="79.895966"
     sodipodi:cy="77.944687"
     sodipodi:rx="68.379425"
     sodipodi:ry="68.379425"
     d="M 148.27539 77.944687 A 68.379425 68.379425 0 1 0 11.516541,77.944687 A 68.379425 68.379425 0 1 0 148.27539 77.944687 z"
     transform="matrix(1.135533,0.000000,0.000000,0.549643,-7.763418,73.86775)" />
  <path
     style="fill:url(#radialGradient858);fill-opacity:0.75000000;fill-rule:evenodd;stroke-width:2.8855762;"
     d="M 140.04252,78.623373 C 140.04252,110.92532 113.82645,137.14139 81.524500,137.14139 C 49.222551,137.14139 23.006475,110.92532 23.006475,78.623373 C 23.006475,46.321424 49.222551,20.105351 81.524500,20.105351 C 113.82645,20.105351 140.04252,46.321424 140.04252,78.623373 z "
     id="path7017" />
  <path
     style="fill:#7590ae;fill-opacity:0.65340906;fill-rule:evenodd;stroke-width:1.0000000pt;"
     d="M 54.157583,48.152350 C 55.666360,46.281887 56.256532,43.423047 58.427092,42.556766 C 60.597652,41.690485 65.257743,42.556766 67.180945,42.954670 C 69.104108,43.352574 68.905182,45.076818 69.966265,44.944183 C 71.027310,44.811549 72.419989,43.153620 73.547369,42.158863 C 74.674749,41.164106 76.067428,39.904085 76.730581,38.975643 C 77.393773,38.047206 77.583982,37.684799 77.526404,36.588230 C 77.468785,35.491657 76.293874,33.235565 76.384991,32.396216 C 76.476109,31.556868 78.495197,32.255537 78.073148,31.552138 C 77.651099,30.848739 74.087194,28.926116 73.852736,28.175824 C 73.618277,27.425529 75.728484,27.144171 76.666357,27.050383 C 77.604192,26.956596 78.542065,27.894462 79.479939,27.613104 C 80.417813,27.331741 81.215003,25.549801 82.293521,25.362226 C 83.372078,25.174652 85.200918,25.878051 85.951201,26.487664 C 86.701484,27.097279 86.279474,28.269608 86.795299,29.019902 C 87.311124,29.770194 89.046149,30.473593 89.046149,30.989418 C 89.046149,31.505243 86.982851,31.364564 86.795299,32.114854 C 86.607709,32.865150 87.264216,34.412623 87.920724,35.491169 C 88.577232,36.569714 90.312257,37.507579 90.734306,38.586125 C 91.156355,39.664669 90.499847,41.399721 90.452940,41.962438 C 90.406072,42.525159 88.764783,43.931957 89.890247,44.494678 C 91.015672,45.057394 96.361509,42.525159 96.361509,42.525159 C 96.361509,42.525159 100.86325,41.399721 102.27004,42.243800 C 103.67686,43.087879 103.44237,45.995260 103.95819,46.464193 C 104.47402,46.933126 105.92772,48.058563 107.05317,49.277790 C 108.17860,50.497015 109.49162,53.310609 110.71085,53.779541 C 111.93005,54.248474 113.19615,52.560317 114.36848,52.091384 C 115.54082,51.622451 116.47869,51.528664 117.74480,50.965948 C 119.01093,50.403227 121.07423,48.527496 121.96520,48.715071 C 122.85618,48.902642 122.43414,50.825265 123.09064,52.091384 C 123.74715,53.357504 125.06016,55.139444 125.90423,56.311776 C 126.74831,57.484109 127.96754,57.577893 128.15511,59.125370 C 128.34269,60.672849 128.06132,64.330520 127.02968,65.596641 C 125.99802,66.862760 123.55957,66.393827 121.96520,66.722081 C 120.37083,67.050335 117.51034,66.862760 117.46347,67.566160 C 117.41657,68.269559 120.32394,70.708007 121.68385,70.942474 C 123.04375,71.176940 124.12229,68.597809 125.62288,68.972954 C 127.12346,69.348100 130.03084,71.458302 130.68734,73.193351 C 131.34385,74.928400 129.46812,78.070247 129.56191,79.383258 C 129.65570,80.696270 131.29696,79.992871 131.25007,81.071415 C 131.20318,82.149960 129.60880,85.057342 129.28055,85.854529 C 128.95230,86.651715 126.74831,89.230842 126.74831,90.918999 C 126.74831,92.607157 124.35676,97.437165 123.65337,97.952991 C 122.94996,98.468811 120.60529,99.734931 119.43297,101.04795 C 118.26062,102.36096 118.11994,104.89319 116.61937,105.83105 C 115.11881,106.76891 112.21141,106.72203 110.42948,106.67513 C 108.64752,106.62825 106.63113,106.48756 105.92772,105.54970 C 105.22434,104.61183 105.69326,102.22028 106.20908,101.04795 C 106.72490,99.875621 108.17860,98.984651 109.02270,98.515711 C 109.86676,98.046771 111.17977,98.750171 111.27354,98.234351 C 111.36731,97.718521 109.49162,96.030366 109.58539,95.420754 C 109.67916,94.811142 111.03908,95.373863 111.83627,94.576676 C 112.63346,93.779488 114.13403,92.138227 114.36848,90.637642 C 114.60298,89.137059 113.38375,86.886182 113.24306,85.573171 C 113.10237,84.260159 113.05546,82.994039 113.52442,82.759573 C 113.99334,82.525106 115.25945,84.494625 116.05664,84.166371 C 116.85383,83.838117 117.93239,82.009281 118.30752,80.790058 C 118.68267,79.570833 118.02616,77.695102 118.30752,76.851023 C 118.58889,76.006945 120.04258,76.147627 119.99568,75.725587 C 119.94880,75.303549 118.40132,74.834612 118.02616,74.318787 C 117.65103,73.802962 118.82336,72.677522 117.74480,72.630631 C 116.66628,72.583739 112.96169,74.459471 111.55490,74.037429 C 110.14812,73.615392 109.49162,71.270727 109.30403,70.098395 C 109.11648,68.926062 110.38258,67.800626 110.42948,67.003439 C 110.47635,66.206253 110.10122,65.409070 109.58539,65.315282 C 109.06957,65.221495 107.80346,66.581398 107.33451,66.440718 C 106.86559,66.300039 106.58422,65.080816 106.77181,64.471203 C 106.95936,63.861591 108.74133,63.861591 108.45997,62.783047 C 108.17860,61.704501 106.25599,58.703334 105.08365,57.999934 C 103.91132,57.296534 102.36385,58.656441 101.42598,58.562655 C 100.48811,58.468867 99.831599,56.593135 99.456457,57.437213 C 99.081316,58.281292 99.737823,62.642368 99.175091,63.627126 C 98.612398,64.611883 97.158700,63.720909 96.080143,63.345763 C 95.001586,62.970618 93.735478,61.423140 92.703829,61.376247 C 91.672180,61.329356 90.359164,61.798285 89.890247,63.064405 C 89.421291,64.330520 88.999281,67.284797 89.890247,68.972954 C 90.781214,70.661112 94.438893,71.880339 95.236084,73.193351 C 96.033275,74.506362 94.579577,75.491120 94.673352,76.851023 C 94.767128,78.210927 95.095401,80.602487 95.798777,81.352777 C 96.502192,82.103069 98.659266,80.790058 98.893725,81.352777 C 99.128223,81.915498 96.877333,83.885013 97.205568,84.729092 C 97.533841,85.573171 101.09775,85.479383 100.86325,86.417248 C 100.62879,87.355115 97.627617,89.605992 95.798777,90.356283 C 93.969937,91.106574 90.874989,90.825212 89.890247,90.918999 C 88.905466,91.012786 85.669835,96.546190 85.669835,97.671631 C 85.669835,98.797061 85.904294,105.64348 86.795299,105.54970 C 87.686266,105.45590 90.640530,104.65872 92.141097,104.98698 C 93.641703,105.31523 94.814035,106.48756 95.798777,107.51922 C 96.783558,108.55087 97.674524,110.56728 98.049666,111.17688 C 98.424808,111.78650 98.049666,113.42777 96.924241,113.99048 C 95.798777,114.55320 90.452940,118.21088 88.202090,117.92951 C 85.951201,117.64816 78.073148,117.08543 77.510416,115.39728 C 76.947684,113.70912 76.666357,110.61417 76.947684,110.05144 C 77.229050,109.48873 77.885557,107.37854 78.635840,106.67513 C 79.386163,105.97174 80.886730,106.39377 81.449462,105.83105 C 82.012155,105.26833 81.730828,104.09601 82.012155,103.29882 C 82.293521,102.50164 82.950028,101.42309 83.137619,101.04795 C 83.325170,100.67280 84.825776,97.671631 83.981678,96.546190 C 83.137619,95.420754 82.012155,93.732597 80.605364,93.732597 C 79.198573,93.732597 75.259527,95.702113 73.852736,95.983470 C 72.445945,96.264832 66.537376,93.732597 65.411950,93.169877 C 64.286526,92.607157 55.283008,88.105406 53.313486,88.105406 C 51.343963,88.105406 48.249015,81.915498 48.530381,80.790058 C 48.811747,79.664621 55.283008,72.161697 54.438950,69.535675 C 53.594852,66.909652 49.421347,57.343430 49.374479,53.779541 C 49.327572,50.215657 52.648808,50.022812 54.157583,48.152350 z "
     id="path7667"
     sodipodi:nodetypes="czzzzzzzzzzzzzzzzzzzzzzzzzzzzzzzzzzzzzzzzzzzzzzzzzzzzzzzzzzzzzzzzzzzzzzzzzzzzzzzzzzzzzzzzzzzzzzzzzzzzzzzzz" />
  <path
     sodipodi:type="arc"
     style="fill:url(#linearGradient7622);fill-opacity:0.75000000;fill-rule:evenodd;stroke-width:1.0000000pt;"
     id="path1564"
     sodipodi:cx="-1072.8956"
     sodipodi:cy="166.76524"
     sodipodi:rx="79.398346"
     sodipodi:ry="79.398346"
     d="M -993.49728 166.76524 A 79.398346 79.398346 0 1 0 -1152.2940,166.76524 A 79.398346 79.398346 0 1 0 -993.49728 166.76524 z"
     transform="matrix(0.451032,0.000000,0.000000,0.300689,567.0745,-0.240861)" />
  <path
     style="fill:url(#linearGradient1714);fill-rule:evenodd;stroke-width:2.3535337;"
     d="M -214.51413,161.62625 C -220.13081,155.88607 -238.94439,153.48283 -241.99817,156.02765 C -245.05195,158.57247 -251.15952,166.20692 -246.57884,170.78760 C -241.99817,175.36827 -228.46697,192.79124 -223.67547,193.69097 C -218.88397,194.59070 -204.04730,196.06113 -197.20936,193.18200 C -185.54436,182.78630 -172.43979,181.02802 -160.05501,191.14615 C -157.15030,193.63951 -152.01185,195.17139 -152.06066,199.52596 C -152.09938,202.98093 -156.98563,205.47946 -164.12672,205.39713 C -173.96668,211.16539 -183.80665,216.93364 -193.64661,222.70190 C -204.29369,227.29817 -214.22097,228.65540 -227.74718,226.77361 C -212.63794,242.43359 -187.81721,254.28003 -165.14464,251.44027 C -142.11778,248.55614 -117.29145,234.49600 -102.54210,209.46884 C -103.16079,217.37898 -103.77948,225.28912 -104.39817,233.19926 C -87.951663,213.12558 -83.211323,184.90849 -87.123363,153.63761 C -80.979623,158.58877 -79.416563,168.62958 -76.326613,175.61659 C -69.680973,155.81902 -74.741503,131.94972 -77.766183,110.11629 C -73.207553,112.75550 -68.648923,115.39470 -64.090293,118.03391 C -68.648063,82.371128 -103.23470,64.522088 -129.16895,56.343348 C -124.18868,53.376898 -118.19049,53.973188 -110.15643,52.533618 C -116.37251,45.037638 -118.51688,38.050628 -143.56462,32.590498 C -105.03769,32.087738 -57.349413,43.291148 -46.815493,95.720618 C -44.481493,85.643658 -44.692313,76.075648 -48.974843,65.489718 C -31.895873,86.850358 -26.014113,118.89923 -25.221983,141.78676 C -23.062633,137.46806 -20.903283,133.14936 -18.743933,128.83066 C -11.388502,178.44377 -37.624683,275.89947 -127.99029,317.36916 C -182.44941,336.87944 -238.85956,323.30707 -281.18838,290.90305 C -323.51719,258.49902 -358.59203,201.90113 -335.34935,136.41446 C -339.08175,138.78962 -342.09438,142.96425 -345.82678,145.33941 C -344.45956,128.31220 -338.77362,112.72457 -324.45030,97.496818 C -327.33443,78.834818 -324.61995,58.136958 -310.19931,38.457018 C -306.63657,51.181118 -302.56485,63.396248 -291.87662,72.048628 C -278.98287,67.807268 -269.14290,67.128648 -253.19537,70.012778 C -241.31955,58.306608 -225.88098,48.636298 -209.42448,49.654228 C -222.68811,55.885288 -232.41019,71.626988 -233.85475,85.281688 C -216.21067,111.53699 -192.14650,100.23537 -192.11972,108.69403 C -192.09294,116.13475 -208.74586,122.26638 -219.60376,133.12428 C -215.87137,139.23184 -213.33154,149.64751 -214.51413,161.62625 z "
     id="path919"
     sodipodi:nodetypes="czczcczccczcccccccccccccczcccccccczcc"
     transform="matrix(0.424893,0.000000,0.000000,0.424893,159.8172,7.042437)" />
  <path
     style="fill:url(#linearGradient1770);fill-rule:evenodd;stroke-width:2.3535337;"
     d="M 97.406250,20.477591 C 102.19272,22.814210 108.46834,23.145396 111.57809,28.170962 C 111.42546,29.532831 106.20729,29.071058 104.32558,30.431209 C 103.06303,31.573147 110.19337,33.036571 112.31053,34.313768 C 121.41421,38.221764 130.07057,45.634554 131.81250,55.852591 C 129.52731,54.959588 124.71844,50.210603 126.53512,55.440666 C 127.44260,63.356417 129.36680,71.459870 127.31250,79.352591 C 126.37283,75.996986 124.76183,72.926425 122.25000,70.477591 C 123.03679,79.456713 123.30642,88.754703 119.79751,97.245381 C 119.34841,99.030041 115.61640,106.69502 116.45996,101.64998 C 116.26962,99.401931 118.32867,90.761437 115.55374,96.049219 C 109.32518,106.12132 97.971710,113.07674 86.062500,113.32134 C 78.246740,112.66340 70.600528,109.38168 64.906250,103.94634 C 72.391920,105.16778 79.342628,101.70030 85.361641,97.647437 C 88.118486,95.889363 90.927990,94.190028 94.218750,93.915091 C 97.688120,92.166346 94.670322,88.515457 92.218750,87.602591 C 88.149131,84.262966 81.865418,83.627356 77.733550,87.198238 C 74.076887,90.042303 68.734668,89.169146 64.583383,88.283180 C 60.928999,85.372111 57.380107,81.798763 55.062500,77.758841 C 55.478619,73.818876 59.560949,72.446835 62.930649,73.753689 C 65.457734,73.073729 69.945392,78.894811 69.351517,74.451599 C 69.808702,70.690781 68.744256,67.044116 67.250000,63.633841 C 70.672198,59.944073 76.287986,58.320864 78.681488,53.827959 C 79.363319,50.117967 74.031273,50.998600 71.753866,50.212932 C 67.458041,49.364050 62.781765,46.413285 61.293944,42.418470 C 62.288665,35.638326 67.224774,30.332599 73.093750,27.196341 C 66.388669,27.191329 59.681922,29.206305 54.696662,33.830139 C 52.360178,37.521986 48.294467,34.908729 44.809133,35.379917 C 41.832935,35.289375 38.889920,35.982968 36.062500,36.852591 C 31.477490,33.102070 30.178204,27.178238 28.218750,21.883841 C 23.558910,28.673965 20.330083,36.770843 21.261115,45.131116 C 22.634881,49.516759 17.398747,51.605016 16.280895,55.444480 C 13.518790,59.826089 12.874297,65.048735 12.156250,70.071341 C 15.533969,66.801451 16.956461,65.909098 15.059393,71.013923 C 13.030701,80.741626 13.457018,91.080700 17.020280,100.40778 C 22.607581,115.80695 34.626772,128.46486 48.683131,136.56681 C 65.395593,146.36049 86.322294,148.91387 104.72537,142.56252 C 125.45167,133.81769 141.44853,115.34873 148.39296,94.073365 C 152.00104,83.720635 153.72187,72.563446 152.50000,61.602591 C 152.88936,55.241778 149.36765,68.692584 149.43980,63.381984 C 148.52167,52.987795 145.78236,42.211136 139.15008,33.981992 C 137.14222,33.012531 140.46237,39.186319 140.06250,41.321341 C 139.84352,47.522501 139.11127,41.128110 137.53398,38.739158 C 133.01660,29.171244 123.16555,23.323467 113.03188,21.451137 C 107.94773,20.516058 102.54162,19.816537 97.406250,20.477591 z "
     id="path976" />
  <path
     style="fill:url(#linearGradient1548);fill-opacity:0.088050313;fill-rule:evenodd;stroke-width:1.0000000pt;"
     d="M -233.85475,85.281688 C -216.21067,111.53699 -192.14650,100.23537 -192.11972,108.69403 C -192.09294,116.13475 -208.74586,122.26638 -219.60376,133.12428 C -224.78262,124.29944 -239.60272,125.07529 -233.85475,85.281688 z "
     id="path1528"
     sodipodi:nodetypes="czcc"
     transform="matrix(0.424893,0.000000,0.000000,0.424893,159.8172,7.042437)" />
  <path
     style="fill:#d2a157;fill-opacity:0.0000000;fill-rule:evenodd;stroke-width:1.0000000pt;"
     d="M -246.57884,170.78760 C -241.99817,175.36827 -228.46697,192.79124 -223.67547,193.69097 C -218.88397,194.59070 -204.04730,196.06113 -197.20936,193.18200 C -185.54436,182.78630 -172.43979,181.02802 -160.05501,191.14615 C -157.15030,193.63951 -152.01185,195.17139 -152.06066,199.52596 C -152.09938,202.98093 -156.98563,205.47946 -164.12672,205.39713 C -173.96668,211.16539 -183.80665,216.93364 -193.64661,222.70190 C -204.29369,227.29817 -214.22097,228.65540 -227.74718,226.77361 C -242.66680,215.96747 -253.67876,177.36356 -246.57884,170.78760 z "
     id="path1529"
     sodipodi:nodetypes="czcczcccc"
     transform="matrix(0.424893,0.000000,0.000000,0.424893,159.8172,7.042437)" />
  <path
     style="fill:url(#linearGradient870);fill-opacity:0.75000000;fill-rule:evenodd;stroke-width:1.0000000pt;"
     d="M -322.82288,96.849658 C -322.82288,96.849658 -345.85595,119.88273 -345.49605,143.27569 C -335.41908,119.16294 -330.74049,115.92392 -311.66623,105.84695 C -288.27327,98.649117 -322.82288,96.849658 -322.82288,96.849658 z "
     id="path1530"
     sodipodi:nodetypes="cccc"
     transform="matrix(0.424893,0.000000,0.000000,0.424893,159.8172,7.042437)" />
  <path
     style="fill:url(#linearGradient1010);fill-opacity:0.75000000;fill-rule:evenodd;stroke-width:1.0000000pt;"
     d="M -299.42991,123.48165 C -305.48809,131.51923 -309.62684,148.79403 -309.86677,165.22909 C -304.82829,154.43234 -293.85159,126.54073 -285.93397,126.90062 C -283.41473,120.06268 -293.37173,115.44407 -299.42991,123.48165 z "
     id="path1531"
     sodipodi:nodetypes="cccz"
     transform="matrix(0.424893,0.000000,0.000000,0.424893,159.8172,7.042437)" />
  <path
     style="fill:url(#linearGradient2271);fill-opacity:0.75000000;fill-rule:evenodd;stroke-width:1.0000000pt;"
     d="M -305.00824,106.56673 C -305.00824,106.56673 -317.42450,117.00359 -317.60445,132.65888 C -306.08791,114.12446 -299.60986,109.80576 -296.73073,109.62581 C -284.85430,109.62581 -305.00824,106.56673 -305.00824,106.56673 z "
     id="path1532"
     sodipodi:nodetypes="cccc"
     transform="matrix(0.424893,0.000000,0.000000,0.424893,159.8172,7.042437)" />
  <path
     style="fill:url(#linearGradient1547);fill-opacity:0.50314468;fill-rule:evenodd;stroke-width:1.0000000pt;"
     d="M -243.03019,203.15616 C -238.88797,214.68202 -235.31091,220.84265 -227.76128,226.56849 C -189.67383,230.51296 -183.73592,212.27509 -164.14081,205.44649 C -162.35944,200.65374 -166.34631,201.54444 -168.72148,202.13823 C -171.16828,202.74993 -188.69129,213.02710 -205.87584,213.33543 C -222.55143,213.64376 -239.82233,201.21742 -243.03019,203.15616 z "
     id="path1534"
     sodipodi:nodetypes="ccczzc"
     transform="matrix(0.424893,0.000000,0.000000,0.424893,159.8172,7.042437)" />
  <path
     style="fill:url(#linearGradient1681);fill-opacity:0.75000000;fill-rule:evenodd;stroke-width:1.0000000pt;"
     d="M -185.51729,189.15965 C -183.99040,188.65068 -173.81112,183.56105 -166.43115,188.39621 C -159.05117,193.23136 -147.34501,197.30307 -152.94361,199.84789 C -158.54221,202.39271 -163.88633,202.64719 -166.68563,196.79411 C -169.48493,190.94103 -183.99040,199.08445 -187.29866,195.77618 C -190.60693,192.46792 -187.04418,189.66862 -185.51729,189.15965 z "
     id="path1535"
     sodipodi:nodetypes="cccccz"
     transform="matrix(0.424893,0.000000,0.000000,0.424893,159.8172,7.042437)" />
  <path
     style="fill:url(#linearGradient1011);fill-opacity:0.45911947;fill-rule:evenodd;stroke-width:0.75000000;"
     d="M -343.69961,142.33499 C -341.60907,135.92575 -335.91961,130.23629 -329.87026,126.34629 C -330.59005,135.70348 -329.80851,185.08794 -320.64717,208.50028 C -311.48582,231.91261 -305.98513,239.86020 -295.19898,248.19945 C -303.48708,237.46444 -304.72022,232.75588 -305.79990,226.99762 C -301.12130,235.63502 -247.82679,270.47999 -231.92341,275.62174 C -214.49515,281.25652 -168.57826,291.04271 -131.72370,269.86348 C -93.792203,248.06536 -63.954785,211.60522 -58.679904,201.78583 C -53.764915,211.40060 -55.996607,260.72332 -67.193810,270.90260 C -78.391012,281.08187 -120.11545,336.75914 -193.40623,325.56194 C -266.69701,314.36474 -305.36766,273.28774 -320.52367,247.18152 C -335.77120,220.91765 -351.31908,187.10443 -334.89815,139.28121 C -331.43332,128.52684 -335.42210,139.45586 -343.69961,142.33499 z "
     id="path1677"
     sodipodi:nodetypes="ccccczzccczcc"
     transform="matrix(0.424893,0.000000,0.000000,0.424893,159.8172,7.042437)" />
  <path
     style="fill:url(#linearGradient864);fill-opacity:0.75000000;fill-rule:evenodd;stroke-width:1.0000000pt;"
     d="M -304.36033,144.87981 C -307.88207,152.09523 -318.98227,163.45830 -305.72802,202.65782 C -314.86818,190.96096 -319.22396,170.26757 -319.22396,170.26757 C -319.22396,170.26757 -329.29955,196.03067 -324.20991,224.27815 C -332.35334,197.30308 -333.11678,181.52520 -328.53610,160.40320 C -323.95543,139.28121 -336.93401,177.96245 -336.67952,185.85139 C -339.73331,177.19900 -337.69745,139.28120 -330.31748,139.53569 C -317.33891,141.82603 -304.10584,128.59297 -304.36033,144.87981 z "
     id="path1533"
     sodipodi:nodetypes="cccccccc"
     transform="matrix(0.424893,0.000000,0.000000,0.424893,159.8172,7.042437)" />
  <path
     style="fill:url(#linearGradient1543);fill-opacity:0.75000000;fill-rule:evenodd;stroke-width:1.0000000pt;"
     d="M -241.75778,155.56805 C -241.75778,155.56805 -259.57152,152.51426 -268.22390,158.11287 C -276.52077,163.48143 -290.61830,173.89074 -280.94799,197.81204 C -271.27768,221.73333 -220.38131,247.18152 -201.54965,247.18152 C -245.32053,219.18851 -257.53566,186.10587 -241.75778,155.56805 z "
     id="path1536"
     sodipodi:nodetypes="czccc"
     transform="matrix(0.424893,0.000000,0.000000,0.424893,159.8172,7.042437)" />
  <path
     style="fill:url(#linearGradient1542);fill-opacity:0.75000000;fill-rule:evenodd;stroke-width:1.0000000pt;"
     d="M -322.68302,97.037213 C -322.68302,97.037213 -299.77965,74.133844 -285.52867,70.571098 C -271.27768,67.008352 -252.44602,69.044207 -252.44602,71.080062 C -252.44602,73.115917 -264.15219,81.768301 -261.09841,88.893793 C -258.04462,96.019286 -316.06649,119.43162 -322.68302,97.037213 z "
     id="path1538"
     transform="matrix(0.424893,0.000000,0.000000,0.424893,159.8172,7.042437)" />
  <path
     style="fill:url(#linearGradient2268);fill-opacity:0.75000000;fill-rule:evenodd;stroke-width:1.0000000pt;"
     d="M -68.019536,201.57815 C -68.019536,201.57815 -44.626573,148.67407 -52.544192,110.16565 C -45.706249,119.52284 -31.670471,165.58897 -43.187007,198.33912 C -61.901376,230.00960 -71.618453,218.13317 -68.019536,201.57815 z "
     id="path1682"
     sodipodi:nodetypes="cccc"
     transform="matrix(0.424893,0.000000,0.000000,0.424893,159.8172,7.042437)" />
  <path
     style="fill:url(#linearGradient2270);fill-opacity:0.75000000;fill-rule:evenodd;stroke-width:1.0000000pt;"
     d="M -60.821701,222.45187 C -53.263975,209.43579 -31.850417,195.45999 -23.392962,151.55320 C -16.015181,172.06703 -36.169118,221.67210 -42.467223,233.24862 C -48.765328,244.82514 -68.290319,235.31449 -60.821701,222.45187 z "
     id="path2269"
     sodipodi:nodetypes="cczz"
     transform="matrix(0.424893,0.000000,0.000000,0.424893,159.8172,7.042437)" />
  <path
     style="fill:url(#linearGradient3443);fill-opacity:0.75000000;fill-rule:evenodd;stroke-width:1.0000000pt;"
     d="M -197.47794,284.84484 C -172.53872,272.29040 -119.77614,287.55931 -55.986013,205.44649 C -80.755582,310.63233 -151.50154,304.18546 -175.08353,317.41852 C -198.66552,330.65158 -221.60850,296.99220 -197.47794,284.84484 z "
     id="path2857"
     sodipodi:nodetypes="cczz"
     transform="matrix(0.424893,0.000000,0.000000,0.424893,159.8172,7.042437)" />
  <path
     style="fill-opacity:0.78616351;fill-rule:evenodd;stroke-width:1.0000000pt;"
     d="M -212.51607,102.24803 C -201.05951,106.50675 -195.35678,102.64261 -193.08191,106.20684 C -190.85763,109.69182 -194.16158,116.28382 -197.94045,115.38409 C -200.81958,106.38679 -213.35581,103.92753 -212.51607,102.24803 z "
     id="path3445"
     sodipodi:nodetypes="czcc"
     transform="matrix(0.424893,0.000000,0.000000,0.424893,159.8172,7.042437)" />
  <path
     style="fill:url(#linearGradient4617);fill-opacity:0.75000000;fill-rule:evenodd;stroke-width:1.0000000pt;"
     d="M -226.55360,124.38137 C -226.55360,124.38137 -197.49789,109.26592 -195.22244,111.06538 C -192.94699,112.86484 -197.14781,115.20414 -197.67292,115.92392 C -198.19802,116.64370 -219.20215,128.70007 -219.02712,131.39926 C -218.85208,134.09845 -227.42877,125.64100 -226.55360,124.38137 z "
     id="path4031"
     transform="matrix(0.424893,0.000000,0.000000,0.424893,159.8172,7.042437)" />
  <path
     style="fill:url(#linearGradient5789);fill-opacity:0.75000000;fill-rule:evenodd;stroke-width:1.0000000pt;"
     d="M -264.96763,163.05915 C -265.92734,171.69655 -266.03672,189.94432 -250.13534,218.44629 C -257.64631,185.87261 -250.81189,171.69655 -252.01153,163.05915 C -253.21117,154.42175 -264.00792,154.42175 -264.96763,163.05915 z "
     id="path5788"
     sodipodi:nodetypes="cczz"
     transform="matrix(0.424893,0.000000,0.000000,0.424893,159.8172,7.042437)" />
  <path
     style="fill:url(#linearGradient7625);fill-opacity:0.75000000;fill-rule:evenodd;stroke-width:1.0000000pt;"
     d="M -863.38024,-200.42091 C -844.30598,-200.06101 -807.59702,-187.82470 -796.08048,-165.51141 C -784.56395,-143.19812 -815.15475,-158.31358 -815.15475,-158.31358 C -823.79215,-155.43445 -820.91302,-189.62416 -863.38024,-200.42091 z "
     id="path7624"
     sodipodi:nodetypes="cccc"
     transform="matrix(0.424893,0.000000,0.000000,0.424893,472.9881,107.3550)" />
  <path
     sodipodi:type="arc"
     style="fill:url(#linearGradient3418);fill-opacity:0.75000000;fill-rule:evenodd;stroke-width:1.0000000pt;"
     id="path1579"
     sodipodi:cx="-1072.8956"
     sodipodi:cy="166.76524"
     sodipodi:rx="79.398346"
     sodipodi:ry="79.398346"
     d="M -993.49728 166.76524 A 79.398346 79.398346 0 1 0 -1152.2940,166.76524 A 79.398346 79.398346 0 1 0 -993.49728 166.76524 z"
     transform="matrix(0.606890,0.000000,0.000000,0.440011,732.4659,31.85305)" />
</svg>
