<?xml version="1.0" encoding="UTF-8" standalone="no"?>
<!DOCTYPE svg PUBLIC "-//W3C//DTD SVG 20010904//EN"
"http://www.w3.org/TR/2001/REC-SVG-20010904/DTD/svg10.dtd">
<!-- Created with Inkscape (http://www.inkscape.org/) -->
<svg
   id="svg1"
   sodipodi:version="0.32"
   inkscape:version="0.39cvs"
   width="128.00000pt"
   height="128.00000pt"
   sodipodi:docname="gconf.svg"
   sodipodi:docbase="/home/andy/Desktop/Etiquette/etiquette-icons-0.6/scalable/apps"
   xmlns="http://www.w3.org/2000/svg"
   xmlns:inkscape="http://www.inkscape.org/namespaces/inkscape"
   xmlns:sodipodi="http://sodipodi.sourceforge.net/DTD/sodipodi-0.dtd"
   xmlns:xml="http://www.w3.org/XML/1998/namespace"
   xmlns:xlink="http://www.w3.org/1999/xlink">
  <defs
     id="defs3">
    <linearGradient
       id="linearGradient1546">
      <stop
         style="stop-color:#000;stop-opacity:1;"
         offset="0.0000000"
         id="stop1547" />
      <stop
         style="stop-color:#9a9a9a;stop-opacity:1.0000000;"
         offset="1.0000000"
         id="stop1548" />
    </linearGradient>
    <linearGradient
       id="linearGradient1502">
      <stop
         style="stop-color:#000000;stop-opacity:0.0000000;"
         offset="0.0000000"
         id="stop1503" />
      <stop
         style="stop-color:#000000;stop-opacity:0.28125000;"
         offset="1.0000000"
         id="stop1506" />
    </linearGradient>
    <linearGradient
       id="linearGradient1461">
      <stop
         style="stop-color:#ffffff;stop-opacity:0.0000000;"
         offset="0.0000000"
         id="stop1462" />
      <stop
         style="stop-color:#ffffff;stop-opacity:1.0000000;"
         offset="0.50000000"
         id="stop1464" />
      <stop
         style="stop-color:#ffffff;stop-opacity:0.0000000;"
         offset="1.0000000"
         id="stop1463" />
    </linearGradient>
    <linearGradient
       id="linearGradient1494">
      <stop
         style="stop-color:#9d8f6a;stop-opacity:1.0000000;"
         offset="0.0000000"
         id="stop1495" />
      <stop
         style="stop-color:#ffffff;stop-opacity:1.0000000;"
         offset="0.49619800"
         id="stop1496" />
      <stop
         style="stop-color:#bfb5a5;stop-opacity:1.0000000;"
         offset="0.52539647"
         id="stop1498" />
      <stop
         style="stop-color:#f7f7f7;stop-opacity:1.0000000;"
         offset="1.0000000"
         id="stop1497" />
    </linearGradient>
    <linearGradient
       id="linearGradient1164">
      <stop
         style="stop-color:#ffffff;stop-opacity:1.0000000;"
         offset="0.00000000"
         id="stop1165" />
      <stop
         style="stop-color:#e5e5e5;stop-opacity:1.0000000;"
         offset="0.45550874"
         id="stop1166" />
      <stop
         style="stop-color:#d2d2d2;stop-opacity:1.0000000;"
         offset="0.55089104"
         id="stop1167" />
      <stop
         style="stop-color:#ffffff;stop-opacity:1.0000000;"
         offset="1.0000000"
         id="stop1168" />
    </linearGradient>
    <linearGradient
       id="linearGradient1156">
      <stop
         style="stop-color:#878787;stop-opacity:1.0000000;"
         offset="0.00000000"
         id="stop1157" />
      <stop
         style="stop-color:#b2b2b2;stop-opacity:1.0000000;"
         offset="0.26927236"
         id="stop1159" />
      <stop
         style="stop-color:#d2d2d2;stop-opacity:1.0000000;"
         offset="0.72554320"
         id="stop1160" />
      <stop
         style="stop-color:#afafaf;stop-opacity:1.0000000;"
         offset="1.0000000"
         id="stop1158" />
    </linearGradient>
    <linearGradient
       id="linearGradient1151">
      <stop
         style="stop-color:#ffffff;stop-opacity:0.00000000;"
         offset="0.00000000"
         id="stop1152" />
      <stop
         style="stop-color:#fff;stop-opacity:1;"
         offset="1"
         id="stop1153" />
    </linearGradient>
    <linearGradient
       id="linearGradient1147">
      <stop
         style="stop-color:#000000;stop-opacity:0.28099173;"
         offset="0.00000000"
         id="stop1148" />
      <stop
         style="stop-color:#000000;stop-opacity:0.00000000;"
         offset="1.0000000"
         id="stop1149" />
    </linearGradient>
    <linearGradient
       xlink:href="#linearGradient1151"
       id="linearGradient1150"
       x1="0.55633801"
       y1="0.84571427"
       x2="0.35563380"
       y2="-0.87428570" />
    <linearGradient
       xlink:href="#linearGradient1164"
       id="linearGradient1154"
       x1="0.54929578"
       y1="0.84280938"
       x2="0.12676056"
       y2="-0.073578596" />
    <linearGradient
       xlink:href="#linearGradient1156"
       id="linearGradient1155"
       x1="0.17253521"
       y1="0.94980693"
       x2="0.88380283"
       y2="0.023166023" />
    <linearGradient
       xlink:href="#linearGradient1147"
       id="linearGradient1163"
       x1="0.42605633"
       y1="0.26174498"
       x2="0.62676054"
       y2="0.53691274" />
    <linearGradient
       xlink:href="#linearGradient1147"
       id="linearGradient1171"
       x1="0.63380283"
       y1="0.94797689"
       x2="0.32042253"
       y2="0.58959538" />
    <linearGradient
       xlink:href="#linearGradient1164"
       id="linearGradient1173"
       x1="1.0985916"
       y1="0.81818181"
       x2="0.29577464"
       y2="0.071005918" />
    <linearGradient
       xlink:href="#linearGradient1147"
       id="linearGradient1187"
       x1="1.2816899"
       y1="1.7124172"
       x2="0.22183107"
       y2="-0.18857129" />
    <linearGradient
       xlink:href="#linearGradient1164"
       id="linearGradient1188"
       x1="1.2992958"
       y1="-1.0411985"
       x2="0.24647887"
       y2="0.92134833" />
    <linearGradient
       xlink:href="#linearGradient1156"
       id="linearGradient1189"
       x1="0.79929578"
       y1="0.96680498"
       x2="0.26760563"
       y2="0.19087137" />
    <linearGradient
       xlink:href="#linearGradient1147"
       id="linearGradient1195"
       x1="0.32746479"
       y1="0.12820514"
       x2="0.64084506"
       y2="0.70940173" />
    <linearGradient
       xlink:href="#linearGradient1502"
       id="linearGradient1251"
       x1="0.80728823"
       y1="0.21241139"
       x2="0.39613494"
       y2="1.8213027" />
    <linearGradient
       xlink:href="#linearGradient1147"
       id="linearGradient1258"
       x1="0.14035033"
       y1="-1.1716020"
       x2="0.56171286"
       y2="0.98255062" />
    <linearGradient
       xlink:href="#linearGradient1147"
       id="linearGradient1259"
       x1="0.17868765"
       y1="-1.1201249"
       x2="0.58371294"
       y2="0.95050609"
       gradientTransform="scale(0.976109,1.024476)" />
    <linearGradient
       xlink:href="#linearGradient1147"
       id="linearGradient1260"
       x1="0.11514938"
       y1="-1.2239740"
       x2="0.55157650"
       y2="1.0071939"
       gradientTransform="scale(1.013039,0.987129)" />
    <linearGradient
       xlink:href="#linearGradient1502"
       id="linearGradient1370" />
    <linearGradient
       xlink:href="#linearGradient1502"
       id="linearGradient1507" />
    <linearGradient
       xlink:href="#linearGradient1546"
       id="linearGradient1471" />
    <linearGradient
       xlink:href="#linearGradient1461"
       id="linearGradient1468" />
    <linearGradient
       xlink:href="#linearGradient1494"
       id="linearGradient1555"
       x1="4.7704896e-18"
       y1="0.50000000"
       x2="1.0000000"
       y2="0.50000000" />
    <linearGradient
       xlink:href="#linearGradient1502"
       id="linearGradient1550"
       x1="9.5409791e-18"
       y1="0.50000000"
       x2="1.0000000"
       y2="0.50000000" />
    <linearGradient
       xlink:href="#linearGradient1461"
       id="linearGradient1467" />
    <linearGradient
       xlink:href="#linearGradient1461"
       id="linearGradient1466" />
    <linearGradient
       xlink:href="#linearGradient1494"
       id="linearGradient1465" />
    <linearGradient
       xlink:href="#linearGradient1494"
       id="linearGradient1469" />
    <linearGradient
       xlink:href="#linearGradient1494"
       id="linearGradient1500" />
    <linearGradient
       xlink:href="#linearGradient1494"
       id="linearGradient1501" />
  </defs>
  <sodipodi:namedview
     id="base"
     pagecolor="#ffffff"
     bordercolor="#666666"
     borderopacity="1.0"
     inkscape:pageopacity="0.0"
     inkscape:pageshadow="2"
     inkscape:zoom="2.0000000"
     inkscape:cx="98.245270"
     inkscape:cy="81.783417"
     inkscape:window-width="689"
     inkscape:window-height="552"
     inkscape:window-x="-3"
     inkscape:window-y="98"
     showguides="true"
     snaptoguides="true"
     showborder="true" />
  <g
     id="g1954"
     transform="matrix(0.250450,0.000000,0.000000,0.250450,-1.804172,-0.130293)">
    <g
       id="g1239"
       transform="matrix(2.343459,-0.310168,0.266729,2.015262,-835.0288,-425.2259)"
       style="fill:url(#linearGradient1251);fill-opacity:0.10191078;">
      <path
         style="fill-rule:evenodd;stroke-width:1.0000000pt;"
         d="M 513.85383,339.19350 C 512.29162,339.18962 510.87157,339.62359 509.97883,340.41225 C 497.32108,352.10325 477.60595,366.08687 460.32258,377.09975 C 426.68328,398.21024 408.57460,425.61163 393.38508,450.53725 C 392.69241,451.67391 392.75994,453.30132 393.19758,455.06850 C 386.37382,466.26895 376.22177,476.73427 359.63508,487.88100 C 342.93804,499.10188 333.12080,509.60709 320.38508,520.31850 C 309.24430,529.68846 305.95509,538.36607 304.47883,543.56850 L 303.41633,544.81850 L 303.94758,545.41225 C 303.92070,545.51693 303.84807,545.68747 303.82258,545.78725 L 304.38508,545.91225 L 309.94758,552.19350 L 310.38508,550.66225 L 312.19758,550.97475 L 312.63508,549.13100 L 314.63508,549.44350 L 314.88508,547.59975 L 316.82258,547.84975 L 317.13508,546.06850 L 319.60383,546.56850 L 319.38508,544.53725 L 321.51008,545.03725 L 321.63508,543.00600 L 323.57258,543.44350 L 323.88508,541.47475 L 326.07258,541.66225 L 326.13508,539.94350 L 328.07258,539.88100 L 327.88508,535.47475 L 350.94758,519.53725 C 352.17537,521.21951 353.57388,522.76153 355.29133,523.94350 L 354.35383,523.75600 L 330.60383,545.16225 L 328.60383,544.44350 L 328.41633,546.44350 L 326.63508,545.72475 L 326.26008,548.03725 L 323.91633,547.16225 L 324.10383,549.50600 L 321.22883,549.13100 L 321.04133,551.09975 L 318.16633,550.56850 L 318.35383,553.09975 L 315.82258,552.72475 L 316.01008,555.06850 L 312.41633,560.13100 L 313.16633,560.84975 L 317.10383,566.41225 L 359.19758,550.56850 L 375.76008,534.75600 L 374.63508,533.63100 L 386.35383,524.53725 L 387.10383,525.19350 C 387.10382,525.19352 416.23289,503.96067 429.72883,502.88100 C 430.54746,502.81551 431.19930,502.69454 431.72883,502.53725 C 433.96813,503.71743 436.07384,504.53335 437.60383,504.34975 C 459.75933,501.69109 482.58719,490.26920 504.51008,477.13100 C 530.42977,461.59757 538.79209,444.65816 578.32258,418.59975 C 581.32797,416.63795 580.09989,409.33607 578.32258,407.38100 C 576.70682,405.60367 571.18761,406.10912 568.13508,407.38100 C 558.97246,411.19876 549.28339,415.90494 541.66633,422.66225 C 503.89356,456.68040 455.60927,483.64929 416.97883,485.25600 C 415.50184,485.31825 415.39624,486.34813 415.91633,487.72475 C 415.85411,487.69232 415.35383,487.41225 415.35383,487.41225 L 398.26008,488.13100 L 381.51008,499.66225 C 381.33745,499.36579 381.19857,499.04163 381.01008,498.75600 L 397.69758,487.22475 L 404.47883,467.59975 C 404.73922,467.53625 405.03566,467.60623 405.26008,467.44350 C 419.99438,456.75892 421.84083,432.52679 448.26008,411.59975 C 462.75520,399.89243 482.70240,388.08228 497.38508,376.38100 C 506.75790,368.91140 520.15377,360.68237 522.22883,351.91225 C 524.60643,343.00420 518.54046,339.20514 513.85383,339.19350 z "
         id="path1231" />
      <path
         style="fill-rule:evenodd;stroke-width:1.0000000pt;"
         d="M 511.40625,337.87500 C 500.06389,345.97908 489.81084,355.67192 477.94519,363.16459 C 457.39377,377.36588 435.29037,390.53931 419.64367,410.54388 C 408.78280,422.88569 399.85326,436.84487 391.59375,451.03125 C 390.48035,460.12579 382.29563,466.36582 376.28404,472.62301 C 360.80513,486.13461 343.00529,496.83600 328.28894,511.10737 C 317.84727,520.12536 306.68460,529.75010 302.54408,543.42475 C 300.40332,547.49916 306.76580,549.50104 308.25000,552.71875 C 310.90140,555.51510 313.53771,550.67021 316.09375,550.06250 C 313.86122,554.64785 308.61674,560.35345 313.77837,564.96659 C 317.46934,570.63136 323.61187,564.88662 328.31007,563.88505 C 339.09402,559.53090 350.46514,556.06867 360.90105,551.18718 C 366.38951,545.65561 372.72713,540.42764 377.71875,534.71875 C 378.27495,530.49096 384.11703,529.64543 386.53125,526.43750 C 392.70431,524.68317 397.26305,519.38884 403.11768,516.69141 C 412.14076,511.47622 421.73110,505.00717 432.28071,504.53727 C 440.13856,507.75039 448.65961,503.57476 456.37069,501.77711 C 478.50759,494.21333 499.49311,483.24795 518.30885,469.40747 C 538.58012,452.95861 557.06754,434.01651 579.18670,420.07200 C 583.56346,415.64120 582.33674,404.86323 574.98144,404.80092 C 566.20794,404.54023 558.74777,410.55195 551.06610,414.03583 C 535.55844,424.17936 522.70086,437.85611 506.91219,447.65549 C 480.87640,465.30456 451.60998,480.14987 419.93391,483.32605 C 415.96163,482.34564 414.60603,486.70793 411.08905,485.97560 C 407.84956,484.94278 397.30357,489.37342 400.73426,483.35290 C 403.17933,476.37528 404.75598,468.57790 411.07912,463.99551 C 421.85749,451.06662 427.10856,434.35631 439.27438,422.40480 C 456.82662,404.38638 479.37350,392.80095 498.92978,377.22448 C 508.06946,369.75048 519.81537,363.33074 524.02153,351.66770 C 526.20242,344.50959 520.09682,336.41951 512.44497,337.71655 C 512.17660,337.75749 511.48415,337.86312 511.40625,337.87500 z M 351.59375,522.40625 C 351.83338,526.16395 346.41467,527.60287 344.44713,530.49741 C 339.72515,534.75872 335.00321,539.01997 330.28125,543.28125 C 327.38434,541.33856 326.08642,546.39458 323.46875,545.28125 C 325.74616,543.25882 329.18045,542.87183 329.25184,538.95452 C 330.74457,533.03464 337.85669,531.61419 341.92788,527.73137 C 344.89078,526.64775 348.86843,521.03970 351.59375,522.40625 z M 322.06250,547.09375 C 314.97154,551.52830 321.08288,546.09374 322.26082,546.69712 L 322.06250,547.09375 z "
         id="path1235" />
      <path
         style="fill-rule:evenodd;stroke-width:1.0000000pt;"
         d="M 512.25000,336.37500 C 501.22963,342.32285 492.52854,351.70944 481.98194,358.49851 C 457.98159,375.47679 431.77710,390.73504 414.17263,414.91665 C 404.47258,426.68818 396.34354,439.81696 389.20786,453.23398 C 384.05695,466.32475 371.48565,474.26259 360.98132,482.76114 C 342.79365,497.09734 323.73362,510.76033 308.71875,528.56250 C 305.48649,534.01531 300.37655,539.89870 300.74323,546.36635 C 302.24051,550.22157 306.00171,553.29295 309.18750,555.31250 C 314.53040,553.10019 308.00688,559.33103 310.03112,562.15458 C 311.22847,567.94591 318.49952,571.47130 323.44876,567.77329 C 336.65034,562.40026 350.58749,558.33608 363.09001,551.56372 C 369.53799,545.54781 376.04755,539.45218 381.41542,532.49931 C 393.50076,524.81776 405.49300,516.81740 418.34859,510.46601 C 424.38750,507.28769 431.27041,506.03693 437.94060,507.41861 C 453.14552,506.73384 466.97516,499.15171 480.87873,493.65551 C 500.98578,484.14725 519.67179,471.82718 535.98942,456.71551 C 550.25189,444.26029 564.57893,431.76652 580.37500,421.31250 C 586.39305,415.45010 582.38181,401.85263 572.96875,403.59375 C 554.97538,406.86802 541.01996,419.83871 527.06238,430.70534 C 505.96425,447.62789 482.68034,462.64664 457.41884,472.64391 C 444.28621,477.69696 430.47023,480.86246 416.46875,482.28125 C 412.39443,485.25500 407.16176,484.71524 402.40625,485.15625 C 402.73413,480.47620 405.03864,475.83530 407.12501,471.65824 C 412.27350,464.35757 418.71045,457.93680 422.54804,449.70727 C 430.83751,434.80257 440.93453,420.45475 455.37913,410.91867 C 475.89546,394.62772 499.05023,381.57793 518.13301,363.55852 C 524.06660,358.05036 529.36275,347.59972 522.64618,340.63898 C 520.37381,337.67764 516.03087,335.72680 512.25000,336.37500 z M 344.81250,528.25000 C 339.68872,532.04655 335.72007,537.29981 330.40625,540.81250 C 332.79227,533.66142 341.05055,531.56200 346.28125,526.93750 C 345.79167,527.37500 345.30208,527.81250 344.81250,528.25000 z "
         id="path1238" />
    </g>
    <path
       style="fill:#ffffff;fill-rule:evenodd;stroke-width:1.0000000pt;"
       d="M 154.22678,361.56076 C 132.32889,361.56076 114.57991,379.30973 114.57991,401.20766 C 114.57991,414.77273 121.40703,426.74308 131.80300,433.89772 L 129.77675,433.49248 L 78.445188,479.75844 L 74.122533,478.20496 L 73.717284,482.52763 L 69.867418,480.97419 L 69.056920,485.97227 L 63.991302,484.08106 L 64.396551,489.14669 L 58.182732,488.33622 L 57.777483,492.59133 L 51.563663,491.44313 L 51.968912,496.91399 L 46.498050,496.10347 L 46.903299,501.16910 L 39.164210,512.07370 L 51.997099,524.50130 L 140.37566,491.31311 L 175.58928,457.18502 L 160.86496,441.21156 L 161.42951,440.80147 C 179.22606,436.89102 193.94119,420.17312 193.94119,401.20766 C 193.94119,379.30978 176.12465,361.56080 154.22678,361.56076 z "
       id="path1866"
       sodipodi:nodetypes="ccccccccccccccccccccccccc"
       transform="matrix(1.084268,-0.143508,0.143508,1.084268,-76.14218,51.31479)" />
    <g
       id="entireshadow"
       transform="matrix(2.343459,-0.310168,0.302805,2.287830,-860.3544,-589.1778)"
       style="fill-opacity:0.12101907;">
      <path
         style="fill-rule:evenodd;stroke-width:1.0000000pt;"
         d="M 513.85383,339.19350 C 512.29162,339.18962 510.87157,339.62359 509.97883,340.41225 C 497.32108,352.10325 477.60595,366.08687 460.32258,377.09975 C 426.68328,398.21024 408.57460,425.61163 393.38508,450.53725 C 392.69241,451.67391 392.75994,453.30132 393.19758,455.06850 C 386.37382,466.26895 376.22177,476.73427 359.63508,487.88100 C 342.93804,499.10188 333.12080,509.60709 320.38508,520.31850 C 309.24430,529.68846 305.95509,538.36607 304.47883,543.56850 L 303.41633,544.81850 L 303.94758,545.41225 C 303.92070,545.51693 303.84807,545.68747 303.82258,545.78725 L 304.38508,545.91225 L 309.94758,552.19350 L 310.38508,550.66225 L 312.19758,550.97475 L 312.63508,549.13100 L 314.63508,549.44350 L 314.88508,547.59975 L 316.82258,547.84975 L 317.13508,546.06850 L 319.60383,546.56850 L 319.38508,544.53725 L 321.51008,545.03725 L 321.63508,543.00600 L 323.57258,543.44350 L 323.88508,541.47475 L 326.07258,541.66225 L 326.13508,539.94350 L 328.07258,539.88100 L 327.88508,535.47475 L 350.94758,519.53725 C 352.17537,521.21951 353.57388,522.76153 355.29133,523.94350 L 354.35383,523.75600 L 330.60383,545.16225 L 328.60383,544.44350 L 328.41633,546.44350 L 326.63508,545.72475 L 326.26008,548.03725 L 323.91633,547.16225 L 324.10383,549.50600 L 321.22883,549.13100 L 321.04133,551.09975 L 318.16633,550.56850 L 318.35383,553.09975 L 315.82258,552.72475 L 316.01008,555.06850 L 312.41633,560.13100 L 313.16633,560.84975 L 317.10383,566.41225 L 359.19758,550.56850 L 375.76008,534.75600 L 374.63508,533.63100 L 386.35383,524.53725 L 387.10383,525.19350 C 387.10382,525.19352 416.23289,503.96067 429.72883,502.88100 C 430.54746,502.81551 431.19930,502.69454 431.72883,502.53725 C 433.96813,503.71743 436.07384,504.53335 437.60383,504.34975 C 459.75933,501.69109 482.58719,490.26920 504.51008,477.13100 C 530.42977,461.59757 538.79209,444.65816 578.32258,418.59975 C 581.32797,416.63795 580.09989,409.33607 578.32258,407.38100 C 576.70682,405.60367 571.18761,406.10912 568.13508,407.38100 C 558.97246,411.19876 549.28339,415.90494 541.66633,422.66225 C 503.89356,456.68040 455.60927,483.64929 416.97883,485.25600 C 415.50184,485.31825 415.39624,486.34813 415.91633,487.72475 C 415.85411,487.69232 415.35383,487.41225 415.35383,487.41225 L 398.26008,488.13100 L 381.51008,499.66225 C 381.33745,499.36579 381.19857,499.04163 381.01008,498.75600 L 397.69758,487.22475 L 404.47883,467.59975 C 404.73922,467.53625 405.03566,467.60623 405.26008,467.44350 C 419.99438,456.75892 421.84083,432.52679 448.26008,411.59975 C 462.75520,399.89243 482.70240,388.08228 497.38508,376.38100 C 506.75790,368.91140 520.15377,360.68237 522.22883,351.91225 C 524.60643,343.00420 518.54046,339.20514 513.85383,339.19350 z "
         id="path1367" />
      <path
         style="fill-rule:evenodd;stroke-width:1.0000000pt;"
         d="M 511.40625,337.87500 C 500.06389,345.97908 489.81084,355.67192 477.94519,363.16459 C 457.39377,377.36588 435.29037,390.53931 419.64367,410.54388 C 408.78280,422.88569 399.85326,436.84487 391.59375,451.03125 C 390.48035,460.12579 382.29563,466.36582 376.28404,472.62301 C 360.80513,486.13461 343.00529,496.83600 328.28894,511.10737 C 317.84727,520.12536 306.68460,529.75010 302.54408,543.42475 C 300.40332,547.49916 306.76580,549.50104 308.25000,552.71875 C 310.90140,555.51510 313.53771,550.67021 316.09375,550.06250 C 313.86122,554.64785 308.61674,560.35345 313.77837,564.96659 C 317.46934,570.63136 323.61187,564.88662 328.31007,563.88505 C 339.09402,559.53090 350.46514,556.06867 360.90105,551.18718 C 366.38951,545.65561 372.72713,540.42764 377.71875,534.71875 C 378.27495,530.49096 384.11703,529.64543 386.53125,526.43750 C 392.70431,524.68317 397.26305,519.38884 403.11768,516.69141 C 412.14076,511.47622 421.73110,505.00717 432.28071,504.53727 C 440.13856,507.75039 448.65961,503.57476 456.37069,501.77711 C 478.50759,494.21333 499.49311,483.24795 518.30885,469.40747 C 538.58012,452.95861 557.06754,434.01651 579.18670,420.07200 C 583.56346,415.64120 582.33674,404.86323 574.98144,404.80092 C 566.20794,404.54023 558.74777,410.55195 551.06610,414.03583 C 535.55844,424.17936 522.70086,437.85611 506.91219,447.65549 C 480.87640,465.30456 451.60998,480.14987 419.93391,483.32605 C 415.96163,482.34564 414.60603,486.70793 411.08905,485.97560 C 407.84956,484.94278 397.30357,489.37342 400.73426,483.35290 C 403.17933,476.37528 404.75598,468.57790 411.07912,463.99551 C 421.85749,451.06662 427.10856,434.35631 439.27438,422.40480 C 456.82662,404.38638 479.37350,392.80095 498.92978,377.22448 C 508.06946,369.75048 519.81537,363.33074 524.02153,351.66770 C 526.20242,344.50959 520.09682,336.41951 512.44497,337.71655 C 512.17660,337.75749 511.48415,337.86312 511.40625,337.87500 z M 351.59375,522.40625 C 351.83338,526.16395 346.41467,527.60287 344.44713,530.49741 C 339.72515,534.75872 335.00321,539.01997 330.28125,543.28125 C 327.38434,541.33856 326.08642,546.39458 323.46875,545.28125 C 325.74616,543.25882 329.18045,542.87183 329.25184,538.95452 C 330.74457,533.03464 337.85669,531.61419 341.92788,527.73137 C 344.89078,526.64775 348.86843,521.03970 351.59375,522.40625 z M 322.06250,547.09375 C 314.97154,551.52830 321.08288,546.09374 322.26082,546.69712 L 322.06250,547.09375 z "
         id="path1368" />
      <path
         style="fill-rule:evenodd;stroke-width:1.0000000pt;"
         d="M 512.25000,336.37500 C 501.22963,342.32285 492.52854,351.70944 481.98194,358.49851 C 457.98159,375.47679 431.77710,390.73504 414.17263,414.91665 C 404.47258,426.68818 396.34354,439.81696 389.20786,453.23398 C 384.05695,466.32475 371.48565,474.26259 360.98132,482.76114 C 342.79365,497.09734 323.73362,510.76033 308.71875,528.56250 C 305.48649,534.01531 300.37655,539.89870 300.74323,546.36635 C 302.24051,550.22157 306.00171,553.29295 309.18750,555.31250 C 314.53040,553.10019 308.00688,559.33103 310.03112,562.15458 C 311.22847,567.94591 318.49952,571.47130 323.44876,567.77329 C 336.65034,562.40026 350.58749,558.33608 363.09001,551.56372 C 369.53799,545.54781 376.04755,539.45218 381.41542,532.49931 C 393.50076,524.81776 405.49300,516.81740 418.34859,510.46601 C 424.38750,507.28769 431.27041,506.03693 437.94060,507.41861 C 453.14552,506.73384 466.97516,499.15171 480.87873,493.65551 C 500.98578,484.14725 519.67179,471.82718 535.98942,456.71551 C 550.25189,444.26029 564.57893,431.76652 580.37500,421.31250 C 586.39305,415.45010 582.38181,401.85263 572.96875,403.59375 C 554.97538,406.86802 541.01996,419.83871 527.06238,430.70534 C 505.96425,447.62789 482.68034,462.64664 457.41884,472.64391 C 444.28621,477.69696 430.47023,480.86246 416.46875,482.28125 C 412.39443,485.25500 407.16176,484.71524 402.40625,485.15625 C 402.73413,480.47620 405.03864,475.83530 407.12501,471.65824 C 412.27350,464.35757 418.71045,457.93680 422.54804,449.70727 C 430.83751,434.80257 440.93453,420.45475 455.37913,410.91867 C 475.89546,394.62772 499.05023,381.57793 518.13301,363.55852 C 524.06660,358.05036 529.36275,347.59972 522.64618,340.63898 C 520.37381,337.67764 516.03087,335.72680 512.25000,336.37500 z M 344.81250,528.25000 C 339.68872,532.04655 335.72007,537.29981 330.40625,540.81250 C 332.79227,533.66142 341.05055,531.56200 346.28125,526.93750 C 345.79167,527.37500 345.30208,527.81250 344.81250,528.25000 z "
         id="path1369" />
    </g>
    <path
       style="fill:url(#linearGradient1189);fill-opacity:0.75000000;fill-rule:evenodd;stroke-width:1.0000000pt;"
       d="M 47.813592,123.11728 L 54.118062,118.24024 L 47.456735,111.93577 L 40.914361,116.45595 L 47.813592,123.11728 z "
       id="path1211"
       transform="matrix(5.013507,-0.663561,0.663561,5.013507,-145.6127,-65.22911)" />
    <path
       style="fill:url(#linearGradient1173);fill-opacity:0.75000000;fill-rule:evenodd;stroke-width:1.0000000pt;"
       d="M 53.944959,118.94739 C 53.944959,118.94739 67.571094,109.02218 73.879490,108.51751 C 80.187887,108.01283 67.150534,101.28388 67.150534,101.28388 L 59.159897,101.62033 L 45.197316,111.20909 L 53.944959,118.94739 z "
       id="path1196"
       transform="matrix(5.013507,-0.663561,0.663561,5.013507,-145.6127,-65.22911)" />
    <g
       id="g1190"
       transform="matrix(2.789971,-0.369266,0.419943,3.172858,-133.2508,-173.3892)"
       style="fill:url(#linearGradient1187);">
      <path
         style="fill-opacity:0.75000000;fill-rule:evenodd;stroke-width:1.0000000pt;"
         d="M 88.050733,216.00747 C 91.358993,212.06300 100.39310,203.72872 105.86446,201.50201 C 111.46306,199.27530 118.58855,197.93926 118.58855,197.93926 L 122.15130,201.75649 C 122.15130,201.75649 100.77483,205.82820 88.050733,216.00747 z "
         id="path1172"
         sodipodi:nodetypes="czccc" />
      <path
         style="fill-opacity:0.75000000;fill-rule:evenodd;stroke-width:1.0000000pt;"
         d="M 118.59375,197.71875 C 115.07103,198.66902 111.49101,199.43681 108.03681,200.63476 C 106.73032,201.05981 105.37325,201.35426 104.23679,202.16380 C 102.50010,203.11535 100.81644,204.23161 99.282249,205.44971 C 96.974652,207.41772 94.571478,209.28062 92.476814,211.48283 C 90.929569,213.04551 89.283344,214.52870 87.798350,216.14139 C 88.094391,216.20954 88.871221,215.59173 89.343750,215.37500 C 91.442705,214.07528 93.482422,212.64928 95.618406,211.42901 C 98.313901,210.13805 100.95577,208.72523 103.77740,207.72100 C 106.13576,206.82904 108.44661,205.79321 110.83542,204.99346 C 114.73481,203.95732 118.62799,202.89459 122.53125,201.87500 C 121.23587,200.48424 119.91666,199.10460 118.65625,197.68750 L 118.59375,197.71875 z "
         id="path1177" />
      <path
         style="fill-opacity:0.75000000;fill-rule:evenodd;stroke-width:1.0000000pt;"
         d="M 118.59375,197.53125 C 114.82500,198.64960 111.00105,199.61158 107.24597,200.77373 C 105.56247,201.37122 103.94160,202.12561 102.45177,203.11424 C 100.84190,204.33926 99.094360,205.43771 97.575327,206.74440 C 94.599855,209.53690 91.507147,212.20800 88.615194,215.08699 C 88.154999,215.58338 87.627801,216.02206 87.218750,216.56250 C 88.573023,215.99144 89.869000,215.24713 91.156435,214.53206 C 93.802111,212.80587 96.522159,211.18375 99.439819,209.96553 C 102.36623,208.70310 105.29890,207.44193 108.26410,206.27655 C 111.10193,205.31667 113.93636,204.34543 116.85331,203.64954 C 118.85090,203.12388 120.84234,202.57178 122.84375,202.06250 C 121.44300,200.54787 120.02144,199.04152 118.65625,197.50000 L 118.59375,197.53125 z "
         id="path1180" />
      <path
         style="fill-opacity:0.75000000;fill-rule:evenodd;stroke-width:1.0000000pt;"
         d="M 118.62500,197.40625 C 114.77546,198.56469 110.87193,199.58312 107.03572,200.77664 C 105.38538,201.62739 103.63820,202.33790 102.04826,203.27421 C 100.39853,204.56717 98.591641,205.70505 97.053555,207.10429 C 94.022848,209.97815 90.899898,212.75862 87.928927,215.69298 C 87.741625,215.94787 86.497926,217.00025 87.340465,216.60958 C 89.573680,215.46676 91.813669,214.35978 93.904059,212.96766 C 95.752799,211.78524 97.786865,210.92423 99.750460,209.94462 C 102.76169,208.72009 105.72817,207.37158 108.76801,206.22632 C 113.09297,204.90557 117.40282,203.53192 121.79406,202.44337 C 122.26147,202.23639 123.51373,202.28803 122.63093,201.70002 C 121.32183,200.25465 119.96991,198.83876 118.68750,197.37500 L 118.62500,197.40625 z "
         id="path1186" />
    </g>
    <path
       style="fill:url(#linearGradient1188);fill-opacity:0.75000000;fill-rule:evenodd;stroke-width:0.62500000;"
       d="M 56.865993,86.062094 C 53.676057,91.337091 48.909371,96.250431 41.104693,101.49540 C 33.300014,106.74037 28.712883,111.65759 22.759834,116.66441 C 16.806786,121.67124 15.578779,126.38078 15.021535,128.56254 L 15.804892,128.75267 L 16.112439,127.81275 L 17.163438,128.03261 L 17.203343,127.06295 L 18.313819,127.37204 L 18.294248,126.31316 L 19.464199,126.77093 L 19.385152,125.56337 L 20.637102,125.90007 L 20.476056,124.81358 L 21.735222,125.09292 L 21.566960,124.06379 L 22.736912,124.49182 L 22.657865,123.31400 L 23.827816,123.77177 L 23.748769,122.56420 L 35.524441,114.48946 L 57.057102,98.339961 L 60.589801,90.433441 L 56.865993,86.062094 z "
       id="path1145"
       sodipodi:nodetypes="czzccccccccccccccccccccc"
       transform="matrix(5.013507,-0.663561,0.663561,5.013507,-145.6127,-65.22911)" />
    <g
       id="g1261"
       transform="matrix(2.343459,-0.310168,0.310168,2.343459,-140.1554,-44.87622)">
      <path
         style="fill:url(#linearGradient1260);fill-opacity:0.074380167;fill-rule:evenodd;stroke-width:0.50000000;"
         d="M 108.34180,220.58151 C 112.24385,224.99253 112.07420,234.87491 107.83283,239.15869 C 103.84595,243.44247 112.20144,239.45558 112.41351,229.74286 C 112.62558,220.15737 104.69423,216.17049 108.34180,220.58151 z "
         id="circleshadow"
         sodipodi:nodetypes="czzz" />
      <path
         style="fill:url(#linearGradient1259);fill-opacity:0.074380167;fill-rule:evenodd;stroke-width:0.50000000;"
         d="M 107.09375,218.71875 C 107.85926,220.17159 108.89280,221.51928 109.50550,223.02977 C 110.09067,225.71348 111.10283,228.32154 110.60174,231.09313 C 110.33177,233.23204 109.86883,235.40863 108.81032,237.29474 C 107.97645,238.64565 106.98286,239.90606 106.31250,241.34375 C 107.81408,241.01106 108.77891,239.61637 109.71734,238.53852 C 111.32889,236.22916 112.45726,233.57080 112.59033,230.76102 C 112.70459,229.10147 112.66843,227.44194 112.14434,225.87072 C 111.80748,224.53644 111.60768,223.15003 110.69699,222.06031 C 109.83975,220.81629 109.30450,219.16158 107.72807,218.68666 C 107.48266,218.68658 106.54068,218.06323 107.09375,218.71875 z "
         id="path1255" />
      <path
         style="fill:url(#linearGradient1258);fill-opacity:0.074380167;fill-rule:evenodd;stroke-width:0.50000000;"
         d="M 107.34375,218.87500 C 107.89386,220.26009 108.77804,221.45337 109.55117,222.69706 C 110.22457,224.12435 110.54069,225.64128 110.65646,227.20845 C 110.83211,228.64076 111.19091,230.07921 110.72262,231.49654 C 110.37967,233.33130 110.23628,235.22833 109.25583,236.86420 C 108.55168,238.15613 107.47186,239.22525 106.85001,240.58689 C 105.96876,241.85561 107.50993,240.57191 108.00344,240.26353 C 109.23685,239.52653 109.69827,237.99963 110.59296,236.89924 C 111.47855,235.74058 111.72745,234.18485 112.19066,232.87040 C 112.44861,231.06912 112.67655,229.26673 112.39077,227.45310 C 112.37542,226.07575 111.77110,224.79286 111.39468,223.47031 C 110.60282,222.23299 109.92433,220.86123 109.06808,219.70087 C 108.55741,219.44920 107.14875,218.20475 107.22924,218.66029 C 107.25182,218.70263 107.32816,218.84577 107.34375,218.87500 z "
         id="path1257" />
    </g>
    <path
       style="fill:url(#linearGradient1155);fill-opacity:0.75000000;fill-rule:evenodd;stroke-width:1.0000000pt;"
       d="M 62.272041,91.442781 L 58.907565,101.19977 L 26.272127,123.74177 L 26.361341,125.80973 L 25.449047,125.84008 L 25.428895,126.64363 L 24.397648,126.55504 L 24.258543,127.47753 L 23.346248,127.26999 L 23.296357,128.22222 L 22.294848,127.98494 L 22.393648,128.93718 L 21.243449,128.69989 L 21.104344,129.53318 L 20.192050,129.41484 L 20.082683,130.27787 L 19.140650,130.12979 L 18.942069,130.99282 L 18.089251,130.84475 L 17.890670,131.55908 L 14.832902,128.11559 L 19.038500,123.06887 L 53.692623,96.994171 L 57.561771,88.414754 L 62.272041,91.442781 z "
       id="path1146"
       sodipodi:nodetypes="ccccccccccccccccccccccccc"
       transform="matrix(5.013507,-0.663561,0.663561,5.013507,-145.6127,-65.22911)" />
    <path
       style="fill:url(#linearGradient1154);fill-opacity:0.75000000;fill-rule:evenodd;stroke-width:1.0000000pt;"
       d="M 43.929705,102.71613 C 39.193862,102.71613 35.355300,106.55469 35.355300,111.29054 C 35.355300,114.22425 36.831797,116.81307 39.080127,118.36040 L 38.641912,118.27276 L 27.540466,128.27867 L 26.605608,127.94270 L 26.517965,128.87756 L 25.685357,128.54160 L 25.510071,129.62253 L 24.414533,129.21352 L 24.502176,130.30906 L 23.158317,130.13378 L 23.070674,131.05403 L 21.726815,130.80571 L 21.814458,131.98889 L 20.631278,131.81360 L 20.718921,132.90914 L 19.045193,135.26747 L 21.820554,137.95518 L 40.934131,130.77759 L 48.549758,123.39673 L 45.365339,119.94216 L 45.487434,119.85347 C 49.336283,119.00776 52.518716,115.39219 52.518716,111.29054 C 52.518716,106.55470 48.665543,102.71614 43.929705,102.71613 z "
       id="path1144"
       sodipodi:nodetypes="ccccccccccccccccccccccccc"
       transform="matrix(5.013507,-0.663561,0.663561,5.013507,-145.6127,-65.22911)" />
    <path
       style="fill:#565248;fill-rule:evenodd;stroke-width:1.0000000pt;fill-opacity:1.0000000;"
       d="M 56.888879,84.040930 C 55.410970,86.466144 60.501480,93.360921 62.444719,91.951791 C 69.331961,86.957510 70.190067,75.621927 82.539196,65.840018 C 89.314638,60.367675 98.642468,54.856329 105.50558,49.386809 C 109.88671,45.895299 116.14309,42.046995 117.11303,37.947584 C 118.59485,32.395741 113.06258,31.089855 111.39342,32.564419 C 105.47682,38.029133 96.257275,44.575516 88.178523,49.723257 C 72.454528,59.590918 63.988904,72.389967 56.888879,84.040930 z "
       id="lefthandle"
       sodipodi:nodetypes="csssssss"
       transform="matrix(5.013507,-0.663561,0.663561,5.013507,-145.6127,-65.22911)" />
    <path
       style="fill:#565248;fill-rule:evenodd;stroke-width:1.0000000pt;fill-opacity:1.0000000;"
       d="M 67.916524,100.27845 C 85.973524,99.527421 108.54704,86.917269 126.20313,71.016193 C 129.76358,67.857629 134.29129,65.663586 138.57416,63.879054 C 140.00099,63.284540 142.57700,63.048278 143.33225,63.879054 C 144.16303,64.792911 144.73706,68.195954 143.33225,69.112957 C 124.85456,81.293414 120.95172,89.211197 108.83610,96.471971 C 98.588700,102.61315 87.907784,107.95713 77.551656,109.19987 C 74.030021,109.62246 64.592018,100.41856 67.916524,100.27845 z "
       id="righthandle"
       sodipodi:nodetypes="csssssss"
       transform="matrix(5.013507,-0.663561,0.663561,5.013507,-145.6127,-65.22911)" />
    <path
       style="fill:url(#linearGradient1150);fill-opacity:0.75000000;fill-rule:evenodd;stroke-width:1.0000000pt;"
       d="M 77.384915,108.18668 C 95.204012,105.88928 112.18677,94.944451 129.36705,77.853855 C 133.09524,74.395687 135.51466,72.451981 141.08560,69.675012 C 142.46060,68.968848 143.31903,67.582266 143.22674,66.463302 C 142.98695,65.236015 142.49041,66.378968 141.08560,67.295971 C 122.60790,79.476428 119.71441,86.889537 107.59879,94.150311 C 97.351387,100.29149 86.670471,105.63547 76.314343,106.87821 C 72.792708,107.30080 74.084416,108.60939 77.384915,108.18668 z "
       id="path1140"
       sodipodi:nodetypes="ccssssss"
       transform="matrix(5.013507,-0.663561,0.663561,5.013507,-145.6127,-65.22911)" />
    <path
       style="fill:url(#linearGradient1163);fill-opacity:0.75000000;fill-rule:evenodd;stroke-width:1.0000000pt;"
       d="M 45.434547,121.85808 L 20.097715,135.06177 L 39.962743,127.68674 L 45.434547,121.85808 z "
       id="path1162"
       transform="matrix(5.013507,-0.663561,0.663561,5.013507,-145.6127,-65.22911)" />
    <path
       style="fill:url(#linearGradient1171);fill-opacity:0.75000000;fill-rule:evenodd;stroke-width:1.0000000pt;"
       d="M 45.786100,120.54552 L 48.645906,123.40532 L 40.907607,130.80717 L 21.225410,138.20903 L 19.206723,135.34922 L 45.786100,120.54552 z "
       id="path1170"
       transform="matrix(5.013507,-0.663561,0.663561,5.013507,-145.6127,-65.22911)" />
    <path
       style="fill:none;fill-opacity:0.074380167;fill-rule:evenodd;stroke:url(#linearGradient1195);stroke-width:0.46742921pt;"
       d="M 113.03436,32.091938 C 112.30415,32.090124 111.64037,32.292974 111.22308,32.661617 C 105.30647,38.126332 96.091052,44.662684 88.012298,49.810426 C 72.288308,59.678085 63.823782,72.486294 56.723756,84.137257 C 56.399983,84.668565 56.431548,85.429264 56.636113,86.255295 C 53.446489,91.490711 48.701127,96.382511 40.948023,101.59282 C 33.143340,106.83778 28.554475,111.74822 22.601427,116.75505 C 17.393901,121.13484 15.856429,125.19101 15.166382,127.62278 L 14.669738,128.20706 L 14.918060,128.48460 C 14.905496,128.53353 14.871547,128.61324 14.859631,128.65989 L 15.122560,128.71832 L 17.722635,131.65435 L 17.927135,130.93860 L 18.774351,131.08468 L 18.978851,130.22286 L 19.913709,130.36893 L 20.030567,129.50710 L 20.936211,129.62396 L 21.082283,128.79135 L 22.236248,129.02506 L 22.133998,128.07560 L 23.127285,128.30931 L 23.185714,127.35985 L 24.091358,127.56435 L 24.237430,126.64410 L 25.259931,126.73174 L 25.289146,125.92834 L 26.194790,125.89914 L 26.107147,123.83952 L 36.887232,116.38987 C 37.461137,117.17621 38.114842,117.89700 38.917628,118.44948 L 38.479413,118.36184 L 27.377969,128.36775 L 26.443111,128.03178 L 26.355468,128.96664 L 25.522860,128.63067 L 25.347574,129.71160 L 24.252037,129.30260 L 24.339680,130.39814 L 22.995820,130.22286 L 22.908177,131.14311 L 21.564319,130.89479 L 21.651962,132.07796 L 20.468782,131.90267 L 20.556425,132.99822 L 18.876601,135.36458 L 19.227173,135.70054 L 21.067676,138.30061 L 40.743523,130.89479 L 48.485319,123.50356 L 47.959461,122.97770 L 53.437146,118.72701 L 53.787717,119.03377 C 53.787713,119.03377 67.403491,109.10893 73.711886,108.60425 C 74.094538,108.57364 74.399227,108.51710 74.646745,108.44358 C 75.693459,108.99523 76.677729,109.37661 77.392891,109.29079 C 87.749019,108.04805 98.419429,102.70913 108.66683,96.567951 C 120.78244,89.307174 124.69124,81.389199 143.16894,69.208737 C 144.57375,68.291734 143.99971,64.878622 143.16894,63.964766 C 142.41369,63.133989 139.83385,63.370252 138.40700,63.964766 C 134.12413,65.749298 129.59518,67.949104 126.03474,71.107668 C 108.37865,87.008745 85.809159,99.614791 67.752164,100.36581 C 67.061776,100.39491 67.012416,100.87630 67.255521,101.51978 C 67.226437,101.50462 66.992592,101.37371 66.992592,101.37371 L 59.002474,101.70967 L 51.173035,107.09972 C 51.092343,106.96114 51.027427,106.80962 50.939321,106.67611 L 58.739545,101.28606 L 61.909299,92.112771 C 62.031013,92.083081 62.169578,92.115801 62.274479,92.039731 C 69.161720,87.045447 70.024805,75.718642 82.373934,65.936733 C 89.149376,60.464390 98.473279,54.943981 105.33639,49.474461 C 109.71752,45.982952 115.97914,42.136463 116.94909,38.037053 C 118.06044,33.873171 115.22504,32.097379 113.03436,32.091938 z "
       id="outline"
       transform="matrix(5.013507,-0.663561,0.663561,5.013507,-145.6127,-65.22911)" />
  </g>
</svg>
