<?xml version="1.0" encoding="UTF-8" standalone="no"?>
<!DOCTYPE svg PUBLIC "-//W3C//DTD SVG 20010904//EN"
"http://www.w3.org/TR/2001/REC-SVG-20010904/DTD/svg10.dtd">
<!-- Created with Inkscape (http://www.inkscape.org/) -->
<svg
   id="svg1"
   sodipodi:version="0.32"
   inkscape:version="0.39cvs"
   width="128.00000pt"
   height="128.00000pt"
   sodipodi:docbase="/home/andy/Desktop/etiquette-icons-0.6/scalable/apps"
   sodipodi:docname="gnome-globe.svg"
   xmlns="http://www.w3.org/2000/svg"
   xmlns:inkscape="http://www.inkscape.org/namespaces/inkscape"
   xmlns:sodipodi="http://sodipodi.sourceforge.net/DTD/sodipodi-0.dtd"
   xmlns:xml="http://www.w3.org/XML/1998/namespace"
   xmlns:xlink="http://www.w3.org/1999/xlink">
  <defs
     id="defs3">
    <linearGradient
       id="linearGradient839">
      <stop
         style="stop-color:#4f4f4f;stop-opacity:1.0000000;"
         offset="0.0000000"
         id="stop840" />
      <stop
         style="stop-color:#bebebe;stop-opacity:1.0000000;"
         offset="0.27444443"
         id="stop843" />
      <stop
         style="stop-color:#fff;stop-opacity:1;"
         offset="1"
         id="stop841" />
    </linearGradient>
    <linearGradient
       id="linearGradient883">
      <stop
         style="stop-color:#1f1f1f;stop-opacity:0.55371898;"
         offset="0.0000000"
         id="stop884" />
      <stop
         style="stop-color:#000000;stop-opacity:0.0000000;"
         offset="1.0000000"
         id="stop885" />
    </linearGradient>
    <linearGradient
       id="linearGradient1400">
      <stop
         style="stop-color:#000000;stop-opacity:0.67843139;"
         offset="0.0000000"
         id="stop1401" />
      <stop
         style="stop-color:#000000;stop-opacity:0.32941177;"
         offset="0.56999999"
         id="stop1403" />
      <stop
         style="stop-color:#000000;stop-opacity:0.00000000;"
         offset="1.0000000"
         id="stop1402" />
    </linearGradient>
    <linearGradient
       id="linearGradient899">
      <stop
         style="stop-color:#ffffff;stop-opacity:0.0000000;"
         offset="0.0000000"
         id="stop900" />
      <stop
         style="stop-color:#ffffff;stop-opacity:1.0000000;"
         offset="1.0000000"
         id="stop901" />
    </linearGradient>
    <linearGradient
       id="linearGradient1888">
      <stop
         style="stop-color:#83a67f;stop-opacity:1.0000000;"
         offset="0.0000000"
         id="stop1889" />
      <stop
         style="stop-color:#267726;stop-opacity:1.0000000;"
         offset="1.0000000"
         id="stop1890" />
    </linearGradient>
    <linearGradient
       id="linearGradient1501">
      <stop
         style="stop-color:#ffffff;stop-opacity:1.0000000;"
         offset="0.0000000"
         id="stop1502" />
      <stop
         style="stop-color:#ffffff;stop-opacity:0.0000000;"
         offset="1.0000000"
         id="stop1504" />
    </linearGradient>
    <linearGradient
       xlink:href="#linearGradient1501"
       id="linearGradient1530"
       x1="0.40784314"
       y1="-0.23214285"
       x2="0.70588237"
       y2="0.65178573" />
    <linearGradient
       xlink:href="#linearGradient865"
       id="linearGradient1011"
       x1="0.51162791"
       y1="1.7170019"
       x2="0.51162791"
       y2="0.48507461" />
    <linearGradient
       xlink:href="#linearGradient865"
       id="linearGradient1010"
       x1="0.42241380"
       y1="-0.35119733"
       x2="0.37790698"
       y2="0.58955216" />
    <linearGradient
       xlink:href="#linearGradient865"
       id="linearGradient864"
       y2="0.27586207"
       x2="0.35915494"
       y1="-0.060344826"
       x1="0.72887325" />
    <linearGradient
       id="linearGradient865">
      <stop
         style="stop-color:#ffffff;stop-opacity:1.0000000;"
         offset="0.00000000"
         id="stop866" />
      <stop
         style="stop-color:#ffffff;stop-opacity:0.00000000;"
         offset="1.0000000"
         id="stop868" />
    </linearGradient>
    <linearGradient
       xlink:href="#linearGradient865"
       id="linearGradient870"
       x1="-0.038732372"
       y1="1.1760001"
       x2="0.50352114"
       y2="0.57600003" />
    <linearGradient
       id="linearGradient853">
      <stop
         style="stop-color:#ffffff;stop-opacity:1.0000000;"
         offset="0.0000000"
         id="stop854" />
      <stop
         style="stop-color:#9db8d2;stop-opacity:1.0000000;"
         offset="0.36194703"
         id="stop867" />
      <stop
         style="stop-color:#438ec5;stop-opacity:1.0000000;"
         offset="0.72607356"
         id="stop1185" />
      <stop
         style="stop-color:#314e6c;stop-opacity:1.0000000;"
         offset="1.0000000"
         id="stop855" />
    </linearGradient>
    <radialGradient
       xlink:href="#linearGradient853"
       id="radialGradient852"
       cx="0.49612403"
       cy="0.51562500"
       r="0.54722136"
       fx="0.53485638"
       fy="0.075484395" />
    <linearGradient
       id="linearGradient878">
      <stop
         style="stop-color:#1f1f1f;stop-opacity:1.0000000;"
         offset="0.0000000"
         id="stop879" />
      <stop
         style="stop-color:#000000;stop-opacity:0.0000000;"
         offset="1.0000000"
         id="stop881" />
    </linearGradient>
    <linearGradient
       xlink:href="#linearGradient1400"
       id="linearGradient842"
       x1="0.98876405"
       y1="4.0156250"
       x2="0.52808988"
       y2="-0.070312500" />
    <linearGradient
       xlink:href="#linearGradient899"
       id="linearGradient848"
       x1="0.32825556"
       y1="0.16153494"
       x2="0.33669540"
       y2="1.3926498" />
    <linearGradient
       xlink:href="#linearGradient839"
       id="linearGradient849"
       x1="0.93772894"
       y1="0.83121020"
       x2="0.35897437"
       y2="0.092356689" />
    <linearGradient
       xlink:href="#linearGradient883"
       id="linearGradient850"
       x1="1.8869566"
       y1="0.34090909"
       x2="0.70434785"
       y2="0.41287878" />
    <linearGradient
       xlink:href="#linearGradient1400"
       id="linearGradient860"
       x1="0.99722022"
       y1="4.0796266"
       x2="0.52828526"
       y2="-0.079579733"
       gradientTransform="scale(1.001713,0.998290)" />
    <linearGradient
       xlink:href="#linearGradient1400"
       id="linearGradient882"
       x1="1.0056623"
       y1="4.1504908"
       x2="0.52750582"
       y2="-0.090505704"
       gradientTransform="scale(1.003764,0.996250)" />
    <linearGradient
       xlink:href="#linearGradient883"
       id="linearGradient938" />
    <linearGradient
       xlink:href="#linearGradient883"
       id="linearGradient1259"
       x1="0.92114639"
       y1="4.0513387"
       x2="0.47915608"
       y2="0.070798859"
       gradientTransform="scale(0.993849,1.006190)" />
    <linearGradient
       xlink:href="#linearGradient883"
       id="linearGradient1260"
       x1="0.92504448"
       y1="4.0943632"
       x2="0.47776312"
       y2="0.066172279"
       gradientTransform="scale(0.995510,1.004510)" />
    <radialGradient
       xlink:href="#linearGradient1400"
       id="radialGradient858"
       cx="0.50000000"
       cy="0.50000000"
       r="0.50000000"
       fx="0.50980395"
       fy="0.82539684" />
    <radialGradient
       xlink:href="#linearGradient1888"
       id="radialGradient1887"
       cx="0.50000000"
       cy="0.50000000"
       r="0.50000000"
       fx="0.50000000"
       fy="0.50000000" />
  </defs>
  <sodipodi:namedview
     id="base"
     pagecolor="#ffffff"
     bordercolor="#666666"
     borderopacity="1.0"
     inkscape:pageopacity="0.0"
     inkscape:pageshadow="2"
     inkscape:zoom="1.6650334"
     inkscape:cx="79.068448"
     inkscape:cy="72.018078"
     inkscape:window-width="369"
     inkscape:window-height="491"
     showguides="true"
     snaptoguides="true"
     inkscape:window-x="336"
     inkscape:window-y="126"
     showborder="true" />
  <path
     sodipodi:type="arc"
     style="fill:url(#radialGradient858);fill-opacity:0.75000000;fill-rule:evenodd;stroke-width:1.0000000pt;"
     id="path1399"
     sodipodi:cx="79.895966"
     sodipodi:cy="77.944687"
     sodipodi:rx="68.379425"
     sodipodi:ry="68.379425"
     d="M 148.27539 77.944687 A 68.379425 68.379425 0 1 0 11.516541,77.944687 A 68.379425 68.379425 0 1 0 148.27539 77.944687 z"
     transform="matrix(1.160468,0.000000,0.000000,0.976345,-14.63238,5.359060)" />
  <path
     sodipodi:type="arc"
     style="fill:url(#radialGradient852);fill-opacity:0.75000000;fill-rule:evenodd;stroke-width:1.0000000pt;"
     id="path825"
     sodipodi:cx="224.57243"
     sodipodi:cy="453.50235"
     sodipodi:rx="172.74803"
     sodipodi:ry="172.74803"
     d="M 397.32047 453.50235 A 172.74803 172.74803 0 1 0 51.824402,453.50235 A 172.74803 172.74803 0 1 0 397.32047 453.50235 z"
     transform="matrix(0.390341,0.000000,0.000000,0.390341,-9.911975,-102.6166)" />
  <path
     style="fill:url(#radialGradient1887);fill-opacity:1.0000000;fill-rule:evenodd;stroke-width:1.0000000pt;"
     d="M 89.651296,116.37203 C 80.763270,115.33894 80.674874,100.29677 89.505314,99.079034 C 95.053427,102.20094 100.20706,89.027284 103.03772,94.283245 C 100.69955,104.24084 113.40296,101.98535 115.82913,94.337011 C 119.43659,88.165265 117.62911,99.668227 119.01248,102.11590 C 122.24114,110.04513 112.24698,121.12537 104.87849,114.42100 C 99.609104,109.73925 94.774202,114.71649 89.651296,116.37203 z M 108.24393,121.84817 C 109.13488,125.29141 110.94715,125.60095 112.13006,121.97086 C 113.31298,118.53206 108.86874,119.17012 108.24393,121.84817 L 108.24393,121.84817 z M 40.956762,38.460804 C 33.614374,45.736154 31.443893,56.238150 29.002414,65.887906 C 30.815885,72.697982 36.287293,79.635613 29.985502,85.856199 C 25.956640,94.611576 12.988802,89.102683 16.220167,80.198466 C 16.056471,69.650501 14.765020,58.478836 19.833906,48.768209 C 22.610481,42.593775 27.865650,35.161545 35.454479,35.868166 C 37.457199,36.313288 39.234417,37.392884 40.956762,38.460804 z M 57.188271,62.808062 C 56.667373,54.345008 65.910533,55.069341 63.826011,44.959020 C 63.470901,36.380150 45.569161,40.654349 50.812542,30.421023 C 55.693192,22.772639 55.111188,18.846782 67.329110,16.873090 C 79.547034,14.358347 92.618615,11.417583 113.16924,26.574756 C 133.17881,41.731931 96.527260,29.712264 92.132289,35.274705 C 85.074896,41.219393 88.256111,54.231843 80.024119,56.962136 C 72.909602,61.522485 73.475775,70.951741 72.287872,78.341598 C 73.703548,84.397506 92.442939,80.097738 83.680417,88.406004 C 74.770453,90.666728 68.797538,81.696181 62.602356,76.964399 C 59.464050,73.996911 57.709167,70.730070 57.188271,62.808062 z M 118.86801,50.363912 C 126.43484,49.879057 129.53969,58.561062 128.87339,64.861787 C 124.75055,71.735649 133.82499,78.137794 138.31008,71.074635 C 143.14522,62.533379 135.25796,51.845364 127.87325,47.321810 C 124.60760,44.428986 118.17447,44.823786 118.86801,50.363912 z M 44.203063,122.86466 C 53.708452,122.72111 63.302512,120.56306 72.749518,122.54850 C 76.434911,127.50103 86.826879,130.96391 86.965642,136.14158 C 79.628875,141.27142 70.101172,136.45350 62.439099,134.46548 C 56.355797,132.62112 47.710613,133.90080 44.567263,127.06161 C 44.124386,125.72177 43.894193,124.26453 44.203063,122.86466 z "
     id="path846"
     sodipodi:nodetypes="ccczcccczzzcccccccccczzccccczccccccccccc" />
  <path
     style="fill:url(#linearGradient870);fill-opacity:0.75000000;fill-rule:evenodd;stroke-width:1.0000000pt;"
     d="M 110.02122,125.26668 C 84.626637,155.76227 0.15660858,124.87430 19.730563,64.453402 C 36.292253,43.421967 71.119876,58.745681 110.02122,125.26668 z "
     id="path869"
     sodipodi:nodetypes="ccc" />
  <path
     style="fill:url(#linearGradient864);fill-opacity:0.75000000;fill-rule:evenodd;stroke-width:1.0000000pt;"
     d="M 60.668962,17.005249 C 90.185048,-0.98313495 150.23497,25.626919 141.43018,75.748198 C 129.50998,91.641787 107.92414,10.375127 60.668962,17.005249 z "
     id="path863"
     sodipodi:nodetypes="ccc" />
  <path
     sodipodi:type="arc"
     style="fill:url(#linearGradient1010);fill-opacity:0.75000000;fill-rule:evenodd;stroke-width:1.0000000pt;"
     id="path868"
     sodipodi:cx="51.104626"
     sodipodi:cy="31.158760"
     sodipodi:rx="49.665058"
     sodipodi:ry="49.665058"
     d="M 100.76968 31.158760 A 49.665058 49.665058 0 1 0 1.4395676,31.158760 A 49.665058 49.665058 0 1 0 100.76968 31.158760 z"
     transform="matrix(0.975466,0.000000,0.000000,0.655916,29.01714,22.20438)" />
  <text
     xml:space="preserve"
     style="fill:black;fill-opacity:1;stroke:none;font-family:helvetica;font-style:normal;font-weight:normal;font-size:12px;stroke-opacity:1;stroke-width:1pt;stroke-linejoin:miter;stroke-linecap:butt;"
     x="2.9016126"
     y="-14.947952"
     id="text1232"><tspan
       id="tspan1233">Web Browser</tspan></text>
  <text
     xml:space="preserve"
     style="fill:black;fill-opacity:1;stroke:none;font-family:helvetica;font-style:normal;font-weight:normal;font-size:12px;stroke-opacity:1;stroke-width:1pt;stroke-linejoin:miter;stroke-linecap:butt;"
     x="30.568256"
     y="-39.032092"
     id="text1235"
     transform="scale(0.246729,0.246729)"><tspan
       id="tspan1236">Created by Andrew Fitzsimon</tspan></text>
</svg>
