<?xml version="1.0" encoding="UTF-8" standalone="no"?>
<!DOCTYPE svg PUBLIC "-//W3C//DTD SVG 20010904//EN"
"http://www.w3.org/TR/2001/REC-SVG-20010904/DTD/svg10.dtd">
<!-- Created with Inkscape (http://www.inkscape.org/) -->
<svg
   id="svg1"
   sodipodi:version="0.32"
   inkscape:version="0.39cvs"
   width="128.00000pt"
   height="128.00000pt"
   sodipodi:docbase="/home/andy/Desktop/etiquette-icons-0.6/scalable/apps"
   sodipodi:docname="gnome-pdf.svg"
   xmlns="http://www.w3.org/2000/svg"
   xmlns:inkscape="http://www.inkscape.org/namespaces/inkscape"
   xmlns:sodipodi="http://sodipodi.sourceforge.net/DTD/sodipodi-0.dtd"
   xmlns:xlink="http://www.w3.org/1999/xlink">
  <defs
     id="defs3">
    <linearGradient
       id="linearGradient1806">
      <stop
         style="stop-color:#000000;stop-opacity:0.40677965;"
         offset="0.0000000"
         id="stop1807" />
      <stop
         style="stop-color:#000000;stop-opacity:0.073446326;"
         offset="0.64777780"
         id="stop3276" />
      <stop
         style="stop-color:#000000;stop-opacity:0.0000000;"
         offset="1.0000000"
         id="stop1808" />
    </linearGradient>
    <radialGradient
       xlink:href="#linearGradient1806"
       id="radialGradient1505"
       cx="0.49032259"
       cy="0.50649351"
       r="0.46014288"
       fx="0.50977784"
       fy="0.15800871" />
    <radialGradient
       xlink:href="#linearGradient853"
       id="radialGradient864"
       cx="0.50000000"
       cy="0.50000000"
       r="0.50000000"
       fx="0.50000000"
       fy="0.14942528" />
    <linearGradient
       id="linearGradient841">
      <stop
         style="stop-color:#ffffff;stop-opacity:1.0000000;"
         offset="0.00000000"
         id="stop842" />
      <stop
         style="stop-color:#ffffff;stop-opacity:0.00000000;"
         offset="1.0000000"
         id="stop843" />
    </linearGradient>
    <linearGradient
       id="linearGradient1290">
      <stop
         style="stop-color:#df421e;stop-opacity:1.0000000;"
         offset="0.0000000"
         id="stop1291" />
      <stop
         style="stop-color:#990000;stop-opacity:1.0000000;"
         offset="1.0000000"
         id="stop1292" />
    </linearGradient>
    <linearGradient
       id="linearGradient846">
      <stop
         style="stop-color:#e7e7e7;stop-opacity:1.0000000;"
         offset="0.00000000"
         id="stop847" />
      <stop
         style="stop-color:#a5a5a5;stop-opacity:1.0000000;"
         offset="1.0000000"
         id="stop848" />
    </linearGradient>
    <linearGradient
       id="linearGradient853">
      <stop
         style="stop-color:#000000;stop-opacity:0.29752067;"
         offset="0.00000000"
         id="stop854" />
      <stop
         style="stop-color:#000000;stop-opacity:0.00000000;"
         offset="1.0000000"
         id="stop855" />
    </linearGradient>
    <radialGradient
       xlink:href="#linearGradient853"
       id="radialGradient861"
       cx="0.50000000"
       cy="0.50000000"
       r="0.50000000"
       fx="0.50704223"
       fy="0.29885057" />
    <linearGradient
       id="linearGradient1507">
      <stop
         style="stop-color:#000000;stop-opacity:0.095505618;"
         offset="0.0000000"
         id="stop1508" />
      <stop
         style="stop-color:#000000;stop-opacity:0.0000000;"
         offset="1.0000000"
         id="stop1510" />
    </linearGradient>
    <linearGradient
       id="linearGradient1501">
      <stop
         style="stop-color:#ffffff;stop-opacity:1.0000000;"
         offset="0.0000000"
         id="stop1502" />
      <stop
         style="stop-color:#ffffff;stop-opacity:0.0000000;"
         offset="1.0000000"
         id="stop1504" />
    </linearGradient>
    <linearGradient
       id="linearGradient1492">
      <stop
         style="stop-color:#dadada;stop-opacity:1.0000000;"
         offset="0.0000000"
         id="stop1493" />
      <stop
         style="stop-color:#f1f1f1;stop-opacity:1.0000000;"
         offset="0.34923077"
         id="stop1496" />
      <stop
         style="stop-color:#f0f0f0;stop-opacity:1.0000000;"
         offset="1.0000000"
         id="stop1494" />
    </linearGradient>
    <linearGradient
       xlink:href="#linearGradient1806"
       id="linearGradient1495"
       x1="-0.20000000"
       y1="0.92903227"
       x2="0.44516128"
       y2="0.12903225" />
    <linearGradient
       xlink:href="#linearGradient1492"
       id="linearGradient1497"
       x1="0.41860464"
       y1="-0.023437500"
       x2="1.0542636"
       y2="0.95312500" />
    <linearGradient
       xlink:href="#linearGradient1501"
       id="linearGradient1499"
       x1="0.081481479"
       y1="-0.15625000"
       x2="0.60000002"
       y2="0.54687500" />
    <linearGradient
       xlink:href="#linearGradient1507"
       id="linearGradient1506"
       x1="0.052173913"
       y1="0.97656250"
       x2="0.78260869"
       y2="0.0078125000" />
    <linearGradient
       xlink:href="#linearGradient1290"
       id="linearGradient1556"
       x1="0.66055048"
       y1="0.57031250"
       x2="0.72477067"
       y2="0.82031250" />
    <radialGradient
       xlink:href="#linearGradient841"
       id="radialGradient856"
       cx="0.50000000"
       cy="0.89285713"
       r="0.54606670"
       fx="0.54117650"
       fy="3.5200000" />
    <linearGradient
       xlink:href="#linearGradient853"
       id="linearGradient1944"
       x1="0.10967742"
       y1="1.6060606"
       x2="0.63870966"
       y2="0.38636363" />
    <linearGradient
       xlink:href="#linearGradient841"
       id="linearGradient852" />
    <linearGradient
       xlink:href="#linearGradient841"
       id="linearGradient844"
       x1="6.8169212e-18"
       y1="0.50000000"
       x2="1.0000000"
       y2="0.50000000" />
    <linearGradient
       xlink:href="#linearGradient841"
       id="linearGradient845"
       x1="1.3633842e-17"
       y1="0.50000000"
       x2="1.0000000"
       y2="0.50000000" />
    <linearGradient
       xlink:href="#linearGradient853"
       id="linearGradient840" />
    <linearGradient
       xlink:href="#linearGradient846"
       id="linearGradient849" />
    <linearGradient
       xlink:href="#linearGradient1290"
       id="linearGradient860" />
    <linearGradient
       xlink:href="#linearGradient846"
       id="linearGradient851" />
    <linearGradient
       xlink:href="#linearGradient846"
       id="linearGradient858" />
    <linearGradient
       xlink:href="#linearGradient846"
       id="linearGradient850" />
    <linearGradient
       xlink:href="#linearGradient853"
       id="linearGradient859" />
  </defs>
  <sodipodi:namedview
     id="base"
     pagecolor="#ffffff"
     bordercolor="#666666"
     borderopacity="1.0"
     inkscape:pageopacity="0.0"
     inkscape:pageshadow="2"
     inkscape:zoom="1.0697922"
     inkscape:cx="77.770138"
     inkscape:cy="0.42011186"
     inkscape:window-width="312"
     inkscape:window-height="491"
     inkscape:window-x="285"
     inkscape:window-y="211" />
  <path
     sodipodi:type="arc"
     style="fill:url(#radialGradient1505);fill-opacity:0.75000000;fill-rule:evenodd;stroke-width:1.0000000pt;"
     id="path1809"
     sodipodi:cx="25.912205"
     sodipodi:cy="175.83524"
     sodipodi:rx="56.143108"
     sodipodi:ry="56.143108"
     d="M 82.055313 175.83524 A 56.143108 56.143108 0 1 0 -30.230904,175.83524 A 56.143108 56.143108 0 1 0 82.055313 175.83524 z"
     transform="matrix(1.355039,0.000000,0.000000,0.398977,46.05796,69.19744)" />
  <rect
     style="fill:url(#linearGradient1497);fill-opacity:0.75000000;fill-rule:evenodd;stroke:#000000;stroke-width:8.7500000;stroke-miterlimit:4.0000000;stroke-dasharray:none;stroke-opacity:0.094339617;"
     id="rect953"
     width="114.44085"
     height="114.44085"
     x="24.328211"
     y="22.570440"
     rx="57.220424"
     ry="57.220424" />
  <g
     id="g1660"
     style="fill:url(#linearGradient1944);"
     transform="matrix(1.393477,0.000000,0.000000,1.017995,6.305709,200.4174)">
    <path
       style="fill-opacity:0.22641505;"
       d="M 57.695066,-158.82200 C 54.773203,-158.39340 53.173040,-157.23492 51.822734,-152.33000 C 50.472427,-147.42508 51.778926,-138.59532 53.632566,-131.82200 C 54.392881,-129.56857 55.381424,-127.38851 56.257566,-125.16575 C 55.757497,-121.81307 55.149235,-118.46129 54.288816,-115.16575 C 51.006168,-101.70847 47.275368,-88.179416 41.663816,-75.478246 C 33.847912,-71.635706 26.249441,-67.379556 19.038816,-62.509496 C 14.689990,-59.783056 6.7301236,-52.129096 14.038816,-48.103246 C 18.143067,-45.776646 22.414566,-46.246916 26.288816,-48.103246 C 28.225941,-49.031416 30.054252,-50.330666 31.726316,-51.759496 C 33.398380,-53.188336 34.926437,-54.755866 36.195066,-56.321996 C 40.103835,-61.248906 43.459495,-66.512506 46.413816,-72.009496 C 58.123867,-77.272886 70.214088,-81.701786 82.663818,-84.790746 C 87.869548,-80.248406 95.500758,-75.674306 101.97632,-80.196996 C 108.46820,-83.154316 107.37998,-91.928580 99.976318,-92.040750 C 95.068388,-93.017370 90.195778,-92.413980 85.382568,-91.322000 C 83.284498,-93.734930 81.336748,-96.329430 79.538818,-98.759500 C 73.741578,-107.98220 68.392578,-117.48458 63.382566,-127.16575 C 64.739812,-136.04475 66.131909,-145.91827 65.043008,-152.33534 C 63.954107,-158.75240 60.814462,-159.27958 57.695066,-158.82200 z M 56.726316,-152.16575 C 57.513608,-153.91163 59.542843,-152.06201 59.507948,-149.72559 C 59.473053,-147.38917 59.101878,-142.15867 57.445066,-140.69700 C 56.207705,-144.48090 55.939024,-150.41987 56.726316,-152.16575 z M 61.038816,-114.47825 C 65.596333,-105.38307 71.128838,-96.781270 78.038818,-89.353250 C 76.002388,-88.765926 73.923998,-88.208786 71.913818,-87.696996 C 64.493387,-85.328026 57.221260,-82.482956 50.070066,-79.353246 C 55.150027,-90.528650 58.503506,-102.46518 61.038816,-114.47825 z M 92.445068,-86.540746 C 95.059698,-86.565726 97.147868,-85.899756 96.632568,-83.415746 C 94.428418,-83.978676 92.508048,-85.051996 90.695068,-86.353246 C 91.287798,-86.413596 91.881958,-86.535366 92.445068,-86.540746 z M 38.007566,-68.040746 C 37.450899,-66.977626 37.005201,-65.868776 36.413816,-64.821996 C 32.662406,-59.070686 27.234967,-51.845466 19.757566,-51.978246 C 17.524249,-58.247946 26.678669,-61.743836 30.945066,-64.571996 C 33.270262,-65.781026 35.649726,-66.887216 38.007566,-68.040746 z "
       id="path1655"
       sodipodi:nodetypes="czcccccccccccccccczcczczcccccccccccccc" />
    <path
       style="fill-opacity:0.22641505;"
       d="M 57.625000,-160.12500 C 50.011974,-158.83777 49.485654,-149.37511 50.329079,-143.25640 C 51.167995,-137.03028 52.164055,-130.75992 54.875000,-125.03125 C 51.559704,-108.44462 47.080583,-92.069726 40.593750,-76.406250 C 30.599114,-70.673447 19.365816,-66.101753 11.593750,-57.343750 C 8.9163666,-53.953118 9.3606575,-48.252745 13.955616,-46.830524 C 22.046324,-42.409142 31.139887,-48.500024 36.301720,-54.714586 C 41.104559,-59.471030 43.702161,-66.129861 47.895633,-71.118768 C 59.171405,-75.870893 70.617028,-79.952777 82.375000,-83.343750 C 87.925204,-78.633943 96.576847,-74.399372 103.25000,-79.437500 C 109.54836,-81.906218 108.42544,-92.828192 101.34748,-93.136657 C 96.257721,-94.389295 91.053325,-93.511960 85.968750,-92.750000 C 77.324043,-103.30069 71.318026,-115.59853 64.750000,-127.46875 C 65.594801,-137.32423 68.863438,-148.09552 64.493342,-157.48489 C 63.072325,-159.74978 60.151073,-160.54566 57.625000,-160.12500 z M 58.125000,-149.59375 C 58.758658,-142.74880 56.599971,-150.61420 58.125000,-149.59375 z M 67.531250,-100.59375 C 70.114697,-96.986675 72.768229,-93.358919 75.718750,-90.000000 C 67.832146,-87.702793 60.078140,-85.065103 52.531250,-81.812500 C 56.682998,-91.160883 58.911076,-101.17437 61.500000,-111.03125 C 63.510417,-107.55208 65.520833,-104.07292 67.531250,-100.59375 z M 32.375000,-61.468750 C 29.407679,-57.930437 25.829595,-54.070545 21.000000,-53.500000 C 21.834816,-59.517161 28.950475,-61.352322 33.388947,-64.343311 C 37.663685,-67.232210 32.557766,-62.391346 32.375000,-61.468750 z "
       id="path1659" />
  </g>
  <path
     style="fill:url(#linearGradient1556);"
     d="M 82.764122,1.6660627 C 78.764316,2.2527831 76.573815,3.8386538 74.725352,10.553112 C 72.876882,17.267571 74.665380,29.354832 77.202872,38.626989 C 78.243683,41.711761 79.596923,44.696098 80.796295,47.738884 C 80.111737,52.328450 79.279075,56.916780 78.101226,61.428120 C 73.607534,79.850104 68.500355,98.370335 60.818572,115.75727 C 50.119199,121.01742 39.717475,126.84377 29.846683,133.51050 C 23.893474,137.24278 12.997030,147.72046 23.002067,153.23154 C 28.620471,156.41648 34.467827,155.77272 39.771378,153.23154 C 42.423153,151.96095 44.925969,150.18237 47.214898,148.22642 C 49.503825,146.27045 51.595617,144.12460 53.332273,141.98070 C 58.683077,135.23615 63.276718,128.03068 67.320957,120.50573 C 83.351118,113.30056 99.901705,107.23772 116.94443,103.00917 C 124.07067,109.22730 134.51722,115.48888 143.38176,109.29767 C 152.26864,105.24931 150.77895,93.238023 140.64390,93.084470 C 133.92532,91.747552 127.25510,92.573547 120.66618,94.068385 C 117.79409,90.765269 115.12777,87.213597 112.66654,83.887018 C 104.73057,71.261850 97.408185,58.253821 90.549874,45.001038 C 92.407839,32.846369 94.313511,19.330278 92.822890,10.545802 C 91.332267,1.7613398 87.034335,1.0396710 82.764122,1.6660627 z M 81.437979,10.777958 C 82.515719,8.3879809 85.293586,10.919969 85.245819,14.118350 C 85.198048,17.316729 84.689939,24.476882 82.421892,26.477796 C 80.728040,21.297926 80.360236,13.167933 81.437979,10.777958 z M 87.341458,62.369256 C 93.580350,74.819858 101.15393,86.595062 110.61315,96.763452 C 107.82544,97.567459 104.98029,98.330131 102.22850,99.030740 C 92.070502,102.27367 82.115518,106.16836 72.326082,110.45269 C 79.280159,95.154419 83.870814,78.814226 87.341458,62.369256 z M 130.33421,100.61355 C 133.91343,100.57936 136.77199,101.49102 136.06657,104.89144 C 133.04927,104.12083 130.42043,102.65153 127.93858,100.87023 C 128.75000,100.78762 129.56336,100.62092 130.33421,100.61355 z M 55.813446,125.93864 C 55.051411,127.39396 54.441285,128.91189 53.631725,130.34486 C 48.496332,138.21795 41.066586,148.10875 30.830598,147.92699 C 27.773358,139.34423 40.305055,134.55863 46.145425,130.68710 C 49.328441,129.03203 52.585745,127.51774 55.813446,125.93864 z "
     id="path900"
     sodipodi:nodetypes="czcccccccccccccccczcczczcccccccccccccc" />
  <rect
     style="fill:url(#linearGradient1499);fill-opacity:0.75000000;fill-rule:evenodd;stroke-width:1.0000000pt;"
     id="rect1540"
     width="86.837433"
     height="90.352989"
     rx="43.418716"
     ry="45.176494"
     x="37.200935"
     y="34.558552" />
</svg>
