<?xml version="1.0" encoding="UTF-8" standalone="no"?>
<!DOCTYPE svg PUBLIC "-//W3C//DTD SVG 20010904//EN"
"http://www.w3.org/TR/2001/REC-SVG-20010904/DTD/svg10.dtd">
<!-- Created with Inkscape (http://www.inkscape.org/) -->
<svg
   id="svg3334"
   sodipodi:version="0.32"
   inkscape:version="0.39cvs"
   width="128.00000pt"
   height="128.00000pt"
   xmlns="http://www.w3.org/2000/svg"
   xmlns:inkscape="http://www.inkscape.org/namespaces/inkscape"
   xmlns:sodipodi="http://sodipodi.sourceforge.net/DTD/sodipodi-0.dtd"
   xmlns:xlink="http://www.w3.org/1999/xlink"
   sodipodi:docname="OOo.svg"
   sodipodi:docbase="/home/andy/Desktop/etiquette-icons-0.5/scalable/apps">
  <defs
     id="defs3336">
    <linearGradient
       id="linearGradient1400">
      <stop
         style="stop-color:#000000;stop-opacity:0.48587570;"
         offset="0.0000000"
         id="stop1401" />
      <stop
         style="stop-color:#000000;stop-opacity:0.096045196;"
         offset="0.78777778"
         id="stop1403" />
      <stop
         style="stop-color:#000000;stop-opacity:0.0000000;"
         offset="1.0000000"
         id="stop1402" />
    </linearGradient>
    <radialGradient
       xlink:href="#linearGradient1400"
       id="radialGradient858"
       cx="0.50194550"
       cy="0.43750000"
       r="0.40108269"
       fx="0.48638132"
       fy="0.20312500" />
    <linearGradient
       id="linearGradient3458">
      <stop
         style="stop-color:#000000;stop-opacity:0.48022598;"
         offset="0.0000000"
         id="stop3459" />
      <stop
         style="stop-color:#000000;stop-opacity:0.0000000;"
         offset="1.0000000"
         id="stop3460" />
    </linearGradient>
    <linearGradient
       id="linearGradient3454">
      <stop
         style="stop-color:#ffffff;stop-opacity:1.0000000;"
         offset="0.0000000"
         id="stop3455" />
      <stop
         style="stop-color:#ffffff;stop-opacity:0.0000000;"
         offset="1.0000000"
         id="stop3456" />
    </linearGradient>
    <linearGradient
       id="linearGradient1502">
      <stop
         style="stop-color:#000;stop-opacity:1;"
         offset="0"
         id="stop1503" />
      <stop
         style="stop-color:#fff;stop-opacity:1;"
         offset="1"
         id="stop1504" />
    </linearGradient>
    <linearGradient
       xlink:href="#linearGradient1502"
       id="linearGradient1505"
       x1="2.7984495"
       y1="3.5312500"
       x2="0.085271321"
       y2="-0.32812500" />
    <linearGradient
       xlink:href="#linearGradient3454"
       id="linearGradient1544"
       x1="0.44250870"
       y1="-0.26923078"
       x2="0.50522649"
       y2="0.55128205" />
    <linearGradient
       xlink:href="#linearGradient3454"
       id="linearGradient1542"
       x1="1.2372881"
       y1="0.0078125000"
       x2="0.25423729"
       y2="0.38281250" />
    <linearGradient
       xlink:href="#linearGradient3454"
       id="linearGradient1543"
       x1="0.29965156"
       y1="-0.43333334"
       x2="0.68292683"
       y2="0.58333331" />
    <linearGradient
       xlink:href="#linearGradient3454"
       id="linearGradient3462"
       x1="0.37831408"
       y1="0.10533182"
       x2="0.38610914"
       y2="0.72260100" />
    <linearGradient
       xlink:href="#linearGradient3454"
       id="linearGradient3464"
       x1="0.49213162"
       y1="-0.12508355"
       x2="0.54828441"
       y2="0.81890547" />
    <linearGradient
       xlink:href="#linearGradient3458"
       id="linearGradient3465"
       x1="1.1998197"
       y1="2.4886601"
       x2="0.91791087"
       y2="0.22692414" />
    <linearGradient
       xlink:href="#linearGradient3458"
       id="linearGradient3466"
       x1="0.10837224"
       y1="2.4491656"
       x2="-0.14134136"
       y2="0.44572967" />
    <linearGradient
       xlink:href="#linearGradient3454"
       id="linearGradient3468"
       x1="1.4475524"
       y1="0.87500000"
       x2="0.55244756"
       y2="0.23437500" />
    <linearGradient
       xlink:href="#linearGradient3454"
       id="linearGradient3470"
       x1="-0.25396827"
       y1="0.65625000"
       x2="0.63492066"
       y2="0.38281250" />
    <linearGradient
       xlink:href="#linearGradient1400"
       id="linearGradient3542"
       x1="2.0000000"
       y1="2.1741936"
       x2="0.051612902"
       y2="0.0064516128" />
    <radialGradient
       xlink:href="#linearGradient3458"
       id="radialGradient1589"
       cx="1.1098039"
       cy="1.4060150"
       r="1.3325863"
       fx="1.1098039"
       fy="1.3984963" />
    <radialGradient
       xlink:href="#linearGradient3458"
       id="radialGradient1590" />
    <linearGradient
       xlink:href="#linearGradient1502"
       id="linearGradient1793"
       x1="0.82352942"
       y1="2.3484163"
       x2="0.59607846"
       y2="-0.067873307" />
    <linearGradient
       xlink:href="#linearGradient1502"
       id="linearGradient1794"
       x1="1.9402986"
       y1="3.8203125"
       x2="0.33333334"
       y2="0.26060605" />
    <linearGradient
       xlink:href="#linearGradient1502"
       id="linearGradient1795"
       x1="2.1463416"
       y1="2.7968750"
       x2="0.39024389"
       y2="0.085937500" />
    <linearGradient
       xlink:href="#linearGradient1502"
       id="linearGradient1816"
       x1="2.9767442"
       y1="3.7890625"
       x2="0.33333334"
       y2="0.046875000" />
  </defs>
  <sodipodi:namedview
     id="base"
     pagecolor="#ffffff"
     bordercolor="#666666"
     borderopacity="1.0"
     inkscape:pageopacity="0.0"
     inkscape:pageshadow="2"
     inkscape:zoom="1.7366334"
     inkscape:cx="122.78902"
     inkscape:cy="76.261144"
     inkscape:window-width="640"
     inkscape:window-height="491"
     inkscape:window-x="0"
     inkscape:window-y="0" />
  <path
     sodipodi:type="arc"
     style="fill:url(#linearGradient1816);fill-opacity:0.75000000;fill-rule:evenodd;stroke:url(#linearGradient3542);stroke-width:5.0000000;stroke-opacity:1.0000000;"
     id="path1569"
     sodipodi:cx="77.362488"
     sodipodi:cy="84.164398"
     sodipodi:rx="68.710106"
     sodipodi:ry="68.710106"
     d="M 146.07259 84.164398 A 68.710106 68.710106 0 1 0 8.6523819,84.164398 A 68.710106 68.710106 0 1 0 146.07259 84.164398 z"
     transform="matrix(0.749843,0.000000,0.000000,0.749843,-2.532643,-11.01037)" />
  <path
     style="fill-rule:evenodd;stroke-width:1.0000000pt;"
     d="M 19.109199,66.735073 C 28.051430,49.401163 47.014598,45.011347 51.422317,59.134042 C 57.645637,46.270695 82.233151,46.322212 87.120609,58.889942 C 87.120609,58.889942 59.332928,52.548261 52.725318,64.885769 C 43.480840,55.343211 27.972037,59.867099 19.109199,66.735073 z "
     id="path1566"
     sodipodi:nodetypes="ccccc" />
  <g
     id="g1796"
     transform="matrix(1.054181,0.000000,0.000000,1.054181,-8.690565,-8.654510)">
    <g
       id="g3584"
       transform="matrix(0.276792,0.000000,0.000000,0.171019,-43.11466,-53.74436)"
       style="fill:url(#radialGradient1589);fill-opacity:0.056603733;">
      <path
         style="fill-rule:evenodd;stroke-width:3.5875001;"
         d="M 644.05413,819.37986 C 632.00057,819.90959 617.89915,822.04227 601.39788,826.00486 C 425.94235,868.13839 494.64788,1043.8174 494.64788,1043.8173 C 494.64788,1043.8173 495.57286,1047.5365 497.05413,1052.9423 L 325.24163,1054.7236 C 287.72952,1055.1109 216.72406,1094.1031 218.61663,1108.3799 C 219.74584,1116.8983 223.33261,1118.1837 230.39788,1118.0049 C 230.30648,1118.5318 230.08689,1119.0927 230.14788,1119.5673 C 231.48066,1129.9396 237.22565,1122.1699 248.55413,1117.2549 C 248.96492,1117.2500 249.19503,1117.1936 249.61663,1117.1923 C 256.19974,1117.1729 267.73125,1114.8667 280.42913,1112.0049 C 301.56958,1108.6425 332.72331,1101.8810 353.96038,1099.1923 C 354.30902,1099.3144 354.78215,1099.3765 355.05413,1099.5361 L 390.36663,1120.2549 C 402.32394,1127.2700 420.24779,1128.4118 441.08538,1128.4736 C 459.53220,1130.3730 481.07034,1129.8254 501.83538,1129.5986 C 512.29255,1130.4375 522.79544,1131.7930 533.14788,1134.2549 C 534.70045,1136.4467 536.33820,1138.5274 537.99163,1140.5986 C 538.09938,1140.7260 538.19589,1140.8787 538.30413,1141.0049 C 544.91050,1149.2133 552.24305,1156.4161 560.49163,1161.5986 L 558.67913,1184.2236 C 558.67911,1184.2236 590.35010,1230.6499 626.08538,1220.7549 C 661.82053,1210.8598 689.36309,1180.7740 689.61663,1173.0361 C 689.85042,1165.9014 703.14345,1101.9371 684.14788,1099.9736 C 699.37013,1060.6075 684.61198,1019.3069 684.08538,992.75486 C 683.36539,956.45660 760.57192,814.25909 644.05413,819.37986 z "
         id="path3543" />
      <path
         style="fill-rule:evenodd;stroke-width:3.5875001;"
         d="M 643.53125,812.50000 C 598.64643,816.47794 552.24537,829.15064 518.15625,860.03125 C 494.29830,882.36532 479.24823,913.40905 476.06366,945.89849 C 471.96747,979.73486 477.59265,1014.0792 488.00000,1046.3125 C 431.11131,1046.7022 374.17868,1047.0065 317.32816,1048.4263 C 283.75798,1053.6400 252.50916,1069.0760 225.08217,1088.6793 C 216.11094,1094.5881 207.55700,1107.0520 214.58427,1117.4413 C 216.98513,1123.0032 224.01290,1122.9551 226.33764,1128.1658 C 231.96096,1134.0218 240.52197,1130.6417 245.90625,1126.3438 C 258.56403,1121.9749 272.18906,1121.3652 285.20423,1118.2449 C 307.80863,1113.8374 330.45229,1110.1862 353.18750,1106.4375 C 373.89089,1117.9863 393.99301,1134.1440 418.83701,1134.2948 C 451.35327,1137.3954 484.09900,1135.4520 516.61226,1138.1279 C 523.82869,1138.8399 531.37780,1140.5721 534.81250,1147.6562 C 540.38866,1153.9966 546.46648,1159.9192 553.34375,1164.8438 C 552.71808,1174.9152 549.08720,1187.2469 558.30855,1194.7237 C 572.86401,1212.4196 593.20750,1229.0257 617.27156,1228.6471 C 642.93472,1226.5778 665.11123,1210.7870 683.54854,1193.9392 C 692.51961,1185.5502 698.11245,1173.8531 698.06195,1161.4922 C 700.19743,1141.6384 704.51956,1120.3398 696.66405,1101.2617 C 692.30939,1097.9280 692.34348,1093.9923 694.36005,1089.2881 C 702.64185,1057.6376 693.24400,1025.2185 691.33056,993.44262 C 693.14721,969.68761 702.92421,947.51136 707.68541,924.30109 C 714.55420,898.15647 719.65844,869.32005 709.47381,843.37873 C 700.46456,822.64905 677.04185,812.46151 655.41916,812.70011 C 651.46602,812.42988 647.48434,812.52125 643.53125,812.50000 z "
         id="path3562" />
      <path
         style="fill-rule:evenodd;stroke-width:3.5875001;"
         d="M 642.96875,803.31250 C 597.66746,807.64862 551.35192,820.44461 515.97658,850.30847 C 481.39763,879.57263 464.23912,925.93354 465.86668,970.65469 C 465.86360,993.18732 470.12180,1015.5038 476.00000,1037.1875 C 421.18660,1037.7132 366.29586,1038.2086 311.55575,1040.2512 C 274.32457,1047.7660 238.61055,1064.6288 210.26388,1089.9790 C 199.65133,1101.5114 201.05370,1122.6538 215.29427,1130.6776 C 222.13267,1137.2470 232.15844,1144.0292 241.67794,1138.5288 C 264.12494,1129.3201 288.76325,1128.0220 312.30105,1122.8268 C 325.35401,1120.5659 338.41334,1118.3409 351.46875,1116.0938 C 373.99987,1129.7020 397.97052,1144.6537 425.30999,1143.9126 C 457.58109,1146.0025 489.97918,1145.1102 522.12500,1148.5938 C 529.86987,1154.7197 535.92947,1162.6227 543.43750,1169.0000 C 542.16588,1180.7219 543.04876,1194.0311 552.56871,1202.3289 C 569.56034,1222.0358 593.78372,1239.8146 621.14523,1237.0136 C 647.81933,1234.0920 671.27389,1218.1433 689.93938,1199.7048 C 701.03843,1190.0044 706.67303,1175.6518 707.23523,1161.1236 C 709.95584,1139.2104 713.50023,1115.6183 703.56846,1094.9064 C 702.77777,1088.4195 706.09314,1081.4902 706.06904,1074.6899 C 709.14286,1046.9595 701.17277,1019.5910 701.64174,991.94444 C 702.26165,973.57799 709.57588,956.30447 713.38614,938.47517 C 721.21316,909.20647 729.11979,877.71670 720.37500,847.75000 C 715.04695,829.74242 701.28335,814.55413 683.27514,808.72696 C 670.42711,803.95504 656.57526,802.88439 642.96875,803.31250 z "
         id="path3570" />
      <path
         style="fill-rule:evenodd;stroke-width:3.5875001;"
         d="M 641.56250,791.90625 C 594.08448,796.88565 545.83711,810.99067 508.68041,842.11065 C 474.49758,870.77514 456.34938,915.38933 454.79336,959.42319 C 454.09987,981.73167 456.69466,1004.0244 461.62500,1025.7812 C 409.06441,1026.8298 356.36101,1026.5451 303.93988,1030.3196 C 264.72578,1039.8347 226.25876,1057.5411 198.28125,1087.2500 C 186.23217,1105.1324 193.04788,1131.7657 211.50000,1142.5000 C 222.18016,1152.5603 238.86338,1154.1733 251.67652,1147.4628 C 282.76054,1138.6376 314.85378,1134.2081 346.65330,1128.8892 C 357.98207,1130.3466 366.09462,1139.8632 376.81162,1143.3207 C 396.90736,1153.6005 419.72444,1156.3954 442.02783,1156.1341 C 467.13866,1157.0459 492.23109,1158.3311 517.31250,1159.8438 C 523.82174,1166.2415 533.73443,1172.1901 531.71875,1182.8438 C 533.35278,1200.0389 545.23412,1213.7439 558.21292,1224.0760 C 579.00572,1243.1883 609.59838,1254.1925 637.27905,1244.9169 C 666.77233,1236.6642 693.00452,1217.1411 710.11005,1191.8971 C 720.56033,1172.2727 719.81502,1149.3159 721.31491,1127.7501 C 721.87998,1115.3659 718.08795,1103.2786 715.51546,1091.4474 C 720.08769,1064.1269 716.57771,1036.3777 714.09460,1009.1074 C 711.02291,978.65290 723.52464,949.93344 729.56141,920.66229 C 735.82331,892.61179 739.16769,861.86866 727.43100,834.77640 C 716.90720,812.13504 694.07402,796.51404 669.42721,793.62150 C 660.26426,791.90064 650.84374,792.20780 641.56250,791.90625 z "
         id="path3583" />
    </g>
    <path
       style="fill:#5a77bf;fill-rule:evenodd;stroke-width:3.5875001;"
       d="M 112.50352,140.97070 L 111.97005,147.59682 C 111.97005,147.59682 121.02620,160.86435 131.24245,158.03546 C 141.45867,155.20657 149.33312,146.60646 149.40560,144.39429 C 149.47808,142.18215 153.97442,120.81689 146.28635,123.72861 C 138.59828,126.64033 112.50352,140.97070 112.50352,140.97070 z "
       id="path1596" />
    <path
       style="fill:#dfdfdf;fill-rule:evenodd;stroke-width:3.5875001;"
       d="M 93.670963,107.45211 C 93.670963,107.45211 74.023319,57.225007 124.18377,45.179579 C 174.50378,33.095827 147.59504,81.401596 147.82217,92.852299 C 148.06075,104.88184 158.58656,127.51235 128.87533,141.72424 C 104.01085,153.61776 93.670963,107.45211 93.670963,107.45211 z "
       id="path1607"
       sodipodi:nodetypes="czzzc" />
    <path
       style="fill:url(#linearGradient3470);fill-opacity:0.75000000;fill-rule:evenodd;stroke-width:3.5875001;"
       d="M 95.087779,106.21506 C 95.087779,106.21506 81.542576,60.104564 116.12350,49.046378 C 150.81441,37.953007 132.26336,82.299641 132.41995,92.811846 C 132.58443,103.85545 139.84099,124.63116 119.35788,137.67824 C 102.21616,148.59697 95.087779,106.21506 95.087779,106.21506 z "
       id="path3469"
       sodipodi:nodetypes="czzzc" />
    <path
       sodipodi:type="arc"
       style="fill:#eaeaea;fill-opacity:0.75000000;fill-rule:evenodd;stroke:url(#linearGradient3465);stroke-width:0.58368391;"
       id="path1609"
       sodipodi:cx="102.81068"
       sodipodi:cy="57.338039"
       sodipodi:rx="6.6165290"
       sodipodi:ry="6.6165290"
       d="M 109.42721 57.338039 A 6.6165290 6.6165290 0 1 0 96.194148,57.338039 A 6.6165290 6.6165290 0 1 0 109.42721 57.338039 z"
       transform="matrix(1.756207,5.754048e-2,-5.754048e-2,1.756207,-72.97052,-11.37165)" />
    <path
       style="fill:url(#linearGradient1542);fill-opacity:0.75000000;fill-rule:evenodd;stroke-width:1.0000000pt;"
       d="M 119.99927,50.576102 C 119.99927,50.576102 143.86938,40.698820 147.57336,50.164550 C 151.27734,59.630280 145.51559,76.092417 145.51559,80.207952 C 145.51559,84.323487 144.28093,103.25495 145.92714,106.13582 C 147.57336,109.01669 145.51559,128.77126 136.87297,130.82903 C 128.23034,132.88679 92.836745,64.980475 119.99927,50.576102 z "
       id="path3457" />
    <path
       style="fill:#edbf00;fill-rule:evenodd;stroke-width:3.5875001;stroke-opacity:0.0000000;"
       d="M 145.53873,114.75635 C 151.24237,113.14360 145.32533,108.38459 138.88998,108.41030 C 130.45989,108.44400 119.62471,101.42149 115.76682,101.70103 C 108.05101,102.26012 104.65147,109.96167 97.150134,110.03913 L 45.233901,110.57514 C 34.509673,110.68588 14.214558,121.82516 14.755619,125.90674 C 15.291091,129.94617 17.356619,128.45269 23.620855,128.43422 C 29.885088,128.41575 50.673330,121.56955 53.762344,123.38184 L 63.858533,129.30517 C 72.811750,134.55792 93.339898,128.31379 110.42284,135.08113 C 127.37824,141.79791 133.72225,118.09753 145.53873,114.75635 z "
       id="path1608"
       sodipodi:nodetypes="cszzzzzzzzz" />
    <path
       style="fill:url(#linearGradient1544);fill-rule:evenodd;stroke:#000000;stroke-width:1.0097613;stroke-opacity:0.0000000;"
       d="M 144.82238,117.95952 C 150.35100,116.34677 144.61553,111.58776 138.37765,111.61347 C 130.20624,111.64717 119.70354,104.62466 115.96403,104.90420 C 108.48498,105.46329 105.18975,113.16484 97.918595,113.24229 L 47.595422,113.77831 C 37.200267,113.88905 17.527911,125.02833 18.052371,129.10991 C 18.571413,133.14934 21.396666,127.54032 27.468682,127.52186 C 33.540694,127.50339 56.571925,121.48029 59.566148,123.29258 L 69.352535,129.21591 C 78.031017,134.46867 100.03361,130.20899 110.78403,132.93410 C 121.04584,135.53535 133.36849,121.30070 144.82238,117.95952 z "
       id="path3453"
       sodipodi:nodetypes="cszzzzzzzzz" />
    <path
       style="fill:url(#linearGradient1543);fill-opacity:0.75000000;fill-rule:evenodd;stroke-width:3.5875001;"
       d="M 133.05934,118.11827 C 137.27848,122.42069 124.55970,134.67749 117.91630,135.32608 C 111.56110,135.94652 100.96721,129.27690 88.515006,130.80055 C 67.244704,133.40317 61.565184,127.05426 55.162913,123.34385 L 107.94732,126.90334 C 116.26746,127.46440 128.33864,121.09542 133.05934,118.11827 z "
       id="path1610"
       sodipodi:nodetypes="czsczc" />
    <path
       sodipodi:type="arc"
       style="fill:#eaeaea;fill-opacity:0.75000000;fill-rule:evenodd;stroke:url(#linearGradient3466);stroke-width:0.58368391;"
       id="path1611"
       sodipodi:cx="119.47924"
       sodipodi:cy="54.029774"
       sodipodi:rx="7.5072155"
       sodipodi:ry="7.5072155"
       d="M 126.98646 54.029774 A 7.5072155 7.5072155 0 1 0 111.97202,54.029774 A 7.5072155 7.5072155 0 1 0 126.98646 54.029774 z"
       transform="matrix(1.756207,5.754048e-2,-5.754048e-2,1.756207,-74.55670,-10.75245)" />
    <path
       sodipodi:type="arc"
       style="fill-opacity:0.75000000;fill-rule:evenodd;stroke:#000000;stroke-width:0.58368391;"
       id="path1612"
       sodipodi:cx="113.24444"
       sodipodi:cy="55.938389"
       sodipodi:rx="1.9086140"
       sodipodi:ry="1.9086140"
       d="M 115.15305 55.938389 A 1.9086140 1.9086140 0 1 0 111.33582,55.938389 A 1.9086140 1.9086140 0 1 0 115.15305 55.938389 z"
       transform="matrix(1.756207,5.754048e-2,-5.754048e-2,1.756207,-71.04375,-11.01427)" />
    <path
       sodipodi:type="arc"
       style="fill:url(#linearGradient3464);fill-opacity:0.75000000;fill-rule:evenodd;stroke-width:0.58368391;"
       id="path3461"
       sodipodi:cx="119.47924"
       sodipodi:cy="54.029774"
       sodipodi:rx="7.5072155"
       sodipodi:ry="7.5072155"
       d="M 126.98646 54.029774 A 7.5072155 7.5072155 0 1 0 111.97202,54.029774 A 7.5072155 7.5072155 0 1 0 126.98646 54.029774 z"
       transform="matrix(1.371292,3.873626e-2,-4.492914e-2,1.182276,-29.05722,18.91418)" />
    <path
       sodipodi:type="arc"
       style="fill:url(#linearGradient3462);fill-opacity:0.75000000;fill-rule:evenodd;stroke-width:0.58368391;"
       id="path3463"
       sodipodi:cx="119.47924"
       sodipodi:cy="54.029774"
       sodipodi:rx="7.5072155"
       sodipodi:ry="7.5072155"
       d="M 126.98646 54.029774 A 7.5072155 7.5072155 0 1 0 111.97202,54.029774 A 7.5072155 7.5072155 0 1 0 126.98646 54.029774 z"
       transform="matrix(1.235691,3.238928e-2,-4.048617e-2,0.988561,-41.09170,34.44562)" />
    <path
       sodipodi:type="arc"
       style="fill-opacity:0.75000000;fill-rule:evenodd;stroke:#000000;stroke-width:0.58368391;"
       id="path1613"
       sodipodi:cx="107.90031"
       sodipodi:cy="56.447353"
       sodipodi:rx="2.0358551"
       sodipodi:ry="2.0358551"
       d="M 109.93616 56.447353 A 2.0358551 2.0358551 0 1 0 105.86445,56.447353 A 2.0358551 2.0358551 0 1 0 109.93616 56.447353 z"
       transform="matrix(1.756207,5.754048e-2,-5.754048e-2,1.756207,-75.72075,-10.75245)" />
    <path
       style="fill:url(#linearGradient3468);fill-rule:evenodd;stroke-width:3.1681509;"
       d="M 115.01529,140.25768 L 114.54418,146.10926 C 114.54418,146.10926 122.54174,157.82592 131.56380,155.32771 C 140.58583,152.82950 147.53982,145.23467 147.60383,143.28109 C 147.66784,141.32752 151.63859,122.45969 144.84919,125.03105 C 138.05979,127.60241 115.01529,140.25768 115.01529,140.25768 z "
       id="path3467" />
  </g>
  <path
     style="fill-rule:evenodd;stroke-width:0.51792421pt;"
     d="M 83.903104,27.290932 C 90.079637,15.318141 104.29616,13.404409 106.22226,18.312854 C 108.65683,13.155880 127.50376,13.191463 130.87960,21.872183 C 130.87960,21.872183 111.31344,13.763956 106.74947,22.285658 C 100.36417,15.694470 90.024798,22.547120 83.903104,27.290932 z "
     id="path1567"
     sodipodi:nodetypes="ccccc" />
  <path
     style="fill-rule:evenodd;stroke-width:0.59040012pt;"
     d="M 43.691477,19.192138 C 47.017965,12.743966 53.654345,8.6526975 55.711878,14.356825 C 58.043260,9.1989795 67.173433,11.598604 68.991555,16.273768 C 68.991555,16.273768 58.453831,11.906930 55.995816,16.496453 C 52.556893,12.946645 46.988431,16.637269 43.691477,19.192138 z "
     id="path1568"
     sodipodi:nodetypes="ccccc" />
  <g
     id="g1146"
     transform="matrix(1.079222,0.000000,0.000000,1.079222,16.11661,-16.19100)">
    <path
       sodipodi:type="arc"
       style="fill:url(#radialGradient858);fill-opacity:0.75000000;fill-rule:evenodd;stroke-width:1.0000000pt;"
       id="path1147"
       sodipodi:cx="79.895966"
       sodipodi:cy="77.944687"
       sodipodi:rx="68.379425"
       sodipodi:ry="68.379425"
       d="M 148.27539 77.944687 A 68.379425 68.379425 0 1 0 11.516541,77.944687 A 68.379425 68.379425 0 1 0 148.27539 77.944687 z"
       transform="matrix(1.104205,0.000000,0.000000,0.234691,-7.296289,323.4826)" />
    <g
       id="g1148"
       transform="matrix(0.785154,0.000000,0.000000,0.785154,-241.5701,119.2447)"
       style="stroke:#000000;stroke-width:0.84378350;stroke-linecap:round;stroke-linejoin:round;">
      <path
         style="fill:#e3b200;fill-rule:evenodd;"
         d="M 404.19993,250.51257 C 404.19993,250.51257 402.26769,266.74483 406.33739,274.64403 C 408.35822,278.56641 396.20639,275.46295 383.39519,276.08428 C 370.58398,276.70562 357.20308,282.20047 357.16341,279.52567 C 357.26341,276.47353 364.12639,269.05983 402.25320,271.07288 C 404.50898,272.16526 398.29165,252.10132 400.40974,249.62453 C 402.52785,247.14774 404.19993,250.51257 404.19993,250.51257 z "
         id="path1149"
         sodipodi:nodetypes="czscccc" />
      <path
         style="fill:#5a77bf;fill-rule:evenodd;"
         d="M 398.70639,186.70563 L 398.40279,190.47658 C 398.40279,190.47658 403.55668,198.02718 409.37079,196.41725 C 415.18488,194.80732 419.66626,189.91296 419.70751,188.65401 C 419.74876,187.39507 422.30764,175.23602 417.93233,176.89309 C 413.55702,178.55016 398.70639,186.70563 398.70639,186.70563 z "
         id="path1150" />
      <path
         style="fill:#e3e3e3;fill-rule:evenodd;"
         d="M 359.11928,202.51263 C 359.11928,202.51263 360.00201,189.30844 362.18236,191.45036 C 364.36271,193.59229 362.37143,207.66037 362.37143,207.66037 C 362.37143,207.66037 358.85988,204.93471 359.11928,202.51263 z "
         id="path1151" />
      <g
         id="g1152"
         transform="matrix(0.999464,3.274640e-2,-3.274640e-2,0.999464,292.2497,100.3594)">
        <path
           style="fill:none;fill-opacity:0.75000000;fill-rule:evenodd;"
           d="M 115.78926,27.818142 C 115.78926,27.818142 119.86097,15.857493 124.69612,18.402312 C 129.53128,20.947131 131.05817,26.036769 129.53128,27.054696"
           id="path1153" />
        <path
           style="fill:none;fill-opacity:0.75000000;fill-rule:evenodd;"
           d="M 109.68169,29.599515 C 109.68169,29.599515 107.13687,13.058193 103.31964,14.330602"
           id="path1154" />
        <path
           style="fill:none;fill-opacity:0.75000000;fill-rule:evenodd;"
           d="M 106.11894,30.871924 C 101.28379,20.692649 103.06516,18.402312 100.26586,20.947131"
           id="path1155" />
        <path
           style="fill:none;fill-opacity:0.75000000;fill-rule:evenodd;"
           d="M 100.26586,36.725008 C 100.26586,36.725008 86.014874,25.018841 87.287284,24.000914"
           id="path1156" />
        <path
           style="fill:none;fill-opacity:0.75000000;fill-rule:evenodd;"
           d="M 93.140367,25.273323 C 93.140367,25.273323 102.30171,27.309178 104.84653,32.144334"
           id="path1157" />
        <path
           style="fill:none;fill-opacity:0.75000000;fill-rule:evenodd;"
           d="M 87.541766,54.029775 C 87.541766,54.029775 91.867958,42.323609 97.466559,40.542236"
           id="path1158" />
        <path
           style="fill:none;fill-opacity:0.75000000;fill-rule:evenodd;"
           d="M 97.466559,39.524308 C 97.466559,39.524308 84.233501,36.979489 84.233501,34.689153"
           id="path1159" />
        <path
           style="fill:none;fill-opacity:0.75000000;fill-rule:evenodd;"
           d="M 127.74991,27.563660 C 127.74991,27.563660 138.69263,32.907780 138.69263,35.198116"
           id="path1160" />
      </g>
      <path
         style="fill:url(#linearGradient1505);fill-opacity:0.75000000;fill-rule:evenodd;"
         d="M 387.98871,167.63007 C 387.98871,167.63007 376.80716,139.04563 405.35367,132.19053 C 433.99098,125.31362 418.67711,152.80462 418.80637,159.32126 C 418.94215,166.16732 424.93243,179.04643 408.02365,187.13447 C 393.87318,193.90312 387.98871,167.63007 387.98871,167.63007 z "
         id="path1161"
         sodipodi:nodetypes="czzzc" />
      <path
         style="fill:#edbf00;fill-rule:evenodd;"
         d="M 417.50686,171.78694 C 420.75282,170.86912 417.38541,168.16075 413.72303,168.17538 C 408.92543,168.19456 402.75909,164.19802 400.56355,164.35711 C 396.17245,164.67529 394.23776,169.05827 389.96872,169.10235 L 360.42299,169.40740 C 354.31979,169.47042 342.76976,175.80983 343.07768,178.13267 C 343.38242,180.43153 344.55792,179.58158 348.12292,179.57107 C 351.68792,179.56056 363.51859,175.66436 365.27656,176.69574 L 371.02234,180.06673 C 376.11765,183.05609 387.80030,179.50253 397.52227,183.35385 C 407.17165,187.17640 410.78205,173.68842 417.50686,171.78694 z "
         id="path1162"
         sodipodi:nodetypes="cszzzzzzzzz" />
      <path
         sodipodi:type="arc"
         style="fill:#eaeaea;fill-opacity:0.75000000;fill-rule:evenodd;"
         id="path1163"
         sodipodi:cx="102.81068"
         sodipodi:cy="57.338039"
         sodipodi:rx="6.6165290"
         sodipodi:ry="6.6165290"
         d="M 109.42721 57.338039 A 6.6165290 6.6165290 0 1 0 96.194148,57.338039 A 6.6165290 6.6165290 0 1 0 109.42721 57.338039 z"
         transform="matrix(0.999464,3.274640e-2,-3.274640e-2,0.999464,293.1524,100.0070)" />
      <path
         style="fill:none;fill-opacity:0.75000000;fill-rule:evenodd;"
         d="M 402.16737,164.89418 C 398.15254,163.44236 394.33218,169.03665 390.06314,169.08073 L 360.51741,169.38578 C 354.41421,169.44880 342.86418,175.78821 343.17210,178.11105 C 343.47684,180.40991 344.65234,179.55995 348.21734,179.54945 C 351.78234,179.53894 358.87985,176.24640 365.37098,176.67412 L 396.11344,178.69984 C 400.84895,179.01188 404.20497,176.33140 406.89154,174.63709 C 409.57811,172.94278 413.37651,171.18973 412.19161,169.79295"
         id="path1164"
         sodipodi:nodetypes="czzzzzzzz" />
      <path
         sodipodi:type="arc"
         style="fill:#eaeaea;fill-opacity:0.75000000;fill-rule:evenodd;"
         id="path1165"
         sodipodi:cx="119.47924"
         sodipodi:cy="54.029774"
         sodipodi:rx="7.5072155"
         sodipodi:ry="7.5072155"
         d="M 126.98646 54.029774 A 7.5072155 7.5072155 0 1 0 111.97202,54.029774 A 7.5072155 7.5072155 0 1 0 126.98646 54.029774 z"
         transform="matrix(0.999464,3.274640e-2,-3.274640e-2,0.999464,292.2497,100.3594)" />
      <path
         sodipodi:type="arc"
         style="fill-opacity:0.75000000;fill-rule:evenodd;"
         id="path1166"
         sodipodi:cx="113.24444"
         sodipodi:cy="55.938389"
         sodipodi:rx="1.9086140"
         sodipodi:ry="1.9086140"
         d="M 115.15305 55.938389 A 1.9086140 1.9086140 0 1 0 111.33582,55.938389 A 1.9086140 1.9086140 0 1 0 115.15305 55.938389 z"
         transform="matrix(0.999464,3.274640e-2,-3.274640e-2,0.999464,292.7584,100.3760)" />
      <path
         sodipodi:type="arc"
         style="fill-opacity:0.75000000;fill-rule:evenodd;"
         id="path1167"
         sodipodi:cx="107.90031"
         sodipodi:cy="56.447353"
         sodipodi:rx="2.0358551"
         sodipodi:ry="2.0358551"
         d="M 109.93616 56.447353 A 2.0358551 2.0358551 0 1 0 105.86445,56.447353 A 2.0358551 2.0358551 0 1 0 109.93616 56.447353 z"
         transform="matrix(0.999464,3.274640e-2,-3.274640e-2,0.999464,292.2497,100.3594)" />
      <path
         style="fill:#e3e3e3;fill-rule:evenodd;"
         d="M 363.32346,195.08860 C 363.32346,195.08860 366.13162,189.05916 366.08166,196.07918 C 366.03170,203.09920 365.02062,211.97817 365.02062,211.97817 L 361.84520,209.98369 C 361.84520,209.98369 363.12004,195.80210 363.32346,195.08860 z "
         id="path1168" />
      <path
         style="fill:url(#linearGradient1793);fill-rule:evenodd;"
         d="M 365.04267,209.47296 C 367.78585,214.05150 371.83298,221.11347 374.60886,221.56450 C 380.16062,222.46657 383.02489,220.21987 387.43863,222.88507 C 391.85237,225.55027 396.64374,238.67031 384.62918,237.19642 C 370.68496,236.91958 363.19009,229.38231 359.27888,219.62190 C 356.96441,218.82589 356.69169,218.90697 355.45337,218.23625 C 354.21505,217.56553 352.87395,214.49529 354.04658,213.52186 C 355.27010,212.50619 356.43536,215.31441 357.85584,215.12992 C 359.14122,214.96298 359.86476,214.79119 360.24577,212.09179 C 361.00779,206.69298 358.86473,207.53423 356.89229,207.63277 C 354.98833,207.72789 354.18837,211.51074 353.14172,211.85904 C 350.94644,212.58956 352.81496,202.92300 357.84266,203.01093 C 359.16720,203.03410 360.02083,202.52870 361.37273,204.22615"
         id="path1169"
         sodipodi:nodetypes="czccczzszszzs" />
      <path
         id="path1170"
         style="fill:url(#linearGradient1794);fill-rule:evenodd;"
         d="M 460.80521,201.44349 C 452.72919,222.56684 435.55941,249.24846 411.06725,250.73757 C 386.57510,252.22667 384.64499,235.38556 383.27872,227.16231 C 381.78997,218.20189 393.63737,207.64521 407.67637,206.57748 C 421.49346,205.52661 435.13769,223.26356 460.80521,201.44349 z "
         sodipodi:nodetypes="cczzc" />
      <path
         style="fill:#e3b200;fill-rule:evenodd;"
         d="M 424.59829,243.68075 C 426.42671,246.15953 418.85522,267.42671 414.27718,275.04258 C 412.00394,278.82427 426.40095,275.57217 439.14401,277.03076 C 451.88706,278.48936 467.72721,275.64803 467.94188,272.98157 C 468.04188,269.92943 454.14871,266.54612 418.58638,271.74642 C 416.26394,272.68880 432.62067,247.50825 428.43848,243.04271 C 426.48704,240.43259 424.59829,243.68075 424.59829,243.68075 z "
         id="path1171"
         sodipodi:nodetypes="czscccc" />
      <path
         style="fill:#6981ba;fill-rule:evenodd;"
         d="M 414.69555,198.75222 C 417.48757,195.96302 421.02256,192.47799 423.21919,196.87098 C 425.41580,201.26397 425.99685,211.00529 421.30898,211.21178 C 416.62112,211.41828 396.61659,212.02315 398.51526,209.02464 C 400.41392,206.02612 411.90353,201.54142 414.69555,198.75222 z "
         id="path1172"
         sodipodi:nodetypes="ccccz" />
      <g
         id="g1173"
         transform="matrix(0.999464,3.274640e-2,-3.274640e-2,0.999464,6.773080,-13.28060)">
        <path
           style="fill:none;fill-opacity:0.75000000;fill-rule:evenodd;"
           d="M 414.59526,222.81176 C 414.59526,222.81176 413.15570,227.85025 412.07602,229.64970"
           id="path1174" />
        <path
           style="fill:none;fill-opacity:0.75000000;fill-rule:evenodd;"
           d="M 410.63646,221.73209 L 409.19689,228.57003"
           id="path1175" />
        <path
           style="fill:none;fill-opacity:0.75000000;fill-rule:evenodd;"
           d="M 407.75732,222.81176 C 405.23808,228.92992 405.23808,230.00960 405.23808,230.00960"
           id="path1176" />
        <path
           style="fill:none;fill-opacity:0.75000000;fill-rule:evenodd;"
           d="M 401.27927,223.17165 C 401.27927,223.17165 399.47981,228.92992 398.04025,229.64970"
           id="path1177" />
        <path
           style="fill:none;fill-opacity:0.75000000;fill-rule:evenodd;"
           d="M 404.15840,224.25133 C 404.15840,224.25133 402.35895,231.08927 400.91938,231.80905"
           id="path1178" />
        <path
           style="fill:none;fill-opacity:0.75000000;fill-rule:evenodd;"
           d="M 402.35895,223.17165 C 402.35895,223.17165 400.55949,230.00960 399.11992,231.08927"
           id="path1179" />
        <path
           style="fill:none;fill-opacity:0.75000000;fill-rule:evenodd;"
           d="M 412.07602,222.09198 C 412.07602,222.09198 412.07602,229.28981 410.27656,230.36949"
           id="path1180" />
      </g>
      <path
         style="fill:#91a6d7;fill-rule:evenodd;"
         d="M 414.58998,223.95469 L 398.18245,224.67741 C 398.18245,224.67741 405.78583,206.92229 404.43542,204.17741 C 403.08501,201.43253 419.08854,196.55560 419.08854,196.55560 C 419.08854,196.55560 418.38143,218.13752 414.58998,223.95469 z "
         id="path1181" />
      <path
         style="fill:#6981ba;fill-rule:evenodd;"
         d="M 402.00975,200.79021 C 402.00975,200.79021 397.14386,201.64926 397.02719,205.21009 C 396.91053,208.77093 395.07177,210.49301 398.38660,210.34700 C 401.70142,210.20099 420.69363,197.83771 420.52262,195.28593 C 420.35161,192.73414 414.77268,192.04211 414.46000,193.81420 C 414.14732,195.58628 406.08761,200.66920 402.00975,200.79021 z "
         id="path1182" />
      <path
         style="fill:#7e9add;fill-rule:evenodd;"
         d="M 399.45243,191.41118 C 399.45243,191.41118 397.18509,189.17638 396.76058,191.14294 C 396.33606,193.10950 394.32544,199.52515 399.65609,201.68027 C 404.98676,203.83539 418.97351,194.57136 419.21228,192.77876 C 419.45106,190.98616 418.43089,189.15231 417.31644,190.19605 C 416.20198,191.23979 408.20919,198.89978 399.45243,191.41118 z "
         id="path1183" />
      <g
         id="g1184"
         transform="matrix(0.999464,3.274640e-2,-3.274640e-2,0.999464,292.2497,100.3594)">
        <path
           sodipodi:type="arc"
           style="fill:#f7f7f7;fill-rule:evenodd;"
           id="path1185"
           sodipodi:cx="120.74368"
           sodipodi:cy="132.47894"
           sodipodi:rx="4.1387548"
           sodipodi:ry="4.1387548"
           d="M 124.88244 132.47894 A 4.1387548 4.1387548 0 1 0 116.60493,132.47894 A 4.1387548 4.1387548 0 1 0 124.88244 132.47894 z"
           transform="translate(2.159350,1.619513)" />
        <path
           style="fill:#d11717;fill-rule:evenodd;"
           d="M 133.34850,140.29914 C 129.53127,141.14741 126.66388,143.53770 121.89682,142.84395 C 117.15947,142.15452 127.32645,113.94670 141.49192,113.32405 L 164.64978,112.30613 C 168.57732,106.40066 187.30760,98.429508 186.28073,101.36340 L 182.71799,111.54268 L 180.68213,119.17714 C 180.93133,118.24264 169.66099,120.49720 172.02975,121.46747 C 174.47951,122.47092 176.42018,123.88380 179.15524,124.01229 L 171.50800,140.01377 C 169.41190,144.39977 163.37269,123.65564 161.50337,128.72925 C 159.57579,133.96097 144.35187,140.11852 138.47432,145.02358 C 132.57600,149.94597 123.67819,149.20600 124.69612,146.15222 C 129.02231,146.40669 133.34850,140.29914 133.34850,140.29914 z "
           id="path1186"
           sodipodi:nodetypes="czzczczzczzzcc" />
        <path
           sodipodi:type="arc"
           style="fill:#ffffff;fill-rule:evenodd;"
           id="path1187"
           sodipodi:cx="130.46075"
           sodipodi:cy="133.91850"
           sodipodi:rx="4.8585382"
           sodipodi:ry="4.8585382"
           d="M 135.31929 133.91850 A 4.8585382 4.8585382 0 1 0 125.60222,133.91850 A 4.8585382 4.8585382 0 1 0 135.31929 133.91850 z" />
      </g>
      <path
         style="fill:url(#linearGradient1795);fill-rule:evenodd;"
         d="M 418.67067,231.29009 C 412.05737,224.32183 436.05356,206.29361 443.99665,216.63623 C 451.93973,226.97885 450.17684,236.82343 442.20173,243.94387 C 434.22660,251.06431 426.93810,242.72359 430.15746,232.38661 C 433.37681,222.04963 425.28398,238.25836 418.67067,231.29009 z "
         id="path1188"
         sodipodi:nodetypes="ccccz" />
      <path
         style="fill:none;fill-opacity:0.75000000;fill-rule:evenodd;"
         d="M 430.26647,229.05940 C 430.26647,229.05940 433.49633,226.64463 433.90318,225.21762"
         id="path1189" />
      <path
         style="fill:none;fill-opacity:0.75000000;fill-rule:evenodd;"
         d="M 430.55546,231.22938 C 430.55546,231.22938 438.33458,227.34328 438.89323,224.03080"
         id="path1190" />
      <path
         sodipodi:type="arc"
         style="fill-rule:evenodd;"
         id="path1191"
         sodipodi:cx="231.06955"
         sodipodi:cy="181.01624"
         sodipodi:rx="3.0537825"
         sodipodi:ry="3.0537825"
         d="M 234.12333 181.01624 A 3.0537825 3.0537825 0 1 0 228.01577,181.01624 A 3.0537825 3.0537825 0 1 0 234.12333 181.01624 z"
         transform="matrix(0.559469,1.833042e-2,-1.833042e-2,0.559469,290.3389,130.7029)" />
      <path
         sodipodi:type="arc"
         style="fill-rule:evenodd;"
         id="path1192"
         sodipodi:cx="231.06955"
         sodipodi:cy="181.01624"
         sodipodi:rx="3.0537825"
         sodipodi:ry="3.0537825"
         d="M 234.12333 181.01624 A 3.0537825 3.0537825 0 1 0 228.01577,181.01624 A 3.0537825 3.0537825 0 1 0 234.12333 181.01624 z"
         transform="matrix(0.412803,1.352508e-2,-1.352508e-2,0.412803,315.7877,158.6541)" />
      <g
         id="g1193"
         transform="matrix(0.999464,3.274640e-2,-3.274640e-2,0.999464,6.773080,-13.28060)">
        <path
           style="fill:none;fill-opacity:0.75000000;fill-rule:evenodd;"
           d="M 402.08137,134.70053 L 407.17100,118.41369"
           id="path1194" />
        <path
           style="fill:none;fill-opacity:0.75000000;fill-rule:evenodd;"
           d="M 411.24271,133.68260 C 411.24271,133.68260 421.42199,122.99436 423.45784,126.55711"
           id="path1195" />
        <path
           style="fill:none;fill-opacity:0.75000000;fill-rule:evenodd;"
           d="M 415.82339,136.22742 C 415.82339,136.22742 428.03852,144.37084 427.52955,149.46048"
           id="path1196" />
        <path
           style="fill:none;fill-opacity:0.75000000;fill-rule:evenodd;"
           d="M 394.44691,141.31706 C 385.79453,134.70053 376.12422,137.75431 376.12422,137.75431"
           id="path1197" />
        <path
           style="fill:none;fill-opacity:0.75000000;fill-rule:evenodd;"
           d="M 385.28556,151.49634 C 385.28556,151.49634 371.03458,149.46048 372.05251,154.04115"
           id="path1198" />
        <path
           style="fill:none;fill-opacity:0.75000000;fill-rule:evenodd;"
           d="M 398.51862,135.71846 C 398.51862,135.71846 399.53655,119.94058 401.57240,120.95851"
           id="path1199" />
        <path
           style="fill:none;fill-opacity:0.75000000;fill-rule:evenodd;"
           d="M 395.97380,135.20950 C 391.39313,125.53918 396.99173,124.01229 396.99173,124.01229"
           id="path1200" />
        <path
           style="fill:none;fill-opacity:0.75000000;fill-rule:evenodd;"
           d="M 390.88416,138.26328 C 390.88416,138.26328 367.98080,139.28121 371.03458,147.42463"
           id="path1201" />
        <path
           style="fill:none;fill-opacity:0.75000000;fill-rule:evenodd;"
           d="M 390.37520,144.87981 C 388.33935,144.87981 375.61525,144.37084 375.61525,150.47841"
           id="path1202" />
      </g>
    </g>
  </g>
</svg>
