<?xml version="1.0" encoding="UTF-8" standalone="no"?>
<!DOCTYPE svg PUBLIC "-//W3C//DTD SVG 20010904//EN"
"http://www.w3.org/TR/2001/REC-SVG-20010904/DTD/svg10.dtd">
<!-- Created with Inkscape (http://www.inkscape.org/) -->
<svg
   id="svg1"
   sodipodi:version="0.32"
   inkscape:version="0.39cvs"
   width="128.00000pt"
   height="128.00000pt"
   sodipodi:docbase="/home/andy/Desktop/etiquette-icons-0.5/scalable/apps"
   sodipodi:docname="quake1.svg"
   xmlns="http://www.w3.org/2000/svg"
   xmlns:inkscape="http://www.inkscape.org/namespaces/inkscape"
   xmlns:sodipodi="http://sodipodi.sourceforge.net/DTD/sodipodi-0.dtd"
   xmlns:xml="http://www.w3.org/XML/1998/namespace"
   xmlns:xlink="http://www.w3.org/1999/xlink">
  <defs
     id="defs3">
    <linearGradient
       id="linearGradient1613">
      <stop
         style="stop-color:#ffffff;stop-opacity:0.41584158;"
         offset="0.0000000"
         id="stop1614" />
      <stop
         style="stop-color:#ffffff;stop-opacity:0.11881188;"
         offset="0.49075472"
         id="stop1615" />
      <stop
         style="stop-color:#ffffff;stop-opacity:0.0000000;"
         offset="1.0000000"
         id="stop1616" />
    </linearGradient>
    <linearGradient
       id="linearGradient1519">
      <stop
         style="stop-color:#ffffff;stop-opacity:1.0000000;"
         offset="0.0000000"
         id="stop1520" />
      <stop
         style="stop-color:#ffffff;stop-opacity:0.19801980;"
         offset="0.65716982"
         id="stop1524" />
      <stop
         style="stop-color:#ffffff;stop-opacity:0.0000000;"
         offset="1.0000000"
         id="stop1521" />
    </linearGradient>
    <linearGradient
       id="linearGradient1649">
      <stop
         style="stop-color:#000000;stop-opacity:0.29702970;"
         offset="0.0000000"
         id="stop1650" />
      <stop
         style="stop-color:#000000;stop-opacity:0.0000000;"
         offset="1.0000000"
         id="stop1651" />
    </linearGradient>
    <radialGradient
       xlink:href="#linearGradient1806"
       id="radialGradient1505"
       cx="0.49032259"
       cy="0.50649351"
       r="0.46014288"
       fx="0.50977784"
       fy="0.15800871" />
    <linearGradient
       id="linearGradient1806">
      <stop
         style="stop-color:#000000;stop-opacity:0.27722773;"
         offset="0.0000000"
         id="stop1807" />
      <stop
         style="stop-color:#000000;stop-opacity:0.066666670;"
         offset="0.59270269"
         id="stop3276" />
      <stop
         style="stop-color:#000000;stop-opacity:0.0000000;"
         offset="1.0000000"
         id="stop1808" />
    </linearGradient>
    <radialGradient
       xlink:href="#linearGradient1806"
       id="radialGradient1502"
       cx="0.49032259"
       cy="0.50649351"
       r="0.46014288"
       fx="0.49027237"
       fy="0.095238097" />
    <linearGradient
       xlink:href="#linearGradient1649"
       id="linearGradient1680" />
    <radialGradient
       xlink:href="#linearGradient1519"
       id="radialGradient1652"
       cx="0.50000000"
       cy="0.50000000"
       r="0.50000000"
       fx="0.50000000"
       fy="0.50000000" />
    <pattern
       width="224.00000"
       height="309.00000"
       id="pattern903">
      <image
         xlink:href="/home/andy/Desktop/q1.png"
         sodipodi:absref="/home/andy/Desktop/q1.png"
         width="224.00000"
         height="309.00000"
         id="image904" />
    </pattern>
    <pattern
       width="140.00000"
       height="170.00000"
       id="pattern913">
      <image
         xlink:href="/home/andy/Desktop/q3.png"
         sodipodi:absref="/home/andy/Desktop/q3.png"
         width="140.00000"
         height="170.00000"
         id="image914" />
    </pattern>
    <radialGradient
       xlink:href="#linearGradient1649"
       id="radialGradient1779" />
    <linearGradient
       xlink:href="#linearGradient1806"
       id="linearGradient2017" />
    <radialGradient
       xlink:href="#linearGradient1649"
       id="radialGradient1612"
       cx="0.50000000"
       cy="0.50000000"
       r="0.52111119"
       fx="0.50000000"
       fy="0.50000000" />
  </defs>
  <sodipodi:namedview
     id="base"
     pagecolor="#ffffff"
     bordercolor="#666666"
     borderopacity="1.0"
     inkscape:pageopacity="0.0000000"
     inkscape:pageshadow="2"
     inkscape:zoom="1.4886963"
     inkscape:cx="86.284997"
     inkscape:cy="34.759048"
     inkscape:window-width="510"
     inkscape:window-height="476"
     inkscape:window-x="4"
     inkscape:window-y="219" />
  <path
     sodipodi:type="arc"
     style="fill:url(#radialGradient1652);fill-opacity:0.75000000;fill-rule:evenodd;stroke-width:1.0000000pt;"
     id="path933"
     sodipodi:cx="79.559807"
     sodipodi:cy="73.909164"
     sodipodi:rx="67.685204"
     sodipodi:ry="67.685204"
     d="M 147.24501 73.909164 A 67.685204 67.685204 0 1 0 11.874603,73.909164 A 67.685204 67.685204 0 1 0 147.24501 73.909164 z"
     transform="matrix(1.131579,0.000000,0.000000,0.815790,-7.499751,41.52015)" />
  <path
     sodipodi:type="arc"
     style="fill:url(#radialGradient1502);fill-opacity:0.75000000;fill-rule:evenodd;stroke-width:1.0000000pt;"
     id="path3277"
     sodipodi:cx="25.912205"
     sodipodi:cy="175.83524"
     sodipodi:rx="56.143108"
     sodipodi:ry="56.143108"
     d="M 82.055313 175.83524 A 56.143108 56.143108 0 1 0 -30.230904,175.83524 A 56.143108 56.143108 0 1 0 82.055313 175.83524 z"
     transform="matrix(0.946704,0.000000,0.000000,0.446313,56.19373,54.89949)" />
  <path
     sodipodi:type="arc"
     style="fill:url(#radialGradient1505);fill-opacity:0.75000000;fill-rule:evenodd;stroke-width:1.0000000pt;"
     id="path1809"
     sodipodi:cx="25.912205"
     sodipodi:cy="175.83524"
     sodipodi:rx="56.143108"
     sodipodi:ry="56.143108"
     d="M 82.055313 175.83524 A 56.143108 56.143108 0 1 0 -30.230904,175.83524 A 56.143108 56.143108 0 1 0 82.055313 175.83524 z"
     transform="matrix(1.360832,0.000000,0.000000,0.333420,46.67257,65.25341)" />
  <path
     sodipodi:type="arc"
     style="fill:url(#radialGradient1652);fill-opacity:0.75000000;fill-rule:evenodd;stroke-width:1.0000000pt;"
     id="path1523"
     sodipodi:cx="79.559807"
     sodipodi:cy="73.909164"
     sodipodi:rx="67.685204"
     sodipodi:ry="67.685204"
     d="M 147.24501 73.909164 A 67.685204 67.685204 0 1 0 11.874603,73.909164 A 67.685204 67.685204 0 1 0 147.24501 73.909164 z"
     transform="matrix(0.789473,0.000000,0.000000,0.789473,17.34319,13.77867)" />
  <g
     id="g1767"
     transform="matrix(0.464523,0.000000,0.000000,0.439461,-269.6574,-116.2074)"
     style="fill:url(#radialGradient1612);fill-opacity:0.062893040;">
    <path
       style="fill-rule:evenodd;stroke-width:1.0000000pt;fill:url(#radialGradient1612);"
       d="M 801.95495,293.14356 C 797.00055,299.64193 805.18812,301.86513 809.35842,305.41454 C 834.12817,323.67230 853.40536,352.57369 852.01745,384.33106 C 850.65878,422.76199 823.90979,458.65051 788.34502,472.57554 C 781.90063,474.92520 775.13729,476.47487 768.26745,476.70606 C 769.04427,464.56138 767.68772,452.10913 769.92370,440.17481 C 772.65483,433.97029 779.38805,433.71045 784.83305,436.19166 C 786.80596,435.39299 789.58920,424.26263 783.04870,427.14356 C 763.64245,427.14356 744.23620,427.14356 724.82995,427.14356 C 722.19555,435.89254 729.19394,435.00874 735.73620,434.58106 C 743.49785,436.18284 740.93526,446.87994 741.56329,452.79835 C 741.70426,461.04883 741.84523,469.29932 741.98620,477.54981 C 722.90345,478.42664 705.98068,466.39142 692.51042,454.07288 C 668.04751,430.97534 653.25511,395.20856 662.36120,361.76856 C 669.81158,333.99870 690.76647,312.48095 713.39245,295.92481 C 707.60053,292.65250 702.22127,293.12406 697.30010,297.69497 C 657.09991,323.08238 633.18045,373.83023 643.89053,420.82625 C 651.73304,457.84292 681.22058,486.89028 715.28047,501.34118 C 723.24674,505.05510 731.60447,507.84047 740.01745,510.36231 C 740.61978,525.72180 741.16046,541.08678 745.03125,556.04793 C 748.68295,572.87375 750.77569,590.09236 755.51745,606.64356 C 761.22478,586.42826 764.36424,565.52033 768.95495,545.01856 C 769.41328,533.71648 769.87162,522.41439 770.32995,511.11231 C 807.20160,502.02860 842.85628,479.40972 858.94333,443.90466 C 883.26699,392.75787 862.32035,325.63213 813.64626,296.91168 C 810.48458,296.03638 802.83199,288.44793 801.95495,293.14356 z "
       id="path1768" />
    <path
       style="fill-rule:evenodd;stroke-width:1.0000000pt;fill:url(#radialGradient1612);"
       d="M 802.37500,288.09375 C 794.94675,290.80087 795.18800,302.56596 802.52466,305.27954 C 829.04235,323.06374 849.94127,353.28381 848.03446,386.24589 C 845.58817,423.70568 818.47334,458.29731 782.98919,470.16358 C 777.95515,471.83593 769.37055,475.03378 772.22711,466.25042 C 772.60129,457.28569 771.56080,447.57003 775.18750,439.28125 C 779.95426,437.86685 787.81587,442.60342 789.82309,435.42108 C 792.60999,430.39890 789.91242,420.93959 782.81250,423.34375 C 762.46875,423.34375 742.12500,423.34375 721.78125,423.34375 C 718.61745,429.40543 721.42606,439.58702 729.62500,438.46875 C 736.45096,436.54246 738.88852,442.68744 737.62978,448.34278 C 737.79483,456.71810 737.95993,465.09343 738.12500,473.46875 C 715.05008,471.66076 696.76413,454.61291 683.01074,437.37510 C 663.69898,412.19760 656.78089,375.86885 672.13218,347.05086 C 682.84553,325.26505 701.74678,309.24012 720.84375,294.96875 C 712.78944,290.27938 701.39339,287.53042 694.17733,295.22476 C 650.16827,323.47248 625.89801,382.22648 643.28069,432.57069 C 655.63904,468.17786 686.55341,494.88909 721.27780,507.88839 C 726.23069,509.87747 731.23192,511.65507 736.34375,513.18750 C 736.97352,544.12414 744.68286,574.28783 751.01096,604.40238 C 752.50910,610.08874 754.00112,615.77669 755.59375,621.43750 C 762.26243,594.54863 769.22248,567.59926 772.99362,540.15860 C 773.33953,531.41820 773.68537,522.67787 774.03125,513.93750 C 811.27290,504.15483 846.62841,480.25849 862.81768,444.41884 C 887.80860,390.38505 864.08215,319.51059 811.59375,291.43750 C 808.86369,289.78800 805.69820,287.35180 802.37500,288.09375 z "
       id="path1769" />
    <path
       style="fill-rule:evenodd;stroke-width:1.0000000pt;fill:url(#radialGradient1612);"
       d="M 803.25000,289.78125 C 797.86391,291.43659 796.82064,300.68115 802.74560,303.07829 C 829.96146,321.05132 851.64326,351.51959 850.04595,385.24687 C 848.14258,422.93934 821.72249,457.73729 786.63418,471.09397 C 781.67480,472.31656 773.85969,475.66340 770.23425,473.56262 C 770.96981,462.20076 769.23588,450.16240 772.65625,439.28125 C 775.94093,433.75314 783.16584,439.52675 786.40625,437.25000 C 790.34220,433.69902 790.24067,422.68209 782.90625,425.25000 C 763.03125,425.25000 743.15625,425.25000 723.28125,425.25000 C 720.88299,430.18908 723.10974,437.38423 729.56842,436.57650 C 734.34821,435.91728 740.26305,437.01755 739.42998,443.31222 C 739.71202,454.07126 739.86039,464.83306 740.06250,475.59375 C 717.38491,475.04627 698.89112,458.83106 684.59076,442.72882 C 664.55864,418.52857 654.77954,383.64537 667.06480,353.68060 C 676.61020,329.24573 696.34442,310.55172 717.18750,295.43750 C 710.70298,291.67425 701.96714,290.19187 696.21875,296.12500 C 653.35764,323.13002 629.02246,378.88293 643.81250,428.18750 C 654.77185,464.80862 685.89923,492.57381 721.04450,505.73641 C 726.57544,508.25472 732.42984,509.88264 738.18750,511.78125 C 738.58783,529.82485 740.75045,547.70105 744.84577,565.27750 C 747.91962,581.64274 750.92133,598.01474 755.53125,614.03125 C 761.83313,590.66345 766.83845,566.90163 770.95555,543.09537 C 771.36622,532.90736 771.77685,522.71929 772.18750,512.53125 C 809.08445,503.16835 844.41984,480.00398 860.68750,444.62500 C 885.99154,391.31077 862.73382,320.76085 810.62757,293.05299 C 808.43657,291.62600 805.84514,289.84113 803.25000,289.78125 z "
       id="path1770" />
    <path
       style="fill-rule:evenodd;stroke-width:1.0000000pt;fill:url(#radialGradient1612);"
       d="M 802.34375,286.18750 C 792.43529,288.85202 793.00741,304.35741 802.39343,307.53793 C 828.38214,325.38789 848.69201,355.67398 845.91029,388.20719 C 842.39126,426.04854 813.44431,460.85244 776.36453,469.94383 C 770.96084,470.43369 775.81793,460.97540 774.30905,457.28313 C 774.77238,452.10871 773.84738,444.38523 777.62362,441.07244 C 783.01813,441.77728 790.71064,442.21665 791.93389,435.19652 C 795.19281,428.60052 789.73363,418.62802 781.75000,421.43750 C 761.32292,421.43750 740.89583,421.43750 720.46875,421.43750 C 715.93751,428.72301 719.91914,441.77925 729.93750,440.34375 C 736.37378,438.22744 736.19379,446.22635 735.75978,450.37458 C 735.90234,457.32263 736.04493,464.27069 736.18750,471.21875 C 712.21959,468.08009 693.88381,449.37336 680.68384,430.45407 C 662.96891,404.40730 660.03333,367.70771 677.72647,340.88040 C 689.19677,321.81105 707.11668,307.97397 724.46875,294.56250 C 715.15288,289.16203 701.62181,284.76239 692.96875,293.75000 C 648.32039,322.55478 623.96288,382.20577 641.53125,433.31250 C 654.25276,468.91874 684.85202,495.93118 719.66462,509.25298 C 724.29479,511.66389 731.38810,512.07657 734.54843,515.53008 C 735.94164,548.11041 743.61211,580.03025 750.97918,611.66472 C 752.53372,617.43681 754.08561,623.20959 755.68750,628.96875 C 762.85470,597.89138 772.17161,567.06104 775.10083,535.22254 C 775.35889,528.59627 775.61694,521.97001 775.87500,515.34375 C 813.16240,505.22995 848.17831,480.89916 864.56250,445.12500 C 889.64990,390.61296 866.11950,319.25314 813.50750,290.38447 C 810.02896,288.45536 806.62219,285.45090 802.34375,286.18750 z "
       id="path1771" />
  </g>
  <path
     style="fill:#eae8e3;fill-rule:evenodd;stroke-width:1.0000000pt;"
     d="M 59.791699,10.394335 C 7.0809104,49.122777 54.405935,98.658137 75.803005,95.262113 L 75.506412,78.268524 C 75.474044,76.413880 74.352143,73.587548 72.497212,73.587548 L 67.816237,73.587548 L 67.816237,71.915769 L 94.899041,71.915769 L 94.564681,74.256257 L 91.889838,73.587548 C 89.518488,72.994716 86.590026,76.159062 86.540150,78.602883 L 86.205791,94.986308 C 116.74103,94.704827 151.17669,43.327919 102.92357,11.063042 C 103.14647,10.394335 103.36938,9.7256226 103.59228,9.0569099 C 142.20582,27.280858 148.83596,93.869940 87.208858,109.36360 L 86.540150,125.74702 L 81.190458,151.49241 L 75.506412,122.06912 L 74.837703,109.02924 C 14.157822,91.919731 19.394932,31.125586 57.785565,9.7256226 L 59.791699,10.394335 z "
     id="path909"
     sodipodi:nodetypes="cczzcccczzcccccccccc" />
  <text
     xml:space="preserve"
     style="fill:black;fill-opacity:1;stroke:none;font-family:Bitstream Vera Sans;font-style:normal;font-weight:normal;font-size:12px;stroke-opacity:1;stroke-width:1pt;stroke-linejoin:miter;stroke-linecap:butt;"
     x="4.1983043"
     y="186.02949"
     id="text2009"><tspan
       id="tspan2010">Quake Everything</tspan></text>
</svg>
