<?xml version="1.0" encoding="UTF-8" standalone="no"?>
<!DOCTYPE svg PUBLIC "-//W3C//DTD SVG 20010904//EN"
"http://www.w3.org/TR/2001/REC-SVG-20010904/DTD/svg10.dtd">
<!-- Created with Inkscape (http://www.inkscape.org/) -->
<svg
   id="svg1"
   sodipodi:version="0.32"
   inkscape:version="0.39cvs"
   width="128.00000pt"
   height="128.00000pt"
   sodipodi:docbase="/home/andy/Desktop/etiquette-icons-0.5/scalable/apps"
   sodipodi:docname="quake3.svg"
   xmlns="http://www.w3.org/2000/svg"
   xmlns:inkscape="http://www.inkscape.org/namespaces/inkscape"
   xmlns:sodipodi="http://sodipodi.sourceforge.net/DTD/sodipodi-0.dtd"
   xmlns:xml="http://www.w3.org/XML/1998/namespace"
   xmlns:xlink="http://www.w3.org/1999/xlink">
  <defs
     id="defs3">
    <linearGradient
       id="linearGradient1613">
      <stop
         style="stop-color:#ffffff;stop-opacity:0.41584158;"
         offset="0.0000000"
         id="stop1614" />
      <stop
         style="stop-color:#ffffff;stop-opacity:0.11881188;"
         offset="0.49075472"
         id="stop1615" />
      <stop
         style="stop-color:#ffffff;stop-opacity:0.0000000;"
         offset="1.0000000"
         id="stop1616" />
    </linearGradient>
    <linearGradient
       id="linearGradient1519">
      <stop
         style="stop-color:#ffffff;stop-opacity:1.0000000;"
         offset="0.0000000"
         id="stop1520" />
      <stop
         style="stop-color:#ffffff;stop-opacity:0.19801980;"
         offset="0.65716982"
         id="stop1524" />
      <stop
         style="stop-color:#ffffff;stop-opacity:0.0000000;"
         offset="1.0000000"
         id="stop1521" />
    </linearGradient>
    <linearGradient
       id="linearGradient1649">
      <stop
         style="stop-color:#000000;stop-opacity:0.29702970;"
         offset="0.0000000"
         id="stop1650" />
      <stop
         style="stop-color:#000000;stop-opacity:0.0000000;"
         offset="1.0000000"
         id="stop1651" />
    </linearGradient>
    <radialGradient
       xlink:href="#linearGradient1806"
       id="radialGradient1505"
       cx="0.49032259"
       cy="0.50649351"
       r="0.46014288"
       fx="0.50977784"
       fy="0.15800871" />
    <linearGradient
       id="linearGradient1806">
      <stop
         style="stop-color:#000000;stop-opacity:0.27722773;"
         offset="0.0000000"
         id="stop1807" />
      <stop
         style="stop-color:#000000;stop-opacity:0.066666670;"
         offset="0.59270269"
         id="stop3276" />
      <stop
         style="stop-color:#000000;stop-opacity:0.0000000;"
         offset="1.0000000"
         id="stop1808" />
    </linearGradient>
    <radialGradient
       xlink:href="#linearGradient1806"
       id="radialGradient1502"
       cx="0.49032259"
       cy="0.50649351"
       r="0.46014288"
       fx="0.49027237"
       fy="0.095238097" />
    <linearGradient
       xlink:href="#linearGradient1649"
       id="linearGradient1680" />
    <radialGradient
       xlink:href="#linearGradient1519"
       id="radialGradient1652"
       cx="0.50000000"
       cy="0.50000000"
       r="0.50000000"
       fx="0.50000000"
       fy="0.50000000" />
    <pattern
       width="224.00000"
       height="309.00000"
       id="pattern903">
      <image
         xlink:href="/home/andy/Desktop/q1.png"
         sodipodi:absref="/home/andy/Desktop/q1.png"
         width="224.00000"
         height="309.00000"
         id="image904" />
    </pattern>
    <pattern
       width="140.00000"
       height="170.00000"
       id="pattern913">
      <image
         xlink:href="/home/andy/Desktop/q3.png"
         sodipodi:absref="/home/andy/Desktop/q3.png"
         width="140.00000"
         height="170.00000"
         id="image914" />
    </pattern>
    <radialGradient
       xlink:href="#linearGradient1613"
       id="radialGradient1779"
       cx="0.50000000"
       cy="0.50000000"
       r="0.50000000"
       fx="0.50000000"
       fy="0.50000000" />
    <linearGradient
       xlink:href="#linearGradient1806"
       id="linearGradient2017" />
    <radialGradient
       xlink:href="#linearGradient1519"
       id="radialGradient1612"
       cx="0.50000000"
       cy="0.50000000"
       r="0.50000000"
       fx="0.50000000"
       fy="0.50000000" />
  </defs>
  <sodipodi:namedview
     id="base"
     pagecolor="#ffffff"
     bordercolor="#666666"
     borderopacity="1.0"
     inkscape:pageopacity="0.0000000"
     inkscape:pageshadow="2"
     inkscape:zoom="0.13158341"
     inkscape:cx="78.389854"
     inkscape:cy="48.844603"
     inkscape:window-width="510"
     inkscape:window-height="476"
     inkscape:window-x="21"
     inkscape:window-y="225" />
  <path
     sodipodi:type="arc"
     style="fill:url(#radialGradient1502);fill-opacity:0.75000000;fill-rule:evenodd;stroke-width:1.0000000pt;"
     id="path3277"
     sodipodi:cx="25.912205"
     sodipodi:cy="175.83524"
     sodipodi:rx="56.143108"
     sodipodi:ry="56.143108"
     d="M 82.055313 175.83524 A 56.143108 56.143108 0 1 0 -30.230904,175.83524 A 56.143108 56.143108 0 1 0 82.055313 175.83524 z"
     transform="matrix(0.946704,0.000000,0.000000,0.446313,56.19373,54.89949)" />
  <path
     sodipodi:type="arc"
     style="fill:url(#radialGradient1505);fill-opacity:0.75000000;fill-rule:evenodd;stroke-width:1.0000000pt;"
     id="path1809"
     sodipodi:cx="25.912205"
     sodipodi:cy="175.83524"
     sodipodi:rx="56.143108"
     sodipodi:ry="56.143108"
     d="M 82.055313 175.83524 A 56.143108 56.143108 0 1 0 -30.230904,175.83524 A 56.143108 56.143108 0 1 0 82.055313 175.83524 z"
     transform="matrix(1.360832,0.000000,0.000000,0.333420,46.67257,65.25341)" />
  <path
     sodipodi:type="arc"
     style="fill:url(#radialGradient1652);fill-opacity:0.75000000;fill-rule:evenodd;stroke-width:1.0000000pt;"
     id="path933"
     sodipodi:cx="79.559807"
     sodipodi:cy="73.909164"
     sodipodi:rx="67.685204"
     sodipodi:ry="67.685204"
     d="M 147.24501 73.909164 A 67.685204 67.685204 0 1 0 11.874603,73.909164 A 67.685204 67.685204 0 1 0 147.24501 73.909164 z"
     transform="matrix(1.131579,0.000000,0.000000,0.815790,-7.499751,41.52015)" />
  <path
     sodipodi:type="arc"
     style="fill:url(#radialGradient1652);fill-opacity:0.75000000;fill-rule:evenodd;stroke-width:1.0000000pt;"
     id="path1523"
     sodipodi:cx="79.559807"
     sodipodi:cy="73.909164"
     sodipodi:rx="67.685204"
     sodipodi:ry="67.685204"
     d="M 147.24501 73.909164 A 67.685204 67.685204 0 1 0 11.874603,73.909164 A 67.685204 67.685204 0 1 0 147.24501 73.909164 z"
     transform="matrix(0.789473,0.000000,0.000000,0.789473,17.34319,13.77867)" />
  <g
     id="g1641"
     style="fill:url(#radialGradient1779);fill-opacity:0.12578614;"
     transform="matrix(0.484017,0.000000,0.000000,0.364466,-44.93027,-156.8375)">
    <path
       style="fill-rule:evenodd;stroke-width:1.0000000pt;"
       d="M 257.87500,459.56250 C 255.19828,517.42640 251.72318,575.28769 249.54119,633.15321 C 252.63163,701.78963 255.72206,770.42607 258.81250,839.06250 C 260.99874,849.44033 265.12524,839.50539 264.32222,834.00182 C 266.02033,764.33608 268.43651,694.66624 269.68818,625.00303 C 267.54211,569.86663 265.39606,514.73018 263.25000,459.59375 C 260.26525,452.93491 261.09654,452.26806 257.87500,459.56250 z M 138.28125,565.31250 C 125.04934,573.58647 108.75968,583.42086 106.56250,600.34375 C 106.31904,615.84520 121.57947,625.12684 133.81836,631.24972 C 160.58300,643.96933 190.12863,649.36204 219.28125,653.43750 C 222.91667,705.39583 226.55208,757.35417 230.18750,809.31250 C 232.53122,819.76558 236.44198,809.82152 235.67132,804.18868 C 236.98264,744.30294 238.26331,684.41651 239.59375,624.53125 C 205.72279,618.80660 170.43030,621.71777 137.55972,610.78858 C 129.17050,608.54392 118.27055,601.01805 123.09076,591.08491 C 126.83850,580.92449 136.87399,575.26228 142.98802,567.00689 C 147.66048,561.29558 141.53783,565.06654 138.28125,565.31250 z M 375.78125,571.34375 C 383.98761,578.99320 395.12081,587.21272 395.21875,599.46875 C 391.89606,610.88529 377.96591,613.02777 368.07651,615.97387 C 338.40901,622.64370 307.63266,621.37562 277.65625,626.28125 C 279.03257,687.83279 280.36089,749.38551 281.71875,810.93750 C 283.50890,821.50586 287.95286,811.71974 287.44167,806.07462 C 290.95071,755.76852 294.45972,705.46237 297.96875,655.15625 C 330.08677,650.55801 363.05743,644.72615 391.63757,628.59122 C 402.31782,622.37177 414.04562,610.94251 409.81250,597.37500 C 404.63811,582.96630 390.73661,573.90279 377.99728,566.82533 C 370.66190,564.44059 372.50153,565.73841 375.78125,571.34375 z "
       id="path1774" />
    <path
       style="fill-rule:evenodd;stroke-width:1.0000000pt;"
       d="M 258.59375,452.62500 C 252.42729,460.41226 255.68737,471.23174 254.13768,480.41124 C 251.64453,532.35724 248.68385,584.31651 246.97884,636.27821 C 250.10094,704.12853 252.96991,772.01759 256.25000,839.84375 C 256.23575,844.58103 261.89411,849.08788 265.00000,843.96875 C 268.87441,833.55720 266.48517,821.97632 267.63254,811.07120 C 269.29618,747.69026 271.32823,684.29610 272.21944,620.90928 C 269.99230,566.79548 268.24542,512.58451 265.71875,458.53125 C 264.17617,455.92359 261.56780,445.98682 258.59375,452.62500 z M 144.31250,561.21875 C 134.11428,562.46401 126.15659,570.16584 118.20871,576.12944 C 107.61827,584.59179 99.215146,600.24859 107.25563,613.12491 C 117.59311,629.44694 137.26411,635.98671 154.51748,642.35917 C 174.71001,649.05264 195.75446,652.62351 216.75000,655.75000 C 220.40196,707.20372 223.83908,758.69423 227.62500,810.12500 C 227.67061,814.80609 233.43126,819.47210 236.43750,814.21875 C 240.18903,803.75023 237.77282,792.18568 238.84772,781.25552 C 240.01631,728.23290 241.15890,675.20971 242.34375,622.18750 C 205.76326,615.72210 167.21666,619.83636 132.21875,605.71875 C 125.55521,602.86839 122.36804,594.79557 127.12500,588.78125 C 132.78361,579.57292 142.71175,573.81340 147.90625,564.25000 C 146.71642,563.15911 146.46526,560.39439 144.31250,561.21875 z M 371.15625,564.00000 C 368.47448,567.54095 373.37880,572.71437 376.19103,575.35906 C 383.07663,582.03917 393.08286,589.33237 392.06440,599.91460 C 387.17993,610.10937 374.09974,611.12348 364.39846,613.94533 C 334.87899,619.73639 304.58948,619.25829 274.90625,623.90625 C 276.35711,686.46329 277.55497,749.06147 279.12500,811.59375 C 278.91408,816.32374 284.37515,821.20081 287.71875,816.15625 C 292.02320,805.52630 290.17320,793.52078 291.79454,782.30814 C 294.69637,740.69504 297.59818,699.08188 300.50000,657.46875 C 333.17711,652.41272 367.07060,646.73652 395.61168,629.05763 C 407.49581,622.31953 418.17631,607.19415 411.00859,593.51890 C 404.60493,579.58570 390.92592,570.66280 377.75381,563.95629 C 375.81553,563.72064 372.49617,561.68507 371.15625,564.00000 z "
       id="path1775" />
    <path
       style="fill-rule:evenodd;stroke-width:1.0000000pt;"
       d="M 259.59375,447.93750 C 250.77385,454.14204 252.19733,466.63875 251.72184,476.27349 C 249.09900,524.11040 246.89257,571.97245 244.96875,619.84375 C 207.38137,612.90513 167.41247,617.60687 131.63335,602.29806 C 124.68241,598.12943 128.32909,589.67429 133.08596,585.39298 C 139.26567,578.49093 146.39265,572.40836 151.15625,564.31250 C 149.40565,560.52332 146.29838,556.84082 141.82072,558.98915 C 130.03157,562.00430 120.48230,570.60396 111.69151,578.63301 C 101.56652,588.64948 97.017812,606.53775 107.49937,617.94578 C 119.66804,633.57947 139.60406,639.83211 157.61834,646.03619 C 176.04766,651.89532 195.12870,655.20060 214.21875,658.06250 C 218.00421,709.30520 221.08748,760.66656 225.30953,811.83550 C 225.71733,818.76569 236.32544,822.38517 239.03125,814.93750 C 243.09129,801.12592 240.45103,786.48466 241.72831,772.31466 C 242.67305,729.17850 243.61777,686.04239 244.56250,642.90625 C 247.61592,708.78906 250.49234,774.69268 253.65625,840.56250 C 253.63574,847.54112 263.63205,852.42070 267.40625,845.28125 C 271.85690,831.36947 269.20835,816.47532 270.55797,802.12835 C 271.58050,762.84649 272.84787,723.57049 273.56250,684.28125 C 274.70206,727.23043 275.16440,770.26746 276.72355,813.16219 C 276.72876,820.15522 287.15815,824.27439 290.28125,817.00000 C 295.05471,802.71990 293.20936,787.29436 295.16479,772.52425 C 297.78695,734.94323 300.40910,697.36225 303.03125,659.78125 C 337.72707,654.23121 374.22429,648.03374 403.25372,626.86885 C 414.18656,618.40165 420.39741,601.90401 411.94191,589.61443 C 404.34623,576.02408 390.47510,566.82526 376.50446,560.86180 C 369.99782,557.53693 365.01270,566.22648 369.25000,571.34375 C 375.42037,580.93124 389.12352,586.43338 389.34375,599.12500 C 382.94464,609.14805 369.45631,609.42442 359.00932,612.12568 C 331.24707,616.82192 302.82583,617.06961 274.90625,621.21875 C 272.75079,566.61374 270.94503,511.89284 268.15625,457.37500 C 266.16965,454.16945 264.71682,446.32361 259.59375,447.93750 z "
       id="path1633" />
  </g>
  <path
     style="fill:#df421e;fill-rule:evenodd;stroke-width:1.0000000pt;"
     d="M 81.619493,2.1085751 L 77.505483,72.533621 L 82.074919,158.90152 L 84.822652,72.146031 L 81.619493,2.1085751 z M 22.899972,46.720148 C -17.613568,66.802354 34.942178,78.628032 62.795241,81.241469 L 68.169261,146.57617 L 70.097229,71.202896 C 55.335644,68.406062 -12.118387,71.524879 22.899972,46.720148 z M 138.45658,47.443649 C 173.47494,72.248380 106.02092,69.129562 91.259333,71.926397 L 93.202481,147.29967 L 98.561321,81.952050 C 126.41440,79.338613 178.97014,67.525855 138.45658,47.443649 z "
     id="path1777" />
  <text
     xml:space="preserve"
     style="fill:black;fill-opacity:1;stroke:none;font-family:Bitstream Vera Sans;font-style:normal;font-weight:normal;font-size:12px;stroke-opacity:1;stroke-width:1pt;stroke-linejoin:miter;stroke-linecap:butt;"
     x="4.1983043"
     y="186.02949"
     id="text2009"><tspan
       id="tspan2010">Quake Everything</tspan></text>
</svg>
