<?xml version="1.0" encoding="UTF-8" standalone="no"?>
<!DOCTYPE svg PUBLIC "-//W3C//DTD SVG 20010904//EN"
"http://www.w3.org/TR/2001/REC-SVG-20010904/DTD/svg10.dtd">
<!-- Created with Inkscape (http://www.inkscape.org/) -->
<svg
   id="svg1"
   sodipodi:version="0.32"
   inkscape:version="0.39cvs"
   width="128.00000pt"
   height="128.00000pt"
   sodipodi:docbase="/home/andy/Desktop/etiquette-icons-0.5/scalable/apps"
   sodipodi:docname="web-browser.svg"
   xmlns="http://www.w3.org/2000/svg"
   xmlns:inkscape="http://www.inkscape.org/namespaces/inkscape"
   xmlns:sodipodi="http://sodipodi.sourceforge.net/DTD/sodipodi-0.dtd"
   xmlns:xml="http://www.w3.org/XML/1998/namespace"
   xmlns:xlink="http://www.w3.org/1999/xlink">
  <defs
     id="defs3">
    <linearGradient
       id="linearGradient1501">
      <stop
         style="stop-color:#ffffff;stop-opacity:1.0000000;"
         offset="0.0000000"
         id="stop1502" />
      <stop
         style="stop-color:#ffffff;stop-opacity:0.0000000;"
         offset="1.0000000"
         id="stop1504" />
    </linearGradient>
    <linearGradient
       xlink:href="#linearGradient1501"
       id="linearGradient1530"
       x1="0.40784314"
       y1="-0.23214285"
       x2="0.70588237"
       y2="0.65178573" />
    <linearGradient
       xlink:href="#linearGradient865"
       id="linearGradient1011"
       x1="0.51162791"
       y1="1.7170019"
       x2="0.51162791"
       y2="0.48507461" />
    <linearGradient
       xlink:href="#linearGradient865"
       id="linearGradient1010"
       x1="0.42241380"
       y1="-0.35119733"
       x2="0.37790698"
       y2="0.58955216" />
    <linearGradient
       xlink:href="#linearGradient865"
       id="linearGradient864"
       y2="0.27586207"
       x2="0.35915494"
       y1="-0.060344826"
       x1="0.72887325" />
    <linearGradient
       id="linearGradient865">
      <stop
         style="stop-color:#ffffff;stop-opacity:1.0000000;"
         offset="0.00000000"
         id="stop866" />
      <stop
         style="stop-color:#ffffff;stop-opacity:0.00000000;"
         offset="1.0000000"
         id="stop868" />
    </linearGradient>
    <linearGradient
       xlink:href="#linearGradient865"
       id="linearGradient870"
       x1="-0.038732372"
       y1="1.1760001"
       x2="0.50352114"
       y2="0.57600003" />
    <linearGradient
       id="linearGradient853">
      <stop
         style="stop-color:#e3f9ff;stop-opacity:1.0000000;"
         offset="0.0000000"
         id="stop854" />
      <stop
         style="stop-color:#73bee7;stop-opacity:1.0000000;"
         offset="0.36194703"
         id="stop867" />
      <stop
         style="stop-color:#438ec5;stop-opacity:1.0000000;"
         offset="0.62534887"
         id="stop856" />
      <stop
         style="stop-color:#477daf;stop-opacity:1.0000000;"
         offset="0.72607356"
         id="stop1185" />
      <stop
         style="stop-color:#020407;stop-opacity:1.0000000;"
         offset="1.0000000"
         id="stop855" />
    </linearGradient>
    <radialGradient
       xlink:href="#linearGradient853"
       id="radialGradient852"
       cx="0.50704223"
       cy="0.57042253"
       r="0.58099657"
       fx="0.54577458"
       fy="0.13028193" />
    <linearGradient
       id="linearGradient1400">
      <stop
         style="stop-color:#000000;stop-opacity:0.67843139;"
         offset="0.0000000"
         id="stop1401" />
      <stop
         style="stop-color:#000000;stop-opacity:0.32941177;"
         offset="0.56999999"
         id="stop1403" />
      <stop
         style="stop-color:#000000;stop-opacity:0.00000000;"
         offset="1.0000000"
         id="stop1402" />
    </linearGradient>
    <linearGradient
       id="linearGradient899">
      <stop
         style="stop-color:#ffffff;stop-opacity:0.0000000;"
         offset="0.0000000"
         id="stop900" />
      <stop
         style="stop-color:#ffffff;stop-opacity:1.0000000;"
         offset="1.0000000"
         id="stop901" />
    </linearGradient>
    <linearGradient
       id="linearGradient883">
      <stop
         style="stop-color:#1f1f1f;stop-opacity:0.55371898;"
         offset="0.0000000"
         id="stop884" />
      <stop
         style="stop-color:#000000;stop-opacity:0.0000000;"
         offset="1.0000000"
         id="stop885" />
    </linearGradient>
    <linearGradient
       id="linearGradient878">
      <stop
         style="stop-color:#1f1f1f;stop-opacity:1.0000000;"
         offset="0.0000000"
         id="stop879" />
      <stop
         style="stop-color:#000000;stop-opacity:0.0000000;"
         offset="1.0000000"
         id="stop881" />
    </linearGradient>
    <linearGradient
       id="linearGradient839">
      <stop
         style="stop-color:#4f4f4f;stop-opacity:1.0000000;"
         offset="0.0000000"
         id="stop840" />
      <stop
         style="stop-color:#bebebe;stop-opacity:1.0000000;"
         offset="0.27444443"
         id="stop843" />
      <stop
         style="stop-color:#fff;stop-opacity:1;"
         offset="1"
         id="stop841" />
    </linearGradient>
    <linearGradient
       xlink:href="#linearGradient1400"
       id="linearGradient842"
       x1="0.98876405"
       y1="4.0156250"
       x2="0.52808988"
       y2="-0.070312500" />
    <linearGradient
       xlink:href="#linearGradient899"
       id="linearGradient848"
       x1="0.32825556"
       y1="0.16153494"
       x2="0.33669540"
       y2="1.3926498" />
    <linearGradient
       xlink:href="#linearGradient839"
       id="linearGradient849"
       x1="0.93772894"
       y1="0.83121020"
       x2="0.35897437"
       y2="0.092356689" />
    <linearGradient
       xlink:href="#linearGradient883"
       id="linearGradient850"
       x1="1.8869566"
       y1="0.34090909"
       x2="0.70434785"
       y2="0.41287878" />
    <linearGradient
       xlink:href="#linearGradient1400"
       id="linearGradient860"
       x1="0.99722022"
       y1="4.0796266"
       x2="0.52828526"
       y2="-0.079579733"
       gradientTransform="scale(1.001713,0.998290)" />
    <linearGradient
       xlink:href="#linearGradient1400"
       id="linearGradient882"
       x1="1.0056623"
       y1="4.1504908"
       x2="0.52750582"
       y2="-0.090505704"
       gradientTransform="scale(1.003764,0.996250)" />
    <linearGradient
       xlink:href="#linearGradient883"
       id="linearGradient938" />
    <linearGradient
       xlink:href="#linearGradient883"
       id="linearGradient1259"
       x1="0.92114639"
       y1="4.0513387"
       x2="0.47915608"
       y2="0.070798859"
       gradientTransform="scale(0.993849,1.006190)" />
    <linearGradient
       xlink:href="#linearGradient883"
       id="linearGradient1260"
       x1="0.92504448"
       y1="4.0943632"
       x2="0.47776312"
       y2="0.066172279"
       gradientTransform="scale(0.995510,1.004510)" />
    <radialGradient
       xlink:href="#linearGradient1400"
       id="radialGradient858"
       cx="0.50000000"
       cy="0.50000000"
       r="0.50000000"
       fx="0.50980395"
       fy="0.82539684" />
  </defs>
  <sodipodi:namedview
     id="base"
     pagecolor="#ffffff"
     bordercolor="#666666"
     borderopacity="1.0"
     inkscape:pageopacity="0.0"
     inkscape:pageshadow="2"
     inkscape:zoom="1.6650334"
     inkscape:cx="65.626568"
     inkscape:cy="61.560675"
     inkscape:window-width="369"
     inkscape:window-height="491"
     showguides="true"
     snaptoguides="true"
     inkscape:window-x="336"
     inkscape:window-y="126"
     showborder="true" />
  <path
     sodipodi:type="arc"
     style="fill:url(#radialGradient858);fill-opacity:0.75000000;fill-rule:evenodd;stroke-width:1.0000000pt;"
     id="path1399"
     sodipodi:cx="79.895966"
     sodipodi:cy="77.944687"
     sodipodi:rx="68.379425"
     sodipodi:ry="68.379425"
     d="M 148.27539 77.944687 A 68.379425 68.379425 0 1 0 11.516541,77.944687 A 68.379425 68.379425 0 1 0 148.27539 77.944687 z"
     transform="matrix(1.160468,0.000000,0.000000,0.570123,-14.63238,64.79912)" />
  <path
     sodipodi:type="arc"
     style="fill:url(#radialGradient852);fill-opacity:0.75000000;fill-rule:evenodd;stroke-width:1.0000000pt;"
     id="path825"
     sodipodi:cx="224.57243"
     sodipodi:cy="453.50235"
     sodipodi:rx="172.74803"
     sodipodi:ry="172.74803"
     d="M 397.32047 453.50235 A 172.74803 172.74803 0 1 0 51.824402,453.50235 A 172.74803 172.74803 0 1 0 397.32047 453.50235 z"
     transform="matrix(0.390341,0.000000,0.000000,0.390341,-9.911975,-102.6166)" />
  <path
     style="fill:#0e7a0c;fill-opacity:0.59375000;fill-rule:evenodd;stroke-width:1.0000000pt;"
     d="M 89.651296,116.37203 C 80.763270,115.33894 80.674874,100.29677 89.505314,99.079034 C 95.053427,102.20094 100.20706,89.027284 103.03772,94.283245 C 100.69955,104.24084 113.40296,101.98535 115.82913,94.337011 C 119.43659,88.165265 117.62911,99.668227 119.01248,102.11590 C 122.24114,110.04513 112.24698,121.12537 104.87849,114.42100 C 99.609104,109.73925 94.774202,114.71649 89.651296,116.37203 z M 108.24393,121.84817 C 109.13488,125.29141 110.94715,125.60095 112.13006,121.97086 C 113.31298,118.53206 108.86874,119.17012 108.24393,121.84817 L 108.24393,121.84817 z M 40.956762,38.460804 C 33.614374,45.736154 31.443893,56.238150 29.002414,65.887906 C 30.815885,72.697982 36.287293,79.635613 29.985502,85.856199 C 25.956640,94.611576 12.988802,89.102683 16.220167,80.198466 C 16.056471,69.650501 14.765020,58.478836 19.833906,48.768209 C 22.610481,42.593775 27.865650,35.161545 35.454479,35.868166 C 37.457199,36.313288 39.234417,37.392884 40.956762,38.460804 z M 57.188271,62.808062 C 56.667373,54.345008 65.910533,55.069341 63.826011,44.959020 C 63.470901,36.380150 45.569161,40.654349 50.812542,30.421023 C 55.693192,22.772639 55.111188,18.846782 67.329110,16.873090 C 79.547034,14.358347 92.618615,11.417583 113.16924,26.574756 C 133.17881,41.731931 96.527260,29.712264 92.132289,35.274705 C 85.074896,41.219393 88.256111,54.231843 80.024119,56.962136 C 72.909602,61.522485 73.475775,70.951741 72.287872,78.341598 C 73.703548,84.397506 92.442939,80.097738 83.680417,88.406004 C 74.770453,90.666728 68.797538,81.696181 62.602356,76.964399 C 59.464050,73.996911 57.709167,70.730070 57.188271,62.808062 z M 118.86801,50.363912 C 126.43484,49.879057 129.53969,58.561062 128.87339,64.861787 C 124.75055,71.735649 133.82499,78.137794 138.31008,71.074635 C 143.14522,62.533379 135.25796,51.845364 127.87325,47.321810 C 124.60760,44.428986 118.17447,44.823786 118.86801,50.363912 z M 44.203063,122.86466 C 53.708452,122.72111 63.302512,120.56306 72.749518,122.54850 C 76.434911,127.50103 86.826879,130.96391 86.965642,136.14158 C 79.628875,141.27142 70.101172,136.45350 62.439099,134.46548 C 56.355797,132.62112 47.710613,133.90080 44.567263,127.06161 C 44.124386,125.72177 43.894193,124.26453 44.203063,122.86466 z "
     id="path846"
     sodipodi:nodetypes="ccczcccczzzcccccccccczzccccczccccccccccc" />
  <path
     style="fill:url(#linearGradient870);fill-opacity:0.75000000;fill-rule:evenodd;stroke-width:1.0000000pt;"
     d="M 110.23661,128.58177 C 83.906485,160.20082 -3.6754268,128.17493 16.619634,65.528121 C 33.791459,43.721886 69.902134,59.610128 110.23661,128.58177 z "
     id="path869"
     sodipodi:nodetypes="ccc" />
  <path
     style="fill:url(#linearGradient864);fill-opacity:0.75000000;fill-rule:evenodd;stroke-width:1.0000000pt;"
     d="M 60.668962,17.005249 C 90.185048,-0.98313495 150.23497,25.626919 141.43018,75.748198 C 129.50998,91.641787 107.92414,10.375127 60.668962,17.005249 z "
     id="path863"
     sodipodi:nodetypes="ccc" />
  <path
     sodipodi:type="arc"
     style="fill:url(#linearGradient1010);fill-opacity:0.75000000;fill-rule:evenodd;stroke-width:1.0000000pt;"
     id="path868"
     sodipodi:cx="51.104626"
     sodipodi:cy="31.158760"
     sodipodi:rx="49.665058"
     sodipodi:ry="49.665058"
     d="M 100.76968 31.158760 A 49.665058 49.665058 0 1 0 1.4395676,31.158760 A 49.665058 49.665058 0 1 0 100.76968 31.158760 z"
     transform="matrix(0.975466,0.000000,0.000000,0.655916,29.01714,20.70291)" />
  <g
     id="g1705"
     transform="matrix(1.382640,0.000000,0.000000,1.230294,214.4606,-131.4619)">
    <path
       style="fill:url(#linearGradient882);fill-opacity:0.059071723;fill-rule:evenodd;stroke-width:7.1250000;"
       d="M -125.94565,117.93048 L -127.07065,117.99298 C -127.07065,117.99298 -126.68546,122.08776 -123.10190,127.49298 C -119.51833,132.89821 -115.75432,137.60978 -100.25815,142.61798 L -99.445648,141.68048 C -111.63381,137.84347 -119.01185,131.82749 -122.32065,126.83673 C -125.62945,121.84597 -125.94565,117.93048 -125.94565,117.93048 z M -80.351898,128.93048 C -84.203256,128.98851 -87.757024,130.37769 -90.945648,132.64923 C -95.197148,135.67795 -98.815378,140.25058 -101.88315,145.52423 C -104.67418,150.32214 -106.98431,155.74455 -108.91440,161.11798 C -114.26646,159.34121 -119.65087,158.45584 -123.03940,159.46173 C -130.42116,161.78720 -142.19615,199.32396 -145.35190,205.86798 C -146.44014,208.47497 -146.55636,212.13392 -145.82065,215.77423 C -144.87225,221.42112 -141.76415,227.16810 -136.53940,228.96173 C -127.58294,232.66783 -115.17787,228.16922 -111.22690,221.27423 C -107.32648,214.05829 -90.366758,179.77609 -92.008148,173.02423 C -92.041438,172.91053 -92.183048,172.79520 -92.226898,172.68048 C -92.242468,172.57801 -92.173208,172.36655 -92.195648,172.27423 C -93.255018,168.65652 -99.740198,164.54864 -106.78940,161.86798 C -105.10237,156.36907 -103.02320,150.87510 -100.38315,146.33673 C -97.420108,141.24312 -94.057038,136.30630 -90.195648,133.55548 C -83.807065,127.93285 -71.523783,130.18517 -74.195648,129.68048 C -75.540025,129.39022 -79.068122,128.91115 -80.351898,128.93048 z M -71.664398,132.99298 C -71.810178,132.99825 -71.798284,133.07925 -71.539398,133.24298 C -70.503868,133.89792 -70.186848,134.46411 -70.133148,134.99298 C -70.079457,135.52185 -70.322618,136.22336 -71.008148,137.05548 C -71.693677,137.88762 -72.801535,138.80597 -74.195648,139.64923 C -79.772109,143.02232 -90.497808,145.02030 -97.320648,142.46173 L -97.883148,143.36798 C -90.002298,146.32330 -79.674890,144.52325 -73.476898,140.77423 C -71.927397,139.83697 -69.006718,137.38194 -69.258148,135.11798 C -69.446728,133.67847 -71.227076,132.97717 -71.664398,132.99298 z "
       id="path1092" />
    <path
       style="fill:url(#linearGradient860);fill-opacity:0.059071723;fill-rule:evenodd;stroke-width:7.1250000;"
       d="M -127.21875,117.00000 C -129.15592,118.78508 -126.84980,121.88279 -126.11251,123.96902 C -122.26486,132.75628 -114.14186,138.96617 -105.11961,141.77057 C -100.16536,142.23771 -102.32048,145.24134 -104.21339,148.15143 C -106.51032,151.82554 -107.78797,155.98995 -109.53125,159.93750 C -114.68482,158.96465 -120.96969,156.23082 -125.59375,160.03125 C -133.47738,169.84302 -136.88494,182.19765 -141.74638,193.62655 C -144.10767,200.56599 -148.33755,207.57783 -146.83721,215.12837 C -145.93518,221.97498 -141.71465,229.25857 -134.40766,230.58344 C -123.92068,233.18813 -111.61179,227.64425 -108.04955,217.09323 C -101.55989,203.67644 -94.622240,190.24614 -91.031250,175.71875 C -90.261177,170.49492 -94.733719,167.06565 -98.728011,164.74796 C -100.45889,162.81975 -105.38224,162.81756 -105.16975,160.35194 C -103.13280,154.85620 -101.23684,149.22397 -97.750000,144.43750 C -89.277214,146.82903 -79.832160,145.68297 -72.302459,141.13616 C -69.488768,139.53294 -66.535521,134.96721 -70.000000,132.56250 C -73.751270,130.31946 -72.523561,133.29167 -71.593750,135.75000 C -76.820340,141.64082 -85.522665,142.80121 -92.978285,142.22130 C -97.980525,142.69969 -94.501029,139.20926 -92.656350,137.26802 C -88.429954,132.24658 -81.783724,130.51015 -75.437500,130.68750 C -71.134279,130.95021 -74.388581,127.40032 -77.110076,128.24865 C -85.937403,126.94432 -94.263195,132.44779 -98.931919,139.62072 C -100.87687,141.46478 -104.26248,137.94759 -106.78125,137.65625 C -114.95246,133.65320 -123.20482,127.35341 -124.87500,117.84375 C -125.41337,116.93342 -126.24299,116.71414 -127.21875,117.00000 z "
       id="path1697" />
    <path
       style="fill:url(#linearGradient842);fill-opacity:0.059071723;fill-rule:evenodd;stroke-width:7.1250000;"
       d="M -126.00000,115.96875 C -130.11835,116.00758 -128.98772,121.31818 -127.31315,123.56962 C -123.46561,132.49426 -115.55469,139.11349 -106.50307,142.35213 C -102.72268,142.76539 -103.37028,145.66975 -105.20748,147.98551 C -107.08571,151.15513 -108.47724,154.49195 -109.78125,157.90625 C -112.29834,159.33639 -115.43435,156.99742 -118.27483,157.24199 C -122.34037,156.71612 -126.82264,158.43463 -128.38763,162.51364 C -136.72665,174.90330 -140.72950,189.51667 -146.50000,203.15625 C -148.81425,210.46095 -148.44356,219.06102 -143.70381,225.30925 C -139.20782,232.04311 -129.93185,233.29854 -122.61680,231.28435 C -114.88091,229.32852 -108.76876,223.17310 -106.25382,215.66808 C -100.15545,202.31647 -92.946064,189.10972 -90.099062,174.64439 C -90.201238,168.52524 -96.214940,164.77569 -101.07580,162.29276 C -104.54289,161.85464 -103.89315,158.34677 -102.46007,156.20433 C -101.16418,152.43139 -99.323681,148.94174 -97.218750,145.56250 C -88.849119,147.39011 -79.786274,146.48629 -72.320990,142.14334 C -68.662850,140.70661 -65.666091,134.96162 -69.175339,132.02540 C -71.527113,131.20670 -72.694393,130.64504 -73.312500,128.18750 C -79.102766,125.69644 -85.914029,127.64394 -91.129650,130.68241 C -94.792643,132.62069 -96.941065,136.38422 -100.06250,138.81250 C -106.38850,137.72148 -111.95850,133.66410 -116.78064,129.61843 C -120.56368,126.24950 -122.63536,121.60121 -124.32461,116.98555 C -124.61962,116.47357 -125.45355,115.96356 -126.00000,115.96875 z M -72.812500,131.21875 C -73.594120,133.50736 -72.285488,136.57050 -75.541160,137.42327 C -80.826072,141.18822 -87.748408,141.54685 -94.031250,141.03125 C -90.605360,134.88839 -83.546275,131.81792 -76.713880,131.67229 C -75.413253,131.52442 -74.113857,131.35409 -72.812500,131.21875 z "
       id="path1702" />
  </g>
  <path
     sodipodi:type="arc"
     style="fill:url(#linearGradient1011);fill-opacity:0.75000000;fill-rule:evenodd;stroke-width:1.0000000pt;"
     id="path884"
     sodipodi:cx="51.104626"
     sodipodi:cy="31.158760"
     sodipodi:rx="49.665058"
     sodipodi:ry="49.665058"
     d="M 100.76968 31.158760 A 49.665058 49.665058 0 1 0 1.4395676,31.158760 A 49.665058 49.665058 0 1 0 100.76968 31.158760 z"
     transform="matrix(1.017512,0.000000,0.000000,0.798873,27.28603,75.55383)" />
  <path
     style="fill:#e7e7e7;fill-rule:evenodd;stroke-width:7.1250000;"
     d="M 40.915760,17.310583 C 45.870548,24.784055 52.914424,33.251230 74.340051,40.175768 L 75.445336,38.904001 C 58.593510,33.598798 47.199190,23.537370 42.624315,16.636946 L 40.915760,17.310583 z M 101.87427,21.277778 C 96.549248,21.357997 91.622887,23.267409 87.214169,26.408131 C 81.335871,30.595759 76.326774,36.921088 72.085156,44.212647 C 63.601897,58.795763 57.795732,77.483827 55.542303,90.682534 L 59.135564,92.893582 C 61.329296,80.044544 65.946410,59.428791 74.140049,45.343534 C 78.236870,38.300907 82.909603,31.452734 88.248512,27.649340 C 97.081620,19.875268 115.49135,23.328730 111.79712,22.630925 C 109.93833,22.229600 107.52951,20.807596 101.87427,21.277778 z M 111.44746,22.788878 C 113.01973,23.350478 112.47812,23.620895 114.25990,25.350923 C 116.04166,27.080951 115.89470,28.931628 115.96894,29.662865 C 116.04318,30.394101 115.71695,31.353336 114.76911,32.503858 C 113.82127,33.654395 112.29726,34.909873 110.36969,36.075798 C 102.65945,40.739552 87.829145,43.499550 78.395617,39.961969 L 77.607528,41.241588 C 88.503913,45.327732 102.79308,42.831555 111.36267,37.648011 C 113.50507,36.352118 117.54401,32.958608 117.19637,29.828367 C 116.60303,25.399025 114.49113,22.988739 111.44746,22.788878 z "
     id="path852"
     sodipodi:nodetypes="ccccccccccccccczcccccccc" />
  <path
     style="fill:#ffffff;fill-rule:evenodd;stroke-width:1.0000000pt;"
     d="M 43.125923,64.335421 C 54.663523,61.360409 83.078168,71.679053 85.791377,79.727331 C 88.060843,87.836320 64.617734,128.98030 59.224855,137.64664 C 53.762088,145.92751 36.627414,151.35238 24.243859,146.90136 C 12.685549,143.45474 8.5640690,127.81770 12.299752,120.04420 C 16.663008,112.18484 32.919611,67.128298 43.125923,64.335421 z "
     id="path965"
     sodipodi:nodetypes="czzzzz" />
  <path
     style="fill:url(#linearGradient849);fill-opacity:0.75000000;fill-rule:evenodd;stroke-width:1.0000000pt;"
     d="M 43.052885,64.386878 C 54.590485,61.411870 83.005126,71.730515 85.718346,79.778791 C 87.987806,87.887774 64.544697,129.03175 59.151818,137.69810 C 53.689049,145.97897 36.554377,151.40385 24.170820,146.95281 C 12.612512,143.50620 8.4910310,127.86917 12.226714,120.09566 C 16.589970,112.23631 32.846574,67.179766 43.052885,64.386878 z "
     id="path829"
     sodipodi:nodetypes="czzzzz" />
  <path
     style="fill:url(#linearGradient850);fill-opacity:0.75000000;fill-rule:evenodd;stroke-width:1.0000000pt;"
     d="M 42.825531,63.386745 C 54.363131,60.555898 82.777772,70.374534 85.490992,78.032815 C 87.760453,85.748860 64.317342,124.89912 58.924464,133.14553 C 53.461695,141.02513 36.327024,146.18715 23.943466,141.95179 C 12.385153,138.67219 8.2636737,123.79288 11.999357,116.39607 C 16.362618,108.91752 32.619221,66.044300 42.825531,63.386745 z "
     id="path886"
     sodipodi:nodetypes="czzzzz" />
  <path
     style="fill-opacity:0.58649790;fill-rule:evenodd;stroke-width:1.0000000pt;"
     d="M 67.003624,68.313979 C 61.417220,75.548169 57.652854,86.709650 57.466047,87.203017 C 50.514498,84.500669 40.018635,81.538650 31.338899,80.105064 L 31.243328,80.615055 C 52.363368,84.103349 72.156782,93.234935 79.199668,100.85166 L 79.617804,100.51604 C 75.433597,95.990913 67.759724,91.272895 57.960674,87.404260 C 58.128755,86.960438 61.905362,75.788216 67.445154,68.614393 L 67.003624,68.313979 z "
     id="path897"
     sodipodi:nodetypes="ccccccccc" />
  <path
     style="fill:url(#linearGradient848);fill-rule:evenodd;stroke-width:1.0000000pt;"
     d="M 41.994181,100.70978 C 33.129953,98.376590 15.099816,116.13078 12.737591,123.71676 C 10.160778,131.32451 24.538984,147.61224 51.423002,135.86963 C 64.543133,130.03093 72.403068,114.57598 67.797993,107.54502 C 63.192917,100.51407 46.122830,101.90713 41.994181,100.70978 z "
     id="path898"
     sodipodi:nodetypes="czzsz" />
  <text
     xml:space="preserve"
     style="fill:black;fill-opacity:1;stroke:none;font-family:helvetica;font-style:normal;font-weight:normal;font-size:12px;stroke-opacity:1;stroke-width:1pt;stroke-linejoin:miter;stroke-linecap:butt;"
     x="2.9016126"
     y="-14.947952"
     id="text1232"><tspan
       id="tspan1233">Web Browser</tspan></text>
  <text
     xml:space="preserve"
     style="fill:black;fill-opacity:1;stroke:none;font-family:helvetica;font-style:normal;font-weight:normal;font-size:12px;stroke-opacity:1;stroke-width:1pt;stroke-linejoin:miter;stroke-linecap:butt;"
     x="30.568256"
     y="-39.032092"
     id="text1235"
     transform="scale(0.246729,0.246729)"><tspan
       id="tspan1236">Created by Andrew Fitzsimon</tspan></text>
</svg>
