<?xml version="1.0" encoding="UTF-8" standalone="no"?>
<!DOCTYPE svg PUBLIC "-//W3C//DTD SVG 20010904//EN"
"http://www.w3.org/TR/2001/REC-SVG-20010904/DTD/svg10.dtd">
<!-- Created with Inkscape (http://www.inkscape.org/) -->
<svg
   id="svg1858"
   sodipodi:version="0.32"
   inkscape:version="0.39cvs"
   width="128.00000pt"
   height="128.00000pt"
   sodipodi:docbase="/home/andy/Desktop/etiquette-icons-0.4/scalable/apps"
   sodipodi:docname="wine.svg"
   xmlns="http://www.w3.org/2000/svg"
   xmlns:inkscape="http://www.inkscape.org/namespaces/inkscape"
   xmlns:sodipodi="http://sodipodi.sourceforge.net/DTD/sodipodi-0.dtd"
   xmlns:xml="http://www.w3.org/XML/1998/namespace"
   xmlns:xlink="http://www.w3.org/1999/xlink">
  <defs
     id="defs1860">
    <linearGradient
       id="linearGradient1990">
      <stop
         style="stop-color:#000000;stop-opacity:0.0000000;"
         offset="0.0000000"
         id="stop1991" />
      <stop
         style="stop-color:#000000;stop-opacity:0.11299435;"
         offset="0.50000000"
         id="stop1992" />
      <stop
         style="stop-color:#000000;stop-opacity:0.0000000;"
         offset="1.0000000"
         id="stop1993" />
    </linearGradient>
    <linearGradient
       id="linearGradient1982">
      <stop
         style="stop-color:#ffffff;stop-opacity:1.0000000;"
         offset="0.0000000"
         id="stop1983" />
      <stop
         style="stop-color:#ffffff;stop-opacity:0.078431375;"
         offset="0.60111111"
         id="stop1984" />
      <stop
         style="stop-color:#ffffff;stop-opacity:0.0000000;"
         offset="1.0000000"
         id="stop1985" />
    </linearGradient>
    <linearGradient
       id="linearGradient1954">
      <stop
         style="stop-color:#ffffff;stop-opacity:0.78431374;"
         offset="0.0000000"
         id="stop1955" />
      <stop
         style="stop-color:#990000;stop-opacity:0.0000000;"
         offset="0.81000000"
         id="stop3697" />
      <stop
         style="stop-color:#ffffff;stop-opacity:0.0000000;"
         offset="1.0000000"
         id="stop1957" />
    </linearGradient>
    <linearGradient
       id="linearGradient1806">
      <stop
         style="stop-color:#000000;stop-opacity:0.40677965;"
         offset="0.0000000"
         id="stop1807" />
      <stop
         style="stop-color:#000000;stop-opacity:0.073446326;"
         offset="0.64777780"
         id="stop3276" />
      <stop
         style="stop-color:#000000;stop-opacity:0.0000000;"
         offset="1.0000000"
         id="stop1808" />
    </linearGradient>
    <linearGradient
       id="linearGradient1918">
      <stop
         style="stop-color:#000000;stop-opacity:0.31638417;"
         offset="0.0000000"
         id="stop1919" />
      <stop
         style="stop-color:#000000;stop-opacity:0.079096042;"
         offset="0.50000000"
         id="stop1920" />
      <stop
         style="stop-color:#000000;stop-opacity:0.0000000;"
         offset="1.0000000"
         id="stop1921" />
    </linearGradient>
    <linearGradient
       id="linearGradient1908">
      <stop
         style="stop-color:#884631;stop-opacity:1.0000000;"
         offset="0.0000000"
         id="stop1909" />
      <stop
         style="stop-color:#df421e;stop-opacity:1.0000000;"
         offset="0.62500000"
         id="stop3698" />
      <stop
         style="stop-color:#efa08e;stop-opacity:1.0000000;"
         offset="0.81250000"
         id="stop3699" />
      <stop
         style="stop-color:#fff;stop-opacity:1;"
         offset="1"
         id="stop1910" />
    </linearGradient>
    <pattern
       width="48.000000"
       height="48.000000"
       id="pattern1864">
      <image
         xlink:href="/usr/share/icons/hicolor/48x48/apps/gnome-starthere.png"
         sodipodi:absref="/usr/share/icons/hicolor/48x48/apps/gnome-starthere.png"
         width="48.000000"
         height="48.000000"
         id="image1865" />
    </pattern>
    <pattern
       width="48.000000"
       height="48.000000"
       id="pattern1873">
      <image
         xlink:href="/usr/share/icons/hicolor/48x48/apps/im-jabber.png"
         sodipodi:absref="/usr/share/icons/hicolor/48x48/apps/im-jabber.png"
         width="48.000000"
         height="48.000000"
         id="image1874" />
    </pattern>
    <pattern
       width="48.000000"
       height="48.000000"
       id="pattern1882">
      <image
         xlink:href="/usr/share/icons/hicolor/48x48/apps/ooo_web.xpm"
         sodipodi:absref="/usr/share/icons/hicolor/48x48/apps/ooo_web.xpm"
         width="48.000000"
         height="48.000000"
         id="image1883" />
    </pattern>
    <pattern
       width="48.000000"
       height="48.000000"
       id="pattern1891">
      <image
         xlink:href="/usr/share/icons/hicolor/48x48/apps/wallpaper.png"
         sodipodi:absref="/usr/share/icons/hicolor/48x48/apps/wallpaper.png"
         width="48.000000"
         height="48.000000"
         id="image1892" />
    </pattern>
    <pattern
       width="48.000000"
       height="48.000000"
       id="pattern1900">
      <image
         xlink:href="/usr/share/icons/hicolor/48x48/apps/wine.png"
         sodipodi:absref="/usr/share/icons/hicolor/48x48/apps/wine.png"
         width="48.000000"
         height="48.000000"
         id="image1901" />
    </pattern>
    <linearGradient
       xlink:href="#linearGradient1908"
       id="linearGradient1911"
       x1="0.75690609"
       y1="0.54687500"
       x2="-0.62430942"
       y2="-0.67968750" />
    <linearGradient
       xlink:href="#linearGradient1918"
       id="linearGradient1912"
       x1="-9.8228717e-17"
       y1="0.50000000"
       x2="1.0000000"
       y2="0.50000000" />
    <linearGradient
       xlink:href="#linearGradient1908"
       id="linearGradient1915"
       x1="0.42424244"
       y1="0.37500000"
       x2="-0.61818182"
       y2="-0.62500000" />
    <linearGradient
       xlink:href="#linearGradient1918"
       id="linearGradient1922"
       x1="0.72649574"
       y1="0.77343750"
       x2="-0.49565217"
       y2="0.078125000" />
    <linearGradient
       xlink:href="#linearGradient1982"
       id="linearGradient1925"
       x1="0.85123968"
       y1="0.27343750"
       x2="0.43801653"
       y2="0.52343750" />
    <linearGradient
       xlink:href="#linearGradient1990"
       id="linearGradient1927"
       x1="0.22047244"
       y1="0.093750000"
       x2="0.81102359"
       y2="0.75781250" />
    <radialGradient
       xlink:href="#linearGradient1918"
       id="radialGradient1502"
       cx="0.50000000"
       cy="0.50000000"
       r="0.50000000"
       fx="0.21951219"
       fy="0.25000000" />
    <radialGradient
       xlink:href="#linearGradient1918"
       id="radialGradient1937"
       cx="0.50000000"
       cy="0.50000000"
       r="0.50000000"
       fx="0.67944252"
       fy="0.46875000" />
    <radialGradient
       xlink:href="#linearGradient1918"
       id="radialGradient1941"
       cx="0.84898806"
       cy="0.41226101"
       r="0.42322907"
       fx="0.56333953"
       fy="0.18582444" />
    <radialGradient
       xlink:href="#linearGradient1954"
       id="radialGradient1953"
       cx="0.50000000"
       cy="0.50000000"
       r="0.50000000"
       fx="0.27526131"
       fy="0.47222221" />
    <pattern
       width="48.000000"
       height="48.000000"
       id="pattern1961">
      <image
         xlink:href="/usr/share/icons/hicolor/48x48/apps/wine.png"
         sodipodi:absref="/usr/share/icons/hicolor/48x48/apps/wine.png"
         width="48.000000"
         height="48.000000"
         id="image1962" />
    </pattern>
    <radialGradient
       xlink:href="#linearGradient1806"
       id="radialGradient1977"
       cx="0.50522649"
       cy="0.54545456"
       r="0.39214215"
       fx="0.33797911"
       fy="0.55468750" />
    <linearGradient
       xlink:href="#linearGradient1954"
       id="linearGradient1979"
       x1="-0.0051282053"
       y1="-0.070312500"
       x2="0.90256411"
       y2="1.2343750" />
    <linearGradient
       xlink:href="#linearGradient1982"
       id="linearGradient1981"
       x1="-8.5695340e-16"
       y1="0.25000000"
       x2="0.66666669"
       y2="0.70312500" />
    <linearGradient
       xlink:href="#linearGradient1982"
       id="linearGradient1987"
       x1="1.2118226"
       y1="1.2734375"
       x2="0.34975371"
       y2="1.1275703e-16" />
    <linearGradient
       xlink:href="#linearGradient1982"
       id="linearGradient1989"
       x1="0.50331128"
       y1="0.25000000"
       x2="0.44370860"
       y2="0.70312500" />
    <linearGradient
       xlink:href="#linearGradient1982"
       id="linearGradient1996"
       x1="0.35398230"
       y1="0.48437500"
       x2="0.46902654"
       y2="0.60156250" />
    <linearGradient
       xlink:href="#linearGradient1990"
       id="linearGradient1998"
       x1="0.50279331"
       y1="0.40625000"
       x2="0.22346368"
       y2="0.68750000" />
    <linearGradient
       xlink:href="#linearGradient1982"
       id="linearGradient3050"
       x1="-0.24369748"
       y1="0.031250000"
       x2="1.9411764"
       y2="1.5625000" />
    <linearGradient
       xlink:href="#linearGradient1982"
       id="linearGradient1644"
       x1="1.3779528"
       y1="0.71093750"
       x2="-0.11811024"
       y2="-0.17968750" />
  </defs>
  <sodipodi:namedview
     id="base"
     pagecolor="#ffffff"
     bordercolor="#ffffff"
     borderopacity="0.0000000"
     inkscape:pageopacity="0.0000000"
     inkscape:pageshadow="2"
     inkscape:zoom="1.8628103"
     inkscape:cx="94.087945"
     inkscape:cy="70.909268"
     inkscape:window-width="432"
     inkscape:window-height="491"
     inkscape:window-x="406"
     inkscape:window-y="100"
     showborder="true" />
  <path
     sodipodi:type="arc"
     style="fill:url(#radialGradient1937);fill-opacity:0.75000000;fill-rule:evenodd;stroke-width:1.0000000pt;"
     id="path3074"
     sodipodi:cx="41.875938"
     sodipodi:cy="37.865574"
     sodipodi:rx="12.562782"
     sodipodi:ry="12.562782"
     d="M 54.438721 37.865574 A 12.562782 12.562782 0 1 0 29.313156,37.865574 A 12.562782 12.562782 0 1 0 54.438721 37.865574 z"
     transform="matrix(4.331314,0.000000,0.000000,1.248007,-90.98647,361.8808)" />
  <g
     id="wineglass">
    <path
       style="fill:url(#linearGradient3050);fill-opacity:0.75000000;fill-rule:evenodd;stroke-width:0.75000000;"
       d="M 75.948894,20.745164 L 61.319553,44.962300 C 57.420484,51.416738 57.488810,80.214220 58.647141,81.385494 L 61.408043,84.177249 C 62.635979,85.418912 83.283520,79.365875 92.224442,72.438593 L 117.14977,53.126849 C 121.33451,49.884582 110.58066,35.576021 103.67860,30.284828 C 96.776533,24.993625 78.951243,15.775135 75.948894,20.745164 z "
       id="path1056"
       sodipodi:nodetypes="czzzzzzz" />
    <path
       sodipodi:type="arc"
       style="fill:url(#radialGradient1977);fill-opacity:0.75000000;fill-rule:evenodd;stroke-width:1.0000000pt;"
       id="path1976"
       sodipodi:cx="41.875938"
       sodipodi:cy="37.865574"
       sodipodi:rx="12.562782"
       sodipodi:ry="12.562782"
       d="M 54.438721 37.865574 A 12.562782 12.562782 0 1 0 29.313156,37.865574 A 12.562782 12.562782 0 1 0 54.438721 37.865574 z"
       transform="matrix(6.929434,0.000000,0.000000,3.084932,-205.8924,0.927250)" />
    <path
       sodipodi:type="arc"
       style="fill:url(#radialGradient1502);fill-opacity:0.75000000;fill-rule:evenodd;stroke-width:1.0000000pt;"
       id="path1934"
       sodipodi:cx="41.875938"
       sodipodi:cy="37.865574"
       sodipodi:rx="12.562782"
       sodipodi:ry="12.562782"
       d="M 54.438721 37.865574 A 12.562782 12.562782 0 1 0 29.313156,37.865574 A 12.562782 12.562782 0 1 0 54.438721 37.865574 z"
       transform="matrix(4.074372,0.000000,0.000000,1.541655,-73.11689,66.55027)" />
    <path
       sodipodi:type="arc"
       style="fill:url(#radialGradient1937);fill-opacity:0.75000000;fill-rule:evenodd;stroke-width:1.0000000pt;"
       id="path1936"
       sodipodi:cx="41.875938"
       sodipodi:cy="37.865574"
       sodipodi:rx="12.562782"
       sodipodi:ry="12.562782"
       d="M 54.438721 37.865574 A 12.562782 12.562782 0 1 0 29.313156,37.865574 A 12.562782 12.562782 0 1 0 54.438721 37.865574 z"
       transform="matrix(4.331314,0.000000,0.000000,1.248007,-125.8529,73.05806)" />
    <path
       sodipodi:type="arc"
       style="fill:url(#radialGradient1953);fill-opacity:0.75000000;fill-rule:evenodd;stroke-width:1.0000000pt;"
       id="path1952"
       sodipodi:cx="58.375500"
       sodipodi:cy="22.775043"
       sodipodi:rx="10.998282"
       sodipodi:ry="10.998282"
       d="M 69.373782 22.775043 A 10.998282 10.998282 0 1 0 47.377217,22.775043 A 10.998282 10.998282 0 1 0 69.373782 22.775043 z"
       transform="matrix(3.856546,0.000000,0.000000,1.602573,-116.3511,82.22937)" />
    <path
       style="fill:url(#linearGradient1927);fill-opacity:0.75000000;fill-rule:evenodd;stroke-width:1.0000000pt;"
       d="M 62.488746,94.742202 L 40.352416,123.49980 L 41.249573,127.14432 L 49.620842,140.53053 C 53.965664,147.47817 32.387125,136.57050 26.518719,132.12709 C 20.650307,127.68368 7.5270076,111.43188 14.410389,113.87005 L 34.672623,121.04718 L 59.350329,91.569670 L 62.488746,94.742202 z "
       id="path3076"
       sodipodi:nodetypes="ccczzzccc"
       transform="translate(-1.089322,-10.89322)" />
    <path
       style="fill:url(#linearGradient1644);fill-opacity:0.75000000;fill-rule:evenodd;stroke-width:1.0000000pt;"
       d="M 61.354125,84.205155 L 39.217795,112.96275 L 40.114952,116.60727 L 48.486221,129.99348 C 52.831043,136.94112 31.252504,126.03345 25.384098,121.59004 C 19.515686,117.14663 6.3923869,100.89483 13.275768,103.33300 L 33.538002,110.51013 L 58.215708,81.032623 L 61.354125,84.205155 z "
       id="path1643"
       sodipodi:nodetypes="ccczzzccc" />
    <g
       id="g3112"
       transform="matrix(0.679574,0.733608,-0.733608,0.679574,280.8556,-185.2491)">
      <path
         style="fill:url(#linearGradient1915);fill-rule:evenodd;stroke-width:1.0000000pt;"
         d="M 59.566561,346.69634 L 58.914426,330.71898 C 58.721774,325.99899 58.672546,316.75399 63.765894,316.75399 C 69.299455,316.75399 75.923114,314.33926 83.748758,314.33926 C 91.574399,314.33926 102.59120,320.24524 102.59120,320.24524 L 84.347762,338.21856 C 84.347762,338.21856 66.413998,348.97882 63.153314,348.32668 C 59.892631,347.67454 59.566561,346.69634 59.566561,346.69634 z "
         id="path3075"
         sodipodi:nodetypes="czzccccc"
         transform="matrix(0.738614,-0.674128,0.674128,0.738614,-236.0049,123.8602)" />
      <path
         style="fill:url(#linearGradient1922);fill-opacity:0.75000000;fill-rule:evenodd;stroke-width:0.75000000;"
         d="M 71.267562,290.12096 L 58.224828,315.22823 C 54.748627,321.91991 56.667547,350.65348 57.898759,351.74789 L 60.833373,354.35644 C 62.138569,355.51662 82.441808,348.24692 90.831667,340.66156 L 114.63466,319.14105 C 118.56148,315.59078 107.18943,302.45722 99.961582,297.62054 C 92.733733,292.78385 73.944295,284.96825 71.267562,290.12096 z "
         id="path3077"
         sodipodi:nodetypes="czzzzzzz"
         transform="matrix(0.738614,-0.674128,0.674128,0.738614,-236.0049,123.8602)" />
      <path
         style="fill:url(#linearGradient1911);fill-rule:evenodd;stroke-width:1.0000000pt;"
         d="M 59.855168,348.81328 L 59.203033,332.83592 C 59.010382,328.11592 59.152198,315.60273 64.054501,318.87093 C 68.896368,322.09884 71.600418,323.60372 79.426062,323.60372 C 87.251704,323.60372 107.49111,315.67579 103.80207,321.90105 L 84.636369,340.33550 C 84.636369,340.33550 66.702605,351.09576 63.441921,350.44362 C 60.181238,349.79148 59.855168,348.81328 59.855168,348.81328 z "
         id="path3078"
         sodipodi:nodetypes="czzccccc"
         transform="matrix(0.738614,-0.674128,0.674128,0.738614,-236.0049,123.8602)" />
      <path
         sodipodi:type="arc"
         style="fill:url(#linearGradient1912);fill-opacity:0.75000000;fill-rule:evenodd;stroke-width:1.4922816;"
         id="path3079"
         sodipodi:cx="34.686890"
         sodipodi:cy="7.7581573"
         sodipodi:rx="7.2969375"
         sodipodi:ry="2.8553233"
         d="M 41.983827 7.7581573 A 7.2969375 2.8553233 0 1 0 27.389952,7.7581573 A 7.2969375 2.8553233 0 1 0 41.983827 7.7581573 z"
         transform="matrix(2.942502,-0.555238,0.212587,2.236651,-65.28913,288.6336)" />
      <path
         style="fill:url(#linearGradient1979);fill-opacity:0.75000000;fill-rule:evenodd;stroke-width:1.0000000pt;"
         d="M 61.360727,339.43340 L 61.360727,325.59949 C 61.360727,325.59949 61.821857,321.44932 66.433163,323.29384 C 71.044466,325.13836 77.039161,330.67193 83.494986,326.98288 C 89.950811,323.29384 87.645158,336.20549 80.267072,338.51114 C 72.888989,340.81680 61.360727,339.43340 61.360727,339.43340 z "
         id="path3080"
         transform="matrix(0.738614,-0.674128,0.674128,0.738614,-236.0049,123.8602)" />
      <path
         style="fill:url(#linearGradient1981);fill-opacity:0.75000000;fill-rule:evenodd;stroke-width:1.0000000pt;"
         d="M 70.583336,301.15958 C 70.583336,301.15958 64.127510,308.99880 62.282988,316.83801 C 60.438466,324.67723 59.516208,344.04471 61.360727,345.42810 C 63.205249,346.81149 91.334203,312.22671 87.645158,312.22671 C 83.956117,312.22671 70.583336,301.15958 70.583336,301.15958 z "
         id="path3081"
         transform="matrix(0.738614,-0.674128,0.674128,0.738614,-236.0049,123.8602)" />
      <path
         style="fill:url(#linearGradient1987);fill-opacity:0.75000000;fill-rule:evenodd;stroke-width:1.0000000pt;"
         d="M 100.09606,301.93815 C 102.85091,303.24323 116.75953,314.70602 112.31886,318.38944 C 108.10209,321.88712 90.637756,307.45964 89.627645,305.55222 C 88.617531,303.64479 97.341214,300.63307 100.09606,301.93815 z "
         id="path3082"
         sodipodi:nodetypes="czzz"
         transform="matrix(0.738614,-0.674128,0.674128,0.738614,-236.0049,123.8602)" />
    </g>
    <path
       style="fill:url(#linearGradient1996);fill-rule:evenodd;stroke-width:1.0000000pt;"
       d="M 35.035180,121.02854 L 58.968092,93.559994 L 61.393042,96.036656 L 39.332846,124.86980 L 35.035180,121.02854 z "
       id="path3085"
       sodipodi:nodetypes="ccccc"
       transform="translate(-1.089322,-10.89322)" />
    <g
       id="g3120"
       transform="matrix(0.775200,0.631716,-0.631716,0.775200,241.9578,-212.8171)"
       style="">
      <path
         style="fill:url(#linearGradient1989);fill-opacity:0.75000000;fill-rule:evenodd;stroke-width:1.0000000pt;"
         d="M 29.167989,378.19783 C 26.909557,376.81768 11.723330,370.96998 11.886363,372.65467 C 12.049396,374.33936 16.463796,381.77102 20.364140,385.37134 C 24.603028,389.28416 32.102603,394.17518 34.385082,394.50125 C 36.667561,394.82732 39.928247,384.55617 36.993630,382.76279 C 34.059016,380.96941 31.426421,379.57799 29.167989,378.19783 z "
         id="path3083"
         sodipodi:nodetypes="czzzzz"
         transform="matrix(0.738614,-0.674128,0.674128,0.738614,-236.0049,123.8602)" />
      <path
         style="fill:url(#linearGradient1925);fill-opacity:0.75000000;fill-rule:evenodd;stroke-width:1.0000000pt;"
         d="M 34.575606,381.19367 C 34.575606,381.19367 38.034084,382.34650 39.878606,388.80232 C 41.723129,395.25815 44.489909,398.71663 41.723129,397.79437 C 38.956345,396.87211 23.508478,390.18572 26.736392,386.72724 C 29.964303,383.26876 29.042042,377.96576 34.575606,381.19367 z "
         id="path3084"
         transform="matrix(0.738614,-0.674128,0.674128,0.738614,-236.0049,123.8602)" />
      <path
         style="fill:url(#linearGradient1998);fill-opacity:0.75000000;fill-rule:evenodd;stroke-width:1.0000000pt;"
         d="M 19.166958,381.83573 C 19.166958,381.83573 32.535762,380.20539 35.959482,387.05282 C 39.383198,393.90026 43.538658,399.84848 41.093147,399.68544 C 38.647632,399.52241 20.145163,387.70496 19.166958,381.83573 z "
         id="path3086"
         transform="matrix(0.738614,-0.674128,0.674128,0.738614,-236.0049,123.8602)"
         sodipodi:nodetypes="cccc" />
    </g>
  </g>
  <text
     xml:space="preserve"
     style="font-size:12.000000;stroke-width:1.0000000pt;font-family:helvetica;"
     x="3.2663841"
     y="178.36407"
     id="text1067"><tspan
       id="tspan1068">Wine</tspan></text>
  <text
     xml:space="preserve"
     style="font-size:12.000000;stroke-width:1.0000000pt;font-family:helvetica;"
     x="72.889076"
     y="747.38464"
     id="text1070"
     transform="scale(0.246729,0.246729)"><tspan
       id="tspan1071">Created by Andrew Fitzsimon</tspan><tspan
       sodipodi:role="line"
       id="tspan1999"
       x="72.889076"
       y="759.38464">Inspired by Jimmacs raster wine icon for the GNOME pro</tspan></text>
</svg>
