<?xml version="1.0" encoding="UTF-8" standalone="no"?>
<!DOCTYPE svg PUBLIC "-//W3C//DTD SVG 20010904//EN"
"http://www.w3.org/TR/2001/REC-SVG-20010904/DTD/svg10.dtd">
<!-- Created with Sodipodi ("http://www.sodipodi.com/") -->
<svg
   width="48pt"
   height="48pt"
   viewBox="0 0 256 256"
   style="overflow:visible;enable-background:new 0 0 256 256"
   xml:space="preserve"
   xmlns="http://www.w3.org/2000/svg"
   xmlns:xml="http://www.w3.org/XML/1998/namespace"
   xmlns:a="http://ns.adobe.com/AdobeSVGViewerExtensions/3.0/"
   xmlns:sodipodi="http://sodipodi.sourceforge.net/DTD/sodipodi-0.dtd"
   xmlns:xlink="http://www.w3.org/1999/xlink"
   id="svg153"
   sodipodi:version="0.32pre"
   sodipodi:docname="/home/cschalle/gnome-themes-extras/Lush/icons/scalable/filesystems/gnome-fs-executable.svgz"
   sodipodi:docbase="/home/cschalle/gnome-themes-extras/Lush/icons/scalable/filesystems/">
  <defs
     id="defs201" />
  <sodipodi:namedview
     id="base" />
  <g
     id="Layer_2"
     style="stroke:#000000;">
    <path
       style="fill:none;stroke:none;"
       d="M256,256H0V0h256V256z"
       id="path155" />
  </g>
  <g
     id="Layer_1"
     style="stroke:#000000;">
    <path
       style="opacity:0.36;fill:#999999;stroke:none;"
       d="M103.094,23.343c0,0-0.491,4.221-0.51,4.392c-0.038,0.202-2.396,12.646-3.117,16.45    c-4.964,0.491-9.728,1.427-14.24,2.801c-4.387-3.216-26.417-19.373-26.417-19.373L33.908,47.399L30.17,66.362    c0,0,11.441,15.605,14.987,20.44c-6.594-0.005-25.758-0.022-25.758-0.022l-4.286,21.132l3.706,30.561    c0,0,23.388,8.799,27.869,10.485c1.792,4.403,3.948,8.785,6.44,13.09c-1.162,1.686-4.443,6.439-4.443,6.439l-4.112,18.273    l28.453,28.179c0,0,17.803-7.57,21.961-9.339c6.286,4.124,12.841,7.686,19.575,10.637c1.313,3.891,8.789,26.021,8.789,26.021    l37.634,7.357l5.95-17.658c0,0,0.641-5.209,0.805-6.518c4.781-0.553,9.354-1.521,13.665-2.898    c4.398,3.226,25.386,18.62,25.386,18.62l22.438-17.835l7.243-19.661c0,0-12.024-16.396-15.52-21.164    c6.936,0.042,23.595,0.148,23.595,0.148l6.841-17.906l-4.111-33.839c0,0-23.903-9.115-28.344-10.809    c-2.226-5.431-5.009-10.822-8.309-16.095c1.419-2.916,11.063-21.41,11.063-21.41l-2.78-2.757l-26.163-25.91    c0,0-18.424,7.831-22.588,9.601c-5.989-3.866-12.179-7.209-18.486-9.984c-1.335-3.885-9.108-26.495-9.108-26.495l-39.011-7.631    L103.094,23.343z M124.431,101.07c23.579,4.612,45.963,25.021,51.522,46.772c0.007,0.027,0.014,0.056,0.021,0.083    c-1.595,4.918-4.519,9.075-8.575,12.009c-6.686,4.833-16.012,6.389-26.266,4.383c-21.495-4.207-41.574-22.515-46.705-42.586    c-0.436-1.707-0.761-3.422-0.964-5.098c-0.426-3.52-0.237-6.882,0.415-10.064C101.582,100.681,112.363,98.711,124.431,101.07z"
       id="path157" />
    <path
       style="stroke:none;"
       d="M96.054,13.461c0,0-0.489,4.222-0.508,4.393c-0.038,0.202-2.398,12.647-3.119,16.45    c-4.964,0.491-9.729,1.427-14.239,2.801C73.8,33.888,51.77,17.732,51.77,17.732L26.869,37.518l-3.737,18.963    c0,0,11.441,15.605,14.986,20.441c-6.594-0.005-25.758-0.022-25.758-0.022L8.073,98.032l3.707,30.561    c0,0,23.386,8.8,27.869,10.486c1.792,4.403,3.947,8.784,6.439,13.089c-1.164,1.686-4.442,6.439-4.442,6.439l-4.114,18.272    l28.453,28.179c0,0,17.803-7.569,21.962-9.338c6.286,4.124,12.841,7.686,19.574,10.637c1.313,3.891,8.787,26.021,8.787,26.021    l37.635,7.356l5.951-17.659c0,0,0.643-5.207,0.805-6.518c4.781-0.551,9.354-1.521,13.667-2.898    c4.396,3.227,25.382,18.62,25.382,18.62l22.438-17.835l7.243-19.66c0,0-12.021-16.395-15.518-21.165    c6.937,0.044,23.594,0.148,23.594,0.148l6.843-17.906l-4.113-33.838c0,0-23.903-9.116-28.344-10.81    c-2.225-5.43-5.008-10.822-8.309-16.095c1.419-2.916,11.062-21.41,11.062-21.41l-2.777-2.757l-26.165-25.91    c0,0-18.425,7.831-22.589,9.601c-5.988-3.866-12.178-7.209-18.483-9.984c-1.336-3.885-9.107-26.496-9.107-26.496L96.51,9.534    L96.054,13.461z M117.392,91.189c23.579,4.613,45.963,25.022,51.523,46.772c0.007,0.028,0.013,0.057,0.02,0.083    c-1.596,4.92-4.518,9.077-8.577,12.011c-6.683,4.831-16.009,6.388-26.263,4.383c-21.497-4.208-41.576-22.516-46.707-42.587    c-0.436-1.708-0.761-3.423-0.964-5.098c-0.426-3.52-0.237-6.882,0.415-10.064C94.542,90.8,105.323,88.83,117.392,91.189z"
       id="path158" />
    <linearGradient
       id="XMLID_1_"
       gradientUnits="userSpaceOnUse"
       x1="216.542"
       y1="209.7344"
       x2="67.8224"
       y2="43.6312"
       gradientTransform="matrix(1.0099 -4.000000e-004 0.2248 0.9901 -30.7693 1.8087)">
      <stop
         offset="0"
         style="stop-color:#009272"
         id="stop160" />
      <stop
         offset="1"
         style="stop-color:#6AC29F"
         id="stop161" />
      <a:midPointStop
         offset="0"
         style="stop-color:#009272"
         id="midPointStop162" />
      <a:midPointStop
         offset="0.5"
         style="stop-color:#009272"
         id="midPointStop163" />
      <a:midPointStop
         offset="1"
         style="stop-color:#6AC29F"
         id="midPointStop164" />
    </linearGradient>
    <path
       style="fill:url(#XMLID_1_);stroke:none;"
       d="M100.861,18.563c0,0-1.819,15.7-2.298,19.824c-7.326,0.297-14.182,1.594-20.514,3.852    c-4.089-2.998-25.286-18.543-25.286-18.543l-19.25,15.294c0,0,15.161,20.68,17.709,24.156c-3.435,5.474-5.731,11.591-6.906,18.253    c-4.854-0.003-26.241-0.022-26.241-0.022l3.237,26.688c0,0,22.969,8.644,27.121,10.207c2.875,7.724,6.907,15.321,12.039,22.689    c-1.984,2.878-12.375,17.939-12.375,17.939l22.976,22.749c0,0,17.477-7.43,21.382-9.091c7.599,5.256,15.572,9.615,23.833,12.991    c1.222,3.614,8.551,25.305,8.551,25.305l30.301,5.925c0,0,2.375-19.259,2.877-23.337c7.435-0.312,14.388-1.642,20.787-3.965    c4.079,2.992,24.733,18.141,24.733,18.141l19.249-15.305c0,0-14.883-20.298-17.415-23.752c3.439-5.518,5.722-11.673,6.87-18.368    c4.903,0.031,26.385,0.168,26.385,0.168l-3.242-26.699c0,0-23.333-8.897-27.45-10.468c-2.925-7.76-7.01-15.372-12.183-22.732    c1.995-2.894,12.45-18.053,12.45-18.053L185.23,49.662c0,0-17.816,7.573-21.726,9.234c-7.381-5.048-15.106-9.255-23.101-12.536    c-1.239-3.604-8.798-25.593-8.798-25.593l-30.312-5.93L100.861,18.563z M82.252,111.853c-0.477-1.864-0.834-3.741-1.062-5.619    c-1.424-11.741,2.614-21.985,11.08-28.106c7.713-5.576,18.448-7.378,30.224-5.075c26.24,5.133,49.94,28.708,52.832,52.556    c1.426,11.743-2.617,21.989-11.084,28.11c-7.711,5.574-18.445,7.376-30.219,5.073C109.85,154.061,87.83,133.676,82.252,111.853z"
       id="path165" />
    <path
       style="fill:#1B7157;stroke:none;"
       d="M195.751,90.463c0.699,0.995,1.374,1.995,2.034,2.999l9.877-20.268    C205.5,76.323,197.475,87.963,195.751,90.463z"
       id="path166" />
    <path
       style="fill:#1B7157;stroke:none;"
       d="M23.036,38.676l-0.042-0.001l-0.013,0.042L23.036,38.676z"
       id="path167" />
    <linearGradient
       id="XMLID_2_"
       gradientUnits="userSpaceOnUse"
       x1="90.7764"
       y1="104.937"
       x2="176.2266"
       y2="104.937"
       gradientTransform="matrix(1.0099 -4.000000e-004 0.2248 0.9901 -30.7693 1.8087)">
      <stop
         offset="0"
         style="stop-color:#1B7157"
         id="stop169" />
      <stop
         offset="1"
         style="stop-color:#6AC29F"
         id="stop170" />
      <a:midPointStop
         offset="0"
         style="stop-color:#1B7157"
         id="midPointStop171" />
      <a:midPointStop
         offset="0.5"
         style="stop-color:#1B7157"
         id="midPointStop172" />
      <a:midPointStop
         offset="1"
         style="stop-color:#6AC29F"
         id="midPointStop173" />
    </linearGradient>
    <path
       style="fill:url(#XMLID_2_);stroke:none;"
       d="M175.325,125.608c-2.892-23.847-26.592-47.423-52.832-52.556c-11.776-2.303-22.511-0.501-30.224,5.075    c-5.315,3.843-8.882,9.313-10.451,15.757c8.394-6.993,20.981-9.916,35.644-7.049c26.914,5.265,51.367,28.16,56.889,52.368    C175.556,135.048,175.915,130.46,175.325,125.608z"
       id="path174" />
    <path
       style="fill:#2BA475;stroke:none;"
       d="M201.834,206.367c-4.976-3.649-19.383-14.214-22.921-16.809c-1.591,5.902-2.609,12.214-4.313,18.036    l23.426,17.186C198.829,218.41,200.882,212.548,201.834,206.367z"
       id="path175" />
    <path
       style="fill:#01835E;stroke:none;"
       d="M178.804,189.478c-6.399,2.323-13.353,3.653-20.787,3.965c-0.334,2.691-1.48,11.997-2.22,18.013    c6.723-0.491,12.982-1.835,18.66-3.964l0.143,0.104c1.704-5.822,2.723-12.134,4.313-18.036    C178.882,189.534,178.834,189.5,178.804,189.478z"
       id="path176" />
    <path
       style="fill:#1B7157;stroke:none;"
       d="M222.399,192.621c0,0-19.502,14.526-20.565,13.746c-0.952,6.181-3.005,12.043-3.809,18.413l0.731,0.535    l18.579-14.769l5.096-17.91C222.421,192.632,222.409,192.626,222.399,192.621z"
       id="path177" />
    <path
       style="fill:#01835E;stroke:none;"
       d="M124.838,210.854c0,0-0.094-0.278-0.254-0.754c-1.565,5.877-3.129,11.754-4.694,17.63l0.354,1.05    l29.5,5.767l5.073-17.831L124.838,210.854z"
       id="path178" />
    <path
       style="fill:#1B7157;stroke:none;"
       d="M71.072,181.649l-0.146-0.145c-1.975,5.719-4.226,11.515-4.566,17.838l0.098,0.097l21.015-8.936    c0.769-5.794,1.973-11.409,2.913-17.065C84.412,175.979,71.072,181.649,71.072,181.649z"
       id="path179" />
    <path
       style="fill:#01835E;stroke:none;"
       d="M48.272,159.073l-4.96,17.442l23.048,22.827c0.34-6.323,2.592-12.119,4.566-17.838L48.272,159.073z"
       id="path180" />
    <path
       style="fill:#018B71;stroke:none;"
       d="M116.287,185.55c-8.261-3.376-16.234-7.735-23.833-12.991c-0.492,0.211-1.204,0.513-2.068,0.88    c-0.939,5.656-2.144,11.271-2.913,17.065l0.107-0.045c7.368,5.124,15.267,9.484,23.504,12.915    c2.897-4.892,4.657-10.106,5.94-15.644C116.7,186.768,116.442,186.009,116.287,185.55z"
       id="path181" />
    <path
       style="fill:#2BA475;stroke:none;"
       d="M111.084,203.374c0.227,0.095,0.451,0.195,0.678,0.289l8.129,24.067c1.565-5.876,3.129-11.753,4.694-17.63    c-1.108-3.281-5.611-16.604-7.561-22.37C115.741,193.268,113.981,198.482,111.084,203.374z"
       id="path182" />
    <path
       style="fill:#2BA475;stroke:none;"
       d="M51.222,63.147c-2.38-3.248-15.765-21.506-17.516-23.894l-4.93,17.337l16.12,21.986    C46.178,73.003,48.278,67.838,51.222,63.147z"
       id="path183" />
    <path
       style="fill:#006648;stroke:none;"
       d="M212.241,150.193c-1.148,6.695-3.431,12.851-6.87,18.368c0.362,0.494,0.986,1.344,1.773,2.421    c-0.143-1.042-0.157-2.012-0.018-2.871l25.982,0.163l5.096-17.915C235.222,150.34,216.746,150.222,212.241,150.193z"
       id="path184" />
    <path
       style="fill:#1B7157;stroke:none;"
       d="M48.432,118.272c-3.758-1.414-22.938-8.633-26.537-9.987c-2.142,4.696-4.229,9.461-5.658,14.417    l0.391,3.232l26.685,10.039c1.557-5.347,3.991-10.35,5.969-15.53C48.993,119.72,48.703,118.998,48.432,118.272z"
       id="path185" />
    <path
       style="fill:#01835E;stroke:none;"
       d="M21.312,108.065l-3.065-25.273c-0.006,0.001-0.014,0.001-0.02,0.002l-4.829,16.493l2.84,23.415    c1.429-4.957,3.516-9.722,5.658-14.417C21.52,108.143,21.312,108.065,21.312,108.065z"
       id="path186" />
    <path
       style="fill:#018B71;stroke:none;"
       d="M49.282,120.443c-1.978,5.181-4.412,10.184-5.969,15.53l0.308,0.116c2.188,5.844,5.02,11.576,8.406,17.112    c3.165-4.586,7.271-10.541,8.444-12.241C55.821,134.285,52.085,127.42,49.282,120.443z"
       id="path187" />
    <linearGradient
       id="XMLID_3_"
       gradientUnits="userSpaceOnUse"
       x1="127.2759"
       y1="64.4829"
       x2="131.2782"
       y2="256.2536">
      <stop
         offset="0"
         style="stop-color:#50B796"
         id="stop189" />
      <stop
         offset="1"
         style="stop-color:#B8E4D4"
         id="stop190" />
      <a:midPointStop
         offset="0"
         style="stop-color:#50B796"
         id="midPointStop191" />
      <a:midPointStop
         offset="0.5"
         style="stop-color:#50B796"
         id="midPointStop192" />
      <a:midPointStop
         offset="1"
         style="stop-color:#B8E4D4"
         id="midPointStop193" />
    </linearGradient>
    <path
       style="fill:url(#XMLID_3_);stroke:none;"
       d="M233.201,146.089l-2.418-19.923l-26.511-10.109c-3.156-9.206-8.029-18.166-14.214-26.492l12.025-17.438    l-17.303-17.135l-20.854,8.864c-8.499-6.174-17.803-11.303-27.554-15.004l-8.481-24.669l-22.059-4.315l-2.608,22.472    c-9.387-0.042-17.94,1.62-25.373,4.723L53.705,29.355L39.817,40.39l17.028,23.227c-4.388,6.242-7.253,13.666-8.267,22.031    l-25.083-0.021l2.417,19.919l26.191,9.856c3.102,9.193,7.924,18.139,14.053,26.467l-11.943,17.315l17.306,17.136l20.523-8.725    c8.7,6.39,18.261,11.686,28.29,15.469l8.239,24.378l22.055,4.311l2.741-22.255c9.495,0.033,18.136-1.672,25.619-4.854    l23.609,17.317l13.887-11.042L199.754,168.1c4.385-6.282,7.24-13.752,8.218-22.172L233.201,146.089z M133.956,162.921    c-28.693-5.615-54.589-31.258-57.732-57.179c-3.146-25.913,17.643-42.433,46.338-36.82c28.688,5.611,54.585,31.26,57.728,57.173    C183.433,152.012,162.648,168.534,133.956,162.921z"
       id="path194" />
    <path
       style="fill:#FFFFFF;stroke:none;"
       d="M56.845,63.616L39.817,40.39l11.455-9.103l-0.191-0.141L37.193,42.18l17.028,23.226    c-4.07,5.791-6.809,12.608-7.997,20.239l2.354,0.002C49.592,77.282,52.457,69.858,56.845,63.616z"
       id="path195" />
    <path
       style="fill:#FFFFFF;stroke:none;"
       d="M120.333,183.063c-10.029-3.783-19.59-9.079-28.29-15.469l-20.523,8.725l-17.306-17.136l11.943-17.315    c-6.129-8.328-10.952-17.274-14.053-26.467l-26.191-9.856l-2.199-18.126l-2.843-0.002l2.418,19.92l26.191,9.856    c3.101,9.194,7.924,18.139,14.053,26.467l-11.943,17.314l17.306,17.135l20.524-8.723c8.699,6.39,18.261,11.686,28.291,15.468    l8.236,24.379l22.057,4.312l0.277-2.25l-19.709-3.853L120.333,183.063z"
       id="path196" />
    <path
       style="fill:#FFFFFF;stroke:none;"
       d="M122.562,68.922c-13.968-2.732-26.052-0.208-34.424,6.079c8.187-4.959,19.235-6.747,31.798-4.289    c28.688,5.611,54.587,31.261,57.73,57.174c1.612,13.303-3.092,24.119-11.92,30.748c10.514-6.366,16.31-17.967,14.543-32.54    C177.147,100.183,151.25,74.533,122.562,68.922z"
       id="path197" />
    <path
       style="fill:#FFFFFF;stroke:none;"
       d="M153.368,189.497l-0.214,1.744c8.545-0.239,16.367-1.897,23.207-4.808l23.61,17.317l2.43-1.935    l-23.414-17.174C171.504,187.825,162.863,189.53,153.368,189.497z"
       id="path198" />
    <path
       style="fill:#FFFFFF;stroke:none;"
       d="M207.707,147.732l22.869,0.146l-0.22-1.809l-22.385-0.143C207.899,146.538,207.8,147.133,207.707,147.732z"
       id="path199" />
  </g>
</svg>
