<?xml version="1.0" encoding="UTF-8" standalone="no"?>
<!DOCTYPE svg PUBLIC "-//W3C//DTD SVG 20010904//EN"
"http://www.w3.org/TR/2001/REC-SVG-20010904/DTD/svg10.dtd">
<!-- Created with Sodipodi ("http://www.sodipodi.com/") -->
<svg
   width="48pt"
   height="48pt"
   viewBox="0 0 256 256"
   style="overflow:visible;enable-background:new 0 0 256 256"
   xml:space="preserve"
   xmlns="http://www.w3.org/2000/svg"
   xmlns:xml="http://www.w3.org/XML/1998/namespace"
   xmlns:a="http://ns.adobe.com/AdobeSVGViewerExtensions/3.0/"
   xmlns:sodipodi="http://sodipodi.sourceforge.net/DTD/sodipodi-0.dtd"
   xmlns:xlink="http://www.w3.org/1999/xlink"
   id="svg153"
   sodipodi:version="0.32pre"
   sodipodi:docname="/home/cschalle/gnome-themes-extras/Lush/icons/scalable/filesystems/gnome-fs-home.svgz"
   sodipodi:docbase="/home/cschalle/gnome-themes-extras/Lush/icons/scalable/filesystems/">
  <defs
     id="defs234" />
  <sodipodi:namedview
     id="base" />
  <g
     id="Layer_2"
     style="stroke:#000000;">
    <path
       style="fill:none;stroke:none;"
       d="M256,256H0V0h256V256z"
       id="path155" />
  </g>
  <g
     id="Layer_1"
     style="stroke:#000000;">
    <linearGradient
       id="XMLID_1_"
       gradientUnits="userSpaceOnUse"
       x1="48.2466"
       y1="233.5"
       x2="232.2471"
       y2="233.5">
      <stop
         offset="0"
         style="stop-color:#000000"
         id="stop158" />
      <stop
         offset="1"
         style="stop-color:#999999"
         id="stop159" />
      <a:midPointStop
         offset="0"
         style="stop-color:#000000"
         id="midPointStop160" />
      <a:midPointStop
         offset="0.5"
         style="stop-color:#000000"
         id="midPointStop161" />
      <a:midPointStop
         offset="1"
         style="stop-color:#999999"
         id="midPointStop162" />
    </linearGradient>
    <path
       style="opacity:0.36;fill:url(#XMLID_1_);stroke:none;"
       d="M48.247,233.5c0,11.322,41.19,20.5,92,20.5s92-9.178,92-20.5s-41.189-20.5-92-20.5    S48.247,222.178,48.247,233.5z"
       id="path163" />
    <path
       style="fill:#D4D4D4;stroke:none;"
       d="M199.945,226.766H55.63v-2.013h144.317L199.945,226.766z"
       id="path164" />
    <path
       style="fill:#CCCCCC;stroke:none;"
       d="M199.945,223.25H55.63v-2.685h144.317L199.945,223.25z"
       id="path165" />
    <g
       id="g166">
      <path
         style="stroke:none;"
         d="M48.105,5c-9.992,0-18.122,8.123-18.122,18.107v119.16c0,9.984,8.129,18.106,18.122,18.106h158.271     c9.99,0,18.117-8.122,18.117-18.106V23.107c0-9.984-8.127-18.107-18.117-18.107H48.105z"
         id="path167" />
      <path
         style="stroke:none;"
         d="M48.105,6c-9.441,0-17.122,7.675-17.122,17.107v119.16c0,9.432,7.681,17.106,17.122,17.106h158.271     c9.439,0,17.117-7.675,17.117-17.106V23.107c0-9.433-7.678-17.107-17.117-17.107H48.105z"
         id="path168" />
      <linearGradient
         id="XMLID_2_"
         gradientUnits="userSpaceOnUse"
         x1="-345.4009"
         y1="82.6865"
         x2="-162.8457"
         y2="82.6865"
         gradientTransform="matrix(1 0 0 1 381.3623 0)">
        <stop
           offset="0"
           style="stop-color:#E6E6E6"
           id="stop170" />
        <stop
           offset="1"
           style="stop-color:#B5B5B5"
           id="stop171" />
        <a:midPointStop
           offset="0"
           style="stop-color:#E6E6E6"
           id="midPointStop172" />
        <a:midPointStop
           offset="0.5"
           style="stop-color:#E6E6E6"
           id="midPointStop173" />
        <a:midPointStop
           offset="1"
           style="stop-color:#B5B5B5"
           id="midPointStop174" />
      </linearGradient>
      <path
         style="fill:url(#XMLID_2_);stroke:none;"
         d="M218.517,142.268c0,6.698-5.436,12.128-12.14,12.128H48.105c-6.705,0-12.144-5.43-12.144-12.128V23.107     c0-6.699,5.438-12.13,12.144-12.13h158.271c6.704,0,12.14,5.431,12.14,12.13V142.268z"
         id="path175" />
      <path
         style="fill:#FFFFFF;stroke:none;"
         d="M41.776,28.57c0-6.7,5.437-12.13,12.141-12.13H212.55c-1.622-1.503-3.789-2.429-6.173-2.429H48.105     c-5.022,0-9.106,4.081-9.106,9.096v119.16c0,2.555,1.065,4.869,2.777,6.523V28.57z"
         id="path176" />
      <path
         style="fill:#A1A1A1;stroke:none;"
         d="M205.638,141.557H51.115V23.753h154.522V141.557z"
         id="path177" />
      <path
         style="fill:#FFFFFF;stroke:none;"
         d="M206.525,142.076H53.37V25.292h153.156V142.076z"
         id="path178" />
      <path
         style="stroke:none;"
         d="M204.501,24.323H52.061V141.05h153.436V24.323H204.501z"
         id="path179" />
      <radialGradient
         id="XMLID_3_"
         cx="129.1221"
         cy="88.5039"
         r="93.5033"
         fx="129.1221"
         fy="88.5039"
         gradientUnits="userSpaceOnUse">
        <stop
           offset="0"
           style="stop-color:#0070FF"
           id="stop181" />
        <stop
           offset="1"
           style="stop-color:#0042C7"
           id="stop182" />
        <a:midPointStop
           offset="0"
           style="stop-color:#0070FF"
           id="midPointStop183" />
        <a:midPointStop
           offset="0.5"
           style="stop-color:#0070FF"
           id="midPointStop184" />
        <a:midPointStop
           offset="1"
           style="stop-color:#0042C7"
           id="midPointStop185" />
      </radialGradient>
      <path
         style="fill:url(#XMLID_3_);stroke:none;"
         d="M54.052,26.314c0,1.94,0,110.805,0,112.745c1.953,0,147.501,0,149.453,0c0-1.939,0-110.805,0-112.745     C201.554,26.314,56.005,26.314,54.052,26.314z"
         id="path186" />
      <linearGradient
         id="XMLID_4_"
         gradientUnits="userSpaceOnUse"
         x1="-231.2041"
         y1="54.7241"
         x2="-184.1139"
         y2="7.6339"
         gradientTransform="matrix(1 0 0 1 381.3623 0)">
        <stop
           offset="0"
           style="stop-color:#F0F0F0"
           id="stop188" />
        <stop
           offset="1"
           style="stop-color:#FFFFFF"
           id="stop189" />
        <a:midPointStop
           offset="0"
           style="stop-color:#F0F0F0"
           id="midPointStop190" />
        <a:midPointStop
           offset="0.5"
           style="stop-color:#F0F0F0"
           id="midPointStop191" />
        <a:midPointStop
           offset="1"
           style="stop-color:#FFFFFF"
           id="midPointStop192" />
      </linearGradient>
      <path
         style="opacity:0.34;fill:url(#XMLID_4_);stroke:none;adobe-blending-mode:screen;"
         d="M206.377,10.978H96.766c2.999,4.693,6.631,8.918,10.742,12.775h98.129v50.003     c4.625,2.884,8.918,6.137,12.88,9.746V23.107C218.517,16.409,213.081,10.978,206.377,10.978z"
         id="path193" />
      <linearGradient
         id="XMLID_5_"
         gradientUnits="userSpaceOnUse"
         x1="128.7788"
         y1="83.2505"
         x2="128.7788"
         y2="7.9091">
        <stop
           offset="0"
           style="stop-color:#0070FF"
           id="stop195" />
        <stop
           offset="1"
           style="stop-color:#FFFFFF"
           id="stop196" />
        <a:midPointStop
           offset="0"
           style="stop-color:#0070FF"
           id="midPointStop197" />
        <a:midPointStop
           offset="0.5"
           style="stop-color:#0070FF"
           id="midPointStop198" />
        <a:midPointStop
           offset="1"
           style="stop-color:#FFFFFF"
           id="midPointStop199" />
      </linearGradient>
      <path
         style="opacity:0.5;fill:url(#XMLID_5_);stroke:none;"
         d="M203.505,26.314c-1.951,0-147.5,0-149.453,0c0,0.456,0,6.814,0,16.301     c16.622,19.154,43.153,31.553,73.046,31.553c32,0,60.145-14.213,76.406-35.708C203.505,31.313,203.505,26.699,203.505,26.314z"
         id="path200" />
    </g>
    <path
       style="stroke:none;"
       d="M94.739,169.5h65V160h-65V169.5z"
       id="path201" />
    <g
       id="g202">
      <path
         style="stroke:none;"
         d="M59.544,167.976c-7.924,0-14.371,6.436-14.371,14.346v39.335c0,7.909,6.447,14.344,14.371,14.344h135.386     c7.926,0,14.373-6.435,14.373-14.344l0.001-39.335c0-7.91-6.447-14.346-14.373-14.346H59.544z"
         id="path203" />
      <path
         style="stroke:none;"
         d="M59.544,169.976c-7.373,0-13.371,5.987-13.371,13.346v39.335c0,7.357,5.999,13.344,13.371,13.344h135.386     c7.374,0,13.373-5.986,13.373-13.344c0,0-0.081,0.08-0.083,0.083c0.081-0.716,0.083-1.354,0.083-1.773l0.001-37.645     c0-7.358-5.999-13.346-13.373-13.346H59.544z"
         id="path204" />
      <linearGradient
         id="XMLID_6_"
         gradientUnits="userSpaceOnUse"
         x1="-254.123"
         y1="215.9453"
         x2="-254.123"
         y2="175.8957"
         gradientTransform="matrix(1 0 0 1 381.3623 0)">
        <stop
           offset="0"
           style="stop-color:#D4D4D4"
           id="stop206" />
        <stop
           offset="1"
           style="stop-color:#7D7B7C"
           id="stop207" />
        <a:midPointStop
           offset="0"
           style="stop-color:#D4D4D4"
           id="midPointStop208" />
        <a:midPointStop
           offset="0.5"
           style="stop-color:#D4D4D4"
           id="midPointStop209" />
        <a:midPointStop
           offset="1"
           style="stop-color:#7D7B7C"
           id="midPointStop210" />
      </linearGradient>
      <path
         style="fill:url(#XMLID_6_);stroke:none;"
         d="M203.326,222.656c0,4.622-3.76,8.366-8.396,8.366H59.544c-4.635,0-8.393-3.745-8.393-8.366v-39.335     c0-4.62,3.758-8.367,8.393-8.367h135.387c4.636,0,8.396,3.746,8.396,8.367L203.326,222.656z"
         id="path211" />
      <linearGradient
         id="XMLID_7_"
         gradientUnits="userSpaceOnUse"
         x1="-185.502"
         y1="181.6328"
         x2="-246.548"
         y2="226.5795"
         gradientTransform="matrix(1 0 0 1 381.3623 0)">
        <stop
           offset="0"
           style="stop-color:#FFFFFF"
           id="stop213" />
        <stop
           offset="1"
           style="stop-color:#918F90"
           id="stop214" />
        <a:midPointStop
           offset="0"
           style="stop-color:#FFFFFF"
           id="midPointStop215" />
        <a:midPointStop
           offset="0.5"
           style="stop-color:#FFFFFF"
           id="midPointStop216" />
        <a:midPointStop
           offset="1"
           style="stop-color:#918F90"
           id="midPointStop217" />
      </linearGradient>
      <path
         style="opacity:0.6;fill:url(#XMLID_7_);stroke:none;"
         d="M194.931,174.954h-51.947c0.339,4.585,1.592,9.004,3.618,13.183h45.383h2.098v15.254h-35.438     c10.896,9.432,26.642,16.139,44.683,18.356V183.32C203.326,178.701,199.566,174.954,194.931,174.954z"
         id="path218" />
      <path
         style="fill:#918F90;stroke:none;"
         d="M191.983,188.137h-50.542v15.254h52.639v-15.254H191.983z"
         id="path219" />
      <linearGradient
         id="XMLID_8_"
         gradientUnits="userSpaceOnUse"
         x1="-213.5996"
         y1="199.833"
         x2="-213.5996"
         y2="193.049"
         gradientTransform="matrix(1 0 0 1 381.3623 0)">
        <stop
           offset="0"
           style="stop-color:#E3E3E3"
           id="stop221" />
        <stop
           offset="1"
           style="stop-color:#FFFFFF"
           id="stop222" />
        <a:midPointStop
           offset="0"
           style="stop-color:#E3E3E3"
           id="midPointStop223" />
        <a:midPointStop
           offset="0.5"
           style="stop-color:#E3E3E3"
           id="midPointStop224" />
        <a:midPointStop
           offset="1"
           style="stop-color:#FFFFFF"
           id="midPointStop225" />
      </linearGradient>
      <path
         style="fill:url(#XMLID_8_);stroke:none;"
         d="M143.542,200.896h48.441v-10.365h-48.441V200.896z"
         id="path226" />
      <path
         style="fill:#FFFFFF;stroke:none;"
         d="M55.886,187.796c0-4.621,3.758-8.367,8.393-8.367h135.579c-1.15-1.452-2.931-2.384-4.928-2.384H59.544     c-3.472,0-6.295,2.816-6.295,6.276v39.335c0,2.099,1.044,3.956,2.637,5.097V187.796z"
         id="path227" />
      <path
         style="opacity:0.9;fill:#F0F0F0;stroke:none;"
         d="M79.825,187.14H63.367v18.701h18.702V187.14H79.825z"
         id="path228" />
      <path
         style="fill:#7D7B7C;stroke:none;"
         d="M193.989,220.5h-133.5v-2h133.5V220.5z"
         id="path229" />
      <g
         id="g230">
        <path
           style="fill:#B5B5B5;stroke:none;"
           d="M65.241,193.597c0.672-0.088,1.548-0.132,2.46-0.132c1.548,0,2.556,0.185,3.324,0.617      c0.84,0.459,1.368,1.2,1.368,2.258c0,1.139-0.564,1.924-1.332,2.408c-0.852,0.521-2.16,0.768-3.744,0.768      c-0.948,0-1.632-0.044-2.076-0.088V193.597z M67.065,198.439c0.156,0.026,0.42,0.026,0.636,0.026      c1.668,0.009,2.76-0.661,2.76-2.081c0-1.279-0.984-1.888-2.568-1.888c-0.396,0-0.672,0.026-0.828,0.053V198.439z"
           id="path231" />
        <path
           style="fill:#B5B5B5;stroke:none;"
           d="M75.333,199.454l-2.592-5.945h2.004l0.984,2.514c0.276,0.715,0.528,1.385,0.72,2.126h0.036      c0.204-0.714,0.456-1.42,0.732-2.1l1.032-2.54h1.944l-2.724,5.945H75.333z"
           id="path232" />
      </g>
    </g>
  </g>
</svg>
