<?xml version="1.0" encoding="UTF-8" standalone="no"?>
<!DOCTYPE svg PUBLIC "-//W3C//DTD SVG 20010904//EN"
"http://www.w3.org/TR/2001/REC-SVG-20010904/DTD/svg10.dtd">
<!-- Created with Sodipodi ("http://www.sodipodi.com/") -->
<svg
   width="48pt"
   height="48pt"
   viewBox="0 0 256 256"
   style="overflow:visible;enable-background:new 0 0 256 256"
   xml:space="preserve"
   xmlns="http://www.w3.org/2000/svg"
   xmlns:xml="http://www.w3.org/XML/1998/namespace"
   xmlns:a="http://ns.adobe.com/AdobeSVGViewerExtensions/3.0/"
   xmlns:sodipodi="http://sodipodi.sourceforge.net/DTD/sodipodi-0.dtd"
   xmlns:xlink="http://www.w3.org/1999/xlink"
   id="svg153"
   sodipodi:version="0.32pre"
   sodipodi:docname="/home/cschalle/gnome-themes-extras/Lush/icons/scalable/filesystems/gnome-fs-trash-empty.svgz"
   sodipodi:docbase="/home/cschalle/gnome-themes-extras/Lush/icons/scalable/filesystems/">
  <defs
     id="defs209" />
  <sodipodi:namedview
     id="base" />
  <g
     id="Layer_2"
     style="stroke:#000000;">
    <path
       style="opacity:0.36;fill:none;stroke:none;"
       d="M256,256H0V0h256V256z"
       id="path155" />
  </g>
  <g
     id="Layer_1"
     style="stroke:#000000;">
    <linearGradient
       id="XMLID_1_"
       gradientUnits="userSpaceOnUse"
       x1="136.333"
       y1="204.4951"
       x2="136.333"
       y2="272.0503">
      <stop
         offset="0"
         style="stop-color:#000000"
         id="stop158" />
      <stop
         offset="1"
         style="stop-color:#999999"
         id="stop159" />
      <a:midPointStop
         offset="0"
         style="stop-color:#000000"
         id="midPointStop160" />
      <a:midPointStop
         offset="0.5"
         style="stop-color:#000000"
         id="midPointStop161" />
      <a:midPointStop
         offset="1"
         style="stop-color:#999999"
         id="midPointStop162" />
    </linearGradient>
    <path
       style="opacity:0.36;fill:url(#XMLID_1_);stroke:none;"
       d="M44.333,222.667c0,17.121,41.19,31,92.001,31c50.81,0,91.999-13.879,91.999-31s-41.189-31-91.999-31    C85.523,191.667,44.333,205.546,44.333,222.667z"
       id="path163" />
  </g>
  <g
     id="Layer_3"
     style="stroke:#000000;">
    <g
       id="g165">
      <path
         style="stroke:none;"
         d="M51.259,82.837l0.083,1.919l-0.083-0.473c0,0,1.216,126.097,1.968,126.097     c7.816,20.826,39.242,35.834,77.423,35.834c44.52,0,79.393-20.194,79.393-45.976c0-1.31-0.323-113.693-0.323-113.774     c0.161-1.224,0.323-2.454,0.323-3.627c0-25.781-34.873-45.977-79.393-45.977C86.132,36.861,51.259,57.057,51.259,82.837z      M130.65,59.673c28.355,0,46.658,9.205,53.462,17.006c-16.192,0-90.729,0-106.92,0C83.995,68.878,102.297,59.673,130.65,59.673z"
         id="path166" />
      <linearGradient
         id="XMLID_2_"
         gradientUnits="userSpaceOnUse"
         x1="73.6431"
         y1="84.6489"
         x2="190.8819"
         y2="201.8877">
        <stop
           offset="0"
           style="stop-color:#FFFFFF"
           id="stop168" />
        <stop
           offset="1"
           style="stop-color:#A3DAAF"
           id="stop169" />
        <a:midPointStop
           offset="0"
           style="stop-color:#FFFFFF"
           id="midPointStop170" />
        <a:midPointStop
           offset="0.5"
           style="stop-color:#FFFFFF"
           id="midPointStop171" />
        <a:midPointStop
           offset="1"
           style="stop-color:#A3DAAF"
           id="midPointStop172" />
      </linearGradient>
      <path
         style="fill:url(#XMLID_2_);stroke:none;"
         d="M202.082,86.425c0.208-1.182,0.324-2.377,0.324-3.587c0-21.193-32.126-38.374-71.756-38.374     c-39.629,0-71.754,17.181-71.754,38.374c0,0.486,0.034,0.965,0.069,1.446h-0.069v118.491h0.174     c2.443,20.008,33.547,35.837,71.58,35.837c39.63,0,71.756-17.182,71.756-38.372c0-1.21-0.116-2.406-0.324-3.586V86.425z      M66.533,82.837c0-14.554,26.333-30.769,64.117-30.769c37.788,0,64.121,16.214,64.121,30.769c0,0.48-0.034,0.962-0.093,1.446     H66.623C66.565,83.8,66.533,83.318,66.533,82.837z"
         id="path173" />
      <linearGradient
         id="XMLID_3_"
         gradientUnits="userSpaceOnUse"
         x1="58.8965"
         y1="161.4473"
         x2="202.4063"
         y2="161.4473">
        <stop
           offset="0"
           style="stop-color:#FFFFFF"
           id="stop175" />
        <stop
           offset="1"
           style="stop-color:#A3DAAF"
           id="stop176" />
        <a:midPointStop
           offset="0"
           style="stop-color:#FFFFFF"
           id="midPointStop177" />
        <a:midPointStop
           offset="0.5"
           style="stop-color:#FFFFFF"
           id="midPointStop178" />
        <a:midPointStop
           offset="1"
           style="stop-color:#A3DAAF"
           id="midPointStop179" />
      </linearGradient>
      <path
         style="fill:url(#XMLID_3_);stroke:none;"
         d="M202.082,196.653V84.284H58.896v118.491h0.174c2.443,20.008,33.547,35.837,71.58,35.837     c39.63,0,71.756-17.182,71.756-38.372C202.406,199.029,202.29,197.833,202.082,196.653z"
         id="path180" />
      <linearGradient
         id="XMLID_4_"
         gradientUnits="userSpaceOnUse"
         x1="58.8965"
         y1="161.4473"
         x2="202.4063"
         y2="161.4473">
        <stop
           offset="0"
           style="stop-color:#FFFFFF"
           id="stop182" />
        <stop
           offset="0.0393"
           style="stop-color:#F0F9E3"
           id="stop183" />
        <stop
           offset="1"
           style="stop-color:#A3DAAF"
           id="stop184" />
        <a:midPointStop
           offset="0"
           style="stop-color:#FFFFFF"
           id="midPointStop185" />
        <a:midPointStop
           offset="0.5"
           style="stop-color:#FFFFFF"
           id="midPointStop186" />
        <a:midPointStop
           offset="0.0393"
           style="stop-color:#F0F9E3"
           id="midPointStop187" />
        <a:midPointStop
           offset="0.5"
           style="stop-color:#F0F9E3"
           id="midPointStop188" />
        <a:midPointStop
           offset="1"
           style="stop-color:#A3DAAF"
           id="midPointStop189" />
      </linearGradient>
      <path
         style="fill:url(#XMLID_4_);stroke:none;"
         d="M202.082,196.653V84.284H58.896v118.491h0.174c2.443,20.008,33.547,35.837,71.58,35.837     c39.63,0,71.756-17.182,71.756-38.372C202.406,199.029,202.29,197.833,202.082,196.653z"
         id="path190" />
      <linearGradient
         id="XMLID_5_"
         gradientUnits="userSpaceOnUse"
         x1="153.5957"
         y1="101.3687"
         x2="78.174"
         y2="40.4515">
        <stop
           offset="0"
           style="stop-color:#5AB97F"
           id="stop192" />
        <stop
           offset="1"
           style="stop-color:#097B61"
           id="stop193" />
        <a:midPointStop
           offset="0"
           style="stop-color:#5AB97F"
           id="midPointStop194" />
        <a:midPointStop
           offset="0.5"
           style="stop-color:#5AB97F"
           id="midPointStop195" />
        <a:midPointStop
           offset="1"
           style="stop-color:#097B61"
           id="midPointStop196" />
      </linearGradient>
      <path
         style="fill:url(#XMLID_5_);stroke:none;"
         d="M66.533,82.837c0,14.554,26.333,30.77,64.117,30.77c37.788,0,64.121-16.215,64.121-30.77     s-26.333-30.769-64.121-30.769C92.866,52.069,66.533,68.283,66.533,82.837z"
         id="path197" />
      <path
         style="fill:#FFFFFF;stroke:none;"
         d="M132.403,114.059l2.498-0.439C134.901,113.62,133.971,113.674,132.403,114.059z M132.403,114.059     l-13.729,2.412h-9.068c0,0-23.864-14.732-27.683-5.227c-6.286,17.106-3.006,96.836-2.112,116.054     c4.958,2.667,10.641,4.943,16.881,6.738c-0.233-6.45-0.539-14.349-0.927-23.939C92.505,129.811,123.292,116.297,132.403,114.059z     "
         id="path198" />
      <path
         style="opacity:0.8;fill:#FFFFFF;stroke:none;"
         d="M69.99,97.937c0,0-3.195,99.396-2.278,120.716c1.54,1.501,3.254,2.945,5.145,4.316     c0.027-16.846,0.348-119.65,4.292-117.904C81.445,106.966,69.99,97.937,69.99,97.937z"
         id="path199" />
      <linearGradient
         id="XMLID_6_"
         gradientUnits="userSpaceOnUse"
         x1="95.6855"
         y1="47.8716"
         x2="168.9984"
         y2="121.1845">
        <stop
           offset="0"
           style="stop-color:#BDE5C3"
           id="stop201" />
        <stop
           offset="1"
           style="stop-color:#74C58C"
           id="stop202" />
        <a:midPointStop
           offset="0"
           style="stop-color:#BDE5C3"
           id="midPointStop203" />
        <a:midPointStop
           offset="0.5"
           style="stop-color:#BDE5C3"
           id="midPointStop204" />
        <a:midPointStop
           offset="1"
           style="stop-color:#74C58C"
           id="midPointStop205" />
      </linearGradient>
      <path
         style="fill:url(#XMLID_6_);stroke:none;"
         d="M130.65,44.464c-39.629,0-71.754,17.181-71.754,38.374c0,21.193,32.125,38.374,71.754,38.374     c39.63,0,71.756-17.181,71.756-38.374C202.406,61.645,170.28,44.464,130.65,44.464z M130.65,113.607     c-37.784,0-64.117-16.215-64.117-30.77s26.333-30.769,64.117-30.769c37.788,0,64.121,16.214,64.121,30.769     S168.438,113.607,130.65,113.607z"
         id="path206" />
      <path
         style="fill:#FFFFFF;stroke:none;"
         d="M130.65,47.316c39.177,0,70.995,16.166,71.723,36.248c0.007-0.241,0.033-0.483,0.033-0.727     c0-21.193-32.126-38.374-71.756-38.374c-39.629,0-71.754,17.181-71.754,38.374c0,0.243,0.026,0.485,0.034,0.727     C59.658,63.482,91.479,47.316,130.65,47.316z M194.771,84.264c0-0.233-0.026-0.466-0.042-0.7     c-0.854,14.362-26.917,30.043-64.079,30.043c-37.158,0-63.222-15.681-64.077-30.043c-0.015,0.234-0.041,0.467-0.041,0.7     c0,14.013,26.333,29.625,64.117,29.625C168.438,113.889,194.771,98.276,194.771,84.264z"
         id="path207" />
    </g>
  </g>
</svg>
