<?xml version="1.0" encoding="UTF-8" standalone="no"?>
<!DOCTYPE svg PUBLIC "-//W3C//DTD SVG 20010904//EN"
"http://www.w3.org/TR/2001/REC-SVG-20010904/DTD/svg10.dtd">
<!-- Created with Sodipodi ("http://www.sodipodi.com/") -->
<svg
   width="48pt"
   height="48pt"
   viewBox="0 0 256 256"
   style="overflow:visible;enable-background:new 0 0 256 256"
   xml:space="preserve"
   xmlns="http://www.w3.org/2000/svg"
   xmlns:xml="http://www.w3.org/XML/1998/namespace"
   xmlns:a="http://ns.adobe.com/AdobeSVGViewerExtensions/3.0/"
   xmlns:sodipodi="http://sodipodi.sourceforge.net/DTD/sodipodi-0.dtd"
   xmlns:xlink="http://www.w3.org/1999/xlink"
   id="svg153"
   sodipodi:version="0.32pre"
   sodipodi:docname="/home/cschalle/gnome-themes-extras/Lush/icons/scalable/filesystems/gnome-fs-web.svgz"
   sodipodi:docbase="/home/cschalle/gnome-themes-extras/Lush/icons/scalable/filesystems/">
  <defs
     id="defs201" />
  <sodipodi:namedview
     id="base" />
  <g
     id="Layer_2"
     style="stroke:#000000;">
    <path
       style="fill:none;stroke:none;"
       d="M256,256H0V0h256V256z"
       id="path155" />
  </g>
  <g
     id="Layer_1"
     style="stroke:#000000;">
    <path
       style="fill:none;stroke:none;"
       d="M38.847,80.402c-0.013-0.475-0.05-0.941-0.05-1.419c0-1.496,0.103-2.977,0.249-4.446    c-2.679,3.667-4.778,10.471-4.516,12.208l0.689,4.632c-2.071,1.651-3.127,5.991-1.034,6.604c3.578,1.045,7.082,2.24,10.403,3.473    c-3.149-5.904-5.104-12.229-5.633-18.829c-0.761-0.842-1.313-1.489-1.313-1.489l1.204-0.737L38.847,80.402z"
       id="path157" />
    <path
       style="stroke:none;"
       d="M38.957,82.628c-0.061-0.737-0.083-1.482-0.109-2.226"
       id="path158" />
    <linearGradient
       id="XMLID_1_"
       gradientUnits="userSpaceOnUse"
       x1="132.2734"
       y1="239.666"
       x2="132.2734"
       y2="261.6656">
      <stop
         offset="0"
         style="stop-color:#000000"
         id="stop160" />
      <stop
         offset="1"
         style="stop-color:#999999"
         id="stop161" />
      <a:midPointStop
         offset="0"
         style="stop-color:#000000"
         id="midPointStop162" />
      <a:midPointStop
         offset="0.5"
         style="stop-color:#000000"
         id="midPointStop163" />
      <a:midPointStop
         offset="1"
         style="stop-color:#999999"
         id="midPointStop164" />
    </linearGradient>
    <path
       style="opacity:0.36;fill:url(#XMLID_1_);stroke:none;"
       d="M35.607,231.333c0,11.598,43.279,21,96.667,21c53.388,0,96.667-9.402,96.667-21s-43.279-21-96.667-21    C78.886,210.333,35.607,219.735,35.607,231.333z"
       id="path165" />
    <g
       id="g166">
      <path
         style="fill:none;stroke:none;"
         d="M256,252.188H9.216V5.402H256V252.188z"
         id="path167" />
      <path
         style="fill:#0A0701;stroke:none;"
         d="M8.547,123.236c0,65.4,53.129,118.609,118.434,118.609c65.31,0,118.443-53.209,118.443-118.609     C245.425,58.041,192.291,5,126.981,5C61.676,5.002,8.547,58.042,8.547,123.236z"
         id="path168" />
      <radialGradient
         id="XMLID_2_"
         cx="-108.6909"
         cy="412.4248"
         r="138.5231"
         fx="-108.6909"
         fy="412.4248"
         gradientTransform="matrix(1.1009 0 0 -1.0433 241.2153 627.9246)"
         gradientUnits="userSpaceOnUse">
        <stop
           offset="0"
           style="stop-color:#DDDDE8"
           id="stop170" />
        <stop
           offset="0.3034"
           style="stop-color:#C6C9DB"
           id="stop171" />
        <stop
           offset="1"
           style="stop-color:#9497BB"
           id="stop172" />
        <a:midPointStop
           offset="0"
           style="stop-color:#DDDDE8"
           id="midPointStop173" />
        <a:midPointStop
           offset="0.5"
           style="stop-color:#DDDDE8"
           id="midPointStop174" />
        <a:midPointStop
           offset="0.3034"
           style="stop-color:#C6C9DB"
           id="midPointStop175" />
        <a:midPointStop
           offset="0.5"
           style="stop-color:#C6C9DB"
           id="midPointStop176" />
        <a:midPointStop
           offset="1"
           style="stop-color:#9497BB"
           id="midPointStop177" />
      </radialGradient>
      <path
         style="fill:url(#XMLID_2_);stroke:none;"
         d="M126.981,233.278c60.665,0,109.874-49.415,109.874-110.042c0-60.241-49.207-109.667-109.874-109.667     C66.749,13.571,17.116,62.996,17.116,123.236C17.116,183.861,66.749,233.278,126.981,233.278z"
         id="path178" />
      <radialGradient
         id="XMLID_3_"
         cx="-127.0229"
         cy="510.2549"
         r="145.8222"
         fx="-127.0229"
         fy="510.2549"
         gradientTransform="matrix(1 0 0 -1 224.5 604.5)"
         gradientUnits="userSpaceOnUse">
        <stop
           offset="0"
           style="stop-color:#6095C1"
           id="stop180" />
        <stop
           offset="0.5562"
           style="stop-color:#567EB9"
           id="stop181" />
        <stop
           offset="1"
           style="stop-color:#0E2B8D"
           id="stop182" />
        <a:midPointStop
           offset="0"
           style="stop-color:#6095C1"
           id="midPointStop183" />
        <a:midPointStop
           offset="0.5"
           style="stop-color:#6095C1"
           id="midPointStop184" />
        <a:midPointStop
           offset="0.5562"
           style="stop-color:#567EB9"
           id="midPointStop185" />
        <a:midPointStop
           offset="0.5"
           style="stop-color:#567EB9"
           id="midPointStop186" />
        <a:midPointStop
           offset="1"
           style="stop-color:#0E2B8D"
           id="midPointStop187" />
      </radialGradient>
      <path
         style="fill:url(#XMLID_3_);stroke:none;"
         d="M90.487,25.654c-0.543,0-1.138,0.223-1.747,0.567C90.17,25.803,90.845,25.654,90.487,25.654z      M125.863,32.557l0.356-5.177l-5.463,0.346l0.727,4.831H125.863z M64.23,121.988c-1.097-1.035-0.363-5.525-0.363-5.525     s-16.413-8.626-34.283-13.811c-2.205-0.639-1.091-5.176,1.089-6.898l-0.727-4.848c-0.362-2.41,3.65-14.147,7.662-15.179     c4.011-1.042-0.366,6.901-0.366,6.901l-4.011,2.417c0,0,4.739,5.521,5.838,5.521c1.092,0,2.915-2.764,2.915-2.764l-5.105-3.443     l4.742-2.078l0.298-1.822l0.795-0.251l7.849-11.887c5.424-2.221,12.091-4.969,12.938-5.375     c1.459-0.686,11.669-6.552,13.493-7.935c1.828-1.387,5.833-1.036,7.288-1.036c1.464,0,3.651-0.692,4.015-4.497     c0.365-3.796,1.825-4.489,2.92-3.45c1.093,1.03-1.098,2.759,1.458,3.45c2.554,0.694,4.737,2.42,6.563,0.694     c1.335-1.266-0.451-2.704-1.653-3.793h20.25l2.191-6.224l-4.74-0.688l-17.512-1.726v-2.072l-1.396,0.234     c1.895-10.417,13.157-8.699,4.681-14.731c-0.517-0.369-7.931,11.686-9.818,11.453c-3.418-0.452-7.838-0.486-8.781,0.625     c-1.241,1.467,2.797-5.05,6.277-7.028c-5.552,1.639-23.098,7.641-41.651,27.401C29.353,72.515,22.285,97.965,22.285,98.855     c0,1.723,3.649,2.416,4.013,4.491c0.365,2.063-6.925,8.974-6.925,12.425c0,1.592-1.722,22.874,4.371,40.403     c7.116,20.462,22.305,37.549,24.071,38.672l3.643-1.732c0,0-8.387-14.846-8.749-16.23c-0.363-1.373,9.482-21.405,14.222-20.709     c4.739,0.682,3.648,2.071,6.566,0.344c2.917-1.725,4.738-15.888,8.021-17.261c3.285-1.388,6.928-3.111,6.57-6.563     C77.719,129.233,65.321,123.027,64.23,121.988z M143.365,20.475l-9.844-3.457l1.824,5.53L143.365,20.475z M106.532,33.25     c1.096,0,22.977-14.496,20.787-14.848c-2.184-0.342-2.551,0-8.392-0.689c-5.832-0.693-12.037,8.288-13.492,9.67     c-1.454,1.385-0.965,5.868,1.095,5.868H106.532z M206.939,137.359l2.825-3.664l-2.825-0.994l-2.115,2.664l-2.469,3.653     l2.115,1.002L206.939,137.359z M219.293,149.347l-0.708-5.326h-4.582l-0.353,3.985l-4.244-0.655l-1.051-4.333l-2.117-1.326     l-2.476,2.991l-2.464-0.662l-0.712,2.323l2.825,0.673v21.628l9.991,2.403c-0.228,0.402-0.403,0.737-0.462,0.919     c-0.711,2.334,2.82,3.338,5.289,2.334c0.921-0.371,3.824-3.307,5.647-7.647c2.544-6.047,4.767-14.032,5.212-16.858l1.145-2.443     l-7.062,2.661l-3.882-0.663L219.293,149.347z M234.119,109.076l-1.842-3.57c-2.185-12.306-7.189-28.069-17.92-44.353     c-16.147-24.477-61.073-38.596-61.073-38.596l-2.467,2.987l-1.413-2.321l-3.531-1.338v2.996l3.181,2.666l-2.119,0.998     l-8.12,0.663l-18.354,9.986l1.761,7.984l-2.12,0.671l-1.053,1.66l6.001,8.98l0.353,3.001l-4.94,0.996v5.987l-2.82,0.664     l0.353,4.662L93.986,90.445l0.706,9.31c1.764,2.332,15.535,16.313,15.535,16.313s15.879,0.657,19.411-1.334     c3.531-1.996,1.059,1.994,2.12,2.994c1.055,1.004,1.411,7.984,2.468,8.654c1.057,0.664,0,4.654,1.411,5.99     c1.411,1.322,1.411,17.308,1.411,17.308s8.473,14.302,8.473,17.965c0,3.66-0.353,3.327,6.355,2.998     c6.708-0.333,8.115-2.998,9.525-3.988c1.417-1.004,1.417-3.332,2.83-5.333c1.413-1.999,3.877-9.65,7.058-12.308     c3.177-2.668,11.648-4.666,12.351-9.321c0.707-4.659,3.883-8.321,3.883-8.321l15.263-16.145l-0.432,2.173L202,125.711l4.589-1.66     l-0.351-8.991l-1.649-1.743l0.235-0.253c0,0-1.062-1.992-2.469-1.992c-1.413,0-9.889,1.992-11.298,1.664     c-1.413-0.336-7.418-16.311-8.477-16.968c-1.058-0.667-7.763-11.652-7.763-11.652s15.53,18.64,18.001,25.956     c1.435,4.261,6.82,0.294,11.203-4.154l1.157,2.825l2.821-0.671l-0.353-3.327h3.178v4.993l-1.062,2.662l-0.361,4.325l2.826,2.667     l1.418-2.325l4.58-4.33l5.298-2.665l1.412,2.665l0.709,3.662l-1.417,3.99l-2.823,2.331l-1.41,5.991v2.987l-3.173-1.993     l-0.354-6.317l-4.587,0.335l-2.118,5.647l3.177,4.668l7.409,0.998l6.006-5.666l0.704-10.972l2.667-3.525     c1.741,4.471,2.983,9.151,2.983,13.509c0,4.778,2.185-3.312,0.326-17.883l1.082-1.422V109.076z M145.168,75.134l-19.061-0.675     l8.113-6.653h4.237l6.708,4.655v2.671L145.168,75.134z M168.468,72.804v2.995h-8.118l0.707,1.999l-4.945,0.671l-0.353,1.659     l-3.529-0.663l-6.355-1.336l1.061-1.66l1.061-2.006l3.528-3.655l1.413,2.665l5.298-0.334l2.822-2.996l10.938,1.996l-3.525,0.669     L168.468,72.804z M169.168,68.474l-4.232,0.664l-0.704-2.998l5.286-0.661l0.711-2.994l3.889,3.999l-4.949,1.989V68.474z      M189.645,171.962l-2.475,1.999l0.353,4.999h3.18v-4.322l2.825-3.667v-7.652l-1.765-0.342l-2.115,8.985H189.645z M166,161.992     c0,0-2.474,0.652,0.349,1.656c2.819,1.004,14.116-16.298,14.116-16.298l-9.53,5.982l-4.938,8.659H166z M146.784,225.77     l-2.111-2.01l-4.236-0.675l-0.705,2.016l-5.645-0.662l-0.353-2.683h-4.233l-4.588,2.683H116.8l-0.702-2.019l-13.054-1.346     l-2.12,2.011l-5.29-1.331l-0.704-4.7l-2.469-0.34l-2.824,5.04l-9.522-0.34c1.701,0.808,15.928,9.292,37.741,11.07     c28.928,2.336,42.689-4.699,42.689-4.699l-1.06-1.009l-12.701-1.004V225.77z"
         id="path188" />
      <path
         style="stroke:none;"
         d="M180.832,148.077"
         id="path189" />
      <path
         style="stroke:none;"
         d="M119.296,17.37c-0.678-0.08-1.358-0.02-2.039,0.137c0.721-0.047,1.44-0.085,2.163-0.12     c-0.045-0.005-0.076-0.011-0.124-0.016V17.37z"
         id="path190" />
      <path
         style="stroke:none;"
         d="M90.854,25.38c-0.544,0-1.143,0.223-1.75,0.571C90.533,25.527,91.21,25.38,90.854,25.38z"
         id="path191" />
      <radialGradient
         id="XMLID_4_"
         cx="69.4829"
         cy="32.54"
         r="159.6564"
         fx="69.4829"
         fy="32.54"
         gradientUnits="userSpaceOnUse">
        <stop
           offset="0"
           style="stop-color:#F0F0F0"
           id="stop193" />
        <stop
           offset="1"
           style="stop-color:#C6C9DB"
           id="stop194" />
        <a:midPointStop
           offset="0"
           style="stop-color:#F0F0F0"
           id="midPointStop195" />
        <a:midPointStop
           offset="0.5"
           style="stop-color:#F0F0F0"
           id="midPointStop196" />
        <a:midPointStop
           offset="1"
           style="stop-color:#C6C9DB"
           id="midPointStop197" />
      </radialGradient>
      <path
         style="opacity:0.5;fill:url(#XMLID_4_);stroke:none;"
         d="M220.878,66.411c-19.287-31.601-54.129-52.842-93.896-52.842C66.749,13.571,17.116,62.996,17.116,123.236     c0,1.56,0.053,3.107,0.119,4.652c18.207,4.422,38.396,6.904,59.675,6.904C150.998,134.793,212.072,104.945,220.878,66.411z"
         id="path198" />
      <path
         style="opacity:0.6;fill:#F0F0F0;stroke:none;"
         d="M231.715,128.377c0-9.74-1.474-19.14-4.189-28.004c0.124,2.317,0.197,4.649,0.197,7     c0,52.134-30.585,96.803-74.06,115.599C198.056,214.455,231.715,175.29,231.715,128.377z"
         id="path199" />
    </g>
  </g>
</svg>
