<?xml version="1.0" encoding="UTF-8" standalone="no"?>
<!DOCTYPE svg PUBLIC "-//W3C//DTD SVG 20010904//EN"
"http://www.w3.org/TR/2001/REC-SVG-20010904/DTD/svg10.dtd">
<!-- Created with Sodipodi ("http://www.sodipodi.com/") -->
<svg
   i:viewOrigin="178 524"
   i:rulerOrigin="-178 -268"
   i:pageBounds="178 524 434 268"
   width="48pt"
   height="48pt"
   viewBox="0 0 256 256"
   style="overflow:visible;enable-background:new 0 0 256 256"
   xml:space="preserve"
   xmlns="http://www.w3.org/2000/svg"
   xmlns:ns="&amp;ns_vars;"
   xmlns:i="&amp;ns_ai;"
   xmlns:xml="http://www.w3.org/XML/1998/namespace"
   xmlns:a="http://ns.adobe.com/AdobeSVGViewerExtensions/3.0/"
   xmlns:sodipodi="http://sodipodi.sourceforge.net/DTD/sodipodi-0.dtd"
   xmlns:xlink="http://www.w3.org/1999/xlink"
   id="svg153"
   sodipodi:version="0.32pre"
   sodipodi:docname="/home/cschalle/gnome-themes-extras/Lush/icons/scalable/mimetypes/gnome-mime-audio-x-midi.svgz"
   sodipodi:docbase="/home/cschalle/gnome-themes-extras/Lush/icons/scalable/mimetypes/">
  <defs
     id="defs242" />
  <sodipodi:namedview
     id="base" />
  <metadata
     id="metadata154">
    <ns:variableSets>
      <ns:variableSet
         varSetName="binding1"
         locked="none">
        <ns:variables />
        <ns:sampleDataSets />
      </ns:variableSet>
    </ns:variableSets>
  </metadata>
  <g
     id="Layer_1"
     i:layer="yes"
     i:dimmedPercent="50"
     i:rgbTrio="#4F008000FFFF"
     style="stroke:#000000;">
    <linearGradient
       id="XMLID_1_"
       gradientUnits="userSpaceOnUse"
       x1="131.2803"
       y1="242.2021"
       x2="131.2803"
       y2="225.9855">
      <stop
         offset="0"
         style="stop-color:#CCCCCC"
         id="stop157" />
      <stop
         offset="1"
         style="stop-color:#000000"
         id="stop158" />
      <a:midPointStop
         offset="0"
         style="stop-color:#CCCCCC"
         id="midPointStop159" />
      <a:midPointStop
         offset="0.5"
         style="stop-color:#CCCCCC"
         id="midPointStop160" />
      <a:midPointStop
         offset="1"
         style="stop-color:#000000"
         id="midPointStop161" />
    </linearGradient>
    <path
       i:knockout="Off"
       style="opacity:0.36;fill:url(#XMLID_1_);stroke:none;"
       d="M21.45,228.51c-1.577,8.76,46.318,16.188,106.977,16.592    c60.658,0.402,111.107-6.375,112.685-15.134c1.576-8.759-46.316-16.187-106.975-16.589    C73.478,212.976,23.026,219.751,21.45,228.51z"
       id="path162" />
    <path
       i:knockout="Off"
       style="stroke:none;"
       d="M222.378,44.725L106.815,33.279l0.824,0.114c-12.484-2.223-31.43,10.05-34.033,17.923    l0.215-0.547L10.899,188.715l-0.092,0.278c-2.847,8.613,3.999,17.251,15.257,19.255l134.77,23.995    c11.258,2.004,22.734-3.372,25.58-11.984l51.628-156.205c2.847-8.613-3.998-17.251-15.256-19.256L222.378,44.725z"
       id="path163" />
    <linearGradient
       id="XMLID_2_"
       gradientUnits="userSpaceOnUse"
       x1="101.2012"
       y1="49.4717"
       x2="130.5948"
       y2="153.5337">
      <stop
         offset="0"
         style="stop-color:#D4D4D4"
         id="stop165" />
      <stop
         offset="1"
         style="stop-color:#F0F0F0"
         id="stop166" />
      <a:midPointStop
         offset="0"
         style="stop-color:#D4D4D4"
         id="midPointStop167" />
      <a:midPointStop
         offset="0.5"
         style="stop-color:#D4D4D4"
         id="midPointStop168" />
      <a:midPointStop
         offset="1"
         style="stop-color:#F0F0F0"
         id="midPointStop169" />
    </linearGradient>
    <path
       i:knockout="Off"
       style="fill:url(#XMLID_2_);stroke:none;"
       d="M17.192,189.302c-1.711,5.178,2.388,10.348,9.154,11.554l134.769,23.994    c6.767,1.204,13.638-2.014,15.349-7.191l51.627-156.203c1.711-5.177-2.388-10.35-9.153-11.555L103.789,38.497    c-6.766-1.205-22.087,7.953-23.797,13.129L17.192,189.302z"
       id="path170" />
    <path
       i:knockout="Off"
       style="fill:none;stroke:none;"
       d="M19.313,192.584L82.112,54.909c1.711-5.177,17.033-14.334,23.798-13.129l117.878,9.91    c-1.382-0.833-3.015-1.461-4.851-1.788L103.789,38.497c-6.766-1.205-22.087,7.953-23.797,13.129l-62.8,137.676    c-0.975,2.951-0.057,5.901,2.164,8.116C18.818,195.892,18.765,194.24,19.313,192.584z"
       id="path171" />
    <g
       i:knockout="Off"
       id="g172" />
    <path
       i:knockout="Off"
       style="fill:#C2C2C2;stroke:none;"
       d="M170.909,211.829c-1.711,5.177-8.582,8.396-15.349,7.191l-90.616-11.294l96.17,17.123    c6.767,1.204,13.638-2.014,15.349-7.191l46.879-141.839L170.909,211.829z"
       id="path173" />
    <radialGradient
       id="XMLID_3_"
       cx="122.9863"
       cy="61.2827"
       r="7.46"
       fx="122.9863"
       fy="61.2827"
       gradientTransform="matrix(0.8964 0.0346 -0.3107 1.1036 32.3881 -10.5311)"
       gradientUnits="userSpaceOnUse">
      <stop
         offset="0.8595"
         style="stop-color:#C2C2C2"
         id="stop175" />
      <stop
         offset="1"
         style="stop-color:#000000"
         id="stop176" />
      <a:midPointStop
         offset="0.8595"
         style="stop-color:#C2C2C2"
         id="midPointStop177" />
      <a:midPointStop
         offset="0.5"
         style="stop-color:#C2C2C2"
         id="midPointStop178" />
      <a:midPointStop
         offset="1"
         style="stop-color:#000000"
         id="midPointStop179" />
    </radialGradient>
    <path
       i:knockout="Off"
       style="fill:url(#XMLID_3_);stroke:none;"
       d="M116.158,59.226c-1.259,4.127,0.663,7.579,4.294,7.708c3.63,0.13,7.594-3.113,8.852-7.241    c1.259-4.128-0.666-7.579-4.294-7.708C121.378,51.855,117.416,55.097,116.158,59.226z"
       id="path180" />
    <radialGradient
       id="XMLID_4_"
       cx="183.2773"
       cy="65.5967"
       r="8.1347"
       fx="183.2773"
       fy="65.5967"
       gradientTransform="matrix(0.8964 0.0346 -0.3107 1.1036 32.3881 -10.5311)"
       gradientUnits="userSpaceOnUse">
      <stop
         offset="0.8595"
         style="stop-color:#C2C2C2"
         id="stop182" />
      <stop
         offset="1"
         style="stop-color:#000000"
         id="stop183" />
      <a:midPointStop
         offset="0.8595"
         style="stop-color:#C2C2C2"
         id="midPointStop184" />
      <a:midPointStop
         offset="0.5"
         style="stop-color:#C2C2C2"
         id="midPointStop185" />
      <a:midPointStop
         offset="1"
         style="stop-color:#000000"
         id="midPointStop186" />
    </radialGradient>
    <path
       i:knockout="Off"
       style="fill:url(#XMLID_4_);stroke:none;"
       d="M168.191,65.88c-1.373,4.5,0.723,8.264,4.682,8.405c3.958,0.142,8.28-3.395,9.652-7.896    c1.372-4.501-0.726-8.264-4.683-8.405C173.884,57.843,169.563,61.378,168.191,65.88z"
       id="path187" />
    <path
       i:knockout="Off"
       style="stroke:none;"
       d="M118.663,51c0-11.875,7.377-21.5,16.478-21.5c3.754,0,6.589,7.242,9.359,10    c-2.61-7.379-4.61-18.5-13.021-18C122.941,22.008,116,32.021,116,45c0,7.096,2.075,13.452,5.35,17.761    C119.653,59.381,118.663,55.342,118.663,51z"
       id="path188" />
    <path
       i:knockout="Off"
       style="stroke:none;"
       d="M170.663,56c0-11.875,7.378-21.5,16.478-21.5c3.754,0,6.589,7.242,9.359,10    c-2.61-7.379-4.61-18.5-13.021-18C174.941,27.008,168,37.021,168,50c0,7.096,2.074,13.452,5.35,17.761    C171.652,64.381,170.663,60.342,170.663,56z"
       id="path189" />
    <path
       i:knockout="Off"
       style="stroke:none;"
       d="M102.022,157.939c0,5.929-4.303,10.736-9.61,10.736H14.337    c-5.307,0-9.609-4.808-9.609-10.736V31.345c0-5.93,4.303-10.736,9.609-10.736h78.075c5.307,0,9.61,4.807,9.61,10.736V157.939z"
       id="path190" />
    <path
       i:knockout="Off"
       style="opacity:0.36;fill:#999999;stroke:none;"
       d="M79.992,51.626L21.03,180.887c1.521,1.129,3.345,1.789,5.307,1.789h78.075    c5.307,0,9.61-4.808,9.61-10.736V45.345c0-2.221-0.604-4.284-1.638-5.997l-8.595-0.851C97.023,37.292,81.702,46.45,79.992,51.626z    "
       id="path191" />
    <linearGradient
       id="XMLID_5_"
       gradientUnits="userSpaceOnUse"
       x1="93.5"
       y1="94.6421"
       x2="-17.0002"
       y2="94.6421">
      <stop
         offset="0"
         style="stop-color:#FFFFFF"
         id="stop193" />
      <stop
         offset="1"
         style="stop-color:#F0EBE6"
         id="stop194" />
      <a:midPointStop
         offset="0"
         style="stop-color:#FFFFFF"
         id="midPointStop195" />
      <a:midPointStop
         offset="0.5"
         style="stop-color:#FFFFFF"
         id="midPointStop196" />
      <a:midPointStop
         offset="1"
         style="stop-color:#F0EBE6"
         id="midPointStop197" />
    </linearGradient>
    <path
       i:knockout="Off"
       style="fill:url(#XMLID_5_);stroke:none;"
       d="M96.125,161.893h-85.5V27.392h85.5V161.893z"
       id="path198" />
    <path
       i:knockout="Off"
       style="stroke:none;"
       d="M61,49.5H10.5v-13H61V49.5z"
       id="path199" />
    <path
       i:knockout="Off"
       style="stroke:none;"
       d="M61,73H10.5V60H61V73z"
       id="path200" />
    <path
       i:knockout="Off"
       style="stroke:none;"
       d="M61,96.5H10.5v-13H61V96.5z"
       id="path201" />
    <path
       i:knockout="Off"
       style="stroke:none;"
       d="M61,154.5H10.5v-13H61V154.5z"
       id="path202" />
    <path
       i:knockout="Off"
       style="stroke:none;"
       d="M61,131H10.5v-13H61V131z"
       id="path203" />
    <linearGradient
       id="XMLID_6_"
       gradientUnits="userSpaceOnUse"
       x1="29.1245"
       y1="131.126"
       x2="49.8739"
       y2="110.3766">
      <stop
         offset="0"
         style="stop-color:#000000"
         id="stop205" />
      <stop
         offset="1"
         style="stop-color:#FFFFFF"
         id="stop206" />
      <a:midPointStop
         offset="0"
         style="stop-color:#000000"
         id="midPointStop207" />
      <a:midPointStop
         offset="0.5"
         style="stop-color:#000000"
         id="midPointStop208" />
      <a:midPointStop
         offset="1"
         style="stop-color:#FFFFFF"
         id="midPointStop209" />
    </linearGradient>
    <path
       i:knockout="Off"
       style="fill:url(#XMLID_6_);stroke:none;"
       d="M13.5,121c0,2.485,0,4.515,0,7c4.973,0,39.527,0,44.5,0c0-2.485,0-4.515,0-7    C53.027,121,18.473,121,13.5,121z"
       id="path210" />
    <linearGradient
       id="XMLID_7_"
       gradientUnits="userSpaceOnUse"
       x1="29.125"
       y1="154.126"
       x2="49.8744"
       y2="133.3766">
      <stop
         offset="0"
         style="stop-color:#000000"
         id="stop212" />
      <stop
         offset="1"
         style="stop-color:#FFFFFF"
         id="stop213" />
      <a:midPointStop
         offset="0"
         style="stop-color:#000000"
         id="midPointStop214" />
      <a:midPointStop
         offset="0.5"
         style="stop-color:#000000"
         id="midPointStop215" />
      <a:midPointStop
         offset="1"
         style="stop-color:#FFFFFF"
         id="midPointStop216" />
    </linearGradient>
    <path
       i:knockout="Off"
       style="fill:url(#XMLID_7_);stroke:none;"
       d="M13.5,144c0,2.485,0,4.515,0,7c4.973,0,39.527,0,44.5,0c0-2.485,0-4.515,0-7    C53.027,144,18.473,144,13.5,144z"
       id="path217" />
    <linearGradient
       id="XMLID_8_"
       gradientUnits="userSpaceOnUse"
       x1="29.125"
       y1="96.126"
       x2="49.8744"
       y2="75.3766">
      <stop
         offset="0"
         style="stop-color:#000000"
         id="stop219" />
      <stop
         offset="1"
         style="stop-color:#FFFFFF"
         id="stop220" />
      <a:midPointStop
         offset="0"
         style="stop-color:#000000"
         id="midPointStop221" />
      <a:midPointStop
         offset="0.5"
         style="stop-color:#000000"
         id="midPointStop222" />
      <a:midPointStop
         offset="1"
         style="stop-color:#FFFFFF"
         id="midPointStop223" />
    </linearGradient>
    <path
       i:knockout="Off"
       style="fill:url(#XMLID_8_);stroke:none;"
       d="M13.5,86c0,2.485,0,4.515,0,7c4.973,0,39.527,0,44.5,0c0-2.485,0-4.515,0-7    C53.027,86,18.473,86,13.5,86z"
       id="path224" />
    <linearGradient
       id="XMLID_9_"
       gradientUnits="userSpaceOnUse"
       x1="29.125"
       y1="73.126"
       x2="49.8744"
       y2="52.3766">
      <stop
         offset="0"
         style="stop-color:#000000"
         id="stop226" />
      <stop
         offset="1"
         style="stop-color:#FFFFFF"
         id="stop227" />
      <a:midPointStop
         offset="0"
         style="stop-color:#000000"
         id="midPointStop228" />
      <a:midPointStop
         offset="0.5"
         style="stop-color:#000000"
         id="midPointStop229" />
      <a:midPointStop
         offset="1"
         style="stop-color:#FFFFFF"
         id="midPointStop230" />
    </linearGradient>
    <path
       i:knockout="Off"
       style="fill:url(#XMLID_9_);stroke:none;"
       d="M13.5,63c0,2.485,0,4.515,0,7c4.973,0,39.527,0,44.5,0c0-2.485,0-4.515,0-7    C53.027,63,18.473,63,13.5,63z"
       id="path231" />
    <linearGradient
       id="XMLID_10_"
       gradientUnits="userSpaceOnUse"
       x1="29.125"
       y1="49.126"
       x2="49.8744"
       y2="28.3766">
      <stop
         offset="0"
         style="stop-color:#000000"
         id="stop233" />
      <stop
         offset="1"
         style="stop-color:#FFFFFF"
         id="stop234" />
      <a:midPointStop
         offset="0"
         style="stop-color:#000000"
         id="midPointStop235" />
      <a:midPointStop
         offset="0.5"
         style="stop-color:#000000"
         id="midPointStop236" />
      <a:midPointStop
         offset="1"
         style="stop-color:#FFFFFF"
         id="midPointStop237" />
    </linearGradient>
    <path
       i:knockout="Off"
       style="fill:url(#XMLID_10_);stroke:none;"
       d="M13.5,39c0,2.485,0,4.515,0,7c4.973,0,39.527,0,44.5,0c0-2.485,0-4.515,0-7    C53.027,39,18.473,39,13.5,39z"
       id="path238" />
  </g>
  <g
     id="Layer_2"
     i:layer="yes"
     i:editable="no"
     i:dimmedPercent="50"
     i:rgbTrio="#FFFF4F004F00"
     style="stroke:#000000;">
    <path
       i:knockout="Off"
       style="fill:none;stroke:none;"
       d="M256,256H0V0h256V256z"
       id="path240" />
  </g>
</svg>
