<?xml version="1.0" encoding="UTF-8" standalone="no"?>
<!DOCTYPE svg PUBLIC "-//W3C//DTD SVG 20010904//EN"
"http://www.w3.org/TR/2001/REC-SVG-20010904/DTD/svg10.dtd">
<!-- Created with Sodipodi ("http://www.sodipodi.com/") -->
<svg
   i:viewOrigin="178 524"
   i:rulerOrigin="-178 -268"
   i:pageBounds="178 524 434 268"
   width="48pt"
   height="48pt"
   viewBox="0 0 256 256"
   style="overflow:visible;enable-background:new 0 0 256 256"
   xml:space="preserve"
   xmlns="http://www.w3.org/2000/svg"
   xmlns:ns="&amp;ns_vars;"
   xmlns:i="&amp;ns_ai;"
   xmlns:xml="http://www.w3.org/XML/1998/namespace"
   xmlns:a="http://ns.adobe.com/AdobeSVGViewerExtensions/3.0/"
   xmlns:sodipodi="http://sodipodi.sourceforge.net/DTD/sodipodi-0.dtd"
   xmlns:xlink="http://www.w3.org/1999/xlink"
   id="svg153"
   sodipodi:version="0.32pre"
   sodipodi:docname="/home/cschalle/gnome-themes-extras/Lush/icons/scalable/mimetypes/gnome-mime-application-pgp.svgz"
   sodipodi:docbase="/home/cschalle/gnome-themes-extras/Lush/icons/scalable/mimetypes/">
  <defs
     id="defs216" />
  <sodipodi:namedview
     id="base" />
  <metadata
     id="metadata154">
    <ns:variableSets>
      <ns:variableSet
         varSetName="binding1"
         locked="none">
        <ns:variables />
        <ns:sampleDataSets />
      </ns:variableSet>
    </ns:variableSets>
  </metadata>
  <g
     id="Layer_1"
     i:layer="yes"
     i:dimmedPercent="50"
     i:rgbTrio="#4F008000FFFF"
     style="stroke:#000000;">
    <linearGradient
       id="XMLID_1_"
       gradientUnits="userSpaceOnUse"
       x1="131.2803"
       y1="242.2021"
       x2="131.2803"
       y2="225.9855">
      <stop
         offset="0"
         style="stop-color:#CCCCCC"
         id="stop157" />
      <stop
         offset="1"
         style="stop-color:#000000"
         id="stop158" />
      <a:midPointStop
         offset="0"
         style="stop-color:#CCCCCC"
         id="midPointStop159" />
      <a:midPointStop
         offset="0.5"
         style="stop-color:#CCCCCC"
         id="midPointStop160" />
      <a:midPointStop
         offset="1"
         style="stop-color:#000000"
         id="midPointStop161" />
    </linearGradient>
    <path
       i:knockout="Off"
       style="opacity:0.36;fill:url(#XMLID_1_);stroke:none;"
       d="M21.45,228.51c-1.577,8.76,46.318,16.188,106.977,16.592    c60.658,0.402,111.107-6.375,112.685-15.134c1.576-8.759-46.316-16.187-106.975-16.589    C73.478,212.976,23.026,219.751,21.45,228.51z"
       id="path162" />
    <path
       i:knockout="Off"
       style="stroke:none;"
       d="M222.378,44.725L106.815,33.279l0.824,0.114c-12.484-2.223-31.43,10.05-34.033,17.923    l0.215-0.547L10.899,188.715l-0.092,0.278c-2.847,8.613,3.999,17.251,15.257,19.255l134.77,23.995    c11.258,2.004,22.734-3.372,25.58-11.984l51.628-156.205c2.847-8.613-3.998-17.251-15.256-19.256L222.378,44.725z"
       id="path163" />
    <linearGradient
       id="XMLID_2_"
       gradientUnits="userSpaceOnUse"
       x1="101.2012"
       y1="49.4717"
       x2="130.5948"
       y2="153.5337">
      <stop
         offset="0"
         style="stop-color:#D4D4D4"
         id="stop165" />
      <stop
         offset="1"
         style="stop-color:#F0F0F0"
         id="stop166" />
      <a:midPointStop
         offset="0"
         style="stop-color:#D4D4D4"
         id="midPointStop167" />
      <a:midPointStop
         offset="0.5"
         style="stop-color:#D4D4D4"
         id="midPointStop168" />
      <a:midPointStop
         offset="1"
         style="stop-color:#F0F0F0"
         id="midPointStop169" />
    </linearGradient>
    <path
       i:knockout="Off"
       style="fill:url(#XMLID_2_);stroke:none;"
       d="M17.192,189.302c-1.711,5.178,2.388,10.348,9.154,11.554l134.769,23.994    c6.767,1.204,13.638-2.014,15.349-7.191l51.627-156.203c1.711-5.177-2.388-10.35-9.153-11.555L103.789,38.497    c-6.766-1.205-22.087,7.953-23.797,13.129L17.192,189.302z"
       id="path170" />
    <path
       i:knockout="Off"
       style="fill:none;stroke:none;"
       d="M19.313,192.584L82.112,54.909c1.711-5.177,17.033-14.334,23.798-13.129l117.878,9.91    c-1.382-0.833-3.015-1.461-4.851-1.788L103.789,38.497c-6.766-1.205-22.087,7.953-23.797,13.129l-62.8,137.676    c-0.975,2.951-0.057,5.901,2.164,8.116C18.818,195.892,18.765,194.24,19.313,192.584z"
       id="path171" />
    <g
       i:knockout="Off"
       id="g172" />
    <path
       i:knockout="Off"
       style="fill:#C2C2C2;stroke:none;"
       d="M170.909,211.829c-1.711,5.177-8.582,8.396-15.349,7.191l-90.616-11.294l96.17,17.123    c6.767,1.204,13.638-2.014,15.349-7.191l46.879-141.839L170.909,211.829z"
       id="path173" />
    <radialGradient
       id="XMLID_3_"
       cx="122.9863"
       cy="61.2827"
       r="7.46"
       fx="122.9863"
       fy="61.2827"
       gradientTransform="matrix(0.8964 0.0346 -0.3107 1.1036 32.3881 -10.5311)"
       gradientUnits="userSpaceOnUse">
      <stop
         offset="0.8595"
         style="stop-color:#C2C2C2"
         id="stop175" />
      <stop
         offset="1"
         style="stop-color:#000000"
         id="stop176" />
      <a:midPointStop
         offset="0.8595"
         style="stop-color:#C2C2C2"
         id="midPointStop177" />
      <a:midPointStop
         offset="0.5"
         style="stop-color:#C2C2C2"
         id="midPointStop178" />
      <a:midPointStop
         offset="1"
         style="stop-color:#000000"
         id="midPointStop179" />
    </radialGradient>
    <path
       i:knockout="Off"
       style="fill:url(#XMLID_3_);stroke:none;"
       d="M116.158,59.226c-1.259,4.127,0.663,7.579,4.294,7.708c3.63,0.13,7.594-3.113,8.852-7.241    c1.259-4.128-0.666-7.579-4.294-7.708C121.378,51.855,117.416,55.097,116.158,59.226z"
       id="path180" />
    <radialGradient
       id="XMLID_4_"
       cx="183.2773"
       cy="65.5967"
       r="8.1347"
       fx="183.2773"
       fy="65.5967"
       gradientTransform="matrix(0.8964 0.0346 -0.3107 1.1036 32.3881 -10.5311)"
       gradientUnits="userSpaceOnUse">
      <stop
         offset="0.8595"
         style="stop-color:#C2C2C2"
         id="stop182" />
      <stop
         offset="1"
         style="stop-color:#000000"
         id="stop183" />
      <a:midPointStop
         offset="0.8595"
         style="stop-color:#C2C2C2"
         id="midPointStop184" />
      <a:midPointStop
         offset="0.5"
         style="stop-color:#C2C2C2"
         id="midPointStop185" />
      <a:midPointStop
         offset="1"
         style="stop-color:#000000"
         id="midPointStop186" />
    </radialGradient>
    <path
       i:knockout="Off"
       style="fill:url(#XMLID_4_);stroke:none;"
       d="M168.191,65.88c-1.373,4.5,0.723,8.264,4.682,8.405c3.958,0.142,8.28-3.395,9.652-7.896    c1.372-4.501-0.726-8.264-4.683-8.405C173.884,57.843,169.563,61.378,168.191,65.88z"
       id="path187" />
    <path
       i:knockout="Off"
       style="stroke:none;"
       d="M118.663,51c0-11.875,7.377-21.5,16.478-21.5c3.754,0,6.589,7.242,9.359,10    c-2.61-7.379-4.61-18.5-13.021-18C122.941,22.008,116,32.021,116,45c0,7.096,2.075,13.452,5.35,17.761    C119.653,59.381,118.663,55.342,118.663,51z"
       id="path188" />
    <path
       i:knockout="Off"
       style="opacity:0.36;fill:#999999;stroke:none;"
       d="M116.488,120.319h-4.822c-0.088-12.155-3.106-23.605-8.536-32.295    C97.333,78.742,89.468,73.63,80.984,73.63c-4.297,0-8.435,1.317-12.228,3.818l-18.389,40.313c-0.035,0.849-0.06,1.701-0.066,2.558    h-1.101l-14.38,31.526v25.538c0,6.264,4.782,11.359,10.66,11.359h71.008c5.879,0,10.66-5.096,10.66-11.359v-45.705    C127.148,125.415,122.367,120.319,116.488,120.319z M62.936,120.319c0.167-17.852,8.526-33.396,18.048-33.396    c9.522,0,17.881,15.543,18.048,33.396H62.936z"
       id="path189" />
    <path
       i:knockout="Off"
       style="stroke:none;"
       d="M170.663,56c0-11.875,7.378-21.5,16.478-21.5c3.754,0,6.589,7.242,9.359,10    c-2.61-7.379-4.61-18.5-13.021-18C174.941,27.008,168,37.021,168,50c0,7.096,2.074,13.452,5.35,17.761    C171.652,64.381,170.663,60.342,170.663,56z"
       id="path190" />
    <path
       i:knockout="Off"
       style="stroke:none;"
       d="M47.306,77.129c-5.706,9.133-8.848,21.172-8.848,33.897s3.142,24.763,8.848,33.898    c6.178,9.889,14.646,15.334,23.843,15.334c9.198,0,17.666-5.445,23.843-15.334c5.706-9.133,8.848-21.171,8.848-33.898    c0-12.727-3.142-24.765-8.848-33.897c-6.177-9.889-14.644-15.334-23.843-15.334C61.951,61.794,53.483,67.24,47.306,77.129z     M55.093,111.026c0-16.715,7.653-31.938,16.056-31.938c8.403,0,16.056,15.223,16.056,31.938c0,16.715-7.653,31.938-16.056,31.938    C62.746,142.964,55.093,127.741,55.093,111.026z"
       id="path191" />
    <path
       i:knockout="Off"
       style="stroke:none;"
       d="M49.002,78.188c-5.509,8.819-8.544,20.481-8.544,32.837    c0,12.357,3.035,24.018,8.544,32.838c5.798,9.281,13.663,14.394,22.147,14.394c8.483,0,16.349-5.112,22.146-14.394    c5.51-8.82,8.544-20.481,8.544-32.838c0-12.356-3.034-24.018-8.544-32.837c-5.798-9.282-13.663-14.394-22.146-14.394    C62.665,63.794,54.8,68.906,49.002,78.188z M53.093,111.026c0-18.079,8.438-33.938,18.056-33.938s18.056,15.859,18.056,33.938    s-8.437,33.938-18.056,33.938S53.093,129.104,53.093,111.026z"
       id="path192" />
    <path
       i:knockout="Off"
       style="fill:#D4D4D4;stroke:none;"
       d="M71.149,66.953c-15.206,0-27.532,19.732-27.532,44.073    c0,24.341,12.326,44.073,27.532,44.073c15.206,0,27.532-19.731,27.532-44.073C98.681,86.686,86.354,66.953,71.149,66.953z     M71.149,148.122c-11.499,0-21.215-16.988-21.215-37.096c0-20.108,9.716-37.096,21.215-37.096c11.5,0,21.214,16.988,21.214,37.096    C92.363,131.134,82.648,148.122,71.149,148.122z"
       id="path193" />
    <path
       i:knockout="Off"
       style="fill:#ABABAB;stroke:none;"
       d="M73.496,150.684c11.5,0,21.214-16.988,21.214-37.097c0-13.964-4.687-26.417-11.401-32.727    c5.433,6.795,9.054,17.896,9.054,30.166c0,20.108-9.715,37.096-21.214,37.096c-3.514,0-6.859-1.593-9.813-4.369    C64.806,148.094,69.014,150.684,73.496,150.684z"
       id="path194" />
    <path
       i:knockout="Off"
       style="fill:#FFFFFF;stroke:none;"
       d="M45.964,113.587c0-24.34,12.326-44.072,27.532-44.072c5.223,0,10.105,2.328,14.265,6.37    c-4.618-5.603-10.372-8.931-16.612-8.931c-15.206,0-27.532,19.732-27.532,44.073c0,15.981,5.313,29.974,13.266,37.702    C50.25,140.68,45.964,127.937,45.964,113.587z"
       id="path195" />
    <path
       i:knockout="Off"
       style="stroke:none;"
       d="M35.645,108.484c-6.98,0-12.66,5.993-12.66,13.359v45.706    c0,7.366,5.679,13.359,12.66,13.359h71.008c6.981,0,12.661-5.993,12.661-13.359v-45.706c0-7.366-5.68-13.359-12.661-13.359H35.645    z"
       id="path196" />
    <path
       i:knockout="Off"
       style="stroke:none;"
       d="M35.645,110.484c-5.878,0-10.66,5.095-10.66,11.359v45.706    c0,6.263,4.782,11.359,10.66,11.359h71.008c5.878,0,10.661-5.097,10.661-11.359v-45.706c0-6.264-4.782-11.359-10.661-11.359    H35.645z"
       id="path197" />
    <linearGradient
       id="XMLID_5_"
       gradientUnits="userSpaceOnUse"
       x1="28.354"
       y1="144.6953"
       x2="113.9438"
       y2="144.6953">
      <stop
         offset="0"
         style="stop-color:#FFD100"
         id="stop199" />
      <stop
         offset="1"
         style="stop-color:#E3B11F"
         id="stop200" />
      <a:midPointStop
         offset="0"
         style="stop-color:#FFD100"
         id="midPointStop201" />
      <a:midPointStop
         offset="0.5"
         style="stop-color:#FFD100"
         id="midPointStop202" />
      <a:midPointStop
         offset="1"
         style="stop-color:#E3B11F"
         id="midPointStop203" />
    </linearGradient>
    <path
       i:knockout="Off"
       style="fill:url(#XMLID_5_);stroke:none;"
       d="M28.354,167.549c0,4.528,3.264,8.2,7.291,8.2h71.008c4.027,0,7.291-3.672,7.291-8.2    v-45.706c0-4.529-3.264-8.201-7.291-8.201H35.645c-4.027,0-7.291,3.671-7.291,8.201V167.549z"
       id="path204" />
    <linearGradient
       id="XMLID_6_"
       gradientUnits="userSpaceOnUse"
       x1="71.1489"
       y1="143.9473"
       x2="71.1489"
       y2="98.9127">
      <stop
         offset="0"
         style="stop-color:#FFD100"
         id="stop206" />
      <stop
         offset="1"
         style="stop-color:#FFFFFF"
         id="stop207" />
      <a:midPointStop
         offset="0"
         style="stop-color:#FFD100"
         id="midPointStop208" />
      <a:midPointStop
         offset="0.5"
         style="stop-color:#FFD100"
         id="midPointStop209" />
      <a:midPointStop
         offset="1"
         style="stop-color:#FFFFFF"
         id="midPointStop210" />
    </linearGradient>
    <path
       i:knockout="Off"
       style="opacity:0.5;fill:url(#XMLID_6_);stroke:none;"
       d="M113.944,122.334v-0.491c0-4.529-3.264-8.201-7.291-8.201H35.645    c-4.027,0-7.291,3.671-7.291,8.201v45.706c0,1.784,0.513,3.431,1.374,4.778c30.266-6.232,50.255-32.865,77.805-46.955    C109.662,124.304,111.799,123.298,113.944,122.334z"
       id="path211" />
    <path
       i:knockout="Off"
       style="opacity:0.5;fill:#FFFFFF;stroke:none;"
       d="M33.59,123.551c0-4.529,3.264-8.201,7.291-8.201l68.747-0.989    c-0.909-0.458-1.914-0.719-2.975-0.719H35.645c-4.027,0-7.291,3.671-7.291,8.201v45.706c0,1.026,0.175,2.006,0.482,2.911    L33.59,123.551z"
       id="path212" />
  </g>
  <g
     id="Layer_2"
     i:layer="yes"
     i:editable="no"
     i:dimmedPercent="50"
     i:rgbTrio="#FFFF4F004F00"
     style="stroke:#000000;">
    <path
       i:knockout="Off"
       style="fill:none;stroke:none;"
       d="M256,256H0V0h256V256z"
       id="path214" />
  </g>
</svg>
