<?xml version="1.0" encoding="UTF-8" standalone="no"?>
<!DOCTYPE svg PUBLIC "-//W3C//DTD SVG 20010904//EN"
"http://www.w3.org/TR/2001/REC-SVG-20010904/DTD/svg10.dtd">
<!-- Created with Sodipodi ("http://www.sodipodi.com/") -->
<svg
   i:viewOrigin="178 524"
   i:rulerOrigin="-178 -268"
   i:pageBounds="178 524 434 268"
   width="48pt"
   height="48pt"
   viewBox="0 0 256 256"
   style="overflow:visible;enable-background:new 0 0 256 256"
   xml:space="preserve"
   xmlns="http://www.w3.org/2000/svg"
   xmlns:ns="&amp;ns_vars;"
   xmlns:i="&amp;ns_ai;"
   xmlns:xml="http://www.w3.org/XML/1998/namespace"
   xmlns:a="http://ns.adobe.com/AdobeSVGViewerExtensions/3.0/"
   xmlns:sodipodi="http://sodipodi.sourceforge.net/DTD/sodipodi-0.dtd"
   xmlns:xlink="http://www.w3.org/1999/xlink"
   id="svg153"
   sodipodi:version="0.32pre"
   sodipodi:docname="/home/cschalle/gnome-themes-extras/Lush/icons/scalable/mimetypes/gnome-mime-application-x-gnome-app-info.svgz"
   sodipodi:docbase="/home/cschalle/gnome-themes-extras/Lush/icons/scalable/mimetypes/">
  <defs
     id="defs212" />
  <sodipodi:namedview
     id="base" />
  <metadata
     id="metadata154">
    <ns:variableSets>
      <ns:variableSet
         varSetName="binding1"
         locked="none">
        <ns:variables />
        <ns:sampleDataSets />
      </ns:variableSet>
    </ns:variableSets>
  </metadata>
  <g
     id="Layer_1"
     i:layer="yes"
     i:dimmedPercent="50"
     i:rgbTrio="#4F008000FFFF"
     style="stroke:#000000;">
    <linearGradient
       id="XMLID_1_"
       gradientUnits="userSpaceOnUse"
       x1="131.2803"
       y1="242.2021"
       x2="131.2803"
       y2="225.9855">
      <stop
         offset="0"
         style="stop-color:#CCCCCC"
         id="stop157" />
      <stop
         offset="1"
         style="stop-color:#000000"
         id="stop158" />
      <a:midPointStop
         offset="0"
         style="stop-color:#CCCCCC"
         id="midPointStop159" />
      <a:midPointStop
         offset="0.5"
         style="stop-color:#CCCCCC"
         id="midPointStop160" />
      <a:midPointStop
         offset="1"
         style="stop-color:#000000"
         id="midPointStop161" />
    </linearGradient>
    <path
       i:knockout="Off"
       style="opacity:0.36;fill:url(#XMLID_1_);stroke:none;"
       d="M21.45,228.51c-1.577,8.76,46.318,16.188,106.977,16.592    c60.658,0.402,111.107-6.375,112.685-15.134c1.576-8.759-46.316-16.187-106.975-16.589    C73.478,212.976,23.026,219.751,21.45,228.51z"
       id="path162" />
    <path
       i:knockout="Off"
       style="stroke:none;"
       d="M222.378,44.725L106.815,33.279l0.824,0.114c-12.484-2.223-31.43,10.05-34.033,17.923    l0.215-0.547L10.899,188.715l-0.092,0.278c-2.847,8.613,3.999,17.251,15.257,19.255l134.77,23.995    c11.258,2.004,22.734-3.372,25.58-11.984l51.628-156.205c2.847-8.613-3.998-17.251-15.256-19.256L222.378,44.725z"
       id="path163" />
    <linearGradient
       id="XMLID_2_"
       gradientUnits="userSpaceOnUse"
       x1="101.2012"
       y1="49.4717"
       x2="130.5948"
       y2="153.5337">
      <stop
         offset="0"
         style="stop-color:#D4D4D4"
         id="stop165" />
      <stop
         offset="1"
         style="stop-color:#F0F0F0"
         id="stop166" />
      <a:midPointStop
         offset="0"
         style="stop-color:#D4D4D4"
         id="midPointStop167" />
      <a:midPointStop
         offset="0.5"
         style="stop-color:#D4D4D4"
         id="midPointStop168" />
      <a:midPointStop
         offset="1"
         style="stop-color:#F0F0F0"
         id="midPointStop169" />
    </linearGradient>
    <path
       i:knockout="Off"
       style="fill:url(#XMLID_2_);stroke:none;"
       d="M17.192,189.302c-1.711,5.178,2.388,10.348,9.154,11.554l134.769,23.994    c6.767,1.204,13.638-2.014,15.349-7.191l51.627-156.203c1.711-5.177-2.388-10.35-9.153-11.555L103.789,38.497    c-6.766-1.205-22.087,7.953-23.797,13.129L17.192,189.302z"
       id="path170" />
    <path
       i:knockout="Off"
       style="fill:none;stroke:none;"
       d="M19.313,192.584L82.112,54.909c1.711-5.177,17.033-14.334,23.798-13.129l117.878,9.91    c-1.382-0.833-3.015-1.461-4.851-1.788L103.789,38.497c-6.766-1.205-22.087,7.953-23.797,13.129l-62.8,137.676    c-0.975,2.951-0.057,5.901,2.164,8.116C18.818,195.892,18.765,194.24,19.313,192.584z"
       id="path171" />
    <g
       i:knockout="Off"
       id="g172" />
    <path
       i:knockout="Off"
       style="fill:#C2C2C2;stroke:none;"
       d="M170.909,211.829c-1.711,5.177-8.582,8.396-15.349,7.191l-90.616-11.294l96.17,17.123    c6.767,1.204,13.638-2.014,15.349-7.191l46.879-141.839L170.909,211.829z"
       id="path173" />
    <radialGradient
       id="XMLID_3_"
       cx="122.9863"
       cy="61.2827"
       r="7.46"
       fx="122.9863"
       fy="61.2827"
       gradientTransform="matrix(0.8964 0.0346 -0.3107 1.1036 32.3881 -10.5311)"
       gradientUnits="userSpaceOnUse">
      <stop
         offset="0.8595"
         style="stop-color:#C2C2C2"
         id="stop175" />
      <stop
         offset="1"
         style="stop-color:#000000"
         id="stop176" />
      <a:midPointStop
         offset="0.8595"
         style="stop-color:#C2C2C2"
         id="midPointStop177" />
      <a:midPointStop
         offset="0.5"
         style="stop-color:#C2C2C2"
         id="midPointStop178" />
      <a:midPointStop
         offset="1"
         style="stop-color:#000000"
         id="midPointStop179" />
    </radialGradient>
    <path
       i:knockout="Off"
       style="fill:url(#XMLID_3_);stroke:none;"
       d="M116.158,59.226c-1.259,4.127,0.663,7.579,4.294,7.708c3.63,0.13,7.594-3.113,8.852-7.241    c1.259-4.128-0.666-7.579-4.294-7.708C121.378,51.855,117.416,55.097,116.158,59.226z"
       id="path180" />
    <radialGradient
       id="XMLID_4_"
       cx="183.2773"
       cy="65.5967"
       r="8.1347"
       fx="183.2773"
       fy="65.5967"
       gradientTransform="matrix(0.8964 0.0346 -0.3107 1.1036 32.3881 -10.5311)"
       gradientUnits="userSpaceOnUse">
      <stop
         offset="0.8595"
         style="stop-color:#C2C2C2"
         id="stop182" />
      <stop
         offset="1"
         style="stop-color:#000000"
         id="stop183" />
      <a:midPointStop
         offset="0.8595"
         style="stop-color:#C2C2C2"
         id="midPointStop184" />
      <a:midPointStop
         offset="0.5"
         style="stop-color:#C2C2C2"
         id="midPointStop185" />
      <a:midPointStop
         offset="1"
         style="stop-color:#000000"
         id="midPointStop186" />
    </radialGradient>
    <path
       i:knockout="Off"
       style="fill:url(#XMLID_4_);stroke:none;"
       d="M168.191,65.88c-1.373,4.5,0.723,8.264,4.682,8.405c3.958,0.142,8.28-3.395,9.652-7.896    c1.372-4.501-0.726-8.264-4.683-8.405C173.884,57.843,169.563,61.378,168.191,65.88z"
       id="path187" />
    <path
       i:knockout="Off"
       style="stroke:none;"
       d="M118.663,51c0-11.875,7.377-21.5,16.478-21.5c3.754,0,6.589,7.242,9.359,10    c-2.61-7.379-4.61-18.5-13.021-18C122.941,22.008,116,32.021,116,45c0,7.096,2.075,13.452,5.35,17.761    C119.653,59.381,118.663,55.342,118.663,51z"
       id="path188" />
    <path
       i:knockout="Off"
       style="stroke:none;"
       d="M170.663,56c0-11.875,7.378-21.5,16.478-21.5c3.754,0,6.589,7.242,9.359,10    c-2.61-7.379-4.61-18.5-13.021-18C174.941,27.008,168,37.021,168,50c0,7.096,2.074,13.452,5.35,17.761    C171.652,64.381,170.663,60.342,170.663,56z"
       id="path189" />
    <path
       i:knockout="Off"
       style="opacity:0.36;fill:#999999;stroke:none;"
       d="M18,138.141c0,38.047,30.953,69,69,69s69-30.953,69-69s-30.953-69-69-69    S18,100.094,18,138.141z"
       id="path190" />
    <path
       i:knockout="Off"
       style="stroke:none;"
       d="M7.446,132.141c0,38.047,30.953,69,69,69s69-30.953,69-69s-30.953-69-69-69    S7.446,94.094,7.446,132.141z"
       id="path191" />
    <radialGradient
       id="XMLID_5_"
       cx="42.4497"
       cy="104.1455"
       r="106.0592"
       fx="42.4497"
       fy="104.1455"
       gradientUnits="userSpaceOnUse">
      <stop
         offset="0"
         style="stop-color:#2461AA"
         id="stop193" />
      <stop
         offset="1"
         style="stop-color:#0D3692"
         id="stop194" />
      <a:midPointStop
         offset="0"
         style="stop-color:#2461AA"
         id="midPointStop195" />
      <a:midPointStop
         offset="0.5"
         style="stop-color:#2461AA"
         id="midPointStop196" />
      <a:midPointStop
         offset="1"
         style="stop-color:#0D3692"
         id="midPointStop197" />
    </radialGradient>
    <path
       i:knockout="Off"
       style="fill:url(#XMLID_5_);stroke:none;"
       d="M12.446,131.141c0,35.346,28.654,64,64,64s64-28.654,64-64c0-35.346-28.654-64-64-64    S12.446,95.794,12.446,131.141z"
       id="path198" />
    <path
       i:knockout="Off"
       style="opacity:0.36;fill:#FFFFFF;stroke:none;"
       d="M19.446,137.391c0-37.531,26.814-68.185,60.561-70.146    c-1.179-0.064-2.366-0.104-3.561-0.104c-35.346,0-64,28.654-64,64c0,16.326,6.123,31.216,16.185,42.522    C22.803,163.074,19.446,150.664,19.446,137.391z"
       id="path199" />
    <linearGradient
       id="XMLID_6_"
       gradientUnits="userSpaceOnUse"
       x1="76.5024"
       y1="86.001"
       x2="76.5024"
       y2="143.0019">
      <stop
         offset="0"
         style="stop-color:#FFFFFF"
         id="stop201" />
      <stop
         offset="1"
         style="stop-color:#0D3692"
         id="stop202" />
      <a:midPointStop
         offset="0"
         style="stop-color:#FFFFFF"
         id="midPointStop203" />
      <a:midPointStop
         offset="0.5"
         style="stop-color:#FFFFFF"
         id="midPointStop204" />
      <a:midPointStop
         offset="1"
         style="stop-color:#0D3692"
         id="midPointStop205" />
    </linearGradient>
    <path
       i:knockout="Off"
       style="opacity:0.5;fill:url(#XMLID_6_);stroke:none;"
       d="M77.429,128c21.671,0,41.616-3.148,57.454-8.429    c-5.058-29.82-29.285-52.431-58.433-52.431c-28.941,0-53.038,22.291-58.328,51.798C34.244,124.6,54.905,128,77.429,128z"
       id="path206" />
    <g
       i:knockout="Off"
       id="g207">
      <path
         i:knockout="Off"
         style="fill:#FFFFFF;stroke:none;"
         d="M88.804,99.063c0,1.609-0.305,3.742-0.906,6.391s-1.359,5.762-2.273,9.332     c-0.875,3.375-1.871,7.586-2.992,12.629c-1.125,5.047-2.309,11.277-3.555,18.695H74.28c-1.25-7.496-2.434-13.738-3.555-18.723     c-1.125-4.984-2.121-9.168-2.992-12.543c-0.789-3.102-1.52-6.133-2.184-9.098c-0.664-2.961-0.996-5.191-0.996-6.684     c0-3.023,1.184-5.602,3.551-7.742s5.215-3.211,8.543-3.211c3.281,0,6.129,1.07,8.539,3.211S88.804,96.039,88.804,99.063z      M88.554,164.043c0,2.965-1.195,5.508-3.586,7.633c-2.391,2.121-5.184,3.184-8.383,3.184c-3.242,0-6.059-1.063-8.449-3.184     c-2.391-2.125-3.582-4.668-3.582-7.633c0-2.961,1.191-5.523,3.582-7.688s5.207-3.246,8.449-3.246     c3.199,0,5.992,1.082,8.383,3.246S88.554,161.082,88.554,164.043z"
         id="path208" />
    </g>
  </g>
  <g
     id="Layer_2"
     i:layer="yes"
     i:editable="no"
     i:dimmedPercent="50"
     i:rgbTrio="#FFFF4F004F00"
     style="stroke:#000000;">
    <path
       i:knockout="Off"
       style="fill:none;stroke:none;"
       d="M256,256H0V0h256V256z"
       id="path210" />
  </g>
</svg>
