<?xml version="1.0" encoding="UTF-8" standalone="no"?>
<!DOCTYPE svg PUBLIC "-//W3C//DTD SVG 20010904//EN"
"http://www.w3.org/TR/2001/REC-SVG-20010904/DTD/svg10.dtd">
<!-- Created with Sodipodi ("http://www.sodipodi.com/") -->
<svg
   i:viewOrigin="178 524"
   i:rulerOrigin="-178 -268"
   i:pageBounds="178 524 434 268"
   width="48pt"
   height="48pt"
   viewBox="0 0 256 256"
   style="overflow:visible;enable-background:new 0 0 256 256"
   xml:space="preserve"
   xmlns="http://www.w3.org/2000/svg"
   xmlns:ns="&amp;ns_vars;"
   xmlns:i="&amp;ns_ai;"
   xmlns:xml="http://www.w3.org/XML/1998/namespace"
   xmlns:a="http://ns.adobe.com/AdobeSVGViewerExtensions/3.0/"
   xmlns:sodipodi="http://sodipodi.sourceforge.net/DTD/sodipodi-0.dtd"
   xmlns:xlink="http://www.w3.org/1999/xlink"
   id="svg153"
   sodipodi:version="0.32pre"
   sodipodi:docname="/home/cschalle/gnome-themes-extras/Lush/icons/scalable/mimetypes/gnome-mime-text-x-java.svgz"
   sodipodi:docbase="/home/cschalle/gnome-themes-extras/Lush/icons/scalable/mimetypes/">
  <defs
     id="defs260" />
  <sodipodi:namedview
     id="base" />
  <metadata
     id="metadata154">
    <ns:variableSets>
      <ns:variableSet
         varSetName="binding1"
         locked="none">
        <ns:variables />
        <ns:sampleDataSets />
      </ns:variableSet>
    </ns:variableSets>
  </metadata>
  <g
     id="Layer_1"
     i:layer="yes"
     i:dimmedPercent="50"
     i:rgbTrio="#4F008000FFFF"
     style="stroke:#000000;">
    <linearGradient
       id="XMLID_1_"
       gradientUnits="userSpaceOnUse"
       x1="131.2803"
       y1="242.2021"
       x2="131.2803"
       y2="225.9855">
      <stop
         offset="0"
         style="stop-color:#CCCCCC"
         id="stop157" />
      <stop
         offset="1"
         style="stop-color:#000000"
         id="stop158" />
      <a:midPointStop
         offset="0"
         style="stop-color:#CCCCCC"
         id="midPointStop159" />
      <a:midPointStop
         offset="0.5"
         style="stop-color:#CCCCCC"
         id="midPointStop160" />
      <a:midPointStop
         offset="1"
         style="stop-color:#000000"
         id="midPointStop161" />
    </linearGradient>
    <path
       i:knockout="Off"
       style="opacity:0.36;fill:url(#XMLID_1_);stroke:none;"
       d="M21.45,228.51c-1.577,8.76,46.318,16.188,106.977,16.592    c60.658,0.402,111.107-6.375,112.685-15.134c1.576-8.759-46.316-16.187-106.975-16.589    C73.478,212.976,23.026,219.751,21.45,228.51z"
       id="path162" />
    <path
       i:knockout="Off"
       style="stroke:none;"
       d="M222.378,44.725L106.815,33.279l0.824,0.114c-12.484-2.223-31.43,10.05-34.033,17.923    l0.215-0.547L10.899,188.715l-0.092,0.278c-2.847,8.613,3.999,17.251,15.257,19.255l134.77,23.995    c11.258,2.004,22.734-3.372,25.58-11.984l51.628-156.205c2.847-8.613-3.998-17.251-15.256-19.256L222.378,44.725z"
       id="path163" />
    <linearGradient
       id="XMLID_2_"
       gradientUnits="userSpaceOnUse"
       x1="101.2012"
       y1="49.4717"
       x2="130.5948"
       y2="153.5337">
      <stop
         offset="0"
         style="stop-color:#D4D4D4"
         id="stop165" />
      <stop
         offset="1"
         style="stop-color:#F0F0F0"
         id="stop166" />
      <a:midPointStop
         offset="0"
         style="stop-color:#D4D4D4"
         id="midPointStop167" />
      <a:midPointStop
         offset="0.5"
         style="stop-color:#D4D4D4"
         id="midPointStop168" />
      <a:midPointStop
         offset="1"
         style="stop-color:#F0F0F0"
         id="midPointStop169" />
    </linearGradient>
    <path
       i:knockout="Off"
       style="fill:url(#XMLID_2_);stroke:none;"
       d="M17.192,189.302c-1.711,5.178,2.388,10.348,9.154,11.554l134.769,23.994    c6.767,1.204,13.638-2.014,15.349-7.191l51.627-156.203c1.711-5.177-2.388-10.35-9.153-11.555L103.789,38.497    c-6.766-1.205-22.087,7.953-23.797,13.129L17.192,189.302z"
       id="path170" />
    <path
       i:knockout="Off"
       style="fill:none;stroke:none;"
       d="M19.313,192.584L82.112,54.909c1.711-5.177,17.033-14.334,23.798-13.129l117.878,9.91    c-1.382-0.833-3.015-1.461-4.851-1.788L103.789,38.497c-6.766-1.205-22.087,7.953-23.797,13.129l-62.8,137.676    c-0.975,2.951-0.057,5.901,2.164,8.116C18.818,195.892,18.765,194.24,19.313,192.584z"
       id="path171" />
    <g
       i:knockout="Off"
       id="g172" />
    <path
       i:knockout="Off"
       style="fill:#C2C2C2;stroke:none;"
       d="M170.909,211.829c-1.711,5.177-8.582,8.396-15.349,7.191l-90.616-11.294l96.17,17.123    c6.767,1.204,13.638-2.014,15.349-7.191l46.879-141.839L170.909,211.829z"
       id="path173" />
    <radialGradient
       id="XMLID_3_"
       cx="122.9863"
       cy="61.2827"
       r="7.46"
       fx="122.9863"
       fy="61.2827"
       gradientTransform="matrix(0.8964 0.0346 -0.3107 1.1036 32.3881 -10.5311)"
       gradientUnits="userSpaceOnUse">
      <stop
         offset="0.8595"
         style="stop-color:#C2C2C2"
         id="stop175" />
      <stop
         offset="1"
         style="stop-color:#000000"
         id="stop176" />
      <a:midPointStop
         offset="0.8595"
         style="stop-color:#C2C2C2"
         id="midPointStop177" />
      <a:midPointStop
         offset="0.5"
         style="stop-color:#C2C2C2"
         id="midPointStop178" />
      <a:midPointStop
         offset="1"
         style="stop-color:#000000"
         id="midPointStop179" />
    </radialGradient>
    <path
       i:knockout="Off"
       style="fill:url(#XMLID_3_);stroke:none;"
       d="M116.158,59.226c-1.259,4.127,0.663,7.579,4.294,7.708c3.63,0.13,7.594-3.113,8.852-7.241    c1.259-4.128-0.666-7.579-4.294-7.708C121.378,51.855,117.416,55.097,116.158,59.226z"
       id="path180" />
    <radialGradient
       id="XMLID_4_"
       cx="183.2773"
       cy="65.5967"
       r="8.1347"
       fx="183.2773"
       fy="65.5967"
       gradientTransform="matrix(0.8964 0.0346 -0.3107 1.1036 32.3881 -10.5311)"
       gradientUnits="userSpaceOnUse">
      <stop
         offset="0.8595"
         style="stop-color:#C2C2C2"
         id="stop182" />
      <stop
         offset="1"
         style="stop-color:#000000"
         id="stop183" />
      <a:midPointStop
         offset="0.8595"
         style="stop-color:#C2C2C2"
         id="midPointStop184" />
      <a:midPointStop
         offset="0.5"
         style="stop-color:#C2C2C2"
         id="midPointStop185" />
      <a:midPointStop
         offset="1"
         style="stop-color:#000000"
         id="midPointStop186" />
    </radialGradient>
    <path
       i:knockout="Off"
       style="fill:url(#XMLID_4_);stroke:none;"
       d="M168.191,65.88c-1.373,4.5,0.723,8.264,4.682,8.405c3.958,0.142,8.28-3.395,9.652-7.896    c1.372-4.501-0.726-8.264-4.683-8.405C173.884,57.843,169.563,61.378,168.191,65.88z"
       id="path187" />
    <path
       i:knockout="Off"
       style="stroke:none;"
       d="M118.663,51c0-11.875,7.377-21.5,16.478-21.5c3.754,0,6.589,7.242,9.359,10    c-2.61-7.379-4.61-18.5-13.021-18C122.941,22.008,116,32.021,116,45c0,7.096,2.075,13.452,5.35,17.761    C119.653,59.381,118.663,55.342,118.663,51z"
       id="path188" />
    <path
       i:knockout="Off"
       style="stroke:none;"
       d="M170.663,56c0-11.875,7.378-21.5,16.478-21.5c3.754,0,6.589,7.242,9.359,10    c-2.61-7.379-4.61-18.5-13.021-18C174.941,27.008,168,37.021,168,50c0,7.096,2.074,13.452,5.35,17.761    C171.652,64.381,170.663,60.342,170.663,56z"
       id="path189" />
    <g
       i:knockout="Off"
       id="g190">
      <path
         i:knockout="Off"
         style="fill:#999999;stroke:none;"
         d="M101.391,98.652c-5.506-0.844-8.096-4.949-6.722-9.445c1.54-5.042,7.126-8.464,13.3-7.52     c5.674,0.869,8.263,4.973,6.848,9.606c-1.539,5.042-7.084,8.329-13.258,7.384L101.391,98.652z"
         id="path191" />
      <path
         i:knockout="Off"
         style="fill:#999999;stroke:none;"
         d="M136.601,104.042c-5.507-0.844-8.096-4.948-6.723-9.444     c1.54-5.042,7.126-8.465,13.301-7.52c5.674,0.868,8.264,4.973,6.848,9.605c-1.54,5.041-7.085,8.329-13.259,7.383L136.601,104.042     z"
         id="path192" />
      <path
         i:knockout="Off"
         style="fill:#999999;stroke:none;"
         d="M171.811,109.43c-5.508-0.843-8.095-4.947-6.723-9.443     c1.54-5.042,7.127-8.465,13.302-7.52c5.673,0.868,8.262,4.972,6.848,9.605c-1.539,5.042-7.086,8.329-13.261,7.384L171.811,109.43     z"
         id="path193" />
    </g>
    <g
       i:knockout="Off"
       id="g194">
      <path
         i:knockout="Off"
         style="fill:#999999;stroke:none;"
         d="M91.667,119.782c-5.506-0.845-8.095-4.949-6.722-9.445c1.54-5.041,7.126-8.464,13.3-7.52     c5.674,0.869,8.263,4.973,6.848,9.607c-1.54,5.041-7.084,8.327-13.259,7.383L91.667,119.782z"
         id="path195" />
      <path
         i:knockout="Off"
         style="fill:#999999;stroke:none;"
         d="M126.877,125.171c-5.507-0.844-8.096-4.948-6.723-9.444     c1.54-5.041,7.126-8.465,13.301-7.52c5.674,0.869,8.264,4.973,6.848,9.605c-1.539,5.041-7.084,8.329-13.258,7.384     L126.877,125.171z"
         id="path196" />
      <path
         i:knockout="Off"
         style="fill:#999999;stroke:none;"
         d="M162.087,130.56c-5.508-0.843-8.095-4.946-6.722-9.442     c1.539-5.042,7.126-8.466,13.301-7.521c5.673,0.868,8.262,4.973,6.848,9.605c-1.539,5.041-7.086,8.329-13.261,7.384     L162.087,130.56z"
         id="path197" />
    </g>
    <g
       i:knockout="Off"
       id="g198">
      <path
         i:knockout="Off"
         style="fill:#999999;stroke:none;"
         d="M81.943,140.911c-5.506-0.844-8.095-4.949-6.722-9.444     c1.54-5.042,7.126-8.465,13.3-7.521c5.674,0.869,8.263,4.974,6.848,9.606c-1.54,5.041-7.084,8.328-13.259,7.384L81.943,140.911z"
         id="path199" />
      <path
         i:knockout="Off"
         style="fill:#999999;stroke:none;"
         d="M117.153,146.3c-5.507-0.844-8.096-4.947-6.723-9.443c1.54-5.041,7.126-8.466,13.3-7.52     c5.674,0.868,8.264,4.973,6.849,9.604c-1.54,5.041-7.085,8.329-13.259,7.384L117.153,146.3z"
         id="path200" />
      <path
         i:knockout="Off"
         style="fill:#999999;stroke:none;"
         d="M152.363,151.689c-5.508-0.843-8.095-4.947-6.722-9.443     c1.539-5.042,7.126-8.465,13.301-7.52c5.673,0.868,8.262,4.972,6.848,9.605c-1.539,5.041-7.086,8.329-13.261,7.384     L152.363,151.689z"
         id="path201" />
    </g>
    <path
       i:knockout="Off"
       style="opacity:0.36;fill:#999999;stroke:none;"
       d="M161.775,143.153c-2.849-10.804-28.313-16.443-53.494-16.443    c-26.718,0-53.766,6.347-53.766,18.478c0,0.574,0.091,1.159,0.224,1.746c-0.002,0.131-0.005,0.337-0.005,0.337    c0,25.233,12.854,47.887,32.747,57.711l0.443,0.22l0.489,0.077c5.681,0.893,11.554,1.347,17.458,1.347    c8.86,0,17.505-1.005,25.694-2.985l0.464-0.113l0.413-0.24c8.112-4.752,14.854-11.632,19.849-19.898    c2.841,0.991,5.964,1.538,9.263,1.538c13.557,0,24.176-9.176,24.176-20.888C185.729,152.389,175.226,143.253,161.775,143.153z     M158.318,170.342c1.388-4.117,2.403-8.432,3.022-12.88c0.072-0.001,0.14-0.008,0.213-0.008c8.2,0,12.497,4.893,12.497,6.584    s-4.297,6.583-12.497,6.583C160.394,170.621,159.32,170.515,158.318,170.342z"
       id="path202" />
    <path
       i:knockout="Off"
       style="stroke:none;"
       d="M128.377,159.038c0,11.712,10.619,20.888,24.177,20.888    c13.557,0,24.176-9.176,24.176-20.888c0-11.714-10.619-20.89-24.176-20.89C138.996,138.148,128.377,147.324,128.377,159.038z     M140.056,159.038c0-1.691,4.297-6.584,12.498-6.584c8.2,0,12.497,4.893,12.497,6.584s-4.297,6.583-12.497,6.583    C144.353,165.621,140.056,160.729,140.056,159.038z"
       id="path203" />
    <path
       i:knockout="Off"
       style="stroke:none;"
       d="M45.516,140.188c0,0.574,0.091,1.159,0.224,1.746c-0.002,0.131-0.005,0.337-0.005,0.337    c0,25.233,12.854,47.887,32.747,57.711l0.443,0.22l0.489,0.077c5.681,0.893,11.554,1.347,17.458,1.347    c8.86,0,17.505-1.005,25.694-2.985l0.464-0.113l0.413-0.24c18.262-10.697,29.606-32.161,29.606-56.016l-0.016-1.475l-0.074,0.529    l0.09-1.138c0-12.131-27.048-18.478-53.767-18.478C72.563,121.71,45.516,128.057,45.516,140.188z"
       id="path204" />
    <linearGradient
       id="XMLID_5_"
       gradientUnits="userSpaceOnUse"
       x1="152.5527"
       y1="173.499"
       x2="152.5527"
       y2="144.4999">
      <stop
         offset="0"
         style="stop-color:#D4CCB6"
         id="stop206" />
      <stop
         offset="1"
         style="stop-color:#AC9F83"
         id="stop207" />
      <a:midPointStop
         offset="0"
         style="stop-color:#D4CCB6"
         id="midPointStop208" />
      <a:midPointStop
         offset="0.5"
         style="stop-color:#D4CCB6"
         id="midPointStop209" />
      <a:midPointStop
         offset="1"
         style="stop-color:#AC9F83"
         id="midPointStop210" />
    </linearGradient>
    <path
       i:knockout="Off"
       style="fill:url(#XMLID_5_);stroke:none;"
       d="M152.554,142.122c-11.561,0-20.933,7.574-20.933,16.916s9.372,16.914,20.933,16.914    s20.932-7.572,20.932-16.914S164.114,142.122,152.554,142.122z M152.554,169.595c-9.01,0-15.742-5.574-15.742-10.557    c0-4.984,6.732-10.558,15.742-10.558s15.741,5.573,15.741,10.558C168.295,164.021,161.563,169.595,152.554,169.595z"
       id="path211" />
    <path
       i:knockout="Off"
       style="fill:#AC9F83;stroke:none;"
       d="M153.167,169.595c-7.198,0-14.313-5.306-14.313-10.289    c0-4.873,6.879-10.575,13.836-10.813c-1.098-0.248-2.252-0.385-3.453-0.385c-5.264,0-9.649,2.588-12.035,5.877    c-0.492,1.597-0.759,3.293-0.759,5.054c0,2.29,0.452,4.475,1.268,6.466c2.472,2.973,6.616,5.227,11.526,5.227    c2.326,0,4.479-0.509,6.366-1.356C154.819,169.517,154.006,169.595,153.167,169.595z"
       id="path212" />
    <path
       i:knockout="Off"
       style="fill:#FFFFFF;stroke:none;"
       d="M155.077,142.249c9.191,2.419,15.813,9.189,15.813,17.17    c0,6.611-4.545,12.395-11.331,15.559c8.114-2.328,13.926-8.585,13.926-15.939C173.485,150.387,165.446,143.257,155.077,142.249z"
       id="path213" />
    <linearGradient
       id="XMLID_6_"
       gradientUnits="userSpaceOnUse"
       x1="71.9131"
       y1="127.8374"
       x2="129.6043"
       y2="185.5283">
      <stop
         offset="0"
         style="stop-color:#FFFFFF"
         id="stop215" />
      <stop
         offset="0.2978"
         style="stop-color:#E6DFCC"
         id="stop216" />
      <stop
         offset="0.7022"
         style="stop-color:#AC9F83"
         id="stop217" />
      <stop
         offset="1"
         style="stop-color:#7F7358"
         id="stop218" />
      <a:midPointStop
         offset="0"
         style="stop-color:#FFFFFF"
         id="midPointStop219" />
      <a:midPointStop
         offset="0.5"
         style="stop-color:#FFFFFF"
         id="midPointStop220" />
      <a:midPointStop
         offset="0.2978"
         style="stop-color:#E6DFCC"
         id="midPointStop221" />
      <a:midPointStop
         offset="0.5"
         style="stop-color:#E6DFCC"
         id="midPointStop222" />
      <a:midPointStop
         offset="0.7022"
         style="stop-color:#AC9F83"
         id="midPointStop223" />
      <a:midPointStop
         offset="0.5"
         style="stop-color:#AC9F83"
         id="midPointStop224" />
      <a:midPointStop
         offset="1"
         style="stop-color:#7F7358"
         id="midPointStop225" />
    </linearGradient>
    <path
       i:knockout="Off"
       style="fill:url(#XMLID_6_);stroke:none;"
       d="M149.748,140.861c-1.171,8.1-23.313,14.561-50.466,14.561    c-26.298,0-47.894-6.061-50.292-13.801c-0.002,0.217-0.01,0.432-0.01,0.649c0,24.671,12.766,45.827,30.939,54.803    c5.421,0.853,11.101,1.308,16.953,1.308c8.798,0,17.208-1.026,24.932-2.895c16.596-9.722,28.002-29.897,28.002-53.216    c0-0.472-0.006-0.94-0.016-1.409C149.775,140.861,149.762,140.861,149.748,140.861z"
       id="path226" />
    <path
       i:knockout="Off"
       style="opacity:0.5;fill:#FFFFFF;stroke:none;"
       d="M76.815,155.202l-16-4.165c0,0-5.042,28.055,14.466,41.864    c19.508,13.809-9.206-18.631-0.658-34.632C83.172,142.27,76.815,155.202,76.815,155.202z"
       id="path227" />
    <path
       i:knockout="Off"
       style="fill:#FFFFFF;stroke:none;"
       d="M51.609,143.677c0,8.907,21.197,16.128,47.344,16.128s47.345-7.221,47.345-16.128    s-21.197-16.128-47.345-16.128S51.609,134.77,51.609,143.677z"
       id="path228" />
    <linearGradient
       id="XMLID_7_"
       gradientUnits="userSpaceOnUse"
       x1="80.394"
       y1="121.2993"
       x2="110.6405"
       y2="151.5458">
      <stop
         offset="0"
         style="stop-color:#7F7358"
         id="stop230" />
      <stop
         offset="1"
         style="stop-color:#E6DFCC"
         id="stop231" />
      <a:midPointStop
         offset="0"
         style="stop-color:#7F7358"
         id="midPointStop232" />
      <a:midPointStop
         offset="0.5"
         style="stop-color:#7F7358"
         id="midPointStop233" />
      <a:midPointStop
         offset="1"
         style="stop-color:#E6DFCC"
         id="midPointStop234" />
    </linearGradient>
    <path
       i:knockout="Off"
       style="fill:url(#XMLID_7_);stroke:none;"
       d="M53.996,140.188c1.143,2.861,16.315,10.044,45.286,10.044s44.144-7.183,45.287-10.044    c-1.143-2.861-16.316-10.043-45.287-10.043C70.313,130.145,55.139,137.326,53.996,140.188z"
       id="path235" />
    <linearGradient
       id="XMLID_8_"
       gradientUnits="userSpaceOnUse"
       x1="53.9961"
       y1="143.0898"
       x2="144.5684"
       y2="143.0898">
      <stop
         offset="0"
         style="stop-color:#753700"
         id="stop237" />
      <stop
         offset="1"
         style="stop-color:#EB6300"
         id="stop238" />
      <a:midPointStop
         offset="0"
         style="stop-color:#753700"
         id="midPointStop239" />
      <a:midPointStop
         offset="0.5"
         style="stop-color:#753700"
         id="midPointStop240" />
      <a:midPointStop
         offset="1"
         style="stop-color:#EB6300"
         id="midPointStop241" />
    </linearGradient>
    <path
       i:knockout="Off"
       style="fill:url(#XMLID_8_);stroke:none;"
       d="M53.996,143.089c1.143,1.665,16.315,5.844,45.286,5.844s44.144-4.179,45.287-5.844    c-1.143-1.664-16.316-5.843-45.287-5.843C70.313,137.246,55.139,141.425,53.996,143.089z"
       id="path242" />
    <linearGradient
       id="XMLID_9_"
       gradientUnits="userSpaceOnUse"
       x1="84.7056"
       y1="125.6108"
       x2="121.9702"
       y2="162.8755">
      <stop
         offset="0"
         style="stop-color:#FFFFFF"
         id="stop244" />
      <stop
         offset="1"
         style="stop-color:#AC9F83"
         id="stop245" />
      <a:midPointStop
         offset="0"
         style="stop-color:#FFFFFF"
         id="midPointStop246" />
      <a:midPointStop
         offset="0.5"
         style="stop-color:#FFFFFF"
         id="midPointStop247" />
      <a:midPointStop
         offset="1"
         style="stop-color:#AC9F83"
         id="midPointStop248" />
    </linearGradient>
    <path
       i:knockout="Off"
       style="fill:url(#XMLID_9_);stroke:none;"
       d="M99.282,124.954c-27.902,0-50.522,6.82-50.522,15.233s22.62,15.234,50.522,15.234    c27.904,0,50.523-6.821,50.523-15.234S127.186,124.954,99.282,124.954z M99.282,150.231c-28.97,0-44.143-7.183-45.286-10.044    c1.143-2.861,16.316-10.043,45.286-10.043c28.97,0,44.144,7.182,45.287,10.043C143.426,143.049,128.252,150.231,99.282,150.231z"
       id="path249" />
    <linearGradient
       id="XMLID_10_"
       gradientUnits="userSpaceOnUse"
       x1="105.5347"
       y1="121.3462"
       x2="105.5347"
       y2="69.0586">
      <stop
         offset="0.1966"
         style="stop-color:#CCCCCC"
         id="stop251" />
      <stop
         offset="1"
         style="stop-color:#FFFFFF"
         id="stop252" />
      <a:midPointStop
         offset="0.1966"
         style="stop-color:#CCCCCC"
         id="midPointStop253" />
      <a:midPointStop
         offset="0.5"
         style="stop-color:#CCCCCC"
         id="midPointStop254" />
      <a:midPointStop
         offset="1"
         style="stop-color:#FFFFFF"
         id="midPointStop255" />
    </linearGradient>
    <path
       i:knockout="Off"
       style="opacity:0.5;fill:url(#XMLID_10_);stroke:none;"
       d="M89.748,140.955c0,0,17.973-5.918,13.37-13.809s-19.288-9.794-22.795-16.878    S98.515,83.09,98.515,83.09S96.323,68.404,83.83,64.897c-12.493-3.507,40.989,3.726,40.989,3.726s14.246,14.905-0.439,24.33    c-14.685,9.425-32.439,4.822-28.056,14.027c4.384,9.206,19.727,15.344,15.563,21.7s-14.028,12.493-19.069,13.151    C87.775,142.489,89.748,140.955,89.748,140.955z"
       id="path256" />
  </g>
  <g
     id="Layer_2"
     i:layer="yes"
     i:editable="no"
     i:dimmedPercent="50"
     i:rgbTrio="#FFFF4F004F00"
     style="stroke:#000000;">
    <path
       i:knockout="Off"
       style="fill:none;stroke:none;"
       d="M256,256H0V0h256V256z"
       id="path258" />
  </g>
</svg>
