<?xml version="1.0" encoding="UTF-8" standalone="no"?>
<!DOCTYPE svg PUBLIC "-//W3C//DTD SVG 20010904//EN"
"http://www.w3.org/TR/2001/REC-SVG-20010904/DTD/svg10.dtd">
<!-- Created with Sodipodi ("http://www.sodipodi.com/") -->
<svg
   i:viewOrigin="178 524"
   i:rulerOrigin="-178 -268"
   i:pageBounds="178 524 434 268"
   width="48pt"
   height="48pt"
   viewBox="0 0 256 256"
   style="overflow:visible;enable-background:new 0 0 256 256"
   xml:space="preserve"
   xmlns="http://www.w3.org/2000/svg"
   xmlns:ns="&amp;ns_vars;"
   xmlns:i="&amp;ns_ai;"
   xmlns:xml="http://www.w3.org/XML/1998/namespace"
   xmlns:a="http://ns.adobe.com/AdobeSVGViewerExtensions/3.0/"
   xmlns:sodipodi="http://sodipodi.sourceforge.net/DTD/sodipodi-0.dtd"
   xmlns:xlink="http://www.w3.org/1999/xlink"
   id="svg153"
   sodipodi:version="0.32pre"
   sodipodi:docname="/home/cschalle/gnome-themes-extras/Lush/icons/scalable/mimetypes/gnome-mime-application-x-reject.svgz"
   sodipodi:docbase="/home/cschalle/gnome-themes-extras/Lush/icons/scalable/mimetypes/">
  <defs
     id="defs298" />
  <sodipodi:namedview
     id="base" />
  <metadata
     id="metadata154">
    <ns:variableSets>
      <ns:variableSet
         varSetName="binding1"
         locked="none">
        <ns:variables />
        <ns:sampleDataSets />
      </ns:variableSet>
    </ns:variableSets>
  </metadata>
  <g
     id="Layer_1"
     i:layer="yes"
     i:dimmedPercent="50"
     i:rgbTrio="#4F008000FFFF"
     style="stroke:#000000;">
    <linearGradient
       id="XMLID_1_"
       gradientUnits="userSpaceOnUse"
       x1="131.2803"
       y1="242.2021"
       x2="131.2803"
       y2="225.9855">
      <stop
         offset="0"
         style="stop-color:#CCCCCC"
         id="stop157" />
      <stop
         offset="1"
         style="stop-color:#000000"
         id="stop158" />
      <a:midPointStop
         offset="0"
         style="stop-color:#CCCCCC"
         id="midPointStop159" />
      <a:midPointStop
         offset="0.5"
         style="stop-color:#CCCCCC"
         id="midPointStop160" />
      <a:midPointStop
         offset="1"
         style="stop-color:#000000"
         id="midPointStop161" />
    </linearGradient>
    <path
       i:knockout="Off"
       style="opacity:0.36;fill:url(#XMLID_1_);stroke:none;"
       d="M21.45,228.51c-1.577,8.76,46.318,16.188,106.977,16.592    c60.658,0.402,111.107-6.375,112.685-15.134c1.576-8.759-46.316-16.187-106.975-16.589    C73.478,212.976,23.026,219.751,21.45,228.51z"
       id="path162" />
    <path
       i:knockout="Off"
       style="stroke:none;"
       d="M222.378,44.725L106.815,33.279l0.824,0.114c-12.484-2.223-31.43,10.05-34.033,17.923    l0.215-0.547L10.899,188.715l-0.092,0.278c-2.847,8.613,3.999,17.251,15.257,19.255l134.77,23.995    c11.258,2.004,22.734-3.372,25.58-11.984l51.628-156.205c2.847-8.613-3.998-17.251-15.256-19.256L222.378,44.725z"
       id="path163" />
    <linearGradient
       id="XMLID_2_"
       gradientUnits="userSpaceOnUse"
       x1="101.2012"
       y1="49.4717"
       x2="130.5948"
       y2="153.5337">
      <stop
         offset="0"
         style="stop-color:#D4D4D4"
         id="stop165" />
      <stop
         offset="1"
         style="stop-color:#F0F0F0"
         id="stop166" />
      <a:midPointStop
         offset="0"
         style="stop-color:#D4D4D4"
         id="midPointStop167" />
      <a:midPointStop
         offset="0.5"
         style="stop-color:#D4D4D4"
         id="midPointStop168" />
      <a:midPointStop
         offset="1"
         style="stop-color:#F0F0F0"
         id="midPointStop169" />
    </linearGradient>
    <path
       i:knockout="Off"
       style="fill:url(#XMLID_2_);stroke:none;"
       d="M17.192,189.302c-1.711,5.178,2.388,10.348,9.154,11.554l134.769,23.994    c6.767,1.204,13.638-2.014,15.349-7.191l51.627-156.203c1.711-5.177-2.388-10.35-9.153-11.555L103.789,38.497    c-6.766-1.205-22.087,7.953-23.797,13.129L17.192,189.302z"
       id="path170" />
    <path
       i:knockout="Off"
       style="fill:none;stroke:none;"
       d="M19.313,192.584L82.112,54.909c1.711-5.177,17.033-14.334,23.798-13.129l117.878,9.91    c-1.382-0.833-3.015-1.461-4.851-1.788L103.789,38.497c-6.766-1.205-22.087,7.953-23.797,13.129l-62.8,137.676    c-0.975,2.951-0.057,5.901,2.164,8.116C18.818,195.892,18.765,194.24,19.313,192.584z"
       id="path171" />
    <g
       i:knockout="Off"
       id="g172" />
    <path
       i:knockout="Off"
       style="fill:#C2C2C2;stroke:none;"
       d="M170.909,211.829c-1.711,5.177-8.582,8.396-15.349,7.191l-90.616-11.294l96.17,17.123    c6.767,1.204,13.638-2.014,15.349-7.191l46.879-141.839L170.909,211.829z"
       id="path173" />
    <radialGradient
       id="XMLID_3_"
       cx="122.9863"
       cy="61.2827"
       r="7.46"
       fx="122.9863"
       fy="61.2827"
       gradientTransform="matrix(0.8964 0.0346 -0.3107 1.1036 32.3881 -10.5311)"
       gradientUnits="userSpaceOnUse">
      <stop
         offset="0.8595"
         style="stop-color:#C2C2C2"
         id="stop175" />
      <stop
         offset="1"
         style="stop-color:#000000"
         id="stop176" />
      <a:midPointStop
         offset="0.8595"
         style="stop-color:#C2C2C2"
         id="midPointStop177" />
      <a:midPointStop
         offset="0.5"
         style="stop-color:#C2C2C2"
         id="midPointStop178" />
      <a:midPointStop
         offset="1"
         style="stop-color:#000000"
         id="midPointStop179" />
    </radialGradient>
    <path
       i:knockout="Off"
       style="fill:url(#XMLID_3_);stroke:none;"
       d="M116.158,59.226c-1.259,4.127,0.663,7.579,4.294,7.708    c3.63,0.13,7.594-3.113,8.852-7.241c1.259-4.128-0.666-7.579-4.294-7.708C121.378,51.855,117.416,55.097,116.158,59.226z"
       id="path180" />
    <radialGradient
       id="XMLID_4_"
       cx="183.2773"
       cy="65.5967"
       r="8.1347"
       fx="183.2773"
       fy="65.5967"
       gradientTransform="matrix(0.8964 0.0346 -0.3107 1.1036 32.3881 -10.5311)"
       gradientUnits="userSpaceOnUse">
      <stop
         offset="0.8595"
         style="stop-color:#C2C2C2"
         id="stop182" />
      <stop
         offset="1"
         style="stop-color:#000000"
         id="stop183" />
      <a:midPointStop
         offset="0.8595"
         style="stop-color:#C2C2C2"
         id="midPointStop184" />
      <a:midPointStop
         offset="0.5"
         style="stop-color:#C2C2C2"
         id="midPointStop185" />
      <a:midPointStop
         offset="1"
         style="stop-color:#000000"
         id="midPointStop186" />
    </radialGradient>
    <path
       i:knockout="Off"
       style="fill:url(#XMLID_4_);stroke:none;"
       d="M168.191,65.88c-1.373,4.5,0.723,8.264,4.682,8.405c3.958,0.142,8.28-3.395,9.652-7.896    c1.372-4.501-0.726-8.264-4.683-8.405C173.884,57.843,169.563,61.378,168.191,65.88z"
       id="path187" />
    <path
       i:knockout="Off"
       style="stroke:none;"
       d="M118.663,51c0-11.875,7.377-21.5,16.478-21.5c3.754,0,6.589,7.242,9.359,10    c-2.61-7.379-4.61-18.5-13.021-18C122.941,22.008,116,32.021,116,45c0,7.096,2.075,13.452,5.35,17.761    C119.653,59.381,118.663,55.342,118.663,51z"
       id="path188" />
    <path
       i:knockout="Off"
       style="stroke:none;"
       d="M170.663,56c0-11.875,7.378-21.5,16.478-21.5c3.754,0,6.589,7.242,9.359,10    c-2.61-7.379-4.61-18.5-13.021-18C174.941,27.008,168,37.021,168,50c0,7.096,2.074,13.452,5.35,17.761    C171.652,64.381,170.663,60.342,170.663,56z"
       id="path189" />
    <path
       i:knockout="Off"
       style="opacity:0.36;fill:#999999;stroke:none;"
       d="M72.184,68.743l-27.683,60.69l27.683,26.265c0,0,0-20.994,0-23.558    c2.751-0.779,41.141-11.68,41.141-11.68l-0.001-36.444c0,0-38.369-10.666-41.139-11.438    C72.184,72.022,72.184,70.611,72.184,68.743z M144.303,221.856l44.833-42.538l3.698-11.188l-52.159-49.484v4.747    c0,0,0.003,16.204,0.003,18.781c-2.769,0.768-41.141,11.44-41.141,11.44v36.442c0,0,38.389,10.9,41.141,11.681    c0,1.808,0,13.223,0,19.474L144.303,221.856z"
       id="path190" />
    <path
       i:knockout="Off"
       style="stroke:none;"
       d="M59.681,35.372l-2.586,2.455L6.98,85.374l56.204,53.323c0,0,0-20.994,0-23.558    c2.751-0.779,41.141-11.68,41.141-11.68l-0.001-36.444c0,0-38.369-10.666-41.139-11.438c0-2.575,0-23.529,0-23.529L59.681,35.372z    "
       id="path191" />
    <linearGradient
       id="XMLID_5_"
       gradientUnits="userSpaceOnUse"
       x1="-22.7866"
       y1="137.4658"
       x2="65.5635"
       y2="137.4658"
       gradientTransform="matrix(1 0 0 1 35.1294 -52.0928)">
      <stop
         offset="0"
         style="stop-color:#33CC33"
         id="stop193" />
      <stop
         offset="0.2919"
         style="stop-color:#2FC82F"
         id="stop194" />
      <stop
         offset="0.5615"
         style="stop-color:#24BD24"
         id="stop195" />
      <stop
         offset="0.8215"
         style="stop-color:#12AB12"
         id="stop196" />
      <stop
         offset="1"
         style="stop-color:#009900"
         id="stop197" />
      <a:midPointStop
         offset="0"
         style="stop-color:#33CC33"
         id="midPointStop198" />
      <a:midPointStop
         offset="0.7232"
         style="stop-color:#33CC33"
         id="midPointStop199" />
      <a:midPointStop
         offset="1"
         style="stop-color:#009900"
         id="midPointStop200" />
    </linearGradient>
    <path
       i:knockout="Off"
       style="fill:url(#XMLID_5_);stroke:none;"
       d="M55.242,44.673l-20.279,19.24l-22.62,21.461l47.213,44.79c0,0-0.002-14.708,0-17.876    c3.571-1.014,41.137-11.681,41.137-11.681V69.884c0,0-37.545-10.44-41.139-11.44c0.001-3.175,0.001-17.861,0.001-17.861    L55.242,44.673z"
       id="path201" />
    <path
       i:knockout="Off"
       style="fill:#99FF66;stroke:none;"
       d="M98.077,72.159L56.938,60.72V46.893l-20.279,19.24l-20.28,19.242l20.28,19.239    l20.279,19.241v-13.828l41.139-11.684V72.159z"
       id="path202" />
    <linearGradient
       id="XMLID_6_"
       gradientUnits="userSpaceOnUse"
       x1="22.9497"
       y1="157.4395"
       x2="22.9497"
       y2="76.4159"
       gradientTransform="matrix(1 0 0 1 35.1294 -52.0928)">
      <stop
         offset="0"
         style="stop-color:#33CC33"
         id="stop204" />
      <stop
         offset="1"
         style="stop-color:#009900"
         id="stop205" />
      <a:midPointStop
         offset="0"
         style="stop-color:#33CC33"
         id="midPointStop206" />
      <a:midPointStop
         offset="0.5"
         style="stop-color:#33CC33"
         id="midPointStop207" />
      <a:midPointStop
         offset="1"
         style="stop-color:#009900"
         id="midPointStop208" />
    </linearGradient>
    <path
       i:knockout="Off"
       style="fill:url(#XMLID_6_);stroke:none;"
       d="M76.025,85.593c-9.419-2.333-18.836-6.997-28.253-3.498    c-8.34,3.826-17.599,4.578-26.485,3.214c-0.021,0.02-0.046,0.044-0.067,0.064c4.167,3.953,26.837,25.462,32.58,30.907    c0-3.1,0-8.976,0-8.976s36.939-10.487,41.139-11.682c0-2.306,0-7.887,0-12.827C88.855,85.168,82.843,87.401,76.025,85.593z"
       id="path209" />
    <linearGradient
       id="XMLID_7_"
       gradientUnits="userSpaceOnUse"
       x1="22.9839"
       y1="113.1406"
       x2="22.9839"
       y2="149.2816"
       gradientTransform="matrix(1 0 0 1 35.1294 -52.0928)">
      <stop
         offset="0"
         style="stop-color:#4DB36D"
         id="stop211" />
      <stop
         offset="1"
         style="stop-color:#1E7945"
         id="stop212" />
      <a:midPointStop
         offset="0"
         style="stop-color:#4DB36D"
         id="midPointStop213" />
      <a:midPointStop
         offset="0.5"
         style="stop-color:#4DB36D"
         id="midPointStop214" />
      <a:midPointStop
         offset="1"
         style="stop-color:#1E7945"
         id="midPointStop215" />
    </linearGradient>
    <path
       i:knockout="Off"
       style="fill:url(#XMLID_7_);stroke:none;"
       d="M47.772,82.095c9.417-3.499,18.834,1.165,28.253,3.498    c6.817,1.808,12.83-0.425,18.914-2.796c0-3.315,0-6.348,0-7.905C90.716,73.717,53.8,63.452,53.8,63.452s0-5.889,0-8.988    c-5.742,5.447-15.106,14.332-15.106,14.332S25.523,81.29,21.287,85.31C30.173,86.673,39.432,85.921,47.772,82.095z"
       id="path216" />
    <linearGradient
       id="XMLID_8_"
       gradientUnits="userSpaceOnUse"
       x1="22.5083"
       y1="137.4658"
       x2="63.8452"
       y2="137.4658"
       gradientTransform="matrix(1 0 0 1 35.1294 -52.0928)">
      <stop
         offset="0"
         style="stop-color:#41AF7E"
         id="stop218" />
      <stop
         offset="0.5353"
         style="stop-color:#40AD7D"
         id="stop219" />
      <stop
         offset="0.7282"
         style="stop-color:#3EA678"
         id="stop220" />
      <stop
         offset="0.8651"
         style="stop-color:#399B6F"
         id="stop221" />
      <stop
         offset="0.9756"
         style="stop-color:#338A63"
         id="stop222" />
      <stop
         offset="1"
         style="stop-color:#318560"
         id="stop223" />
      <a:midPointStop
         offset="0"
         style="stop-color:#41AF7E"
         id="midPointStop224" />
      <a:midPointStop
         offset="0.87"
         style="stop-color:#41AF7E"
         id="midPointStop225" />
      <a:midPointStop
         offset="1"
         style="stop-color:#318560"
         id="midPointStop226" />
    </linearGradient>
    <path
       i:knockout="Off"
       style="fill:url(#XMLID_8_);stroke:none;adobe-blending-mode:screen;"
       d="M38.354,68.352c0,0-14.281,13.548-17.941,17.022c3.66,3.474,28.562,27.099,33.91,32.17    c-0.001-3.731-0.001-9.784-0.001-9.784s37.567-10.668,41.14-11.682c0-3.421-0.001-18.205,0-21.642    c-3.593-0.998-41.139-11.438-41.139-11.438s-0.001-6.065-0.001-9.795C48.975,58.276,38.354,68.352,38.354,68.352z"
       id="path227" />
    <path
       i:knockout="Off"
       style="stroke:none;"
       d="M131.675,106.393c0,0,0.003,16.204,0.003,18.781c-2.769,0.768-41.141,11.44-41.141,11.44    v36.442c0,0,38.389,10.9,41.141,11.681c0,2.511,0,23.556,0,23.556l3.501-3.319l52.702-50.004l-56.206-53.324V106.393z"
       id="path228" />
    <linearGradient
       id="XMLID_9_"
       gradientUnits="userSpaceOnUse"
       x1="-1.1631"
       y1="116.479"
       x2="11.0233"
       y2="128.6654"
       gradientTransform="matrix(1 0 0 1 35.1294 -52.0928)">
      <stop
         offset="0"
         style="stop-color:#FFFFFF"
         id="stop230" />
      <stop
         offset="0.1375"
         style="stop-color:#FBFBFB"
         id="stop231" />
      <stop
         offset="0.2647"
         style="stop-color:#F0F0F0"
         id="stop232" />
      <stop
         offset="0.3879"
         style="stop-color:#DDDDDD"
         id="stop233" />
      <stop
         offset="0.5085"
         style="stop-color:#C3C3C3"
         id="stop234" />
      <stop
         offset="0.6273"
         style="stop-color:#A1A1A1"
         id="stop235" />
      <stop
         offset="0.7448"
         style="stop-color:#777777"
         id="stop236" />
      <stop
         offset="0.8613"
         style="stop-color:#464646"
         id="stop237" />
      <stop
         offset="0.9741"
         style="stop-color:#0E0E0E"
         id="stop238" />
      <stop
         offset="1"
         style="stop-color:#000000"
         id="stop239" />
      <a:midPointStop
         offset="0"
         style="stop-color:#FFFFFF"
         id="midPointStop240" />
      <a:midPointStop
         offset="0.7232"
         style="stop-color:#FFFFFF"
         id="midPointStop241" />
      <a:midPointStop
         offset="1"
         style="stop-color:#000000"
         id="midPointStop242" />
    </linearGradient>
    <path
       i:knockout="Off"
       style="fill:url(#XMLID_9_);stroke:none;adobe-blending-mode:screen;"
       d="M55.892,52.96c0-0.822-0.001-1.604,0-2.28c-3.937,3.735-17.691,16.787-17.691,16.787    s-16.447,15.6-18.878,17.908c0.764,0.723,4.277,4.057,8.855,8.4C33.624,75.864,43.521,61.321,55.892,52.96z"
       id="path243" />
    <linearGradient
       id="XMLID_10_"
       gradientUnits="userSpaceOnUse"
       x1="29.4883"
       y1="123.6943"
       x2="117.8379"
       y2="123.6943"
       gradientTransform="matrix(-1 0 0 1 212.0059 31.2764)">
      <stop
         offset="0"
         style="stop-color:#33CC33"
         id="stop245" />
      <stop
         offset="0.2919"
         style="stop-color:#2FC82F"
         id="stop246" />
      <stop
         offset="0.5615"
         style="stop-color:#24BD24"
         id="stop247" />
      <stop
         offset="0.8215"
         style="stop-color:#12AB12"
         id="stop248" />
      <stop
         offset="1"
         style="stop-color:#009900"
         id="stop249" />
      <a:midPointStop
         offset="0"
         style="stop-color:#33CC33"
         id="midPointStop250" />
      <a:midPointStop
         offset="0.7232"
         style="stop-color:#33CC33"
         id="midPointStop251" />
      <a:midPointStop
         offset="1"
         style="stop-color:#009900"
         id="midPointStop252" />
    </linearGradient>
    <path
       i:knockout="Off"
       style="fill:url(#XMLID_10_);stroke:none;"
       d="M139.618,114.27l20.28,19.242l22.619,21.458l-47.212,44.793c0,0,0-14.709,0-17.876    c-3.57-1.014-41.138-11.683-41.138-11.683v-30.725c0,0,37.545-10.438,41.138-11.437c0-3.178,0-17.864,0-17.864L139.618,114.27z"
       id="path253" />
    <path
       i:knockout="Off"
       style="fill:#99FF66;stroke:none;"
       d="M96.783,141.756l41.141-11.439v-13.828l20.277,19.241l20.282,19.24l-20.282,19.242    l-20.277,19.241v-13.829l-41.141-11.683V141.756z"
       id="path254" />
    <linearGradient
       id="XMLID_11_"
       gradientUnits="userSpaceOnUse"
       x1="75.2251"
       y1="143.6699"
       x2="75.2251"
       y2="62.6442"
       gradientTransform="matrix(-1 0 0 1 212.0059 31.2764)">
      <stop
         offset="0"
         style="stop-color:#33CC33"
         id="stop256" />
      <stop
         offset="1"
         style="stop-color:#009900"
         id="stop257" />
      <a:midPointStop
         offset="0"
         style="stop-color:#33CC33"
         id="midPointStop258" />
      <a:midPointStop
         offset="0.5"
         style="stop-color:#33CC33"
         id="midPointStop259" />
      <a:midPointStop
         offset="1"
         style="stop-color:#009900"
         id="midPointStop260" />
    </linearGradient>
    <path
       i:knockout="Off"
       style="fill:url(#XMLID_11_);stroke:none;"
       d="M118.837,155.19c9.417-2.333,18.835-6.996,28.252-3.496    c8.341,3.826,17.598,4.575,26.486,3.213c0.021,0.02,0.044,0.042,0.063,0.063c-4.166,3.954-26.836,25.464-32.576,30.91    c0-3.103,0-8.976,0-8.976s-36.941-10.489-41.14-11.683c0-2.307,0-7.887,0-12.828C106.004,154.766,112.017,157,118.837,155.19z"
       id="path261" />
    <linearGradient
       id="XMLID_12_"
       gradientUnits="userSpaceOnUse"
       x1="75.2573"
       y1="99.3687"
       x2="75.2573"
       y2="135.5091"
       gradientTransform="matrix(-1 0 0 1 212.0059 31.2764)">
      <stop
         offset="0"
         style="stop-color:#4DB36D"
         id="stop263" />
      <stop
         offset="1"
         style="stop-color:#1E7945"
         id="stop264" />
      <a:midPointStop
         offset="0"
         style="stop-color:#4DB36D"
         id="midPointStop265" />
      <a:midPointStop
         offset="0.5"
         style="stop-color:#4DB36D"
         id="midPointStop266" />
      <a:midPointStop
         offset="1"
         style="stop-color:#1E7945"
         id="midPointStop267" />
    </linearGradient>
    <path
       i:knockout="Off"
       style="fill:url(#XMLID_12_);stroke:none;"
       d="M147.089,151.694c-9.417-3.5-18.835,1.163-28.252,3.496    c-6.82,1.81-12.833-0.425-18.915-2.797c0-3.318,0-6.348,0-7.906c4.223-1.173,41.14-11.438,41.14-11.438s0-5.891,0-8.988    c5.74,5.447,15.104,14.333,15.104,14.333s13.171,12.49,17.408,16.513C164.687,156.27,155.43,155.521,147.089,151.694z"
       id="path268" />
    <linearGradient
       id="XMLID_13_"
       gradientUnits="userSpaceOnUse"
       x1="74.7822"
       y1="123.6938"
       x2="116.1197"
       y2="123.6938"
       gradientTransform="matrix(-1 0 0 1 212.0059 31.2764)">
      <stop
         offset="0"
         style="stop-color:#41AF7E"
         id="stop270" />
      <stop
         offset="0.5353"
         style="stop-color:#40AD7D"
         id="stop271" />
      <stop
         offset="0.7282"
         style="stop-color:#3EA678"
         id="stop272" />
      <stop
         offset="0.8651"
         style="stop-color:#399B6F"
         id="stop273" />
      <stop
         offset="0.9756"
         style="stop-color:#338A63"
         id="stop274" />
      <stop
         offset="1"
         style="stop-color:#318560"
         id="stop275" />
      <a:midPointStop
         offset="0"
         style="stop-color:#41AF7E"
         id="midPointStop276" />
      <a:midPointStop
         offset="0.87"
         style="stop-color:#41AF7E"
         id="midPointStop277" />
      <a:midPointStop
         offset="1"
         style="stop-color:#318560"
         id="midPointStop278" />
    </linearGradient>
    <path
       i:knockout="Off"
       style="fill:url(#XMLID_13_);stroke:none;adobe-blending-mode:screen;"
       d="M156.505,137.949c0,0,14.28,13.547,17.943,17.021c-3.661,3.474-28.563,27.1-33.909,32.173    c0-3.732,0-9.787,0-9.787s-37.568-10.669-41.141-11.68c0-3.42,0-18.205,0-21.644c3.593-0.998,41.141-11.437,41.141-11.437    s0-6.065,0-9.798C145.885,127.874,156.505,137.949,156.505,137.949z"
       id="path279" />
    <linearGradient
       id="XMLID_14_"
       gradientUnits="userSpaceOnUse"
       x1="51.1123"
       y1="102.7065"
       x2="63.2977"
       y2="114.892"
       gradientTransform="matrix(-1 0 0 1 212.0059 31.2764)">
      <stop
         offset="0"
         style="stop-color:#FFFFFF"
         id="stop281" />
      <stop
         offset="0.1375"
         style="stop-color:#FBFBFB"
         id="stop282" />
      <stop
         offset="0.2647"
         style="stop-color:#F0F0F0"
         id="stop283" />
      <stop
         offset="0.3879"
         style="stop-color:#DDDDDD"
         id="stop284" />
      <stop
         offset="0.5085"
         style="stop-color:#C3C3C3"
         id="stop285" />
      <stop
         offset="0.6273"
         style="stop-color:#A1A1A1"
         id="stop286" />
      <stop
         offset="0.7448"
         style="stop-color:#777777"
         id="stop287" />
      <stop
         offset="0.8613"
         style="stop-color:#464646"
         id="stop288" />
      <stop
         offset="0.9741"
         style="stop-color:#0E0E0E"
         id="stop289" />
      <stop
         offset="1"
         style="stop-color:#000000"
         id="stop290" />
      <a:midPointStop
         offset="0"
         style="stop-color:#FFFFFF"
         id="midPointStop291" />
      <a:midPointStop
         offset="0.7232"
         style="stop-color:#FFFFFF"
         id="midPointStop292" />
      <a:midPointStop
         offset="1"
         style="stop-color:#000000"
         id="midPointStop293" />
    </linearGradient>
    <path
       i:knockout="Off"
       style="fill:url(#XMLID_14_);stroke:none;adobe-blending-mode:screen;"
       d="M138.97,122.557c-0.004-0.824,0-1.602,0-2.28c3.938,3.734,17.689,16.785,17.689,16.785    s16.448,15.603,18.877,17.908c-0.762,0.728-4.274,4.056-8.853,8.4C161.236,145.46,151.339,130.918,138.97,122.557z"
       id="path294" />
  </g>
  <g
     id="Layer_2"
     i:layer="yes"
     i:editable="no"
     i:dimmedPercent="50"
     i:rgbTrio="#FFFF4F004F00"
     style="stroke:#000000;">
    <path
       i:knockout="Off"
       style="fill:none;stroke:none;"
       d="M256,256H0V0h256V256z"
       id="path296" />
  </g>
</svg>
