<?xml version="1.0" encoding="UTF-8" standalone="no"?>
<!DOCTYPE svg PUBLIC "-//W3C//DTD SVG 20010904//EN"
"http://www.w3.org/TR/2001/REC-SVG-20010904/DTD/svg10.dtd">
<!-- Created with Sodipodi ("http://www.sodipodi.com/") -->
<svg
   i:viewOrigin="178 524"
   i:rulerOrigin="-178 -268"
   i:pageBounds="178 524 434 268"
   width="48pt"
   height="48pt"
   viewBox="0 0 256 256"
   style="overflow:visible;enable-background:new 0 0 256 256"
   xml:space="preserve"
   xmlns="http://www.w3.org/2000/svg"
   xmlns:ns="&amp;ns_vars;"
   xmlns:i="&amp;ns_ai;"
   xmlns:xml="http://www.w3.org/XML/1998/namespace"
   xmlns:a="http://ns.adobe.com/AdobeSVGViewerExtensions/3.0/"
   xmlns:sodipodi="http://sodipodi.sourceforge.net/DTD/sodipodi-0.dtd"
   xmlns:xlink="http://www.w3.org/1999/xlink"
   id="svg153"
   sodipodi:version="0.32pre"
   sodipodi:docname="/home/cschalle/gnome-themes-extras/Lush/icons/scalable/mimetypes/gnome-mime-application-pdf.svgz"
   sodipodi:docbase="/home/cschalle/gnome-themes-extras/Lush/icons/scalable/mimetypes/">
  <defs
     id="defs201" />
  <sodipodi:namedview
     id="base" />
  <metadata
     id="metadata154">
    <ns:variableSets>
      <ns:variableSet
         varSetName="binding1"
         locked="none">
        <ns:variables />
        <ns:sampleDataSets />
      </ns:variableSet>
    </ns:variableSets>
  </metadata>
  <g
     id="Layer_1"
     i:layer="yes"
     i:dimmedPercent="50"
     i:rgbTrio="#4F008000FFFF"
     style="stroke:#000000;">
    <linearGradient
       id="XMLID_1_"
       gradientUnits="userSpaceOnUse"
       x1="131.2803"
       y1="242.2021"
       x2="131.2803"
       y2="225.9855">
      <stop
         offset="0"
         style="stop-color:#CCCCCC"
         id="stop157" />
      <stop
         offset="1"
         style="stop-color:#000000"
         id="stop158" />
      <a:midPointStop
         offset="0"
         style="stop-color:#CCCCCC"
         id="midPointStop159" />
      <a:midPointStop
         offset="0.5"
         style="stop-color:#CCCCCC"
         id="midPointStop160" />
      <a:midPointStop
         offset="1"
         style="stop-color:#000000"
         id="midPointStop161" />
    </linearGradient>
    <path
       i:knockout="Off"
       style="opacity:0.36;fill:url(#XMLID_1_);stroke:none;"
       d="M21.45,228.51c-1.577,8.76,46.318,16.188,106.977,16.592    c60.658,0.402,111.107-6.375,112.685-15.134c1.576-8.759-46.316-16.187-106.975-16.589    C73.478,212.976,23.026,219.751,21.45,228.51z"
       id="path162" />
    <path
       i:knockout="Off"
       style="stroke:none;"
       d="M222.378,44.725L106.815,33.279l0.824,0.114c-12.484-2.223-31.43,10.05-34.033,17.923    l0.215-0.547L10.899,188.715l-0.092,0.278c-2.847,8.613,3.999,17.251,15.257,19.255l134.77,23.995    c11.258,2.004,22.734-3.372,25.58-11.984l51.628-156.205c2.847-8.613-3.998-17.251-15.256-19.256L222.378,44.725z"
       id="path163" />
    <linearGradient
       id="XMLID_2_"
       gradientUnits="userSpaceOnUse"
       x1="101.2012"
       y1="49.4717"
       x2="130.5948"
       y2="153.5337">
      <stop
         offset="0"
         style="stop-color:#D4D4D4"
         id="stop165" />
      <stop
         offset="1"
         style="stop-color:#F0F0F0"
         id="stop166" />
      <a:midPointStop
         offset="0"
         style="stop-color:#D4D4D4"
         id="midPointStop167" />
      <a:midPointStop
         offset="0.5"
         style="stop-color:#D4D4D4"
         id="midPointStop168" />
      <a:midPointStop
         offset="1"
         style="stop-color:#F0F0F0"
         id="midPointStop169" />
    </linearGradient>
    <path
       i:knockout="Off"
       style="fill:url(#XMLID_2_);stroke:none;"
       d="M17.192,189.302c-1.711,5.178,2.388,10.348,9.154,11.554l134.769,23.994    c6.767,1.204,13.638-2.014,15.349-7.191l51.627-156.203c1.711-5.177-2.388-10.35-9.153-11.555L103.789,38.497    c-6.766-1.205-22.087,7.953-23.797,13.129L17.192,189.302z"
       id="path170" />
    <path
       i:knockout="Off"
       style="fill:none;stroke:none;"
       d="M19.313,192.584L82.112,54.909c1.711-5.177,17.033-14.334,23.798-13.129l117.878,9.91    c-1.382-0.833-3.015-1.461-4.851-1.788L103.789,38.497c-6.766-1.205-22.087,7.953-23.797,13.129l-62.8,137.676    c-0.975,2.951-0.057,5.901,2.164,8.116C18.818,195.892,18.765,194.24,19.313,192.584z"
       id="path171" />
    <g
       i:knockout="Off"
       id="g172" />
    <path
       i:knockout="Off"
       style="fill:#C2C2C2;stroke:none;"
       d="M170.909,211.829c-1.711,5.177-8.582,8.396-15.349,7.191l-90.616-11.294l96.17,17.123    c6.767,1.204,13.638-2.014,15.349-7.191l46.879-141.839L170.909,211.829z"
       id="path173" />
    <radialGradient
       id="XMLID_3_"
       cx="122.9863"
       cy="61.2827"
       r="7.46"
       fx="122.9863"
       fy="61.2827"
       gradientTransform="matrix(0.8964 0.0346 -0.3107 1.1036 32.3881 -10.5311)"
       gradientUnits="userSpaceOnUse">
      <stop
         offset="0.8595"
         style="stop-color:#C2C2C2"
         id="stop175" />
      <stop
         offset="1"
         style="stop-color:#000000"
         id="stop176" />
      <a:midPointStop
         offset="0.8595"
         style="stop-color:#C2C2C2"
         id="midPointStop177" />
      <a:midPointStop
         offset="0.5"
         style="stop-color:#C2C2C2"
         id="midPointStop178" />
      <a:midPointStop
         offset="1"
         style="stop-color:#000000"
         id="midPointStop179" />
    </radialGradient>
    <path
       i:knockout="Off"
       style="fill:url(#XMLID_3_);stroke:none;"
       d="M116.158,59.226c-1.259,4.127,0.663,7.579,4.294,7.708c3.63,0.13,7.594-3.113,8.852-7.241    c1.259-4.128-0.666-7.579-4.294-7.708C121.378,51.855,117.416,55.097,116.158,59.226z"
       id="path180" />
    <radialGradient
       id="XMLID_4_"
       cx="183.2773"
       cy="65.5967"
       r="8.1347"
       fx="183.2773"
       fy="65.5967"
       gradientTransform="matrix(0.8964 0.0346 -0.3107 1.1036 32.3881 -10.5311)"
       gradientUnits="userSpaceOnUse">
      <stop
         offset="0.8595"
         style="stop-color:#C2C2C2"
         id="stop182" />
      <stop
         offset="1"
         style="stop-color:#000000"
         id="stop183" />
      <a:midPointStop
         offset="0.8595"
         style="stop-color:#C2C2C2"
         id="midPointStop184" />
      <a:midPointStop
         offset="0.5"
         style="stop-color:#C2C2C2"
         id="midPointStop185" />
      <a:midPointStop
         offset="1"
         style="stop-color:#000000"
         id="midPointStop186" />
    </radialGradient>
    <path
       i:knockout="Off"
       style="fill:url(#XMLID_4_);stroke:none;"
       d="M168.191,65.88c-1.373,4.5,0.723,8.264,4.682,8.405c3.958,0.142,8.28-3.395,9.652-7.896    c1.372-4.501-0.726-8.264-4.683-8.405C173.884,57.843,169.563,61.378,168.191,65.88z"
       id="path187" />
    <path
       i:knockout="Off"
       style="stroke:none;"
       d="M118.663,51c0-11.875,7.377-21.5,16.478-21.5c3.754,0,6.589,7.242,9.359,10    c-2.61-7.379-4.61-18.5-13.021-18C122.941,22.008,116,32.021,116,45c0,7.096,2.075,13.452,5.35,17.761    C119.653,59.381,118.663,55.342,118.663,51z"
       id="path188" />
    <path
       i:knockout="Off"
       style="stroke:none;"
       d="M170.663,56c0-11.875,7.378-21.5,16.478-21.5c3.754,0,6.589,7.242,9.359,10    c-2.61-7.379-4.61-18.5-13.021-18C174.941,27.008,168,37.021,168,50c0,7.096,2.074,13.452,5.35,17.761    C171.652,64.381,170.663,60.342,170.663,56z"
       id="path189" />
    <g
       i:knockout="Off"
       style="opacity:0.36;"
       id="g190">
      <g
         id="g191">
        <path
           i:knockout="Off"
           style="fill:none;stroke:none;"
           d="M54.818,165.84c26.584-5.104,66.043-15.454,102.868-4.887      c29.384,8.281,25.643,28.441,0.508,14.023c-9.076-5.418-13.684-11.796-19.627-18.284c-11.277-12.761-21.564-24.439-30.55-37.841      c-6.508-10.697-15.194-21.077-15.022-31.216c0.162-4.314,6.392-27.596,21.723-18.492c14.11,8.669-9.904,27.802-14.154,33.938      c-5.977,10.986-14.281,20.778-20.258,31.764c-6.553,12.602-13.106,25.203-20.269,37.588c-1.532,2.369-7.59,15.512-15.031,13.226      c-9.998-2.833-1.233-13.918,1.405-15.529c2.752-1.934,7.337-3.215,10.47-4.284"
           id="path192" />
        <path
           i:knockout="Off"
           style="fill:#999999;stroke:none;"
           d="M54.818,173.48c26.956-5.062,53.689-10.746,81.302-8.596      c12.757,0.993,27.026,3.95,37.191,12.236c1.468,1.196,2.751,2.618,3.748,4.226c0.349,0.563,0.586,1.177,0.81,1.795      c0.023-4.867,0.047-9.734,0.069-14.602c-0.1,0.29-0.257,0.546-0.471,0.768c-1.946,2.227-6.158,1.271-8.544,0.671      c-12.476-3.135-21.185-13.549-29.321-22.727c-10.2-11.504-20.357-23.052-29.288-35.589c-4.094-5.746-7.966-11.78-11.611-17.821      c-1.683-2.79-3.086-5.706-4.203-8.765c-2.548-6.979-1.617,14.624-0.781,9.588c0.123-0.744,0.314-1.462,0.513-2.188      c1.808-6.588,5.872-14.733,13.563-15.201c2.769-0.168,5.552,1.215,7.771,2.715c1.087,0.735,1.91,1.737,2.537,2.876      c2.062,5.197,2.171,0.6,0.33-13.794c-0.204,0.854-0.563,1.669-0.904,2.474c-2.309,5.448-6.829,10.013-10.809,14.276      c-4.051,4.339-6.922,8.316-10.07,13.391c-5.371,8.658-11.663,16.686-16.622,25.607c-5.338,9.604-10.155,19.503-15.472,29.124      c-3.264,5.906-6.42,12.543-10.889,17.669c-1.789,2.053-4.016,3.575-6.755,3.854c-1.423,0.146-2.871-0.532-4.106-1.132      c-0.672-0.376-1.219-0.889-1.641-1.54c5.882,8.72-2.57,20.331,0.65,13.349c2.895-6.276,9.115-7.909,15.063-10.293      c1.59-0.638,1.001-8.781,1.001-10.008c0-0.518-0.242-10.209-1.001-10.008c-9.009,2.391-16.206,6.303-17.218,16.425      c-0.622,6.217-1.565,14.646,0.951,20.587c1.842,4.349,7.531,3.95,10.713,1.778c3.214-2.195,5.461-6.08,7.378-9.367      c3.158-5.416,6.208-10.896,9.209-16.401c7.519-13.793,14.389-27.653,23.307-40.624c3.535-5.142,6.416-11.341,10.383-16.089      c2.475-2.962,5.294-5.649,7.887-8.508c6.688-7.375,10.329-14.147,10.607-24.241c0.265-9.615,0.526-22.337-12.302-22.569      c-7.384-0.133-11.661,8.888-13.639,14.712c-3.357,9.885-3.035,21.747-0.644,31.743c1.561,6.525,5.773,12.454,9.357,18      c4.007,6.2,7.955,12.375,12.393,18.282c8.766,11.671,18.642,22.503,28.349,33.386c7.16,8.027,17.574,16.2,28.852,16.484      c9.697,0.244,7.032-14.471,6.541-20.384c-0.703-8.475-9.658-12.498-16.726-14.929c-27.569-9.479-58.201-5.771-86.125-0.303      c-7.125,1.396-14.216,2.959-21.336,4.379C52.81,158.6,54.602,173.521,54.818,173.48z"
           id="path193" />
      </g>
    </g>
    <g
       i:knockout="Off"
       id="g194">
      <g
         id="g195">
        <path
           i:knockout="Off"
           style="fill:none;stroke:none;"
           d="M48.818,156.84c26.584-5.104,66.043-15.454,102.868-4.887      c29.384,8.281,25.643,28.441,0.508,14.023c-9.076-5.418-13.684-11.796-19.627-18.284c-11.278-12.761-21.564-24.439-30.55-37.841      c-6.508-10.697-15.194-21.077-15.022-31.216c0.162-4.314,6.392-27.596,21.723-18.492c14.11,8.669-9.904,27.802-14.154,33.938      c-5.977,10.986-14.281,20.778-20.258,31.764c-6.553,12.602-13.106,25.203-20.269,37.588c-1.532,2.369-7.59,15.512-15.031,13.226      c-9.998-2.833-1.233-13.918,1.405-15.529c2.752-1.934,7.337-3.215,10.47-4.284"
           id="path196" />
        <path
           i:knockout="Off"
           style="fill:#F70019;stroke:none;"
           d="M48.818,164.48c26.956-5.062,53.689-10.746,81.302-8.596      c12.757,0.993,27.026,3.95,37.191,12.236c1.468,1.196,2.751,2.618,3.748,4.226c0.349,0.563,0.586,1.177,0.81,1.795      c0.023-4.867,0.047-9.734,0.07-14.602c-0.101,0.29-0.258,0.546-0.472,0.768c-1.946,2.227-6.157,1.271-8.544,0.671      c-12.477-3.135-21.185-13.55-29.322-22.727c-10.2-11.504-20.356-23.052-29.287-35.589c-4.093-5.746-7.966-11.78-11.611-17.821      c-1.683-2.79-3.086-5.706-4.203-8.765c-2.548-6.979-1.617,14.624-0.781,9.588c0.123-0.744,0.314-1.462,0.513-2.188      c1.808-6.588,5.872-14.733,13.563-15.201c2.769-0.168,5.552,1.215,7.771,2.715c1.087,0.735,1.91,1.737,2.537,2.876      c2.062,5.197,2.171,0.6,0.33-13.794c-0.204,0.854-0.563,1.669-0.904,2.474c-2.309,5.448-6.829,10.013-10.809,14.276      c-4.051,4.339-6.922,8.316-10.07,13.391c-5.371,8.658-11.663,16.686-16.622,25.606c-5.338,9.604-10.155,19.504-15.472,29.125      c-3.264,5.906-6.42,12.543-10.889,17.669c-1.789,2.053-4.016,3.575-6.755,3.854c-1.423,0.146-2.871-0.532-4.106-1.132      c-0.672-0.376-1.219-0.889-1.641-1.54c5.882,8.72-2.57,20.331,0.65,13.349c2.895-6.276,9.115-7.909,15.063-10.293      c1.59-0.638,1.001-8.781,1.001-10.008c0-0.518-0.242-10.209-1.001-10.008c-9.009,2.391-16.206,6.303-17.218,16.425      c-0.622,6.217-1.565,14.646,0.951,20.587c1.842,4.349,7.531,3.95,10.713,1.778c3.214-2.195,5.461-6.08,7.378-9.367      c3.158-5.416,6.208-10.896,9.209-16.401c7.519-13.793,14.389-27.654,23.307-40.624c3.535-5.142,6.416-11.341,10.383-16.089      c2.475-2.962,5.295-5.649,7.887-8.508c6.688-7.375,10.329-14.147,10.607-24.241c0.265-9.615,0.526-22.337-12.302-22.569      c-7.383-0.133-11.661,8.888-13.639,14.712c-3.357,9.885-3.035,21.747-0.644,31.743c1.561,6.525,5.773,12.454,9.357,18      c4.007,6.2,7.955,12.375,12.392,18.282c8.767,11.671,18.642,22.503,28.349,33.386c7.16,8.027,17.574,16.2,28.852,16.484      c9.697,0.244,7.032-14.471,6.541-20.384c-0.703-8.475-9.658-12.498-16.726-14.929c-27.568-9.479-58.202-5.771-86.125-0.303      c-7.125,1.396-14.216,2.959-21.336,4.379C46.81,149.6,48.602,164.521,48.818,164.48z"
           id="path197" />
      </g>
    </g>
  </g>
  <g
     id="Layer_2"
     i:layer="yes"
     i:editable="no"
     i:dimmedPercent="50"
     i:rgbTrio="#FFFF4F004F00"
     style="stroke:#000000;">
    <path
       i:knockout="Off"
       style="fill:none;stroke:none;"
       d="M256,256H0V0h256V256z"
       id="path199" />
  </g>
</svg>
