<?xml version="1.0" encoding="UTF-8" standalone="no"?>
<!-- Created with Inkscape (http://www.inkscape.org/) -->
<svg
   xmlns:dc="http://purl.org/dc/elements/1.1/"
   xmlns:cc="http://web.resource.org/cc/"
   xmlns:rdf="http://www.w3.org/1999/02/22-rdf-syntax-ns#"
   xmlns:svg="http://www.w3.org/2000/svg"
   xmlns="http://www.w3.org/2000/svg"
   xmlns:xlink="http://www.w3.org/1999/xlink"
   xmlns:sodipodi="http://inkscape.sourceforge.net/DTD/sodipodi-0.dtd"
   xmlns:inkscape="http://www.inkscape.org/namespaces/inkscape"
   width="64.000000px"
   height="64.000000px"
   id="svg2"
   sodipodi:version="0.32"
   inkscape:version="0.42"
   sodipodi:docbase="/home/almoo7/Desktop/SnowIsh/SnowIsh-1.0/scalable/apps"
   sodipodi:docname="inkscape.svg">
  <defs
     id="defs4">
    <linearGradient
       y2="28.120696"
       x2="130.70353"
       y1="170.27164"
       x1="27.318817"
       id="linearGradient1221"
       xlink:href="#linearGradient1222"
       gradientTransform="scale(1.021116,0.979320)"
       gradientUnits="userSpaceOnUse" />
    <linearGradient
       id="linearGradient1218">
      <stop
         id="stop1219"
         offset="0.00000000"
         style="stop-color:#000000;stop-opacity:1.0000000;" />
      <stop
         id="stop1321"
         offset="0.073255815"
         style="stop-color:#323232;stop-opacity:1.0000000;" />
      <stop
         id="stop1320"
         offset="0.65260679"
         style="stop-color:#000000;stop-opacity:1.0000000;" />
      <stop
         id="stop1220"
         offset="1"
         style="stop-color:#fff;stop-opacity:1;" />
    </linearGradient>
    <linearGradient
       id="linearGradient1222">
      <stop
         id="stop1223"
         offset="0.00000000"
         style="stop-color:#000000;stop-opacity:0.32231405;" />
      <stop
         id="stop1224"
         offset="1.0000000"
         style="stop-color:#000000;stop-opacity:0.00000000;" />
    </linearGradient>
    <linearGradient
       id="linearGradient1273">
      <stop
         id="stop1274"
         offset="0.00000000"
         style="stop-color:#ffffff;stop-opacity:1.0000000;" />
      <stop
         id="stop1275"
         offset="1.0000000"
         style="stop-color:#ffffff;stop-opacity:0.00000000;" />
    </linearGradient>
    <linearGradient
       id="linearGradient1323">
      <stop
         id="stop1324"
         offset="0.00000000"
         style="stop-color:#000000;stop-opacity:0.77685952;" />
      <stop
         id="stop1325"
         offset="1.0000000"
         style="stop-color:#000000;stop-opacity:0.00000000;" />
    </linearGradient>
    <linearGradient
       id="linearGradient826">
      <stop
         id="stop827"
         offset="0.00000000"
         style="stop-color:#000000;stop-opacity:0.95294118;" />
      <stop
         id="stop830"
         offset="0.36585677"
         style="stop-color:#000000;stop-opacity:0.76078433;" />
      <stop
         id="stop847"
         offset="0.47107276"
         style="stop-color:#000000;stop-opacity:0.52941179;" />
      <stop
         id="stop828"
         offset="1.0000000"
         style="stop-color:#ffffff;stop-opacity:0.00000000;" />
    </linearGradient>
    <linearGradient
       inkscape:collect="always"
       xlink:href="#linearGradient1222"
       id="linearGradient1416"
       gradientUnits="userSpaceOnUse"
       gradientTransform="scale(1.021116,0.979320)"
       x1="27.318817"
       y1="170.27164"
       x2="130.70353"
       y2="28.120696" />
    <linearGradient
       inkscape:collect="always"
       xlink:href="#linearGradient1222"
       id="linearGradient1418"
       gradientUnits="userSpaceOnUse"
       gradientTransform="scale(1.021116,0.979320)"
       x1="27.318817"
       y1="170.27164"
       x2="130.70353"
       y2="28.120696" />
    <linearGradient
       inkscape:collect="always"
       xlink:href="#linearGradient1222"
       id="linearGradient1420"
       gradientUnits="userSpaceOnUse"
       gradientTransform="scale(1.021116,0.979320)"
       x1="27.318817"
       y1="170.27164"
       x2="130.70353"
       y2="28.120696" />
    <linearGradient
       inkscape:collect="always"
       xlink:href="#linearGradient1222"
       id="linearGradient1422"
       gradientUnits="userSpaceOnUse"
       gradientTransform="scale(1.021116,0.979320)"
       x1="27.318817"
       y1="170.27164"
       x2="130.70353"
       y2="28.120696" />
    <linearGradient
       inkscape:collect="always"
       xlink:href="#linearGradient1222"
       id="linearGradient1424"
       gradientUnits="userSpaceOnUse"
       gradientTransform="scale(1.021116,0.979320)"
       x1="27.318817"
       y1="170.27164"
       x2="130.70353"
       y2="28.120696" />
    <linearGradient
       inkscape:collect="always"
       xlink:href="#linearGradient1222"
       id="linearGradient1426"
       gradientUnits="userSpaceOnUse"
       gradientTransform="scale(1.021116,0.979320)"
       x1="27.318817"
       y1="170.27164"
       x2="130.70353"
       y2="28.120696" />
    <linearGradient
       inkscape:collect="always"
       xlink:href="#linearGradient1273"
       id="linearGradient1429"
       gradientUnits="userSpaceOnUse"
       gradientTransform="matrix(0.653239,0.000000,0.000000,0.365206,-6.830121,1.042456)"
       x1="59.491886"
       y1="30.563196"
       x2="33.266399"
       y2="58.199241" />
    <linearGradient
       inkscape:collect="always"
       xlink:href="#linearGradient1273"
       id="linearGradient1432"
       gradientUnits="userSpaceOnUse"
       gradientTransform="matrix(0.676743,0.000000,0.000000,0.465011,-12.85993,-3.555405)"
       x1="11.967844"
       y1="119.11808"
       x2="51.413385"
       y2="80.482086" />
    <linearGradient
       inkscape:collect="always"
       xlink:href="#linearGradient1273"
       id="linearGradient1435"
       gradientUnits="userSpaceOnUse"
       gradientTransform="matrix(0.546099,0.000000,0.000000,0.436856,-6.830121,1.042456)"
       x1="118.66497"
       y1="45.700580"
       x2="90.285630"
       y2="62.493129" />
    <linearGradient
       inkscape:collect="always"
       xlink:href="#linearGradient1323"
       id="linearGradient1438"
       gradientUnits="userSpaceOnUse"
       gradientTransform="matrix(0.681029,0.000000,0.000000,0.350303,-6.830121,1.042456)"
       x1="17.696665"
       y1="120.74315"
       x2="94.698939"
       y2="120.74315" />
    <linearGradient
       inkscape:collect="always"
       xlink:href="#linearGradient1218"
       id="linearGradient1441"
       gradientUnits="userSpaceOnUse"
       gradientTransform="matrix(0.496350,0.000000,0.000000,0.480642,-6.830121,1.042456)"
       x1="77.599106"
       y1="20.687101"
       x2="53.030737"
       y2="114.57422" />
    <radialGradient
       inkscape:collect="always"
       xlink:href="#linearGradient826"
       id="radialGradient1453"
       gradientUnits="userSpaceOnUse"
       cx="296.29630"
       cy="281.25000"
       fx="303.70370"
       fy="93.750000"
       r="248.40302" />
    <radialGradient
       inkscape:collect="always"
       xlink:href="#linearGradient826"
       id="radialGradient1455"
       gradientUnits="userSpaceOnUse"
       cx="296.29630"
       cy="281.25000"
       fx="303.70370"
       fy="93.750000"
       r="248.40302" />
  </defs>
  <sodipodi:namedview
     id="base"
     pagecolor="#ffffff"
     bordercolor="#666666"
     borderopacity="1.0"
     inkscape:pageopacity="0.0"
     inkscape:pageshadow="2"
     inkscape:zoom="2.8000000"
     inkscape:cx="96.387359"
     inkscape:cy="22.514687"
     inkscape:document-units="px"
     inkscape:current-layer="layer1"
     inkscape:window-width="1280"
     inkscape:window-height="926"
     inkscape:window-x="0"
     inkscape:window-y="25" />
  <metadata
     id="metadata7">
    <rdf:RDF>
      <cc:Work
         rdf:about="">
        <dc:format>image/svg+xml</dc:format>
        <dc:type
           rdf:resource="http://purl.org/dc/dcmitype/StillImage" />
      </cc:Work>
    </rdf:RDF>
  </metadata>
  <g
     inkscape:label="Layer 1"
     inkscape:groupmode="layer"
     id="layer1">
    <g
       id="g1457">
      <g
         transform="matrix(0.268952,0.000000,0.000000,0.351911,8.729281,0.633089)"
         id="g1394">
        <path
           transform="matrix(0.394071,0.000000,0.000000,8.155385e-2,-31.69751,94.58860)"
           style="opacity:0.69398910;fill:url(#radialGradient1453);stroke-width:4.4309568;stroke-dasharray:17.723827 17.723827 ;stroke-dashoffset:0.0000000"
           d="M 600.00000 300.00000 A 300.00000 300.00000 0 1 1  0.0000000,300.00000 A 300.00000 300.00000 0 1 1  600.00000 300.00000 z"
           sodipodi:ry="300.00000"
           sodipodi:rx="300.00000"
           sodipodi:cy="300.00000"
           sodipodi:cx="300.00000"
           id="path898"
           sodipodi:type="arc" />
        <path
           transform="matrix(0.280658,0.000000,0.000000,0.148676,4.082687,91.98483)"
           style="fill:url(#radialGradient1455);stroke-width:4.4309568;stroke-dasharray:17.723827 17.723827 ;stroke-dashoffset:0.0000000"
           d="M 600.00000 300.00000 A 300.00000 300.00000 0 1 1  0.0000000,300.00000 A 300.00000 300.00000 0 1 1  600.00000 300.00000 z"
           sodipodi:ry="300.00000"
           sodipodi:rx="300.00000"
           sodipodi:cy="300.00000"
           sodipodi:cx="300.00000"
           id="ball1"
           sodipodi:type="arc" />
      </g>
      <g
         style="fill:url(#linearGradient1221)"
         transform="matrix(0.729289,0.000000,0.000000,0.665474,-70.79158,3.027371)"
         id="g1310">
        <path
           id="path1278"
           d="M 139.27138,11.077118 C 137.22042,11.077119 135.15548,11.849270 133.58388,13.420868 L 105.67763,41.358368 C 104.13725,42.898711 103.33325,44.910828 103.30263,46.920868 C 103.30220,46.954601 103.30263,47.012134 103.30263,47.045868 L 103.36513,47.045868 C 103.89976,49.079999 117.69889,51.660911 119.24013,53.202118 C 121.56768,55.529685 110.31886,57.249538 112.64638,59.577118 C 114.97392,61.904658 126.72486,64.062038 129.05263,66.389620 C 131.38019,68.717170 124.28755,71.187070 126.61513,73.514620 C 128.94268,75.842201 136.74995,72.943440 135.33388,79.014621 C 138.47707,82.157811 145.03666,80.657811 149.42763,77.514621 C 151.75518,75.187070 144.97506,75.404670 147.30263,73.077120 C 149.63018,70.749540 155.50836,70.738600 160.45888,65.170868 C 158.46624,62.071818 151.94381,60.748438 154.27138,58.420868 C 156.59893,56.093323 161.10115,57.261288 170.86513,52.827118 C 175.63150,50.662408 175.25838,49.039285 175.24013,47.045868 C 175.23975,47.003922 175.24013,46.963136 175.24013,46.920868 L 175.20888,46.920868 C 175.17827,44.910830 174.40547,42.898714 172.86513,41.358368 L 144.92763,13.420868 C 143.35604,11.849272 141.32234,11.077118 139.27138,11.077118 z M 139.02138,14.702118 C 139.93315,14.725869 140.67125,15.422422 142.11513,16.358368 L 155.30263,26.139618 C 155.44708,26.233292 155.58252,26.320552 155.70888,26.420868 C 155.83525,26.521171 155.97562,26.627132 156.08388,26.733368 C 156.19214,26.839410 156.27479,26.966073 156.36513,27.077118 C 156.45527,27.188145 156.54310,27.305955 156.61513,27.420868 C 156.68737,27.535969 156.74853,27.646585 156.80263,27.764618 C 156.85677,27.882866 156.89163,27.987920 156.92763,28.108368 C 156.96385,28.228632 157.00329,28.361823 157.02138,28.483368 C 157.03948,28.605130 157.05263,28.736271 157.05263,28.858368 L 149.24013,25.077118 L 148.45888,30.983368 L 144.14638,28.952118 L 137.52138,33.389618 L 134.95888,24.639618 L 131.70888,32.295868 L 122.55263,33.202118 L 122.64638,29.139618 C 122.64638,28.162533 127.93872,21.330614 131.14638,19.702118 L 137.02138,15.483368 C 137.88771,14.921800 138.47431,14.687867 139.02138,14.702118 z M 126.89638,54.639618 C 131.05584,55.718333 135.68346,57.114312 139.39638,57.139618 L 139.55263,58.827118 C 136.37321,58.499388 129.63884,56.949888 128.05263,56.139618 L 126.89638,54.639618 z M 170.24013,62.045868 C 169.60518,62.025518 169.00430,62.089178 168.55263,62.202118 C 167.70107,62.414898 163.56419,62.512928 163.89638,65.170868 C 167.55118,66.499190 173.20097,67.516500 173.86513,64.858368 C 174.36366,62.865308 172.14497,62.106908 170.24013,62.045868 z M 122.45888,67.452120 C 121.88389,67.385110 121.32136,67.455980 120.77138,67.733370 C 118.57203,68.842760 117.09168,71.307720 119.14638,72.327120 C 121.20129,73.346520 122.65747,72.185800 124.45888,70.920870 C 126.26050,69.656140 126.21414,69.408800 126.08388,68.920870 C 125.83449,68.987380 124.18386,67.653150 122.45888,67.452120 z M 162.64638,67.889620 C 160.98514,68.553960 161.00465,70.861860 162.33388,71.858370 C 163.66277,72.855080 165.32597,72.210400 165.99013,71.545870 C 166.65484,70.881530 165.96848,68.553970 162.64638,67.889620 z "
           style="fill:url(#linearGradient1416);fill-opacity:0.074380167;fill-rule:evenodd;stroke-width:1.0000000pt" />
        <path
           id="path1283"
           d="M 137.96875,10.718750 C 134.70402,11.060845 132.45341,13.855395 130.15790,15.940974 C 121.77155,24.503910 113.19525,32.911552 104.88478,41.529122 C 103.53165,43.257666 102.98133,45.293623 102.71875,47.437500 C 107.43946,50.886242 113.69835,50.905815 118.71875,53.781250 C 117.30484,56.014138 113.86394,55.927723 112.30534,58.153586 C 110.95047,59.066432 112.87438,60.562599 113.88390,60.907202 C 118.07998,63.025863 122.80956,63.838835 126.97834,66.068813 C 129.14039,66.223477 128.99465,68.397410 127.55968,69.465540 C 126.42313,70.610466 124.66557,72.512182 126.40386,73.938766 C 128.52893,75.415674 131.34635,75.011355 133.71875,75.875000 C 135.38587,76.789177 134.20286,78.442002 135.34375,79.593750 C 138.20878,81.840481 142.17613,81.444087 145.36980,80.162063 C 147.01184,79.679133 148.50293,78.612108 149.93750,77.781250 C 151.32137,76.168445 149.16317,75.014407 147.93750,74.343750 C 147.13207,73.007556 149.81258,72.471472 150.72621,71.835396 C 154.22932,70.415525 157.63139,68.772275 160.32323,66.076023 C 162.00146,65.040055 159.53684,63.566475 158.75000,62.750000 C 157.29555,61.671425 155.38495,61.005736 154.46875,59.343750 C 156.83166,56.736844 160.77991,57.222943 163.82692,55.886662 C 167.48614,54.956060 170.96688,53.327613 174.19128,51.441061 C 176.31894,49.855420 175.75931,47.094289 175.34438,44.858149 C 173.82714,40.146659 169.32671,37.346121 166.14614,33.782162 C 159.00255,26.737555 151.96598,19.558149 144.75603,12.597114 C 142.83187,11.117125 140.40461,10.324926 137.96875,10.718750 z M 140.15625,15.718750 C 145.33185,19.512142 150.51925,23.291773 155.68750,27.093750 C 155.79568,28.128330 152.96647,25.994412 151.88519,25.704486 C 150.56126,25.310550 148.23232,22.990502 148.60160,25.735802 C 148.03383,26.854222 148.89364,30.614243 147.25375,29.748789 C 145.77079,28.952048 143.79956,27.767016 142.39696,29.393778 C 140.87922,30.408352 139.36149,31.422926 137.84375,32.437500 C 136.92659,29.270978 136.01364,26.103230 135.09375,22.937500 C 133.83186,25.869891 132.59553,28.813265 131.34375,31.750000 C 128.60417,32.020833 125.86458,32.291667 123.12500,32.562500 C 122.93577,30.531586 123.37937,28.492090 124.78964,27.051727 C 127.83705,22.165897 132.91432,19.181067 137.48762,15.928279 C 138.38080,15.399443 139.18306,15.465846 140.15625,15.718750 z M 132.06250,56.562500 C 134.25968,57.131800 136.54653,57.244809 138.78125,57.625000 C 137.93164,58.641801 135.83490,57.320885 134.50134,57.277133 C 132.75919,56.896272 131.01731,56.527068 129.37500,55.812500 C 130.27083,56.062500 131.16667,56.312500 132.06250,56.562500 z M 168.50000,61.625000 C 166.47980,62.095190 163.59992,62.369201 163.34375,64.968750 C 164.00781,65.934196 166.11962,66.292948 167.47626,66.551501 C 169.60910,66.891924 172.52463,67.659468 174.01886,65.672524 C 175.29513,63.892929 173.38643,61.628153 171.40540,61.754929 C 170.44376,61.426788 169.48969,61.503021 168.50000,61.625000 z M 120.65625,67.156250 C 119.17864,68.173454 117.17273,69.706513 117.81250,71.750000 C 119.32360,73.943032 122.44871,73.328157 124.17581,71.744685 C 125.31806,71.095411 127.22708,69.849349 126.34375,68.406250 C 124.53029,67.617814 122.70705,66.421404 120.65625,67.156250 z M 162.25000,67.468750 C 160.98536,68.304844 160.47655,70.055902 161.35305,71.321264 C 162.02451,73.004295 164.27223,73.179865 165.64672,72.263080 C 167.48408,71.700360 166.67812,69.347513 165.33731,68.658474 C 164.66189,67.815250 163.12029,67.406310 162.25000,67.468750 z "
           style="fill:url(#linearGradient1418);fill-opacity:0.074380167;fill-rule:evenodd;stroke-width:1.0000000pt" />
        <path
           id="path1286"
           d="M 137.09375,12.062500 C 133.45264,13.658306 130.89510,17.054651 128.02763,19.760075 C 120.64992,27.277135 113.11748,34.668181 105.81675,42.244521 C 104.77302,43.583830 104.19848,45.113312 103.93750,46.781250 C 108.02500,49.661848 113.35464,49.814484 117.77247,52.034312 C 119.23732,52.180074 120.83004,53.663696 119.47530,54.914506 C 117.72685,56.714093 114.64707,56.868986 113.18750,58.937500 C 116.98689,61.678185 121.72461,62.314645 125.91888,64.199775 C 127.35246,65.248996 129.93899,65.341959 130.00000,67.531250 C 129.61283,69.469175 127.68115,70.594821 126.84375,72.343750 C 128.66657,74.916318 132.41661,73.526770 134.81763,75.194505 C 136.12150,75.998634 135.76289,77.719238 136.33739,78.786112 C 139.34189,80.984126 143.56705,80.023489 146.59979,78.262860 C 147.57821,77.931235 150.25551,76.737683 148.25234,75.866570 C 146.79311,75.539319 145.57083,73.791727 146.98575,72.676315 C 150.59379,69.928273 155.52636,69.300230 158.75379,65.912819 C 160.44061,64.636839 157.51978,63.512312 156.64603,62.784855 C 155.31686,61.805358 153.02074,60.864770 153.31250,58.906250 C 155.52467,55.836091 159.76350,56.249927 162.98171,54.909139 C 166.64088,54.011598 170.17880,52.442724 173.39619,50.585767 C 175.44759,48.766928 174.40312,45.854433 173.70402,43.674602 C 170.01715,38.505895 164.93468,34.528530 160.60640,29.906454 C 155.05848,24.484276 149.68028,18.831089 144.02714,13.552135 C 142.01313,12.267231 139.68457,11.155741 137.26959,12.030263 L 137.09375,12.062500 z M 139.25000,14.156250 C 144.36849,16.573687 148.44456,20.615673 153.06166,23.857057 C 154.79682,25.417824 157.75256,26.462276 157.65625,29.218750 C 155.98301,29.620934 154.51821,27.909197 152.92283,27.467153 C 151.47889,26.979622 149.05912,24.688826 149.46490,27.619328 C 148.95092,28.676042 149.67609,32.096323 148.30430,31.528870 C 146.86362,30.916675 145.25114,29.742049 143.73062,29.880583 C 141.56112,31.359522 139.38321,32.826259 137.21875,34.312500 C 136.40063,31.654144 135.63994,28.977747 134.84375,26.312500 C 133.78712,28.431959 132.98467,30.961875 131.78125,32.843750 C 128.52084,33.166779 125.26035,33.488957 122.00000,33.812500 C 122.02692,31.439278 121.58820,28.751334 123.45144,26.900643 C 126.38650,21.928911 131.54097,18.937382 135.96875,15.531250 C 137.05500,15.131227 138.17386,14.356070 139.25000,14.156250 z M 126.34375,53.906250 C 130.81931,55.099287 135.33348,56.080112 139.93750,56.625000 C 140.81508,58.380031 139.61654,59.889689 137.75155,59.030564 C 134.35469,58.342143 130.95451,57.411091 127.62500,56.500000 C 127.37596,56.018046 124.72663,53.333015 126.34375,53.906250 z M 168.68750,62.750000 C 167.26725,63.145732 165.19352,63.022642 164.68750,64.750000 C 167.41558,65.272026 170.36127,66.626958 173.03125,65.187500 C 173.94813,63.333514 171.22391,62.807999 169.92452,62.707344 C 169.51218,62.721563 169.09984,62.735781 168.68750,62.750000 z M 120.96875,68.250000 C 119.88102,69.094191 117.71809,71.141191 120.00567,71.867660 C 122.11744,72.377527 123.71955,70.573549 125.28125,69.468750 C 124.17010,68.379529 122.48301,67.967608 120.96875,68.250000 z M 162.25000,68.937500 C 161.26655,70.838341 164.03769,72.707639 165.32625,71.028976 C 165.98639,69.968138 163.10932,68.105539 162.25000,68.937500 z "
           style="fill:url(#linearGradient1420);fill-opacity:0.074380167;fill-rule:evenodd;stroke-width:1.0000000pt" />
        <path
           id="path1295"
           d="M 137.50000,12.562500 C 131.56402,15.884438 127.47918,21.513076 122.59316,26.106819 C 117.07494,31.800872 111.33765,37.333066 105.95500,43.127274 C 105.27016,44.232264 103.90274,46.716455 105.88806,47.110513 C 110.48303,49.525949 116.07018,49.897473 120.25000,52.937500 C 121.19557,55.258014 118.31954,56.204644 116.77699,57.135076 C 115.14828,57.646504 113.25757,59.174666 115.98524,59.736007 C 120.51650,62.179113 125.90956,62.812244 130.06250,65.968750 C 131.40440,68.155882 128.87852,70.088345 127.96429,71.816940 C 127.97548,73.606583 130.61198,73.210238 131.85374,73.694589 C 134.00698,73.861384 136.31306,75.067306 136.52629,77.437982 C 137.24770,79.315251 139.82104,79.377347 141.56250,79.375000 C 143.88381,79.081698 145.88731,77.848938 148.00000,76.937500 C 147.89289,75.484280 145.47385,75.343455 145.78125,73.562500 C 147.65028,70.568783 151.46696,69.934698 154.32757,68.211442 C 155.95166,67.507534 157.40819,66.436524 158.50000,65.031250 C 156.69534,62.893495 153.11684,62.207207 152.76893,59.025530 C 153.13476,57.911585 154.90043,56.856141 156.14992,56.314935 C 161.47352,54.305871 167.29666,53.530281 172.18291,50.436255 C 174.75469,49.397100 173.90347,46.181096 173.15013,44.168122 C 170.99740,41.143850 168.08639,38.542958 165.64236,35.681332 C 163.12371,33.093790 160.49665,30.610931 157.93750,28.062500 C 158.99092,29.594714 157.00835,30.333418 155.86310,29.376751 C 153.95887,28.546062 152.06033,27.726589 150.12500,26.968750 C 150.04976,28.633800 149.69671,30.253091 149.34375,31.875000 C 146.94959,32.517021 144.62510,29.359512 142.44997,31.405021 C 140.65579,32.399012 139.25573,34.074138 137.34005,34.698602 C 135.96867,34.449689 136.15225,31.657450 135.44638,30.368996 C 135.03220,27.477998 134.31032,28.114323 133.43720,30.484434 C 132.63691,31.983328 132.29360,34.079093 130.12469,33.576560 C 127.22896,33.863646 124.33317,34.149933 121.43750,34.437500 C 121.45635,31.458390 121.16984,28.094375 123.52595,25.839572 C 126.82257,21.188668 131.69023,18.019711 136.23357,14.793262 C 137.75437,14.087412 139.64327,13.037594 141.05071,14.536711 C 144.77608,17.093755 148.56965,19.491887 152.06250,22.343750 C 149.06655,19.513772 146.25485,16.420638 143.14594,13.751994 C 141.38445,12.871744 139.52020,11.789900 137.50000,12.562500 z M 126.40625,53.343750 C 131.09445,54.266714 135.77718,55.221773 140.46875,56.125000 C 140.66311,57.490600 140.90400,59.768414 138.90019,59.717011 C 134.99279,58.970773 131.04202,57.882901 127.18750,56.875000 C 126.61048,55.955764 124.83534,54.556620 125.40625,53.625000 C 125.73497,53.577157 126.08499,53.292470 126.40625,53.343750 z M 166.53125,63.812500 C 164.90117,64.830649 168.72302,64.879550 169.60036,65.161786 C 170.82454,65.513571 173.80209,64.644903 171.50000,63.593750 C 169.78209,63.217030 168.21140,63.255613 166.53125,63.812500 z M 120.81250,69.187500 C 118.77488,70.497531 120.63987,72.049766 122.29985,70.780747 C 124.22011,70.547064 124.25797,68.584075 122.13849,68.857155 C 121.62590,68.786616 121.20364,68.805690 120.81250,69.187500 z M 162.78125,70.250000 C 165.04372,72.410337 164.50416,68.582957 162.78125,69.787913 C 162.78125,69.883882 162.78125,70.191942 162.78125,70.250000 z "
           style="fill:url(#linearGradient1422);fill-opacity:0.074380167;fill-rule:evenodd;stroke-width:1.0000000pt" />
        <path
           id="path1300"
           d="M 137.25000,10.312500 C 134.57328,10.811904 132.67255,13.050780 130.64866,14.715585 C 121.77957,23.451854 113.11785,32.437236 104.37500,41.281250 C 103.17019,43.288146 102.47259,45.456013 102.06250,47.750000 C 105.83476,49.628698 109.64657,51.368815 113.75481,52.377095 C 114.74672,53.000901 118.15181,53.211596 117.03125,54.625000 C 114.87625,55.770623 112.18432,56.545814 111.25000,59.062500 C 113.07397,62.261249 117.13309,62.448994 120.14188,63.972108 C 122.66750,64.970987 125.19313,65.969869 127.71875,66.968750 C 127.79709,69.608591 127.12737,68.724937 125.79671,67.542170 C 123.76150,66.508388 120.74167,65.559916 119.14266,67.799744 C 117.68910,68.685330 116.55779,70.940149 117.66673,72.361712 C 119.74129,74.610002 123.29896,73.558599 125.22361,71.631365 C 125.39044,71.451948 124.94524,74.329263 126.55554,74.625682 C 128.75187,75.888131 131.56113,75.535204 133.75000,76.781250 C 134.17453,78.637203 134.92263,80.738750 137.10053,81.029661 C 140.53970,82.420114 144.41944,81.397273 147.50485,79.584682 C 148.81540,78.872018 151.32795,78.343669 150.75195,76.374975 C 150.70713,75.080531 147.53803,74.300613 149.31250,73.093750 C 153.55943,71.203594 157.91230,69.209830 161.18750,65.843750 C 161.99115,63.731003 159.07145,62.849633 157.93750,61.562500 C 156.57653,60.417748 154.30116,59.195844 157.17010,58.407983 C 162.44672,56.428116 168.30037,55.651561 173.14000,52.536010 C 175.69933,51.724285 176.75286,48.825627 176.01594,46.382200 C 175.99204,43.921497 174.36450,41.884430 172.99509,39.973772 C 168.23708,34.553265 162.73310,29.839073 157.72691,24.648245 C 153.37676,20.454464 149.19589,15.998891 144.74248,11.964991 C 142.49218,10.519398 139.90204,10.047325 137.25000,10.312500 z M 140.40625,16.625000 C 144.38180,19.415210 148.26381,22.371245 152.21875,25.218750 C 151.00059,24.471219 149.71107,24.008458 148.28125,23.906250 C 148.08169,25.616789 147.84012,27.322499 147.62500,29.031250 C 145.77312,28.480352 143.67622,27.363820 142.02088,28.944411 C 140.79579,29.321785 138.71876,32.029330 138.02739,30.946881 C 137.09069,27.714729 136.15797,24.481420 135.21875,21.250000 C 133.79126,24.568262 132.38708,27.896549 130.96875,31.218750 C 128.56250,31.458333 126.15625,31.697917 123.75000,31.937500 C 123.73611,28.504117 126.40867,25.941624 128.50533,23.538181 C 131.60340,20.877921 134.84009,18.280137 138.37100,16.266120 C 139.05687,15.927768 139.72649,16.501380 140.40625,16.625000 z M 165.12500,61.937500 C 163.94994,62.683294 162.04675,64.163789 163.31250,65.625000 C 165.77599,67.237331 168.84980,67.346191 171.68759,67.438839 C 173.79767,67.380039 175.87709,64.882603 174.44068,62.966319 C 173.10190,60.663393 170.05340,61.177216 167.81605,61.201002 C 166.91904,61.446503 166.02202,61.692001 165.12500,61.937500 z M 162.03125,67.031250 C 160.83535,68.000188 160.29043,69.695123 160.76346,71.258236 C 161.16730,73.039050 163.22496,73.494707 164.78719,72.992478 C 167.13879,73.181332 168.09248,69.825149 166.13394,68.653373 C 164.96960,67.668728 163.65541,66.689296 162.03125,67.031250 z "
           style="fill:url(#linearGradient1424);fill-opacity:0.074380167;fill-rule:evenodd;stroke-width:1.0000000pt" />
        <path
           id="path1304"
           d="M 136.87500,9.5625000 C 131.65304,11.769127 128.14544,16.384624 124.15881,20.216605 C 117.35142,27.117414 110.49657,33.984328 103.71875,40.906250 C 102.85273,43.332808 101.99819,45.763562 101.12500,48.187500 C 105.93068,50.283305 110.76347,52.276496 115.75000,53.906250 C 115.44333,55.363555 112.99770,55.191635 112.24058,56.587946 C 110.89606,57.445273 110.01695,59.785906 111.89556,60.567820 C 114.86490,63.357428 118.93991,64.363020 122.62500,65.875000 C 119.72774,65.033632 117.80750,68.090788 116.68750,70.250000 C 116.01105,72.950420 119.11437,74.651083 121.43923,74.259441 C 122.88425,74.778519 124.87048,71.894366 125.06555,74.129447 C 127.21708,76.574392 131.35224,75.998123 133.59751,78.288768 C 134.32398,80.302303 135.99246,81.986172 138.23383,82.006618 C 140.25772,82.589257 142.23898,82.314480 144.19142,81.614260 C 146.47188,81.098710 148.64271,79.959926 150.63761,78.824244 C 152.14711,77.754911 151.81527,75.346631 150.43750,74.312500 C 150.23406,72.704926 152.73875,72.682794 153.75639,71.819616 C 156.49819,70.564020 158.90600,68.804050 161.21875,66.906250 C 160.19643,68.376408 159.81043,70.315970 160.38112,71.987759 C 161.34634,74.267655 164.22210,73.656108 166.15625,73.531250 C 168.08949,72.610730 168.83732,69.631414 166.87500,68.343750 C 164.02568,66.581529 166.47357,67.403459 168.27836,67.911665 C 170.51415,68.044548 173.31226,68.747610 174.83495,66.581402 C 176.52328,64.952843 175.46252,62.386049 173.84375,61.125000 C 171.82924,60.052772 169.41179,60.364713 167.22781,60.468857 C 165.26732,60.816302 163.77932,61.981088 162.56250,63.500000 C 161.07416,64.693238 164.27576,66.891706 162.51264,66.451187 C 161.23611,66.670932 162.80138,64.122782 161.27178,63.293106 C 160.27477,61.829766 158.59216,60.917429 157.34375,59.656250 C 163.37320,56.739900 170.41697,55.950383 175.81250,51.750000 C 177.79054,49.403625 176.89111,46.297658 176.31250,43.625000 C 172.71709,37.077334 166.72680,32.381991 161.58112,27.092054 C 156.10204,21.754721 150.65568,16.371055 145.15625,11.062500 C 142.76062,10.099303 140.31053,9.4347862 137.70606,9.5684113 C 137.43820,9.5943662 137.13013,9.4705862 136.87500,9.5625000 z M 144.00000,20.125000 C 145.41913,21.217458 146.85549,22.290152 148.28125,23.375000 C 146.97140,24.376925 147.43473,26.306660 146.96875,27.718750 C 145.01335,27.188020 142.88412,27.117042 141.28969,28.567875 C 140.30436,29.400862 138.46017,30.323076 138.31032,28.383898 C 137.43025,25.351664 136.59470,22.304201 135.68750,19.281250 C 137.21838,18.817776 138.78213,16.344334 140.28250,17.745803 C 141.52167,18.538869 142.76083,19.331934 144.00000,20.125000 z M 130.53125,30.406250 C 128.68750,30.593750 126.84375,30.781250 125.00000,30.968750 C 125.70615,27.451641 128.61722,24.990200 131.09307,22.632488 C 132.44877,21.648343 133.72082,20.531920 135.12500,19.625000 C 133.59375,23.218750 132.06250,26.812500 130.53125,30.406250 z "
           style="fill:url(#linearGradient1426);fill-opacity:0.074380167;fill-rule:evenodd;stroke-width:1.0000000pt" />
      </g>
      <path
         sodipodi:nodetypes="cccccccccccccccccccccccccccccccccccccccccc"
         id="path1217"
         d="M 31.496504,6.0326885 C 30.000762,6.0326895 28.494824,6.5958108 27.348673,7.7419598 L 6.9969522,28.116471 C 5.8735700,29.239826 5.2872218,30.707241 5.2648907,32.173141 C 5.2645771,32.197742 5.2648907,32.239700 5.2648907,32.264302 L 5.3104712,32.264302 C 5.7003712,33.747771 15.763925,35.630002 16.887934,36.753988 C 18.585391,38.451456 10.381750,39.705726 12.079185,41.403204 C 13.776634,43.100655 22.346465,44.674006 24.044083,46.371486 C 25.741546,48.068947 20.568962,49.870215 22.266440,51.567670 C 23.963897,53.265151 29.657653,51.151115 28.624929,55.578760 C 30.917223,57.871054 35.701060,56.777121 38.903347,54.484826 C 40.600803,52.787370 35.656136,52.946062 37.353606,51.248606 C 39.051064,49.551132 43.337956,49.543151 46.948316,45.482665 C 45.495101,43.222563 40.738369,42.257434 42.435840,40.559965 C 44.133296,38.862511 47.416713,39.714296 54.537475,36.480504 C 58.013536,34.901805 57.741420,33.718079 57.728115,32.264302 C 57.727837,32.233711 57.728115,32.203967 57.728115,32.173141 L 57.705325,32.173141 C 57.682999,30.707242 57.119406,29.239828 55.996054,28.116471 L 35.621545,7.7419598 C 34.475402,6.5958122 32.992247,6.0326885 31.496504,6.0326885 z M 22.471553,37.802340 C 25.505001,38.589035 28.879874,39.607107 31.587666,39.625563 L 31.701617,40.856238 C 29.382901,40.617228 24.471599,39.487195 23.314793,38.896274 L 22.471553,37.802340 z M 54.081670,43.203636 C 53.618606,43.188798 53.180394,43.235223 52.850994,43.317588 C 52.229962,43.472768 49.212979,43.544260 49.455242,45.482665 C 52.120650,46.451399 56.240978,47.193309 56.725343,45.254763 C 57.088913,43.801245 55.470846,43.248152 54.081670,43.203636 z M 19.235333,47.146356 C 18.815999,47.097488 18.405752,47.149174 18.004658,47.351469 C 16.400696,48.160538 15.321093,49.958205 16.819564,50.701639 C 18.318186,51.445078 19.380163,50.598580 20.693911,49.676078 C 22.007813,48.753726 21.974003,48.573342 21.879006,48.217499 C 21.697128,48.266006 20.493342,47.292969 19.235333,47.146356 z M 48.543631,47.465420 C 47.332107,47.949916 47.346340,49.633042 48.315728,50.359785 C 49.284872,51.086676 50.497827,50.616520 50.982191,50.131882 C 51.466956,49.647387 50.966405,47.949926 48.543631,47.465420 z "
         style="fill:url(#linearGradient1441);fill-rule:evenodd;stroke-width:1.0000000pt" />
      <path
         sodipodi:nodetypes="ccccccccccccccccccccccccccccccccccccccccccccccccccccccccccc"
         id="path1269"
         d="M 5.7461471,29.852091 C 5.4144879,30.585238 5.2339353,31.368473 5.2219706,32.153910 C 5.2216580,32.178508 5.2219706,32.220472 5.2219706,32.245071 L 5.2675512,32.245071 C 5.6406451,33.664595 14.677676,35.439196 16.457580,36.575224 C 17.242449,36.108355 17.757969,35.619382 17.232449,35.093856 C 16.108439,33.969868 6.0448864,32.087639 5.6549860,30.604170 L 5.6094054,30.604170 C 5.6094054,30.579564 5.6090928,30.537608 5.6094054,30.513010 C 5.6128464,30.287156 5.7160284,30.076749 5.7461471,29.852091 z M 57.662396,32.814828 C 57.264221,33.445225 56.499013,34.085979 54.881987,34.820372 C 47.761229,38.054160 44.477812,37.202380 42.780356,38.899829 C 42.266119,39.414066 42.449594,39.853856 42.848727,40.290036 C 44.645701,39.019425 47.880866,39.464780 54.494552,36.461273 C 57.498132,35.097152 57.670724,34.018184 57.662396,32.814828 z M 22.816068,36.142209 L 23.659308,37.236138 C 24.816113,37.827060 29.727415,38.957100 32.046132,39.196103 L 31.932180,37.965428 C 29.224388,37.946969 25.849516,36.928907 22.816068,36.142209 z M 12.765554,39.925392 C 12.006530,40.384800 11.519776,40.867465 12.036265,41.383970 C 13.733715,43.081421 22.303545,44.654771 24.001162,46.352252 C 24.075815,46.426899 24.065868,46.505117 24.115114,46.580155 C 24.642359,45.952665 24.998895,45.321649 24.388597,44.711352 C 22.752770,43.075657 14.865747,41.552674 12.765554,39.925392 z M 50.369511,43.959272 C 49.786502,44.262115 49.315536,44.689020 49.412319,45.463426 C 52.077722,46.432160 56.198050,47.174070 56.682414,45.235528 C 56.776677,44.858687 56.724869,44.540962 56.591253,44.278336 C 55.439777,45.207756 52.591187,44.688825 50.369511,43.959272 z M 46.176108,44.779722 C 42.836379,47.750245 39.224744,48.061836 37.698121,49.588472 C 37.084036,50.202554 37.430497,50.537936 37.926024,50.841937 C 39.873921,49.537143 43.625540,49.152204 46.905397,45.463426 C 46.737288,45.201982 46.417521,45.009652 46.176108,44.779722 z M 48.067697,47.788040 C 47.366693,48.469301 47.456115,49.728281 48.272809,50.340551 C 49.241948,51.067437 50.454903,50.597281 50.939268,50.112648 C 51.188378,49.863675 51.155360,49.305621 50.756945,48.745232 C 50.165922,49.049584 49.389040,49.246271 48.660244,48.699651 C 48.352268,48.468764 48.174180,48.142882 48.067697,47.788040 z M 21.197958,47.879201 C 21.116712,47.938365 21.133219,47.949399 21.038426,48.015943 C 19.724677,48.938441 18.662701,49.784949 17.164078,49.041505 C 16.850725,48.886042 16.723771,48.655150 16.617111,48.426168 C 15.950756,49.247898 15.787788,50.191803 16.776643,50.682405 C 18.275267,51.425839 19.337243,50.579341 20.650991,49.656843 C 21.964894,48.734486 21.931083,48.554103 21.836086,48.198265 C 21.773682,48.214906 21.461875,48.028427 21.197958,47.879201 z M 22.497004,49.679633 C 21.969760,50.307117 21.613217,50.938134 22.223520,51.548431 C 23.920978,53.245911 29.614733,51.131876 28.582009,55.559521 C 30.874303,57.851815 35.658142,56.757881 38.860428,54.465587 C 39.485735,53.840276 39.123067,53.496453 38.609732,53.189331 C 35.436062,55.195697 31.121321,56.070514 28.969443,53.918620 C 30.002168,49.490981 24.308411,51.605021 22.610955,49.907535 C 22.536302,49.832884 22.546250,49.754666 22.497004,49.679633 z "
         style="fill:url(#linearGradient1438);fill-rule:evenodd;stroke-width:1.0000000pt" />
      <path
         sodipodi:nodetypes="cccccc"
         id="path1271"
         d="M 41.615631,15.889958 L 53.951483,29.144443 C 53.951483,29.144443 57.625998,33.081419 54.738886,34.656209 C 51.851768,36.230999 43.059192,38.593186 43.059192,38.593186 L 27.078127,15.580467 L 41.615631,15.889958 z "
         style="fill:url(#linearGradient1435);fill-opacity:1.0000000;fill-rule:evenodd;stroke-width:1.0000000pt" />
      <path
         sodipodi:nodetypes="cccccc"
         id="path1276"
         d="M 22.618202,13.879130 L 11.069751,27.133603 C 11.069751,27.133603 6.6078502,31.070576 9.4949630,32.645364 C 12.382076,34.220153 31.410773,40.650541 44.796475,38.288358 L 29.442287,15.322687 L 22.618202,13.879130 z "
         style="fill:url(#linearGradient1432);fill-opacity:1.0000000;fill-rule:evenodd;stroke-width:1.0000000pt" />
      <path
         sodipodi:nodetypes="ccccccccccczz"
         id="path1317"
         d="M 32.035442,8.2946765 C 33.725572,8.3071672 40.823894,15.211554 42.855521,16.635919 C 44.887153,18.060284 44.410687,18.994477 44.410687,19.083521 L 38.713121,16.325897 L 38.143364,20.633260 L 34.998305,19.151892 L 30.166763,22.388112 L 28.297960,16.006833 L 25.927770,21.590452 L 19.250217,22.251370 L 19.318588,19.288634 L 29.182322,9.5771989 C 29.897959,8.8726124 30.376302,8.2821858 32.035442,8.2946765 z "
         style="fill:url(#linearGradient1429);fill-rule:evenodd;stroke-width:1.0000000pt" />
    </g>
  </g>
</svg>
