/* XPM */
static char * xmms_applet_xpm[] = {
"22 22 165 2",
"  	c None",
". 	c #C1BF94",
"+ 	c #FFFDD4",
"@ 	c #FDFFFE",
"# 	c #DCE0C4",
"$ 	c #C8CAAE",
"% 	c #C3C4AB",
"& 	c #BCB3B5",
"* 	c #BEB6B8",
"= 	c #BDB9AE",
"- 	c #C5C6AC",
"; 	c #CBCCB1",
"> 	c #C1BFAC",
", 	c #B29AC7",
"' 	c #BB9FD6",
") 	c #BBA6C9",
"! 	c #C3BDB7",
"~ 	c #CACBB0",
"{ 	c #CECFB5",
"] 	c #C3C2B0",
"^ 	c #AD90C6",
"/ 	c #A37BCE",
"( 	c #AE8CD3",
"_ 	c #C1B2C5",
": 	c #C8C8B2",
"< 	c #D1D2B8",
"[ 	c #C9C7B4",
"} 	c #AD8EC7",
"| 	c #8550C0",
"1 	c #8B59C2",
"2 	c #AA8BC9",
"3 	c #C3BABB",
"4 	c #CFCFB7",
"5 	c #D3D5BB",
"6 	c #CBC9B7",
"7 	c #AC8DC8",
"8 	c #7C45BB",
"9 	c #7C44BB",
"0 	c #8C5ABF",
"a 	c #B6A4BE",
"b 	c #D0D0BA",
"c 	c #D2D4BA",
"d 	c #D7D7BE",
"e 	c #CECBBA",
"f 	c #AE90C9",
"g 	c #8F60C1",
"h 	c #A683C7",
"i 	c #8958BE",
"j 	c #A081BA",
"k 	c #CBC5BF",
"l 	c #D8D8C1",
"m 	c #D9DBC2",
"n 	c #D0CFBD",
"o 	c #AF91CA",
"p 	c #986CC5",
"q 	c #D5CCD7",
"r 	c #B399CA",
"s 	c #9C77C1",
"t 	c #B6A0C5",
"u 	c #D3D0C7",
"v 	c #DADBC5",
"w 	c #DCDDC5",
"x 	c #D3D1C0",
"y 	c #AF92CB",
"z 	c #986DC6",
"A 	c #DEDAD5",
"B 	c #D4CECB",
"C 	c #BCA8CB",
"D 	c #A382C4",
"E 	c #B097C6",
"F 	c #D0C7CD",
"G 	c #DFDFC8",
"H 	c #DEDEC7",
"I 	c #D5D2C3",
"J 	c #B092CB",
"K 	c #986EC7",
"L 	c #DFDBD5",
"M 	c #DFDFC9",
"N 	c #DBD8CC",
"O 	c #CFC3CF",
"P 	c #C4B2CF",
"Q 	c #D4CAD1",
"R 	c #E2E2CC",
"S 	c #E0E0CA",
"T 	c #DCDBC7",
"U 	c #D9D8C8",
"V 	c #D7D4C9",
"W 	c #D5D1C8",
"X 	c #D4CFC7",
"Y 	c #CCC4C2",
"Z 	c #AF90CC",
"` 	c #996EC6",
" .	c #E1DDD8",
"..	c #E3E3CE",
"+.	c #E1E1CE",
"@.	c #E1E1CD",
"#.	c #E5E5CF",
"$.	c #E4E4CE",
"%.	c #DBD9CA",
"&.	c #D5CED0",
"*.	c #D2C5DB",
"=.	c #C2ACD9",
"-.	c #B394D3",
";.	c #B294D2",
">.	c #AC8FCA",
",.	c #9A73C6",
"'.	c #986CC6",
").	c #E3DFD9",
"!.	c #E7E8D2",
"~.	c #E5E6D0",
"{.	c #D4CFCD",
"].	c #CAB6DB",
"^.	c #B291D5",
"/.	c #8652C1",
"(.	c #793DB9",
"_.	c #8753C0",
":.	c #976AC9",
"<.	c #9367C4",
"[.	c #A07AC4",
"}.	c #E5E3DB",
"|.	c #EBEAD5",
"1.	c #E8E7D2",
"2.	c #CABDCD",
"3.	c #A079CB",
"4.	c #783CB9",
"5.	c #611CAE",
"6.	c #6D2CB3",
"7.	c #8149BE",
"8.	c #9465C7",
"9.	c #A179CE",
"0.	c #B59ACF",
"a.	c #EBE7DF",
"b.	c #EEEDD9",
"c.	c #ECEBD7",
"d.	c #CFC5CA",
"e.	c #8859B5",
"f.	c #5911A8",
"g.	c #6826B1",
"h.	c #7B41BB",
"i.	c #905EC5",
"j.	c #A47CD0",
"k.	c #B191D3",
"l.	c #CBBCD7",
"m.	c #EEEBDF",
"n.	c #F0F0DC",
"o.	c #ECECDB",
"p.	c #C5B3CE",
"q.	c #8A5EB5",
"r.	c #733DAF",
"s.	c #8753BD",
"t.	c #B196CD",
"u.	c #D2C4DC",
"v.	c #EAE7E0",
"w.	c #F1F1DF",
"x.	c #F3F3E0",
"y.	c #F2F2E3",
"z.	c #E3DDDC",
"A.	c #D0C2D7",
"B.	c #D7C9DE",
"C.	c #DCD1E0",
"D.	c #E2DDE0",
"E.	c #F2F1E6",
"F.	c #F3F3E2",
"G.	c #F6F6E3",
"H.	c #F9F8E6",
". . . . . . . . . . . . . . . . . . . . . . ",
"+ + + + + + + + + + + + + + + + + + + + + + ",
"@ @ @ @ @ @ @ @ @ @ @ @ @ @ @ @ @ @ @ @ @ @ ",
"# # # # # # # # # # # # # # # # # # # # # # ",
"$ $ $ $ $ $ $ $ $ $ % & * = - $ $ $ $ $ $ $ ",
"; ; ; ; ; ; ; ; ; ; > , ' ) ! ~ ; ; ; ; ; ; ",
"{ { { { { { { { { { ] ^ / ( _ : { { { { { { ",
"< < < < < < < < < < [ } | 1 2 3 4 < < < < < ",
"5 5 5 5 5 5 5 5 5 5 6 7 8 9 0 a b c 5 5 5 5 ",
"d d d d d d d d d d e f g h i j k l d d d d ",
"m m m m m m m m m m n o p q r s t u v m m m ",
"w w w w w w w w w w x y z A B C D E F w w w ",
"G G G G G G G H H H I J K L M N O P Q G G G ",
"R R R R S T U V W X Y Z `  .R R ..+.@.R R R ",
"#.#.#.$.%.&.*.=.-.;.>.,.'.).#.#.#.#.#.#.#.#.",
"!.!.!.~.{.].^./.(._.:.<.[.}.!.!.!.!.!.!.!.!.",
"|.|.|.1.2.3.4.5.6.7.8.9.0.a.|.|.|.|.|.|.|.|.",
"b.b.b.c.d.e.f.g.h.i.j.k.l.m.b.b.b.b.b.b.b.b.",
"n.n.n.n.o.p.q.r.s.,.t.u.v.w.n.n.n.n.n.n.n.n.",
"x.x.x.x.x.y.z.A.B.C.D.E.F.x.x.x.x.x.x.x.x.x.",
"G.G.G.G.G.G.G.G.G.G.G.G.G.G.G.G.G.G.G.G.G.G.",
"H.H.H.H.H.H.H.H.H.H.H.H.H.H.H.H.H.H.H.H.H.H."};
