<?xml version="1.0" encoding="UTF-8" standalone="no"?>
<!DOCTYPE svg PUBLIC "-//W3C//DTD SVG 20010904//EN"
"http://www.w3.org/TR/2001/REC-SVG-20010904/DTD/svg10.dtd">
<!-- Created with Inkscape (http://www.inkscape.org/) -->
<svg
   id="svg2115"
   sodipodi:version="0.32"
   inkscape:version="0.39cvs"
   width="128.00000pt"
   height="128.00000pt"
   sodipodi:docname="gnome-mime-application-x-rpm.svg"
   sodipodi:docbase="/home/andy/Desktop/etiquette-icons-0.3/scalable/mimetypes"
   xmlns="http://www.w3.org/2000/svg"
   xmlns:inkscape="http://www.inkscape.org/namespaces/inkscape"
   xmlns:sodipodi="http://sodipodi.sourceforge.net/DTD/sodipodi-0.dtd"
   xmlns:xlink="http://www.w3.org/1999/xlink">
  <defs
     id="defs2117">
    <linearGradient
       id="linearGradient1540">
      <stop
         style="stop-color:#ffffff;stop-opacity:0.0000000;"
         offset="0.0000000"
         id="stop1541" />
      <stop
         style="stop-color:#ffffff;stop-opacity:0.56179774;"
         offset="0.50793612"
         id="stop1543" />
      <stop
         style="stop-color:#ffffff;stop-opacity:0.13725491;"
         offset="0.79061538"
         id="stop1544" />
      <stop
         style="stop-color:#ffffff;stop-opacity:0.0000000;"
         offset="1.0000000"
         id="stop1542" />
    </linearGradient>
    <linearGradient
       id="linearGradient1535">
      <stop
         style="stop-color:#ae1b1b;stop-opacity:0.99215686;"
         offset="0.0000000"
         id="stop1536" />
      <stop
         style="stop-color:#ffffff;stop-opacity:1.0000000;"
         offset="1.0000000"
         id="stop1537" />
    </linearGradient>
    <linearGradient
       id="linearGradient2248">
      <stop
         style="stop-color:#ffffff;stop-opacity:1.0000000;"
         offset="0.0000000"
         id="stop2249" />
      <stop
         style="stop-color:#ffffff;stop-opacity:0.0000000;"
         offset="1.0000000"
         id="stop2251" />
    </linearGradient>
    <linearGradient
       id="linearGradient1806">
      <stop
         style="stop-color:#000000;stop-opacity:0.40784314;"
         offset="0.0000000"
         id="stop1807" />
      <stop
         style="stop-color:#000000;stop-opacity:0.073446326;"
         offset="0.64777780"
         id="stop3276" />
      <stop
         style="stop-color:#000000;stop-opacity:0.0000000;"
         offset="1.0000000"
         id="stop1808" />
    </linearGradient>
    <radialGradient
       xlink:href="#linearGradient1806"
       id="radialGradient1977"
       cx="0.50522649"
       cy="0.54545456"
       r="0.46065515"
       fx="0.51611376"
       fy="0.56148684" />
    <pattern
       width="1012.0000"
       height="1020.0000"
       id="pattern2121">
      <image
         xlink:href="/home/andy/Desktop/package-large.png"
         sodipodi:absref="/home/andy/Desktop/package-large.png"
         width="1012.0000"
         height="1020.0000"
         id="image2122" />
    </pattern>
    <linearGradient
       xlink:href="#linearGradient1806"
       id="linearGradient2246"
       x1="1.9047619"
       y1="0.79545456"
       x2="-1.0952381"
       y2="0.075757578" />
    <linearGradient
       xlink:href="#linearGradient2248"
       id="linearGradient2247"
       x1="-0.63529414"
       y1="-1.2424242"
       x2="0.25882354"
       y2="1.0606060" />
    <pattern
       width="200.00000"
       height="200.00000"
       id="pattern2261">
      <image
         xlink:href="/usr/share/pixmaps/redhat/rpmlogo-200.png"
         sodipodi:absref="/usr/share/pixmaps/redhat/rpmlogo-200.png"
         width="200.00000"
         height="200.00000"
         id="image2262" />
    </pattern>
    <linearGradient
       xlink:href="#linearGradient1540"
       id="linearGradient2730"
       x1="0.46242774"
       y1="0.32575756"
       x2="0.41583115"
       y2="0.32575756" />
    <linearGradient
       xlink:href="#linearGradient2248"
       id="linearGradient2731"
       x1="0.20784314"
       y1="-2.0476191"
       x2="0.54901963"
       y2="0.60714287" />
    <radialGradient
       xlink:href="#linearGradient1540"
       id="radialGradient1539"
       cx="0.50000000"
       cy="0.50000000"
       r="0.50000000"
       fx="0.50000000"
       fy="0.50000000" />
  </defs>
  <sodipodi:namedview
     id="base"
     pagecolor="#ffffff"
     bordercolor="#666666"
     borderopacity="1.0"
     inkscape:pageopacity="0.0"
     inkscape:pageshadow="2"
     inkscape:zoom="1.7535912"
     inkscape:cx="61.782638"
     inkscape:cy="56.077218"
     inkscape:window-width="614"
     inkscape:window-height="526"
     inkscape:window-x="24"
     inkscape:window-y="107" />
  <path
     sodipodi:type="arc"
     style="fill:url(#radialGradient1977);fill-opacity:0.75000000;fill-rule:evenodd;stroke-width:1.0000000pt;"
     id="path1562"
     sodipodi:cx="41.875938"
     sodipodi:cy="37.865574"
     sodipodi:rx="12.562782"
     sodipodi:ry="12.562782"
     d="M 54.438721 37.865574 A 12.562782 12.562782 0 1 0 29.313156,37.865574 A 12.562782 12.562782 0 1 0 54.438721 37.865574 z"
     transform="matrix(6.511515,0.409140,-0.132438,2.149003,-185.6188,33.03709)" />
  <path
     sodipodi:type="arc"
     style="fill:url(#radialGradient1977);fill-opacity:0.75000000;fill-rule:evenodd;stroke-width:1.0000000pt;"
     id="path1976"
     sodipodi:cx="41.875938"
     sodipodi:cy="37.865574"
     sodipodi:rx="12.562782"
     sodipodi:ry="12.562782"
     d="M 54.438721 37.865574 A 12.562782 12.562782 0 1 0 29.313156,37.865574 A 12.562782 12.562782 0 1 0 54.438721 37.865574 z"
     transform="matrix(6.806621,0.479127,-0.138440,2.516605,-196.3282,2.234333)" />
  <path
     style="fill:#af3c3c;fill-rule:evenodd;stroke-width:1.0000000pt;"
     d="M 124.23257,20.600270 L 120.41751,133.34856 L 92.592186,146.09342 L 19.047673,121.52387 L 17.496043,20.738256 L 40.699854,18.479152 L 124.23257,20.600270 z "
     id="path2127"
     sodipodi:nodetypes="ccccccc" />
  <path
     style="fill:url(#linearGradient2246);fill-opacity:0.75000000;fill-rule:evenodd;stroke-width:1.0000000pt;"
     d="M 124.23257,20.600270 L 120.41751,133.34856 L 92.592186,146.09342 L 96.267344,23.671132 L 124.23257,20.600270 z "
     id="path2135"
     sodipodi:nodetypes="ccccc" />
  <path
     style="fill:url(#linearGradient2247);fill-opacity:0.75000000;fill-rule:evenodd;stroke-width:1.0000000pt;"
     d="M 95.215721,23.971335 L 91.609699,144.34338 L 20.103774,120.18842 L 18.059456,21.103462 L 95.215721,23.971335 z "
     id="path2136"
     sodipodi:nodetypes="ccccc" />
  <g
     id="g934">
    <path
       style="fill:#1e1e1e;fill-rule:evenodd;stroke-width:1.0000000pt;"
       d="M 59.578454,134.02293 C 55.635213,114.02506 81.970449,107.87548 93.377685,107.82853 C 104.78493,107.78159 130.83850,113.55562 128.02190,133.74127 L 146.04816,137.12119 C 141.75359,111.89955 110.74673,105.01193 93.377685,105.01193 C 76.008639,105.01193 44.707680,114.40850 41.833863,137.12119 L 59.578454,134.02293 z "
       id="path2278"
       sodipodi:nodetypes="czcczcc" />
    <path
       style="fill:#c22d2d;fill-rule:evenodd;stroke-width:0.85192400;"
       d="M 108.17054,106.37626 C 107.42569,107.48806 106.68731,108.60422 105.93861,109.71343 C 111.61583,110.83902 116.99861,113.42771 121.47026,117.08692 C 124.41424,119.60542 126.66581,122.95033 127.57833,126.73858 C 128.09860,129.09989 128.04328,131.50442 127.81795,133.89981 C 133.97524,135.06568 140.13774,136.20376 146.29575,137.36574 C 145.58805,133.02747 143.92118,128.88689 141.54804,125.19693 C 139.17694,121.61955 136.08214,118.57654 132.61777,116.05369 C 125.41373,110.92487 116.88234,107.95663 108.24565,106.26896 L 108.17054,106.37626 z "
       id="path1563" />
    <path
       style="fill:#ffffff;fill-rule:evenodd;stroke-width:2.5056589;"
       d="M 90.544552,126.04543 L 90.302439,127.41164 L 150.98614,138.42774 L 151.24555,137.06154 L 90.544552,126.04543 z "
       id="path2286" />
    <path
       sodipodi:type="arc"
       style="fill:#ffffff;fill-rule:evenodd;stroke-width:1.0000000pt;"
       id="path2281"
       sodipodi:cx="96.926056"
       sodipodi:cy="284.09567"
       sodipodi:rx="3.0608227"
       sodipodi:ry="3.0608227"
       d="M 99.986879 284.09567 A 3.0608227 3.0608227 0 1 0 93.865233,284.09567 A 3.0608227 3.0608227 0 1 0 99.986879 284.09567 z"
       transform="matrix(0.605692,0.000000,0.000000,0.605692,36.19080,-44.36927)" />
  </g>
</svg>
