<?xml version="1.0" encoding="UTF-8" standalone="no"?>
<!DOCTYPE svg PUBLIC "-//W3C//DTD SVG 20010904//EN"
"http://www.w3.org/TR/2001/REC-SVG-20010904/DTD/svg10.dtd">
<!-- Created with Inkscape (http://www.inkscape.org/) -->
<svg
   id="svg1"
   sodipodi:version="0.32"
   inkscape:version="0.39cvs"
   width="128.00000pt"
   height="128.00000pt"
   sodipodi:docbase="/home/andy/Desktop/etiquette-icons-0.5/scalable/mimetypes"
   sodipodi:docname="gnome-mime-text-x-authors.svg"
   xmlns="http://www.w3.org/2000/svg"
   xmlns:inkscape="http://www.inkscape.org/namespaces/inkscape"
   xmlns:sodipodi="http://sodipodi.sourceforge.net/DTD/sodipodi-0.dtd"
   xmlns:xlink="http://www.w3.org/1999/xlink">
  <defs
     id="defs3">
    <linearGradient
       id="linearGradient1894">
      <stop
         style="stop-color:#ffffff;stop-opacity:0.0000000;"
         offset="0.0000000"
         id="stop1895" />
      <stop
         style="stop-color:#000000;stop-opacity:0.30693069;"
         offset="1.0000000"
         id="stop1896" />
    </linearGradient>
    <radialGradient
       xlink:href="#linearGradient1894"
       id="radialGradient1887"
       r="0.50000000"
       fy="0.46875000"
       fx="0.40740740"
       cy="0.50000000"
       cx="0.50000000" />
    <linearGradient
       id="linearGradient1868">
      <stop
         style="stop-color:#ffffff;stop-opacity:0.0000000;"
         offset="0.0000000"
         id="stop1869" />
      <stop
         style="stop-color:#fff;stop-opacity:1;"
         offset="1"
         id="stop1870" />
    </linearGradient>
    <linearGradient
       xlink:href="#linearGradient1868"
       id="linearGradient1867"
       y2="1.8203125"
       x2="0.044843048"
       y1="0.38281250"
       x1="0.44843048" />
    <linearGradient
       id="linearGradient1507">
      <stop
         style="stop-color:#000000;stop-opacity:0.095505618;"
         offset="0.0000000"
         id="stop1508" />
      <stop
         style="stop-color:#000000;stop-opacity:0.0000000;"
         offset="1.0000000"
         id="stop1510" />
    </linearGradient>
    <linearGradient
       xlink:href="#linearGradient1507"
       id="linearGradient852" />
    <linearGradient
       xlink:href="#linearGradient1507"
       id="linearGradient844" />
    <linearGradient
       xlink:href="#linearGradient841"
       id="linearGradient845"
       y2="0.50490195"
       x2="0.10833333"
       y1="0.49019608"
       x1="1.3833333" />
    <linearGradient
       xlink:href="#linearGradient853"
       id="linearGradient840"
       y2="0.46568626"
       x2="0.59469700"
       y1="0.38235295"
       x1="-0.22348484" />
    <linearGradient
       xlink:href="#linearGradient846"
       id="linearGradient849"
       y2="0.46354166"
       x2="1.2288733"
       y1="0.43229166"
       x1="0.010563380" />
    <radialGradient
       xlink:href="#linearGradient853"
       id="radialGradient864"
       cx="0.50000000"
       cy="0.50000000"
       r="0.50000000"
       fx="0.50000000"
       fy="0.14942528" />
    <linearGradient
       id="linearGradient841">
      <stop
         style="stop-color:#ffffff;stop-opacity:1.0000000;"
         offset="0.00000000"
         id="stop842" />
      <stop
         style="stop-color:#ffffff;stop-opacity:0.00000000;"
         offset="1.0000000"
         id="stop843" />
    </linearGradient>
    <linearGradient
       id="linearGradient1290">
      <stop
         style="stop-color:#b2a269;stop-opacity:1.0000000;"
         offset="0.0000000"
         id="stop1291" />
      <stop
         style="stop-color:#6d5b18;stop-opacity:1.0000000;"
         offset="1.0000000"
         id="stop1292" />
    </linearGradient>
    <linearGradient
       xlink:href="#linearGradient1290"
       id="linearGradient860"
       x1="0.47535211"
       y1="0.81081080"
       x2="0.50000000"
       y2="-0.74324322" />
    <linearGradient
       xlink:href="#linearGradient846"
       id="linearGradient851"
       x1="0.39788732"
       y1="0.32222223"
       x2="0.80985916"
       y2="0.35555556" />
    <linearGradient
       xlink:href="#linearGradient846"
       id="linearGradient858"
       x1="0.64285713"
       y1="1.2647059"
       x2="0.57142860"
       y2="0.049019609" />
    <linearGradient
       id="linearGradient846">
      <stop
         style="stop-color:#e7e7e7;stop-opacity:1.0000000;"
         offset="0.00000000"
         id="stop847" />
      <stop
         style="stop-color:#a5a5a5;stop-opacity:1.0000000;"
         offset="1.0000000"
         id="stop848" />
    </linearGradient>
    <linearGradient
       xlink:href="#linearGradient846"
       id="linearGradient850" />
    <linearGradient
       xlink:href="#linearGradient853"
       id="linearGradient859"
       x1="1.4647887"
       y1="-1.1486486"
       x2="0.26408452"
       y2="1.2905406" />
    <linearGradient
       id="linearGradient853">
      <stop
         style="stop-color:#000000;stop-opacity:0.29752067;"
         offset="0.00000000"
         id="stop854" />
      <stop
         style="stop-color:#000000;stop-opacity:0.00000000;"
         offset="1.0000000"
         id="stop855" />
    </linearGradient>
    <radialGradient
       xlink:href="#linearGradient853"
       id="radialGradient861"
       cx="0.50000000"
       cy="0.50000000"
       r="0.50000000"
       fx="0.50704223"
       fy="0.29885057" />
    <linearGradient
       id="linearGradient1501">
      <stop
         style="stop-color:#ffffff;stop-opacity:1.0000000;"
         offset="0.0000000"
         id="stop1502" />
      <stop
         style="stop-color:#ffffff;stop-opacity:0.0000000;"
         offset="1.0000000"
         id="stop1504" />
    </linearGradient>
    <linearGradient
       id="linearGradient1492">
      <stop
         style="stop-color:#cbcbcb;stop-opacity:1.0000000;"
         offset="0.0000000"
         id="stop1493" />
      <stop
         style="stop-color:#f0f0f0;stop-opacity:1.0000000;"
         offset="0.34923077"
         id="stop1496" />
      <stop
         style="stop-color:#e2e2e2;stop-opacity:1.0000000;"
         offset="1.0000000"
         id="stop1494" />
    </linearGradient>
    <linearGradient
       xlink:href="#linearGradient1492"
       id="linearGradient1495"
       x1="0.92307693"
       y1="0.16406250"
       x2="0.14529915"
       y2="1.1718750" />
    <linearGradient
       xlink:href="#linearGradient1492"
       id="linearGradient1497"
       x1="0.63247865"
       y1="0.32812500"
       x2="-0.37606838"
       y2="1.3281250" />
    <linearGradient
       xlink:href="#linearGradient1501"
       id="linearGradient1499"
       x1="0.85826772"
       y1="0.14062500"
       x2="0.062992126"
       y2="0.54687500" />
    <linearGradient
       xlink:href="#linearGradient1507"
       id="linearGradient1506"
       x1="0.052173913"
       y1="0.97656250"
       x2="0.78260869"
       y2="0.0078125000" />
    <linearGradient
       xlink:href="#linearGradient1507"
       id="linearGradient1556"
       x1="0.31111112"
       y1="-0.56250000"
       x2="0.62222224"
       y2="0.79687500" />
    <radialGradient
       xlink:href="#linearGradient841"
       id="radialGradient856"
       cx="0.50000000"
       cy="0.89285713"
       r="0.54606670"
       fx="0.54117650"
       fy="3.5200000" />
    <linearGradient
       xlink:href="#linearGradient841"
       id="linearGradient1944" />
  </defs>
  <sodipodi:namedview
     id="base"
     pagecolor="#ffffff"
     bordercolor="#666666"
     borderopacity="1.0"
     inkscape:pageopacity="0.0"
     inkscape:pageshadow="2"
     inkscape:zoom="1.5840356"
     inkscape:cx="56.278092"
     inkscape:cy="-0.84050535"
     inkscape:window-width="464"
     inkscape:window-height="665"
     inkscape:window-x="132"
     inkscape:window-y="120"
     showgrid="false"
     snaptogrid="false" />
  <g
     id="g1694"
     style="">
    <path
       style="fill:#ffffff;fill-rule:evenodd;stroke-width:0.42649043;stroke-opacity:0.36477986;"
       d="M 17.159384,6.3292894 L 17.159384,43.068526 L 17.159384,79.807768 L 17.159384,116.54700 L 17.159384,153.28624 L 50.687024,153.28624 L 84.214664,153.28624 L 117.74230,153.28624 L 151.26994,153.28624 L 151.26994,116.54700 L 151.26994,79.807768 L 151.26994,43.068526 L 117.74230,6.3292894 L 84.214664,6.3292894 L 50.687024,6.3292894 L 17.159384,6.3292894 z "
       id="path930"
       sodipodi:nodetypes="cccccccccccccccc" />
    <g
       id="g1552"
       transform="matrix(0.304171,0.000000,0.000000,0.297572,-36.70399,-112.4880)"
       style="fill:#000000;fill-opacity:0.069182344;">
      <path
         style="fill-opacity:0.069182344;fill-rule:evenodd;stroke-width:0.95407495pt;fill:#000000;"
         d="M 173.35959,408.81260 L 173.35959,531.07360 L 173.35959,653.33460 L 173.35959,775.59560 L 173.35959,897.85660 L 282.12187,897.85660 L 390.88417,897.85660 L 499.64646,897.85660 L 608.40874,897.85660 L 608.40874,775.59560 L 608.40874,653.33460 L 608.40874,531.07360 L 499.64646,408.81260 L 390.88417,408.81260 L 282.12187,408.81260 L 173.35959,408.81260 z "
         id="path1505"
         sodipodi:nodetypes="cccccccccccccccc" />
      <path
         style="fill-opacity:0.069182344;fill-rule:evenodd;stroke-width:0.95407495pt;fill:#000000;"
         d="M 170.12500,407.18750 C 170.12500,571.82292 170.12500,736.45833 170.12500,901.09375 C 317.30208,901.09375 464.47917,901.09375 611.65625,901.09375 C 611.65625,777.33333 611.65625,653.57292 611.65625,529.81250 C 574.80918,488.38978 537.97604,446.95335 501.09375,405.56250 C 390.77083,405.56250 280.44792,405.56250 170.12500,405.56250 C 170.12500,405.89583 170.12500,406.97917 170.12500,407.18750 z "
         id="path1538" />
      <path
         style="fill-opacity:0.069182344;fill-rule:evenodd;stroke-width:0.95407495pt;fill:#000000;"
         d="M 166.87500,403.93750 C 166.87500,570.73958 166.87500,737.54167 166.87500,904.34375 C 316.21875,904.34375 465.56250,904.34375 614.90625,904.34375 C 614.90625,779.08333 614.90625,653.82292 614.90625,528.56250 C 577.45517,486.47298 540.01754,444.37017 502.53125,402.31250 C 390.64583,402.31250 278.76042,402.31250 166.87500,402.31250 C 166.87500,402.64583 166.87500,403.72917 166.87500,403.93750 z "
         id="path1543" />
    </g>
    <path
       style="fill:url(#linearGradient1495);fill-opacity:0.75000000;fill-rule:evenodd;stroke:#000000;stroke-width:1.4375000;stroke-opacity:0.36477986;"
       d="M 297.99034,136.74154 L 297.99034,260.57234 L 297.99034,384.40315 L 297.99034,508.23395 L 297.99034,632.06475 L 410.99634,632.06475 L 524.00235,632.06475 L 637.00835,632.06475 L 750.01435,632.06475 L 750.01435,508.23395 L 750.01435,384.40315 L 750.01435,260.57234 L 637.00835,136.74154 L 524.00235,136.74154 L 410.99634,136.74154 L 297.99034,136.74154 z "
       id="rect900"
       sodipodi:nodetypes="cccccccccccccccc"
       transform="matrix(0.296689,0.000000,0.000000,0.296689,-71.19601,-34.05825)" />
    <path
       style="fill:url(#linearGradient1497);fill-opacity:0.75000000;fill-rule:evenodd;stroke-width:0.95407495pt;"
       d="M 750.01435,260.57234 C 715.94460,250.48602 671.79788,251.91624 638.44792,257.66516 C 644.20618,220.71628 644.92597,174.41021 637.00835,136.74154 L 750.01435,260.57234 z "
       id="path906"
       sodipodi:nodetypes="cccc"
       transform="matrix(0.296689,0.000000,0.000000,0.296689,-71.19601,-34.05825)" />
    <path
       style="fill:url(#linearGradient1499);fill-opacity:0.75000000;fill-rule:evenodd;stroke-width:1.0000000pt;"
       d="M 301.30655,174.90867 L 299.27069,628.90434 L 743.08709,628.90434 L 743.34157,516.67783 C 733.41677,520.49506 633.15091,378.49417 506.92790,384.60173 C 380.59029,390.71484 413.27857,193.23136 301.30655,174.90867 z "
       id="path1500"
       sodipodi:nodetypes="cccczc"
       transform="matrix(0.296689,0.000000,0.000000,0.296689,-71.19601,-34.05825)" />
  </g>
  <g
     id="g2002"
     transform="matrix(0.142646,0.000000,0.000000,0.142646,32.89703,-78.23379)"
     style="">
    <g
       id="g1881"
       transform="matrix(0.889425,0.000000,0.000000,0.849992,238.5950,-402.6753)"
       style="fill-opacity:0.069182344;">
      <polygon
         sodipodi:type="star"
         style="fill-rule:evenodd;stroke-width:1.0000000pt;"
         id="polygon1878"
         sodipodi:sides="5"
         sodipodi:cx="437.62833"
         sodipodi:cy="490.93109"
         sodipodi:r1="229.98854"
         sodipodi:r2="117.80724"
         sodipodi:arg1="2.2166123"
         sodipodi:arg2="2.8449308"
         inkscape:flatsided="false"
         points="299.20966,674.60200 324.96718,525.36963 220.17320,416.04455 370.06113,394.42607 441.65233,260.97776 508.53065,396.84917 657.57043,423.69866 549.01557,529.29029 569.53602,679.33250 435.56711,608.72030 299.20966,674.60200 "
         transform="matrix(1.154001,0.000000,0.000000,1.154001,-359.8771,1065.591)" />
      <polygon
         sodipodi:type="star"
         style="fill-rule:evenodd;stroke-width:1.0000000pt;"
         id="polygon1879"
         sodipodi:sides="5"
         sodipodi:cx="437.62833"
         sodipodi:cy="490.93109"
         sodipodi:r1="229.98854"
         sodipodi:r2="117.80724"
         sodipodi:arg1="2.2166123"
         sodipodi:arg2="2.8449308"
         inkscape:flatsided="false"
         points="299.20966,674.60200 324.96718,525.36963 220.17320,416.04455 370.06113,394.42607 441.65233,260.97776 508.53065,396.84917 657.57043,423.69866 549.01557,529.29029 569.53602,679.33250 435.56711,608.72030 299.20966,674.60200 "
         transform="matrix(1.218028,0.000000,0.000000,1.218028,-387.9765,1035.489)" />
      <polygon
         sodipodi:type="star"
         style="fill-rule:evenodd;stroke-width:1.0000000pt;"
         id="polygon1880"
         sodipodi:sides="5"
         sodipodi:cx="437.62833"
         sodipodi:cy="490.93109"
         sodipodi:r1="229.98854"
         sodipodi:r2="117.80724"
         sodipodi:arg1="2.2166123"
         sodipodi:arg2="2.8449308"
         inkscape:flatsided="false"
         points="299.20966,674.60200 324.96718,525.36963 220.17320,416.04455 370.06113,394.42607 441.65233,260.97776 508.53065,396.84917 657.57043,423.69866 549.01557,529.29029 569.53602,679.33250 435.56711,608.72030 299.20966,674.60200 "
         transform="matrix(1.250940,0.000000,0.000000,1.250940,-402.4208,1020.015)" />
      <polygon
         sodipodi:type="star"
         style="fill-rule:evenodd;stroke-width:1.0000000pt;"
         id="polygon1874"
         sodipodi:sides="5"
         sodipodi:cx="437.62833"
         sodipodi:cy="490.93109"
         sodipodi:r1="229.98854"
         sodipodi:r2="117.80724"
         sodipodi:arg1="2.2166123"
         sodipodi:arg2="2.8449308"
         inkscape:flatsided="false"
         points="299.20966,674.60200 324.96718,525.36963 220.17320,416.04455 370.06113,394.42607 441.65233,260.97776 508.53065,396.84917 657.57043,423.69866 549.01557,529.29029 569.53602,679.33250 435.56711,608.72030 299.20966,674.60200 "
         transform="matrix(1.188407,0.000000,0.000000,1.188407,-374.9768,1049.415)" />
    </g>
    <polygon
       sodipodi:type="star"
       style="fill:#d1940c;fill-rule:evenodd;stroke-width:1.0000000pt;"
       id="polygon1861"
       sodipodi:sides="5"
       sodipodi:cx="437.62833"
       sodipodi:cy="490.93109"
       sodipodi:r1="229.98854"
       sodipodi:r2="117.80724"
       sodipodi:arg1="2.2166123"
       sodipodi:arg2="2.8449308"
       inkscape:flatsided="false"
       points="299.20966,674.60200 324.96718,525.36963 220.17320,416.04455 370.06113,394.42607 441.65233,260.97776 508.53065,396.84917 657.57043,423.69866 549.01557,529.29029 569.53602,679.33250 435.56711,608.72030 299.20966,674.60200 "
       transform="translate(-70.86614,496.0630)" />
    <path
       style="fill:url(#linearGradient1867);fill-opacity:0.75000000;fill-rule:evenodd;stroke-width:1.0000000pt;"
       d="M 586.70300,912.03394 C 539.61606,935.49194 488.96310,1005.8814 435.31865,1008.3656 C 329.01944,1016.9291 305.88940,938.89706 239.04234,934.25003 C 219.35401,933.06175 198.24299,935.75740 182.76550,949.06521 C 178.06401,950.27867 174.88933,942.79149 170.84971,940.23323 C 163.83207,933.40637 156.81440,926.57953 149.79675,919.75269 C 199.47383,910.80477 249.15091,901.85685 298.82800,892.90894 C 321.11966,847.61727 343.41133,802.32560 365.70300,757.03394 C 389.56758,801.52352 413.43216,846.01310 437.29675,890.50269 C 487.09883,897.67977 536.90091,904.85685 586.70300,912.03394 z "
       id="path1863"
       sodipodi:nodetypes="cccccccccc" />
    <polygon
       sodipodi:type="star"
       style="fill:url(#radialGradient1887);fill-rule:evenodd;stroke-width:1.0000000pt;"
       id="polygon1886"
       sodipodi:sides="5"
       sodipodi:cx="437.62833"
       sodipodi:cy="490.93109"
       sodipodi:r1="229.98854"
       sodipodi:r2="117.80724"
       sodipodi:arg1="2.2166123"
       sodipodi:arg2="2.8449308"
       inkscape:flatsided="false"
       points="299.20966,674.60200 324.96718,525.36963 220.17320,416.04455 370.06113,394.42607 441.65233,260.97776 508.53065,396.84917 657.57043,423.69866 549.01557,529.29029 569.53602,679.33250 435.56711,608.72030 299.20966,674.60200 "
       transform="matrix(1.010323,0.000000,0.000000,1.010323,-75.27555,491.0482)" />
  </g>
  <g
     id="g2034"
     transform="matrix(0.511283,0.000000,0.000000,0.669948,34.51107,-33.50997)"
     style="stroke:#000000;stroke-width:0.38444242;">
    <path
       style="fill:none;fill-rule:evenodd;"
       d="M 0.26594861,227.40174 L 52.781515,227.40174"
       id="path2021" />
    <path
       style="fill:none;fill-rule:evenodd;"
       d="M 0.19029659,231.60668 L 41.983527,231.60668"
       id="path2023" />
    <path
       style="fill:none;fill-rule:evenodd;"
       d="M 0.26594861,235.81162 L 52.781515,235.81162"
       id="path2024" />
    <path
       style="fill:none;fill-rule:evenodd;"
       d="M 0.11722224,240.01655 L 31.553488,240.01655"
       id="path2025" />
    <path
       style="fill:none;fill-rule:evenodd;"
       d="M 0.26594861,244.22149 L 52.781515,244.22149"
       id="path2026" />
    <path
       style="fill:none;fill-rule:evenodd;"
       d="M 0.19029659,248.42643 L 41.983527,248.42643"
       id="path2027" />
    <path
       style="fill:none;fill-rule:evenodd;"
       d="M 0.26594861,252.63137 L 52.781515,252.63137"
       id="path2029" />
    <path
       style="fill:none;fill-rule:evenodd;"
       d="M 0.19029659,256.83630 L 41.983527,256.83630"
       id="path2030" />
    <path
       style="fill:none;fill-rule:evenodd;"
       d="M 0.19029659,261.04124 L 41.983527,261.04124"
       id="path2031" />
    <path
       style="fill:none;fill-rule:evenodd;"
       d="M 0.11722224,265.24617 L 31.553488,265.24617"
       id="path2032" />
    <path
       style="fill:none;fill-rule:evenodd;"
       d="M 0.19029659,269.45112 L 41.983527,269.45112"
       id="path2033" />
  </g>
  <g
     id="g2082"
     transform="matrix(0.511283,0.000000,0.000000,-0.669948,73.45770,299.3556)"
     style="stroke:#000000;stroke-width:0.38444242;">
    <path
       style="fill:none;fill-rule:evenodd;"
       d="M 0.26594861,227.40174 L 52.781515,227.40174"
       id="path2083" />
    <path
       style="fill:none;fill-rule:evenodd;"
       d="M 0.19029659,231.60668 L 41.983527,231.60668"
       id="path2084" />
    <path
       style="fill:none;fill-rule:evenodd;"
       d="M 0.26594861,235.81162 L 52.781515,235.81162"
       id="path2085" />
    <path
       style="fill:none;fill-rule:evenodd;"
       d="M 0.11722224,240.01655 L 31.553488,240.01655"
       id="path2086" />
    <path
       style="fill:none;fill-rule:evenodd;"
       d="M 0.26594861,244.22149 L 52.781515,244.22149"
       id="path2087" />
    <path
       style="fill:none;fill-rule:evenodd;"
       d="M 0.19029659,248.42643 L 41.983527,248.42643"
       id="path2088" />
    <path
       style="fill:none;fill-rule:evenodd;"
       d="M 0.26594861,252.63137 L 52.781515,252.63137"
       id="path2089" />
    <path
       style="fill:none;fill-rule:evenodd;"
       d="M 0.19029659,256.83630 L 41.983527,256.83630"
       id="path2090" />
    <path
       style="fill:none;fill-rule:evenodd;"
       d="M 0.19029659,261.04124 L 41.983527,261.04124"
       id="path2091" />
    <path
       style="fill:none;fill-rule:evenodd;"
       d="M 0.11722224,265.24617 L 31.553488,265.24617"
       id="path2092" />
    <path
       style="fill:none;fill-rule:evenodd;"
       d="M 0.19029659,269.45112 L 41.983527,269.45112"
       id="path2093" />
  </g>
  <g
     id="g2094"
     transform="matrix(0.511283,0.000000,0.000000,0.669948,110.9207,-33.50997)"
     style="stroke:#000000;stroke-width:0.38444242;">
    <path
       style="fill:none;fill-rule:evenodd;"
       d="M 0.26594861,227.40174 L 52.781515,227.40174"
       id="path2095" />
    <path
       style="fill:none;fill-rule:evenodd;"
       d="M 0.19029659,231.60668 L 41.983527,231.60668"
       id="path2096" />
    <path
       style="fill:none;fill-rule:evenodd;"
       d="M 0.26594861,235.81162 L 52.781515,235.81162"
       id="path2097" />
    <path
       style="fill:none;fill-rule:evenodd;"
       d="M 0.11722224,240.01655 L 31.553488,240.01655"
       id="path2098" />
    <path
       style="fill:none;fill-rule:evenodd;"
       d="M 0.26594861,244.22149 L 52.781515,244.22149"
       id="path2099" />
    <path
       style="fill:none;fill-rule:evenodd;"
       d="M 0.19029659,248.42643 L 41.983527,248.42643"
       id="path2100" />
    <path
       style="fill:none;fill-rule:evenodd;"
       d="M 0.26594861,252.63137 L 52.781515,252.63137"
       id="path2101" />
    <path
       style="fill:none;fill-rule:evenodd;"
       d="M 0.19029659,256.83630 L 41.983527,256.83630"
       id="path2102" />
    <path
       style="fill:none;fill-rule:evenodd;"
       d="M 0.19029659,261.04124 L 41.983527,261.04124"
       id="path2103" />
    <path
       style="fill:none;fill-rule:evenodd;"
       d="M 0.11722224,265.24617 L 31.553488,265.24617"
       id="path2104" />
    <path
       style="fill:none;fill-rule:evenodd;"
       d="M 0.19029659,269.45112 L 41.983527,269.45112"
       id="path2105" />
  </g>
  <g
     id="g2106"
     transform="matrix(8.228426e-2,0.000000,0.000000,8.228426e-2,96.58336,-1.173220)"
     style="">
    <g
       id="g2107"
       transform="matrix(0.889425,0.000000,0.000000,0.849992,238.5950,-402.6753)"
       style="fill-opacity:0.069182344;">
      <polygon
         sodipodi:type="star"
         style="fill-rule:evenodd;stroke-width:1.0000000pt;"
         id="polygon2108"
         sodipodi:sides="5"
         sodipodi:cx="437.62833"
         sodipodi:cy="490.93109"
         sodipodi:r1="229.98854"
         sodipodi:r2="117.80724"
         sodipodi:arg1="2.2166123"
         sodipodi:arg2="2.8449308"
         inkscape:flatsided="false"
         points="299.20966,674.60200 324.96718,525.36963 220.17320,416.04455 370.06113,394.42607 441.65233,260.97776 508.53065,396.84917 657.57043,423.69866 549.01557,529.29029 569.53602,679.33250 435.56711,608.72030 299.20966,674.60200 "
         transform="matrix(1.154001,0.000000,0.000000,1.154001,-359.8771,1065.591)" />
      <polygon
         sodipodi:type="star"
         style="fill-rule:evenodd;stroke-width:1.0000000pt;"
         id="polygon2109"
         sodipodi:sides="5"
         sodipodi:cx="437.62833"
         sodipodi:cy="490.93109"
         sodipodi:r1="229.98854"
         sodipodi:r2="117.80724"
         sodipodi:arg1="2.2166123"
         sodipodi:arg2="2.8449308"
         inkscape:flatsided="false"
         points="299.20966,674.60200 324.96718,525.36963 220.17320,416.04455 370.06113,394.42607 441.65233,260.97776 508.53065,396.84917 657.57043,423.69866 549.01557,529.29029 569.53602,679.33250 435.56711,608.72030 299.20966,674.60200 "
         transform="matrix(1.218028,0.000000,0.000000,1.218028,-387.9765,1035.489)" />
      <polygon
         sodipodi:type="star"
         style="fill-rule:evenodd;stroke-width:1.0000000pt;"
         id="polygon2110"
         sodipodi:sides="5"
         sodipodi:cx="437.62833"
         sodipodi:cy="490.93109"
         sodipodi:r1="229.98854"
         sodipodi:r2="117.80724"
         sodipodi:arg1="2.2166123"
         sodipodi:arg2="2.8449308"
         inkscape:flatsided="false"
         points="299.20966,674.60200 324.96718,525.36963 220.17320,416.04455 370.06113,394.42607 441.65233,260.97776 508.53065,396.84917 657.57043,423.69866 549.01557,529.29029 569.53602,679.33250 435.56711,608.72030 299.20966,674.60200 "
         transform="matrix(1.250940,0.000000,0.000000,1.250940,-402.4208,1020.015)" />
      <polygon
         sodipodi:type="star"
         style="fill-rule:evenodd;stroke-width:1.0000000pt;"
         id="polygon2111"
         sodipodi:sides="5"
         sodipodi:cx="437.62833"
         sodipodi:cy="490.93109"
         sodipodi:r1="229.98854"
         sodipodi:r2="117.80724"
         sodipodi:arg1="2.2166123"
         sodipodi:arg2="2.8449308"
         inkscape:flatsided="false"
         points="299.20966,674.60200 324.96718,525.36963 220.17320,416.04455 370.06113,394.42607 441.65233,260.97776 508.53065,396.84917 657.57043,423.69866 549.01557,529.29029 569.53602,679.33250 435.56711,608.72030 299.20966,674.60200 "
         transform="matrix(1.188407,0.000000,0.000000,1.188407,-374.9768,1049.415)" />
    </g>
    <polygon
       sodipodi:type="star"
       style="fill:#d1940c;fill-rule:evenodd;stroke-width:1.0000000pt;"
       id="polygon2112"
       sodipodi:sides="5"
       sodipodi:cx="437.62833"
       sodipodi:cy="490.93109"
       sodipodi:r1="229.98854"
       sodipodi:r2="117.80724"
       sodipodi:arg1="2.2166123"
       sodipodi:arg2="2.8449308"
       inkscape:flatsided="false"
       points="299.20966,674.60200 324.96718,525.36963 220.17320,416.04455 370.06113,394.42607 441.65233,260.97776 508.53065,396.84917 657.57043,423.69866 549.01557,529.29029 569.53602,679.33250 435.56711,608.72030 299.20966,674.60200 "
       transform="translate(-70.86614,496.0630)" />
    <path
       style="fill:url(#linearGradient1867);fill-opacity:0.75000000;fill-rule:evenodd;stroke-width:1.0000000pt;"
       d="M 586.70300,912.03394 C 539.61606,935.49194 488.96310,1005.8814 435.31865,1008.3656 C 329.01944,1016.9291 305.88940,938.89706 239.04234,934.25003 C 219.35401,933.06175 198.24299,935.75740 182.76550,949.06521 C 178.06401,950.27867 174.88933,942.79149 170.84971,940.23323 C 163.83207,933.40637 156.81440,926.57953 149.79675,919.75269 C 199.47383,910.80477 249.15091,901.85685 298.82800,892.90894 C 321.11966,847.61727 343.41133,802.32560 365.70300,757.03394 C 389.56758,801.52352 413.43216,846.01310 437.29675,890.50269 C 487.09883,897.67977 536.90091,904.85685 586.70300,912.03394 z "
       id="path2113"
       sodipodi:nodetypes="cccccccccc" />
    <polygon
       sodipodi:type="star"
       style="fill:url(#radialGradient1887);fill-rule:evenodd;stroke-width:1.0000000pt;"
       id="polygon2114"
       sodipodi:sides="5"
       sodipodi:cx="437.62833"
       sodipodi:cy="490.93109"
       sodipodi:r1="229.98854"
       sodipodi:r2="117.80724"
       sodipodi:arg1="2.2166123"
       sodipodi:arg2="2.8449308"
       inkscape:flatsided="false"
       points="299.20966,674.60200 324.96718,525.36963 220.17320,416.04455 370.06113,394.42607 441.65233,260.97776 508.53065,396.84917 657.57043,423.69866 549.01557,529.29029 569.53602,679.33250 435.56711,608.72030 299.20966,674.60200 "
       transform="matrix(1.010323,0.000000,0.000000,1.010323,-75.27555,491.0482)" />
  </g>
  <g
     id="g2142"
     transform="matrix(8.228426e-2,0.000000,0.000000,8.228426e-2,14.75192,-1.173220)"
     style="">
    <g
       id="g2143"
       transform="matrix(0.889425,0.000000,0.000000,0.849992,238.5950,-402.6753)"
       style="fill-opacity:0.069182344;">
      <polygon
         sodipodi:type="star"
         style="fill-rule:evenodd;stroke-width:1.0000000pt;"
         id="polygon2144"
         sodipodi:sides="5"
         sodipodi:cx="437.62833"
         sodipodi:cy="490.93109"
         sodipodi:r1="229.98854"
         sodipodi:r2="117.80724"
         sodipodi:arg1="2.2166123"
         sodipodi:arg2="2.8449308"
         inkscape:flatsided="false"
         points="299.20966,674.60200 324.96718,525.36963 220.17320,416.04455 370.06113,394.42607 441.65233,260.97776 508.53065,396.84917 657.57043,423.69866 549.01557,529.29029 569.53602,679.33250 435.56711,608.72030 299.20966,674.60200 "
         transform="matrix(1.154001,0.000000,0.000000,1.154001,-359.8771,1065.591)" />
      <polygon
         sodipodi:type="star"
         style="fill-rule:evenodd;stroke-width:1.0000000pt;"
         id="polygon2145"
         sodipodi:sides="5"
         sodipodi:cx="437.62833"
         sodipodi:cy="490.93109"
         sodipodi:r1="229.98854"
         sodipodi:r2="117.80724"
         sodipodi:arg1="2.2166123"
         sodipodi:arg2="2.8449308"
         inkscape:flatsided="false"
         points="299.20966,674.60200 324.96718,525.36963 220.17320,416.04455 370.06113,394.42607 441.65233,260.97776 508.53065,396.84917 657.57043,423.69866 549.01557,529.29029 569.53602,679.33250 435.56711,608.72030 299.20966,674.60200 "
         transform="matrix(1.218028,0.000000,0.000000,1.218028,-387.9765,1035.489)" />
      <polygon
         sodipodi:type="star"
         style="fill-rule:evenodd;stroke-width:1.0000000pt;"
         id="polygon2146"
         sodipodi:sides="5"
         sodipodi:cx="437.62833"
         sodipodi:cy="490.93109"
         sodipodi:r1="229.98854"
         sodipodi:r2="117.80724"
         sodipodi:arg1="2.2166123"
         sodipodi:arg2="2.8449308"
         inkscape:flatsided="false"
         points="299.20966,674.60200 324.96718,525.36963 220.17320,416.04455 370.06113,394.42607 441.65233,260.97776 508.53065,396.84917 657.57043,423.69866 549.01557,529.29029 569.53602,679.33250 435.56711,608.72030 299.20966,674.60200 "
         transform="matrix(1.250940,0.000000,0.000000,1.250940,-402.4208,1020.015)" />
      <polygon
         sodipodi:type="star"
         style="fill-rule:evenodd;stroke-width:1.0000000pt;"
         id="polygon2147"
         sodipodi:sides="5"
         sodipodi:cx="437.62833"
         sodipodi:cy="490.93109"
         sodipodi:r1="229.98854"
         sodipodi:r2="117.80724"
         sodipodi:arg1="2.2166123"
         sodipodi:arg2="2.8449308"
         inkscape:flatsided="false"
         points="299.20966,674.60200 324.96718,525.36963 220.17320,416.04455 370.06113,394.42607 441.65233,260.97776 508.53065,396.84917 657.57043,423.69866 549.01557,529.29029 569.53602,679.33250 435.56711,608.72030 299.20966,674.60200 "
         transform="matrix(1.188407,0.000000,0.000000,1.188407,-374.9768,1049.415)" />
    </g>
    <polygon
       sodipodi:type="star"
       style="fill:#d1940c;fill-rule:evenodd;stroke-width:1.0000000pt;"
       id="polygon2148"
       sodipodi:sides="5"
       sodipodi:cx="437.62833"
       sodipodi:cy="490.93109"
       sodipodi:r1="229.98854"
       sodipodi:r2="117.80724"
       sodipodi:arg1="2.2166123"
       sodipodi:arg2="2.8449308"
       inkscape:flatsided="false"
       points="299.20966,674.60200 324.96718,525.36963 220.17320,416.04455 370.06113,394.42607 441.65233,260.97776 508.53065,396.84917 657.57043,423.69866 549.01557,529.29029 569.53602,679.33250 435.56711,608.72030 299.20966,674.60200 "
       transform="translate(-70.86614,496.0630)" />
    <path
       style="fill:url(#linearGradient1867);fill-opacity:0.75000000;fill-rule:evenodd;stroke-width:1.0000000pt;"
       d="M 586.70300,912.03394 C 539.61606,935.49194 488.96310,1005.8814 435.31865,1008.3656 C 329.01944,1016.9291 305.88940,938.89706 239.04234,934.25003 C 219.35401,933.06175 198.24299,935.75740 182.76550,949.06521 C 178.06401,950.27867 174.88933,942.79149 170.84971,940.23323 C 163.83207,933.40637 156.81440,926.57953 149.79675,919.75269 C 199.47383,910.80477 249.15091,901.85685 298.82800,892.90894 C 321.11966,847.61727 343.41133,802.32560 365.70300,757.03394 C 389.56758,801.52352 413.43216,846.01310 437.29675,890.50269 C 487.09883,897.67977 536.90091,904.85685 586.70300,912.03394 z "
       id="path2149"
       sodipodi:nodetypes="cccccccccc" />
    <polygon
       sodipodi:type="star"
       style="fill:url(#radialGradient1887);fill-rule:evenodd;stroke-width:1.0000000pt;"
       id="polygon2150"
       sodipodi:sides="5"
       sodipodi:cx="437.62833"
       sodipodi:cy="490.93109"
       sodipodi:r1="229.98854"
       sodipodi:r2="117.80724"
       sodipodi:arg1="2.2166123"
       sodipodi:arg2="2.8449308"
       inkscape:flatsided="false"
       points="299.20966,674.60200 324.96718,525.36963 220.17320,416.04455 370.06113,394.42607 441.65233,260.97776 508.53065,396.84917 657.57043,423.69866 549.01557,529.29029 569.53602,679.33250 435.56711,608.72030 299.20966,674.60200 "
       transform="matrix(1.010323,0.000000,0.000000,1.010323,-75.27555,491.0482)" />
  </g>
</svg>
