<?xml version="1.0" encoding="UTF-8" standalone="no"?>
<!DOCTYPE svg PUBLIC "-//W3C//DTD SVG 20010904//EN"
"http://www.w3.org/TR/2001/REC-SVG-20010904/DTD/svg10.dtd">
<!-- Created with Inkscape (http://www.inkscape.org/) -->
<svg
   id="svg1"
   sodipodi:version="0.32"
   inkscape:version="0.39cvs"
   width="128.00000pt"
   height="128.00000pt"
   sodipodi:docbase="/home/andy/Desktop/etiquette-icons-0.5/scalable/mimetypes"
   sodipodi:docname="gnome-mime-text-x-install.svg"
   xmlns="http://www.w3.org/2000/svg"
   xmlns:inkscape="http://www.inkscape.org/namespaces/inkscape"
   xmlns:sodipodi="http://sodipodi.sourceforge.net/DTD/sodipodi-0.dtd"
   xmlns:xlink="http://www.w3.org/1999/xlink">
  <defs
     id="defs3">
    <linearGradient
       id="linearGradient853">
      <stop
         style="stop-color:#000000;stop-opacity:0.29752067;"
         offset="0.00000000"
         id="stop854" />
      <stop
         style="stop-color:#000000;stop-opacity:0.00000000;"
         offset="1.0000000"
         id="stop855" />
    </linearGradient>
    <linearGradient
       id="linearGradient2838">
      <stop
         style="stop-color:#5d7555;stop-opacity:1.0000000;"
         offset="0.0000000"
         id="stop2839" />
      <stop
         style="stop-color:#83a67f;stop-opacity:1.0000000;"
         offset="1.0000000"
         id="stop2841" />
    </linearGradient>
    <linearGradient
       id="linearGradient1492">
      <stop
         style="stop-color:#cbcbcb;stop-opacity:1.0000000;"
         offset="0.0000000"
         id="stop1493" />
      <stop
         style="stop-color:#f0f0f0;stop-opacity:1.0000000;"
         offset="0.34923077"
         id="stop1496" />
      <stop
         style="stop-color:#e2e2e2;stop-opacity:1.0000000;"
         offset="1.0000000"
         id="stop1494" />
    </linearGradient>
    <linearGradient
       id="linearGradient1887">
      <stop
         style="stop-color:#ffffff;stop-opacity:1.0000000;"
         offset="0.0000000"
         id="stop1888" />
      <stop
         style="stop-color:#ffffff;stop-opacity:0.66274512;"
         offset="0.76773196"
         id="stop1890" />
      <stop
         style="stop-color:#ffffff;stop-opacity:0.0000000;"
         offset="1.0000000"
         id="stop1889" />
    </linearGradient>
    <linearGradient
       id="linearGradient1501">
      <stop
         style="stop-color:#ffffff;stop-opacity:1.0000000;"
         offset="0.0000000"
         id="stop1502" />
      <stop
         style="stop-color:#ffffff;stop-opacity:0.0000000;"
         offset="1.0000000"
         id="stop1504" />
    </linearGradient>
    <radialGradient
       xlink:href="#linearGradient1806"
       id="radialGradient1702"
       cx="0.50000000"
       cy="0.50000000"
       r="0.50000000"
       fx="0.50000000"
       fy="0.50000000" />
    <linearGradient
       id="linearGradient1675">
      <stop
         style="stop-color:#e3dfd7;stop-opacity:1.0000000;"
         offset="0.0000000"
         id="stop1676" />
      <stop
         style="stop-color:#c3beb4;stop-opacity:1.0000000;"
         offset="0.74752575"
         id="stop1677" />
      <stop
         style="stop-color:#5d5b55;stop-opacity:1.0000000;"
         offset="1.0000000"
         id="stop1678" />
    </linearGradient>
    <linearGradient
       id="linearGradient1806">
      <stop
         style="stop-color:#000000;stop-opacity:0.40677965;"
         offset="0.0000000"
         id="stop1807" />
      <stop
         style="stop-color:#000000;stop-opacity:0.073446326;"
         offset="0.64777780"
         id="stop3276" />
      <stop
         style="stop-color:#000000;stop-opacity:0.0000000;"
         offset="1.0000000"
         id="stop1808" />
    </linearGradient>
    <radialGradient
       xlink:href="#linearGradient1806"
       id="radialGradient1505"
       cx="0.49032259"
       cy="0.50649351"
       r="0.46014288"
       fx="0.50977784"
       fy="0.15800871" />
    <linearGradient
       id="linearGradient1696">
      <stop
         style="stop-color:#000000;stop-opacity:1.0000000;"
         offset="0.0000000"
         id="stop1697" />
      <stop
         style="stop-color:#ffffff;stop-opacity:1.0000000;"
         offset="1.0000000"
         id="stop1699" />
    </linearGradient>
    <linearGradient
       id="linearGradient1507">
      <stop
         style="stop-color:#000000;stop-opacity:0.095505618;"
         offset="0.0000000"
         id="stop1508" />
      <stop
         style="stop-color:#000000;stop-opacity:0.0000000;"
         offset="1.0000000"
         id="stop1510" />
    </linearGradient>
    <radialGradient
       xlink:href="#linearGradient1887"
       id="radialGradient864"
       cx="0.50000000"
       cy="0.50000000"
       r="0.50000000"
       fx="0.50000000"
       fy="0.50000000" />
    <linearGradient
       id="linearGradient841">
      <stop
         style="stop-color:#ffffff;stop-opacity:1.0000000;"
         offset="0.00000000"
         id="stop842" />
      <stop
         style="stop-color:#ffffff;stop-opacity:0.00000000;"
         offset="1.0000000"
         id="stop843" />
    </linearGradient>
    <linearGradient
       id="linearGradient1290">
      <stop
         style="stop-color:#b2a269;stop-opacity:1.0000000;"
         offset="0.0000000"
         id="stop1291" />
      <stop
         style="stop-color:#6d5b18;stop-opacity:1.0000000;"
         offset="1.0000000"
         id="stop1292" />
    </linearGradient>
    <linearGradient
       xlink:href="#linearGradient2838"
       id="linearGradient860"
       x1="0.31999999"
       y1="0.36718750"
       x2="0.92000002"
       y2="0.38281250" />
    <linearGradient
       xlink:href="#linearGradient1806"
       id="linearGradient851"
       x1="0.50273222"
       y1="1.3281250"
       x2="0.50273222"
       y2="0.50000000" />
    <linearGradient
       xlink:href="#linearGradient1806"
       id="linearGradient858"
       x1="0.52173913"
       y1="1.6640625"
       x2="0.52173913"
       y2="0.53906250" />
    <linearGradient
       id="linearGradient846">
      <stop
         style="stop-color:#e7e7e7;stop-opacity:1.0000000;"
         offset="0.00000000"
         id="stop847" />
      <stop
         style="stop-color:#a5a5a5;stop-opacity:1.0000000;"
         offset="1.0000000"
         id="stop848" />
    </linearGradient>
    <linearGradient
       xlink:href="#linearGradient846"
       id="linearGradient850" />
    <linearGradient
       xlink:href="#linearGradient853"
       id="linearGradient859"
       x1="1.4647887"
       y1="-1.1486486"
       x2="0.26408452"
       y2="1.2905406" />
    <radialGradient
       xlink:href="#linearGradient853"
       id="radialGradient861"
       cx="0.50000000"
       cy="0.50000000"
       r="0.50000000"
       fx="0.50704223"
       fy="0.29885057" />
    <linearGradient
       xlink:href="#linearGradient1492"
       id="linearGradient1495"
       x1="0.92307693"
       y1="0.16406250"
       x2="0.14529915"
       y2="1.1718750" />
    <linearGradient
       xlink:href="#linearGradient1492"
       id="linearGradient1497"
       x1="0.63247865"
       y1="0.32812500"
       x2="-0.37606838"
       y2="1.3281250" />
    <linearGradient
       xlink:href="#linearGradient1501"
       id="linearGradient1499"
       x1="0.85826772"
       y1="0.14062500"
       x2="0.062992126"
       y2="0.54687500" />
    <linearGradient
       xlink:href="#linearGradient1507"
       id="linearGradient1506"
       x1="0.052173913"
       y1="0.97656250"
       x2="0.78260869"
       y2="0.0078125000" />
    <linearGradient
       xlink:href="#linearGradient1507"
       id="linearGradient1556"
       x1="0.31111112"
       y1="-0.56250000"
       x2="0.62222224"
       y2="0.79687500" />
    <radialGradient
       xlink:href="#linearGradient841"
       id="radialGradient856"
       cx="0.50000000"
       cy="0.89285713"
       r="0.54606670"
       fx="0.54117650"
       fy="3.5200000" />
    <linearGradient
       xlink:href="#linearGradient841"
       id="linearGradient1944" />
    <linearGradient
       xlink:href="#linearGradient1696"
       id="linearGradient1674"
       x1="1.7209302"
       y1="2.0546875"
       x2="-0.023255814"
       y2="-0.10156250" />
    <radialGradient
       xlink:href="#linearGradient1675"
       id="radialGradient1679"
       cx="0.53488374"
       cy="0.57812500"
       r="0.55060935"
       fx="0.54263568"
       fy="0.57031250" />
    <linearGradient
       xlink:href="#linearGradient1696"
       id="linearGradient1700"
       x1="-0.72868216"
       y1="1.7265625"
       x2="1.3798449"
       y2="-0.44531250" />
    <linearGradient
       xlink:href="#linearGradient841"
       id="linearGradient1701"
       x1="0.61676645"
       y1="-1.9453125"
       x2="0.64670658"
       y2="0.65625000" />
    <linearGradient
       xlink:href="#linearGradient841"
       id="linearGradient1704"
       x1="0.70854270"
       y1="2.7031250"
       x2="0.62311560"
       y2="0.27343750" />
    <linearGradient
       xlink:href="#linearGradient841"
       id="linearGradient852"
       x1="0.61538464"
       y1="-1.5000000"
       x2="0.65991902"
       y2="0.40625000" />
    <linearGradient
       xlink:href="#linearGradient1507"
       id="linearGradient844" />
    <linearGradient
       xlink:href="#linearGradient841"
       id="linearGradient845" />
    <linearGradient
       xlink:href="#linearGradient853"
       id="linearGradient840" />
    <linearGradient
       xlink:href="#linearGradient846"
       id="linearGradient849" />
  </defs>
  <sodipodi:namedview
     id="base"
     pagecolor="#ffffff"
     bordercolor="#666666"
     borderopacity="1.0"
     inkscape:pageopacity="0.0"
     inkscape:pageshadow="2"
     inkscape:zoom="1.6829931"
     inkscape:cx="78.254605"
     inkscape:cy="65.280249"
     inkscape:window-width="389"
     inkscape:window-height="491"
     inkscape:window-x="79"
     inkscape:window-y="9"
     showguides="true"
     snaptoguides="true"
     showgrid="false"
     snaptogrid="false" />
  <path
     style="fill:#ffffff;fill-rule:evenodd;stroke-width:0.42649043;stroke-opacity:0.36477986;"
     d="M 17.159384,6.3292894 L 17.159384,43.068526 L 17.159384,79.807768 L 17.159384,116.54700 L 17.159384,153.28624 L 50.687024,153.28624 L 84.214664,153.28624 L 117.74230,153.28624 L 151.26994,153.28624 L 151.26994,116.54700 L 151.26994,79.807768 L 151.26994,43.068526 L 117.74230,6.3292894 L 84.214664,6.3292894 L 50.687024,6.3292894 L 17.159384,6.3292894 z "
     id="path930"
     sodipodi:nodetypes="cccccccccccccccc" />
  <g
     id="g1552"
     transform="matrix(0.304171,0.000000,0.000000,0.297572,-36.70399,-112.4880)"
     style="fill:#000000;fill-opacity:0.069182344;">
    <path
       style="fill-opacity:0.069182344;fill-rule:evenodd;stroke-width:0.95407495pt;fill:#000000;"
       d="M 173.35959,408.81260 L 173.35959,531.07360 L 173.35959,653.33460 L 173.35959,775.59560 L 173.35959,897.85660 L 282.12187,897.85660 L 390.88417,897.85660 L 499.64646,897.85660 L 608.40874,897.85660 L 608.40874,775.59560 L 608.40874,653.33460 L 608.40874,531.07360 L 499.64646,408.81260 L 390.88417,408.81260 L 282.12187,408.81260 L 173.35959,408.81260 z "
       id="path1505"
       sodipodi:nodetypes="cccccccccccccccc" />
    <path
       style="fill-opacity:0.069182344;fill-rule:evenodd;stroke-width:0.95407495pt;fill:#000000;"
       d="M 170.12500,407.18750 C 170.12500,571.82292 170.12500,736.45833 170.12500,901.09375 C 317.30208,901.09375 464.47917,901.09375 611.65625,901.09375 C 611.65625,777.33333 611.65625,653.57292 611.65625,529.81250 C 574.80918,488.38978 537.97604,446.95335 501.09375,405.56250 C 390.77083,405.56250 280.44792,405.56250 170.12500,405.56250 C 170.12500,405.89583 170.12500,406.97917 170.12500,407.18750 z "
       id="path1538" />
    <path
       style="fill-opacity:0.069182344;fill-rule:evenodd;stroke-width:0.95407495pt;fill:#000000;"
       d="M 166.87500,403.93750 C 166.87500,570.73958 166.87500,737.54167 166.87500,904.34375 C 316.21875,904.34375 465.56250,904.34375 614.90625,904.34375 C 614.90625,779.08333 614.90625,653.82292 614.90625,528.56250 C 577.45517,486.47298 540.01754,444.37017 502.53125,402.31250 C 390.64583,402.31250 278.76042,402.31250 166.87500,402.31250 C 166.87500,402.64583 166.87500,403.72917 166.87500,403.93750 z "
       id="path1543" />
  </g>
  <path
     style="fill:url(#linearGradient1495);fill-opacity:0.75000000;fill-rule:evenodd;stroke:#000000;stroke-width:1.4375000;stroke-opacity:0.36477986;"
     d="M 297.99034,136.74154 L 297.99034,260.57234 L 297.99034,384.40315 L 297.99034,508.23395 L 297.99034,632.06475 L 410.99634,632.06475 L 524.00235,632.06475 L 637.00835,632.06475 L 750.01435,632.06475 L 750.01435,508.23395 L 750.01435,384.40315 L 750.01435,260.57234 L 637.00835,136.74154 L 524.00235,136.74154 L 410.99634,136.74154 L 297.99034,136.74154 z "
     id="rect900"
     sodipodi:nodetypes="cccccccccccccccc"
     transform="matrix(0.296689,0.000000,0.000000,0.296689,-71.19601,-34.05825)" />
  <path
     style="fill:url(#linearGradient1497);fill-opacity:0.75000000;fill-rule:evenodd;stroke-width:0.95407495pt;"
     d="M 750.01435,260.57234 C 715.94460,250.48602 671.79788,251.91624 638.44792,257.66516 C 644.20618,220.71628 644.92597,174.41021 637.00835,136.74154 L 750.01435,260.57234 z "
     id="path906"
     sodipodi:nodetypes="cccc"
     transform="matrix(0.296689,0.000000,0.000000,0.296689,-71.19601,-34.05825)" />
  <path
     style="fill:url(#linearGradient1499);fill-opacity:0.75000000;fill-rule:evenodd;stroke-width:1.0000000pt;"
     d="M 301.30655,174.90867 L 299.27069,628.90434 L 743.08709,628.90434 L 743.34157,516.67783 C 733.41677,520.49506 633.15091,378.49417 506.92790,384.60173 C 380.59029,390.71484 413.27857,193.23136 301.30655,174.90867 z "
     id="path1500"
     sodipodi:nodetypes="cccczc"
     transform="matrix(0.296689,0.000000,0.000000,0.296689,-71.19601,-34.05825)" />
  <path
     style="fill:url(#linearGradient851);fill-rule:evenodd;stroke-width:1.0000000pt;"
     d="M 61.876264,67.280507 L 61.876264,96.993835 L 41.298414,96.189965 L 82.454113,125.09943 L 123.60981,96.189965 L 103.03197,96.993835 L 103.03197,67.280507 L 61.876264,67.280507 z "
     id="path2842"
     sodipodi:nodetypes="cccccccc" />
  <path
     style="fill:url(#linearGradient858);fill-rule:evenodd;stroke-width:1.0000000pt;"
     d="M 62.401451,58.614948 L 62.401451,92.646590 L 41.823601,91.725891 L 82.979303,124.83684 L 124.13499,91.725891 L 103.55715,92.646590 L 103.55715,58.614948 L 62.401451,58.614948 z "
     id="path2843"
     sodipodi:nodetypes="cccccccc" />
  <path
     style="fill:url(#linearGradient860);fill-rule:evenodd;stroke-width:1.0000000pt;"
     d="M 62.881316,40.297496 L 62.881316,84.315228 L 42.303466,83.124371 L 83.459165,125.95125 L 124.61487,83.124371 L 104.03703,84.315228 L 104.03703,40.297496 L 62.881316,40.297496 z "
     id="path2176"
     sodipodi:nodetypes="cccccccc" />
  <path
     style="fill:url(#linearGradient1704);fill-opacity:0.75000000;fill-rule:evenodd;stroke-width:1.0000000pt;"
     d="M 110.95804,89.161028 C 104.13063,96.956981 91.156222,118.87224 83.521040,118.87224 C 76.463520,118.87224 68.688505,104.30958 58.709982,93.362511 C 48.966286,82.673066 118.01821,81.099295 110.95804,89.161028 z "
     id="path2178"
     sodipodi:nodetypes="czzz" />
  <path
     style="fill:url(#linearGradient1701);fill-opacity:0.75000000;fill-rule:evenodd;stroke-width:1.0000000pt;"
     d="M 131.66468,284.01575 C 131.66468,319.45549 125.24059,327.39251 99.535166,328.55888 C 65.962088,328.55888 64.455277,315.95637 63.471821,284.01575 C 65.438734,267.23798 78.747022,266.29921 97.568253,266.29921 C 116.38948,266.29921 131.66468,264.90523 131.66468,284.01575 z "
     id="path2179"
     sodipodi:nodetypes="ccccc"
     transform="matrix(0.534020,0.000000,0.000000,0.450272,32.04102,-78.04756)" />
</svg>
