<?xml version="1.0" encoding="UTF-8" standalone="no"?>
<!DOCTYPE svg PUBLIC "-//W3C//DTD SVG 20010904//EN"
"http://www.w3.org/TR/2001/REC-SVG-20010904/DTD/svg10.dtd">
<!-- Created with Inkscape (http://www.inkscape.org/) -->
<svg
   id="svg1"
   sodipodi:version="0.32"
   inkscape:version="0.39cvs"
   width="128.00000pt"
   height="128.00000pt"
   sodipodi:docbase="/home/andy/Desktop/etiquette-icons-0.5/scalable/mimetypes"
   sodipodi:docname="gnome-mime-text-x-troff-man.svg"
   xmlns="http://www.w3.org/2000/svg"
   xmlns:inkscape="http://www.inkscape.org/namespaces/inkscape"
   xmlns:sodipodi="http://sodipodi.sourceforge.net/DTD/sodipodi-0.dtd"
   xmlns:xlink="http://www.w3.org/1999/xlink">
  <defs
     id="defs3">
    <linearGradient
       xlink:href="#linearGradient2091"
       id="linearGradient2199"
       x1="0.61654133"
       y1="0.78125000"
       x2="0.60839158"
       y2="1.1015625" />
    <linearGradient
       id="linearGradient2091">
      <stop
         style="stop-color:#ffffff;stop-opacity:0.0000000;"
         offset="0.0000000"
         id="stop2092" />
      <stop
         style="stop-color:#fff;stop-opacity:1;"
         offset="1"
         id="stop2093" />
    </linearGradient>
    <linearGradient
       xlink:href="#linearGradient2091"
       id="linearGradient2096"
       x1="0.66666669"
       y1="0.49218750"
       x2="0.66666669"
       y2="-0.024369005" />
    <linearGradient
       id="linearGradient2232">
      <stop
         style="stop-color:#990000;stop-opacity:1.0000000;"
         offset="0.0000000"
         id="stop2233" />
      <stop
         style="stop-color:#df421e;stop-opacity:1.0000000;"
         offset="1.0000000"
         id="stop2234" />
    </linearGradient>
    <linearGradient
       xlink:href="#linearGradient2232"
       id="linearGradient2231"
       x1="-0.071802214"
       y1="1.3013449"
       x2="0.76065046"
       y2="-0.076789521" />
    <linearGradient
       id="linearGradient2087">
      <stop
         style="stop-color:#b8b8b8;stop-opacity:1.0000000;"
         offset="0.0000000"
         id="stop2088" />
      <stop
         style="stop-color:#fff;stop-opacity:1;"
         offset="1"
         id="stop2089" />
    </linearGradient>
    <linearGradient
       xlink:href="#linearGradient2087"
       id="linearGradient2090"
       x1="-0.17054264"
       y1="-0.093750000"
       x2="1.0542636"
       y2="1.1328125" />
    <linearGradient
       id="linearGradient2196">
      <stop
         style="stop-color:#000000;stop-opacity:0.0000000;"
         offset="0.0000000"
         id="stop2197" />
      <stop
         style="stop-color:#000000;stop-opacity:0.13402061;"
         offset="1.0000000"
         id="stop2198" />
    </linearGradient>
    <linearGradient
       xlink:href="#linearGradient2196"
       id="linearGradient2094"
       x1="0.60465115"
       y1="0.31250000"
       x2="0.68217057"
       y2="2.0625000" />
    <linearGradient
       id="linearGradient1507">
      <stop
         style="stop-color:#000000;stop-opacity:0.095505618;"
         offset="0.0000000"
         id="stop1508" />
      <stop
         style="stop-color:#000000;stop-opacity:0.0000000;"
         offset="1.0000000"
         id="stop1510" />
    </linearGradient>
    <linearGradient
       xlink:href="#linearGradient1507"
       id="linearGradient852" />
    <linearGradient
       xlink:href="#linearGradient1507"
       id="linearGradient844" />
    <linearGradient
       xlink:href="#linearGradient841"
       id="linearGradient845"
       y2="0.50490195"
       x2="0.10833333"
       y1="0.49019608"
       x1="1.3833333" />
    <linearGradient
       xlink:href="#linearGradient853"
       id="linearGradient840"
       y2="0.46568626"
       x2="0.59469700"
       y1="0.38235295"
       x1="-0.22348484" />
    <linearGradient
       xlink:href="#linearGradient846"
       id="linearGradient849"
       x1="0.010563380"
       y1="0.43229166"
       x2="1.2288733"
       y2="0.46354166" />
    <radialGradient
       xlink:href="#linearGradient853"
       id="radialGradient864"
       cx="0.50000000"
       cy="0.50000000"
       r="0.50000000"
       fx="0.50000000"
       fy="0.14942528" />
    <linearGradient
       id="linearGradient841">
      <stop
         style="stop-color:#ffffff;stop-opacity:1.0000000;"
         offset="0.00000000"
         id="stop842" />
      <stop
         style="stop-color:#ffffff;stop-opacity:0.00000000;"
         offset="1.0000000"
         id="stop843" />
    </linearGradient>
    <linearGradient
       id="linearGradient1290">
      <stop
         style="stop-color:#b2a269;stop-opacity:1.0000000;"
         offset="0.0000000"
         id="stop1291" />
      <stop
         style="stop-color:#6d5b18;stop-opacity:1.0000000;"
         offset="1.0000000"
         id="stop1292" />
    </linearGradient>
    <linearGradient
       xlink:href="#linearGradient1290"
       id="linearGradient860"
       x1="0.47535211"
       y1="0.81081080"
       x2="0.50000000"
       y2="-0.74324322" />
    <linearGradient
       xlink:href="#linearGradient846"
       id="linearGradient851"
       x1="0.39788732"
       y1="0.32222223"
       x2="0.80985916"
       y2="0.35555556" />
    <linearGradient
       xlink:href="#linearGradient846"
       id="linearGradient858"
       x1="0.64285713"
       y1="1.2647059"
       x2="0.57142860"
       y2="0.049019609" />
    <linearGradient
       id="linearGradient846">
      <stop
         style="stop-color:#e7e7e7;stop-opacity:1.0000000;"
         offset="0.00000000"
         id="stop847" />
      <stop
         style="stop-color:#a5a5a5;stop-opacity:1.0000000;"
         offset="1.0000000"
         id="stop848" />
    </linearGradient>
    <linearGradient
       xlink:href="#linearGradient846"
       id="linearGradient850" />
    <linearGradient
       xlink:href="#linearGradient853"
       id="linearGradient859"
       x1="1.4647887"
       y1="-1.1486486"
       x2="0.26408452"
       y2="1.2905406" />
    <linearGradient
       id="linearGradient853">
      <stop
         style="stop-color:#000000;stop-opacity:0.29752067;"
         offset="0.00000000"
         id="stop854" />
      <stop
         style="stop-color:#000000;stop-opacity:0.00000000;"
         offset="1.0000000"
         id="stop855" />
    </linearGradient>
    <radialGradient
       xlink:href="#linearGradient853"
       id="radialGradient861"
       cx="0.50000000"
       cy="0.50000000"
       r="0.50000000"
       fx="0.50704223"
       fy="0.29885057" />
    <linearGradient
       id="linearGradient1501">
      <stop
         style="stop-color:#ffffff;stop-opacity:1.0000000;"
         offset="0.0000000"
         id="stop1502" />
      <stop
         style="stop-color:#ffffff;stop-opacity:0.0000000;"
         offset="1.0000000"
         id="stop1504" />
    </linearGradient>
    <linearGradient
       id="linearGradient1492">
      <stop
         style="stop-color:#cbcbcb;stop-opacity:1.0000000;"
         offset="0.0000000"
         id="stop1493" />
      <stop
         style="stop-color:#f0f0f0;stop-opacity:1.0000000;"
         offset="0.34923077"
         id="stop1496" />
      <stop
         style="stop-color:#e2e2e2;stop-opacity:1.0000000;"
         offset="1.0000000"
         id="stop1494" />
    </linearGradient>
    <linearGradient
       xlink:href="#linearGradient1492"
       id="linearGradient1495"
       x1="0.92307693"
       y1="0.16406250"
       x2="0.14529915"
       y2="1.1718750" />
    <linearGradient
       xlink:href="#linearGradient1492"
       id="linearGradient1497"
       x1="0.63247865"
       y1="0.32812500"
       x2="-0.37606838"
       y2="1.3281250" />
    <linearGradient
       xlink:href="#linearGradient1501"
       id="linearGradient1499"
       x1="0.85826772"
       y1="0.14062500"
       x2="0.062992126"
       y2="0.54687500" />
    <linearGradient
       xlink:href="#linearGradient1507"
       id="linearGradient1506"
       x1="0.052173913"
       y1="0.97656250"
       x2="0.78260869"
       y2="0.0078125000" />
    <linearGradient
       xlink:href="#linearGradient1507"
       id="linearGradient1556"
       x1="0.31111112"
       y1="-0.56250000"
       x2="0.62222224"
       y2="0.79687500" />
    <radialGradient
       xlink:href="#linearGradient841"
       id="radialGradient856"
       cx="0.50000000"
       cy="0.89285713"
       r="0.54606670"
       fx="0.54117650"
       fy="3.5200000" />
    <linearGradient
       xlink:href="#linearGradient841"
       id="linearGradient1944" />
  </defs>
  <sodipodi:namedview
     id="base"
     pagecolor="#ffffff"
     bordercolor="#666666"
     borderopacity="1.0"
     inkscape:pageopacity="0.0"
     inkscape:pageshadow="2"
     inkscape:zoom="2.3829472"
     inkscape:cx="64.674784"
     inkscape:cy="60.506966"
     inkscape:window-width="390"
     inkscape:window-height="491"
     inkscape:window-x="354"
     inkscape:window-y="160" />
  <path
     style="fill:#ffffff;fill-rule:evenodd;stroke-width:0.42649043;stroke-opacity:0.36477986;"
     d="M 17.159384,6.3292894 L 17.159384,43.068526 L 17.159384,79.807768 L 17.159384,116.54700 L 17.159384,153.28624 L 50.687024,153.28624 L 84.214664,153.28624 L 117.74230,153.28624 L 151.26994,153.28624 L 151.26994,116.54700 L 151.26994,79.807768 L 151.26994,43.068526 L 117.74230,6.3292894 L 84.214664,6.3292894 L 50.687024,6.3292894 L 17.159384,6.3292894 z "
     id="path930"
     sodipodi:nodetypes="cccccccccccccccc" />
  <g
     id="g1552"
     transform="matrix(0.304171,0.000000,0.000000,0.297572,-36.70399,-112.4880)"
     style="fill:#000000;fill-opacity:0.069182344;">
    <path
       style="fill-opacity:0.069182344;fill-rule:evenodd;stroke-width:0.95407495pt;fill:#000000;"
       d="M 173.35959,408.81260 L 173.35959,531.07360 L 173.35959,653.33460 L 173.35959,775.59560 L 173.35959,897.85660 L 282.12187,897.85660 L 390.88417,897.85660 L 499.64646,897.85660 L 608.40874,897.85660 L 608.40874,775.59560 L 608.40874,653.33460 L 608.40874,531.07360 L 499.64646,408.81260 L 390.88417,408.81260 L 282.12187,408.81260 L 173.35959,408.81260 z "
       id="path1505"
       sodipodi:nodetypes="cccccccccccccccc" />
    <path
       style="fill-opacity:0.069182344;fill-rule:evenodd;stroke-width:0.95407495pt;fill:#000000;"
       d="M 170.12500,407.18750 C 170.12500,571.82292 170.12500,736.45833 170.12500,901.09375 C 317.30208,901.09375 464.47917,901.09375 611.65625,901.09375 C 611.65625,777.33333 611.65625,653.57292 611.65625,529.81250 C 574.80918,488.38978 537.97604,446.95335 501.09375,405.56250 C 390.77083,405.56250 280.44792,405.56250 170.12500,405.56250 C 170.12500,405.89583 170.12500,406.97917 170.12500,407.18750 z "
       id="path1538" />
    <path
       style="fill-opacity:0.069182344;fill-rule:evenodd;stroke-width:0.95407495pt;fill:#000000;"
       d="M 166.87500,403.93750 C 166.87500,570.73958 166.87500,737.54167 166.87500,904.34375 C 316.21875,904.34375 465.56250,904.34375 614.90625,904.34375 C 614.90625,779.08333 614.90625,653.82292 614.90625,528.56250 C 577.45517,486.47298 540.01754,444.37017 502.53125,402.31250 C 390.64583,402.31250 278.76042,402.31250 166.87500,402.31250 C 166.87500,402.64583 166.87500,403.72917 166.87500,403.93750 z "
       id="path1543" />
  </g>
  <path
     style="fill:url(#linearGradient1495);fill-opacity:0.75000000;fill-rule:evenodd;stroke:#000000;stroke-width:1.4375000;stroke-opacity:0.36477986;"
     d="M 297.99034,136.74154 L 297.99034,260.57234 L 297.99034,384.40315 L 297.99034,508.23395 L 297.99034,632.06475 L 410.99634,632.06475 L 524.00235,632.06475 L 637.00835,632.06475 L 750.01435,632.06475 L 750.01435,508.23395 L 750.01435,384.40315 L 750.01435,260.57234 L 637.00835,136.74154 L 524.00235,136.74154 L 410.99634,136.74154 L 297.99034,136.74154 z "
     id="rect900"
     sodipodi:nodetypes="cccccccccccccccc"
     transform="matrix(0.296689,0.000000,0.000000,0.296689,-71.19601,-34.05825)" />
  <path
     style="fill:url(#linearGradient1497);fill-opacity:0.75000000;fill-rule:evenodd;stroke-width:0.95407495pt;"
     d="M 750.01435,260.57234 C 715.94460,250.48602 671.79788,251.91624 638.44792,257.66516 C 644.20618,220.71628 644.92597,174.41021 637.00835,136.74154 L 750.01435,260.57234 z "
     id="path906"
     sodipodi:nodetypes="cccc"
     transform="matrix(0.296689,0.000000,0.000000,0.296689,-71.19601,-34.05825)" />
  <path
     style="fill:url(#linearGradient1499);fill-opacity:0.75000000;fill-rule:evenodd;stroke-width:1.0000000pt;"
     d="M 301.30655,174.90867 L 299.27069,628.90434 L 743.08709,628.90434 L 743.34157,516.67783 C 733.41677,520.49506 633.15091,378.49417 506.92790,384.60173 C 380.59029,390.71484 413.27857,193.23136 301.30655,174.90867 z "
     id="path1500"
     sodipodi:nodetypes="cccczc"
     transform="matrix(0.296689,0.000000,0.000000,0.296689,-71.19601,-34.05825)" />
  <g
     id="g2820"
     transform="matrix(0.811792,0.000000,0.000000,0.811792,17.11623,24.60318)">
    <g
       id="g2191"
       transform="matrix(1.113414,0.000000,0.000000,1.113414,-149.9425,-552.5555)"
       style="fill:url(#linearGradient2094);">
      <path
         style="fill-opacity:0.075471647;fill-rule:evenodd;stroke-width:1.2500000;stroke-opacity:0.075471647;"
         d="M 204.46875,513.68750 C 166.86844,515.46370 138.87780,559.08731 152.92116,594.03655 C 165.40623,627.72216 210.89045,643.49756 241.19234,623.68725 C 270.91429,605.25211 277.85982,559.58262 254.16541,533.60360 C 241.74940,520.08840 222.87018,512.07809 204.46875,513.68750 z M 209.18750,540.96875 C 234.33221,539.76051 251.54132,574.29559 234.61447,593.32688 C 219.48617,612.33340 183.13443,605.86032 177.93355,581.25742 C 173.25225,562.28099 188.76735,539.72101 209.18750,540.96875 z "
         id="path2102" />
      <path
         style="fill-opacity:0.075471647;fill-rule:evenodd;stroke-width:1.2500000;stroke-opacity:0.075471647;"
         d="M 195.65625,513.62500 C 156.69440,521.02579 135.06430,572.31548 157.33967,605.27896 C 175.73648,634.54214 220.37146,643.29553 247.35971,620.82625 C 274.96549,599.01383 277.97629,552.19477 250.87204,528.67568 C 236.28221,515.32776 215.06392,508.83633 195.65625,513.62500 z M 210.31250,542.78125 C 235.51459,542.37632 248.99362,579.13736 229.75408,595.34878 C 215.10428,609.14819 188.34608,602.72917 181.27995,583.89210 C 172.29506,564.43684 189.80844,541.92479 210.31250,542.78125 z "
         id="path2110" />
      <path
         style="fill-opacity:0.075471647;fill-rule:evenodd;stroke-width:1.2500000;stroke-opacity:0.075471647;"
         d="M 201.31250,510.56250 C 162.88914,515.01665 134.83150,560.31578 151.20112,596.20274 C 164.13998,629.06284 207.37990,646.49437 238.51458,628.13541 C 267.82982,612.81836 281.56038,572.56788 264.18167,543.55752 C 251.98206,521.74007 226.45495,507.26278 201.31250,510.56250 z M 209.84375,545.06250 C 233.35588,544.58415 246.58089,579.85189 227.08565,594.05265 C 211.98975,607.16322 183.70951,598.01876 181.74786,577.27312 C 179.04096,560.97912 193.20865,544.38678 209.84375,545.06250 z "
         id="path2123" />
      <path
         style="fill-opacity:0.075471647;fill-rule:evenodd;stroke-width:1.2500000;stroke-opacity:0.075471647;"
         d="M 209.18411,514.64192 C 177.15087,514.64192 150.89530,540.87268 150.89530,572.90592 C 150.89530,604.93916 177.15088,631.19470 209.18411,631.19473 C 241.21735,631.19473 267.47291,604.93916 267.47291,572.90592 C 267.47291,540.87268 241.21734,514.64195 209.18411,514.64192 z M 209.18411,539.75400 C 227.63015,539.75401 242.36084,554.45989 242.36084,572.90592 C 242.36084,591.35195 227.63014,606.08265 209.18411,606.08265 C 190.73807,606.08264 176.00738,591.35195 176.00738,572.90592 C 176.00738,554.45989 190.73808,539.75400 209.18411,539.75400 z "
         id="path2097" />
    </g>
    <path
       style="fill:url(#linearGradient2090);fill-rule:evenodd;stroke:#000000;stroke-width:1.2500000;stroke-opacity:0.075471647;"
       d="M 112.28622,382.26985 C 80.252980,382.26985 53.997416,408.50061 53.997416,440.53385 C 53.997416,472.56709 80.252990,498.82263 112.28622,498.82266 C 144.31946,498.82266 170.57502,472.56709 170.57502,440.53385 C 170.57502,408.50061 144.31945,382.26988 112.28622,382.26985 z M 112.28622,407.38193 C 130.73226,407.38194 145.46295,422.08782 145.46295,440.53385 C 145.46295,458.97988 130.73225,473.71058 112.28622,473.71058 C 93.840181,473.71057 79.109491,458.97988 79.109491,440.53385 C 79.109491,422.08782 93.840190,407.38193 112.28622,407.38193 z "
       id="path1489"
       transform="matrix(1.113414,0.000000,0.000000,1.113414,-42.27188,-408.6169)" />
    <path
       sodipodi:type="arc"
       style="fill:none;fill-rule:evenodd;stroke:url(#linearGradient2231);stroke-width:25.492955;stroke-dasharray:50.985911,25.492955;stroke-dashoffset:0.0000000;stroke-miterlimit:4.0000000;"
       id="path2082"
       sodipodi:cx="302.30905"
       sodipodi:cy="604.65686"
       sodipodi:rx="64.780510"
       sodipodi:ry="64.780510"
       d="M 367.08956 604.65686 A 64.780510 64.780510 0 1 0 237.52854,604.65686 A 64.780510 64.780510 0 1 0 367.08956 604.65686 z"
       transform="matrix(0.660620,-0.508294,0.508294,0.660620,-423.8100,-163.6102)" />
    <path
       style="fill:url(#linearGradient2096);fill-rule:evenodd;stroke-width:31.625000;"
       d="M 83.552486,20.545331 C 54.428159,20.545331 30.556829,42.356154 30.556829,68.991733 C 30.556829,95.627313 54.428167,117.45874 83.552486,117.45877 C 112.67684,117.45877 136.54815,95.627313 136.54815,68.991733 C 136.54815,42.356154 112.67682,20.545353 83.552486,20.545331 z M 83.552486,44.844945 C 100.32347,44.844956 119.65470,61.211625 119.65470,76.549459 C 119.65470,91.887294 100.86330,117.81174 84.092324,117.81174 C 67.321359,117.81172 46.370618,92.247186 46.370618,76.909351 C 46.370618,61.571517 66.781532,44.844945 83.552486,44.844945 z "
       id="path2095"
       sodipodi:nodetypes="cccccccccc" />
    <path
       style="fill:url(#linearGradient2199);fill-rule:evenodd;stroke-width:31.625000;"
       d="M 83.052619,42.062090 C 53.565051,42.062090 29.396005,65.448173 29.396005,94.007495 C 29.396005,122.56682 53.565058,145.97500 83.052619,145.97502 C 112.54020,145.97502 136.70924,122.56682 136.70924,94.007495 C 136.70924,65.448173 112.54019,42.062104 83.052619,42.062090 z M 83.052619,64.450817 C 100.03277,64.450830 113.59283,77.561902 113.59283,94.007495 C 113.59283,110.45310 100.03275,123.58630 83.052619,123.58630 C 66.072485,123.58629 52.512431,110.45310 52.512431,94.007495 C 52.512431,77.561902 66.072497,64.450817 83.052619,64.450817 z "
       id="path2200" />
  </g>
</svg>
