<?xml version="1.0" encoding="UTF-8" standalone="no"?>
<!DOCTYPE svg PUBLIC "-//W3C//DTD SVG 20010904//EN"
"http://www.w3.org/TR/2001/REC-SVG-20010904/DTD/svg10.dtd">
<!-- Created with Inkscape (http://www.inkscape.org/) -->
<svg
   id="svg1"
   sodipodi:version="0.32"
   inkscape:version="0.39cvs"
   width="128.00000pt"
   height="128.00000pt"
   sodipodi:docbase="/home/andy/Desktop/etiquette-icons-0.5/scalable/mimetypes"
   sodipodi:docname="gnome-mime-text-x-readme.svg"
   xmlns="http://www.w3.org/2000/svg"
   xmlns:inkscape="http://www.inkscape.org/namespaces/inkscape"
   xmlns:sodipodi="http://sodipodi.sourceforge.net/DTD/sodipodi-0.dtd"
   xmlns:xlink="http://www.w3.org/1999/xlink">
  <defs
     id="defs3">
    <linearGradient
       id="linearGradient1290">
      <stop
         style="stop-color:#9db8d2;stop-opacity:1.0000000;"
         offset="0.0000000"
         id="stop1291" />
      <stop
         style="stop-color:#314e6c;stop-opacity:1.0000000;"
         offset="1.0000000"
         id="stop1292" />
    </linearGradient>
    <linearGradient
       id="linearGradient1501">
      <stop
         style="stop-color:#ffffff;stop-opacity:1.0000000;"
         offset="0.0000000"
         id="stop1502" />
      <stop
         style="stop-color:#ffffff;stop-opacity:0.0000000;"
         offset="1.0000000"
         id="stop1504" />
    </linearGradient>
    <linearGradient
       id="linearGradient1492">
      <stop
         style="stop-color:#cbcbcb;stop-opacity:1.0000000;"
         offset="0.0000000"
         id="stop1493" />
      <stop
         style="stop-color:#f0f0f0;stop-opacity:1.0000000;"
         offset="0.34923077"
         id="stop1496" />
      <stop
         style="stop-color:#e2e2e2;stop-opacity:1.0000000;"
         offset="1.0000000"
         id="stop1494" />
    </linearGradient>
    <linearGradient
       id="linearGradient853">
      <stop
         style="stop-color:#000000;stop-opacity:0.29752067;"
         offset="0.00000000"
         id="stop854" />
      <stop
         style="stop-color:#000000;stop-opacity:0.00000000;"
         offset="1.0000000"
         id="stop855" />
    </linearGradient>
    <linearGradient
       id="linearGradient841">
      <stop
         style="stop-color:#ffffff;stop-opacity:1.0000000;"
         offset="0.00000000"
         id="stop842" />
      <stop
         style="stop-color:#ffffff;stop-opacity:0.00000000;"
         offset="1.0000000"
         id="stop843" />
    </linearGradient>
    <linearGradient
       id="linearGradient1894">
      <stop
         style="stop-color:#ffffff;stop-opacity:0.0000000;"
         offset="0.0000000"
         id="stop1895" />
      <stop
         style="stop-color:#000000;stop-opacity:0.30693069;"
         offset="1.0000000"
         id="stop1896" />
    </linearGradient>
    <linearGradient
       id="linearGradient1868">
      <stop
         style="stop-color:#ffffff;stop-opacity:0.0000000;"
         offset="0.0000000"
         id="stop1869" />
      <stop
         style="stop-color:#fff;stop-opacity:1;"
         offset="1"
         id="stop1870" />
    </linearGradient>
    <linearGradient
       id="linearGradient1507">
      <stop
         style="stop-color:#000000;stop-opacity:0.095505618;"
         offset="0.0000000"
         id="stop1508" />
      <stop
         style="stop-color:#000000;stop-opacity:0.0000000;"
         offset="1.0000000"
         id="stop1510" />
    </linearGradient>
    <linearGradient
       xlink:href="#linearGradient1868"
       id="linearGradient852"
       x1="0.55038762"
       y1="0.69531250"
       x2="0.55038762"
       y2="1.6250000" />
    <linearGradient
       xlink:href="#linearGradient1868"
       id="linearGradient844"
       x1="0.68421054"
       y1="0.45312500"
       x2="0.63909775"
       y2="-0.51562500" />
    <linearGradient
       xlink:href="#linearGradient841"
       id="linearGradient845"
       x1="1.0740740"
       y1="0.58709675"
       x2="-1.3333334"
       y2="-0.090322584" />
    <linearGradient
       xlink:href="#linearGradient853"
       id="linearGradient840"
       x1="1.6744186"
       y1="1.8828125"
       x2="0.16279070"
       y2="-0.15625000" />
    <linearGradient
       xlink:href="#linearGradient853"
       id="linearGradient849" />
    <radialGradient
       xlink:href="#linearGradient853"
       id="radialGradient864"
       cx="0.50000000"
       cy="0.50000000"
       r="0.50000000"
       fx="0.50000000"
       fy="0.14942528" />
    <linearGradient
       xlink:href="#linearGradient1290"
       id="linearGradient860"
       x1="0.47535211"
       y1="0.81081080"
       x2="0.50000000"
       y2="-0.74324322" />
    <linearGradient
       xlink:href="#linearGradient846"
       id="linearGradient851"
       x1="0.39788732"
       y1="0.32222223"
       x2="0.80985916"
       y2="0.35555556" />
    <linearGradient
       xlink:href="#linearGradient846"
       id="linearGradient858"
       x1="0.64285713"
       y1="1.2647059"
       x2="0.57142860"
       y2="0.049019609" />
    <linearGradient
       id="linearGradient846">
      <stop
         style="stop-color:#e7e7e7;stop-opacity:1.0000000;"
         offset="0.00000000"
         id="stop847" />
      <stop
         style="stop-color:#a5a5a5;stop-opacity:1.0000000;"
         offset="1.0000000"
         id="stop848" />
    </linearGradient>
    <linearGradient
       xlink:href="#linearGradient846"
       id="linearGradient850" />
    <linearGradient
       xlink:href="#linearGradient853"
       id="linearGradient859"
       x1="1.4647887"
       y1="-1.1486486"
       x2="0.26408452"
       y2="1.2905406" />
    <radialGradient
       xlink:href="#linearGradient853"
       id="radialGradient861"
       cx="0.50000000"
       cy="0.50000000"
       r="0.50000000"
       fx="0.50704223"
       fy="0.29885057" />
    <linearGradient
       xlink:href="#linearGradient1492"
       id="linearGradient1495"
       x1="0.92307693"
       y1="0.16406250"
       x2="0.14529915"
       y2="1.1718750" />
    <linearGradient
       xlink:href="#linearGradient1492"
       id="linearGradient1497"
       x1="0.63247865"
       y1="0.32812500"
       x2="-0.37606838"
       y2="1.3281250" />
    <linearGradient
       xlink:href="#linearGradient1501"
       id="linearGradient1499"
       x1="1.1417323"
       y1="-0.16406250"
       x2="0.50393701"
       y2="0.61718750" />
    <linearGradient
       xlink:href="#linearGradient1507"
       id="linearGradient1506"
       x1="0.052173913"
       y1="0.97656250"
       x2="0.78260869"
       y2="0.0078125000" />
    <linearGradient
       xlink:href="#linearGradient1507"
       id="linearGradient1556"
       x1="0.31111112"
       y1="-0.56250000"
       x2="0.62222224"
       y2="0.79687500" />
    <radialGradient
       xlink:href="#linearGradient841"
       id="radialGradient856"
       cx="0.50000000"
       cy="0.89285713"
       r="0.54606670"
       fx="0.54117650"
       fy="3.5200000" />
    <linearGradient
       xlink:href="#linearGradient841"
       id="linearGradient1944" />
    <linearGradient
       xlink:href="#linearGradient1868"
       id="linearGradient1867" />
    <radialGradient
       xlink:href="#linearGradient1290"
       id="radialGradient1887"
       cx="0.50000000"
       cy="0.50000000"
       r="0.60857725"
       fx="0.50387597"
       fy="0.15625000" />
  </defs>
  <sodipodi:namedview
     id="base"
     pagecolor="#ffffff"
     bordercolor="#666666"
     borderopacity="1.0"
     inkscape:pageopacity="0.0"
     inkscape:pageshadow="2"
     inkscape:zoom="1.5840356"
     inkscape:cx="56.278092"
     inkscape:cy="-0.84050535"
     inkscape:window-width="464"
     inkscape:window-height="665"
     inkscape:window-x="132"
     inkscape:window-y="120"
     showgrid="false"
     snaptogrid="false" />
  <path
     style="fill:#ffffff;fill-rule:evenodd;stroke-width:0.42649043;stroke-opacity:0.36477986;"
     d="M 17.159384,6.3292894 L 17.159384,43.068526 L 17.159384,79.807768 L 17.159384,116.54700 L 17.159384,153.28624 L 50.687024,153.28624 L 84.214664,153.28624 L 117.74230,153.28624 L 151.26994,153.28624 L 151.26994,116.54700 L 151.26994,79.807768 L 151.26994,43.068526 L 117.74230,6.3292894 L 84.214664,6.3292894 L 50.687024,6.3292894 L 17.159384,6.3292894 z "
     id="path930"
     sodipodi:nodetypes="cccccccccccccccc" />
  <g
     id="g1552"
     transform="matrix(0.304171,0.000000,0.000000,0.297572,-36.70399,-112.4880)"
     style="fill-opacity:0.069182344;">
    <path
       style="fill-opacity:0.069182344;fill-rule:evenodd;stroke-width:0.95407495pt;fill:#000000;"
       d="M 173.35959,408.81260 L 173.35959,531.07360 L 173.35959,653.33460 L 173.35959,775.59560 L 173.35959,897.85660 L 282.12187,897.85660 L 390.88417,897.85660 L 499.64646,897.85660 L 608.40874,897.85660 L 608.40874,775.59560 L 608.40874,653.33460 L 608.40874,531.07360 L 499.64646,408.81260 L 390.88417,408.81260 L 282.12187,408.81260 L 173.35959,408.81260 z "
       id="path1505"
       sodipodi:nodetypes="cccccccccccccccc" />
    <path
       style="fill-opacity:0.069182344;fill-rule:evenodd;stroke-width:0.95407495pt;fill:#000000;"
       d="M 170.12500,407.18750 C 170.12500,571.82292 170.12500,736.45833 170.12500,901.09375 C 317.30208,901.09375 464.47917,901.09375 611.65625,901.09375 C 611.65625,777.33333 611.65625,653.57292 611.65625,529.81250 C 574.80918,488.38978 537.97604,446.95335 501.09375,405.56250 C 390.77083,405.56250 280.44792,405.56250 170.12500,405.56250 C 170.12500,405.89583 170.12500,406.97917 170.12500,407.18750 z "
       id="path1538" />
    <path
       style="fill-opacity:0.069182344;fill-rule:evenodd;stroke-width:0.95407495pt;fill:#000000;"
       d="M 166.87500,403.93750 C 166.87500,570.73958 166.87500,737.54167 166.87500,904.34375 C 316.21875,904.34375 465.56250,904.34375 614.90625,904.34375 C 614.90625,779.08333 614.90625,653.82292 614.90625,528.56250 C 577.45517,486.47298 540.01754,444.37017 502.53125,402.31250 C 390.64583,402.31250 278.76042,402.31250 166.87500,402.31250 C 166.87500,402.64583 166.87500,403.72917 166.87500,403.93750 z "
       id="path1543" />
  </g>
  <path
     style="fill:url(#linearGradient1495);fill-opacity:0.75000000;fill-rule:evenodd;stroke:#000000;stroke-width:1.4375000;stroke-opacity:0.36477986;"
     d="M 297.99034,136.74154 L 297.99034,260.57234 L 297.99034,384.40315 L 297.99034,508.23395 L 297.99034,632.06475 L 410.99634,632.06475 L 524.00235,632.06475 L 637.00835,632.06475 L 750.01435,632.06475 L 750.01435,508.23395 L 750.01435,384.40315 L 750.01435,260.57234 L 637.00835,136.74154 L 524.00235,136.74154 L 410.99634,136.74154 L 297.99034,136.74154 z "
     id="rect900"
     sodipodi:nodetypes="cccccccccccccccc"
     transform="matrix(0.296689,0.000000,0.000000,0.296689,-71.19601,-34.05825)" />
  <g
     id="g1810"
     transform="matrix(0.713720,0.000000,0.000000,0.713720,23.27373,23.87015)">
    <g
       id="g1806"
       style="fill:url(#linearGradient840);"
       transform="matrix(1.362905,0.000000,0.000000,1.362905,-66.81151,-351.0964)">
      <path
         sodipodi:type="arc"
         style="fill-opacity:0.10691822;fill-rule:evenodd;stroke-width:1.0000000pt;"
         id="path1795"
         sodipodi:cx="81.602463"
         sodipodi:cy="280.17816"
         sodipodi:rx="52.670681"
         sodipodi:ry="52.670681"
         d="M 134.27314 280.17816 A 52.670681 52.670681 0 1 0 28.931782,280.17816 A 52.670681 52.670681 0 1 0 134.27314 280.17816 z"
         transform="matrix(0.788120,0.000000,0.000000,0.788120,49.51840,98.21454)" />
      <path
         sodipodi:type="arc"
         style="fill-opacity:0.10691822;fill-rule:evenodd;stroke-width:1.0000000pt;"
         id="path1804"
         sodipodi:cx="81.602463"
         sodipodi:cy="280.17816"
         sodipodi:rx="52.670681"
         sodipodi:ry="52.670681"
         d="M 134.27314 280.17816 A 52.670681 52.670681 0 1 0 28.931782,280.17816 A 52.670681 52.670681 0 1 0 134.27314 280.17816 z"
         transform="matrix(0.809308,0.000000,0.000000,0.809308,47.78940,92.27811)" />
      <path
         sodipodi:type="arc"
         style="fill-opacity:0.10691822;fill-rule:evenodd;stroke-width:1.0000000pt;"
         id="path1805"
         sodipodi:cx="81.602463"
         sodipodi:cy="280.17816"
         sodipodi:rx="52.670681"
         sodipodi:ry="52.670681"
         d="M 134.27314 280.17816 A 52.670681 52.670681 0 1 0 28.931782,280.17816 A 52.670681 52.670681 0 1 0 134.27314 280.17816 z"
         transform="matrix(0.766932,0.000000,0.000000,0.766932,51.24740,104.1510)" />
    </g>
    <g
       id="g1708"
       transform="matrix(1.077069,0.000000,0.000000,1.077069,-1.683381,-220.0858)">
      <path
         sodipodi:type="arc"
         style="fill:url(#radialGradient1887);fill-rule:evenodd;stroke-width:1.0000000pt;"
         id="path1026"
         sodipodi:cx="81.602463"
         sodipodi:cy="280.17816"
         sodipodi:rx="52.670681"
         sodipodi:ry="52.670681"
         d="M 134.27314 280.17816 A 52.670681 52.670681 0 1 0 28.931782,280.17816 A 52.670681 52.670681 0 1 0 134.27314 280.17816 z" />
      <path
         sodipodi:type="arc"
         style="fill:url(#linearGradient852);fill-rule:evenodd;stroke-width:1.0000000pt;"
         id="path1702"
         sodipodi:cx="81.602463"
         sodipodi:cy="280.17816"
         sodipodi:rx="52.670681"
         sodipodi:ry="52.670681"
         d="M 134.27314 280.17816 A 52.670681 52.670681 0 1 0 28.931782,280.17816 A 52.670681 52.670681 0 1 0 134.27314 280.17816 z"
         transform="matrix(0.835044,0.000000,0.000000,0.835044,13.32559,51.58776)" />
      <path
         sodipodi:type="arc"
         style="fill:url(#linearGradient844);fill-rule:evenodd;stroke-width:1.0000000pt;"
         id="path1703"
         sodipodi:cx="81.602463"
         sodipodi:cy="280.17816"
         sodipodi:rx="52.670681"
         sodipodi:ry="52.670681"
         d="M 134.27314 280.17816 A 52.670681 52.670681 0 1 0 28.931782,280.17816 A 52.670681 52.670681 0 1 0 134.27314 280.17816 z"
         transform="matrix(0.811389,0.000000,0.000000,0.782547,15.53485,51.81968)" />
      <path
         transform="scale(2.854607,2.854607)"
         style="font-size:40.000000;fill:#ffffff;stroke:url(#linearGradient845);stroke-width:1.0000000pt;font-family:Bitstream Charter;"
         d="M 30.949768,89.209826 C 31.029768,88.089826 31.069768,87.329826 31.069768,86.889826 C 31.069768,85.009826 30.309768,84.009826 28.869768,84.009826 C 27.429768,84.009826 26.669768,84.969826 26.669768,86.889826 C 26.669768,87.569826 26.709768,88.329826 26.789768,89.209826 L 27.909768,104.48983 L 29.829768,104.48983 L 30.949768,89.209826 z M 28.869768,107.12983 C 27.629768,107.12983 26.589768,108.12983 26.589768,109.40983 C 26.589768,110.68983 27.629768,111.68983 28.869768,111.68983 C 30.149768,111.68983 31.149768,110.64983 31.149768,109.40983 C 31.149768,108.12983 30.149768,107.12983 28.869768,107.12983 z "
         id="text1704" />
    </g>
  </g>
  <path
     style="fill:url(#linearGradient1499);fill-opacity:0.75000000;fill-rule:evenodd;stroke-width:1.0000000pt;"
     d="M 301.30655,174.90867 L 299.27069,628.90434 L 743.08709,628.90434 L 743.34157,516.67783 C 733.41677,520.49506 633.15091,378.49417 506.92790,384.60173 C 380.59029,390.71484 413.27857,193.23136 301.30655,174.90867 z "
     id="path1500"
     sodipodi:nodetypes="cccczc"
     transform="matrix(0.296689,0.000000,0.000000,0.296689,-71.19601,-34.05825)" />
  <path
     style="fill:url(#linearGradient1497);fill-opacity:0.75000000;fill-rule:evenodd;stroke-width:0.95407495pt;"
     d="M 750.01435,260.57234 C 715.94460,250.48602 671.79788,251.91624 638.44792,257.66516 C 644.20618,220.71628 644.92597,174.41021 637.00835,136.74154 L 750.01435,260.57234 z "
     id="path906"
     sodipodi:nodetypes="cccc"
     transform="matrix(0.296689,0.000000,0.000000,0.296689,-71.19601,-34.05825)" />
</svg>
