<?xml version="1.0" encoding="UTF-8" standalone="no"?>
<!DOCTYPE svg PUBLIC "-//W3C//DTD SVG 20010904//EN"
"http://www.w3.org/TR/2001/REC-SVG-20010904/DTD/svg10.dtd">
<!-- Created with Inkscape (http://www.inkscape.org/) -->
<svg
   id="svg1"
   sodipodi:version="0.32"
   inkscape:version="0.39cvs"
   width="128.00000pt"
   height="128.00000pt"
   sodipodi:docbase="/home/andy/Desktop/etiquette-icons-0.5/scalable/mimetypes"
   sodipodi:docname="gnome-mime-video.svg"
   xmlns="http://www.w3.org/2000/svg"
   xmlns:inkscape="http://www.inkscape.org/namespaces/inkscape"
   xmlns:sodipodi="http://sodipodi.sourceforge.net/DTD/sodipodi-0.dtd"
   xmlns:xlink="http://www.w3.org/1999/xlink">
  <defs
     id="defs3">
    <linearGradient
       id="linearGradient1722">
      <stop
         style="stop-color:#ffffff;stop-opacity:0.0000000;"
         offset="0.0000000"
         id="stop1723" />
      <stop
         style="stop-color:#ffffff;stop-opacity:1.0000000;"
         offset="1.0000000"
         id="stop1724" />
    </linearGradient>
    <linearGradient
       id="linearGradient853">
      <stop
         style="stop-color:#000000;stop-opacity:0.29752067;"
         offset="0.00000000"
         id="stop854" />
      <stop
         style="stop-color:#000000;stop-opacity:0.00000000;"
         offset="1.0000000"
         id="stop855" />
    </linearGradient>
    <linearGradient
       id="linearGradient1910">
      <stop
         style="stop-color:#000000;stop-opacity:1.0000000;"
         offset="0.0000000"
         id="stop1911" />
      <stop
         style="stop-color:#000000;stop-opacity:0.35862070;"
         offset="0.80814433"
         id="stop1912" />
      <stop
         style="stop-color:#000000;stop-opacity:0.0000000;"
         offset="1.0000000"
         id="stop1913" />
    </linearGradient>
    <linearGradient
       id="linearGradient846">
      <stop
         style="stop-color:#e7e7e7;stop-opacity:1.0000000;"
         offset="0.00000000"
         id="stop847" />
      <stop
         style="stop-color:#a5a5a5;stop-opacity:1.0000000;"
         offset="1.0000000"
         id="stop848" />
    </linearGradient>
    <linearGradient
       id="linearGradient1904">
      <stop
         style="stop-color:#ffffff;stop-opacity:0.94482756;"
         offset="0.0000000"
         id="stop1905" />
      <stop
         style="stop-color:#000000;stop-opacity:0.94482756;"
         offset="1.0000000"
         id="stop1906" />
    </linearGradient>
    <linearGradient
       id="linearGradient1492">
      <stop
         style="stop-color:#cbcbcb;stop-opacity:1.0000000;"
         offset="0.0000000"
         id="stop1493" />
      <stop
         style="stop-color:#f0f0f0;stop-opacity:1.0000000;"
         offset="0.34923077"
         id="stop1496" />
      <stop
         style="stop-color:#e2e2e2;stop-opacity:1.0000000;"
         offset="1.0000000"
         id="stop1494" />
    </linearGradient>
    <linearGradient
       id="linearGradient1887">
      <stop
         style="stop-color:#ffffff;stop-opacity:1.0000000;"
         offset="0.0000000"
         id="stop1888" />
      <stop
         style="stop-color:#ffffff;stop-opacity:0.66274512;"
         offset="0.76773196"
         id="stop1890" />
      <stop
         style="stop-color:#ffffff;stop-opacity:0.0000000;"
         offset="1.0000000"
         id="stop1889" />
    </linearGradient>
    <linearGradient
       id="linearGradient1501">
      <stop
         style="stop-color:#ffffff;stop-opacity:1.0000000;"
         offset="0.0000000"
         id="stop1502" />
      <stop
         style="stop-color:#ffffff;stop-opacity:0.0000000;"
         offset="1.0000000"
         id="stop1504" />
    </linearGradient>
    <linearGradient
       xlink:href="#linearGradient1696"
       id="linearGradient1701"
       x1="-1.7829458"
       y1="2.4062500"
       x2="0.78294575"
       y2="-0.070312500" />
    <radialGradient
       xlink:href="#linearGradient1806"
       id="radialGradient1702"
       cx="0.50000000"
       cy="0.50000000"
       r="0.50000000"
       fx="0.50000000"
       fy="0.50000000" />
    <linearGradient
       id="linearGradient1675">
      <stop
         style="stop-color:#e3e3e3;stop-opacity:1.0000000;"
         offset="0.0000000"
         id="stop1676" />
      <stop
         style="stop-color:#a9a9a9;stop-opacity:1.0000000;"
         offset="0.74752575"
         id="stop1677" />
      <stop
         style="stop-color:#414141;stop-opacity:1.0000000;"
         offset="1.0000000"
         id="stop1678" />
    </linearGradient>
    <linearGradient
       id="linearGradient1806">
      <stop
         style="stop-color:#000000;stop-opacity:0.40677965;"
         offset="0.0000000"
         id="stop1807" />
      <stop
         style="stop-color:#000000;stop-opacity:0.073446326;"
         offset="0.64777780"
         id="stop3276" />
      <stop
         style="stop-color:#000000;stop-opacity:0.0000000;"
         offset="1.0000000"
         id="stop1808" />
    </linearGradient>
    <radialGradient
       xlink:href="#linearGradient1806"
       id="radialGradient1505"
       cx="0.49032259"
       cy="0.50649351"
       r="0.46014288"
       fx="0.50977784"
       fy="0.15800871" />
    <linearGradient
       id="linearGradient1696">
      <stop
         style="stop-color:#000000;stop-opacity:1.0000000;"
         offset="0.0000000"
         id="stop1697" />
      <stop
         style="stop-color:#ffffff;stop-opacity:1.0000000;"
         offset="1.0000000"
         id="stop1699" />
    </linearGradient>
    <linearGradient
       xlink:href="#linearGradient1696"
       id="linearGradient1704"
       x1="-0.66666669"
       y1="-0.95312500"
       x2="0.60305345"
       y2="0.83593750" />
    <linearGradient
       id="linearGradient1507">
      <stop
         style="stop-color:#000000;stop-opacity:0.095505618;"
         offset="0.0000000"
         id="stop1508" />
      <stop
         style="stop-color:#000000;stop-opacity:0.0000000;"
         offset="1.0000000"
         id="stop1510" />
    </linearGradient>
    <linearGradient
       xlink:href="#linearGradient1904"
       id="linearGradient852"
       x1="-0.077519380"
       y1="0.062500000"
       x2="1.6201551"
       y2="0.84375000" />
    <linearGradient
       xlink:href="#linearGradient1887"
       id="linearGradient844"
       x1="0.48717949"
       y1="1.3125000"
       x2="0.63247865"
       y2="0.56250000" />
    <linearGradient
       xlink:href="#linearGradient1910"
       id="linearGradient845"
       x1="2.2229300"
       y1="2.5032258"
       x2="0.34394905"
       y2="0.10967742" />
    <linearGradient
       xlink:href="#linearGradient1910"
       id="linearGradient840"
       x1="-0.039215688"
       y1="0.62500000"
       x2="0.45098040"
       y2="0.29687500" />
    <linearGradient
       xlink:href="#linearGradient846"
       id="linearGradient849" />
    <radialGradient
       xlink:href="#linearGradient1887"
       id="radialGradient864"
       cx="0.50000000"
       cy="0.50000000"
       r="0.50000000"
       fx="0.50000000"
       fy="0.50000000" />
    <linearGradient
       id="linearGradient841">
      <stop
         style="stop-color:#ffffff;stop-opacity:1.0000000;"
         offset="0.00000000"
         id="stop842" />
      <stop
         style="stop-color:#ffffff;stop-opacity:0.00000000;"
         offset="1.0000000"
         id="stop843" />
    </linearGradient>
    <linearGradient
       id="linearGradient1290">
      <stop
         style="stop-color:#b2a269;stop-opacity:1.0000000;"
         offset="0.0000000"
         id="stop1291" />
      <stop
         style="stop-color:#6d5b18;stop-opacity:1.0000000;"
         offset="1.0000000"
         id="stop1292" />
    </linearGradient>
    <linearGradient
       xlink:href="#linearGradient1290"
       id="linearGradient860" />
    <linearGradient
       xlink:href="#linearGradient846"
       id="linearGradient851" />
    <linearGradient
       xlink:href="#linearGradient846"
       id="linearGradient858" />
    <linearGradient
       xlink:href="#linearGradient846"
       id="linearGradient850" />
    <linearGradient
       xlink:href="#linearGradient853"
       id="linearGradient859"
       x1="1.4647887"
       y1="-1.1486486"
       x2="0.26408452"
       y2="1.2905406" />
    <radialGradient
       xlink:href="#linearGradient1501"
       id="radialGradient861"
       cx="0.50000000"
       cy="0.50000000"
       r="0.50000000"
       fx="0.50000000"
       fy="0.50000000" />
    <linearGradient
       xlink:href="#linearGradient1492"
       id="linearGradient1495"
       x1="0.92307693"
       y1="0.16406250"
       x2="0.14529915"
       y2="1.1718750" />
    <linearGradient
       xlink:href="#linearGradient1492"
       id="linearGradient1497"
       x1="0.63247865"
       y1="0.32812500"
       x2="-0.37606838"
       y2="1.3281250" />
    <linearGradient
       xlink:href="#linearGradient1501"
       id="linearGradient1499"
       x1="0.85826772"
       y1="0.14062500"
       x2="0.062992126"
       y2="0.54687500" />
    <linearGradient
       xlink:href="#linearGradient1507"
       id="linearGradient1506"
       x1="0.052173913"
       y1="0.97656250"
       x2="0.78260869"
       y2="0.0078125000" />
    <linearGradient
       xlink:href="#linearGradient1507"
       id="linearGradient1556"
       x1="0.31111112"
       y1="-0.56250000"
       x2="0.62222224"
       y2="0.79687500" />
    <radialGradient
       xlink:href="#linearGradient1910"
       id="radialGradient856"
       r="0.46014288"
       fy="0.50000000"
       fx="0.50980395"
       cy="0.50000000"
       cx="0.50980395" />
    <linearGradient
       xlink:href="#linearGradient841"
       id="linearGradient1944" />
    <linearGradient
       xlink:href="#linearGradient846"
       id="linearGradient1674"
       x1="0.21705426"
       y1="0.10156250"
       x2="0.70542634"
       y2="0.83593750" />
    <radialGradient
       xlink:href="#linearGradient1675"
       id="radialGradient1679"
       cx="0.58914727"
       cy="0.60156250"
       r="0.65135020"
       fx="0.59689921"
       fy="0.59375000" />
    <linearGradient
       xlink:href="#linearGradient1696"
       id="linearGradient1700"
       x1="-0.72868216"
       y1="1.7265625"
       x2="1.3798449"
       y2="-0.44531250" />
    <linearGradient
       xlink:href="#linearGradient1722"
       id="linearGradient1706"
       x1="1.3647059"
       y1="2.2333333"
       x2="0.36470589"
       y2="-0.025000000" />
    <linearGradient
       xlink:href="#linearGradient1722"
       id="linearGradient1711"
       x1="0.51054853"
       y1="0.60937500"
       x2="0.44303799"
       y2="0.29687500" />
  </defs>
  <sodipodi:namedview
     id="base"
     pagecolor="#ffffff"
     bordercolor="#666666"
     borderopacity="1.0"
     inkscape:pageopacity="0.0"
     inkscape:pageshadow="2"
     inkscape:zoom="2.1395843"
     inkscape:cx="71.245366"
     inkscape:cy="64.558329"
     inkscape:window-width="296"
     inkscape:window-height="491"
     inkscape:window-x="78"
     inkscape:window-y="9"
     showguides="true"
     snaptoguides="true" />
  <path
     style="fill:#ffffff;fill-rule:evenodd;stroke-width:0.42649043;stroke-opacity:0.36477986;"
     d="M 17.159384,6.3292894 L 17.159384,43.068526 L 17.159384,79.807768 L 17.159384,116.54700 L 17.159384,153.28624 L 50.687024,153.28624 L 84.214664,153.28624 L 117.74230,153.28624 L 151.26994,153.28624 L 151.26994,116.54700 L 151.26994,79.807768 L 151.26994,43.068526 L 117.74230,6.3292894 L 84.214664,6.3292894 L 50.687024,6.3292894 L 17.159384,6.3292894 z "
     id="path930"
     sodipodi:nodetypes="cccccccccccccccc" />
  <g
     id="g1552"
     transform="matrix(0.304171,0.000000,0.000000,0.297572,-36.70399,-112.4880)"
     style="fill:#000000;fill-opacity:0.069182344;">
    <path
       style="fill-opacity:0.069182344;fill-rule:evenodd;stroke-width:0.95407495pt;fill:#000000;"
       d="M 173.35959,408.81260 L 173.35959,531.07360 L 173.35959,653.33460 L 173.35959,775.59560 L 173.35959,897.85660 L 282.12187,897.85660 L 390.88417,897.85660 L 499.64646,897.85660 L 608.40874,897.85660 L 608.40874,775.59560 L 608.40874,653.33460 L 608.40874,531.07360 L 499.64646,408.81260 L 390.88417,408.81260 L 282.12187,408.81260 L 173.35959,408.81260 z "
       id="path1505"
       sodipodi:nodetypes="cccccccccccccccc" />
    <path
       style="fill-opacity:0.069182344;fill-rule:evenodd;stroke-width:0.95407495pt;fill:#000000;"
       d="M 170.12500,407.18750 C 170.12500,571.82292 170.12500,736.45833 170.12500,901.09375 C 317.30208,901.09375 464.47917,901.09375 611.65625,901.09375 C 611.65625,777.33333 611.65625,653.57292 611.65625,529.81250 C 574.80918,488.38978 537.97604,446.95335 501.09375,405.56250 C 390.77083,405.56250 280.44792,405.56250 170.12500,405.56250 C 170.12500,405.89583 170.12500,406.97917 170.12500,407.18750 z "
       id="path1538" />
    <path
       style="fill-opacity:0.069182344;fill-rule:evenodd;stroke-width:0.95407495pt;fill:#000000;"
       d="M 166.87500,403.93750 C 166.87500,570.73958 166.87500,737.54167 166.87500,904.34375 C 316.21875,904.34375 465.56250,904.34375 614.90625,904.34375 C 614.90625,779.08333 614.90625,653.82292 614.90625,528.56250 C 577.45517,486.47298 540.01754,444.37017 502.53125,402.31250 C 390.64583,402.31250 278.76042,402.31250 166.87500,402.31250 C 166.87500,402.64583 166.87500,403.72917 166.87500,403.93750 z "
       id="path1543" />
  </g>
  <path
     style="fill:url(#linearGradient1495);fill-opacity:0.75000000;fill-rule:evenodd;stroke:#000000;stroke-width:1.4375000;stroke-opacity:0.36477986;"
     d="M 297.99034,136.74154 L 297.99034,260.57234 L 297.99034,384.40315 L 297.99034,508.23395 L 297.99034,632.06475 L 410.99634,632.06475 L 524.00235,632.06475 L 637.00835,632.06475 L 750.01435,632.06475 L 750.01435,508.23395 L 750.01435,384.40315 L 750.01435,260.57234 L 637.00835,136.74154 L 524.00235,136.74154 L 410.99634,136.74154 L 297.99034,136.74154 z "
     id="rect900"
     sodipodi:nodetypes="cccccccccccccccc"
     transform="matrix(0.296689,0.000000,0.000000,0.296689,-71.19601,-34.05825)" />
  <path
     style="fill-opacity:1.0000000;fill-rule:evenodd;stroke-width:0.94098825pt;fill:#000000;"
     d="M 17.750000,6.3125000 L 17.750000,152.65625 L 41.000000,152.65625 L 41.000000,6.3125000 L 17.750000,6.3125000 z M 21.531250,9.8437500 L 37.812500,9.8437500 L 37.812500,22.937500 L 21.531250,22.937500 L 21.531250,9.8437500 z M 21.250000,28.062500 L 37.500000,28.062500 L 37.500000,41.187500 L 21.250000,41.187500 L 21.250000,28.062500 z M 126.86244,38.281250 L 126.86244,153.18750 L 150.34375,153.18750 L 150.34375,41.937500 L 126.86244,38.281250 z M 131.45619,48.375000 L 146.43750,48.375000 L 146.43750,61.500000 L 131.45619,61.500000 L 131.45619,48.375000 z M 21.250000,49.062500 L 37.500000,49.062500 L 37.500000,62.156250 L 21.250000,62.156250 L 21.250000,49.062500 z M 131.45619,67.281250 L 146.43750,67.281250 L 146.43750,80.375000 L 131.45619,80.375000 L 131.45619,67.281250 z M 21.250000,67.937500 L 37.500000,67.937500 L 37.500000,81.062500 L 21.250000,81.062500 L 21.250000,67.937500 z M 131.45619,86.687500 L 146.43750,86.687500 L 146.43750,99.781250 L 131.45619,99.781250 L 131.45619,86.687500 z M 21.250000,87.343750 L 37.500000,87.343750 L 37.500000,100.46875 L 21.250000,100.46875 L 21.250000,87.343750 z M 131.45619,104.50000 L 146.43750,104.50000 L 146.43750,117.62500 L 131.45619,117.62500 L 131.45619,104.50000 z M 21.250000,105.18750 L 37.500000,105.18750 L 37.500000,118.31250 L 21.250000,118.31250 L 21.250000,105.18750 z M 131.45619,122.87500 L 146.43750,122.87500 L 146.43750,136.00000 L 131.45619,136.00000 L 131.45619,122.87500 z M 21.250000,124.06250 L 37.500000,124.06250 L 37.500000,137.18750 L 21.250000,137.18750 L 21.250000,124.06250 z M 131.45619,141.00000 L 146.43750,141.00000 L 146.43750,149.31250 L 131.45619,149.31250 L 131.45619,141.00000 z M 21.250000,141.68750 L 37.500000,141.68750 L 37.500000,150.00000 L 21.250000,150.00000 L 21.250000,141.68750 z "
     id="rect1783"
     sodipodi:nodetypes="cccccccccccccccccccccccccccccccccccccccccccccccccccccccccccccccccccccccccccccccc" />
  <path
     sodipodi:type="arc"
     style="fill:url(#radialGradient1505);fill-opacity:0.75000000;fill-rule:evenodd;stroke-width:1.0000000pt;"
     id="path1809"
     sodipodi:cx="25.912205"
     sodipodi:cy="175.83524"
     sodipodi:rx="56.143108"
     sodipodi:ry="56.143108"
     d="M 82.055313 175.83524 A 56.143108 56.143108 0 1 0 -30.230904,175.83524 A 56.143108 56.143108 0 1 0 82.055313 175.83524 z"
     transform="matrix(0.643618,0.000000,0.000000,0.164793,71.38572,90.47141)" />
  <path
     sodipodi:type="arc"
     style="fill:url(#radialGradient864);fill-opacity:0.75000000;fill-rule:evenodd;stroke-width:1.0000000pt;"
     id="path1886"
     sodipodi:cx="83.827988"
     sodipodi:cy="70.979126"
     sodipodi:rx="43.026752"
     sodipodi:ry="43.026752"
     d="M 126.85474 70.979126 A 43.026752 43.026752 0 1 0 40.801235,70.979126 A 43.026752 43.026752 0 1 0 126.85474 70.979126 z"
     transform="matrix(0.677613,0.000000,0.000000,0.677613,24.35661,34.36982)" />
  <path
     style="fill:#ffffff;fill-rule:evenodd;stroke-width:2.5000000;"
     d="M 82.057577,51.541952 C 64.426090,51.541951 50.113080,65.854961 50.113080,83.486447 C 50.113080,101.11794 64.426090,115.43094 82.057577,115.43094 C 99.689068,115.43094 114.00208,101.11794 114.00208,83.486447 C 114.00208,65.854961 99.689068,51.541952 82.057577,51.541952 z M 87.853780,55.217238 C 91.850940,55.217238 95.102662,58.454435 95.102662,62.451599 C 95.102662,66.448763 91.850940,69.700487 87.853780,69.700487 C 83.856613,69.700487 80.619422,66.448762 80.619422,62.451599 C 80.619422,58.454435 83.856613,55.217238 87.853780,55.217238 z M 66.310494,60.737433 C 70.307656,60.737433 73.544855,63.974631 73.544855,67.971794 C 73.544855,71.968958 70.307656,75.220681 66.310494,75.220680 C 62.313330,75.220680 59.061604,71.968957 59.061605,67.971794 C 59.061605,63.974631 62.313330,60.737433 66.310494,60.737433 z M 102.68567,70.731891 C 106.68283,70.731891 109.92004,73.983616 109.92003,77.980779 C 109.92003,81.977941 106.68282,85.215141 102.68567,85.215139 C 98.688508,85.215139 95.436785,81.977942 95.436785,77.980779 C 95.436785,73.983614 98.688508,70.731891 102.68567,70.731891 z M 80.866371,76.164924 C 81.913251,76.164924 82.769389,77.006537 82.769389,78.053412 C 82.769389,79.100289 81.913251,79.956427 80.866371,79.956428 C 79.819500,79.956428 78.977884,79.100290 78.977884,78.053412 C 78.977884,77.006536 79.819500,76.164924 80.866371,76.164924 z M 86.560895,77.283490 C 87.607767,77.283490 88.463905,78.139629 88.463905,79.186505 C 88.463905,80.233381 87.607767,81.074994 86.560895,81.074994 C 85.514016,81.074994 84.672407,80.233381 84.672407,79.186505 C 84.672407,78.139629 85.514016,77.283489 86.560895,77.283490 z M 76.479271,80.392231 C 77.526150,80.392231 78.367759,81.233844 78.367759,82.280718 C 78.367759,83.327596 77.526150,84.183734 76.479271,84.183735 C 75.432399,84.183735 74.576261,83.327599 74.576261,82.280718 C 74.576261,81.233843 75.432399,80.392231 76.479271,80.392231 z M 60.441654,81.772281 C 64.438818,81.772281 67.690542,85.009478 67.690541,89.006640 C 67.690541,93.003805 64.438818,96.255527 60.441654,96.255527 C 56.444491,96.255527 53.207294,93.003805 53.207294,89.006640 C 53.207294,85.009478 56.444491,81.772280 60.441654,81.772281 z M 88.463905,83.399284 C 89.510777,83.399284 90.352393,84.255425 90.352393,85.302300 C 90.352393,86.349176 89.510777,87.190787 88.463905,87.190788 C 87.417034,87.190788 86.560895,86.349178 86.560895,85.302300 C 86.560895,84.255423 87.417034,83.399284 88.463905,83.399284 z M 78.280601,86.072222 C 79.327473,86.072222 80.183611,86.928359 80.183611,87.975236 C 80.183611,89.022111 79.327481,89.863725 78.280601,89.863724 C 77.233722,89.863724 76.392113,89.022111 76.392113,87.975236 C 76.392113,86.928359 77.233722,86.072222 78.280601,86.072222 z M 84.323762,87.800914 C 85.370634,87.800914 86.212250,88.657054 86.212250,89.703929 C 86.212250,90.750804 85.370634,91.592414 84.323762,91.592417 C 83.276883,91.592417 82.420744,90.750805 82.420744,89.703929 C 82.420744,88.657052 83.276883,87.800913 84.323762,87.800914 z M 97.688448,91.941059 C 101.68562,91.941059 104.92281,95.178255 104.92281,99.175426 C 104.92281,103.17259 101.68562,106.42432 97.688448,106.42432 C 93.691280,106.42432 90.439558,103.17259 90.439558,99.175426 C 90.439558,95.178255 93.691280,91.941061 97.688448,91.941059 z M 76.987716,97.112610 C 80.984875,97.112610 84.236597,100.34981 84.236597,104.34698 C 84.236597,108.34414 80.984875,111.59587 76.987716,111.59587 C 72.990549,111.59587 69.753351,108.34414 69.753351,104.34698 C 69.753351,100.34981 72.990549,97.112610 76.987716,97.112610 z "
     id="path1903" />
  <path
     style="fill:#565248;fill-rule:evenodd;stroke-width:1.0000000pt;"
     d="M 81.342431,61.432282 C 69.338955,61.432282 59.591282,71.179953 59.591282,83.183432 C 59.591282,95.186910 69.338954,104.93458 81.342431,104.93458 C 93.345908,104.93458 103.07919,95.186910 103.07919,83.183432 C 103.07920,71.179954 93.345908,61.432282 81.342431,61.432282 z M 80.147629,75.870668 C 81.185018,75.870668 82.033398,76.704656 82.033400,77.742045 C 82.033400,78.779434 81.185017,79.627814 80.147629,79.627816 C 79.110239,79.627816 78.276253,78.779434 78.276252,77.742045 C 78.276252,76.704656 79.110237,75.870669 80.147629,75.870668 z M 85.790548,76.979099 C 86.827937,76.979099 87.676319,77.827478 87.676319,78.864872 C 87.676319,79.902261 86.827936,80.736247 85.790548,80.736247 C 84.753158,80.736247 83.919170,79.902259 83.919171,78.864872 C 83.919171,77.827481 84.753156,76.979097 85.790548,76.979099 z M 75.800277,80.059672 C 76.837669,80.059672 77.671655,80.893658 77.671654,81.931049 C 77.671654,82.968440 76.837669,83.816818 75.800277,83.816819 C 74.762887,83.816819 73.914510,82.968440 73.914507,81.931049 C 73.914507,80.893657 74.762887,80.059672 75.800277,80.059672 z M 87.676319,83.039479 C 88.713709,83.039479 89.547695,83.887860 89.547695,84.925250 C 89.547695,85.962641 88.713709,86.796625 87.676319,86.796627 C 86.638929,86.796627 85.790546,85.962641 85.790548,84.925250 C 85.790548,83.887859 86.638928,83.039478 87.676319,83.039479 z M 77.585283,85.688195 C 78.622674,85.688195 79.471053,86.536575 79.471054,87.573967 C 79.471054,88.611358 78.622677,89.445344 77.585283,89.445344 C 76.547892,89.445344 75.713909,88.611356 75.713907,87.573967 C 75.713907,86.536576 76.547894,85.688194 77.585283,85.688195 z M 83.573686,87.401225 C 84.611076,87.401225 85.445061,88.249606 85.445063,89.286998 C 85.445063,90.324386 84.611074,91.158368 83.573686,91.158374 C 82.536296,91.158374 81.687913,90.324386 81.687915,89.286998 C 81.687915,88.249606 82.536295,87.401223 83.573686,87.401225 z "
     id="path910" />
  <path
     style="fill:url(#linearGradient1704);fill-opacity:0.75000000;fill-rule:evenodd;stroke-width:2.5000000;"
     d="M 82.109840,52.713858 C 64.638114,52.713858 50.454793,66.608111 50.454793,83.723749 C 50.454793,100.83938 64.638114,114.73364 82.109840,114.73364 C 99.581568,114.73364 113.76488,100.83938 113.76488,83.723749 C 113.76488,66.608112 99.581568,52.713858 82.109840,52.713858 z M 87.853524,56.281617 C 91.814471,56.281617 95.036738,59.424101 95.036738,63.304321 C 95.036738,67.184539 91.814467,70.341126 87.853524,70.341126 C 83.892581,70.341126 80.684717,67.184537 80.684715,63.304321 C 80.684715,59.424102 83.892579,56.281617 87.853524,56.281617 z M 66.505443,61.640307 C 70.466388,61.640307 73.674252,64.782792 73.674252,68.663011 C 73.674252,72.543229 70.466389,75.699817 66.505443,75.699816 C 62.544498,75.699816 59.322237,72.543229 59.322237,68.663011 C 59.322237,64.782792 62.544498,61.640306 66.505443,61.640307 z M 102.55103,71.342355 C 106.51197,71.342355 109.71984,74.498944 109.71984,78.379163 C 109.71984,82.259380 106.51197,85.401868 102.55103,85.401867 C 98.590068,85.401867 95.367825,82.259380 95.367825,78.379163 C 95.367825,74.498943 98.590068,71.342355 102.55103,71.342355 z M 80.929434,76.616436 C 81.966825,76.616436 82.815205,77.433425 82.815206,78.449671 C 82.815206,79.465917 81.966826,80.297007 80.929434,80.297008 C 79.892044,80.297008 79.058057,79.465919 79.058057,78.449671 C 79.058057,77.433422 79.892045,76.616435 80.929434,76.616436 z M 86.572353,77.702274 C 87.609741,77.702274 88.458123,78.533366 88.458123,79.549612 C 88.458123,80.565859 87.609741,81.382849 86.572353,81.382848 C 85.534963,81.382848 84.700977,80.565859 84.700977,79.549612 C 84.700977,78.533366 85.534963,77.702273 86.572353,77.702274 z M 76.582084,80.720062 C 77.619474,80.720062 78.453460,81.537053 78.453460,82.553299 C 78.453460,83.569546 77.619472,84.400637 76.582084,84.400638 C 75.544693,84.400638 74.696313,83.569548 74.696311,82.553299 C 74.696311,81.537052 75.544691,80.720063 76.582084,80.720062 z M 60.689780,82.059735 C 64.650726,82.059735 67.872988,85.202223 67.872987,89.082440 C 67.872987,92.962659 64.650726,96.119239 60.689780,96.119239 C 56.728836,96.119239 53.520971,92.962659 53.520971,89.082440 C 53.520971,85.202223 56.728836,82.059735 60.689780,82.059735 z M 88.458123,83.639140 C 89.495513,83.639140 90.329499,84.470231 90.329499,85.486476 C 90.329499,86.502725 89.495513,87.319711 88.458123,87.319712 C 87.420734,87.319712 86.572353,86.502727 86.572353,85.486476 C 86.572353,84.470229 87.420734,83.639140 88.458123,83.639140 z M 78.367089,86.233873 C 79.404479,86.233873 80.252859,87.064963 80.252860,88.081210 C 80.252860,89.097460 79.404480,89.914448 78.367089,89.914447 C 77.329699,89.914447 76.495711,89.097459 76.495711,88.081210 C 76.495711,87.064963 77.329699,86.233872 78.367089,86.233873 z M 84.355492,87.911989 C 85.392881,87.911989 86.226868,88.743080 86.226868,89.759327 C 86.226868,90.775577 85.392881,91.592562 84.355492,91.592562 C 83.318101,91.592562 82.469719,90.775577 82.469720,89.759327 C 82.469720,88.743079 83.318101,87.911989 84.355492,87.911989 z M 97.599082,91.931004 C 101.56003,91.931004 104.76788,95.073486 104.76788,98.953705 C 104.76788,102.83393 101.56003,105.99050 97.599082,105.99050 C 93.638132,105.99050 90.415871,102.83392 90.415871,98.953705 C 90.415871,95.073486 93.638132,91.931008 97.599082,91.931004 z M 77.085915,96.951249 C 81.046860,96.951249 84.269118,100.09373 84.269120,103.97395 C 84.269120,107.85418 81.046861,111.01077 77.085915,111.01076 C 73.124970,111.01076 69.917106,107.85417 69.917106,103.97395 C 69.917106,100.09373 73.124971,96.951249 77.085915,96.951249 z "
     id="path1705" />
  <path
     style="fill:url(#linearGradient852);fill-rule:evenodd;stroke:url(#linearGradient845);stroke-width:0.97543842;"
     d="M 81.848964,51.528385 C 64.097661,51.528384 49.687383,65.938661 49.687383,83.689965 C 49.687383,101.44127 64.097661,115.85155 81.848964,115.85155 C 99.600268,115.85155 114.01055,101.44127 114.01055,83.689965 C 114.01055,65.938661 99.600268,51.528385 81.848964,51.528385 z M 87.684558,55.228647 C 91.708885,55.228647 94.982705,58.487843 94.982705,62.512171 C 94.982705,66.536498 91.708881,69.810319 87.684558,69.810319 C 83.660231,69.810319 80.401036,66.536498 80.401034,62.512171 C 80.401034,58.487844 83.660230,55.228647 87.684558,55.228647 z M 65.994871,60.786356 C 70.019196,60.786356 73.278393,64.045553 73.278394,68.069879 C 73.278394,72.094207 70.019196,75.368027 65.994871,75.368027 C 61.970543,75.368027 58.696720,72.094206 58.696721,68.069879 C 58.696721,64.045553 61.970543,60.786355 65.994871,60.786356 z M 102.61724,70.848734 C 106.64156,70.848734 109.90077,74.122556 109.90077,78.146883 C 109.90077,82.171208 106.64155,85.430407 102.61724,85.430406 C 98.592918,85.430406 95.319092,82.171209 95.319092,78.146883 C 95.319092,74.122554 98.592918,70.848734 102.61724,70.848734 z M 80.649670,76.318687 C 81.703658,76.318687 82.565613,77.166020 82.565616,78.220009 C 82.565616,79.274000 81.703660,80.135957 80.649670,80.135958 C 79.595679,80.135958 78.748347,79.274001 78.748348,78.220009 C 78.748348,77.166019 79.595680,76.318687 80.649670,76.318687 z M 86.382885,77.444855 C 87.436874,77.444855 88.298831,78.306812 88.298831,79.360803 C 88.298831,80.414793 87.436873,81.262126 86.382885,81.262125 C 85.328894,81.262125 84.481564,80.414793 84.481563,79.360803 C 84.481563,78.306812 85.328893,77.444854 86.382885,77.444855 z M 76.232753,80.574723 C 77.286745,80.574723 78.134073,81.422055 78.134074,82.476043 C 78.134074,83.530036 77.286743,84.391992 76.232753,84.391992 C 75.178764,84.391992 74.316808,83.530038 74.316807,82.476043 C 74.316807,81.422054 75.178762,80.574723 76.232753,80.574723 z M 60.086148,81.964150 C 64.110475,81.964150 67.384297,85.223347 67.384296,89.247673 C 67.384296,93.272001 64.110475,96.545821 60.086148,96.545821 C 56.061821,96.545821 52.802626,93.272001 52.802626,89.247673 C 52.802626,85.223347 56.061821,81.964150 60.086148,81.964150 z M 88.298831,83.602210 C 89.352820,83.602210 90.200152,84.464169 90.200152,85.518159 C 90.200152,86.572149 89.352820,87.419480 88.298831,87.419481 C 87.244841,87.419481 86.382885,86.572150 86.382885,85.518159 C 86.382885,84.464168 87.244841,83.602210 88.298831,83.602210 z M 78.046321,86.293313 C 79.100312,86.293313 79.962267,87.155268 79.962268,88.209259 C 79.962268,89.263249 79.100314,90.110582 78.046321,90.110580 C 76.992332,90.110580 76.144999,89.263249 76.144999,88.209259 C 76.144999,87.155268 76.992332,86.293313 78.046321,86.293313 z M 84.130549,88.033753 C 85.184541,88.033753 86.031871,88.895711 86.031870,89.949699 C 86.031870,91.003690 85.184541,91.851019 84.130549,91.851021 C 83.076560,91.851021 82.214602,91.003690 82.214603,89.949699 C 82.214603,88.895709 83.076560,88.033752 84.130549,88.033753 z M 97.586058,92.202034 C 101.61039,92.202034 104.86958,95.461229 104.86958,99.485561 C 104.86958,103.50989 101.61039,106.78372 97.586058,106.78372 C 93.561726,106.78372 90.287906,103.50989 90.287906,99.485561 C 90.287906,95.461229 93.561731,92.202035 97.586058,92.202034 z M 76.744649,97.408728 C 80.768976,97.408728 84.042794,100.66792 84.042796,104.69226 C 84.042796,108.71658 80.768977,111.99041 76.744649,111.99040 C 72.720320,111.99040 69.461125,108.71657 69.461125,104.69226 C 69.461125,100.66792 72.720321,97.408728 76.744649,97.408728 z "
     id="path909" />
  <path
     style="fill:url(#radialGradient861);fill-rule:evenodd;stroke-width:1.0000000pt;"
     d="M 74.752749,56.424582 C 74.090888,56.594238 76.020222,66.887684 77.323431,74.723412 C 78.514504,74.129347 79.841730,73.755951 81.262378,73.755951 C 81.281151,73.755951 81.298914,73.755833 81.317661,73.755951 C 78.688135,66.255617 75.416104,56.254543 74.752749,56.424582 z M 100.62542,63.666717 C 100.14468,63.175416 92.106838,70.086532 85.961473,75.138038 C 87.141108,75.879178 88.115974,76.888019 88.836213,78.081882 C 94.020103,72.047775 101.10615,64.158017 100.62542,63.666717 z M 56.274248,75.110394 C 55.834784,75.092115 55.568874,75.123940 55.541742,75.220962 C 55.359771,75.871719 65.014934,79.273095 72.430843,82.048472 C 72.526073,80.629645 72.948347,79.309944 73.633258,78.150987 C 66.998769,76.895965 58.795709,75.215279 56.274248,75.110394 z M 90.121554,82.753335 C 90.103456,84.188254 89.721487,85.525699 89.098809,86.719924 C 96.900379,88.193342 107.10341,90.348211 107.28708,89.691410 C 107.47136,89.032385 97.561742,85.544412 90.121554,82.753335 z M 73.674721,87.203654 C 68.513589,93.195418 61.746520,100.76461 62.217222,101.24565 C 62.687530,101.72630 70.379758,95.134603 76.480357,90.106036 C 75.328967,89.368786 74.381807,88.375720 73.674721,87.203654 z M 85.546845,90.368633 C 84.379767,91.017716 83.063379,91.411972 81.649361,91.474302 C 84.261328,98.946081 87.436133,108.64155 88.089888,108.47396 C 88.746382,108.30569 86.851053,98.185949 85.546845,90.368633 z "
     id="polygon1708" />
  <path
     style="fill:url(#radialGradient1679);fill-opacity:0.75000000;fill-rule:evenodd;stroke-width:1.0000000pt;"
     d="M 81.587148,73.754575 C 76.385643,73.754576 72.158292,77.981925 72.158292,83.183432 C 72.158293,88.384939 76.385642,92.612287 81.587148,92.612287 C 86.788656,92.612288 91.001610,88.384938 91.001610,83.183432 C 91.001610,77.981926 86.788655,73.754575 81.587148,73.754575 z M 80.147629,75.870668 C 81.185020,75.870668 82.033397,76.704656 82.033400,77.742045 C 82.033400,78.779434 81.185020,79.627815 80.147629,79.627816 C 79.110238,79.627816 78.276251,78.779436 78.276252,77.742045 C 78.276252,76.704656 79.110237,75.870668 80.147629,75.870668 z M 85.790548,76.979099 C 86.827938,76.979099 87.676319,77.827481 87.676319,78.864872 C 87.676319,79.902261 86.827936,80.736247 85.790548,80.736247 C 84.753157,80.736247 83.919171,79.902260 83.919171,78.864872 C 83.919171,77.827481 84.753154,76.979098 85.790548,76.979099 z M 75.800277,80.059672 C 76.837669,80.059672 77.671652,80.893658 77.671654,81.931049 C 77.671654,82.968440 76.837666,83.816818 75.800277,83.816819 C 74.762887,83.816819 73.914505,82.968441 73.914507,81.931049 C 73.914507,80.893657 74.762885,80.059672 75.800277,80.059672 z M 87.676319,83.039479 C 88.713709,83.039479 89.547695,83.887862 89.547695,84.925250 C 89.547695,85.962641 88.713709,86.796625 87.676319,86.796627 C 86.638928,86.796627 85.790545,85.962642 85.790548,84.925250 C 85.790548,83.887859 86.638928,83.039479 87.676319,83.039479 z M 77.585283,85.688195 C 78.622674,85.688195 79.471051,86.536576 79.471054,87.573967 C 79.471054,88.611358 78.622673,89.445344 77.585283,89.445344 C 76.547892,89.445344 75.713905,88.611357 75.713907,87.573967 C 75.713907,86.536576 76.547892,85.688195 77.585283,85.688195 z M 83.573686,87.401225 C 84.611076,87.401225 85.445062,88.249606 85.445063,89.286998 C 85.445063,90.324386 84.611075,91.158371 83.573686,91.158374 C 82.536295,91.158374 81.687912,90.324386 81.687915,89.286998 C 81.687915,88.249606 82.536294,87.401224 83.573686,87.401225 z "
     id="path911" />
  <path
     sodipodi:type="arc"
     style="fill:url(#radialGradient1702);fill-opacity:0.28301886;fill-rule:evenodd;stroke-width:1.0000000pt;"
     id="path1504"
     sodipodi:cx="112.00817"
     sodipodi:cy="77.668579"
     sodipodi:rx="6.4905396"
     sodipodi:ry="6.4905396"
     d="M 118.49871 77.668579 A 6.4905396 6.4905396 0 1 0 105.51763,77.668579 A 6.4905396 6.4905396 0 1 0 118.49871 77.668579 z"
     transform="matrix(-0.460646,0.000000,0.000000,0.460646,134.0712,48.09354)" />
  <path
     sodipodi:type="arc"
     style="fill:url(#linearGradient1700);fill-opacity:0.75000000;fill-rule:evenodd;stroke-width:1.0000000pt;"
     id="path1867"
     sodipodi:cx="112.37906"
     sodipodi:cy="77.483139"
     sodipodi:rx="5.5633197"
     sodipodi:ry="5.5633197"
     d="M 117.94238 77.483139 A 5.5633197 5.5633197 0 1 0 106.81574,77.483139 A 5.5633197 5.5633197 0 1 0 117.94238 77.483139 z"
     transform="matrix(-0.460646,0.000000,0.000000,0.460646,133.0461,47.58100)" />
  <path
     sodipodi:type="arc"
     style="fill:url(#linearGradient1701);fill-opacity:0.75000000;fill-rule:evenodd;stroke-width:1.0000000pt;"
     id="path1506"
     sodipodi:cx="112.74995"
     sodipodi:cy="77.112251"
     sodipodi:rx="2.5962157"
     sodipodi:ry="2.5962157"
     d="M 115.34616 77.112251 A 2.5962157 2.5962157 0 1 0 110.15373,77.112251 A 2.5962157 2.5962157 0 1 0 115.34616 77.112251 z"
     transform="matrix(-0.460646,0.000000,0.000000,0.460646,133.0461,47.58100)" />
  <path
     style="fill:url(#linearGradient1497);fill-opacity:0.75000000;fill-rule:evenodd;stroke-width:0.95407495pt;"
     d="M 750.01435,260.57234 C 715.94460,250.48602 671.79788,251.91624 638.44792,257.66516 C 644.20618,220.71628 644.92597,174.41021 637.00835,136.74154 L 750.01435,260.57234 z "
     id="path906"
     sodipodi:nodetypes="cccc"
     transform="matrix(0.296689,0.000000,0.000000,0.296689,-71.19601,-34.05825)" />
  <rect
     style="fill:#ffffff;fill-opacity:0.84375000;fill-rule:evenodd;stroke-width:1.0000000pt;"
     id="use1794"
     width="16.261375"
     height="13.114013"
     x="21.244701"
     y="219.53755" />
  <path
     style="fill-opacity:0.42138365;fill-rule:evenodd;stroke-width:0.95407495pt;fill:url(#linearGradient840);"
     d="M 119.31250 15.500000 C 119.59612 18.530879 119.73666 21.649049 119.75000 24.750000 C 119.77670 30.951901 119.32296 37.143837 118.46875 42.625000 C 128.36332 40.919359 141.45437 40.476249 151.56250 43.468750 L 134.78125 25.093750 L 126.40625 15.906250 L 119.31250 15.500000 z M 124.75000 20.562500 L 129.03125 20.937500 L 143.53125 37.156250 C 138.22565 35.791952 128.64783 35.967789 125.03125 36.375000 C 126.11392 32.234551 125.65953 24.958573 124.75000 20.562500 z "
     id="path1901" />
  <path
     style="fill:url(#linearGradient844);fill-opacity:0.45911947;fill-rule:evenodd;stroke-width:0.94098825pt;"
     d="M 17.062500,6.3437500 C 17.062500,55.343750 17.062500,104.34375 17.062500,153.34375 C 25.250001,153.34375 33.437499,153.34375 41.625000,153.34375 C 41.625000,104.12500 41.625000,54.906250 41.625000,5.6875000 C 33.437499,5.6875000 25.250001,5.6875000 17.062500,5.6875000 L 17.062500,6.3437500 z M 37.125000,10.531250 C 36.681679,14.235337 38.010652,19.711719 36.464024,22.312500 C 31.694767,22.312500 26.925509,22.312500 22.156250,22.312500 C 22.599570,18.608413 21.270597,13.132031 22.817226,10.531250 C 27.586485,10.531250 32.355742,10.531250 37.125000,10.531250 z M 36.812500,28.750000 C 36.372324,32.467649 37.693746,37.946897 36.151524,40.562500 C 31.392682,40.562500 26.633841,40.562500 21.875000,40.562500 C 22.315176,36.844851 20.993754,31.365603 22.535976,28.750000 C 27.294818,28.750000 32.053658,28.750000 36.812500,28.750000 z M 36.812500,49.750000 C 36.369179,53.454087 37.698152,58.930469 36.151524,61.531250 C 31.392682,61.531250 26.633841,61.531250 21.875000,61.531250 C 22.318321,57.827163 20.989347,52.350781 22.535976,49.750000 C 27.294818,49.750000 32.053658,49.750000 36.812500,49.750000 z M 36.812500,68.625000 C 36.372324,72.342649 37.693746,77.821897 36.151524,80.437500 C 31.392682,80.437500 26.633841,80.437500 21.875000,80.437500 C 22.315176,76.719851 20.993754,71.240603 22.535976,68.625000 C 27.294818,68.625000 32.053658,68.625000 36.812500,68.625000 z M 36.812500,88.031250 C 36.372324,91.748899 37.693746,97.228147 36.151524,99.843750 C 31.392682,99.843750 26.633841,99.843750 21.875000,99.843750 C 22.315176,96.126101 20.993754,90.646853 22.535976,88.031250 C 27.294818,88.031250 32.053658,88.031250 36.812500,88.031250 z M 36.812500,105.87500 C 36.372324,109.59265 37.693746,115.07190 36.151524,117.68750 C 31.392682,117.68750 26.633841,117.68750 21.875000,117.68750 C 22.315176,113.96985 20.993754,108.49060 22.535976,105.87500 C 27.294818,105.87500 32.053658,105.87500 36.812500,105.87500 z M 36.812500,124.75000 C 36.372324,128.46765 37.693746,133.94690 36.151524,136.56250 C 31.392682,136.56250 26.633841,136.56250 21.875000,136.56250 C 22.315176,132.84485 20.993754,127.36560 22.535976,124.75000 C 27.294818,124.75000 32.053658,124.75000 36.812500,124.75000 z M 36.812500,142.37500 C 37.333398,146.99183 37.325603,151.07997 31.524693,149.37500 C 28.415104,148.38672 20.906506,151.79746 21.875000,146.73110 C 19.948367,140.70853 25.924549,142.58877 29.806710,142.37500 C 32.141973,142.37500 34.477237,142.37500 36.812500,142.37500 z "
     id="path1582"
     sodipodi:nodetypes="cccccccccccccccccccccccccccccccccccccccccccccc" />
</svg>
