<?xml version="1.0" encoding="UTF-8" standalone="no"?>
<!DOCTYPE svg PUBLIC "-//W3C//DTD SVG 20010904//EN"
"http://www.w3.org/TR/2001/REC-SVG-20010904/DTD/svg10.dtd">
<!-- Created with Inkscape (http://www.inkscape.org/) -->
<svg
   id="svg1"
   sodipodi:version="0.32"
   inkscape:version="0.39cvs"
   width="128.00000pt"
   height="128.00000pt"
   sodipodi:docbase="/home/andy/Desktop/etiquette-icons-0.5/scalable/mimetypes"
   sodipodi:docname="gnome-mime-spreadsheet.svg"
   xmlns="http://www.w3.org/2000/svg"
   xmlns:inkscape="http://www.inkscape.org/namespaces/inkscape"
   xmlns:sodipodi="http://sodipodi.sourceforge.net/DTD/sodipodi-0.dtd"
   xmlns:xlink="http://www.w3.org/1999/xlink">
  <defs
     id="defs3">
    <linearGradient
       id="linearGradient853">
      <stop
         style="stop-color:#000000;stop-opacity:0.29752067;"
         offset="0.00000000"
         id="stop854" />
      <stop
         style="stop-color:#000000;stop-opacity:0.00000000;"
         offset="1.0000000"
         id="stop855" />
    </linearGradient>
    <radialGradient
       xlink:href="#linearGradient853"
       id="radialGradient864"
       cx="0.50000000"
       cy="0.50000000"
       r="0.50000000"
       fx="0.50000000"
       fy="0.14942528" />
    <linearGradient
       id="linearGradient841">
      <stop
         style="stop-color:#ffffff;stop-opacity:1.0000000;"
         offset="0.00000000"
         id="stop842" />
      <stop
         style="stop-color:#ffffff;stop-opacity:0.00000000;"
         offset="1.0000000"
         id="stop843" />
    </linearGradient>
    <linearGradient
       id="linearGradient1290">
      <stop
         style="stop-color:#625b81;stop-opacity:1.0000000;"
         offset="0.0000000"
         id="stop1291" />
      <stop
         style="stop-color:#ada7c8;stop-opacity:1.0000000;"
         offset="0.19092308"
         id="stop1546" />
      <stop
         style="stop-color:#494066;stop-opacity:1.0000000;"
         offset="1.0000000"
         id="stop1292" />
    </linearGradient>
    <linearGradient
       xlink:href="#linearGradient853"
       id="linearGradient851"
       x1="0.95321637"
       y1="0.39062500"
       x2="0.081871346"
       y2="0.42968750" />
    <linearGradient
       xlink:href="#linearGradient846"
       id="linearGradient858"
       x1="0.64285713"
       y1="1.2647059"
       x2="0.57142860"
       y2="0.049019609" />
    <linearGradient
       id="linearGradient846">
      <stop
         style="stop-color:#e7e7e7;stop-opacity:1.0000000;"
         offset="0.00000000"
         id="stop847" />
      <stop
         style="stop-color:#a5a5a5;stop-opacity:1.0000000;"
         offset="1.0000000"
         id="stop848" />
    </linearGradient>
    <linearGradient
       xlink:href="#linearGradient846"
       id="linearGradient850" />
    <linearGradient
       xlink:href="#linearGradient853"
       id="linearGradient859"
       x1="1.4647887"
       y1="-1.1486486"
       x2="0.26408452"
       y2="1.2905406" />
    <radialGradient
       xlink:href="#linearGradient853"
       id="radialGradient861"
       cx="0.50000000"
       cy="0.50000000"
       r="0.50000000"
       fx="0.50704223"
       fy="0.29885057" />
    <linearGradient
       id="linearGradient1507">
      <stop
         style="stop-color:#000000;stop-opacity:0.095505618;"
         offset="0.0000000"
         id="stop1508" />
      <stop
         style="stop-color:#000000;stop-opacity:0.0000000;"
         offset="1.0000000"
         id="stop1510" />
    </linearGradient>
    <linearGradient
       id="linearGradient1501">
      <stop
         style="stop-color:#ffffff;stop-opacity:1.0000000;"
         offset="0.0000000"
         id="stop1502" />
      <stop
         style="stop-color:#ffffff;stop-opacity:0.0000000;"
         offset="1.0000000"
         id="stop1504" />
    </linearGradient>
    <linearGradient
       id="linearGradient1492">
      <stop
         style="stop-color:#dadada;stop-opacity:1.0000000;"
         offset="0.0000000"
         id="stop1493" />
      <stop
         style="stop-color:#f1f1f1;stop-opacity:1.0000000;"
         offset="0.34923077"
         id="stop1496" />
      <stop
         style="stop-color:#f0f0f0;stop-opacity:1.0000000;"
         offset="1.0000000"
         id="stop1494" />
    </linearGradient>
    <linearGradient
       xlink:href="#linearGradient1492"
       id="linearGradient1495"
       x1="0.88034189"
       y1="0.21093750"
       x2="0.085470088"
       y2="1.1796875" />
    <linearGradient
       xlink:href="#linearGradient1492"
       id="linearGradient1497"
       x1="0.63247865"
       y1="0.32812500"
       x2="-0.37606838"
       y2="1.3281250" />
    <linearGradient
       xlink:href="#linearGradient1501"
       id="linearGradient1499"
       x1="0.85826772"
       y1="0.14062500"
       x2="0.062992126"
       y2="0.54687500" />
    <linearGradient
       xlink:href="#linearGradient1507"
       id="linearGradient1506"
       x1="0.052173913"
       y1="0.97656250"
       x2="0.78260869"
       y2="0.0078125000" />
    <linearGradient
       xlink:href="#linearGradient1507"
       id="linearGradient1556"
       x1="0.31111112"
       y1="-0.56250000"
       x2="0.62222224"
       y2="0.79687500" />
    <radialGradient
       xlink:href="#linearGradient841"
       id="radialGradient856"
       cx="0.50000000"
       cy="0.89285713"
       r="0.54606670"
       fx="0.54117650"
       fy="3.5200000" />
    <linearGradient
       xlink:href="#linearGradient841"
       id="linearGradient1944" />
    <linearGradient
       xlink:href="#linearGradient1290"
       id="linearGradient852"
       x1="3.5236571e-18"
       y1="0.50000000"
       x2="1.0000000"
       y2="0.50000000" />
    <linearGradient
       xlink:href="#linearGradient841"
       id="linearGradient844"
       x1="-0.074509807"
       y1="-0.77999997"
       x2="0.58823532"
       y2="1.1000000" />
    <linearGradient
       xlink:href="#linearGradient1290"
       id="linearGradient845"
       x1="0.49019608"
       y1="-0.14705883"
       x2="1.0313725"
       y2="13.117647" />
    <linearGradient
       xlink:href="#linearGradient853"
       id="linearGradient840"
       x1="0.81278539"
       y1="0.30817610"
       x2="0.38812786"
       y2="0.88050312" />
    <linearGradient
       xlink:href="#linearGradient853"
       id="linearGradient849"
       x1="0.78142077"
       y1="0.060606062"
       x2="0.56284153"
       y2="0.91666669" />
    <linearGradient
       xlink:href="#linearGradient853"
       id="linearGradient860"
       x1="0.26960784"
       y1="0.48979592"
       x2="0.59803921"
       y2="0.48979592" />
  </defs>
  <sodipodi:namedview
     id="base"
     pagecolor="#ffffff"
     bordercolor="#666666"
     borderopacity="1.0"
     inkscape:pageopacity="0.0"
     inkscape:pageshadow="2"
     inkscape:zoom="0.98277844"
     inkscape:cx="93.186621"
     inkscape:cy="26.908971"
     inkscape:window-width="445"
     inkscape:window-height="550"
     inkscape:window-x="1"
     inkscape:window-y="81"
     showgrid="false"
     snaptogrid="false"
     showborder="true"
     showguides="true"
     snaptoguides="true" />
  <path
     style="fill:#ffffff;fill-rule:evenodd;stroke-width:0.42649043;stroke-opacity:0.36477986;"
     d="M 17.159384,6.3292894 L 17.159384,43.068526 L 17.159384,79.807768 L 17.159384,116.54700 L 17.159384,153.28624 L 50.687024,153.28624 L 84.214664,153.28624 L 117.74230,153.28624 L 151.26994,153.28624 L 151.26994,116.54700 L 151.26994,79.807768 L 151.26994,43.068526 L 117.74230,6.3292894 L 84.214664,6.3292894 L 50.687024,6.3292894 L 17.159384,6.3292894 z "
     id="path930"
     sodipodi:nodetypes="cccccccccccccccc" />
  <g
     id="g1552"
     transform="matrix(0.304171,0.000000,0.000000,0.297572,-36.70399,-112.4880)"
     style="fill:url(#linearGradient1506);">
    <path
       style="fill-opacity:0.75000000;fill-rule:evenodd;stroke-width:0.95407495pt;"
       d="M 173.35959,408.81260 L 173.35959,531.07360 L 173.35959,653.33460 L 173.35959,775.59560 L 173.35959,897.85660 L 282.12187,897.85660 L 390.88417,897.85660 L 499.64646,897.85660 L 608.40874,897.85660 L 608.40874,775.59560 L 608.40874,653.33460 L 608.40874,531.07360 L 499.64646,408.81260 L 390.88417,408.81260 L 282.12187,408.81260 L 173.35959,408.81260 z "
       id="path1505"
       sodipodi:nodetypes="cccccccccccccccc" />
    <path
       style="fill-opacity:0.75000000;fill-rule:evenodd;stroke-width:0.95407495pt;"
       d="M 170.12500,407.18750 C 170.12500,571.82292 170.12500,736.45833 170.12500,901.09375 C 317.30208,901.09375 464.47917,901.09375 611.65625,901.09375 C 611.65625,777.33333 611.65625,653.57292 611.65625,529.81250 C 574.80918,488.38978 537.97604,446.95335 501.09375,405.56250 C 390.77083,405.56250 280.44792,405.56250 170.12500,405.56250 C 170.12500,405.89583 170.12500,406.97917 170.12500,407.18750 z "
       id="path1538" />
    <path
       style="fill-opacity:0.75000000;fill-rule:evenodd;stroke-width:0.95407495pt;"
       d="M 166.87500,403.93750 C 166.87500,570.73958 166.87500,737.54167 166.87500,904.34375 C 316.21875,904.34375 465.56250,904.34375 614.90625,904.34375 C 614.90625,779.08333 614.90625,653.82292 614.90625,528.56250 C 577.45517,486.47298 540.01754,444.37017 502.53125,402.31250 C 390.64583,402.31250 278.76042,402.31250 166.87500,402.31250 C 166.87500,402.64583 166.87500,403.72917 166.87500,403.93750 z "
       id="path1543" />
  </g>
  <path
     style="fill:url(#linearGradient1495);fill-opacity:0.75000000;fill-rule:evenodd;stroke:#000000;stroke-width:1.4375000;stroke-opacity:0.36477986;"
     d="M 297.99034,136.74154 L 297.99034,260.57234 L 297.99034,384.40315 L 297.99034,508.23395 L 297.99034,632.06475 L 410.99634,632.06475 L 524.00235,632.06475 L 637.00835,632.06475 L 750.01435,632.06475 L 750.01435,508.23395 L 750.01435,384.40315 L 750.01435,260.57234 L 637.00835,136.74154 L 524.00235,136.74154 L 410.99634,136.74154 L 297.99034,136.74154 z "
     id="rect900"
     sodipodi:nodetypes="cccccccccccccccc"
     transform="matrix(0.296689,0.000000,0.000000,0.296689,-71.19601,-34.05825)" />
  <path
     style="fill:url(#linearGradient860);fill-rule:evenodd;stroke:#000000;stroke-width:0.50000000;stroke-opacity:0.36477986;"
     d="M 32.732286,36.859252 C 32.732286,62.942585 32.732286,89.025922 32.732286,115.10925 C 68.982286,115.10925 105.23228,115.10925 141.48228,115.10925 C 141.48228,88.817582 141.48228,62.525919 141.48228,36.234252 C 105.23228,36.234252 68.982286,36.234252 32.732286,36.234252 C 32.732286,36.403839 32.732286,36.820506 32.732286,36.859252 z M 34.263536,37.453002 C 45.721869,37.453002 57.180203,37.453002 68.638536,37.453002 C 68.638536,41.369669 68.638536,45.286335 68.638536,49.203002 C 57.013536,49.203002 45.388536,49.203002 33.763536,49.203002 C 33.763536,45.286335 33.763536,41.369669 33.763536,37.453002 L 34.263536,37.453002 z M 70.169786,37.453002 C 81.628119,37.453002 93.086453,37.453002 104.54478,37.453002 C 104.54478,41.369669 104.54478,45.286335 104.54478,49.203002 C 92.919786,49.203002 81.294786,49.203002 69.669786,49.203002 C 69.669786,45.286335 69.669786,41.369669 69.669786,37.453002 L 70.169786,37.453002 z M 106.07603,37.453002 C 117.54478,37.453002 129.01353,37.453002 140.48228,37.453002 C 140.48228,41.369669 140.48228,45.286335 140.48228,49.203002 C 128.84686,49.203002 117.21145,49.203002 105.57603,49.203002 C 105.57603,45.286335 105.57603,41.369669 105.57603,37.453002 L 106.07603,37.453002 z M 34.263536,50.390502 C 45.721869,50.390502 57.180203,50.390502 68.638536,50.390502 C 68.638536,54.307169 68.638536,58.223835 68.638536,62.140502 C 57.013536,62.140502 45.388536,62.140502 33.763536,62.140502 C 33.763536,58.223835 33.763536,54.307169 33.763536,50.390502 L 34.263536,50.390502 z M 70.169786,50.390502 C 81.628119,50.390502 93.086453,50.390502 104.54478,50.390502 C 104.54478,54.307169 104.54478,58.223835 104.54478,62.140502 C 92.919786,62.140502 81.294786,62.140502 69.669786,62.140502 C 69.669786,58.223835 69.669786,54.307169 69.669786,50.390502 L 70.169786,50.390502 z M 106.07603,50.390502 C 117.54478,50.390502 129.01353,50.390502 140.48228,50.390502 C 140.48228,54.307169 140.48228,58.223835 140.48228,62.140502 C 128.84686,62.140502 117.21145,62.140502 105.57603,62.140502 C 105.57603,58.223835 105.57603,54.307169 105.57603,50.390502 L 106.07603,50.390502 z M 34.263536,63.328002 C 45.721869,63.328002 57.180203,63.328002 68.638536,63.328002 C 68.638536,67.244669 68.638536,71.161335 68.638536,75.078002 C 57.013536,75.078002 45.388536,75.078002 33.763536,75.078002 C 33.763536,71.161335 33.763536,67.244669 33.763536,63.328002 L 34.263536,63.328002 z M 70.169786,63.328002 C 81.628119,63.328002 93.086453,63.328002 104.54478,63.328002 C 104.54478,67.244669 104.54478,71.161335 104.54478,75.078002 C 92.919786,75.078002 81.294786,75.078002 69.669786,75.078002 C 69.669786,71.161335 69.669786,67.244669 69.669786,63.328002 L 70.169786,63.328002 z M 106.07603,63.328002 C 117.54478,63.328002 129.01353,63.328002 140.48228,63.328002 C 140.48228,67.244669 140.48228,71.161335 140.48228,75.078002 C 128.84686,75.078002 117.21145,75.078002 105.57603,75.078002 C 105.57603,71.161335 105.57603,67.244669 105.57603,63.328002 L 106.07603,63.328002 z M 34.263536,76.296752 C 45.721869,76.296752 57.180203,76.296752 68.638536,76.296752 C 68.638536,80.213419 68.638536,84.130082 68.638536,88.046752 C 57.013536,88.046752 45.388536,88.046752 33.763536,88.046752 C 33.763536,84.130082 33.763536,80.213419 33.763536,76.296752 L 34.263536,76.296752 z M 70.169786,76.296752 C 81.628119,76.296752 93.086453,76.296752 104.54478,76.296752 C 104.54478,80.213419 104.54478,84.130082 104.54478,88.046752 C 92.919786,88.046752 81.294786,88.046752 69.669786,88.046752 C 69.669786,84.130082 69.669786,80.213419 69.669786,76.296752 L 70.169786,76.296752 z M 106.07603,76.296752 C 117.54478,76.296752 129.01353,76.296752 140.48228,76.296752 C 140.48228,80.213419 140.48228,84.130082 140.48228,88.046752 C 128.84686,88.046752 117.21145,88.046752 105.57603,88.046752 C 105.57603,84.130082 105.57603,80.213419 105.57603,76.296752 L 106.07603,76.296752 z M 34.263536,89.234252 C 45.721869,89.234252 57.180203,89.234252 68.638536,89.234252 C 68.638536,93.140502 68.638536,97.046752 68.638536,100.95300 C 57.013536,100.95300 45.388536,100.95300 33.763536,100.95300 C 33.763536,97.046752 33.763536,93.140502 33.763536,89.234252 L 34.263536,89.234252 z M 70.169786,89.234252 C 81.628119,89.234252 93.086453,89.234252 104.54478,89.234252 C 104.54478,93.140502 104.54478,97.046752 104.54478,100.95300 C 92.919786,100.95300 81.294786,100.95300 69.669786,100.95300 C 69.669786,97.046752 69.669786,93.140502 69.669786,89.234252 L 70.169786,89.234252 z M 106.07603,89.234252 C 117.54478,89.234252 129.01353,89.234252 140.48228,89.234252 C 140.48228,93.140502 140.48228,97.046752 140.48228,100.95300 C 128.84686,100.95300 117.21145,100.95300 105.57603,100.95300 C 105.57603,97.046752 105.57603,93.140502 105.57603,89.234252 L 106.07603,89.234252 z M 34.263536,102.17175 C 45.721869,102.17175 57.180203,102.17175 68.638536,102.17175 C 68.638536,106.08842 68.638536,110.00508 68.638536,113.92175 C 57.013536,113.92175 45.388536,113.92175 33.763536,113.92175 C 33.763536,110.00508 33.763536,106.08842 33.763536,102.17175 L 34.263536,102.17175 z M 70.169786,102.17175 C 81.628119,102.17175 93.086453,102.17175 104.54478,102.17175 C 104.54478,106.08842 104.54478,110.00508 104.54478,113.92175 C 92.919786,113.92175 81.294786,113.92175 69.669786,113.92175 C 69.669786,110.00508 69.669786,106.08842 69.669786,102.17175 L 70.169786,102.17175 z M 106.07603,102.17175 C 117.54478,102.17175 129.01353,102.17175 140.48228,102.17175 C 140.48228,106.08842 140.48228,110.00508 140.48228,113.92175 C 128.84686,113.92175 117.21145,113.92175 105.57603,113.92175 C 105.57603,110.00508 105.57603,106.08842 105.57603,102.17175 L 106.07603,102.17175 z "
     id="path1969" />
  <path
     style="fill:url(#linearGradient1499);fill-opacity:0.75000000;fill-rule:evenodd;stroke-width:1.0000000pt;"
     d="M 301.30655,174.90867 L 299.27069,628.90434 L 743.08709,628.90434 L 743.34157,516.67783 C 733.41677,520.49506 633.15091,378.49417 506.92790,384.60173 C 380.59029,390.71484 413.27857,193.23136 301.30655,174.90867 z "
     id="path1500"
     sodipodi:nodetypes="cccczc"
     transform="matrix(0.296689,0.000000,0.000000,0.296689,-71.19601,-34.05825)" />
  <path
     style="fill:url(#linearGradient1497);fill-opacity:0.75000000;fill-rule:evenodd;stroke-width:0.95407495pt;"
     d="M 750.01435,260.57234 C 715.94460,250.48602 671.79788,251.91624 638.44792,257.66516 C 644.20618,220.71628 644.92597,174.41021 637.00835,136.74154 L 750.01435,260.57234 z "
     id="path906"
     sodipodi:nodetypes="cccc"
     transform="matrix(0.296689,0.000000,0.000000,0.296689,-71.19601,-34.05825)" />
  <path
     style="fill:url(#linearGradient852);fill-opacity:0.75000000;fill-rule:evenodd;stroke-width:0.99417171pt;"
     d="M 141.11455,-40.911483 C 141.11455,-29.835507 106.40164,-24.807731 88.582677,-24.807731 C 70.763711,-24.807731 36.050806,-29.835507 36.050806,-40.911483 L 36.050807,-51.973425 L 88.582682,-51.973425 L 141.11455,-51.973425 L 141.11455,-40.911483 z "
     id="path951"
     sodipodi:nodetypes="czccccc"
     transform="matrix(1.000000,0.000000,0.000000,1.456607,17.16975,186.1308)" />
  <path
     transform="matrix(0.989658,0.000000,0.000000,1.150435,18.08591,149.6449)"
     style="fill:#c1665a;fill-rule:evenodd;stroke-width:1.0000000pt;"
     d="M 141.73228,-34.881889 C 141.73228,-25.102362 35.433075,-25.102362 35.433075,-34.881889 C 35.433075,-44.661417 59.244098,-52.598425 88.582680,-52.598425 C 117.92126,-52.598425 141.73228,-44.661417 141.73228,-34.881889 z "
     id="path952"
     sodipodi:nodetypes="cccc" />
  <path
     style="fill:url(#linearGradient845);fill-opacity:0.75000000;fill-rule:evenodd;stroke-width:1.0000000pt;"
     d="M 141.73228,-34.881889 C 141.73228,-25.102362 117.92126,-17.165354 88.582680,-17.165354 C 59.244098,-17.165354 35.433075,-25.102362 35.433075,-34.881889 L 141.73228,-34.881889 z "
     id="path957"
     sodipodi:nodetypes="cccc"
     transform="matrix(0.989658,0.000000,0.000000,1.150435,18.08298,149.6449)" />
  <path
     style="fill:#46a046;fill-rule:evenodd;stroke-width:0.99417171pt;"
     d="M 158.15655,126.78563 C 158.15655,142.91897 123.44364,150.24246 105.62468,150.24246 L 105.62469,110.67272 L 158.15655,110.67272 L 158.15655,126.78563 z "
     id="path958"
     sodipodi:nodetypes="czccc" />
  <path
     style="fill:url(#linearGradient851);fill-rule:evenodd;stroke-width:0.99417171pt;"
     d="M 157.12457,125.71360 C 157.12457,141.40761 123.35691,148.53168 106.02318,148.53168 L 106.02319,110.03945 L 157.12457,110.03945 L 157.12457,125.71360 z "
     id="path1550"
     sodipodi:nodetypes="czccc" />
  <path
     style="fill:#46a046;fill-rule:evenodd;stroke-width:1.0000000pt;"
     d="M 141.73228,-34.881889 C 141.73228,-25.102362 117.92126,-17.165354 88.582680,-17.165354 L 88.579760,-34.881895 L 126.15945,-47.407480 C 135.77953,-44.200787 141.73228,-39.771653 141.73228,-34.881889 z "
     id="path955"
     sodipodi:nodetypes="ccccc"
     transform="matrix(0.989658,0.000000,0.000000,1.150435,18.08876,149.6449)" />
  <path
     sodipodi:type="arc"
     style="fill:url(#linearGradient844);fill-opacity:0.75000000;fill-rule:evenodd;stroke-width:1.0000000pt;"
     id="path1545"
     sodipodi:cx="88.582680"
     sodipodi:cy="-34.881889"
     sodipodi:rx="53.149605"
     sodipodi:ry="17.716536"
     d="M 141.73228 -34.881889 A 53.149605 17.716536 0 1 0 35.433075,-34.881889 A 53.149605 17.716536 0 1 0 141.73228 -34.881889 z"
     transform="matrix(0.833333,0.000000,0.000000,0.844264,31.93356,138.9651)" />
</svg>
