<?xml version="1.0" encoding="UTF-8" standalone="no"?>
<!DOCTYPE svg PUBLIC "-//W3C//DTD SVG 20010904//EN"
"http://www.w3.org/TR/2001/REC-SVG-20010904/DTD/svg10.dtd">
<!-- Created with Inkscape (http://www.inkscape.org/) -->
<svg
   id="svg1"
   sodipodi:version="0.32"
   inkscape:version="0.39cvs"
   width="128.00000pt"
   height="128.00000pt"
   sodipodi:docbase="/home/andy/Desktop/etiquette-icons-0.5/scalable/mimetypes"
   sodipodi:docname="gnome-mime-video-ms-asf.svg"
   xmlns="http://www.w3.org/2000/svg"
   xmlns:inkscape="http://www.inkscape.org/namespaces/inkscape"
   xmlns:sodipodi="http://sodipodi.sourceforge.net/DTD/sodipodi-0.dtd"
   xmlns:xlink="http://www.w3.org/1999/xlink">
  <defs
     id="defs3">
    <linearGradient
       xlink:href="#linearGradient4215"
       id="linearGradient4033"
       x1="0.25179857"
       y1="-0.039062500"
       x2="0.53237408"
       y2="0.52343750" />
    <linearGradient
       xlink:href="#linearGradient4215"
       id="linearGradient3983"
       x1="0.092198581"
       y1="-0.21093750"
       x2="0.48226950"
       y2="0.49218750" />
    <linearGradient
       xlink:href="#linearGradient4215"
       id="linearGradient3978"
       x1="0.016528925"
       y1="-0.49218750"
       x2="0.51239669"
       y2="0.50000000" />
    <linearGradient
       xlink:href="#linearGradient4215"
       id="linearGradient3969"
       x1="0.055118110"
       y1="-0.30468750"
       x2="0.53543305"
       y2="0.56250000" />
    <linearGradient
       xlink:href="#linearGradient4215"
       id="linearGradient4018"
       x1="1.2125034"
       y1="0.78833276"
       x2="0.58590770"
       y2="0.44490069"
       gradientTransform="scale(0.999075,1.000926)" />
    <linearGradient
       id="linearGradient4215">
      <stop
         style="stop-color:#ffffff;stop-opacity:1.0000000;"
         offset="0.0000000"
         id="stop4216" />
      <stop
         style="stop-color:#ffffff;stop-opacity:0.0000000;"
         offset="1.0000000"
         id="stop4217" />
    </linearGradient>
    <linearGradient
       xlink:href="#linearGradient4215"
       id="linearGradient4019"
       x1="1.1610887"
       y1="0.61942029"
       x2="0.47761098"
       y2="0.32147130"
       gradientTransform="scale(1.003618,0.996395)" />
    <linearGradient
       xlink:href="#linearGradient4021"
       id="linearGradient4017"
       x1="1.8455285"
       y1="1.3437500"
       x2="0.47967479"
       y2="0.56250000" />
    <linearGradient
       id="linearGradient4021">
      <stop
         style="stop-color:#000000;stop-opacity:1.0000000;"
         offset="0.0000000"
         id="stop4022" />
      <stop
         style="stop-color:#000000;stop-opacity:0.0000000;"
         offset="1.0000000"
         id="stop4023" />
    </linearGradient>
    <linearGradient
       xlink:href="#linearGradient4021"
       id="linearGradient4020"
       x1="1.7519705"
       y1="1.0528145"
       x2="0.54093099"
       y2="0.37158158"
       gradientTransform="scale(0.990884,1.009200)" />
    <radialGradient
       xlink:href="#linearGradient1806"
       id="radialGradient4069"
       cx="0.49032259"
       cy="0.50649351"
       r="0.38170236"
       fx="0.63414633"
       fy="0.37777779" />
    <linearGradient
       id="linearGradient1722">
      <stop
         style="stop-color:#ffffff;stop-opacity:0.0000000;"
         offset="0.0000000"
         id="stop1723" />
      <stop
         style="stop-color:#ffffff;stop-opacity:1.0000000;"
         offset="1.0000000"
         id="stop1724" />
    </linearGradient>
    <linearGradient
       id="linearGradient853">
      <stop
         style="stop-color:#000000;stop-opacity:0.29752067;"
         offset="0.00000000"
         id="stop854" />
      <stop
         style="stop-color:#000000;stop-opacity:0.00000000;"
         offset="1.0000000"
         id="stop855" />
    </linearGradient>
    <linearGradient
       id="linearGradient1910">
      <stop
         style="stop-color:#000000;stop-opacity:1.0000000;"
         offset="0.0000000"
         id="stop1911" />
      <stop
         style="stop-color:#000000;stop-opacity:0.35862070;"
         offset="0.80814433"
         id="stop1912" />
      <stop
         style="stop-color:#000000;stop-opacity:0.0000000;"
         offset="1.0000000"
         id="stop1913" />
    </linearGradient>
    <linearGradient
       id="linearGradient846">
      <stop
         style="stop-color:#e7e7e7;stop-opacity:1.0000000;"
         offset="0.00000000"
         id="stop847" />
      <stop
         style="stop-color:#a5a5a5;stop-opacity:1.0000000;"
         offset="1.0000000"
         id="stop848" />
    </linearGradient>
    <linearGradient
       id="linearGradient1904">
      <stop
         style="stop-color:#ffffff;stop-opacity:0.94482756;"
         offset="0.0000000"
         id="stop1905" />
      <stop
         style="stop-color:#000000;stop-opacity:0.94482756;"
         offset="1.0000000"
         id="stop1906" />
    </linearGradient>
    <linearGradient
       id="linearGradient1492">
      <stop
         style="stop-color:#cbcbcb;stop-opacity:1.0000000;"
         offset="0.0000000"
         id="stop1493" />
      <stop
         style="stop-color:#f0f0f0;stop-opacity:1.0000000;"
         offset="0.34923077"
         id="stop1496" />
      <stop
         style="stop-color:#e2e2e2;stop-opacity:1.0000000;"
         offset="1.0000000"
         id="stop1494" />
    </linearGradient>
    <linearGradient
       id="linearGradient1887">
      <stop
         style="stop-color:#ffffff;stop-opacity:1.0000000;"
         offset="0.0000000"
         id="stop1888" />
      <stop
         style="stop-color:#ffffff;stop-opacity:0.66274512;"
         offset="0.76773196"
         id="stop1890" />
      <stop
         style="stop-color:#ffffff;stop-opacity:0.0000000;"
         offset="1.0000000"
         id="stop1889" />
    </linearGradient>
    <linearGradient
       id="linearGradient1501">
      <stop
         style="stop-color:#ffffff;stop-opacity:1.0000000;"
         offset="0.0000000"
         id="stop1502" />
      <stop
         style="stop-color:#ffffff;stop-opacity:0.0000000;"
         offset="1.0000000"
         id="stop1504" />
    </linearGradient>
    <linearGradient
       xlink:href="#linearGradient1696"
       id="linearGradient1701"
       x1="-1.7829458"
       y1="2.4062500"
       x2="0.78294575"
       y2="-0.070312500" />
    <radialGradient
       xlink:href="#linearGradient1806"
       id="radialGradient1702"
       cx="0.50000000"
       cy="0.50000000"
       r="0.50000000"
       fx="0.50000000"
       fy="0.50000000" />
    <linearGradient
       id="linearGradient1675">
      <stop
         style="stop-color:#e3e3e3;stop-opacity:1.0000000;"
         offset="0.0000000"
         id="stop1676" />
      <stop
         style="stop-color:#a9a9a9;stop-opacity:1.0000000;"
         offset="0.74752575"
         id="stop1677" />
      <stop
         style="stop-color:#414141;stop-opacity:1.0000000;"
         offset="1.0000000"
         id="stop1678" />
    </linearGradient>
    <linearGradient
       id="linearGradient1806">
      <stop
         style="stop-color:#000000;stop-opacity:0.40677965;"
         offset="0.0000000"
         id="stop1807" />
      <stop
         style="stop-color:#000000;stop-opacity:0.073446326;"
         offset="0.64777780"
         id="stop3276" />
      <stop
         style="stop-color:#000000;stop-opacity:0.0000000;"
         offset="1.0000000"
         id="stop1808" />
    </linearGradient>
    <radialGradient
       xlink:href="#linearGradient1806"
       id="radialGradient1505"
       cx="0.49032259"
       cy="0.50649351"
       r="0.46014288"
       fx="0.50977784"
       fy="0.15800871" />
    <linearGradient
       id="linearGradient1696">
      <stop
         style="stop-color:#000000;stop-opacity:1.0000000;"
         offset="0.0000000"
         id="stop1697" />
      <stop
         style="stop-color:#ffffff;stop-opacity:1.0000000;"
         offset="1.0000000"
         id="stop1699" />
    </linearGradient>
    <linearGradient
       xlink:href="#linearGradient1696"
       id="linearGradient1704"
       x1="-0.66666669"
       y1="-0.95312500"
       x2="0.60305345"
       y2="0.83593750" />
    <linearGradient
       id="linearGradient1507">
      <stop
         style="stop-color:#000000;stop-opacity:0.095505618;"
         offset="0.0000000"
         id="stop1508" />
      <stop
         style="stop-color:#000000;stop-opacity:0.0000000;"
         offset="1.0000000"
         id="stop1510" />
    </linearGradient>
    <linearGradient
       xlink:href="#linearGradient1904"
       id="linearGradient852"
       x1="-0.077519380"
       y1="0.062500000"
       x2="1.6201551"
       y2="0.84375000" />
    <linearGradient
       xlink:href="#linearGradient1887"
       id="linearGradient844"
       x1="0.48717949"
       y1="1.3125000"
       x2="0.63247865"
       y2="0.56250000" />
    <linearGradient
       xlink:href="#linearGradient1910"
       id="linearGradient845"
       x1="2.2229300"
       y1="2.5032258"
       x2="0.34394905"
       y2="0.10967742" />
    <linearGradient
       xlink:href="#linearGradient1910"
       id="linearGradient840"
       x1="-0.039215688"
       y1="0.62500000"
       x2="0.45098040"
       y2="0.29687500" />
    <linearGradient
       xlink:href="#linearGradient846"
       id="linearGradient849" />
    <radialGradient
       xlink:href="#linearGradient1887"
       id="radialGradient864"
       cx="0.50000000"
       cy="0.50000000"
       r="0.50000000"
       fx="0.50000000"
       fy="0.50000000" />
    <linearGradient
       id="linearGradient841">
      <stop
         style="stop-color:#ffffff;stop-opacity:1.0000000;"
         offset="0.00000000"
         id="stop842" />
      <stop
         style="stop-color:#ffffff;stop-opacity:0.00000000;"
         offset="1.0000000"
         id="stop843" />
    </linearGradient>
    <linearGradient
       id="linearGradient1290">
      <stop
         style="stop-color:#b2a269;stop-opacity:1.0000000;"
         offset="0.0000000"
         id="stop1291" />
      <stop
         style="stop-color:#6d5b18;stop-opacity:1.0000000;"
         offset="1.0000000"
         id="stop1292" />
    </linearGradient>
    <linearGradient
       xlink:href="#linearGradient1290"
       id="linearGradient860" />
    <linearGradient
       xlink:href="#linearGradient846"
       id="linearGradient851" />
    <linearGradient
       xlink:href="#linearGradient846"
       id="linearGradient858" />
    <linearGradient
       xlink:href="#linearGradient846"
       id="linearGradient850" />
    <linearGradient
       xlink:href="#linearGradient853"
       id="linearGradient859"
       x1="1.4647887"
       y1="-1.1486486"
       x2="0.26408452"
       y2="1.2905406" />
    <radialGradient
       xlink:href="#linearGradient1501"
       id="radialGradient861"
       cx="0.50000000"
       cy="0.50000000"
       r="0.50000000"
       fx="0.50000000"
       fy="0.50000000" />
    <linearGradient
       xlink:href="#linearGradient1492"
       id="linearGradient1495"
       x1="0.92307693"
       y1="0.16406250"
       x2="0.14529915"
       y2="1.1718750" />
    <linearGradient
       xlink:href="#linearGradient1492"
       id="linearGradient1497"
       x1="0.63247865"
       y1="0.32812500"
       x2="-0.37606838"
       y2="1.3281250" />
    <linearGradient
       xlink:href="#linearGradient1501"
       id="linearGradient1499"
       x1="0.85826772"
       y1="0.14062500"
       x2="0.062992126"
       y2="0.54687500" />
    <linearGradient
       xlink:href="#linearGradient1507"
       id="linearGradient1506"
       x1="0.052173913"
       y1="0.97656250"
       x2="0.78260869"
       y2="0.0078125000" />
    <linearGradient
       xlink:href="#linearGradient1507"
       id="linearGradient1556"
       x1="0.31111112"
       y1="-0.56250000"
       x2="0.62222224"
       y2="0.79687500" />
    <radialGradient
       xlink:href="#linearGradient1910"
       id="radialGradient856"
       r="0.46014288"
       fy="0.50000000"
       fx="0.50980395"
       cy="0.50000000"
       cx="0.50980395" />
    <linearGradient
       xlink:href="#linearGradient841"
       id="linearGradient1944" />
    <linearGradient
       xlink:href="#linearGradient846"
       id="linearGradient1674"
       x1="0.21705426"
       y1="0.10156250"
       x2="0.70542634"
       y2="0.83593750" />
    <radialGradient
       xlink:href="#linearGradient1675"
       id="radialGradient1679"
       cx="0.58914727"
       cy="0.60156250"
       r="0.65135020"
       fx="0.59689921"
       fy="0.59375000" />
    <linearGradient
       xlink:href="#linearGradient1696"
       id="linearGradient1700"
       x1="-0.72868216"
       y1="1.7265625"
       x2="1.3798449"
       y2="-0.44531250" />
    <linearGradient
       xlink:href="#linearGradient1722"
       id="linearGradient1706"
       x1="1.3647059"
       y1="2.2333333"
       x2="0.36470589"
       y2="-0.025000000" />
    <linearGradient
       xlink:href="#linearGradient1722"
       id="linearGradient1711"
       x1="0.51054853"
       y1="0.60937500"
       x2="0.44303799"
       y2="0.29687500" />
  </defs>
  <sodipodi:namedview
     id="base"
     pagecolor="#ffffff"
     bordercolor="#666666"
     borderopacity="1.0"
     inkscape:pageopacity="0.0"
     inkscape:pageshadow="2"
     inkscape:zoom="1.0697922"
     inkscape:cx="103.17895"
     inkscape:cy="-24.652154"
     inkscape:window-width="296"
     inkscape:window-height="491"
     inkscape:window-x="78"
     inkscape:window-y="9"
     showguides="true"
     snaptoguides="true" />
  <path
     style="fill:#ffffff;fill-rule:evenodd;stroke-width:0.42649043;stroke-opacity:0.36477986;"
     d="M 17.159384,6.3292894 L 17.159384,43.068526 L 17.159384,79.807768 L 17.159384,116.54700 L 17.159384,153.28624 L 50.687024,153.28624 L 84.214664,153.28624 L 117.74230,153.28624 L 151.26994,153.28624 L 151.26994,116.54700 L 151.26994,79.807768 L 151.26994,43.068526 L 117.74230,6.3292894 L 84.214664,6.3292894 L 50.687024,6.3292894 L 17.159384,6.3292894 z "
     id="path930"
     sodipodi:nodetypes="cccccccccccccccc" />
  <g
     id="g1552"
     transform="matrix(0.304171,0.000000,0.000000,0.297572,-36.70399,-112.4880)"
     style="fill:#000000;fill-opacity:0.069182344;">
    <path
       style="fill-opacity:0.069182344;fill-rule:evenodd;stroke-width:0.95407495pt;fill:#000000;"
       d="M 173.35959,408.81260 L 173.35959,531.07360 L 173.35959,653.33460 L 173.35959,775.59560 L 173.35959,897.85660 L 282.12187,897.85660 L 390.88417,897.85660 L 499.64646,897.85660 L 608.40874,897.85660 L 608.40874,775.59560 L 608.40874,653.33460 L 608.40874,531.07360 L 499.64646,408.81260 L 390.88417,408.81260 L 282.12187,408.81260 L 173.35959,408.81260 z "
       id="path1505"
       sodipodi:nodetypes="cccccccccccccccc" />
    <path
       style="fill-opacity:0.069182344;fill-rule:evenodd;stroke-width:0.95407495pt;fill:#000000;"
       d="M 170.12500,407.18750 C 170.12500,571.82292 170.12500,736.45833 170.12500,901.09375 C 317.30208,901.09375 464.47917,901.09375 611.65625,901.09375 C 611.65625,777.33333 611.65625,653.57292 611.65625,529.81250 C 574.80918,488.38978 537.97604,446.95335 501.09375,405.56250 C 390.77083,405.56250 280.44792,405.56250 170.12500,405.56250 C 170.12500,405.89583 170.12500,406.97917 170.12500,407.18750 z "
       id="path1538" />
    <path
       style="fill-opacity:0.069182344;fill-rule:evenodd;stroke-width:0.95407495pt;fill:#000000;"
       d="M 166.87500,403.93750 C 166.87500,570.73958 166.87500,737.54167 166.87500,904.34375 C 316.21875,904.34375 465.56250,904.34375 614.90625,904.34375 C 614.90625,779.08333 614.90625,653.82292 614.90625,528.56250 C 577.45517,486.47298 540.01754,444.37017 502.53125,402.31250 C 390.64583,402.31250 278.76042,402.31250 166.87500,402.31250 C 166.87500,402.64583 166.87500,403.72917 166.87500,403.93750 z "
       id="path1543" />
  </g>
  <path
     style="fill:url(#linearGradient1495);fill-opacity:0.75000000;fill-rule:evenodd;stroke:#000000;stroke-width:1.4375000;stroke-opacity:0.36477986;"
     d="M 297.99034,136.74154 L 297.99034,260.57234 L 297.99034,384.40315 L 297.99034,508.23395 L 297.99034,632.06475 L 410.99634,632.06475 L 524.00235,632.06475 L 637.00835,632.06475 L 750.01435,632.06475 L 750.01435,508.23395 L 750.01435,384.40315 L 750.01435,260.57234 L 637.00835,136.74154 L 524.00235,136.74154 L 410.99634,136.74154 L 297.99034,136.74154 z "
     id="rect900"
     sodipodi:nodetypes="cccccccccccccccc"
     transform="matrix(0.296689,0.000000,0.000000,0.296689,-71.19601,-34.05825)" />
  <path
     style="fill-opacity:1.0000000;fill-rule:evenodd;stroke-width:0.94098825pt;fill:#000000;"
     d="M 17.750000,6.3125000 L 17.750000,152.65625 L 41.000000,152.65625 L 41.000000,6.3125000 L 17.750000,6.3125000 z M 21.531250,9.8437500 L 37.812500,9.8437500 L 37.812500,22.937500 L 21.531250,22.937500 L 21.531250,9.8437500 z M 21.250000,28.062500 L 37.500000,28.062500 L 37.500000,41.187500 L 21.250000,41.187500 L 21.250000,28.062500 z M 126.86244,38.281250 L 126.86244,153.18750 L 150.34375,153.18750 L 150.34375,41.937500 L 126.86244,38.281250 z M 131.45619,48.375000 L 146.43750,48.375000 L 146.43750,61.500000 L 131.45619,61.500000 L 131.45619,48.375000 z M 21.250000,49.062500 L 37.500000,49.062500 L 37.500000,62.156250 L 21.250000,62.156250 L 21.250000,49.062500 z M 131.45619,67.281250 L 146.43750,67.281250 L 146.43750,80.375000 L 131.45619,80.375000 L 131.45619,67.281250 z M 21.250000,67.937500 L 37.500000,67.937500 L 37.500000,81.062500 L 21.250000,81.062500 L 21.250000,67.937500 z M 131.45619,86.687500 L 146.43750,86.687500 L 146.43750,99.781250 L 131.45619,99.781250 L 131.45619,86.687500 z M 21.250000,87.343750 L 37.500000,87.343750 L 37.500000,100.46875 L 21.250000,100.46875 L 21.250000,87.343750 z M 131.45619,104.50000 L 146.43750,104.50000 L 146.43750,117.62500 L 131.45619,117.62500 L 131.45619,104.50000 z M 21.250000,105.18750 L 37.500000,105.18750 L 37.500000,118.31250 L 21.250000,118.31250 L 21.250000,105.18750 z M 131.45619,122.87500 L 146.43750,122.87500 L 146.43750,136.00000 L 131.45619,136.00000 L 131.45619,122.87500 z M 21.250000,124.06250 L 37.500000,124.06250 L 37.500000,137.18750 L 21.250000,137.18750 L 21.250000,124.06250 z M 131.45619,141.00000 L 146.43750,141.00000 L 146.43750,149.31250 L 131.45619,149.31250 L 131.45619,141.00000 z M 21.250000,141.68750 L 37.500000,141.68750 L 37.500000,150.00000 L 21.250000,150.00000 L 21.250000,141.68750 z "
     id="rect1783"
     sodipodi:nodetypes="cccccccccccccccccccccccccccccccccccccccccccccccccccccccccccccccccccccccccccccccc" />
  <path
     sodipodi:type="arc"
     style="fill:url(#radialGradient1505);fill-opacity:0.75000000;fill-rule:evenodd;stroke-width:1.0000000pt;"
     id="path1809"
     sodipodi:cx="25.912205"
     sodipodi:cy="175.83524"
     sodipodi:rx="56.143108"
     sodipodi:ry="56.143108"
     d="M 82.055313 175.83524 A 56.143108 56.143108 0 1 0 -30.230904,175.83524 A 56.143108 56.143108 0 1 0 82.055313 175.83524 z"
     transform="matrix(0.643618,0.000000,0.000000,0.164793,71.38572,55.41787)" />
  <path
     sodipodi:type="arc"
     style="fill:url(#radialGradient864);fill-opacity:0.75000000;fill-rule:evenodd;stroke-width:1.0000000pt;"
     id="path1886"
     sodipodi:cx="83.827988"
     sodipodi:cy="70.979126"
     sodipodi:rx="43.026752"
     sodipodi:ry="43.026752"
     d="M 126.85474 70.979126 A 43.026752 43.026752 0 1 0 40.801235,70.979126 A 43.026752 43.026752 0 1 0 126.85474 70.979126 z"
     transform="matrix(0.677613,0.000000,0.000000,0.677613,24.35661,-0.683718)" />
  <path
     style="fill:#ffffff;fill-rule:evenodd;stroke-width:2.5000000;"
     d="M 82.057577,16.488414 C 64.426090,16.488413 50.113080,30.801423 50.113080,48.432909 C 50.113080,66.064402 64.426090,80.377402 82.057577,80.377402 C 99.689068,80.377402 114.00208,66.064402 114.00208,48.432909 C 114.00208,30.801423 99.689068,16.488414 82.057577,16.488414 z M 87.853780,20.163700 C 91.850940,20.163700 95.102662,23.400897 95.102662,27.398061 C 95.102662,31.395225 91.850940,34.646949 87.853780,34.646949 C 83.856613,34.646949 80.619422,31.395224 80.619422,27.398061 C 80.619422,23.400897 83.856613,20.163700 87.853780,20.163700 z M 66.310494,25.683895 C 70.307656,25.683895 73.544855,28.921093 73.544855,32.918256 C 73.544855,36.915420 70.307656,40.167143 66.310494,40.167142 C 62.313330,40.167142 59.061604,36.915419 59.061605,32.918256 C 59.061605,28.921093 62.313330,25.683895 66.310494,25.683895 z M 102.68567,35.678353 C 106.68283,35.678353 109.92004,38.930078 109.92003,42.927241 C 109.92003,46.924403 106.68282,50.161603 102.68567,50.161601 C 98.688508,50.161601 95.436785,46.924404 95.436785,42.927241 C 95.436785,38.930076 98.688508,35.678353 102.68567,35.678353 z M 80.866371,41.111386 C 81.913251,41.111386 82.769389,41.952999 82.769389,42.999874 C 82.769389,44.046751 81.913251,44.902889 80.866371,44.902890 C 79.819500,44.902890 78.977884,44.046752 78.977884,42.999874 C 78.977884,41.952998 79.819500,41.111386 80.866371,41.111386 z M 86.560895,42.229952 C 87.607767,42.229952 88.463905,43.086091 88.463905,44.132967 C 88.463905,45.179843 87.607767,46.021456 86.560895,46.021456 C 85.514016,46.021456 84.672407,45.179843 84.672407,44.132967 C 84.672407,43.086091 85.514016,42.229951 86.560895,42.229952 z M 76.479271,45.338693 C 77.526150,45.338693 78.367759,46.180306 78.367759,47.227180 C 78.367759,48.274058 77.526150,49.130196 76.479271,49.130197 C 75.432399,49.130197 74.576261,48.274061 74.576261,47.227180 C 74.576261,46.180305 75.432399,45.338693 76.479271,45.338693 z M 60.441654,46.718743 C 64.438818,46.718743 67.690542,49.955940 67.690541,53.953102 C 67.690541,57.950267 64.438818,61.201989 60.441654,61.201989 C 56.444491,61.201989 53.207294,57.950267 53.207294,53.953102 C 53.207294,49.955940 56.444491,46.718742 60.441654,46.718743 z M 88.463905,48.345746 C 89.510777,48.345746 90.352393,49.201887 90.352393,50.248762 C 90.352393,51.295638 89.510777,52.137249 88.463905,52.137250 C 87.417034,52.137250 86.560895,51.295640 86.560895,50.248762 C 86.560895,49.201885 87.417034,48.345746 88.463905,48.345746 z M 78.280601,51.018684 C 79.327473,51.018684 80.183611,51.874821 80.183611,52.921698 C 80.183611,53.968573 79.327481,54.810187 78.280601,54.810186 C 77.233722,54.810186 76.392113,53.968573 76.392113,52.921698 C 76.392113,51.874821 77.233722,51.018684 78.280601,51.018684 z M 84.323762,52.747376 C 85.370634,52.747376 86.212250,53.603516 86.212250,54.650391 C 86.212250,55.697266 85.370634,56.538876 84.323762,56.538879 C 83.276883,56.538879 82.420744,55.697267 82.420744,54.650391 C 82.420744,53.603514 83.276883,52.747375 84.323762,52.747376 z M 97.688448,56.887521 C 101.68562,56.887521 104.92281,60.124717 104.92281,64.121888 C 104.92281,68.119052 101.68562,71.370782 97.688448,71.370782 C 93.691280,71.370782 90.439558,68.119052 90.439558,64.121888 C 90.439558,60.124717 93.691280,56.887523 97.688448,56.887521 z M 76.987716,62.059072 C 80.984875,62.059072 84.236597,65.296272 84.236597,69.293442 C 84.236597,73.290602 80.984875,76.542332 76.987716,76.542332 C 72.990549,76.542332 69.753351,73.290602 69.753351,69.293442 C 69.753351,65.296272 72.990549,62.059072 76.987716,62.059072 z "
     id="path1903" />
  <path
     style="fill:#565248;fill-rule:evenodd;stroke-width:1.0000000pt;"
     d="M 81.342431,26.378744 C 69.338955,26.378744 59.591282,36.126415 59.591282,48.129894 C 59.591282,60.133372 69.338954,69.881042 81.342431,69.881042 C 93.345908,69.881042 103.07919,60.133372 103.07919,48.129894 C 103.07920,36.126416 93.345908,26.378744 81.342431,26.378744 z M 80.147629,40.817130 C 81.185018,40.817130 82.033398,41.651118 82.033400,42.688507 C 82.033400,43.725896 81.185017,44.574276 80.147629,44.574278 C 79.110239,44.574278 78.276253,43.725896 78.276252,42.688507 C 78.276252,41.651118 79.110237,40.817131 80.147629,40.817130 z M 85.790548,41.925561 C 86.827937,41.925561 87.676319,42.773940 87.676319,43.811334 C 87.676319,44.848723 86.827936,45.682709 85.790548,45.682709 C 84.753158,45.682709 83.919170,44.848721 83.919171,43.811334 C 83.919171,42.773943 84.753156,41.925559 85.790548,41.925561 z M 75.800277,45.006134 C 76.837669,45.006134 77.671655,45.840120 77.671654,46.877511 C 77.671654,47.914902 76.837669,48.763280 75.800277,48.763281 C 74.762887,48.763281 73.914510,47.914902 73.914507,46.877511 C 73.914507,45.840119 74.762887,45.006134 75.800277,45.006134 z M 87.676319,47.985941 C 88.713709,47.985941 89.547695,48.834322 89.547695,49.871712 C 89.547695,50.909103 88.713709,51.743087 87.676319,51.743089 C 86.638929,51.743089 85.790546,50.909103 85.790548,49.871712 C 85.790548,48.834321 86.638928,47.985940 87.676319,47.985941 z M 77.585283,50.634657 C 78.622674,50.634657 79.471053,51.483037 79.471054,52.520429 C 79.471054,53.557820 78.622677,54.391806 77.585283,54.391806 C 76.547892,54.391806 75.713909,53.557818 75.713907,52.520429 C 75.713907,51.483038 76.547894,50.634656 77.585283,50.634657 z M 83.573686,52.347687 C 84.611076,52.347687 85.445061,53.196068 85.445063,54.233460 C 85.445063,55.270848 84.611074,56.104830 83.573686,56.104836 C 82.536296,56.104836 81.687913,55.270848 81.687915,54.233460 C 81.687915,53.196068 82.536295,52.347685 83.573686,52.347687 z "
     id="path910" />
  <path
     style="fill:url(#linearGradient1704);fill-opacity:0.75000000;fill-rule:evenodd;stroke-width:2.5000000;"
     d="M 82.109840,17.660320 C 64.638114,17.660320 50.454793,31.554573 50.454793,48.670211 C 50.454793,65.785842 64.638114,79.680102 82.109840,79.680102 C 99.581568,79.680102 113.76488,65.785842 113.76488,48.670211 C 113.76488,31.554574 99.581568,17.660320 82.109840,17.660320 z M 87.853524,21.228079 C 91.814471,21.228079 95.036738,24.370563 95.036738,28.250783 C 95.036738,32.131001 91.814467,35.287588 87.853524,35.287588 C 83.892581,35.287588 80.684717,32.130999 80.684715,28.250783 C 80.684715,24.370564 83.892579,21.228079 87.853524,21.228079 z M 66.505443,26.586769 C 70.466388,26.586769 73.674252,29.729254 73.674252,33.609473 C 73.674252,37.489691 70.466389,40.646279 66.505443,40.646278 C 62.544498,40.646278 59.322237,37.489691 59.322237,33.609473 C 59.322237,29.729254 62.544498,26.586768 66.505443,26.586769 z M 102.55103,36.288817 C 106.51197,36.288817 109.71984,39.445406 109.71984,43.325625 C 109.71984,47.205842 106.51197,50.348330 102.55103,50.348329 C 98.590068,50.348329 95.367825,47.205842 95.367825,43.325625 C 95.367825,39.445405 98.590068,36.288817 102.55103,36.288817 z M 80.929434,41.562898 C 81.966825,41.562898 82.815205,42.379887 82.815206,43.396133 C 82.815206,44.412379 81.966826,45.243469 80.929434,45.243470 C 79.892044,45.243470 79.058057,44.412381 79.058057,43.396133 C 79.058057,42.379884 79.892045,41.562897 80.929434,41.562898 z M 86.572353,42.648736 C 87.609741,42.648736 88.458123,43.479828 88.458123,44.496074 C 88.458123,45.512321 87.609741,46.329311 86.572353,46.329310 C 85.534963,46.329310 84.700977,45.512321 84.700977,44.496074 C 84.700977,43.479828 85.534963,42.648735 86.572353,42.648736 z M 76.582084,45.666524 C 77.619474,45.666524 78.453460,46.483515 78.453460,47.499761 C 78.453460,48.516008 77.619472,49.347099 76.582084,49.347100 C 75.544693,49.347100 74.696313,48.516010 74.696311,47.499761 C 74.696311,46.483514 75.544691,45.666525 76.582084,45.666524 z M 60.689780,47.006197 C 64.650726,47.006197 67.872988,50.148685 67.872987,54.028902 C 67.872987,57.909121 64.650726,61.065701 60.689780,61.065701 C 56.728836,61.065701 53.520971,57.909121 53.520971,54.028902 C 53.520971,50.148685 56.728836,47.006197 60.689780,47.006197 z M 88.458123,48.585602 C 89.495513,48.585602 90.329499,49.416693 90.329499,50.432938 C 90.329499,51.449187 89.495513,52.266173 88.458123,52.266174 C 87.420734,52.266174 86.572353,51.449189 86.572353,50.432938 C 86.572353,49.416691 87.420734,48.585602 88.458123,48.585602 z M 78.367089,51.180335 C 79.404479,51.180335 80.252859,52.011425 80.252860,53.027672 C 80.252860,54.043922 79.404480,54.860910 78.367089,54.860909 C 77.329699,54.860909 76.495711,54.043921 76.495711,53.027672 C 76.495711,52.011425 77.329699,51.180334 78.367089,51.180335 z M 84.355492,52.858451 C 85.392881,52.858451 86.226868,53.689542 86.226868,54.705789 C 86.226868,55.722039 85.392881,56.539024 84.355492,56.539024 C 83.318101,56.539024 82.469719,55.722039 82.469720,54.705789 C 82.469720,53.689541 83.318101,52.858451 84.355492,52.858451 z M 97.599082,56.877466 C 101.56003,56.877466 104.76788,60.019948 104.76788,63.900167 C 104.76788,67.780392 101.56003,70.936962 97.599082,70.936962 C 93.638132,70.936962 90.415871,67.780382 90.415871,63.900167 C 90.415871,60.019948 93.638132,56.877470 97.599082,56.877466 z M 77.085915,61.897711 C 81.046860,61.897711 84.269118,65.040192 84.269120,68.920412 C 84.269120,72.800642 81.046861,75.957232 77.085915,75.957222 C 73.124970,75.957222 69.917106,72.800632 69.917106,68.920412 C 69.917106,65.040192 73.124971,61.897711 77.085915,61.897711 z "
     id="path1705" />
  <path
     style="fill:url(#linearGradient852);fill-rule:evenodd;stroke:url(#linearGradient845);stroke-width:0.97543842;"
     d="M 81.848964,16.474847 C 64.097661,16.474846 49.687383,30.885123 49.687383,48.636427 C 49.687383,66.387732 64.097661,80.798012 81.848964,80.798012 C 99.600268,80.798012 114.01055,66.387732 114.01055,48.636427 C 114.01055,30.885123 99.600268,16.474847 81.848964,16.474847 z M 87.684558,20.175109 C 91.708885,20.175109 94.982705,23.434305 94.982705,27.458633 C 94.982705,31.482960 91.708881,34.756781 87.684558,34.756781 C 83.660231,34.756781 80.401036,31.482960 80.401034,27.458633 C 80.401034,23.434306 83.660230,20.175109 87.684558,20.175109 z M 65.994871,25.732818 C 70.019196,25.732818 73.278393,28.992015 73.278394,33.016341 C 73.278394,37.040669 70.019196,40.314489 65.994871,40.314489 C 61.970543,40.314489 58.696720,37.040668 58.696721,33.016341 C 58.696721,28.992015 61.970543,25.732817 65.994871,25.732818 z M 102.61724,35.795196 C 106.64156,35.795196 109.90077,39.069018 109.90077,43.093345 C 109.90077,47.117670 106.64155,50.376869 102.61724,50.376868 C 98.592918,50.376868 95.319092,47.117671 95.319092,43.093345 C 95.319092,39.069016 98.592918,35.795196 102.61724,35.795196 z M 80.649670,41.265149 C 81.703658,41.265149 82.565613,42.112482 82.565616,43.166471 C 82.565616,44.220462 81.703660,45.082419 80.649670,45.082420 C 79.595679,45.082420 78.748347,44.220463 78.748348,43.166471 C 78.748348,42.112481 79.595680,41.265149 80.649670,41.265149 z M 86.382885,42.391317 C 87.436874,42.391317 88.298831,43.253274 88.298831,44.307265 C 88.298831,45.361255 87.436873,46.208588 86.382885,46.208587 C 85.328894,46.208587 84.481564,45.361255 84.481563,44.307265 C 84.481563,43.253274 85.328893,42.391316 86.382885,42.391317 z M 76.232753,45.521185 C 77.286745,45.521185 78.134073,46.368517 78.134074,47.422505 C 78.134074,48.476498 77.286743,49.338454 76.232753,49.338454 C 75.178764,49.338454 74.316808,48.476500 74.316807,47.422505 C 74.316807,46.368516 75.178762,45.521185 76.232753,45.521185 z M 60.086148,46.910612 C 64.110475,46.910612 67.384297,50.169809 67.384296,54.194135 C 67.384296,58.218463 64.110475,61.492283 60.086148,61.492283 C 56.061821,61.492283 52.802626,58.218463 52.802626,54.194135 C 52.802626,50.169809 56.061821,46.910612 60.086148,46.910612 z M 88.298831,48.548672 C 89.352820,48.548672 90.200152,49.410631 90.200152,50.464621 C 90.200152,51.518611 89.352820,52.365942 88.298831,52.365943 C 87.244841,52.365943 86.382885,51.518612 86.382885,50.464621 C 86.382885,49.410630 87.244841,48.548672 88.298831,48.548672 z M 78.046321,51.239775 C 79.100312,51.239775 79.962267,52.101730 79.962268,53.155721 C 79.962268,54.209711 79.100314,55.057044 78.046321,55.057042 C 76.992332,55.057042 76.144999,54.209711 76.144999,53.155721 C 76.144999,52.101730 76.992332,51.239775 78.046321,51.239775 z M 84.130549,52.980215 C 85.184541,52.980215 86.031871,53.842173 86.031870,54.896161 C 86.031870,55.950152 85.184541,56.797481 84.130549,56.797483 C 83.076560,56.797483 82.214602,55.950152 82.214603,54.896161 C 82.214603,53.842171 83.076560,52.980214 84.130549,52.980215 z M 97.586058,57.148496 C 101.61039,57.148496 104.86958,60.407691 104.86958,64.432023 C 104.86958,68.456352 101.61039,71.730182 97.586058,71.730182 C 93.561726,71.730182 90.287906,68.456352 90.287906,64.432023 C 90.287906,60.407691 93.561731,57.148497 97.586058,57.148496 z M 76.744649,62.355190 C 80.768976,62.355190 84.042794,65.614382 84.042796,69.638722 C 84.042796,73.663042 80.768977,76.936872 76.744649,76.936862 C 72.720320,76.936862 69.461125,73.663032 69.461125,69.638722 C 69.461125,65.614382 72.720321,62.355190 76.744649,62.355190 z "
     id="path909" />
  <path
     style="fill:url(#radialGradient861);fill-rule:evenodd;stroke-width:1.0000000pt;"
     d="M 74.752749,21.371044 C 74.090888,21.540700 76.020222,31.834146 77.323431,39.669874 C 78.514504,39.075809 79.841730,38.702413 81.262378,38.702413 C 81.281151,38.702413 81.298914,38.702295 81.317661,38.702413 C 78.688135,31.202079 75.416104,21.201005 74.752749,21.371044 z M 100.62542,28.613179 C 100.14468,28.121878 92.106838,35.032994 85.961473,40.084500 C 87.141108,40.825640 88.115974,41.834481 88.836213,43.028344 C 94.020103,36.994237 101.10615,29.104479 100.62542,28.613179 z M 56.274248,40.056856 C 55.834784,40.038577 55.568874,40.070402 55.541742,40.167424 C 55.359771,40.818181 65.014934,44.219557 72.430843,46.994934 C 72.526073,45.576107 72.948347,44.256406 73.633258,43.097449 C 66.998769,41.842427 58.795709,40.161741 56.274248,40.056856 z M 90.121554,47.699797 C 90.103456,49.134716 89.721487,50.472161 89.098809,51.666386 C 96.900379,53.139804 107.10341,55.294673 107.28708,54.637872 C 107.47136,53.978847 97.561742,50.490874 90.121554,47.699797 z M 73.674721,52.150116 C 68.513589,58.141880 61.746520,65.711072 62.217222,66.192112 C 62.687530,66.672762 70.379758,60.081065 76.480357,55.052498 C 75.328967,54.315248 74.381807,53.322182 73.674721,52.150116 z M 85.546845,55.315095 C 84.379767,55.964178 83.063379,56.358434 81.649361,56.420764 C 84.261328,63.892543 87.436133,73.588012 88.089888,73.420422 C 88.746382,73.252152 86.851053,63.132411 85.546845,55.315095 z "
     id="polygon1708" />
  <path
     style="fill:url(#radialGradient1679);fill-opacity:0.75000000;fill-rule:evenodd;stroke-width:1.0000000pt;"
     d="M 81.587148,38.701037 C 76.385643,38.701038 72.158292,42.928387 72.158292,48.129894 C 72.158293,53.331401 76.385642,57.558749 81.587148,57.558749 C 86.788656,57.558750 91.001610,53.331400 91.001610,48.129894 C 91.001610,42.928388 86.788655,38.701037 81.587148,38.701037 z M 80.147629,40.817130 C 81.185020,40.817130 82.033397,41.651118 82.033400,42.688507 C 82.033400,43.725896 81.185020,44.574277 80.147629,44.574278 C 79.110238,44.574278 78.276251,43.725898 78.276252,42.688507 C 78.276252,41.651118 79.110237,40.817130 80.147629,40.817130 z M 85.790548,41.925561 C 86.827938,41.925561 87.676319,42.773943 87.676319,43.811334 C 87.676319,44.848723 86.827936,45.682709 85.790548,45.682709 C 84.753157,45.682709 83.919171,44.848722 83.919171,43.811334 C 83.919171,42.773943 84.753154,41.925560 85.790548,41.925561 z M 75.800277,45.006134 C 76.837669,45.006134 77.671652,45.840120 77.671654,46.877511 C 77.671654,47.914902 76.837666,48.763280 75.800277,48.763281 C 74.762887,48.763281 73.914505,47.914903 73.914507,46.877511 C 73.914507,45.840119 74.762885,45.006134 75.800277,45.006134 z M 87.676319,47.985941 C 88.713709,47.985941 89.547695,48.834324 89.547695,49.871712 C 89.547695,50.909103 88.713709,51.743087 87.676319,51.743089 C 86.638928,51.743089 85.790545,50.909104 85.790548,49.871712 C 85.790548,48.834321 86.638928,47.985941 87.676319,47.985941 z M 77.585283,50.634657 C 78.622674,50.634657 79.471051,51.483038 79.471054,52.520429 C 79.471054,53.557820 78.622673,54.391806 77.585283,54.391806 C 76.547892,54.391806 75.713905,53.557819 75.713907,52.520429 C 75.713907,51.483038 76.547892,50.634657 77.585283,50.634657 z M 83.573686,52.347687 C 84.611076,52.347687 85.445062,53.196068 85.445063,54.233460 C 85.445063,55.270848 84.611075,56.104833 83.573686,56.104836 C 82.536295,56.104836 81.687912,55.270848 81.687915,54.233460 C 81.687915,53.196068 82.536294,52.347686 83.573686,52.347687 z "
     id="path911" />
  <path
     sodipodi:type="arc"
     style="fill:url(#radialGradient1702);fill-opacity:0.28301886;fill-rule:evenodd;stroke-width:1.0000000pt;"
     id="path1504"
     sodipodi:cx="112.00817"
     sodipodi:cy="77.668579"
     sodipodi:rx="6.4905396"
     sodipodi:ry="6.4905396"
     d="M 118.49871 77.668579 A 6.4905396 6.4905396 0 1 0 105.51763,77.668579 A 6.4905396 6.4905396 0 1 0 118.49871 77.668579 z"
     transform="matrix(-0.460646,0.000000,0.000000,0.460646,134.0712,13.04000)" />
  <path
     sodipodi:type="arc"
     style="fill:url(#linearGradient1700);fill-opacity:0.75000000;fill-rule:evenodd;stroke-width:1.0000000pt;"
     id="path1867"
     sodipodi:cx="112.37906"
     sodipodi:cy="77.483139"
     sodipodi:rx="5.5633197"
     sodipodi:ry="5.5633197"
     d="M 117.94238 77.483139 A 5.5633197 5.5633197 0 1 0 106.81574,77.483139 A 5.5633197 5.5633197 0 1 0 117.94238 77.483139 z"
     transform="matrix(-0.460646,0.000000,0.000000,0.460646,133.0461,12.52746)" />
  <path
     sodipodi:type="arc"
     style="fill:url(#linearGradient1701);fill-opacity:0.75000000;fill-rule:evenodd;stroke-width:1.0000000pt;"
     id="path1506"
     sodipodi:cx="112.74995"
     sodipodi:cy="77.112251"
     sodipodi:rx="2.5962157"
     sodipodi:ry="2.5962157"
     d="M 115.34616 77.112251 A 2.5962157 2.5962157 0 1 0 110.15373,77.112251 A 2.5962157 2.5962157 0 1 0 115.34616 77.112251 z"
     transform="matrix(-0.460646,0.000000,0.000000,0.460646,133.0461,12.52746)" />
  <path
     style="fill:url(#linearGradient1497);fill-opacity:0.75000000;fill-rule:evenodd;stroke-width:0.95407495pt;"
     d="M 750.01435,260.57234 C 715.94460,250.48602 671.79788,251.91624 638.44792,257.66516 C 644.20618,220.71628 644.92597,174.41021 637.00835,136.74154 L 750.01435,260.57234 z "
     id="path906"
     sodipodi:nodetypes="cccc"
     transform="matrix(0.296689,0.000000,0.000000,0.296689,-71.19601,-34.05825)" />
  <path
     style="fill-opacity:0.42138365;fill-rule:evenodd;stroke-width:0.95407495pt;fill:url(#linearGradient840);"
     d="M 119.31250 15.500000 C 119.59612 18.530879 119.73666 21.649049 119.75000 24.750000 C 119.77670 30.951901 119.32296 37.143837 118.46875 42.625000 C 128.36332 40.919359 141.45437 40.476249 151.56250 43.468750 L 134.78125 25.093750 L 126.40625 15.906250 L 119.31250 15.500000 z M 124.75000 20.562500 L 129.03125 20.937500 L 143.53125 37.156250 C 138.22565 35.791952 128.64783 35.967789 125.03125 36.375000 C 126.11392 32.234551 125.65953 24.958573 124.75000 20.562500 z "
     id="path1901" />
  <path
     style="fill:url(#linearGradient844);fill-opacity:0.45911947;fill-rule:evenodd;stroke-width:0.94098825pt;"
     d="M 17.062500,6.3437500 C 17.062500,55.343750 17.062500,104.34375 17.062500,153.34375 C 25.250001,153.34375 33.437499,153.34375 41.625000,153.34375 C 41.625000,104.12500 41.625000,54.906250 41.625000,5.6875000 C 33.437499,5.6875000 25.250001,5.6875000 17.062500,5.6875000 L 17.062500,6.3437500 z M 37.125000,10.531250 C 36.681679,14.235337 38.010652,19.711719 36.464024,22.312500 C 31.694767,22.312500 26.925509,22.312500 22.156250,22.312500 C 22.599570,18.608413 21.270597,13.132031 22.817226,10.531250 C 27.586485,10.531250 32.355742,10.531250 37.125000,10.531250 z M 36.812500,28.750000 C 36.372324,32.467649 37.693746,37.946897 36.151524,40.562500 C 31.392682,40.562500 26.633841,40.562500 21.875000,40.562500 C 22.315176,36.844851 20.993754,31.365603 22.535976,28.750000 C 27.294818,28.750000 32.053658,28.750000 36.812500,28.750000 z M 36.812500,49.750000 C 36.369179,53.454087 37.698152,58.930469 36.151524,61.531250 C 31.392682,61.531250 26.633841,61.531250 21.875000,61.531250 C 22.318321,57.827163 20.989347,52.350781 22.535976,49.750000 C 27.294818,49.750000 32.053658,49.750000 36.812500,49.750000 z M 36.812500,68.625000 C 36.372324,72.342649 37.693746,77.821897 36.151524,80.437500 C 31.392682,80.437500 26.633841,80.437500 21.875000,80.437500 C 22.315176,76.719851 20.993754,71.240603 22.535976,68.625000 C 27.294818,68.625000 32.053658,68.625000 36.812500,68.625000 z M 36.812500,88.031250 C 36.372324,91.748899 37.693746,97.228147 36.151524,99.843750 C 31.392682,99.843750 26.633841,99.843750 21.875000,99.843750 C 22.315176,96.126101 20.993754,90.646853 22.535976,88.031250 C 27.294818,88.031250 32.053658,88.031250 36.812500,88.031250 z M 36.812500,105.87500 C 36.372324,109.59265 37.693746,115.07190 36.151524,117.68750 C 31.392682,117.68750 26.633841,117.68750 21.875000,117.68750 C 22.315176,113.96985 20.993754,108.49060 22.535976,105.87500 C 27.294818,105.87500 32.053658,105.87500 36.812500,105.87500 z M 36.812500,124.75000 C 36.372324,128.46765 37.693746,133.94690 36.151524,136.56250 C 31.392682,136.56250 26.633841,136.56250 21.875000,136.56250 C 22.315176,132.84485 20.993754,127.36560 22.535976,124.75000 C 27.294818,124.75000 32.053658,124.75000 36.812500,124.75000 z M 36.812500,142.37500 C 37.333398,146.99183 37.325603,151.07997 31.524693,149.37500 C 28.415104,148.38672 20.906506,151.79746 21.875000,146.73110 C 19.948367,140.70853 25.924549,142.58877 29.806710,142.37500 C 32.141973,142.37500 34.477237,142.37500 36.812500,142.37500 z "
     id="path1582"
     sodipodi:nodetypes="cccccccccccccccccccccccccccccccccccccccccccccc" />
  <g
     id="g2420"
     transform="matrix(0.735102,0.000000,0.000000,0.735102,46.00558,-101.6302)">
    <path
       sodipodi:type="arc"
       style="fill:url(#radialGradient4069);fill-opacity:0.75000000;fill-rule:evenodd;stroke-width:1.0000000pt;"
       id="path4291"
       sodipodi:cx="25.912205"
       sodipodi:cy="175.83524"
       sodipodi:rx="56.143108"
       sodipodi:ry="56.143108"
       d="M 82.055313 175.83524 A 56.143108 56.143108 0 1 0 -30.230904,175.83524 A 56.143108 56.143108 0 1 0 82.055313 175.83524 z"
       transform="matrix(1.055538,0.000000,0.000000,0.361031,80.73038,276.6947)" />
    <g
       id="g4532"
       transform="matrix(0.484039,0.000000,0.000000,0.484039,-183.3603,106.5026)">
      <g
         id="g4282"
         transform="matrix(3.410966,0.000000,0.000000,3.410966,-1551.297,-1986.944)">
        <path
           style="fill:#46a046;fill-rule:evenodd;stroke-width:1.0000000pt;"
           d="M -1.8698981,28.049710 L -11.807398,45.955960 C -2.6989231,47.487156 3.4218049,51.881625 6.8488519,56.768460 L 17.036352,38.268460 C 17.036352,38.268460 11.635202,29.332744 -1.8698981,28.049710 z "
           id="path3996"
           sodipodi:nodetypes="ccccc"
           transform="translate(643.1250,649.9279)" />
        <path
           style="fill:#df421e;fill-rule:evenodd;stroke-width:1.0000000pt;"
           d="M -23.283050,17.240626 L -33.064300,34.865626 C -31.526088,39.033397 -25.765443,44.592240 -15.251800,45.553126 L -5.3455501,27.740626 C -18.962265,26.537578 -23.283051,17.240626 -23.283050,17.240626 z "
           id="path4006"
           sodipodi:nodetypes="ccccc"
           transform="translate(643.1250,649.9279)" />
        <path
           style="fill:#4b6983;fill-rule:evenodd;stroke-width:1.0000000pt;"
           d="M -35.257897,38.571244 L -45.289147,56.633744 C -45.289147,56.633744 -41.841722,65.371973 -27.351648,67.102503 L -17.101648,48.664994 C -26.128806,47.478074 -32.348380,43.274707 -35.257897,38.571244 z "
           id="path4007"
           sodipodi:nodetypes="ccccc"
           transform="translate(643.1250,649.9279)" />
        <path
           style="fill:#eed680;fill-rule:evenodd;stroke-width:1.0000000pt;"
           d="M -13.666122,49.295741 L -23.884872,67.702003 C -9.8599741,69.674753 -5.1348701,78.577003 -5.1348721,78.577003 L 4.9901279,60.170753 C 2.3644789,55.469651 -3.7150041,50.639771 -13.666122,49.295741 z "
           id="path4008"
           sodipodi:nodetypes="ccccc"
           transform="translate(643.1250,649.9279)" />
        <path
           style="fill:url(#linearGradient4020);fill-rule:evenodd;stroke-width:1.0000000pt;"
           d="M 642.41713,680.11634 L 631.47878,695.94599 C 640.58726,697.53497 646.70799,702.09527 650.13503,707.16651 L 660.32253,687.96839 C 660.32253,687.96839 655.92223,681.44780 642.41713,680.11634 z "
           id="path4010"
           sodipodi:nodetypes="ccccc" />
        <path
           style="fill:url(#linearGradient4017);fill-rule:evenodd;stroke-width:1.0000000pt;"
           d="M 630.01081,700.94394 L 619.04142,717.79288 C 633.06632,719.84007 638.15751,728.34609 638.15751,728.34609 L 647.91642,709.97742 C 645.29077,705.09891 639.96193,702.33868 630.01081,700.94394 z "
           id="path4013"
           sodipodi:nodetypes="ccccc" />
        <path
           style="fill:url(#linearGradient4019);fill-rule:evenodd;stroke-width:1.0000000pt;"
           d="M 621.16422,669.90877 L 610.22189,684.25719 C 611.76010,688.58224 617.30972,694.66739 627.82337,695.66453 L 637.85067,677.58311 C 624.23395,676.33466 620.98428,671.07842 621.16422,669.90877 z "
           id="path4011"
           sodipodi:nodetypes="ccccc" />
        <path
           style="fill:url(#linearGradient4018);fill-rule:evenodd;stroke-width:1.0000000pt;"
           d="M 608.36847,690.90894 L 598.08701,706.40030 C 598.08701,706.40030 601.53444,715.46828 616.02451,717.26410 L 626.27451,698.13084 C 617.24735,696.89913 611.27799,695.78989 608.36847,690.90894 z "
           id="path4012"
           sodipodi:nodetypes="ccccc" />
      </g>
      <path
         style="fill:url(#linearGradient3969);fill-opacity:0.75000000;fill-rule:evenodd;stroke-width:1.0000000pt;"
         d="M 533.77948,346.30595 L 555.15596,307.62471 C 558.63624,301.32706 565.50489,298.80267 569.40694,302.53507 C 573.18422,306.14812 581.62207,317.29502 592.31031,318.31295 C 602.99855,319.33088 608.59715,324.42051 608.59715,324.42051 C 612.66886,330.52807 588.23860,376.33481 579.07726,376.33481 C 569.91591,376.33481 536.83326,360.04797 533.77948,346.30595 z "
         id="path4528"
         sodipodi:nodetypes="czzcccc" />
      <path
         style="fill:url(#linearGradient3978);fill-opacity:0.75000000;fill-rule:evenodd;stroke-width:1.0000000pt;"
         d="M 517.52882,377.65090 C 520.66743,372.22195 528.13223,373.15505 531.77980,375.61504 C 534.73776,377.60994 555.70110,394.95566 562.82659,393.93774 C 569.95208,392.91981 541.45011,448.90582 532.79773,447.88789 C 524.14535,446.86997 490.04478,425.49349 494.11649,420.40385 C 498.18820,415.31421 514.49981,382.89027 517.52882,377.65090 z "
         id="path4529"
         sodipodi:nodetypes="czcccz" />
      <path
         style="fill:url(#linearGradient3983);fill-opacity:0.75000000;fill-rule:evenodd;stroke-width:1.0000000pt;"
         d="M 610.37636,380.80423 L 629.81051,341.93592 C 633.81666,333.92362 646.75061,328.51069 655.00294,332.57874 C 663.52038,336.77748 687.39319,343.37549 688.11297,349.85354 C 688.83276,356.33159 660.76120,405.27686 651.40402,402.39773 C 642.04683,399.51860 608.93680,382.96358 610.37636,380.80423 z "
         id="path4530"
         sodipodi:nodetypes="czzccc" />
      <path
         style="fill:url(#linearGradient4033);fill-opacity:0.75000000;fill-rule:evenodd;stroke-width:1.0000000pt;"
         d="M 566.98562,456.36562 L 588.87107,416.15749 C 592.86102,408.82712 604.47929,400.71892 611.26547,404.96029 C 617.24936,408.70022 637.22262,412.08578 644.34811,424.30091 C 651.47361,436.51604 632.64195,461.96423 630.60609,463.49112 C 628.57024,465.01801 619.40889,479.26899 611.77443,477.23314 C 604.13998,475.19728 574.62008,450.25806 566.98562,456.36562 z "
         id="path4531"
         sodipodi:nodetypes="czzcccc" />
    </g>
  </g>
</svg>
