<?xml version="1.0" encoding="UTF-8" standalone="no"?>
<!-- Created with Inkscape (http://www.inkscape.org/) -->
<svg
   xmlns:dc="http://purl.org/dc/elements/1.1/"
   xmlns:cc="http://web.resource.org/cc/"
   xmlns:rdf="http://www.w3.org/1999/02/22-rdf-syntax-ns#"
   xmlns:svg="http://www.w3.org/2000/svg"
   xmlns="http://www.w3.org/2000/svg"
   xmlns:xlink="http://www.w3.org/1999/xlink"
   xmlns:sodipodi="http://inkscape.sourceforge.net/DTD/sodipodi-0.dtd"
   xmlns:inkscape="http://www.inkscape.org/namespaces/inkscape"
   id="svg1"
   sodipodi:version="0.32"
   inkscape:version="0.41+cvs"
   width="48.000000pt"
   height="48.000000pt"
   sodipodi:docbase="/home/david/.icons/eXperience/normal/mimetypes"
   sodipodi:docname="gnome-mime-image-svg+xml.svg">
  <defs
     id="defs3">
    <linearGradient
       id="linearGradient3122">
      <stop
         style="stop-opacity:1.0000000;stop-color:#fac000"
         offset="0"
         id="stop3124" />
      <stop
         style="stop-opacity:1.0000000;stop-color:#ffff1d"
         offset="1"
         id="stop3126" />
    </linearGradient>
    <linearGradient
       id="linearGradient1766">
      <stop
         style="stop-color:#000000;stop-opacity:1;"
         offset="0"
         id="stop1767" />
      <stop
         style="stop-color:#000000;stop-opacity:0;"
         offset="1"
         id="stop1768" />
    </linearGradient>
    <linearGradient
       id="linearGradient1762">
      <stop
         style="stop-color:#968ecd;stop-opacity:1.0000000;"
         offset="0.0000000"
         id="stop1763" />
      <stop
         style="stop-color:#554d85;stop-opacity:1.0000000;"
         offset="1.0000000"
         id="stop1764" />
    </linearGradient>
    <linearGradient
       id="linearGradient1751">
      <stop
         style="stop-color:#ffffff;stop-opacity:1.0000000;"
         offset="0.0000000"
         id="stop1752" />
      <stop
         style="stop-color:#afd3ff;stop-opacity:1.0000000;"
         offset="1.0000000"
         id="stop1753" />
    </linearGradient>
    <linearGradient
       id="linearGradient1746">
      <stop
         style="stop-color:#ffffff;stop-opacity:1.0000000;"
         offset="0.0000000"
         id="stop1747" />
      <stop
         style="stop-color:#ffffff;stop-opacity:0.0000000;"
         offset="1.0000000"
         id="stop1748" />
    </linearGradient>
    <radialGradient
       inkscape:collect="always"
       xlink:href="#linearGradient1746"
       id="radialGradient3167"
       gradientUnits="userSpaceOnUse"
       gradientTransform="matrix(0.955666,0.000000,0.000000,0.635799,7.628159,11.40115)"
       cx="43.392352"
       cy="3.1320463"
       fx="43.392352"
       fy="3.1320463"
       r="59.917704" />
    <linearGradient
       inkscape:collect="always"
       xlink:href="#linearGradient1762"
       id="linearGradient3174"
       gradientUnits="userSpaceOnUse"
       gradientTransform="matrix(0.754092,0.000000,0.000000,0.805753,7.628159,11.75470)"
       x1="22.609107"
       y1="7.0258278"
       x2="58.475802"
       y2="51.416283" />
    <linearGradient
       inkscape:collect="always"
       xlink:href="#linearGradient3122"
       id="linearGradient3178"
       gradientUnits="userSpaceOnUse"
       x1="30.228815"
       y1="53.989590"
       x2="11.136931"
       y2="29.324306" />
    <linearGradient
       inkscape:collect="always"
       xlink:href="#linearGradient1751"
       id="linearGradient3181"
       gradientUnits="userSpaceOnUse"
       gradientTransform="matrix(1.066980,0.000000,0.000000,0.569468,7.628159,11.75470)"
       x1="28.638879"
       y1="66.265707"
       x2="32.073531"
       y2="70.376839" />
    <radialGradient
       inkscape:collect="always"
       xlink:href="#linearGradient1751"
       id="radialGradient3184"
       gradientUnits="userSpaceOnUse"
       gradientTransform="matrix(0.752158,0.000000,0.000000,0.807825,7.753159,11.37970)"
       cx="44.574645"
       cy="47.514152"
       fx="44.574645"
       fy="47.514152"
       r="78.146215" />
    <linearGradient
       inkscape:collect="always"
       xlink:href="#linearGradient1762"
       id="linearGradient3187"
       gradientUnits="userSpaceOnUse"
       gradientTransform="matrix(0.754092,0.000000,0.000000,0.805753,7.628159,11.75470)"
       x1="22.609107"
       y1="7.0258278"
       x2="58.475802"
       y2="51.416283" />
    <linearGradient
       inkscape:collect="always"
       xlink:href="#linearGradient1766"
       id="linearGradient3190"
       gradientUnits="userSpaceOnUse"
       gradientTransform="matrix(0.773746,0.000000,0.000000,0.785286,7.628159,11.75470)"
       x1="50.651265"
       y1="51.526812"
       x2="52.728953"
       y2="55.049853" />
  </defs>
  <sodipodi:namedview
     id="base"
     pagecolor="#ffffff"
     bordercolor="#666666"
     borderopacity="1.0"
     inkscape:pageopacity="0.0"
     inkscape:pageshadow="2"
     inkscape:zoom="11.313708"
     inkscape:cx="46.467862"
     inkscape:cy="23.315999"
     inkscape:window-width="1021"
     inkscape:window-height="724"
     inkscape:window-x="1"
     inkscape:window-y="0"
     inkscape:current-layer="svg1"
     showguides="false"
     inkscape:guide-bbox="true"
     gridspacingy="1.0000000pt"
     gridspacingx="1.0000000pt"
     gridoriginy="0.0000000pt"
     gridoriginx="0.0000000pt"
     showgrid="false"
     inkscape:grid-points="false"
     inkscape:grid-bbox="false"
     showborder="true">
    <sodipodi:guide
       orientation="vertical"
       position="0.0000000"
       id="guide2809" />
    <sodipodi:guide
       orientation="vertical"
       position="48.000000"
       id="guide2810" />
    <sodipodi:guide
       orientation="horizontal"
       position="0.0000000"
       id="guide2811" />
    <sodipodi:guide
       orientation="horizontal"
       position="47.000000"
       id="guide2819" />
    <sodipodi:guide
       orientation="horizontal"
       position="48.405405"
       id="guide1774" />
  </sodipodi:namedview>
  <metadata
     id="metadata4">
    <rdf:RDF
       id="RDF5">
      <cc:Work
         rdf:about=""
         id="Work6">
        <dc:format
           id="format7">image/svg+xml</dc:format>
        <dc:type
           id="type9"
           rdf:resource="http://purl.org/dc/dcmitype/StillImage" />
      </cc:Work>
    </rdf:RDF>
  </metadata>
  <path
     style="font-size:12.000000;opacity:0.12206573;fill:url(#linearGradient3190);fill-opacity:1.0000000;fill-rule:evenodd"
     d="M 10.992770,58.212304 C 16.058345,58.213348 20.236121,57.919845 28.754448,57.476007 C 33.274720,57.240483 39.819119,57.197623 46.441869,57.007007 C 50.236075,51.787939 49.286477,48.490671 49.965358,44.482366 C 51.413276,35.933445 52.661476,30.592174 52.790461,15.791218 C 41.006660,19.808932 33.014399,21.603758 22.809868,25.553900 C 19.373245,36.544070 14.429394,47.222133 10.992770,58.212304 z "
     id="path913"
     nodetypes="cccccc"
     sodipodi:nodetypes="cscsccc" />
  <path
     style="font-size:12.000000;fill:url(#linearGradient3187);fill-opacity:1.0000000;fill-rule:evenodd"
     d="M 8.6025267,55.601307 C 21.381388,57.376296 24.161576,57.851699 30.475466,57.395567 C 40.107377,56.707106 49.118283,51.976595 49.854997,45.085723 C 50.869984,38.616155 52.675173,28.799814 50.289684,11.754740 C 37.091823,13.620084 26.543674,13.904636 11.002063,12.558845 C 13.984037,22.140240 12.279189,43.730727 8.6025267,55.601307 z "
     id="path861"
     sodipodi:nodetypes="cscccc" />
  <path
     style="font-size:12.000000;fill:url(#radialGradient3184);fill-opacity:1.0000000;fill-rule:evenodd"
     d="M 10.312506,54.251939 C 21.627640,55.874276 24.575474,57.449179 31.885010,55.671182 C 34.415368,55.055690 42.219284,52.013914 42.651801,48.116442 C 43.263523,48.312160 46.832555,49.459530 49.005629,43.736355 C 50.402076,34.335629 51.046318,25.988406 49.321811,12.828125 C 32.157755,14.494908 23.335008,14.364594 12.625000,13.328476 C 15.329938,21.608752 13.336503,45.015614 10.312506,54.251939 z "
     id="path863"
     sodipodi:nodetypes="ccccccc" />
  <path
     style="font-size:12.000000;opacity:0.91549295;fill:url(#linearGradient3181);fill-opacity:1.0000000;fill-rule:evenodd"
     d="M 29.996214,56.853951 C 40.754619,54.729932 45.179526,51.819342 48.133347,46.924527 C 46.371856,48.581508 44.165618,48.800366 42.506174,48.280383 C 40.647393,51.318561 37.227084,53.702487 29.996214,56.853951 z "
     id="path1150"
     sodipodi:nodetypes="cccc" />
  <path
     style="opacity:1.0000000;color:#000000;fill:url(#linearGradient3178);fill-opacity:1.0000000;fill-rule:evenodd;stroke:#4a4899;stroke-width:0.14092728;stroke-linecap:round;stroke-linejoin:round;marker:none;marker-start:none;marker-mid:none;marker-end:none;stroke-miterlimit:4.0000000;stroke-dashoffset:0.0000000;stroke-opacity:1.0000000;visibility:visible;display:inline;overflow:visible"
     d="M 13.375000,29.625000 C 22.875000,28.625000 35.763228,30.109567 41.000000,50.000000 C 39.500000,51.750000 32.375000,55.375000 32.375000,55.375000 C 25.625000,57.125000 9.8750000,55.125000 9.8750000,55.125000 L 13.375000,29.625000 z "
     id="rect2361"
     sodipodi:nodetypes="ccccc" />
  <path
     style="stroke-opacity:1.0000000;stroke-dasharray:none;stroke-miterlimit:4.0000000;stroke-linejoin:miter;stroke-linecap:butt;stroke-width:1.00000000;stroke:#e6b000;fill-rule:evenodd;fill-opacity:0.75000000;fill:none"
     d="M 13.562500,29.500000 C 15.085091,29.148034 36.559741,26.750000 40.937500,50.375000"
     id="path2058"
     sodipodi:nodetypes="cc" />
  <path
     style="font-size:12.000000;fill:url(#linearGradient3174);fill-opacity:1.0000000;fill-rule:evenodd"
     d="M 50.281250,11.750000 C 37.083389,13.615344 26.541611,13.908291 11.000000,12.562500 C 13.981974,22.143895 12.270412,43.723170 8.5937500,55.593750 C 21.372611,57.368739 24.154860,57.862382 30.468750,57.406250 C 40.100661,56.717787 49.107036,51.984622 49.843750,45.093750 C 50.858738,38.624181 52.666739,28.795074 50.281250,11.750000 z M 49.312500,12.812500 C 51.037007,25.972781 50.396446,34.349274 49.000000,43.750000 C 46.826926,49.473175 42.517971,47.320716 41.906250,47.125000 C 41.473733,51.022472 34.655358,54.165759 32.125000,54.781250 C 24.815464,56.559247 21.627634,55.872338 10.312500,54.250000 C 13.336497,45.013675 15.329938,21.624026 12.625000,13.343750 C 23.335008,14.379868 32.148443,14.479283 49.312500,12.812500 z M 47.625000,47.562500 C 44.671179,52.457315 39.883405,54.344731 31.375000,56.218750 C 38.355870,54.067286 41.141221,52.069427 42.500000,48.781250 C 44.159444,49.301233 45.863509,49.219482 47.625000,47.562500 z "
     id="path2070" />
  <path
     style="fill:none;fill-opacity:0.75000000;fill-rule:evenodd;stroke:#1f547b;stroke-width:1.0000000pt;stroke-linecap:butt;stroke-linejoin:miter;stroke-opacity:1.0000000"
     d="M 21.875000,23.500000 C 25.750000,29.250000 38.232233,39.866117 44.607233,42.491117"
     id="path3130"
     sodipodi:nodetypes="cc" />
  <path
     sodipodi:type="arc"
     style="opacity:1.0000000;color:#000000;fill:#245cff;fill-opacity:1.0000000;fill-rule:evenodd;stroke:#1f547b;stroke-width:0.62500000;stroke-linecap:round;stroke-linejoin:round;marker:none;marker-start:none;marker-mid:none;marker-end:none;stroke-miterlimit:4.0000000;stroke-dasharray:none;stroke-dashoffset:0.0000000;stroke-opacity:1.0000000;visibility:visible;display:inline;overflow:visible"
     id="path3132"
     sodipodi:cx="22.250000"
     sodipodi:cy="23.500000"
     sodipodi:rx="1.7500000"
     sodipodi:ry="2.0000000"
     d="M 24.000000 23.500000 A 1.7500000 2.0000000 0 1 1  20.500000,23.500000 A 1.7500000 2.0000000 0 1 1  24.000000 23.500000 z"
     transform="translate(0.000000,0.707107)" />
  <path
     d="M 24.000000 23.500000 A 1.7500000 2.0000000 0 1 1  20.500000,23.500000 A 1.7500000 2.0000000 0 1 1  24.000000 23.500000 z"
     sodipodi:ry="2.0000000"
     sodipodi:rx="1.7500000"
     sodipodi:cy="23.500000"
     sodipodi:cx="22.250000"
     id="path3134"
     style="opacity:1.0000000;color:#000000;fill:#688fff;fill-opacity:1.0000000;fill-rule:evenodd;stroke:#2972a7;stroke-width:0.62500000;stroke-linecap:round;stroke-linejoin:round;marker:none;marker-start:none;marker-mid:none;marker-end:none;stroke-miterlimit:4.0000000;stroke-dasharray:none;stroke-dashoffset:0.0000000;stroke-opacity:1.0000000;visibility:visible;display:inline;overflow:visible"
     sodipodi:type="arc"
     transform="translate(21.67157,18.32062)" />
  <rect
     style="opacity:1.0000000;color:#000000;fill:#245cff;fill-opacity:1.0000000;fill-rule:evenodd;stroke:#1f547b;stroke-width:0.62500000;stroke-linecap:round;stroke-linejoin:round;marker:none;marker-start:none;marker-mid:none;marker-end:none;stroke-miterlimit:4.0000000;stroke-dasharray:none;stroke-dashoffset:0.0000000;stroke-opacity:1.0000000;visibility:visible;display:inline;overflow:visible"
     id="rect3136"
     width="5.0000000"
     height="5.0000000"
     x="29.542892"
     y="31.292892" />
  <path
     style="font-size:12.000000;fill:url(#radialGradient3167);fill-opacity:1.0000000;fill-rule:evenodd"
     d="M 50.036832,23.857170 C 50.096858,21.403704 49.627938,16.139642 49.196811,12.849572 C 32.032755,14.516355 23.210008,14.386041 12.500000,13.349923 C 13.992127,18.500258 14.359415,23.828466 13.751781,29.975929 C 21.517035,47.077246 50.096501,32.118636 50.036832,23.857170 z "
     id="path1794"
     sodipodi:nodetypes="ccccc" />
</svg>
