<?xml version="1.0" encoding="UTF-8" standalone="no"?>
<!-- Created with Inkscape (http://www.inkscape.org/) -->
<svg
   xmlns:dc="http://purl.org/dc/elements/1.1/"
   xmlns:cc="http://web.resource.org/cc/"
   xmlns:rdf="http://www.w3.org/1999/02/22-rdf-syntax-ns#"
   xmlns:svg="http://www.w3.org/2000/svg"
   xmlns="http://www.w3.org/2000/svg"
   xmlns:xlink="http://www.w3.org/1999/xlink"
   xmlns:sodipodi="http://inkscape.sourceforge.net/DTD/sodipodi-0.dtd"
   xmlns:inkscape="http://www.inkscape.org/namespaces/inkscape"
   sodipodi:docname="gnome-mime-application-x-shellscript.svg"
   sodipodi:docbase="/home/david/.icons/eXperience/normal/mimetypes"
   height="48.000000pt"
   width="48.000000pt"
   inkscape:version="0.41+cvs"
   sodipodi:version="0.32"
   id="svg1">
  <defs
     id="defs3">
    <linearGradient
       y2="51.416283"
       x2="58.475802"
       y1="7.0258278"
       x1="22.609107"
       gradientTransform="matrix(0.754092,0.000000,0.000000,0.805753,7.628159,11.75470)"
       gradientUnits="userSpaceOnUse"
       id="linearGradient3174"
       xlink:href="#linearGradient1762"
       inkscape:collect="always" />
    <linearGradient
       id="linearGradient3263">
      <stop
         offset="0.0000000"
         style="stop-color:#175dc4;stop-opacity:1.0000000;"
         id="stop3265" />
      <stop
         offset="1.0000000"
         style="stop-opacity:1.0000000;stop-color:#c4dafa"
         id="stop3267" />
    </linearGradient>
    <linearGradient
       id="linearGradient1532">
      <stop
         id="stop1534"
         style="stop-color:#175dc4;stop-opacity:1.0000000;"
         offset="0.0000000" />
      <stop
         id="stop1533"
         style="stop-color:#aeccf5;stop-opacity:1.0000000;"
         offset="1.0000000" />
    </linearGradient>
    <linearGradient
       id="linearGradient1766">
      <stop
         id="stop1767"
         offset="0"
         style="stop-color:#000000;stop-opacity:1;" />
      <stop
         id="stop1768"
         offset="1"
         style="stop-color:#000000;stop-opacity:0;" />
    </linearGradient>
    <linearGradient
       id="linearGradient1762">
      <stop
         id="stop1763"
         offset="0.0000000"
         style="stop-color:#968ecd;stop-opacity:1.0000000;" />
      <stop
         id="stop1764"
         offset="1.0000000"
         style="stop-color:#554d85;stop-opacity:1.0000000;" />
    </linearGradient>
    <linearGradient
       id="linearGradient1751">
      <stop
         id="stop1752"
         offset="0.0000000"
         style="stop-color:#ffffff;stop-opacity:1.0000000;" />
      <stop
         id="stop1753"
         offset="1.0000000"
         style="stop-color:#afd3ff;stop-opacity:1.0000000;" />
    </linearGradient>
    <linearGradient
       id="linearGradient1746">
      <stop
         id="stop1747"
         offset="0.0000000"
         style="stop-color:#ffffff;stop-opacity:1.0000000;" />
      <stop
         id="stop1748"
         offset="1.0000000"
         style="stop-color:#ffffff;stop-opacity:0.0000000;" />
    </linearGradient>
    <radialGradient
       gradientUnits="userSpaceOnUse"
       gradientTransform="matrix(0.955666,0.000000,0.000000,0.635799,7.628159,11.75470)"
       fy="3.1320463"
       fx="43.392352"
       r="59.917704"
       cy="3.1320463"
       cx="43.392352"
       id="radialGradient1750"
       xlink:href="#linearGradient1746"
       inkscape:collect="always" />
    <radialGradient
       gradientUnits="userSpaceOnUse"
       gradientTransform="matrix(0.752158,0.000000,0.000000,0.807825,7.628159,11.75470)"
       fy="47.514152"
       fx="44.574645"
       r="78.146215"
       cy="47.514152"
       cx="44.574645"
       id="radialGradient1757"
       xlink:href="#linearGradient1751"
       inkscape:collect="always" />
    <linearGradient
       gradientUnits="userSpaceOnUse"
       gradientTransform="matrix(1.066980,0.000000,0.000000,0.569468,7.628159,11.75470)"
       y2="70.376839"
       x2="32.073531"
       y1="66.265707"
       x1="28.638879"
       id="linearGradient1761"
       xlink:href="#linearGradient1751"
       inkscape:collect="always" />
    <linearGradient
       gradientUnits="userSpaceOnUse"
       gradientTransform="matrix(0.754092,0.000000,0.000000,0.805753,7.628159,11.75470)"
       y2="51.416283"
       x2="58.475802"
       y1="7.0258278"
       x1="22.609107"
       id="linearGradient1765"
       xlink:href="#linearGradient1762"
       inkscape:collect="always" />
    <linearGradient
       gradientUnits="userSpaceOnUse"
       gradientTransform="matrix(0.773746,0.000000,0.000000,0.785286,7.628159,11.75470)"
       y2="55.049853"
       x2="52.728953"
       y1="51.526812"
       x1="50.651265"
       id="linearGradient1769"
       xlink:href="#linearGradient1766"
       inkscape:collect="always" />
    <defs
       id="defs2327">
      <linearGradient
         y2="62.410500"
         x2="72.902802"
         y1="-4.1747999"
         x1="72.902802"
         gradientUnits="userSpaceOnUse"
         id="linearGradient659">
        <stop
           id="stop661"
           style="stop-color:#ffffff;stop-opacity:1.0000;"
           offset="0" />
        <stop
           id="stop663"
           style="stop-color:#fffff5;stop-opacity:0;"
           offset="1" />
      </linearGradient>
      <linearGradient
         xlink:href="#linearGradient1532"
         spreadMethod="pad"
         y2="62.410500"
         x2="72.902802"
         y1="-4.1747999"
         x1="72.902802"
         gradientUnits="userSpaceOnUse"
         id="aigrd1" />
      <linearGradient
         y2="115.26420"
         x2="135.46680"
         y1="115.26420"
         x1="6.2168002"
         gradientUnits="userSpaceOnUse"
         id="aigrd15">
        <stop
           id="stop2291"
           style="stop-color:#415dc4"
           offset="0" />
        <stop
           id="stop2292"
           style="stop-color:#aeccf5"
           offset="1" />
      </linearGradient>
      <linearGradient
         gradientTransform="scale(0.900565,1.110414)"
         gradientUnits="objectBoundingBox"
         y2="0.60506731"
         x2="0.73793292"
         y1="0.070356607"
         x1="0.36545247"
         id="linearGradient773"
         xlink:href="#aigrd1" />
      <radialGradient
         gradientTransform="scale(1.000001,0.999999)"
         gradientUnits="objectBoundingBox"
         fy="0.093749791"
         fx="0.10135135"
         r="1.1807489"
         cy="0.093749791"
         cx="0.10135135"
         id="radialGradient774"
         xlink:href="#aigrd1" />
      <radialGradient
         gradientUnits="objectBoundingBox"
         fy="0.17187564"
         fx="-0.98913002"
         r="2.1136074"
         cy="0.17187564"
         cx="-0.98913002"
         id="radialGradient775"
         xlink:href="#aigrd1" />
      <radialGradient
         gradientTransform="scale(0.938914,1.065060)"
         gradientUnits="objectBoundingBox"
         fy="0.12469950"
         fx="0.16681667"
         r="0.84018791"
         cy="0.12469950"
         cx="0.16681667"
         id="radialGradient776"
         xlink:href="#linearGradient659" />
      <radialGradient
         fy="0.18749785"
         fx="-0.029411212"
         r="0.85121727"
         cy="0.18749785"
         cx="-0.029411212"
         id="radialGradient777"
         xlink:href="#aigrd1" />
      <radialGradient
         gradientUnits="objectBoundingBox"
         fy="0.50000030"
         fx="-0.85999984"
         r="2.0647945"
         cy="0.50000030"
         cx="-0.85999984"
         id="radialGradient778"
         xlink:href="#aigrd1" />
      <radialGradient
         gradientUnits="objectBoundingBox"
         fy="0.95310795"
         fx="-0.087153599"
         r="1.0279226"
         cy="0.95310795"
         cx="-0.087153599"
         id="radialGradient779"
         xlink:href="#aigrd1" />
      <radialGradient
         gradientUnits="objectBoundingBox"
         gradientTransform="scale(1.000006,0.999994)"
         fy="0.92963868"
         fx="-0.047862746"
         r="0.95944673"
         cy="0.92963868"
         cx="-0.047862746"
         id="radialGradient780"
         xlink:href="#aigrd1" />
      <radialGradient
         fy="0.078127153"
         fx="-0.14773858"
         r="1.5595293"
         cy="0.078127153"
         cx="-0.14773858"
         id="radialGradient781"
         xlink:href="#aigrd1" />
      <radialGradient
         fy="0.19530550"
         fx="-0.71428186"
         r="2.1028900"
         cy="0.19530550"
         cx="-0.71428186"
         id="radialGradient782"
         xlink:href="#aigrd1" />
      <radialGradient
         fy="0.12500304"
         fx="-0.055557165"
         r="1.4306992"
         cy="0.12500304"
         cx="-0.055557165"
         id="radialGradient783"
         xlink:href="#aigrd1" />
      <radialGradient
         gradientUnits="objectBoundingBox"
         fy="0.046874978"
         fx="-0.014925453"
         r="3.3873310"
         cy="0.046874978"
         cx="-0.014925453"
         id="radialGradient784"
         xlink:href="#aigrd1" />
      <radialGradient
         fy="0.16406243"
         fx="-5.2500367"
         r="7.3446145"
         cy="0.16406243"
         cx="-5.2500367"
         id="radialGradient884"
         xlink:href="#aigrd1" />
      <radialGradient
         gradientUnits="objectBoundingBox"
         fy="0.14843710"
         fx="-0.20238160"
         r="1.1100850"
         cy="0.14843710"
         cx="-0.20238160"
         id="radialGradient885"
         xlink:href="#aigrd1" />
    </defs>
    <linearGradient
       gradientUnits="userSpaceOnUse"
       y2="49.500000"
       x2="23.640625"
       y1="-5.0000000"
       x1="-15.500000"
       id="linearGradient3261"
       xlink:href="#linearGradient3263"
       inkscape:collect="always"
       gradientTransform="matrix(0.815035,0.000000,0.000000,0.815035,1.884334,10.39675)" />
  </defs>
  <sodipodi:namedview
     showborder="true"
     inkscape:grid-bbox="false"
     inkscape:grid-points="false"
     showgrid="false"
     gridoriginx="0.0000000pt"
     gridoriginy="0.0000000pt"
     gridspacingx="1.0000000pt"
     gridspacingy="1.0000000pt"
     inkscape:guide-bbox="true"
     showguides="false"
     inkscape:current-layer="svg1"
     inkscape:window-y="215"
     inkscape:window-x="28"
     inkscape:window-height="519"
     inkscape:window-width="857"
     inkscape:cy="50.521190"
     inkscape:cx="144.69673"
     inkscape:zoom="1.4142136"
     inkscape:pageshadow="2"
     inkscape:pageopacity="0.0"
     borderopacity="1.0"
     bordercolor="#666666"
     pagecolor="#ffffff"
     id="base">
    <sodipodi:guide
       id="guide2809"
       position="0.0000000"
       orientation="vertical" />
    <sodipodi:guide
       id="guide2810"
       position="48.000000"
       orientation="vertical" />
    <sodipodi:guide
       id="guide2811"
       position="0.0000000"
       orientation="horizontal" />
    <sodipodi:guide
       id="guide2819"
       position="47.000000"
       orientation="horizontal" />
    <sodipodi:guide
       id="guide1774"
       position="48.405405"
       orientation="horizontal" />
  </sodipodi:namedview>
  <metadata
     id="metadata4">
    <rdf:RDF
       id="RDF5">
      <cc:Work
         id="Work6"
         rdf:about="">
        <dc:format
           id="format7">image/svg+xml</dc:format>
        <dc:type
           rdf:resource="http://purl.org/dc/dcmitype/StillImage"
           id="type9" />
      </cc:Work>
    </rdf:RDF>
  </metadata>
  <path
     sodipodi:nodetypes="cscsccc"
     nodetypes="cccccc"
     id="path913"
     d="M 10.992770,58.212304 C 16.058345,58.213348 20.236121,57.919845 28.754448,57.476007 C 33.274720,57.240483 39.819119,57.197623 46.441869,57.007007 C 50.236075,51.787939 49.286477,48.490671 49.965358,44.482366 C 51.413276,35.933445 52.661476,30.592174 52.790461,15.791218 C 41.006660,19.808932 33.014399,21.603758 22.809868,25.553900 C 19.373245,36.544070 14.429394,47.222133 10.992770,58.212304 z "
     style="font-size:12.000000;opacity:0.12206573;fill:url(#linearGradient1769);fill-opacity:1.0000000;fill-rule:evenodd;" />
  <path
     sodipodi:nodetypes="cscccc"
     id="path861"
     d="M 8.6025267,55.601307 C 21.381388,57.376296 24.161576,57.851699 30.475466,57.395567 C 40.107377,56.707106 49.118283,51.976595 49.854997,45.085723 C 50.869984,38.616155 52.675173,28.799814 50.289684,11.754740 C 37.091823,13.620084 26.543674,13.904636 11.002063,12.558845 C 13.984037,22.140240 12.279189,43.730727 8.6025267,55.601307 z "
     style="font-size:12.000000;fill:url(#linearGradient1765);fill-opacity:1.0000000;fill-rule:evenodd;" />
  <path
     sodipodi:nodetypes="ccccccc"
     id="path863"
     d="M 10.187506,54.626939 C 21.502640,56.249276 24.700474,56.949179 32.010010,55.171182 C 34.540368,54.555690 41.344284,51.388914 41.776801,47.491442 C 42.388523,47.687160 46.707555,49.834530 48.880629,44.111355 C 50.277076,34.710629 50.921318,26.363406 49.196811,13.203125 C 32.032755,14.869908 23.210008,14.739594 12.500000,13.703476 C 15.204938,21.983752 13.211503,45.390614 10.187506,54.626939 z "
     style="font-size:12.000000;fill:url(#radialGradient1757);fill-opacity:1.0000000;fill-rule:evenodd;" />
  <path
     sodipodi:nodetypes="cccc"
     id="path1150"
     d="M 31.371214,56.228951 C 39.879619,54.354932 44.679526,52.444342 47.633347,47.549527 C 45.871856,49.206508 44.165618,49.300366 42.506174,48.780383 C 41.147393,52.068561 38.352084,54.077487 31.371214,56.228951 z "
     style="font-size:12.000000;opacity:0.91549295;fill:url(#linearGradient1761);fill-opacity:1.0000000;fill-rule:evenodd;" />
  <path
     id="path2647"
     d="M 23.762922,24.965497 C 22.383822,24.968560 20.230362,25.195456 18.796304,25.474894 L 18.185028,28.505805 C 17.096228,28.731231 16.621647,28.848232 15.536165,29.269900 L 13.982505,27.436071 C 13.647382,27.592518 13.345466,27.827293 13.014652,27.996408 C 13.139062,30.363643 13.066345,33.092378 12.938242,35.841117 C 15.497871,33.847355 18.583446,32.834456 21.164999,33.217724 C 22.157746,33.365111 23.077103,33.740434 23.839332,34.287457 C 26.888454,36.475238 26.421641,41.114535 22.795069,44.679150 C 19.540583,47.877543 14.947772,48.969191 11.817569,47.608181 C 11.357711,50.498646 10.793165,53.068114 10.187500,54.918024 C 11.696900,55.134439 12.299930,55.154964 13.498579,55.325541 L 13.957036,54.179399 C 15.331444,54.075543 17.462631,53.644271 18.847244,53.211545 C 18.922026,53.348290 19.787788,54.957015 20.451844,56.191516 C 21.542407,56.239856 22.561783,56.183643 23.610103,56.089636 C 24.163642,55.817781 24.740535,55.655595 25.443932,55.223662 L 24.043091,50.588152 C 25.114111,49.850219 27.406632,48.097061 28.041855,47.124254 C 33.229816,48.502509 33.161292,48.525097 33.161292,48.525095 C 34.512539,46.867647 35.091801,45.419245 35.682805,44.246163 L 31.174645,42.514214 C 31.780446,41.119170 32.347254,39.332159 32.473606,37.980583 L 37.822272,36.325044 C 37.768554,34.899482 37.334966,33.051636 36.828948,31.791413 L 31.785921,33.497892 C 31.335742,32.468886 30.810637,31.395944 29.952092,30.594331 L 33.033942,27.410602 C 32.062438,26.725987 30.566633,26.057730 29.417226,25.653183 C 28.645628,26.253424 27.183570,28.144349 26.615544,28.582214 C 25.664925,28.257319 24.669917,28.060039 23.610103,27.970938 L 23.762922,24.965497 z "
     style="font-size:12.000000;fill:url(#linearGradient3261);fill-opacity:1.0000000;stroke:none;stroke-width:1.0000000;stroke-miterlimit:4.0000000;stroke-dasharray:none;stroke-opacity:1.0000000" />
  <path
     sodipodi:nodetypes="cccccccccccccccccccccccccccccccccccccccccccccccccccccccccccccccccccccccccccccccccccccccccccccccccccccccccccccccccccc"
     id="path3254"
     d="M 23.762922,24.557980 C 22.341097,24.561137 20.189076,24.781095 18.719895,25.067377 L 18.439727,25.118316 L 18.388787,25.398485 L 17.828451,28.200166 C 17.043971,28.366040 16.454458,28.518027 15.663515,28.811443 L 14.313613,27.181373 L 14.109855,26.952145 L 13.829686,27.079494 C 13.540224,27.214624 13.275588,27.419587 12.989182,27.563421 C 13.008354,27.875796 13.051479,28.131550 13.065591,28.454865 C 13.350403,28.306225 13.616697,28.109378 13.906096,27.970938 L 15.230527,29.524598 L 15.408816,29.753826 L 15.688984,29.651947 C 16.758741,29.236388 17.174812,29.138298 18.261438,28.913322 L 18.541606,28.862382 L 18.592546,28.582214 L 19.152882,25.831472 C 20.416192,25.604168 22.076609,25.458415 23.329935,25.423954 L 23.202586,27.945468 L 23.177116,28.327516 L 23.584634,28.378455 C 24.613523,28.464957 25.544163,28.650322 26.462725,28.964262 L 26.691953,29.040671 L 26.844772,28.913322 C 27.217760,28.625803 27.709726,28.062112 28.245613,27.461541 C 28.725109,26.924169 29.186523,26.427407 29.519105,26.137110 C 30.467273,26.484891 31.529180,27.016970 32.371727,27.537951 L 29.671924,30.314163 L 29.366286,30.619801 L 29.671924,30.899969 C 30.458531,31.634414 30.984450,32.659258 31.429343,33.676181 L 31.582162,34.007289 L 31.938740,33.879940 L 36.523310,32.326280 C 36.926050,33.439056 37.280093,34.844869 37.363815,36.044876 L 32.346257,37.598536 L 32.091559,37.674945 L 32.066089,37.955114 C 31.947304,39.225740 31.385635,40.970274 30.792597,42.335925 L 30.639778,42.743443 L 31.021825,42.896262 L 35.122469,44.475391 C 34.611253,45.521752 34.064913,46.692245 33.008473,48.041168 L 27.838096,46.640327 C 27.838096,46.640327 27.082617,47.714072 25.953328,48.626975 C 25.184238,49.269729 24.335863,49.897385 23.813862,50.257044 L 23.584634,50.409863 L 23.661043,50.715501 L 24.960005,55.019903 C 24.112167,55.528800 23.365164,55.790438 22.616780,56.115106 C 23.368379,56.081494 24.199127,56.026508 24.985474,55.911348 C 25.218398,55.777443 25.411282,55.741051 25.673160,55.580240 L 25.927858,55.401951 L 25.825979,55.121783 L 24.527017,50.715501 C 25.067569,50.332746 25.764219,49.847485 26.462725,49.263721 C 27.160241,48.680783 27.739758,48.109875 28.143734,47.582711 C 30.476405,48.203100 31.823125,48.562830 32.422666,48.728854 L 33.245161,48.997192 C 34.073616,48.096698 35.488411,45.568628 36.064853,44.424452 L 36.268612,44.042404 L 35.835624,43.864115 L 31.684041,42.259516 C 32.199673,41.004895 32.643026,39.585709 32.804714,38.337161 L 37.949621,36.707092 L 38.229789,36.605212 L 38.229789,36.299574 C 38.173411,34.803386 37.738021,32.951138 37.210996,31.638594 L 37.058177,31.282017 L 36.676129,31.383896 L 31.989679,32.988496 C 31.617265,32.168613 31.145174,31.335831 30.486959,30.619801 L 33.339581,27.690770 L 33.670688,27.334192 L 33.263171,27.079494 C 32.230819,26.351999 30.744798,25.684603 29.570045,25.271135 L 29.340816,25.194726 L 29.162527,25.347545 C 28.712801,25.697395 28.172679,26.297884 27.634337,26.901205 C 27.137773,27.457706 26.690636,27.948994 26.462725,28.149227 C 25.691059,27.904750 24.879670,27.735840 24.043091,27.639830 L 24.170440,24.990967 L 24.170440,24.557980 L 23.762922,24.557980 z M 18.770835,32.810207 C 16.767761,33.057511 14.763328,34.064462 12.938242,35.433600 C 12.923689,35.775769 12.930812,36.082413 12.912772,36.426923 C 14.742366,34.917803 16.852491,33.881162 18.872714,33.625241 C 19.648360,33.526983 20.410268,33.520754 21.114059,33.625241 C 22.048083,33.763911 22.905135,34.112636 23.610103,34.618565 C 25.015769,35.627147 25.594343,37.159068 25.418462,38.922967 C 25.242580,40.686866 24.271238,42.647180 22.514900,44.373512 C 20.758522,46.099618 18.581605,47.247070 16.478549,47.684591 C 14.752589,48.043660 13.181969,47.811527 11.868509,47.200664 C 11.823788,47.490555 11.787751,47.707108 11.741160,47.990229 C 13.202160,48.600216 14.864561,48.841722 16.631368,48.474156 C 18.898680,48.002463 21.230715,46.797079 23.100707,44.959318 C 24.970941,43.121035 26.034412,40.995981 26.233496,38.999377 C 26.432581,37.002772 25.737487,35.135548 24.094030,33.956349 C 23.274541,33.368232 22.292878,32.991782 21.241409,32.835677 C 20.456080,32.719083 19.613255,32.706199 18.770835,32.810207 z M 19.051003,52.727618 L 18.745365,52.829497 C 17.402610,53.249143 15.254789,53.671893 13.931566,53.771881 L 13.676867,53.797351 L 13.574988,54.026580 L 13.091061,55.274602 C 13.404951,55.319645 13.634982,55.360246 13.931566,55.401951 L 14.262674,54.535976 C 15.579056,54.411298 17.314654,54.082741 18.643485,53.695472 C 18.806581,53.998782 19.428158,55.148694 19.967917,56.140576 C 20.267453,56.157934 20.620940,56.158156 20.910301,56.166046 C 20.241495,54.924203 19.323211,53.204994 19.229292,53.033256 L 19.051003,52.727618 z "
     style="font-size:12.000000;fill:#665e98;fill-opacity:1.0000000;stroke:none;stroke-width:1.0000000;stroke-miterlimit:4.0000000;stroke-dasharray:none;stroke-opacity:1.0000000" />
  <g
     id="g3247"
     transform="translate(-1.705133,2.389055)">
    <path
       style="fill:none;fill-opacity:0.75000000;fill-rule:evenodd;stroke:#8d94ec;stroke-width:1.0000000pt;stroke-linecap:round;stroke-linejoin:miter;stroke-opacity:1.0000000"
       d="M 17.394607,19.106154 C 17.712493,18.933107 19.249460,18.315709 19.812500,18.290729 C 20.641148,18.462113 21.565219,18.767867 21.924937,18.751907 C 23.490176,18.682461 23.835787,18.123870 25.062500,18.682799 C 26.485539,19.331183 29.394474,18.031588 31.062500,18.791595 C 32.400737,19.401339 34.162873,16.704225 36.312500,17.683665 C 37.730908,18.329938 41.488644,17.954013 43.062500,17.884185 C 44.285813,17.829909 47.143513,17.828120 47.312500,17.820623"
       id="path2074"
       sodipodi:nodetypes="cccccccc" />
    <path
       style="fill:none;fill-opacity:0.75000000;fill-rule:evenodd;stroke:#8d94ec;stroke-width:1.0000000pt;stroke-linecap:round;stroke-linejoin:miter;stroke-opacity:1.0000000"
       d="M 17.687500,24.260010 C 18.318015,24.232035 19.020485,23.679860 20.062500,24.154637 C 21.527568,24.822169 23.649028,23.976276 24.937500,24.563345 C 26.524871,25.286603 28.994652,23.883340 30.437500,23.819324 C 31.748723,23.761149 36.387371,23.530278 37.187500,23.894844 C 37.929270,24.232818 40.223695,24.554538 40.812500,24.234012 C 41.661838,23.771660 46.276106,24.241605 47.312500,24.195623"
       id="path2076"
       sodipodi:nodetypes="ccccccc" />
    <path
       style="fill:none;fill-opacity:0.75000000;fill-rule:evenodd;stroke:#8d94ec;stroke-width:1.0000000pt;stroke-linecap:round;stroke-linejoin:miter;stroke-opacity:1.0000000"
       d="M 17.937500,30.248918 C 18.408904,30.184763 19.778490,30.861600 19.903490,30.814387 C 20.028490,30.767174 21.837747,29.903327 22.640927,30.269282 C 24.982305,31.336090 25.450125,30.415601 28.062500,30.299697 C 28.103254,30.297889 30.371798,30.925338 30.437500,30.944324 C 31.740820,31.320939 34.952096,30.864158 36.437500,30.303119 C 36.763460,30.180004 37.104167,30.106874 37.437500,30.008752 C 38.731737,29.627771 38.796861,29.565621 39.812500,30.028379 C 40.975818,30.558425 41.728071,29.818390 42.812500,29.770277 C 43.020833,29.761033 46.229167,30.368688 46.437500,30.359444"
       id="path2078"
       sodipodi:nodetypes="cccccccccc" />
    <path
       style="fill:none;fill-opacity:0.75000000;fill-rule:evenodd;stroke:#8d94ec;stroke-width:1.0000000pt;stroke-linecap:round;stroke-linejoin:miter;stroke-opacity:1.0000000"
       d="M 17.687500,36.760010 C 18.491128,36.724355 19.316489,36.312735 20.187500,36.274091 C 20.739002,36.249622 23.443670,37.070208 24.062500,37.352167 C 25.545260,38.027761 28.707436,35.611062 30.687500,36.183232 C 33.399926,36.967031 37.145895,35.341155 39.562500,36.039471 C 40.823705,36.403916 43.833358,36.224984 45.062500,36.170450 C 45.354167,36.157509 45.645833,36.144569 45.937500,36.131628"
       id="path2080" />
    <path
       style="fill:none;fill-opacity:0.75000000;fill-rule:evenodd;stroke:#8d94ec;stroke-width:1.0000000pt;stroke-linecap:round;stroke-linejoin:miter;stroke-opacity:1.0000000"
       d="M 17.312500,42.026647 C 18.342038,41.980969 22.673629,40.469353 23.812500,40.988259 C 24.801643,41.438945 25.483152,41.789136 26.562500,41.741248 C 27.508706,41.699267 28.095840,42.594048 29.187500,41.999784 C 30.277960,41.406173 31.108200,41.289567 32.062500,41.247227 C 32.820354,41.213603 34.026231,41.660101 35.062500,41.614125 C 36.271593,41.560480 37.126901,41.147532 38.312500,41.094930 C 39.104016,41.059813 40.618171,41.145468 41.312500,41.461828 C 41.729833,41.651979 42.835974,41.394235 43.312500,41.373093 C 43.676303,41.356952 44.429083,41.654081 44.562500,41.692633"
       id="path2082"
       sodipodi:nodetypes="cccccccccc" />
    <path
       style="fill:none;fill-opacity:0.75000000;fill-rule:evenodd;stroke:#8d94ec;stroke-width:1.0000000pt;stroke-linecap:round;stroke-linejoin:miter;stroke-opacity:1.0000000"
       d="M 16.303617,47.532193 C 17.348612,47.485830 19.377828,46.717678 20.312500,47.143545 C 22.390140,48.090185 24.860346,49.980345 27.187500,48.713519 C 27.651705,48.460821 30.515865,48.608756 31.187500,48.411049 C 35.075874,47.266438 33.088409,47.214664 35.562500,48.341941 C 36.273675,48.665975 38.440266,47.339262 39.062500,47.311655 C 39.290579,47.301535 40.922831,47.976224 41.080267,48.047957"
       id="path2084"
       sodipodi:nodetypes="ccccccc" />
  </g>
  <path
     sodipodi:nodetypes="ccccc"
     id="path1794"
     d="M 50.036832,24.210723 C 50.096858,21.757257 49.627938,16.493195 49.196811,13.203125 C 32.032755,14.869908 23.210008,14.739594 12.500000,13.703476 C 13.992127,18.853811 14.359415,24.182019 13.751781,30.329482 C 21.517035,47.430799 50.096501,32.472189 50.036832,24.210723 z "
     style="font-size:12.000000;fill:url(#radialGradient1750);fill-opacity:1.0000000;fill-rule:evenodd;" />
  <path
     id="path2070"
     d="M 50.281250,11.750000 C 37.083389,13.615344 26.541611,13.908291 11.000000,12.562500 C 13.981974,22.143895 12.270412,43.723170 8.5937500,55.593750 C 21.372611,57.368739 24.154860,57.862382 30.468750,57.406250 C 40.100661,56.717787 49.107036,51.984622 49.843750,45.093750 C 50.858738,38.624181 52.666739,28.795074 50.281250,11.750000 z M 49.312500,12.812500 C 51.037007,25.972781 50.396446,34.349274 49.000000,43.750000 C 46.826926,49.473175 42.517971,47.320716 41.906250,47.125000 C 41.473733,51.022472 34.655358,54.165759 32.125000,54.781250 C 24.815464,56.559247 21.627634,55.872338 10.312500,54.250000 C 13.336497,45.013675 15.329938,21.624026 12.625000,13.343750 C 23.335008,14.379868 32.148443,14.479283 49.312500,12.812500 z M 47.625000,47.562500 C 44.671179,52.457315 39.883405,54.344731 31.375000,56.218750 C 38.355870,54.067286 41.141221,52.069427 42.500000,48.781250 C 44.159444,49.301233 45.863509,49.219482 47.625000,47.562500 z "
     style="fill-rule:evenodd;fill-opacity:1.0000000;fill:url(#linearGradient3174);font-size:12.000000" />
</svg>
