<?xml version="1.0" encoding="UTF-8" standalone="no"?>
<!-- Created with Inkscape (http://www.inkscape.org/) -->
<svg
   xmlns:dc="http://purl.org/dc/elements/1.1/"
   xmlns:cc="http://web.resource.org/cc/"
   xmlns:rdf="http://www.w3.org/1999/02/22-rdf-syntax-ns#"
   xmlns:svg="http://www.w3.org/2000/svg"
   xmlns="http://www.w3.org/2000/svg"
   xmlns:xlink="http://www.w3.org/1999/xlink"
   xmlns:sodipodi="http://inkscape.sourceforge.net/DTD/sodipodi-0.dtd"
   xmlns:inkscape="http://www.inkscape.org/namespaces/inkscape"
   sodipodi:docname="gnome-mime-text-html.svg"
   sodipodi:docbase="/home/david/.icons/eXperience/normal/mimetypes"
   height="48.000000pt"
   width="48.000000pt"
   inkscape:version="0.41+cvs"
   sodipodi:version="0.32"
   id="svg1">
  <defs
     id="defs3">
    <linearGradient
       id="linearGradient3583"
       inkscape:collect="always">
      <stop
         id="stop3585"
         offset="0"
         style="stop-opacity:1.0000000;stop-color:#ffffff" />
      <stop
         id="stop3587"
         offset="1"
         style="stop-color:#2c4ab6;stop-opacity:0;" />
    </linearGradient>
    <linearGradient
       id="linearGradient3559">
      <stop
         style="stop-color:#97ff75;stop-opacity:1.0000000;"
         offset="0.0000000"
         id="stop3561" />
      <stop
         style="stop-color:#1fb51f;stop-opacity:1.0000000;"
         offset="1.0000000"
         id="stop3563" />
    </linearGradient>
    <linearGradient
       id="linearGradient1766">
      <stop
         id="stop1767"
         offset="0"
         style="stop-color:#000000;stop-opacity:1;" />
      <stop
         id="stop1768"
         offset="1"
         style="stop-color:#000000;stop-opacity:0;" />
    </linearGradient>
    <linearGradient
       id="linearGradient1762">
      <stop
         id="stop1763"
         offset="0.0000000"
         style="stop-color:#968ecd;stop-opacity:1.0000000;" />
      <stop
         id="stop1764"
         offset="1.0000000"
         style="stop-color:#554d85;stop-opacity:1.0000000;" />
    </linearGradient>
    <linearGradient
       id="linearGradient1751">
      <stop
         id="stop1752"
         offset="0.0000000"
         style="stop-color:#ffffff;stop-opacity:1.0000000;" />
      <stop
         id="stop1753"
         offset="1.0000000"
         style="stop-color:#afd3ff;stop-opacity:1.0000000;" />
    </linearGradient>
    <linearGradient
       id="linearGradient1746">
      <stop
         id="stop1747"
         offset="0.0000000"
         style="stop-color:#ffffff;stop-opacity:1.0000000;" />
      <stop
         id="stop1748"
         offset="1.0000000"
         style="stop-color:#ffffff;stop-opacity:0.0000000;" />
    </linearGradient>
    <linearGradient
       id="linearGradient2059">
      <stop
         id="stop2061"
         offset="0.0000000"
         style="stop-color:#b5d2ff;stop-opacity:1.0000000;" />
      <stop
         id="stop2063"
         offset="1.0000000"
         style="stop-color:#6eb9e7;stop-opacity:1.0000000;" />
    </linearGradient>
    <linearGradient
       inkscape:collect="always"
       xlink:href="#linearGradient3583"
       id="linearGradient3627"
       gradientUnits="userSpaceOnUse"
       gradientTransform="matrix(0.627113,-0.511069,9.854312e-3,-0.567131,17.33221,58.58957)"
       x1="5.2100849"
       y1="22.106287"
       x2="29.500000"
       y2="23.750000" />
    <linearGradient
       inkscape:collect="always"
       xlink:href="#linearGradient3583"
       id="linearGradient3630"
       gradientUnits="userSpaceOnUse"
       gradientTransform="matrix(0.505011,-0.785227,-0.863113,-0.459440,52.35514,72.79859)"
       x1="12.250000"
       y1="30.750000"
       x2="29.500000"
       y2="23.750000" />
    <radialGradient
       inkscape:collect="always"
       xlink:href="#linearGradient1746"
       id="radialGradient3633"
       gradientUnits="userSpaceOnUse"
       gradientTransform="matrix(0.955666,0.000000,0.000000,0.635799,7.628159,11.75470)"
       cx="43.392352"
       cy="3.1320463"
       fx="43.392352"
       fy="3.1320463"
       r="59.917704" />
    <linearGradient
       inkscape:collect="always"
       xlink:href="#linearGradient1762"
       id="linearGradient3636"
       gradientUnits="userSpaceOnUse"
       gradientTransform="matrix(0.754092,0.000000,0.000000,0.805753,7.628159,11.75470)"
       x1="22.609107"
       y1="7.0258278"
       x2="58.475802"
       y2="51.416283" />
    <linearGradient
       inkscape:collect="always"
       xlink:href="#linearGradient3559"
       id="linearGradient3640"
       gradientUnits="userSpaceOnUse"
       x1="20.000000"
       y1="29.200438"
       x2="37.605595"
       y2="56.832237" />
    <linearGradient
       inkscape:collect="always"
       xlink:href="#linearGradient1751"
       id="linearGradient3643"
       gradientUnits="userSpaceOnUse"
       gradientTransform="matrix(1.000000,-0.203248,0.000000,1.000000,-1.500000,5.589746)"
       x1="16.000000"
       y1="23.000000"
       x2="45.500000"
       y2="61.500000" />
    <linearGradient
       inkscape:collect="always"
       xlink:href="#linearGradient2059"
       id="linearGradient3647"
       gradientUnits="userSpaceOnUse"
       x1="14.875000"
       y1="38.750000"
       x2="36.875000"
       y2="67.750000" />
    <linearGradient
       inkscape:collect="always"
       xlink:href="#linearGradient1751"
       id="linearGradient3650"
       gradientUnits="userSpaceOnUse"
       gradientTransform="matrix(1.066980,0.000000,0.000000,0.569468,7.690659,11.87970)"
       x1="28.638879"
       y1="66.265707"
       x2="32.073531"
       y2="70.376839" />
    <radialGradient
       inkscape:collect="always"
       xlink:href="#linearGradient1751"
       id="radialGradient3653"
       gradientUnits="userSpaceOnUse"
       gradientTransform="matrix(0.752158,0.000000,0.000000,0.807825,7.628159,11.75470)"
       cx="44.574645"
       cy="47.514152"
       fx="44.574645"
       fy="47.514152"
       r="78.146215" />
    <linearGradient
       inkscape:collect="always"
       xlink:href="#linearGradient1762"
       id="linearGradient3656"
       gradientUnits="userSpaceOnUse"
       gradientTransform="matrix(0.754092,0.000000,0.000000,0.805753,7.628159,11.75470)"
       x1="22.609107"
       y1="7.0258278"
       x2="58.475802"
       y2="51.416283" />
    <linearGradient
       inkscape:collect="always"
       xlink:href="#linearGradient1766"
       id="linearGradient3659"
       gradientUnits="userSpaceOnUse"
       gradientTransform="matrix(0.773746,0.000000,0.000000,0.785286,7.628159,11.75470)"
       x1="50.651265"
       y1="51.526812"
       x2="52.728953"
       y2="55.049853" />
  </defs>
  <sodipodi:namedview
     showborder="true"
     inkscape:grid-bbox="false"
     inkscape:grid-points="false"
     showgrid="false"
     gridoriginx="0.0000000pt"
     gridoriginy="0.0000000pt"
     gridspacingx="1.0000000pt"
     gridspacingy="1.0000000pt"
     inkscape:guide-bbox="true"
     showguides="false"
     inkscape:current-layer="svg1"
     inkscape:window-y="0"
     inkscape:window-x="0"
     inkscape:window-height="724"
     inkscape:window-width="1022"
     inkscape:cy="20.803497"
     inkscape:cx="90.199125"
     inkscape:zoom="4.0000000"
     inkscape:pageshadow="2"
     inkscape:pageopacity="0.0"
     borderopacity="1.0"
     bordercolor="#666666"
     pagecolor="#ffffff"
     id="base">
    <sodipodi:guide
       id="guide2809"
       position="0.0000000"
       orientation="vertical" />
    <sodipodi:guide
       id="guide2810"
       position="48.000000"
       orientation="vertical" />
    <sodipodi:guide
       id="guide2811"
       position="0.0000000"
       orientation="horizontal" />
    <sodipodi:guide
       id="guide2819"
       position="47.000000"
       orientation="horizontal" />
    <sodipodi:guide
       id="guide1774"
       position="48.405405"
       orientation="horizontal" />
  </sodipodi:namedview>
  <metadata
     id="metadata4">
    <rdf:RDF
       id="RDF5">
      <cc:Work
         id="Work6"
         rdf:about="">
        <dc:format
           id="format7">image/svg+xml</dc:format>
        <dc:type
           rdf:resource="http://purl.org/dc/dcmitype/StillImage"
           id="type9" />
      </cc:Work>
    </rdf:RDF>
  </metadata>
  <path
     sodipodi:nodetypes="cscsccc"
     nodetypes="cccccc"
     id="path913"
     d="M 10.992770,58.212304 C 16.058345,58.213348 20.236121,57.919845 28.754448,57.476007 C 33.274720,57.240483 39.819119,57.197623 46.441869,57.007007 C 50.236075,51.787939 49.286477,48.490671 49.965358,44.482366 C 51.413276,35.933445 52.661476,30.592174 52.790461,15.791218 C 41.006660,19.808932 33.014399,21.603758 22.809868,25.553900 C 19.373245,36.544070 14.429394,47.222133 10.992770,58.212304 z "
     style="font-size:12.000000;opacity:0.12206573;fill:url(#linearGradient3659);fill-opacity:1.0000000;fill-rule:evenodd" />
  <path
     sodipodi:nodetypes="cscccc"
     id="path861"
     d="M 8.6025267,55.601307 C 21.381388,57.376296 24.161576,57.851699 30.475466,57.395567 C 40.107377,56.707106 49.118283,51.976595 49.854997,45.085723 C 50.869984,38.616155 52.675173,28.799814 50.289684,11.754740 C 37.091823,13.620084 26.543674,13.904636 11.002063,12.558845 C 13.984037,22.140240 12.279189,43.730727 8.6025267,55.601307 z "
     style="font-size:12.000000;fill:url(#linearGradient3656);fill-opacity:1.0000000;fill-rule:evenodd" />
  <path
     sodipodi:nodetypes="ccccccc"
     id="path863"
     d="M 10.187506,54.626939 C 21.502640,56.249276 24.700474,56.949179 32.010010,55.171182 C 34.540368,54.555690 41.344284,51.388914 41.776801,47.491442 C 42.388523,47.687160 46.707555,49.834530 48.880629,44.111355 C 50.277076,34.710629 50.921318,26.363406 49.196811,13.203125 C 32.032755,14.869908 23.210008,14.739594 12.500000,13.703476 C 15.204938,21.983752 13.211503,45.390614 10.187506,54.626939 z "
     style="font-size:12.000000;fill:url(#radialGradient3653);fill-opacity:1.0000000;fill-rule:evenodd" />
  <g
     id="g3247"
     transform="translate(-0.696500,0.766500)">
    <path
       sodipodi:nodetypes="cccccccc"
       id="path2074"
       d="M 17.394607,19.106154 C 17.712493,18.933107 19.249460,18.315709 19.812500,18.290729 C 20.641148,18.462113 21.565219,18.767867 21.924937,18.751907 C 23.490176,18.682461 23.835787,18.123870 25.062500,18.682799 C 26.485539,19.331183 29.394474,18.031588 31.062500,18.791595 C 32.400737,19.401339 34.162873,16.704225 36.312500,17.683665 C 37.730908,18.329938 41.488644,17.954013 43.062500,17.884185 C 44.285813,17.829909 47.143513,17.828120 47.312500,17.820623"
       style="fill:none;fill-opacity:0.75000000;fill-rule:evenodd;stroke:#8d94ec;stroke-width:1.0000000pt;stroke-linecap:round;stroke-linejoin:miter;stroke-opacity:1.0000000" />
    <path
       sodipodi:nodetypes="ccccccc"
       id="path2076"
       d="M 17.687500,24.260010 C 18.318015,24.232035 19.020485,23.679860 20.062500,24.154637 C 21.527568,24.822169 23.649028,23.976276 24.937500,24.563345 C 26.524871,25.286603 28.994652,23.883340 30.437500,23.819324 C 31.748723,23.761149 36.387371,23.530278 37.187500,23.894844 C 37.929270,24.232818 40.223695,24.554538 40.812500,24.234012 C 41.661838,23.771660 46.276106,24.241605 47.312500,24.195623"
       style="fill:none;fill-opacity:0.75000000;fill-rule:evenodd;stroke:#8d94ec;stroke-width:1.0000000pt;stroke-linecap:round;stroke-linejoin:miter;stroke-opacity:1.0000000" />
    <path
       sodipodi:nodetypes="cccccccccc"
       id="path2078"
       d="M 17.937500,30.248918 C 18.408904,30.184763 19.778490,30.861600 19.903490,30.814387 C 20.028490,30.767174 21.837747,29.903327 22.640927,30.269282 C 24.982305,31.336090 25.450125,30.415601 28.062500,30.299697 C 28.103254,30.297889 30.371798,30.925338 30.437500,30.944324 C 31.740820,31.320939 34.952096,30.864158 36.437500,30.303119 C 36.763460,30.180004 37.104167,30.106874 37.437500,30.008752 C 38.731737,29.627771 38.796861,29.565621 39.812500,30.028379 C 40.975818,30.558425 41.728071,29.818390 42.812500,29.770277 C 43.020833,29.761033 46.229167,30.368688 46.437500,30.359444"
       style="fill:none;fill-opacity:0.75000000;fill-rule:evenodd;stroke:#8d94ec;stroke-width:1.0000000pt;stroke-linecap:round;stroke-linejoin:miter;stroke-opacity:1.0000000" />
    <path
       id="path2080"
       d="M 17.687500,36.760010 C 18.491128,36.724355 19.316489,36.312735 20.187500,36.274091 C 20.739002,36.249622 23.443670,37.070208 24.062500,37.352167 C 25.545260,38.027761 28.707436,35.611062 30.687500,36.183232 C 33.399926,36.967031 37.145895,35.341155 39.562500,36.039471 C 40.823705,36.403916 43.833358,36.224984 45.062500,36.170450 C 45.354167,36.157509 45.645833,36.144569 45.937500,36.131628"
       style="fill:none;fill-opacity:0.75000000;fill-rule:evenodd;stroke:#8d94ec;stroke-width:1.0000000pt;stroke-linecap:round;stroke-linejoin:miter;stroke-opacity:1.0000000" />
    <path
       sodipodi:nodetypes="cccccccccc"
       id="path2082"
       d="M 17.312500,42.026647 C 18.342038,41.980969 22.673629,40.469353 23.812500,40.988259 C 24.801643,41.438945 25.483152,41.789136 26.562500,41.741248 C 27.508706,41.699267 28.095840,42.594048 29.187500,41.999784 C 30.277960,41.406173 31.108200,41.289567 32.062500,41.247227 C 32.820354,41.213603 34.026231,41.660101 35.062500,41.614125 C 36.271593,41.560480 37.126901,41.147532 38.312500,41.094930 C 39.104016,41.059813 40.618171,41.145468 41.312500,41.461828 C 41.729833,41.651979 42.835974,41.394235 43.312500,41.373093 C 43.676303,41.356952 44.429083,41.654081 44.562500,41.692633"
       style="fill:none;fill-opacity:0.75000000;fill-rule:evenodd;stroke:#8d94ec;stroke-width:1.0000000pt;stroke-linecap:round;stroke-linejoin:miter;stroke-opacity:1.0000000" />
    <path
       sodipodi:nodetypes="ccccccc"
       id="path2084"
       d="M 16.303617,47.532193 C 17.348612,47.485830 19.377828,46.717678 20.312500,47.143545 C 22.390140,48.090185 24.860346,49.980345 27.187500,48.713519 C 27.651705,48.460821 30.515865,48.608756 31.187500,48.411049 C 35.075874,47.266438 33.088409,47.214664 35.562500,48.341941 C 36.273675,48.665975 38.440266,47.339262 39.062500,47.311655 C 39.290579,47.301535 40.922831,47.976224 41.080267,48.047957"
       style="fill:none;fill-opacity:0.75000000;fill-rule:evenodd;stroke:#8d94ec;stroke-width:1.0000000pt;stroke-linecap:round;stroke-linejoin:miter;stroke-opacity:1.0000000" />
  </g>
  <path
     sodipodi:nodetypes="cccc"
     id="path1150"
     d="M 31.433714,56.353951 C 39.942119,54.479932 44.742026,52.569342 47.695847,47.674527 C 45.934356,49.331508 44.228118,49.425366 42.568674,48.905383 C 41.209893,52.193561 38.414584,54.202487 31.433714,56.353951 z "
     style="font-size:12.000000;opacity:0.91549295;fill:url(#linearGradient3650);fill-opacity:1.0000000;fill-rule:evenodd" />
  <path
     style="font-size:12.000000;fill:url(#linearGradient3647);fill-opacity:1.0000000;fill-rule:evenodd"
     d="M 26.500000,28.687500 C 25.548508,28.686376 24.539144,28.795148 23.531250,29.000000 C 21.827436,29.346297 20.210642,29.967322 18.687500,30.812500 C 18.670526,30.823186 18.640771,30.834512 18.625000,30.843750 C 16.560682,31.998395 14.832836,33.646131 13.312500,35.468750 C 12.783556,42.139958 11.802128,48.426404 10.593750,52.812500 C 11.032636,53.565931 11.535595,54.257560 12.125000,54.875000 C 20.134743,56.037287 24.337638,56.541079 29.437500,55.625000 C 34.559141,52.312315 38.187500,46.484563 38.187500,40.562500 C 38.187500,33.543300 33.160444,28.695365 26.500000,28.687500 z "
     id="path3232" />
  <path
     sodipodi:nodetypes="cccccccccccccccccccccccccccccccccccccccccccccccccccccccccccccccccccccccccccccccccccccccccccccccccccccccccccccccccccccccccccccccccccccccccccccccccccccccccccccccccccccccccccccccccccccccccccccccccccccccccccccccccccccccccccccccccccccccccc"
     id="path3247"
     d="M 22.608872,29.552524 C 22.250737,29.625314 22.143197,29.740959 21.989871,29.772122 C 21.989871,29.974552 22.083670,30.058280 22.083670,30.259512 C 22.039351,30.358354 22.050337,30.351211 21.577209,30.643812 C 21.561638,30.697285 21.546882,30.762496 21.539692,30.820256 C 21.270195,30.920546 21.202151,31.105925 20.976973,31.253506 C 20.327758,31.946030 17.816169,33.240079 17.713150,34.224051 C 17.904794,34.222231 17.913087,34.214294 18.876117,33.668802 C 20.204484,33.340122 21.659383,32.962298 22.702658,31.653065 C 22.937431,31.620920 23.174697,31.589440 23.415458,31.564463 C 23.415458,31.510563 23.415458,31.465909 23.415458,31.414404 C 24.050292,31.233870 24.457230,31.260518 25.084874,31.168885 C 25.610702,30.829637 25.600405,30.841818 25.835178,30.772540 C 25.835178,30.722232 25.835178,30.655227 25.835178,30.603722 C 26.207693,30.477701 26.586922,30.362750 26.960627,30.243673 C 26.960627,30.192168 26.960627,30.126362 26.960627,30.074855 C 27.010934,30.064630 27.059187,30.054823 27.110696,30.044354 C 27.030438,29.674973 26.835775,29.614284 26.698020,29.284139 C 25.712229,29.053290 22.608872,29.515391 22.608872,29.552524 z M 27.560876,29.202555 C 27.592017,29.276476 27.636286,29.344833 27.673414,29.423529 C 27.825537,29.459689 27.969079,29.496703 28.123594,29.538364 C 28.151153,29.700455 28.181454,29.858180 28.217381,30.025756 C 28.013761,30.045583 27.814777,30.085641 27.617145,30.110237 C 27.631513,30.185176 27.650654,30.257440 27.673414,30.342650 C 27.747672,30.845008 27.947132,31.450942 28.086077,31.984472 C 27.983071,32.005407 27.870219,32.028344 27.767201,32.049282 C 27.767201,32.149896 27.767201,32.247592 27.767201,32.349404 C 27.767201,32.362582 27.767201,32.385315 27.767201,32.405676 C 27.344379,32.660506 27.062995,32.953829 26.604234,33.186017 C 25.502259,32.752396 25.081354,32.758601 23.978176,33.457152 C 23.780545,34.198032 22.884444,34.569201 22.440051,35.214104 C 22.498751,35.566305 22.508647,35.559262 22.646389,35.734893 C 22.800904,35.683126 22.962008,35.630043 23.115334,35.583308 C 23.129702,35.676212 23.128887,35.776465 23.152851,35.875805 C 23.052225,36.137015 23.578717,36.477767 23.509232,36.309825 C 23.566729,36.268193 23.603031,36.231707 23.603031,36.196971 C 23.938417,35.894037 24.083061,35.600692 24.278300,35.196878 C 24.207626,35.109429 24.139043,35.009315 24.071963,34.919937 C 24.173779,34.745924 24.165749,34.759678 24.165749,34.563239 C 24.443639,34.373803 24.455426,34.362256 24.615929,34.396710 C 24.653070,34.724546 24.639003,34.729512 24.822267,35.030045 C 24.989960,34.972005 25.172597,34.916940 25.347481,34.867024 C 25.413358,34.853634 25.470366,34.842047 25.535054,34.828900 C 25.535054,34.893582 25.535054,34.960968 25.535054,35.035232 C 25.381741,35.080765 25.233401,35.131255 25.084874,35.183003 C 25.084874,35.578278 25.126174,35.681064 24.672211,35.773331 C 24.638665,35.919093 24.605970,36.062908 24.578412,36.205061 C 24.227468,36.387785 23.736439,36.792213 23.471727,36.467508 C 23.471727,36.368092 22.995191,36.559980 23.021547,36.540248 C 23.052688,36.515953 22.989554,36.221116 23.115334,36.127278 C 22.994352,36.129108 22.823214,36.037381 22.777692,36.064600 C 22.748944,36.179444 22.724217,36.299313 22.702658,36.417486 C 22.688290,36.510243 22.673534,36.598571 22.665141,36.687718 C 22.527399,36.757635 22.391423,36.841905 22.252478,36.921651 C 22.048859,37.167862 22.035944,37.155944 21.633478,37.441370 C 21.581969,37.414705 21.533729,37.395404 21.483422,37.378080 C 21.395987,37.423401 21.319825,37.467985 21.239580,37.521429 C 21.112611,37.905378 20.633081,38.013046 20.320455,38.120905 C 20.421069,38.610720 20.638655,38.756440 20.339208,39.298821 C 20.142766,39.331556 19.946976,39.366971 19.757724,39.398248 C 18.779111,39.502524 18.482958,40.068377 18.613522,41.056379 C 18.691375,41.071699 18.787479,41.097633 18.876117,41.115553 C 18.897688,41.227356 18.922402,41.328793 18.951151,41.437939 C 18.994280,41.429173 19.048507,41.418152 19.101207,41.407441 C 19.217403,41.333514 19.334226,41.259129 19.457613,41.184941 C 19.486361,41.206648 19.516663,41.248354 19.551387,41.278427 C 20.216172,40.815114 20.396003,40.265185 21.033242,39.851789 C 21.447684,39.277653 21.940905,39.323252 22.590120,39.272751 C 22.641629,39.349721 22.681488,39.428148 22.740175,39.504858 C 22.924642,39.746455 23.018954,39.534127 23.471727,40.087717 C 23.556770,40.190212 23.503707,40.368115 23.377941,40.519444 C 23.356382,40.545387 23.172417,40.500155 23.134086,40.512735 C 23.017902,40.551922 22.851937,40.775602 22.833962,40.817584 C 22.820796,40.857391 23.035489,41.087932 23.096569,41.045573 C 23.130115,41.019588 23.390705,40.545981 23.396693,40.553149 C 23.426631,40.581800 23.864848,40.370729 23.846873,40.067742 C 23.949891,39.972541 23.971349,40.095553 24.071963,40.003235 C 23.713828,39.646014 23.414781,39.463740 23.115334,39.034700 C 23.129702,38.980274 23.128887,38.913434 23.152851,38.858256 C 23.574470,39.106751 24.005534,39.355285 24.428356,39.611920 C 24.525387,39.622143 24.624272,39.649911 24.728480,39.663467 C 24.742848,39.792306 24.760799,39.911858 24.784750,40.045938 C 24.813498,40.004162 24.841407,39.969384 24.878536,39.933089 C 24.891714,40.060971 24.910855,40.199044 24.934818,40.334316 C 25.015063,40.332381 25.092415,40.319438 25.178660,40.322270 C 25.194231,40.165787 25.210979,40.020038 25.234930,39.860652 C 25.415801,39.809517 25.609612,39.760160 25.797661,39.708763 C 25.826409,39.716096 25.855521,39.720145 25.891447,39.727217 C 25.972895,40.177805 26.002608,40.476796 26.454178,40.569478 C 26.585933,40.504369 26.729099,40.448560 26.866841,40.391818 C 27.057295,40.331547 27.233130,40.275471 27.429572,40.221172 C 27.449940,40.166724 27.493408,40.108444 27.523359,40.052049 C 27.602414,40.086289 27.680968,40.119768 27.767201,40.152549 C 27.781581,40.398769 27.804317,40.657736 27.823483,40.910170 C 27.745617,41.399129 27.752895,41.400930 27.598393,41.687463 C 26.436516,42.049381 25.623717,41.901620 24.540907,42.158830 C 24.484613,42.308019 24.441158,42.464397 24.390839,42.620755 C 24.053073,42.784032 22.472069,42.130454 22.289996,41.884779 C 22.546327,41.612284 22.451275,41.484562 22.365030,41.194256 C 21.519373,41.279893 19.750810,41.887365 19.138724,41.681178 C 19.123153,41.618462 19.106004,41.546177 19.101207,41.482470 C 19.048507,41.493181 18.994280,41.504202 18.951151,41.512968 C 18.681654,41.911514 18.440480,41.951139 18.032026,42.187476 C 17.805646,42.497004 17.740320,42.569089 17.675633,42.916427 C 17.330664,43.330307 16.789027,43.573805 16.362610,43.989870 C 15.758917,44.982174 15.209251,46.121126 15.143362,47.238889 C 15.121803,47.426536 15.102663,47.621833 15.087092,47.813053 C 15.234430,48.446690 15.985298,49.237416 16.362610,49.729684 C 17.919751,50.309156 19.747991,49.073710 21.033242,50.280993 C 20.820028,52.214461 21.640142,51.905733 21.933602,53.605659 C 21.829394,53.875985 21.726914,54.162796 21.633478,54.435719 C 21.581969,54.446188 21.533729,54.455994 21.483422,54.466217 C 21.429520,54.543053 21.386066,54.619273 21.333366,54.703050 C 21.472299,55.229394 21.956313,55.358790 22.046153,55.983753 C 22.249773,56.247805 22.237935,56.244366 22.646389,56.461997 C 22.689518,56.584991 22.746138,56.696688 22.796457,56.825405 C 23.856506,56.659064 24.600772,56.595374 25.535054,55.931155 C 26.009385,55.490979 26.480309,55.042753 26.960627,54.609744 C 27.064836,54.071111 27.074732,54.071329 27.166965,54.023837 C 27.654474,53.537862 28.498302,53.106580 28.630056,52.450953 C 28.630056,52.377888 28.630056,52.310501 28.630056,52.244619 C 28.608498,51.874090 28.588155,51.518954 28.573774,51.149363 C 28.630081,50.801336 28.683043,50.738947 28.892663,50.428035 C 28.986086,50.237761 29.089769,50.048014 29.192775,49.860584 C 30.534320,48.381730 31.375291,47.440647 31.725046,45.538121 C 31.550175,45.623968 31.385087,45.706969 31.218597,45.791114 C 30.751456,46.089686 30.575858,46.268229 30.093134,46.226196 C 30.057208,46.108928 30.028109,45.999206 29.999360,45.888863 C 30.212563,45.778451 30.569557,45.425799 30.824686,45.270934 C 32.006919,44.219736 33.894410,42.474070 32.325294,41.552064 C 32.084533,41.675261 32.068725,41.714263 31.950136,41.965949 C 31.804013,42.001637 31.658855,42.049491 31.518721,42.091149 C 31.364205,41.867423 31.218597,41.837726 31.218597,41.683210 C 30.947897,41.499866 30.758884,41.422001 30.655865,41.084796 C 30.670246,40.995632 30.689387,40.916785 30.712147,40.829508 C 31.011595,40.821351 31.021792,40.818393 31.124810,40.951969 C 31.971656,41.399113 33.051660,41.093722 33.957205,40.470078 C 34.256653,40.533787 34.498729,40.502361 34.613710,40.786827 C 34.659232,40.842256 34.694707,40.910817 34.745014,40.966474 C 34.869591,40.941154 34.995596,40.909554 35.120172,40.890223 C 35.279473,41.048296 35.338435,41.413716 35.439049,41.538198 C 35.635490,42.089989 35.835665,42.647841 36.039284,43.198170 C 36.112352,43.154573 36.184129,43.115261 36.264374,43.077392 C 36.366190,42.341609 36.334085,41.502444 36.639532,39.362174 C 36.639532,39.114228 36.748075,38.986235 36.770836,38.697730 C 36.843903,38.690066 36.914478,38.691677 36.995926,38.689495 C 37.060613,38.873986 37.131589,39.057340 37.202264,39.247800 C 37.335208,39.285460 37.475982,39.326634 37.614926,39.370261 C 37.614926,39.048051 37.614926,38.733439 37.614926,38.413626 C 37.154963,37.974090 37.151669,37.159921 36.939657,36.525056 C 36.853411,36.336561 36.774857,36.144376 36.695802,35.955619 C 36.695802,35.853806 36.695802,35.750126 36.695802,35.655498 C 36.644293,35.665967 36.597255,35.675528 36.545746,35.685997 C 36.246298,34.878452 36.241413,34.889343 35.832959,34.161447 C 35.146616,32.929460 34.076220,31.930391 32.944294,31.147110 C 32.672393,30.980779 32.407218,30.817756 32.137721,30.654530 C 31.464543,30.264318 30.846557,29.970862 30.093134,29.738301 C 29.275049,29.494926 28.452041,29.233436 27.560876,29.202555 z M 17.019128,32.301778 C 16.742429,32.518522 16.212555,32.862257 16.212555,33.234772 C 16.305514,33.205797 16.399489,33.185973 16.493914,33.158829 C 16.760379,32.723779 17.019128,32.278786 17.019128,32.301778 z M 16.493914,33.158829 C 16.177330,33.675701 15.856149,34.198024 15.856149,34.170059 C 14.396027,34.466826 13.149432,35.634808 12.310979,37.010210 C 12.830819,36.620676 13.046664,36.400969 13.624001,36.180615 C 13.624001,36.283626 13.624001,36.398878 13.624001,36.499494 C 13.727020,36.478556 13.822310,36.459189 13.924126,36.438495 C 14.084629,35.932741 14.082887,35.921406 14.280519,35.690786 C 14.310470,35.545753 14.357132,35.414262 14.393070,35.274001 C 14.693708,35.265602 14.891803,35.420411 15.199644,35.503976 C 15.956649,34.854225 16.277342,33.842427 16.869060,33.195127 C 16.846299,33.149445 16.827158,33.105086 16.812790,33.056503 C 16.703734,33.086321 16.601429,33.127921 16.493914,33.158829 z M 26.866841,31.125583 C 26.604522,31.637658 26.752524,32.022302 27.166965,32.265067 C 27.182536,32.161288 27.187709,32.055356 27.204482,31.957322 C 27.139795,31.898600 27.082787,31.840404 27.016897,31.789114 C 27.031277,31.544235 27.032856,31.324215 27.054414,31.087459 C 26.981346,31.102310 26.935111,31.111707 26.866841,31.125583 z M 20.995725,35.920327 C 20.896314,35.940532 20.552372,36.085467 20.451759,36.105917 C 20.349943,36.234412 20.646973,36.331600 20.508028,36.450873 C 20.473292,36.457933 20.705597,36.823385 20.676849,36.829228 C 20.603781,36.966254 20.821781,36.918591 20.676849,37.204379 C 20.709192,37.367892 20.339596,37.529469 20.376725,37.696802 C 20.932504,37.583841 20.917434,37.593732 21.070747,37.461956 C 21.122256,37.479037 21.169306,37.442307 21.220815,37.468971 C 21.301060,37.415528 21.357267,37.319923 21.445905,37.273161 C 21.394396,36.706288 20.953799,36.497803 20.995725,35.920327 z M 20.489276,36.661019 C 20.205386,36.530664 20.234761,37.016390 19.964062,37.236706 C 19.912553,37.417264 19.999161,37.454639 20.057848,37.499007 C 20.203983,37.447746 20.262119,37.415592 20.414242,37.370299 C 20.508868,37.261230 20.416208,36.801637 20.489276,36.661019 z M 15.649823,38.019778 C 15.613885,38.031876 15.572008,38.041176 15.537272,38.061411 C 15.522904,38.234420 15.514136,38.416445 15.499768,38.594246 C 15.529706,38.615711 15.555223,38.639629 15.593542,38.668974 C 15.795971,38.657775 16.010125,38.660915 16.212555,38.655707 C 16.307180,38.600539 16.412053,38.532558 16.512666,38.482164 C 16.512666,38.512108 16.512666,38.558774 16.512666,38.594710 C 16.649218,38.535812 16.799161,38.484209 16.944094,38.431992 C 16.965652,38.348556 16.990379,38.270559 17.019128,38.191651 C 16.990379,38.081305 16.965652,37.972686 16.944094,37.869265 C 16.799161,37.877164 16.649218,37.875728 16.512666,37.881922 C 16.512666,37.976550 16.507230,37.987548 16.156273,38.160692 C 15.981402,38.107597 15.818707,38.063309 15.649823,38.019778 z M 22.046153,39.645917 C 21.965896,39.714931 21.945152,39.798108 22.008636,39.878632 C 22.062538,39.950327 22.092414,40.087893 22.177444,40.069413 C 22.190635,40.066732 22.151514,40.197602 22.158692,40.204528 C 22.210201,40.287487 22.254858,40.257617 22.308760,40.249057 C 22.377030,40.241171 22.446452,40.234677 22.421299,40.151154 C 22.372195,39.980265 22.228928,40.029818 22.233726,40.020460 C 22.276843,39.925453 22.230156,39.725089 22.177444,39.656748 C 22.115162,39.575978 22.125208,39.577146 22.046153,39.645917 z M 27.673414,42.553821 C 27.740494,42.540187 27.809077,42.526247 27.879752,42.511883 C 28.667911,43.563870 29.491157,44.366420 29.849292,45.713030 C 29.644470,45.754659 29.548855,45.680306 29.342843,45.722177 C 29.306904,45.679174 29.259040,45.640654 29.230292,45.594991 C 29.090144,45.417455 28.965743,45.226201 28.836381,45.056054 C 28.541719,44.781757 28.565018,44.606144 28.536257,44.160418 C 28.060736,43.963604 27.759660,43.090872 27.673414,42.553821 z M 30.618348,51.540383 C 30.443477,51.759187 30.260840,51.986522 30.093134,52.209857 C 29.370865,52.744746 29.493450,52.756553 29.136505,53.360926 C 28.917303,53.661809 28.908234,53.705309 28.892663,54.029487 C 28.958540,54.046041 29.014359,54.061408 29.080236,54.085150 C 29.555757,53.602809 29.882250,53.137728 30.261967,52.569452 C 30.523084,52.182194 30.690539,51.935359 30.824686,51.498445 C 30.752821,51.513051 30.683036,51.527236 30.618348,51.540383 z "
     style="font-size:12.000000;fill:none;stroke:#0034b5;stroke-width:0.50000000;stroke-miterlimit:4.0000000;stroke-dasharray:none;stroke-opacity:1.0000000" />
  <path
     style="font-size:12.000000;fill:url(#linearGradient3643);fill-opacity:1.0000000"
     id="path1456"
     d="M 20.974092,31.249249 C 21.199282,31.101665 21.266362,30.926328 21.535858,30.826038 C 21.543049,30.768278 21.558619,30.705224 21.574190,30.651751 C 22.047331,30.359147 22.047331,30.359147 22.091637,30.260308 C 22.091637,30.059076 21.989834,29.974361 21.989834,29.771931 C 22.143147,29.740771 22.244962,29.618264 22.603110,29.545471 C 22.603110,29.508339 22.603110,29.471207 22.603110,29.442460 C 22.937294,29.374538 23.272680,29.306372 23.609256,29.237963 C 24.763943,29.215286 25.719796,29.042572 26.705586,29.273422 C 26.843329,29.603569 27.033783,29.681045 27.114040,30.050426 C 27.062531,30.060895 27.012224,30.071120 26.961905,30.081347 C 26.961905,30.132854 26.961905,30.184358 26.961905,30.235864 C 26.588200,30.354940 26.216887,30.481915 25.844360,30.607937 C 25.844360,30.659443 25.844360,30.712146 25.844360,30.762454 C 25.609587,30.831732 25.609587,30.831732 25.083759,31.170980 C 24.456103,31.262615 24.047661,31.229444 23.412827,31.409977 C 23.412827,31.461482 23.412827,31.510594 23.412827,31.564495 C 23.172066,31.589472 22.931306,31.624033 22.696533,31.656179 C 21.653245,32.965412 20.200313,33.346960 18.871945,33.675640 C 17.908915,34.221132 17.908915,34.221132 17.717259,34.222954 C 17.820277,33.238982 20.324877,31.941773 20.974092,31.249249 z " />
  <path
     style="font-size:12.000000;fill:url(#linearGradient3640);fill-opacity:1.0000000"
     id="path1458"
     d="M 12.052844,37.215259 C 12.891310,35.839852 15.563616,32.450730 17.023738,32.153963 C 17.023738,32.205468 17.023738,32.255776 17.023738,32.306084 C 16.747038,32.522829 16.214020,32.857548 16.214020,33.230064 C 16.412854,33.168091 16.615284,33.111376 16.820106,33.055374 C 16.834486,33.103956 16.848854,33.152542 16.871615,33.198223 C 16.279897,33.845522 15.957689,34.859671 15.200683,35.509422 C 14.892843,35.425857 14.689211,35.263620 14.388561,35.272020 C 14.352634,35.412279 14.316696,35.550146 14.286757,35.695176 C 14.089113,35.925797 14.089113,35.925797 13.928610,36.431550 C 13.826794,36.452244 13.724991,36.472935 13.621972,36.493874 C 13.621972,36.393260 13.621972,36.291446 13.621972,36.188434 C 13.044635,36.408788 12.572697,36.825720 12.052844,37.215259 z M 35.831644,34.156213 C 36.240098,34.884110 36.240098,34.884110 36.539545,35.691655 C 36.591055,35.681186 36.641361,35.670961 36.692871,35.660492 C 36.692871,35.755120 36.692871,35.858131 36.692871,35.959943 C 36.771926,36.148700 36.861766,36.334065 36.947999,36.522562 C 37.160011,37.157427 37.145644,37.970065 37.605594,38.409603 C 37.605594,38.729416 37.605594,39.051626 37.605594,39.373834 C 37.466649,39.330207 37.336085,39.289665 37.203140,39.252006 C 37.132466,39.061545 37.065386,38.870356 37.000711,38.685863 C 36.919251,38.688044 36.839006,38.698365 36.765938,38.706029 C 36.743177,38.994534 36.641361,39.118240 36.641361,39.366186 C 36.335926,41.506453 36.363472,42.335724 36.261656,43.071506 C 36.181411,43.109378 36.108343,43.146986 36.035276,43.190583 C 35.831644,42.640256 35.626822,42.090172 35.430380,41.538382 C 35.329767,41.413898 35.283055,41.049677 35.123742,40.891607 C 34.999178,40.910935 34.874601,40.936255 34.750037,40.961573 C 34.699730,40.905917 34.655411,40.849046 34.609890,40.793615 C 34.494896,40.509154 34.255338,40.536281 33.955890,40.472574 C 33.050344,41.096219 31.962737,41.396327 31.115891,40.949182 C 31.012885,40.815603 31.012885,40.815603 30.713438,40.823759 C 30.690677,40.911036 30.676309,41.002592 30.661928,41.091757 C 30.764947,41.428962 30.947008,41.502156 31.217707,41.685500 C 31.217707,41.840016 31.369830,41.860605 31.524345,42.084331 C 31.664492,42.042670 31.801045,42.006532 31.947167,41.970844 C 32.065756,41.719159 32.078934,41.673359 32.319695,41.550162 C 33.888810,42.472167 31.998676,44.214641 30.816444,45.265840 C 30.561315,45.420707 30.210358,45.781905 29.997143,45.892319 C 30.025904,46.002660 30.057033,46.112521 30.092971,46.229786 C 30.575683,46.271820 30.750566,46.096131 31.217707,45.797560 C 31.384198,45.713414 31.553094,45.626383 31.727977,45.540531 C 31.378210,47.443061 30.530174,48.383216 29.188628,49.862068 C 29.085622,50.049501 28.981414,50.235977 28.887978,50.426254 C 28.678371,50.737162 28.638837,50.795507 28.582543,51.143531 C 28.596911,51.513128 28.611291,51.880327 28.632849,52.250857 C 28.632849,52.316738 28.632849,52.382615 28.632849,52.455681 C 28.501095,53.111308 27.651844,53.539049 27.164335,54.025025 C 27.072114,54.072514 27.072114,54.072514 26.967905,54.611147 C 26.487587,55.044155 26.010850,55.484822 25.536532,55.924994 C 24.602238,56.589218 23.859600,56.665894 22.799539,56.832237 C 22.749245,56.703518 22.696533,56.583669 22.653416,56.460674 C 22.244962,56.243043 22.244962,56.243043 22.041331,55.978992 C 21.951503,55.354028 21.471184,55.225267 21.332239,54.698923 C 21.384938,54.615146 21.431650,54.539771 21.485552,54.462938 C 21.535858,54.452713 21.587368,54.442244 21.638864,54.431777 C 21.732300,54.158854 21.834116,53.881830 21.938325,53.611505 C 21.644865,51.911580 20.819577,52.218260 21.032791,50.284791 C 19.747540,49.077509 17.916106,50.309768 16.358953,49.730297 C 15.981640,49.238029 15.243800,48.436938 15.096475,47.803297 C 15.112045,47.612078 15.126413,47.425893 15.147971,47.238247 C 15.213861,46.120480 15.755260,44.991111 16.358953,43.998807 C 16.785370,43.582743 17.338756,43.332519 17.683725,42.918637 C 17.748412,42.571301 17.813087,42.499465 18.039467,42.189936 C 18.447921,41.953600 18.682694,41.913071 18.952203,41.514521 C 18.995320,41.505758 19.046829,41.495289 19.099528,41.484578 C 19.104326,41.548285 19.130669,41.620789 19.146240,41.683504 C 19.758326,41.889693 21.510705,41.284382 22.356361,41.198746 C 22.442607,41.489053 22.551600,41.608240 22.295269,41.880735 C 22.477330,42.126414 24.046459,42.780108 24.384238,42.616828 C 24.434544,42.460472 24.486054,42.302672 24.542348,42.153483 C 25.625170,41.896269 26.427697,42.048180 27.589561,41.686264 C 27.744077,41.399728 27.744077,41.399728 27.821942,40.910768 C 27.802776,40.658335 27.784801,40.405658 27.770433,40.159435 C 27.684187,40.126657 27.596752,40.094119 27.517697,40.059878 C 27.487746,40.116274 27.455414,40.173155 27.435046,40.227601 C 27.238605,40.281902 27.048151,40.337379 26.857709,40.397647 C 26.719954,40.454391 26.581010,40.512577 26.449255,40.577687 C 25.997685,40.485005 25.976127,40.175562 25.894666,39.724975 C 25.858740,39.717904 25.821611,39.708683 25.792863,39.701349 C 25.604802,39.752749 25.420335,39.807009 25.239477,39.858141 C 25.215513,40.017530 25.202335,40.171132 25.186765,40.327614 C 25.100532,40.324778 25.011894,40.327223 24.931636,40.329160 C 24.907685,40.193886 24.893305,40.059061 24.880127,39.931178 C 24.842998,39.967473 24.808262,40.011666 24.779514,40.053443 C 24.755563,39.919363 24.741182,39.790529 24.726814,39.661690 C 24.622606,39.648134 24.523182,39.631209 24.426164,39.620984 C 24.003342,39.364349 23.580520,39.113707 23.158889,38.865213 C 23.134938,38.920389 23.120557,38.973619 23.106177,39.028047 C 23.405637,39.457085 23.711072,39.642952 24.069219,40.000171 C 23.968606,40.092488 23.944643,39.971589 23.841637,40.066788 C 23.859600,40.369776 23.422410,40.591588 23.392459,40.562941 C 23.386471,40.555773 23.132533,41.026616 23.098999,41.052598 C 23.037907,41.094959 22.821110,40.865923 22.834275,40.826115 C 22.852251,40.784134 23.027134,40.559335 23.143318,40.520149 C 23.181649,40.507568 23.350533,40.555889 23.372091,40.529947 C 23.497870,40.378615 23.549367,40.184883 23.464324,40.082387 C 23.011551,39.528797 22.933698,39.743456 22.749245,39.501859 C 22.690545,39.425151 22.639036,39.349378 22.587527,39.272407 C 21.938325,39.322906 21.440043,39.278049 21.025601,39.852186 C 20.388362,40.265582 20.221871,40.804895 19.557086,41.268207 C 19.522350,41.238137 19.485221,41.209749 19.456473,41.188043 C 19.333099,41.262228 19.215725,41.337588 19.099528,41.411515 C 19.046829,41.422226 18.995320,41.432695 18.952203,41.441458 C 18.923455,41.332312 18.893504,41.219817 18.871945,41.108011 C 18.783307,41.090091 18.694669,41.072173 18.616817,41.056854 C 18.486265,40.068847 18.783307,39.505399 19.761921,39.401123 C 19.951172,39.369846 20.142816,39.339277 20.339258,39.306540 C 20.638705,38.764159 20.418313,38.610119 20.317700,38.120304 C 20.630325,38.012445 21.104656,37.916038 21.231626,37.532089 C 21.311871,37.478646 21.398116,37.425183 21.485552,37.379864 C 21.535858,37.397187 21.587368,37.422652 21.638864,37.449319 C 22.041331,37.163892 22.041331,37.163892 22.244962,36.917678 C 22.383907,36.837933 22.522852,36.764175 22.660594,36.694257 C 22.668987,36.605112 22.682165,36.516190 22.696533,36.423435 C 22.718091,36.305262 22.740852,36.189242 22.769600,36.074397 C 22.815122,36.047177 22.985208,36.127598 23.106177,36.125771 C 22.980410,36.219607 23.058275,36.521199 23.027134,36.545495 C 23.000778,36.565225 23.463121,36.374234 23.463121,36.473650 C 23.727845,36.798353 24.223735,36.384938 24.574692,36.202211 C 24.602238,36.060061 24.641771,35.914278 24.675305,35.768519 C 25.129280,35.676249 25.083759,35.575302 25.083759,35.180027 C 25.232286,35.128280 25.383207,35.083232 25.536532,35.037696 C 25.536532,34.963431 25.536532,34.897552 25.536532,34.832870 C 25.471845,34.846018 25.405967,34.859407 25.340090,34.872797 C 25.165207,34.922714 24.997513,34.971172 24.829820,35.029211 C 24.646557,34.728679 24.646557,34.728679 24.609428,34.400840 C 24.448925,34.366386 24.448925,34.366386 24.171035,34.555821 C 24.171035,34.752262 24.171035,34.752262 24.069219,34.926273 C 24.136287,35.015654 24.202176,35.104075 24.272839,35.191527 C 24.077600,35.595341 23.944643,35.884683 23.609256,36.187619 C 23.609256,36.222355 23.568532,36.265368 23.511035,36.306999 C 23.580520,36.474943 23.058275,36.131913 23.158889,35.870704 C 23.134938,35.771363 23.120557,35.674869 23.106177,35.581967 C 22.952864,35.628699 22.799539,35.681423 22.645024,35.733190 C 22.507281,35.557559 22.507281,35.557559 22.448582,35.205358 C 22.892974,34.560453 23.776950,34.203511 23.974594,33.462626 C 25.077771,32.764077 25.501796,32.758147 26.603771,33.191768 C 27.062531,32.959581 27.347611,32.653693 27.770433,32.398865 C 27.770433,32.378503 27.770433,32.362933 27.770433,32.349755 C 27.770433,32.247944 27.770433,32.142535 27.770433,32.041922 C 27.873439,32.020986 27.975255,32.000292 28.078261,31.979356 C 27.939316,31.445824 27.744077,30.843485 27.669819,30.341125 C 27.647058,30.255917 27.632678,30.177389 27.618310,30.102451 C 27.815942,30.077854 28.019574,30.049643 28.223193,30.029818 C 28.187267,29.862242 28.157316,29.700635 28.129770,29.538542 C 27.975255,29.496881 27.821942,29.462162 27.669819,29.426004 C 27.632678,29.347311 27.596752,29.274359 27.565611,29.200437 C 28.456776,29.231320 29.282064,29.500780 30.100162,29.744153 C 30.853572,29.976716 31.458468,30.262223 32.131633,30.652437 C 32.401142,30.815662 32.669449,30.979128 32.941351,31.145457 C 34.073277,31.928739 35.145301,32.924227 35.831644,34.156213 z M 30.100162,52.207762 C 30.267855,51.984427 30.436738,51.760846 30.611622,51.542039 C 30.676309,51.528891 30.744579,51.515016 30.816444,51.500409 C 30.682297,51.937322 30.515793,52.190364 30.254677,52.577621 C 29.874972,53.145895 29.561143,53.603757 29.085622,54.086097 C 29.019745,54.062357 28.953855,54.041012 28.887978,54.024456 C 28.903549,53.700279 28.917929,53.668610 29.137119,53.367731 C 29.494076,52.763354 29.377880,52.742653 30.100162,52.207762 z M 15.601947,38.676310 C 15.563616,38.646967 15.528879,38.618093 15.498928,38.596632 C 15.513296,38.418831 15.528879,38.239587 15.543247,38.066580 C 15.577984,38.046343 15.615112,38.023227 15.651051,38.011130 C 15.819947,38.054658 15.987640,38.100828 16.162511,38.153924 C 16.513468,37.980780 16.513468,37.980780 16.513468,37.886152 C 16.650020,37.879958 16.798548,37.872530 16.943480,37.864634 C 16.965038,37.968055 16.994989,38.073361 17.023738,38.183707 C 16.994989,38.262615 16.965038,38.341769 16.943480,38.425205 C 16.798548,38.477421 16.650020,38.535158 16.513468,38.594056 C 16.513468,38.558121 16.513468,38.520990 16.513468,38.491045 C 16.412854,38.541440 16.308646,38.599751 16.214020,38.654918 C 16.011591,38.660127 15.804376,38.665112 15.601947,38.676310 z M 26.348642,39.332057 C 26.046789,39.043650 26.304323,38.304965 26.603771,37.959025 C 27.012224,38.008963 27.201476,38.072313 27.602739,37.830253 C 27.975255,38.155802 28.487917,38.088737 28.735855,38.542621 C 28.735855,38.556992 28.735855,38.568972 28.735855,38.592927 C 28.341782,38.898208 28.223193,38.864816 27.770433,38.890961 C 27.632678,38.881828 27.494936,38.873890 27.363181,38.871920 C 27.019415,39.020845 26.682826,39.177892 26.348642,39.332057 z M 30.049855,38.018025 C 29.866591,37.521051 29.304812,37.716682 29.647389,36.939153 C 29.727634,36.835402 29.807892,36.738837 29.889340,36.640833 C 29.982775,36.621843 30.078604,36.609553 30.173229,36.597507 C 30.400812,37.568186 30.896701,37.808773 31.268014,38.836482 C 31.137462,38.934884 31.137462,38.934884 30.355290,39.021991 C 30.327744,38.728138 30.297793,38.434774 30.275045,38.147134 C 30.195977,38.105709 30.121720,38.060911 30.049855,38.018025 z M 28.838874,45.061689 C 28.968236,45.231836 29.098800,45.408927 29.238935,45.586466 C 29.267683,45.632130 29.304812,45.676088 29.340751,45.719091 C 29.546775,45.677217 29.647389,45.759778 29.852211,45.718149 C 29.494076,44.371541 28.661598,43.571719 27.873439,42.519732 C 27.802776,42.534094 27.736886,42.547486 27.669819,42.561117 C 27.756052,43.098174 28.055512,43.964409 28.531033,44.161223 C 28.559782,44.606951 28.544211,44.787392 28.838874,45.061689 z M 21.218448,37.462898 C 21.166938,37.436234 21.128607,37.479960 21.077110,37.462879 C 20.923785,37.594658 20.923785,37.594658 20.368006,37.707618 C 20.330878,37.540284 20.706975,37.377601 20.674644,37.214085 C 20.819577,36.928297 20.601577,36.958232 20.674644,36.821206 C 20.703393,36.815363 20.475810,36.451970 20.510546,36.444909 C 20.649491,36.325634 20.353626,36.234844 20.455442,36.106349 C 20.556055,36.085900 20.902227,35.947266 21.001638,35.927061 C 20.959724,36.504536 21.398116,36.711292 21.449625,37.278166 C 21.360975,37.324931 21.298693,37.409455 21.218448,37.462898 z M 19.971540,37.240801 C 20.242239,37.020487 20.209896,36.533565 20.493773,36.663923 C 20.420706,36.804541 20.504546,37.267820 20.409933,37.376887 C 20.257810,37.422180 20.207491,37.439594 20.061368,37.490852 C 20.002669,37.446487 19.920031,37.421359 19.971540,37.240801 z M 27.164335,32.265723 C 26.749905,32.022956 26.595390,31.630337 26.857709,31.118263 C 26.925979,31.104387 26.989464,31.091484 27.062531,31.076633 C 27.040973,31.313388 27.026592,31.551082 27.012224,31.795959 C 27.078102,31.847251 27.145169,31.899498 27.209856,31.958219 C 27.193096,32.056252 27.179918,32.161943 27.164335,32.265723 z M 22.038938,39.640238 C 22.117993,39.571466 22.122791,39.570491 22.185073,39.651260 C 22.237772,39.719605 22.280901,39.921653 22.237772,40.016661 C 22.232987,40.026016 22.368337,39.972155 22.417441,40.143044 C 22.442607,40.226566 22.376717,40.238762 22.308447,40.246649 C 22.254545,40.255207 22.206631,40.285308 22.155122,40.202349 C 22.147944,40.195424 22.193453,40.065195 22.180275,40.067874 C 22.095245,40.086353 22.055711,39.950652 22.001809,39.878958 C 21.938325,39.798433 21.958680,39.709251 22.038938,39.640238 z "
     sodipodi:nodetypes="cccccccccccccccccccccccccccccccccccccccccccccccccccccccccccccccccccccccccccccccccccccccccccccccccccccccccccccccccccccccccccccccccccccccccccccccccccccccccccccccccccccccccccccccccccccccccccccccccccccccccccccccccccccccccccccccccccc" />
  <path
     style="stroke-width:0.62500000;stroke-miterlimit:4.0000000;stroke-dasharray:none;stroke-opacity:1.0000000;stroke:#5c77d8;fill-rule:evenodd;fill-opacity:1.0000000;fill:none;font-size:12.000000"
     d="M 26.437500,29.000000 C 25.506594,28.998901 24.517337,29.112080 23.531250,29.312500 C 21.864302,29.651304 20.271436,30.266857 18.781250,31.093750 C 18.764640,31.104205 18.765431,31.115962 18.750000,31.125000 C 15.890406,32.724469 14.288643,34.176220 12.593750,36.968750 C 12.143501,41.381439 11.101251,47.580221 10.250000,51.406250 C 11.060562,54.071409 12.206965,54.382990 14.437500,55.750000 C 18.565180,56.307642 23.073473,56.917068 25.562500,57.000000 C 32.762680,54.798137 37.875000,47.976922 37.875000,40.625000 C 37.875000,33.757662 32.953839,29.007696 26.437500,29.000000 z "
     id="path2939"
     sodipodi:nodetypes="cccccccccc" />
  <path
     style="font-size:12.000000;fill:url(#linearGradient3636);fill-opacity:1.0000000;fill-rule:evenodd"
     d="M 50.281250,11.750000 C 37.083389,13.615344 26.541611,13.908291 11.000000,12.562500 C 13.981974,22.143895 12.270412,43.723170 8.5937500,55.593750 C 21.372611,57.368739 24.154860,57.862382 30.468750,57.406250 C 40.100661,56.717787 49.107036,51.984622 49.843750,45.093750 C 50.858738,38.624181 52.666739,28.795074 50.281250,11.750000 z M 49.312500,12.812500 C 51.037007,25.972781 50.396446,34.349274 49.000000,43.750000 C 46.826926,49.473175 43.205471,48.008216 41.843750,47.625000 C 41.411233,51.522472 34.655358,54.165759 32.125000,54.781250 C 24.815464,56.559247 21.627634,55.872338 10.312500,54.250000 C 13.336497,45.013675 15.329938,21.624026 12.625000,13.343750 C 23.335008,14.379868 32.148443,14.479283 49.312500,12.812500 z M 47.625000,47.562500 C 44.671179,52.457315 39.883405,54.344731 31.375000,56.218750 C 38.355870,54.067286 41.141221,52.069427 42.500000,48.781250 C 44.159444,49.301233 45.863509,49.219482 47.625000,47.562500 z "
     id="path2070"
     sodipodi:nodetypes="ccccccccccccccccc" />
  <path
     sodipodi:nodetypes="ccccc"
     id="path1794"
     d="M 50.036832,24.210723 C 50.096858,21.757257 49.627938,16.493195 49.196811,13.203125 C 32.032755,14.869908 23.210008,14.739594 12.500000,13.703476 C 13.992127,18.853811 14.359415,24.182019 13.751781,30.329482 C 21.517035,47.430799 50.096501,32.472189 50.036832,24.210723 z "
     style="font-size:12.000000;fill:url(#radialGradient3633);fill-opacity:1.0000000;fill-rule:evenodd" />
</svg>
