<?xml version="1.0" encoding="UTF-8" standalone="no"?>
<!-- Created with Inkscape (http://www.inkscape.org/) -->
<svg
   xmlns:dc="http://purl.org/dc/elements/1.1/"
   xmlns:cc="http://web.resource.org/cc/"
   xmlns:rdf="http://www.w3.org/1999/02/22-rdf-syntax-ns#"
   xmlns:svg="http://www.w3.org/2000/svg"
   xmlns="http://www.w3.org/2000/svg"
   xmlns:xlink="http://www.w3.org/1999/xlink"
   xmlns:sodipodi="http://inkscape.sourceforge.net/DTD/sodipodi-0.dtd"
   xmlns:inkscape="http://www.inkscape.org/namespaces/inkscape"
   id="svg1"
   sodipodi:version="0.32"
   inkscape:version="0.41+cvs"
   width="48.000000pt"
   height="48.000000pt"
   sodipodi:docbase="/home/david/.icons/eXperience/normal/mimetypes"
   sodipodi:docname="gnome-mime-image-x-xpimap.svg">
  <defs
     id="defs3">
    <linearGradient
       id="linearGradient1766">
      <stop
         style="stop-color:#000000;stop-opacity:1;"
         offset="0"
         id="stop1767" />
      <stop
         style="stop-color:#000000;stop-opacity:0;"
         offset="1"
         id="stop1768" />
    </linearGradient>
    <linearGradient
       id="linearGradient1762">
      <stop
         style="stop-color:#968ecd;stop-opacity:1.0000000;"
         offset="0.0000000"
         id="stop1763" />
      <stop
         style="stop-color:#554d85;stop-opacity:1.0000000;"
         offset="1.0000000"
         id="stop1764" />
    </linearGradient>
    <linearGradient
       id="linearGradient1751">
      <stop
         style="stop-color:#ffffff;stop-opacity:1.0000000;"
         offset="0.0000000"
         id="stop1752" />
      <stop
         style="stop-color:#afd3ff;stop-opacity:1.0000000;"
         offset="1.0000000"
         id="stop1753" />
    </linearGradient>
    <linearGradient
       id="linearGradient1746">
      <stop
         style="stop-color:#ffffff;stop-opacity:1.0000000;"
         offset="0.0000000"
         id="stop1747" />
      <stop
         style="stop-color:#ffffff;stop-opacity:0.0000000;"
         offset="1.0000000"
         id="stop1748" />
    </linearGradient>
    <radialGradient
       inkscape:collect="always"
       xlink:href="#linearGradient1746"
       id="radialGradient3489"
       gradientUnits="userSpaceOnUse"
       gradientTransform="matrix(0.955666,0.000000,0.000000,0.635799,7.628159,11.75470)"
       cx="44.381500"
       cy="-6.8773451"
       fx="44.381500"
       fy="-6.8773451"
       r="59.917704" />
    <linearGradient
       inkscape:collect="always"
       xlink:href="#linearGradient1751"
       id="linearGradient3498"
       gradientUnits="userSpaceOnUse"
       gradientTransform="matrix(1.066980,0.000000,0.000000,0.569468,7.628159,11.75470)"
       x1="28.638879"
       y1="66.265707"
       x2="32.073531"
       y2="70.376839" />
    <radialGradient
       inkscape:collect="always"
       xlink:href="#linearGradient1751"
       id="radialGradient3501"
       gradientUnits="userSpaceOnUse"
       gradientTransform="matrix(0.752158,0.000000,0.000000,0.807825,7.628159,11.75470)"
       cx="44.574645"
       cy="47.514152"
       fx="44.574645"
       fy="47.514152"
       r="78.146215" />
    <linearGradient
       inkscape:collect="always"
       xlink:href="#linearGradient1762"
       id="linearGradient3504"
       gradientUnits="userSpaceOnUse"
       gradientTransform="matrix(0.754092,0.000000,0.000000,0.805753,7.628159,11.75470)"
       x1="22.609107"
       y1="7.0258278"
       x2="58.475802"
       y2="51.416283" />
    <linearGradient
       inkscape:collect="always"
       xlink:href="#linearGradient1766"
       id="linearGradient3507"
       gradientUnits="userSpaceOnUse"
       gradientTransform="matrix(0.773746,0.000000,0.000000,0.785286,7.628159,11.75470)"
       x1="50.651265"
       y1="51.526812"
       x2="52.728953"
       y2="55.049853" />
    <linearGradient
       id="linearGradient990">
      <text
         id="text567" />
      <text
         id="text568" />
      <text
         id="text569" />
      <stop
         id="stop992"
         offset="0"
         style="stop-color:#ffffff;stop-opacity:1.0000;" />
      <text
         id="text571" />
      <text
         id="text572" />
      <text
         id="text573" />
      <stop
         id="stop991"
         offset="1"
         style="stop-color:#72afff;stop-opacity:1.0000;" />
      <text
         id="text575" />
      <text
         id="text576" />
      <text
         id="text577" />
    </linearGradient>
    <linearGradient
       spreadMethod="pad"
       gradientUnits="userSpaceOnUse"
       id="id3"
       y2="27494.0000"
       x2="13367.0000"
       y1="15095.0000"
       x1="10405.0000">
      <stop
         id="stop561"
         offset="0.00000000"
         style="stop-color:#ffe500;stop-opacity:1;" />
      <stop
         id="stop562"
         offset="1.00000000"
         style="stop-color:#ff6600;stop-opacity:1;" />
    </linearGradient>
    <linearGradient
       inkscape:collect="always"
       xlink:href="#linearGradient990"
       id="linearGradient2218"
       gradientUnits="userSpaceOnUse"
       gradientTransform="matrix(2.000000e-3,0.000000,0.000000,2.000000e-3,16.34817,11.76558)"
       spreadMethod="pad"
       x1="14417.0000"
       y1="22675.0000"
       x2="15898.857"
       y2="624.00000" />
    <linearGradient
       inkscape:collect="always"
       xlink:href="#id3"
       id="linearGradient2220"
       gradientUnits="userSpaceOnUse"
       gradientTransform="matrix(2.000000e-3,0.000000,0.000000,2.000000e-3,16.34817,11.76558)"
       spreadMethod="pad"
       x1="10405.0000"
       y1="15095.0000"
       x2="13367.0000"
       y2="27494.0000" />
  </defs>
  <sodipodi:namedview
     id="base"
     pagecolor="#ffffff"
     bordercolor="#666666"
     borderopacity="1.0"
     inkscape:pageopacity="0.0"
     inkscape:pageshadow="2"
     inkscape:zoom="2.8284272"
     inkscape:cx="-22.004361"
     inkscape:cy="15.391840"
     inkscape:window-width="1022"
     inkscape:window-height="724"
     inkscape:window-x="0"
     inkscape:window-y="0"
     inkscape:current-layer="svg1"
     showguides="false"
     inkscape:guide-bbox="true"
     gridspacingy="1.0000000pt"
     gridspacingx="1.0000000pt"
     gridoriginy="0.0000000pt"
     gridoriginx="0.0000000pt"
     showgrid="false"
     inkscape:grid-points="false"
     inkscape:grid-bbox="false"
     showborder="true">
    <sodipodi:guide
       orientation="vertical"
       position="0.0000000"
       id="guide2809" />
    <sodipodi:guide
       orientation="vertical"
       position="48.000000"
       id="guide2810" />
    <sodipodi:guide
       orientation="horizontal"
       position="0.0000000"
       id="guide2811" />
    <sodipodi:guide
       orientation="horizontal"
       position="47.000000"
       id="guide2819" />
    <sodipodi:guide
       orientation="horizontal"
       position="48.405405"
       id="guide1774" />
  </sodipodi:namedview>
  <metadata
     id="metadata4">
    <rdf:RDF
       id="RDF5">
      <cc:Work
         rdf:about=""
         id="Work6">
        <dc:format
           id="format7">image/svg+xml</dc:format>
        <dc:type
           id="type9"
           rdf:resource="http://purl.org/dc/dcmitype/StillImage" />
      </cc:Work>
    </rdf:RDF>
  </metadata>
  <path
     style="font-size:12.000000;opacity:0.12206573;fill:url(#linearGradient3507);fill-opacity:1.0000000;fill-rule:evenodd"
     d="M 10.992770,58.212304 C 16.058345,58.213348 20.236121,57.919845 28.754448,57.476007 C 33.274720,57.240483 39.819119,57.197623 46.441869,57.007007 C 50.236075,51.787939 49.286477,48.490671 49.965358,44.482366 C 51.413276,35.933445 52.661476,30.592174 52.790461,15.791218 C 41.006660,19.808932 33.014399,21.603758 22.809868,25.553900 C 19.373245,36.544070 14.429394,47.222133 10.992770,58.212304 z "
     id="path913"
     nodetypes="cccccc"
     sodipodi:nodetypes="cscsccc" />
  <path
     style="font-size:12.000000;fill:url(#linearGradient3504);fill-opacity:1.0000000;fill-rule:evenodd"
     d="M 8.6025267,55.601307 C 21.381388,57.376296 24.161576,57.851699 30.475466,57.395567 C 40.107377,56.707106 49.118283,51.976595 49.854997,45.085723 C 50.869984,38.616155 52.675173,28.799814 50.289684,11.754740 C 37.091823,13.620084 26.543674,13.904636 11.002063,12.558845 C 13.984037,22.140240 12.279189,43.730727 8.6025267,55.601307 z "
     id="path861"
     sodipodi:nodetypes="cscccc" />
  <path
     style="font-size:12.000000;fill:url(#radialGradient3501);fill-opacity:1.0000000;fill-rule:evenodd"
     d="M 10.187506,54.626939 C 21.502640,56.249276 24.700474,56.949179 32.010010,55.171182 C 34.540368,54.555690 41.344284,51.388914 41.776801,47.491442 C 42.388523,47.687160 46.707555,49.834530 48.880629,44.111355 C 50.277076,34.710629 50.921318,26.363406 49.196811,13.203125 C 32.032755,14.869908 23.210008,14.739594 12.500000,13.703476 C 15.204938,21.983752 13.211503,45.390614 10.187506,54.626939 z "
     id="path863"
     sodipodi:nodetypes="ccccccc" />
  <path
     style="font-size:12.000000;opacity:0.91549295;fill:url(#linearGradient3498);fill-opacity:1.0000000;fill-rule:evenodd"
     d="M 31.371214,56.228951 C 39.879619,54.354932 44.679526,52.444342 47.633347,47.549527 C 45.871856,49.206508 44.165618,49.300366 42.506174,48.780383 C 41.147393,52.068561 38.352084,54.077487 31.371214,56.228951 z "
     id="path1150"
     sodipodi:nodetypes="cccc" />
  <g
     id="g2206"
     transform="matrix(0.622288,0.000000,0.000000,0.622288,3.001378,11.85264)">
    <path
       d="M 24.757680,17.174810 C 46.761452,19.102147 60.389932,17.496033 69.384174,16.853587 C 70.411556,16.780203 71.259309,17.699587 71.260174,18.729587 C 70.617728,34.790733 69.011614,49.427141 67.726722,51.675702 C 67.215699,52.569992 66.880722,53.549702 65.850722,53.549702 L 23.312177,51.943587 C 22.282177,51.943587 21.436177,51.099587 21.436177,50.069587 C 21.436177,50.069587 22.078623,36.718072 22.078623,19.050810 C 22.002535,18.023624 23.734735,17.054464 24.757680,17.174810 z "
       style="font-size:12.000000;fill:url(#linearGradient2218)"
       id="path569"
       sodipodi:nodetypes="ccccccccc" />
    <path
       d="M 29.476177,33.733587 C 32.344177,33.633587 35.588174,38.853587 38.454174,38.981587 C 41.890174,39.135587 46.422174,33.505587 49.858174,33.311587 C 52.450174,33.167587 55.350059,35.608810 57.546059,36.992810 C 62.494059,39.494810 63.770391,42.152364 68.718391,44.654364 L 67.706722,52.290924 C 67.428722,53.318924 60.372667,54.927476 58.890830,55.032154 C 45.078276,55.996532 31.237081,56.094360 22.724674,54.488245 C 20.900572,54.067298 19.996609,53.522036 20.263897,51.651022 C 20.585120,47.153901 21.713400,40.612033 21.713400,40.612033 C 24.409400,38.534033 26.076177,33.853587 29.476177,33.733587 z "
       style="font-size:12.000000;fill:url(#linearGradient2220)"
       id="path570"
       sodipodi:nodetypes="ccccccscccc" />
    <path
       d="M 31.454177,35.257587 C 37.319512,44.361485 51.187565,41.318070 54.578900,53.203319 C 47.833218,53.203319 39.654865,53.682262 30.339400,52.076148 C 26.171985,51.357628 35.656174,43.103587 31.454177,35.257587 z "
       style="font-size:12.000000;fill-opacity:0.18039198"
       id="path571"
       sodipodi:nodetypes="cccc" />
    <circle
       cx="18940.000"
       cy="6794.0000"
       r="1756.0000"
       style="font-size:12.000000;fill:#ffff46;fill-opacity:1.0000000"
       id="circle573"
       transform="matrix(1.908536e-3,-1.829288e-4,0.000000,2.000000e-3,17.91989,15.23025)"
       sodipodi:cx="18940.000"
       sodipodi:cy="6794.0000"
       sodipodi:rx="1756.0000"
       sodipodi:ry="1756.0000" />
  </g>
  <path
     style="font-size:12.000000;fill:none;stroke:#4a4899;stroke-opacity:1.0000000"
     d="M 45.687500,21.843750 C 37.340491,23.243536 28.848933,24.230609 18.406250,22.531250 C 17.769684,22.456360 16.702651,23.079546 16.750000,23.718750 C 17.250000,32.505436 15.639812,41.503412 15.448223,44.185660 C 15.281893,45.349969 15.844356,45.673710 16.979473,45.935660 C 27.776642,47.185127 38.310864,46.943872 43.656250,45.343750 C 44.578379,45.278610 45.450634,44.795591 45.625000,43.406250 C 47.125000,34.656250 46.957340,27.160228 46.843750,23.000000 C 46.830725,22.359176 46.326826,21.798084 45.687500,21.843750 z "
     id="path2991"
     sodipodi:nodetypes="ccccccccc" />
  <path
     style="font-size:12.000000;fill:url(#radialGradient3489);fill-opacity:1.0000000;fill-rule:evenodd"
     d="M 50.036832,24.210723 C 50.096858,21.757257 49.627938,16.493195 49.196811,13.203125 C 32.032755,14.869908 23.210008,14.739594 12.500000,13.703476 C 13.992127,18.853811 14.359415,24.182019 13.751781,30.329482 C 21.517035,47.430799 50.096501,32.472189 50.036832,24.210723 z "
     id="path1794"
     sodipodi:nodetypes="ccccc" />
</svg>
