<?xml version="1.0" encoding="UTF-8" standalone="no"?>
<!-- Created with Inkscape (http://www.inkscape.org/) -->
<svg
   xmlns:dc="http://purl.org/dc/elements/1.1/"
   xmlns:cc="http://web.resource.org/cc/"
   xmlns:rdf="http://www.w3.org/1999/02/22-rdf-syntax-ns#"
   xmlns:svg="http://www.w3.org/2000/svg"
   xmlns="http://www.w3.org/2000/svg"
   xmlns:xlink="http://www.w3.org/1999/xlink"
   xmlns:sodipodi="http://inkscape.sourceforge.net/DTD/sodipodi-0.dtd"
   xmlns:inkscape="http://www.inkscape.org/namespaces/inkscape"
   sodipodi:docname="gnome-mime-application-x-deb.svg"
   sodipodi:docbase="/home/david/.icons/eXperience/normal/mimetypes"
   inkscape:version="0.41+cvs"
   sodipodi:version="0.32"
   id="svg3076"
   height="48.000000pt"
   width="48.000000pt">
  <defs
     id="defs3">
    <linearGradient
       id="linearGradient4262">
      <stop
         style="stop-color:#000000;stop-opacity:1.0000000;"
         offset="0.0000000"
         id="stop4264" />
      <stop
         id="stop4270"
         offset="0.56363636"
         style="stop-color:#000000;stop-opacity:0.49803922;" />
      <stop
         style="stop-color:#000000;stop-opacity:0.0000000;"
         offset="1.0000000"
         id="stop4266" />
    </linearGradient>
    <linearGradient
       id="linearGradient4055">
      <stop
         style="stop-color:#404f66;stop-opacity:1;"
         offset="0"
         id="stop4057" />
      <stop
         style="stop-opacity:1.0000000;stop-color:#ffffff"
         offset="1"
         id="stop4059" />
    </linearGradient>
    <pattern
       inkscape:collect="always"
       xlink:href="#pattern2951"
       id="pattern4023"
       patternTransform="translate(137.9783,-81.21847)" />
    <linearGradient
       id="linearGradient2976">
      <stop
         style="stop-color:#ffffff;stop-opacity:1.0000000;"
         offset="0.0000000"
         id="stop2978" />
      <stop
         style="stop-color:#8aa8d0;stop-opacity:1.0000000;"
         offset="1.0000000"
         id="stop2980" />
    </linearGradient>
    <pattern
       id="pattern2951"
       height="48.000000"
       width="48.000000"
       patternUnits="userSpaceOnUse"
       inkscape:collect="always"
       patternTransform="translate(137.9783,-81.21847)">
      <image
         id="image2953"
         height="48.000000"
         width="48.000000"
         sodipodi:absref="/home/david/Desktop/setup.gif"
         xlink:href="/home/david/Desktop/setup.gif" />
    </pattern>
    <linearGradient
       inkscape:collect="always"
       xlink:href="#linearGradient4055"
       id="linearGradient4176"
       gradientUnits="userSpaceOnUse"
       x1="23.449018"
       y1="27.236872"
       x2="15.783634"
       y2="21.993010"
       gradientTransform="translate(0.000000,-2.142858)" />
    <linearGradient
       inkscape:collect="always"
       xlink:href="#linearGradient2976"
       id="linearGradient4179"
       gradientUnits="userSpaceOnUse"
       gradientTransform="matrix(1.181417,0.000000,0.000000,1.181417,-5.253710,-8.196518)"
       x1="28.697596"
       y1="16.264866"
       x2="35.507698"
       y2="27.590820" />
    <linearGradient
       inkscape:collect="always"
       xlink:href="#linearGradient2976"
       id="linearGradient4231"
       gradientUnits="userSpaceOnUse"
       x1="2.7014547"
       y1="20.278018"
       x2="34.206085"
       y2="16.995024"
       gradientTransform="translate(0.000000,-2.142858)" />
    <linearGradient
       inkscape:collect="always"
       xlink:href="#linearGradient2976"
       id="linearGradient4234"
       gradientUnits="userSpaceOnUse"
       gradientTransform="matrix(1.181417,0.000000,0.000000,1.181417,-127.5783,16.86513)"
       x1="133.33540"
       y1="5.6322074"
       x2="118.18785"
       y2="-13.353245" />
    <linearGradient
       inkscape:collect="always"
       xlink:href="#linearGradient2976"
       id="linearGradient4237"
       gradientUnits="userSpaceOnUse"
       gradientTransform="matrix(1.181417,0.000000,0.000000,1.181417,-127.5783,16.86513)"
       x1="164.86414"
       y1="-16.055618"
       x2="141.40141"
       y2="-1.4166193" />
    <linearGradient
       inkscape:collect="always"
       xlink:href="#linearGradient2976"
       id="linearGradient4240"
       gradientUnits="userSpaceOnUse"
       gradientTransform="matrix(-0.931331,-0.726889,0.000000,1.181417,-127.5783,16.86509)"
       x1="-149.61787"
       y1="-93.157646"
       x2="-146.44023"
       y2="-45.469887" />
    <linearGradient
       inkscape:collect="always"
       xlink:href="#linearGradient2976"
       id="linearGradient4243"
       gradientUnits="userSpaceOnUse"
       gradientTransform="matrix(1.181416,-1.132638e-17,0.000000,1.181417,-128.2028,4.225764)"
       x1="143.37711"
       y1="43.778202"
       x2="125.07364"
       y2="3.4022629" />
    <linearGradient
       inkscape:collect="always"
       xlink:href="#linearGradient2976"
       id="linearGradient4246"
       gradientUnits="userSpaceOnUse"
       gradientTransform="matrix(-1.029438,-0.579657,0.000000,1.181417,-127.5783,16.86513)"
       x1="-162.70222"
       y1="-82.977356"
       x2="-166.68697"
       y2="-52.108818" />
    <linearGradient
       inkscape:collect="always"
       xlink:href="#linearGradient2976"
       id="linearGradient4249"
       gradientUnits="userSpaceOnUse"
       gradientTransform="matrix(1.175069,-0.122306,0.000000,1.181417,-127.5784,16.86513)"
       x1="120.89944"
       y1="-9.3181524"
       x2="136.10966"
       y2="16.905014" />
    <radialGradient
       inkscape:collect="always"
       xlink:href="#linearGradient4262"
       id="radialGradient4268"
       cx="26.428572"
       cy="50.892857"
       fx="26.428572"
       fy="50.892857"
       r="22.500000"
       gradientTransform="matrix(1.000000,-2.673236e-18,-2.945795e-18,0.277778,-1.487428e-17,36.75595)"
       gradientUnits="userSpaceOnUse" />
  </defs>
  <sodipodi:namedview
     inkscape:window-y="0"
     inkscape:window-x="0"
     inkscape:window-height="724"
     inkscape:window-width="1022"
     gridtolerance="0.32000000pt"
     inkscape:current-layer="layer1"
     inkscape:document-units="pt"
     inkscape:cy="51.894302"
     inkscape:cx="114.16209"
     inkscape:zoom="2.8000000"
     inkscape:pageshadow="2"
     inkscape:pageopacity="0.0"
     borderopacity="1.0"
     bordercolor="#666666"
     pagecolor="#ffffff"
     id="base"
     showguides="true"
     inkscape:guide-bbox="true">
    <sodipodi:guide
       orientation="vertical"
       position="114.77858"
       id="guide3304" />
    <sodipodi:guide
       orientation="horizontal"
       position="37.053572"
       id="guide4272" />
  </sodipodi:namedview>
  <metadata
     id="metadata4">
    <rdf:RDF
       id="RDF5">
      <cc:Work
         id="Work6"
         rdf:about="">
        <dc:format
           id="format7">image/svg+xml</dc:format>
        <dc:type
           rdf:resource="http://purl.org/dc/dcmitype/StillImage"
           id="type9" />
      </cc:Work>
    </rdf:RDF>
  </metadata>
  <g
     id="layer1"
     inkscape:groupmode="layer"
     inkscape:label="Layer 1"
     style="display:inline">
    <path
       sodipodi:type="arc"
       style="opacity:1.0000000;color:#000000;fill:url(#radialGradient4268);fill-opacity:1.0000000;fill-rule:evenodd;stroke:none;stroke-width:0.69250000;stroke-linecap:round;stroke-linejoin:round;marker:none;marker-start:none;marker-mid:none;marker-end:none;stroke-miterlimit:4.0000000;stroke-dasharray:none;stroke-dashoffset:0.0000000;stroke-opacity:1.0000000;visibility:visible;display:inline;overflow:visible"
       id="path4252"
       sodipodi:cx="26.428572"
       sodipodi:cy="50.892857"
       sodipodi:rx="22.500000"
       sodipodi:ry="6.2500000"
       d="M 48.928572 50.892857 A 22.500000 6.2500000 0 1 1  3.9285717,50.892857 A 22.500000 6.2500000 0 1 1  48.928572 50.892857 z"
       transform="matrix(1.125638,-6.942680e-2,7.405762e-2,1.200719,-6.732306,-8.156332)" />
    <path
       style="opacity:1.0000000;color:#000000;fill:#404f66;fill-opacity:1.0000000;fill-rule:evenodd;stroke:#404f66;stroke-width:1.3925000;stroke-linecap:round;stroke-linejoin:round;marker:none;marker-start:none;marker-mid:none;marker-end:none;stroke-miterlimit:4.0000000;stroke-dasharray:none;stroke-dashoffset:0.0000000;stroke-opacity:1.0000000;visibility:visible;display:inline;overflow:visible"
       d="M 37.314913,1.1637199 L 5.4048698,4.5340770 L 8.0100506,13.070057 L 1.5840449,20.316831 L 6.9213993,24.807955 L 8.1540796,23.561768 L 8.3644364,49.612506 C 8.3644364,50.056191 8.2902673,51.171673 10.019779,52.381451 L 13.527109,55.113477 C 14.185773,55.627549 14.761489,55.974230 16.369893,55.888782 L 46.379234,52.935240 C 47.040012,52.869777 48.193552,52.101920 48.299036,50.941599 L 48.254394,21.073910 L 49.597236,20.889314 C 50.716059,20.665549 51.185889,20.779306 50.290831,19.250248 C 50.290831,19.250248 47.627507,14.211561 47.160564,13.763895 L 53.278075,17.369294 L 46.535148,12.862613 L 39.438435,9.6274372 L 39.481356,9.6289362 L 37.314913,1.1637199 z "
       id="rect3000"
       sodipodi:nodetypes="ccccccccccccccccccccc" />
    <path
       style="color:#000000;fill:url(#linearGradient4249);fill-opacity:1.0000000;fill-rule:evenodd;stroke:none;stroke-width:0.61140794;stroke-linecap:round;stroke-linejoin:miter;marker:none;marker-start:none;marker-mid:none;marker-end:none;stroke-miterlimit:4.0000000;stroke-dashoffset:0.0000000;stroke-opacity:1.0000000;visibility:visible;display:inline;overflow:visible"
       d="M 8.1567100,12.965220 L 39.519793,9.5771822 L 40.278721,36.306717 L 8.4245670,39.650112 L 8.1567100,12.965220 z "
       id="rect2966"
       sodipodi:nodetypes="ccccc" />
    <path
       style="color:#000000;fill:url(#linearGradient4246);fill-opacity:1.0000000;fill-rule:evenodd;stroke:none;stroke-width:0.28084689;stroke-linecap:round;stroke-linejoin:miter;marker:none;marker-start:none;marker-mid:none;marker-end:none;stroke-miterlimit:4.0000000;stroke-dashoffset:0.0000000;stroke-opacity:1.0000000;visibility:visible;display:inline;overflow:visible"
       d="M 47.266189,13.704994 L 41.461044,10.574689 C 40.702642,10.147647 40.644152,10.235040 39.503283,9.6152922 L 39.913518,46.318750 C 39.913518,47.189115 40.524071,48.233598 41.282473,48.660639 L 46.484939,51.590051 C 47.243340,52.017093 47.853893,51.660193 47.853893,50.789828 L 47.853893,15.578134 C 47.853893,14.707768 47.533519,14.533821 47.266189,13.704994 z "
       id="rect2964"
       sodipodi:nodetypes="ccccccccc" />
    <rect
       style="opacity:1.0000000;color:#000000;fill:url(#linearGradient4243);fill-opacity:1.0000000;fill-rule:evenodd;stroke:none;stroke-width:0.62652797;stroke-linecap:round;stroke-linejoin:miter;marker:none;marker-start:none;marker-mid:none;marker-end:none;stroke-miterlimit:4.0000000;stroke-dasharray:none;stroke-dashoffset:0.0000000;stroke-opacity:1.0000000;visibility:visible;display:inline;overflow:visible"
       id="rect2960"
       width="33.940308"
       height="38.472252"
       x="14.505543"
       y="18.859125"
       transform="matrix(0.995128,-9.858903e-2,0.000000,1.000000,0.000000,0.000000)"
       ry="1.9815946" />
    <path
       style="color:#000000;fill:url(#linearGradient4240);fill-opacity:1.0000000;fill-rule:evenodd;stroke:none;stroke-width:0.25079638;stroke-linecap:round;stroke-linejoin:miter;marker:none;marker-start:none;marker-mid:none;marker-end:none;stroke-miterlimit:4.0000000;stroke-dashoffset:0.0000000;stroke-opacity:1.0000000;visibility:visible;display:inline;overflow:visible"
       d="M 13.721723,17.189744 L 9.1030118,13.814351 C 8.4773456,13.326028 8.1211191,13.369156 8.1211191,14.162830 L 8.3840248,49.805256 C 8.3840248,50.598930 8.8877201,51.631005 9.5133863,52.119328 L 13.595454,55.305318 C 14.221121,55.793641 14.724816,55.547818 14.724816,54.754144 L 14.724816,18.683069 C 14.724816,17.889395 14.347390,17.678067 13.721723,17.189744 z "
       id="rect2962"
       sodipodi:nodetypes="ccccccccc" />
    <path
       style="fill:url(#linearGradient4237);fill-opacity:1.0000000;fill-rule:evenodd;stroke:none;stroke-width:0.25000000pt;stroke-linecap:butt;stroke-linejoin:miter;stroke-opacity:1.0000000"
       d="M 39.475732,9.6221632 L 46.525892,12.768698 L 53.372923,17.411553 L 47.300335,13.726977 L 39.475732,9.6221632 z "
       id="path2968"
       sodipodi:nodetypes="ccccc" />
    <path
       sodipodi:nodetypes="ccccc"
       id="path2972"
       d="M 39.575864,9.7114489 L 37.378189,1.2156370 L 5.4210316,4.5416262 L 8.2706734,13.091359 L 39.575864,9.7114489 z "
       style="stroke-opacity:1.0000000;stroke-dasharray:none;stroke-miterlimit:4.0000000;stroke-linejoin:miter;stroke-linecap:butt;stroke-width:0.36000001;stroke:none;fill-rule:evenodd;fill-opacity:1.0000000;fill:url(#linearGradient4234)" />
    <path
       sodipodi:nodetypes="ccccc"
       id="path2970"
       d="M 8.1851198,12.974268 L 1.7649966,20.193877 L 7.0082287,24.774297 L 14.508110,17.392532 L 8.1851198,12.974268 z "
       style="fill:url(#linearGradient4231);fill-opacity:1.0000000;fill-rule:evenodd;stroke:none;stroke-width:0.25000000pt;stroke-linecap:butt;stroke-linejoin:miter;stroke-opacity:1.0000000" />
    <g
       id="g3674"
       transform="matrix(1.181417,0.000000,0.000000,1.181417,-5.253710,-8.196518)">
      <g
         style="stroke:#940633;stroke-width:1.5653998;stroke-linecap:round;stroke-linejoin:round;stroke-miterlimit:4.0000000;stroke-dasharray:none;stroke-opacity:1.0000000"
         id="g3626"
         transform="matrix(0.623819,-0.110625,0.000000,0.623819,39.25477,81.44510)">
        <g
           id="g3628"
           style="fill:#000000;fill-opacity:1.0000000;stroke:#940633;stroke-width:1.5653998;stroke-linecap:round;stroke-linejoin:round;stroke-miterlimit:4.0000000;stroke-dasharray:none;stroke-opacity:1.0000000"
           transform="matrix(0.415223,0.000000,0.000000,0.415223,-11.77347,-91.58359)">
          <path
             style="fill:#000000;fill-opacity:1.0000000;stroke:#940633;stroke-width:1.5653998;stroke-linecap:round;stroke-linejoin:round;stroke-miterlimit:4.0000000;stroke-dasharray:none;stroke-opacity:1.0000000"
             id="path3630"
             d="M 0.0000000,0.0000000 C 0.79810000,0.14209000 1.7251000,0.25195000 1.5920000,0.44287000 C 2.4660000,0.25000000 2.6640000,0.075930000 0.0000000,0.0000000" />
        </g>
        <g
           id="g3632"
           style="fill:#000000;fill-opacity:1.0000000;stroke:#940633;stroke-width:1.5653998;stroke-linecap:round;stroke-linejoin:round;stroke-miterlimit:4.0000000;stroke-dasharray:none;stroke-opacity:1.0000000"
           transform="matrix(0.415223,0.000000,0.000000,0.415223,-11.34579,-91.39964)">
          <path
             style="fill:#000000;fill-opacity:1.0000000;stroke:#940633;stroke-width:1.5653998;stroke-linecap:round;stroke-linejoin:round;stroke-miterlimit:4.0000000;stroke-dasharray:none;stroke-opacity:1.0000000"
             id="path3634"
             d="M 0.56200000,0.0000000 C 0.56200000,0.0000000 0.0000000,0.11719000 0.0000000,0.11719000 C 0.0000000,0.11719000 0.52510000,0.069090000 0.52510000,0.069090000 C 0.52510000,0.069090000 0.56200000,0.0000000 0.56200000,0.0000000" />
        </g>
        <path
           d="M -0.78663618,-75.888588 C -0.74934918,-74.885411 -1.0794102,-74.398022 -1.3779552,-73.535937 C -1.3779552,-73.535937 -1.9144222,-73.269032 -1.9144222,-73.269032 C -2.3528562,-72.416165 -1.8708242,-72.727582 -2.1856042,-72.049482 C -2.8714692,-71.440350 -4.2641252,-70.143984 -4.7100742,-70.025271 C -5.0361072,-70.032289 -4.4895912,-70.409809 -4.4182142,-70.557213 C -5.3354412,-69.927653 -5.1547782,-69.612083 -6.5569852,-69.228916 C -6.5569852,-69.228916 -6.5981332,-69.320639 -6.5981332,-69.320639 C -10.056979,-67.693008 -14.861935,-70.918000 -14.798780,-75.317657 C -14.835278,-75.038669 -14.903789,-75.108427 -14.980232,-74.996317 C -15.158778,-77.259653 -13.934701,-79.533039 -11.870215,-80.462722 C -9.8509872,-81.461748 -7.4838442,-81.052297 -6.0379562,-79.703238 C -6.8323192,-80.743828 -8.4135282,-81.847074 -10.287386,-81.744888 C -12.123044,-81.714992 -13.840404,-80.548673 -14.413868,-79.281829 C -15.353891,-78.690137 -15.463593,-76.999724 -15.872919,-76.690051 C -16.424791,-72.637478 -14.836191,-70.887274 -12.148414,-68.827354 C -11.726589,-68.542511 -12.029702,-68.498913 -11.973231,-68.282208 C -12.865918,-68.699839 -13.683076,-69.330978 -14.355779,-70.103748 C -13.998646,-69.581772 -13.613734,-69.074412 -13.115882,-68.675798 C -13.958411,-68.960267 -15.083249,-70.715745 -15.410776,-70.787205 C -13.959615,-68.188742 -9.5237502,-66.230095 -7.1997912,-67.202173 C -8.2748442,-67.162312 -9.6404282,-67.180166 -10.848393,-67.626489 C -11.356584,-67.887747 -12.045812,-68.427869 -11.922533,-68.528809 C -8.7523082,-67.345009 -5.4774472,-67.632800 -2.7341132,-69.831362 C -2.0364562,-70.375346 -1.2741492,-71.300046 -1.0536662,-71.312420 C -1.3850552,-70.813364 -0.99678018,-71.072463 -1.2513532,-70.631912 C -0.55664418,-71.753386 -1.5540502,-71.088698 -0.53301818,-72.568510 C -0.53301818,-72.568510 -0.15549818,-72.049482 -0.15549818,-72.049482 C -0.29630018,-72.981200 1.0008558,-74.111519 0.86835782,-75.583857 C 1.1661138,-76.033958 1.2001628,-75.098877 0.88459282,-74.063270 C 1.3226118,-75.212232 1.0008558,-75.397048 1.1125918,-76.345375 C 1.2337958,-76.026442 1.3940718,-75.688077 1.4759118,-75.351332 C 1.1906118,-76.462052 1.7677298,-77.221038 1.9113968,-77.866792 C 1.7694738,-77.929034 1.4713438,-77.375916 1.4023758,-78.687189 C 1.4127568,-79.256916 1.5609498,-78.985734 1.6179178,-79.126121 C 1.5065968,-79.190480 1.2130348,-79.627294 1.0349038,-80.464757 C 1.1631658,-80.662029 1.3804108,-79.954448 1.5563818,-79.925839 C 1.4430258,-80.591483 1.2479128,-81.099258 1.2399818,-81.610356 C 0.72510582,-82.685824 1.0573258,-81.466730 0.64089882,-82.072125 C 0.092763818,-83.780351 1.0947378,-82.468704 1.1627508,-83.244298 C 1.9923658,-82.042229 2.4658028,-80.177879 2.6833378,-79.406022 C 2.5172898,-80.347249 2.2498868,-81.259534 1.9218188,-82.141882 C 2.1750638,-82.035212 1.5161468,-84.078065 2.2502608,-82.725270 C 1.4663618,-85.609033 -1.1039492,-88.303798 -3.4685592,-89.567711 C -3.1800622,-89.303231 -2.8146252,-88.971032 -2.9453782,-88.918722 C -4.1217042,-89.618397 -3.9150062,-89.673647 -4.0840022,-89.969248 C -5.0410482,-90.359129 -5.1046192,-89.937213 -5.7385812,-89.968438 C -7.5440522,-90.926714 -7.8923822,-90.824631 -9.5544772,-91.424553 C -9.5544772,-91.424553 -9.4793632,-91.070867 -9.4793632,-91.070867 C -10.675661,-91.469464 -10.873224,-90.920531 -12.165853,-91.069953 C -12.244289,-91.130978 -11.751419,-91.292566 -11.345830,-91.351059 C -12.502183,-91.198290 -12.448246,-91.579452 -13.580101,-91.309192 C -13.301528,-91.504741 -13.005807,-91.634701 -12.708591,-91.800749 C -13.651561,-91.743473 -14.960675,-91.251816 -14.556705,-91.699476 C -16.095146,-91.012677 -18.827643,-90.048929 -20.361102,-88.611059 C -20.361102,-88.611059 -20.409267,-88.933218 -20.409267,-88.933218 C -21.111866,-88.089896 -23.473237,-86.414523 -23.661291,-85.321200 C -23.661291,-85.321200 -23.849345,-85.277643 -23.849345,-85.277643 C -24.214367,-84.658546 -24.451501,-83.957235 -24.741326,-83.320741 C -25.219206,-82.505576 -25.442222,-83.006791 -25.374084,-82.878944 C -26.314522,-80.972242 -26.782561,-79.370230 -27.185701,-78.055635 C -26.898325,-77.625921 -27.178642,-75.468009 -27.070268,-73.741099 C -27.541962,-65.210807 -21.083589,-56.928735 -14.024016,-55.017466 C -12.989281,-54.646630 -11.450840,-54.660333 -10.141643,-54.623419 C -11.685814,-55.065216 -11.885121,-54.856774 -13.389929,-55.381616 C -14.474906,-55.893129 -14.712413,-56.476516 -15.481447,-57.143862 C -15.481447,-57.143862 -15.177006,-56.606066 -15.177006,-56.606066 C -16.684305,-57.139710 -16.053582,-57.266311 -17.280191,-57.654586 C -17.280191,-57.654586 -16.954989,-58.078943 -16.954989,-58.078943 C -17.443706,-58.116230 -18.249321,-58.901873 -18.469389,-59.338272 C -18.469389,-59.338272 -19.004113,-59.317096 -19.004113,-59.317096 C -19.646130,-60.108925 -19.988647,-60.680645 -19.963318,-61.123355 C -19.963318,-61.123355 -20.136051,-60.815177 -20.136051,-60.815177 C -20.331621,-61.150719 -22.499041,-63.787424 -21.374618,-63.173725 C -21.583558,-63.363897 -21.861342,-63.483813 -22.162296,-64.031533 C -22.162296,-64.031533 -21.933591,-64.292667 -21.933591,-64.292667 C -22.473713,-64.988995 -22.929295,-65.881391 -22.894416,-66.178608 C -22.605795,-65.789129 -22.405699,-65.716050 -22.207223,-65.649240 C -23.573720,-69.039118 -23.650454,-65.835675 -24.684856,-69.099740 C -24.684856,-69.099740 -24.466408,-69.117180 -24.466408,-69.117180 C -24.633784,-69.370839 -24.736344,-69.644554 -24.870876,-69.913992 C -24.870876,-69.913992 -24.775375,-70.862734 -24.775375,-70.862734 C -25.758580,-71.998824 -25.050211,-75.698001 -24.907789,-77.726364 C -24.810253,-78.551037 -24.086853,-79.429233 -23.537513,-80.806485 C -23.537513,-80.806485 -23.872265,-80.863869 -23.872265,-80.863869 C -23.231992,-81.979987 -20.217476,-85.347774 -18.820667,-85.175042 C -18.144187,-86.024629 -18.955158,-85.178364 -19.087655,-85.391871 C -17.601532,-86.929399 -17.134407,-86.478093 -16.131644,-86.755047 C -15.050820,-87.396524 -17.059708,-86.504252 -16.547282,-86.999530 C -14.677535,-87.476704 -15.222722,-88.084914 -12.784120,-88.327009 C -12.526723,-88.180830 -13.380794,-88.101149 -13.595091,-87.911392 C -12.038006,-88.673703 -8.6667722,-88.499750 -6.4764732,-87.488662 C -3.9361832,-86.300793 -1.0810292,-82.790834 -0.96808818,-79.488651 C -0.96808818,-79.488651 -0.84028318,-79.454188 -0.84028318,-79.454188 C -0.90505818,-78.141171 -0.63923218,-76.622744 -1.1002122,-75.228468 C -1.1002122,-75.228468 -0.78663618,-75.888588 -0.78663618,-75.888588"
           id="path3636"
           style="fill:#b22261;fill-opacity:1.0000000;stroke:#940633;stroke-width:1.5653998;stroke-linecap:round;stroke-linejoin:round;stroke-miterlimit:4.0000000;stroke-dasharray:none;stroke-opacity:1.0000000" />
        <g
           id="g3638"
           style="fill:#000000;fill-opacity:1.0000000;stroke:#940633;stroke-width:1.5653998;stroke-linecap:round;stroke-linejoin:round;stroke-miterlimit:4.0000000;stroke-dasharray:none;stroke-opacity:1.0000000"
           transform="matrix(0.415223,0.000000,0.000000,0.415223,0.657053,-75.17731)">
          <path
             style="fill:#000000;fill-opacity:1.0000000;stroke:#940633;stroke-width:1.5653998;stroke-linecap:round;stroke-linejoin:round;stroke-miterlimit:4.0000000;stroke-dasharray:none;stroke-opacity:1.0000000"
             id="path3640"
             d="M 2.8242000,0.0000000 C 2.8242000,0.0000000 2.6052000,0.55200000 2.6052000,0.55200000 C 2.2031000,3.4099000 1.3330000,6.2380000 0.0000000,8.8611000 C 1.4722000,6.0940000 2.4221000,3.0669000 2.8242000,0.0000000" />
        </g>
        <g
           style="stroke:#940633;stroke-width:1.5653998;stroke-linecap:round;stroke-linejoin:round;stroke-miterlimit:4.0000000;stroke-dasharray:none;stroke-opacity:1.0000000"
           transform="matrix(0.415223,0.000000,0.000000,0.415223,-90.78990,-172.6193)"
           id="g3642">
          <g
             transform="translate(194.4720,241.4530)"
             style="fill:#b22261;fill-opacity:1.0000000;stroke:#940633;stroke-width:1.5653998;stroke-linecap:round;stroke-linejoin:round;stroke-miterlimit:4.0000000;stroke-dasharray:none;stroke-opacity:1.0000000"
             id="g3644">
            <path
               d="M 1.4941000,0.19100000 C 0.0000000,0.21100000 1.7761000,0.95900000 3.7270000,1.2601000 C 4.2671000,0.83790000 4.7551000,0.41410000 5.1899000,0.0000000 C 3.9760000,0.29690000 2.7400000,0.30400000 1.4941000,0.19100000"
               id="path3646"
               style="fill:#b22261;fill-opacity:1.0000000;stroke:#940633;stroke-width:1.5653998;stroke-linecap:round;stroke-linejoin:round;stroke-miterlimit:4.0000000;stroke-dasharray:none;stroke-opacity:1.0000000" />
          </g>
          <g
             transform="translate(201.5050,235.6820)"
             style="fill:#b22261;fill-opacity:1.0000000;stroke:#940633;stroke-width:1.5653998;stroke-linecap:round;stroke-linejoin:round;stroke-miterlimit:4.0000000;stroke-dasharray:none;stroke-opacity:1.0000000"
             id="g3648">
            <path
               d="M 2.4800000,3.9629000 C 3.3711000,2.7339000 4.0200000,1.3899000 4.2481000,0.0000000 C 4.0471000,0.99000000 3.5120000,1.8450000 3.0042000,2.7491000 C 0.21120000,4.5081000 2.7400000,1.7049000 3.0020000,0.63800000 C 0.0000000,4.4209000 2.5891000,2.9061000 2.4800000,3.9629000"
               id="path3650"
               style="fill:#b22261;fill-opacity:1.0000000;stroke:#940633;stroke-width:1.5653998;stroke-linecap:round;stroke-linejoin:round;stroke-miterlimit:4.0000000;stroke-dasharray:none;stroke-opacity:1.0000000" />
          </g>
          <g
             transform="translate(206.1790,229.2500)"
             style="fill:#b22261;fill-opacity:1.0000000;stroke:#940633;stroke-width:1.5653998;stroke-linecap:round;stroke-linejoin:round;stroke-miterlimit:4.0000000;stroke-dasharray:none;stroke-opacity:1.0000000"
             id="g3652">
            <path
               d="M 0.76810000,2.6912000 C 0.94900000,0.0000000 0.23800000,0.85210000 0.0000000,1.8772000 C 0.27710000,2.0232000 0.49800000,3.7752000 0.76810000,2.6912000"
               id="path3654"
               style="fill:#b22261;fill-opacity:1.0000000;stroke:#940633;stroke-width:1.5653998;stroke-linecap:round;stroke-linejoin:round;stroke-miterlimit:4.0000000;stroke-dasharray:none;stroke-opacity:1.0000000" />
          </g>
          <g
             transform="translate(179.4450,243.6940)"
             style="fill:#b22261;fill-opacity:1.0000000;stroke:#940633;stroke-width:1.5653998;stroke-linecap:round;stroke-linejoin:round;stroke-miterlimit:4.0000000;stroke-dasharray:none;stroke-opacity:1.0000000"
             id="g3656">
            <path
               d="M 0.21090000,0.0000000 C 0.21090000,0.0000000 0.0000000,1.0471000 0.0000000,1.0471000 C 0.98290000,2.3821000 1.7630000,3.8279000 3.0159000,4.8679000 C 2.1138000,3.1089000 1.4448000,2.3821000 0.21090000,0.0000000"
               id="path3658"
               style="fill:#b22261;fill-opacity:1.0000000;stroke:#940633;stroke-width:1.5653998;stroke-linecap:round;stroke-linejoin:round;stroke-miterlimit:4.0000000;stroke-dasharray:none;stroke-opacity:1.0000000" />
          </g>
          <g
             transform="translate(180.8050,241.6480)"
             style="fill:#b22261;fill-opacity:1.0000000;stroke:#940633;stroke-width:1.5653998;stroke-linecap:round;stroke-linejoin:round;stroke-miterlimit:4.0000000;stroke-dasharray:none;stroke-opacity:1.0000000"
             id="g3660">
            <path
               d="M 1.1721000,1.9558000 C 0.65210000,1.3799000 0.34590000,0.68800000 0.0000000,0.0000000 C 0.33010000,1.2110000 1.0061000,2.2520000 1.6330000,3.3120000 C 1.6330000,3.3120000 1.1721000,1.9558000 1.1721000,1.9558000"
               id="path3662"
               style="fill:#b22261;fill-opacity:1.0000000;stroke:#940633;stroke-width:1.5653998;stroke-linecap:round;stroke-linejoin:round;stroke-miterlimit:4.0000000;stroke-dasharray:none;stroke-opacity:1.0000000" />
          </g>
          <g
             transform="translate(189.9900,193.9990)"
             style="fill:#000000;fill-opacity:1.0000000;stroke:#940633;stroke-width:1.5653998;stroke-linecap:round;stroke-linejoin:round;stroke-miterlimit:4.0000000;stroke-dasharray:none;stroke-opacity:1.0000000"
             id="g3664">
            <path
               d="M 0.60600000,0.44604700 C 1.6160000,0.077148000 3.0879000,0.24316700 4.1619000,0.0000000 C 2.7639000,0.11694300 1.3731000,0.18701200 0.0000000,0.36205700 C 0.0000000,0.36205700 0.60600000,0.44604700 0.60600000,0.44604700"
               id="path3666"
               style="fill:#000000;fill-opacity:1.0000000;stroke:#940633;stroke-width:1.5653998;stroke-linecap:round;stroke-linejoin:round;stroke-miterlimit:4.0000000;stroke-dasharray:none;stroke-opacity:1.0000000" />
          </g>
          <path
             transform="translate(153.5050,212.4220)"
             d="M 1.6201000,0.88500000 C 1.8531000,3.0391000 0.0000000,3.8760000 2.0301000,2.4539000 C 3.1201000,0.0000000 1.6060000,1.7769000 1.6201000,0.88500000"
             id="path3668"
             style="fill:#b22261;fill-opacity:1.0000000;stroke:#940633;stroke-width:1.5653998;stroke-linecap:round;stroke-linejoin:round;stroke-miterlimit:4.0000000;stroke-dasharray:none;stroke-opacity:1.0000000" />
          <g
             transform="translate(152.1760,220.1490)"
             style="fill:#b22261;fill-opacity:1.0000000;stroke:#940633;stroke-width:1.5653998;stroke-linecap:round;stroke-linejoin:round;stroke-miterlimit:4.0000000;stroke-dasharray:none;stroke-opacity:1.0000000"
             id="g3670">
            <path
               d="M 0.56100000,3.1318000 C 1.0300000,1.6948000 1.1140000,0.83300000 1.2929000,0.0000000 C 0.0000000,1.6538000 0.69700000,2.0068000 0.56100000,3.1318000"
               id="path3672"
               style="fill:#b22261;fill-opacity:1.0000000;stroke:#940633;stroke-width:1.5653998;stroke-linecap:round;stroke-linejoin:round;stroke-miterlimit:4.0000000;stroke-dasharray:none;stroke-opacity:1.0000000" />
          </g>
        </g>
      </g>
      <g
         transform="matrix(0.623819,-0.110625,0.000000,0.623819,39.25477,81.44510)"
         id="g3585">
        <g
           transform="matrix(0.415223,0.000000,0.000000,0.415223,-11.77347,-91.58359)"
           style="fill:#000000;fill-opacity:1.0000000;stroke:none;stroke-width:0.10000000pt;stroke-linecap:butt;stroke-linejoin:miter;stroke-dasharray:none"
           id="g16">
          <path
             d="M 0.0000000,0.0000000 C 0.79810000,0.14209000 1.7251000,0.25195000 1.5920000,0.44287000 C 2.4660000,0.25000000 2.6640000,0.075930000 0.0000000,0.0000000"
             id="path18"
             style="fill:#000000;fill-opacity:1.0000000" />
        </g>
        <g
           transform="matrix(0.415223,0.000000,0.000000,0.415223,-11.34579,-91.39964)"
           style="fill:#000000;fill-opacity:1.0000000;stroke:none;stroke-width:0.10000000pt;stroke-linecap:butt;stroke-linejoin:miter;stroke-dasharray:none"
           id="g20">
          <path
             d="M 0.56200000,0.0000000 C 0.56200000,0.0000000 0.0000000,0.11719000 0.0000000,0.11719000 C 0.0000000,0.11719000 0.52510000,0.069090000 0.52510000,0.069090000 C 0.52510000,0.069090000 0.56200000,0.0000000 0.56200000,0.0000000"
             id="path22"
             style="fill:#000000;fill-opacity:1.0000000" />
        </g>
        <path
           style="fill:#b22261;fill-opacity:1.0000000;stroke:none;stroke-width:0.10000000pt;stroke-linecap:butt;stroke-linejoin:miter;stroke-dasharray:none"
           id="path26"
           d="M -0.78663618,-75.888588 C -0.74934918,-74.885411 -1.0794102,-74.398022 -1.3779552,-73.535937 C -1.3779552,-73.535937 -1.9144222,-73.269032 -1.9144222,-73.269032 C -2.3528562,-72.416165 -1.8708242,-72.727582 -2.1856042,-72.049482 C -2.8714692,-71.440350 -4.2641252,-70.143984 -4.7100742,-70.025271 C -5.0361072,-70.032289 -4.4895912,-70.409809 -4.4182142,-70.557213 C -5.3354412,-69.927653 -5.1547782,-69.612083 -6.5569852,-69.228916 C -6.5569852,-69.228916 -6.5981332,-69.320639 -6.5981332,-69.320639 C -10.056979,-67.693008 -14.861935,-70.918000 -14.798780,-75.317657 C -14.835278,-75.038669 -14.903789,-75.108427 -14.980232,-74.996317 C -15.158778,-77.259653 -13.934701,-79.533039 -11.870215,-80.462722 C -9.8509872,-81.461748 -7.4838442,-81.052297 -6.0379562,-79.703238 C -6.8323192,-80.743828 -8.4135282,-81.847074 -10.287386,-81.744888 C -12.123044,-81.714992 -13.840404,-80.548673 -14.413868,-79.281829 C -15.353891,-78.690137 -15.463593,-76.999724 -15.872919,-76.690051 C -16.424791,-72.637478 -14.836191,-70.887274 -12.148414,-68.827354 C -11.726589,-68.542511 -12.029702,-68.498913 -11.973231,-68.282208 C -12.865918,-68.699839 -13.683076,-69.330978 -14.355779,-70.103748 C -13.998646,-69.581772 -13.613734,-69.074412 -13.115882,-68.675798 C -13.958411,-68.960267 -15.083249,-70.715745 -15.410776,-70.787205 C -13.959615,-68.188742 -9.5237502,-66.230095 -7.1997912,-67.202173 C -8.2748442,-67.162312 -9.6404282,-67.180166 -10.848393,-67.626489 C -11.356584,-67.887747 -12.045812,-68.427869 -11.922533,-68.528809 C -8.7523082,-67.345009 -5.4774472,-67.632800 -2.7341132,-69.831362 C -2.0364562,-70.375346 -1.2741492,-71.300046 -1.0536662,-71.312420 C -1.3850552,-70.813364 -0.99678018,-71.072463 -1.2513532,-70.631912 C -0.55664418,-71.753386 -1.5540502,-71.088698 -0.53301818,-72.568510 C -0.53301818,-72.568510 -0.15549818,-72.049482 -0.15549818,-72.049482 C -0.29630018,-72.981200 1.0008558,-74.111519 0.86835782,-75.583857 C 1.1661138,-76.033958 1.2001628,-75.098877 0.88459282,-74.063270 C 1.3226118,-75.212232 1.0008558,-75.397048 1.1125918,-76.345375 C 1.2337958,-76.026442 1.3940718,-75.688077 1.4759118,-75.351332 C 1.1906118,-76.462052 1.7677298,-77.221038 1.9113968,-77.866792 C 1.7694738,-77.929034 1.4713438,-77.375916 1.4023758,-78.687189 C 1.4127568,-79.256916 1.5609498,-78.985734 1.6179178,-79.126121 C 1.5065968,-79.190480 1.2130348,-79.627294 1.0349038,-80.464757 C 1.1631658,-80.662029 1.3804108,-79.954448 1.5563818,-79.925839 C 1.4430258,-80.591483 1.2479128,-81.099258 1.2399818,-81.610356 C 0.72510582,-82.685824 1.0573258,-81.466730 0.64089882,-82.072125 C 0.092763818,-83.780351 1.0947378,-82.468704 1.1627508,-83.244298 C 1.9923658,-82.042229 2.4658028,-80.177879 2.6833378,-79.406022 C 2.5172898,-80.347249 2.2498868,-81.259534 1.9218188,-82.141882 C 2.1750638,-82.035212 1.5161468,-84.078065 2.2502608,-82.725270 C 1.4663618,-85.609033 -1.1039492,-88.303798 -3.4685592,-89.567711 C -3.1800622,-89.303231 -2.8146252,-88.971032 -2.9453782,-88.918722 C -4.1217042,-89.618397 -3.9150062,-89.673647 -4.0840022,-89.969248 C -5.0410482,-90.359129 -5.1046192,-89.937213 -5.7385812,-89.968438 C -7.5440522,-90.926714 -7.8923822,-90.824631 -9.5544772,-91.424553 C -9.5544772,-91.424553 -9.4793632,-91.070867 -9.4793632,-91.070867 C -10.675661,-91.469464 -10.873224,-90.920531 -12.165853,-91.069953 C -12.244289,-91.130978 -11.751419,-91.292566 -11.345830,-91.351059 C -12.502183,-91.198290 -12.448246,-91.579452 -13.580101,-91.309192 C -13.301528,-91.504741 -13.005807,-91.634701 -12.708591,-91.800749 C -13.651561,-91.743473 -14.960675,-91.251816 -14.556705,-91.699476 C -16.095146,-91.012677 -18.827643,-90.048929 -20.361102,-88.611059 C -20.361102,-88.611059 -20.409267,-88.933218 -20.409267,-88.933218 C -21.111866,-88.089896 -23.473237,-86.414523 -23.661291,-85.321200 C -23.661291,-85.321200 -23.849345,-85.277643 -23.849345,-85.277643 C -24.214367,-84.658546 -24.451501,-83.957235 -24.741326,-83.320741 C -25.219206,-82.505576 -25.442222,-83.006791 -25.374084,-82.878944 C -26.314522,-80.972242 -26.782561,-79.370230 -27.185701,-78.055635 C -26.898325,-77.625921 -27.178642,-75.468009 -27.070268,-73.741099 C -27.541962,-65.210807 -21.083589,-56.928735 -14.024016,-55.017466 C -12.989281,-54.646630 -11.450840,-54.660333 -10.141643,-54.623419 C -11.685814,-55.065216 -11.885121,-54.856774 -13.389929,-55.381616 C -14.474906,-55.893129 -14.712413,-56.476516 -15.481447,-57.143862 C -15.481447,-57.143862 -15.177006,-56.606066 -15.177006,-56.606066 C -16.684305,-57.139710 -16.053582,-57.266311 -17.280191,-57.654586 C -17.280191,-57.654586 -16.954989,-58.078943 -16.954989,-58.078943 C -17.443706,-58.116230 -18.249321,-58.901873 -18.469389,-59.338272 C -18.469389,-59.338272 -19.004113,-59.317096 -19.004113,-59.317096 C -19.646130,-60.108925 -19.988647,-60.680645 -19.963318,-61.123355 C -19.963318,-61.123355 -20.136051,-60.815177 -20.136051,-60.815177 C -20.331621,-61.150719 -22.499041,-63.787424 -21.374618,-63.173725 C -21.583558,-63.363897 -21.861342,-63.483813 -22.162296,-64.031533 C -22.162296,-64.031533 -21.933591,-64.292667 -21.933591,-64.292667 C -22.473713,-64.988995 -22.929295,-65.881391 -22.894416,-66.178608 C -22.605795,-65.789129 -22.405699,-65.716050 -22.207223,-65.649240 C -23.573720,-69.039118 -23.650454,-65.835675 -24.684856,-69.099740 C -24.684856,-69.099740 -24.466408,-69.117180 -24.466408,-69.117180 C -24.633784,-69.370839 -24.736344,-69.644554 -24.870876,-69.913992 C -24.870876,-69.913992 -24.775375,-70.862734 -24.775375,-70.862734 C -25.758580,-71.998824 -25.050211,-75.698001 -24.907789,-77.726364 C -24.810253,-78.551037 -24.086853,-79.429233 -23.537513,-80.806485 C -23.537513,-80.806485 -23.872265,-80.863869 -23.872265,-80.863869 C -23.231992,-81.979987 -20.217476,-85.347774 -18.820667,-85.175042 C -18.144187,-86.024629 -18.955158,-85.178364 -19.087655,-85.391871 C -17.601532,-86.929399 -17.134407,-86.478093 -16.131644,-86.755047 C -15.050820,-87.396524 -17.059708,-86.504252 -16.547282,-86.999530 C -14.677535,-87.476704 -15.222722,-88.084914 -12.784120,-88.327009 C -12.526723,-88.180830 -13.380794,-88.101149 -13.595091,-87.911392 C -12.038006,-88.673703 -8.6667722,-88.499750 -6.4764732,-87.488662 C -3.9361832,-86.300793 -1.0810292,-82.790834 -0.96808818,-79.488651 C -0.96808818,-79.488651 -0.84028318,-79.454188 -0.84028318,-79.454188 C -0.90505818,-78.141171 -0.63923218,-76.622744 -1.1002122,-75.228468 C -1.1002122,-75.228468 -0.78663618,-75.888588 -0.78663618,-75.888588" />
        <g
           transform="matrix(0.415223,0.000000,0.000000,0.415223,0.657053,-75.17731)"
           style="fill:#000000;fill-opacity:1.0000000;stroke:none;stroke-width:0.10000000pt;stroke-linecap:butt;stroke-linejoin:miter;stroke-dasharray:none"
           id="g36">
          <path
             d="M 2.8242000,0.0000000 C 2.8242000,0.0000000 2.6052000,0.55200000 2.6052000,0.55200000 C 2.2031000,3.4099000 1.3330000,6.2380000 0.0000000,8.8611000 C 1.4722000,6.0940000 2.4221000,3.0669000 2.8242000,0.0000000"
             id="path38"
             style="fill:#000000;fill-opacity:1.0000000" />
        </g>
        <g
           id="g2873"
           transform="matrix(0.415223,0.000000,0.000000,0.415223,-90.78990,-172.6193)">
          <g
             id="g4"
             style="fill:#b22261;fill-opacity:1.0000000;stroke:none;stroke-width:0.10000000pt;stroke-linecap:butt;stroke-linejoin:miter;stroke-dasharray:none"
             transform="translate(194.4720,241.4530)">
            <path
               style="fill:#b22261;fill-opacity:1.0000000"
               id="path6"
               d="M 1.4941000,0.19100000 C 0.0000000,0.21100000 1.7761000,0.95900000 3.7270000,1.2601000 C 4.2671000,0.83790000 4.7551000,0.41410000 5.1899000,0.0000000 C 3.9760000,0.29690000 2.7400000,0.30400000 1.4941000,0.19100000" />
          </g>
          <g
             id="g8"
             style="fill:#b22261;fill-opacity:1.0000000;stroke:none;stroke-width:0.10000000pt;stroke-linecap:butt;stroke-linejoin:miter;stroke-dasharray:none"
             transform="translate(201.5050,235.6820)">
            <path
               style="fill:#b22261;fill-opacity:1.0000000"
               id="path10"
               d="M 2.4800000,3.9629000 C 3.3711000,2.7339000 4.0200000,1.3899000 4.2481000,0.0000000 C 4.0471000,0.99000000 3.5120000,1.8450000 3.0042000,2.7491000 C 0.21120000,4.5081000 2.7400000,1.7049000 3.0020000,0.63800000 C 0.0000000,4.4209000 2.5891000,2.9061000 2.4800000,3.9629000" />
          </g>
          <g
             id="g12"
             style="fill:#b22261;fill-opacity:1.0000000;stroke:none;stroke-width:0.10000000pt;stroke-linecap:butt;stroke-linejoin:miter;stroke-dasharray:none"
             transform="translate(206.1790,229.2500)">
            <path
               style="fill:#b22261;fill-opacity:1.0000000"
               id="path14"
               d="M 0.76810000,2.6912000 C 0.94900000,0.0000000 0.23800000,0.85210000 0.0000000,1.8772000 C 0.27710000,2.0232000 0.49800000,3.7752000 0.76810000,2.6912000" />
          </g>
          <g
             id="g28"
             style="fill:#b22261;fill-opacity:1.0000000;stroke:none;stroke-width:0.10000000pt;stroke-linecap:butt;stroke-linejoin:miter;stroke-dasharray:none"
             transform="translate(179.4450,243.6940)">
            <path
               style="fill:#b22261;fill-opacity:1.0000000"
               id="path30"
               d="M 0.21090000,0.0000000 C 0.21090000,0.0000000 0.0000000,1.0471000 0.0000000,1.0471000 C 0.98290000,2.3821000 1.7630000,3.8279000 3.0159000,4.8679000 C 2.1138000,3.1089000 1.4448000,2.3821000 0.21090000,0.0000000" />
          </g>
          <g
             id="g32"
             style="fill:#b22261;fill-opacity:1.0000000;stroke:none;stroke-width:0.10000000pt;stroke-linecap:butt;stroke-linejoin:miter;stroke-dasharray:none"
             transform="translate(180.8050,241.6480)">
            <path
               style="fill:#b22261;fill-opacity:1.0000000"
               id="path34"
               d="M 1.1721000,1.9558000 C 0.65210000,1.3799000 0.34590000,0.68800000 0.0000000,0.0000000 C 0.33010000,1.2110000 1.0061000,2.2520000 1.6330000,3.3120000 C 1.6330000,3.3120000 1.1721000,1.9558000 1.1721000,1.9558000" />
          </g>
          <g
             id="g40"
             style="fill:#000000;fill-opacity:1.0000000;stroke:none;stroke-width:0.10000000pt;stroke-linecap:butt;stroke-linejoin:miter;stroke-dasharray:none"
             transform="translate(189.9900,193.9990)">
            <path
               style="fill:#000000;fill-opacity:1.0000000"
               id="path42"
               d="M 0.60600000,0.44604700 C 1.6160000,0.077148000 3.0879000,0.24316700 4.1619000,0.0000000 C 2.7639000,0.11694300 1.3731000,0.18701200 0.0000000,0.36205700 C 0.0000000,0.36205700 0.60600000,0.44604700 0.60600000,0.44604700" />
          </g>
          <path
             style="fill:#b22261;fill-opacity:1.0000000;stroke:none;stroke-width:0.10000000pt;stroke-linecap:butt;stroke-linejoin:miter;stroke-dasharray:none"
             id="path46"
             d="M 1.6201000,0.88500000 C 1.8531000,3.0391000 0.0000000,3.8760000 2.0301000,2.4539000 C 3.1201000,0.0000000 1.6060000,1.7769000 1.6201000,0.88500000"
             transform="translate(153.5050,212.4220)" />
          <g
             id="g48"
             style="fill:#b22261;fill-opacity:1.0000000;stroke:none;stroke-width:0.10000000pt;stroke-linecap:butt;stroke-linejoin:miter;stroke-dasharray:none"
             transform="translate(152.1760,220.1490)">
            <path
               style="fill:#b22261;fill-opacity:1.0000000"
               id="path50"
               d="M 0.56100000,3.1318000 C 1.0300000,1.6948000 1.1140000,0.83300000 1.2929000,0.0000000 C 0.0000000,1.6538000 0.69700000,2.0068000 0.56100000,3.1318000" />
          </g>
        </g>
      </g>
    </g>
    <path
       style="fill:url(#linearGradient4179);fill-opacity:1.0000000;fill-rule:evenodd;stroke:none;stroke-width:0.36000001;stroke-linecap:butt;stroke-linejoin:miter;stroke-miterlimit:4.0000000;stroke-dasharray:none;stroke-opacity:1.0000000"
       d="M 49.517907,20.888896 C 50.977807,20.622368 50.749969,20.039389 50.416647,19.456409 L 47.304605,13.716508 L 14.492621,17.305146 L 18.491904,23.319623 C 18.987646,24.274339 20.116289,24.596154 21.561384,24.285067 L 49.517907,20.888896 z "
       id="path2974"
       sodipodi:nodetypes="ccccccc" />
    <path
       style="fill:none;fill-opacity:1.0000000;fill-rule:evenodd;stroke:url(#linearGradient4176);stroke-width:0.81750000;stroke-linecap:round;stroke-linejoin:round;stroke-miterlimit:4.0000000;stroke-dasharray:none;stroke-opacity:1.0000000"
       d="M 14.515094,17.553860 L 18.591603,23.707631 C 19.300191,25.087513 21.351366,24.602689 21.351366,24.602689 L 50.061642,21.103532"
       id="path4040"
       sodipodi:nodetypes="cccc" />
    <path
       style="fill:none;fill-opacity:0.75000000;fill-rule:evenodd;stroke:#404f66;stroke-width:0.94250000;stroke-linecap:round;stroke-linejoin:round;stroke-miterlimit:4.0000000;stroke-dasharray:none;stroke-opacity:1.0000000"
       d="M 1.5708621,20.587180 L 6.9409007,25.392267 L 14.414976,17.632313"
       id="path3324"
       sodipodi:nodetypes="ccc" />
    <g
       transform="matrix(-2.171550e-4,-0.127011,9.824559e-2,7.181526e-2,9.334682,49.22501)"
       style="fill:#000000;fill-opacity:1.0000000;fill-rule:evenodd;stroke:none;stroke-width:0.10000000pt;stroke-linecap:butt;stroke-linejoin:miter;stroke-dasharray:none"
       id="g3724">
      <path
         d="M 13.437000,16.265000 C 13.391800,16.312000 13.391800,23.771000 13.298800,25.718000 C 13.206800,27.293000 13.066900,30.675000 9.7309100,30.675000 C 6.3020000,30.675000 5.4680200,26.736000 5.1899400,25.023000 C 4.8659700,23.123000 4.8659700,21.547000 4.8659700,20.853000 C 4.8659700,18.629000 5.0048800,12.418000 10.241000,12.418000 C 11.816900,12.418000 12.697000,12.883000 13.391800,13.252000 C 13.391800,13.252000 13.437000,16.265000 13.437000,16.265000 z M 0.0000000,21.734000 C 0.0000000,34.800000 6.9509300,34.800000 7.9699700,34.800000 C 10.843000,34.800000 12.697000,33.224000 13.483900,30.492000 C 13.483900,30.492000 13.576900,34.615000 13.576900,34.615000 C 14.458000,34.568000 15.337900,34.476000 16.773900,34.476000 C 17.283900,34.476000 17.699900,34.476000 18.072000,34.523000 C 18.442900,34.523000 18.813000,34.568000 19.230000,34.615000 C 18.489000,33.133000 17.932900,29.797000 17.932900,22.566000 C 17.932900,15.523000 17.932900,3.6150000 18.534900,0.0000000 C 16.867900,0.78900000 15.429900,1.2990000 12.278800,1.5760000 C 13.529800,2.9200000 13.529800,3.6150000 13.529800,9.7300000 C 12.650900,9.4530000 11.537800,9.1290000 9.6379100,9.1290000 C 1.3439900,9.1290000 0.0000000,16.357000 0.0000000,21.734000 z "
         id="path3726"
         style="fill:#000000;fill-opacity:1.0000000" />
    </g>
    <g
       transform="matrix(-2.171550e-4,-0.127011,9.824559e-2,7.181526e-2,10.22254,47.30337)"
       style="fill:#000000;fill-opacity:1.0000000;fill-rule:evenodd;stroke:none;stroke-width:0.10000000pt;stroke-linecap:butt;stroke-linejoin:miter;stroke-dasharray:none"
       id="g3728">
      <path
         d="M 4.8650000,10.287000 C 4.9121000,6.4410000 5.6999000,3.0110000 8.9890000,3.0110000 C 12.604000,3.0110000 12.880100,6.9960000 12.788100,10.287000 C 12.788100,10.287000 4.8650000,10.287000 4.8650000,10.287000 z M 17.375000,10.752000 C 17.375000,5.3300000 16.310000,0.0000000 9.4519000,0.0000000 C 0.0000000,0.0000000 0.0000000,10.473000 0.0000000,12.697000 C 0.0000000,22.103000 4.2160000,25.810000 11.305900,25.810000 C 14.455100,25.810000 15.986100,25.348000 16.820100,25.115000 C 16.773900,23.447000 17.005100,22.381000 17.284900,20.945000 C 16.310000,21.549000 15.059100,22.336000 12.279000,22.336000 C 5.0500000,22.336000 4.9570000,15.754000 4.9570000,13.484000 C 4.9570000,13.484000 17.284900,13.484000 17.284900,13.484000 C 17.284900,13.484000 17.375000,10.752000 17.375000,10.752000 z "
         id="path3730"
         style="fill:#000000;fill-opacity:1.0000000" />
    </g>
    <g
       transform="matrix(-2.171550e-4,-0.127011,9.824559e-2,7.181526e-2,9.317469,44.44152)"
       style="fill:#000000;fill-opacity:1.0000000;fill-rule:evenodd;stroke:none;stroke-width:0.10000000pt;stroke-linecap:butt;stroke-linejoin:miter;stroke-dasharray:none"
       id="g3732">
      <path
         d="M 15.104900,21.918000 C 15.104900,26.227000 14.318100,32.020000 8.9431000,32.020000 C 8.2009000,32.020000 7.2751000,31.879000 6.6730000,31.740000 C 6.5800000,30.072000 6.5800000,27.199000 6.5800000,23.863000 C 6.5800000,19.877000 6.9960000,17.795000 7.3220000,16.773000 C 8.2939000,13.484000 10.471900,13.438000 10.887900,13.438000 C 14.410100,13.438000 15.104900,18.305000 15.104900,21.918000 z M 1.8071000,26.969000 C 1.8071000,30.398000 1.8071000,32.344000 1.2509000,33.826000 C 3.1511000,34.568000 5.5129000,34.984000 8.3410000,34.984000 C 10.147900,34.984000 15.384000,34.984000 18.209900,29.193000 C 19.553900,26.506000 20.017000,22.891000 20.017000,20.156000 C 20.017000,18.488000 19.832000,14.828000 18.488000,12.510000 C 17.190900,10.334000 15.104900,9.2210000 12.882000,9.2210000 C 8.4331000,9.2210000 7.1359000,12.928000 6.4421000,14.828000 C 6.4421000,12.465000 6.4870000,4.2170000 6.8569000,0.0000000 C 3.8459000,1.3910000 1.9909000,1.6210000 0.0000000,1.8070000 C 1.8071000,2.5470000 1.8071000,5.6070000 1.8071000,15.570000 C 1.8071000,15.570000 1.8071000,26.969000 1.8071000,26.969000 z "
         id="path3734"
         style="fill:#000000;fill-opacity:1.0000000" />
    </g>
    <g
       transform="matrix(-2.171550e-4,-0.127011,9.824559e-2,7.181526e-2,10.19135,42.31049)"
       style="fill:#000000;fill-opacity:1.0000000;stroke:none;stroke-width:0.10000000pt;stroke-linecap:butt;stroke-linejoin:miter;stroke-dasharray:none"
       id="g3736">
      <path
         d="M 7.0891000,25.764000 C 6.1631000,25.625000 5.5120000,25.532000 4.1680000,25.532000 C 2.6880000,25.532000 1.6670000,25.625000 0.60210000,25.764000 C 1.0652000,24.883000 1.2500000,24.465000 1.3892000,21.455000 C 1.5752000,17.330000 1.6221000,6.3010000 1.2971000,3.9850000 C 1.0652000,2.2230000 0.64920000,1.9460000 0.0000000,1.4830000 C 3.7991000,1.1120000 4.8660000,0.83400000 6.6250000,0.0000000 C 6.2551000,2.0370000 6.2080000,3.0590000 6.2080000,6.1620000 C 6.1160000,22.151000 6.0691000,23.864000 7.0891000,25.764000"
         id="path3738"
         style="fill:#000000;fill-opacity:1.0000000" />
    </g>
    <g
       transform="matrix(-2.171550e-4,-0.127011,9.824559e-2,7.181526e-2,10.21667,41.16411)"
       style="fill:#000000;fill-opacity:1.0000000;fill-rule:evenodd;stroke:none;stroke-width:0.10000000pt;stroke-linecap:butt;stroke-linejoin:miter;stroke-dasharray:none"
       id="g3740">
      <path
         d="M 12.743900,12.371000 C 12.653100,15.291000 12.606000,17.330000 11.816900,18.951000 C 10.844000,21.037000 9.2229000,21.638000 8.0181000,21.638000 C 5.2361000,21.638000 4.6350000,19.322000 4.6350000,17.052000 C 4.6350000,12.697000 8.5281000,12.371000 10.286900,12.371000 C 10.286900,12.371000 12.743900,12.371000 12.743900,12.371000 z M 0.0000000,18.072000 C 0.0000000,20.992000 0.88090000,23.910000 3.4771000,25.162000 C 4.6350000,25.671000 5.7930000,25.671000 6.1641000,25.671000 C 10.428000,25.671000 11.863100,22.519000 12.743900,20.574000 C 12.697000,22.613000 12.743900,23.863000 12.883100,25.486000 C 13.717100,25.439000 14.551000,25.347000 15.941900,25.347000 C 16.729000,25.347000 17.471000,25.439000 18.258100,25.486000 C 17.748100,24.699000 17.471000,24.234000 17.330100,22.427000 C 17.238100,20.668000 17.238100,18.906000 17.238100,16.451000 C 17.238100,16.451000 17.284900,6.9980000 17.284900,6.9980000 C 17.284900,3.4740000 16.357900,0.0000000 9.4060000,0.0000000 C 4.8211000,0.0000000 2.1331000,1.3900000 0.78910000,2.0860000 C 1.3460000,3.1050000 1.8091000,3.9840000 2.2249000,5.9780000 C 4.0330000,4.4020000 6.3970000,3.5680000 8.8050000,3.5680000 C 12.653100,3.5680000 12.653100,6.1170000 12.653100,9.7300000 C 11.772000,9.6850000 11.029100,9.5930000 9.7781000,9.5930000 C 3.8931000,9.5930000 0.0000000,11.861000 0.0000000,18.072000 z "
         id="path3742"
         style="fill:#000000;fill-opacity:1.0000000" />
    </g>
    <g
       transform="matrix(-2.171550e-4,-0.127011,9.824559e-2,7.181526e-2,10.18025,38.46295)"
       style="fill:#000000;fill-opacity:1.0000000;stroke:none;stroke-width:0.10000000pt;stroke-linecap:butt;stroke-linejoin:miter;stroke-dasharray:none"
       id="g3744">
      <path
         d="M 18.350100,21.222000 C 18.397100,22.798000 18.397100,24.466000 19.045100,25.810000 C 18.025100,25.718000 17.422100,25.578000 15.524100,25.578000 C 14.410100,25.578000 13.809100,25.671000 12.928100,25.810000 C 13.112100,25.208000 13.207100,24.976000 13.299100,24.187000 C 13.438100,23.123000 13.531100,19.554000 13.531100,18.302000 C 13.531100,18.302000 13.531100,13.298000 13.531100,13.298000 C 13.531100,11.120000 13.531100,7.9680000 13.391100,6.8570000 C 13.299100,6.0700000 13.069100,3.9390000 10.379100,3.9390000 C 7.7380000,3.9390000 6.8589000,5.8840000 6.5330000,7.4600000 C 6.1641000,9.0820000 6.1641000,10.843000 6.1641000,17.701000 C 6.2090000,23.632000 6.2090000,24.187000 6.6719000,25.810000 C 5.8850000,25.718000 4.9119000,25.625000 3.5220000,25.625000 C 2.4080000,25.625000 1.6680000,25.671000 0.74190000,25.810000 C 1.0669000,25.068000 1.2520000,24.697000 1.3440000,22.103000 C 1.4380000,19.554000 1.6231000,7.0420000 1.2029000,4.0780000 C 0.97290000,2.2690000 0.50810000,1.8530000 0.0000000,1.3900000 C 3.7539000,1.2050000 4.9570000,0.60100000 6.1169000,0.0000000 C 6.1169000,0.0000000 6.1169000,4.9120000 6.1169000,4.9120000 C 6.6719000,3.4740000 7.8301000,0.27700000 12.465100,0.27700000 C 18.258100,0.27700000 18.303100,4.4940000 18.350100,7.2730000 C 18.350100,7.2730000 18.350100,21.222000 18.350100,21.222000"
         id="path3746"
         style="fill:#000000;fill-opacity:1.0000000" />
    </g>
    <g
       transform="matrix(-2.171550e-4,-0.127011,9.824559e-2,7.181526e-2,9.170217,41.58855)"
       style="fill:#000000;fill-opacity:1.0000000;stroke:none;stroke-width:0.10000000pt;stroke-linecap:butt;stroke-linejoin:miter;stroke-dasharray:none"
       id="g3748">
      <path
         d="M 7.6729000,3.8360000 C 7.6729000,3.8360000 3.8360000,7.6720000 3.8360000,7.6720000 C 3.8360000,7.6720000 0.0000000,3.8360000 0.0000000,3.8360000 C 0.0000000,3.8360000 3.8360000,0.0000000 3.8360000,0.0000000 C 3.8360000,0.0000000 7.6729000,3.8360000 7.6729000,3.8360000"
         id="path3750"
         style="fill:#b22261;fill-opacity:1.0000000" />
    </g>
    <path
       style="color:#000000;fill:#404f66;fill-opacity:1.0000000;fill-rule:evenodd;stroke:none;stroke-width:0.69250000;stroke-linecap:round;stroke-linejoin:round;marker:none;marker-start:none;marker-mid:none;marker-end:none;stroke-miterlimit:4.0000000;stroke-dashoffset:0.0000000;stroke-opacity:1.0000000;visibility:visible;display:inline;overflow:visible"
       d="M 14.721775,18.577964 C 14.721775,18.577964 14.678254,55.042725 15.513393,55.457586 L 14.553571,55.401783 C 14.970676,54.984679 14.721775,18.577964 14.721775,18.577964 z "
       id="rect4061"
       sodipodi:nodetypes="cccc" />
    <path
       sodipodi:nodetypes="ccc"
       id="path4274"
       d="M 8.3565764,13.265751 L 14.440901,17.535124 L 47.093548,13.703742 L 39.508929,9.6651784"
       style="stroke-opacity:1.0000000;stroke-dasharray:none;stroke-miterlimit:4.0000000;stroke-linejoin:round;stroke-linecap:round;stroke-width:0.94250000;stroke:#ffffff;fill-rule:evenodd;fill-opacity:0.75000000;fill:none" />
  </g>
</svg>
