<?xml version="1.0" encoding="UTF-8" standalone="no"?>
<!-- Created with Inkscape (http://www.inkscape.org/) -->
<svg
   xmlns:dc="http://purl.org/dc/elements/1.1/"
   xmlns:cc="http://web.resource.org/cc/"
   xmlns:rdf="http://www.w3.org/1999/02/22-rdf-syntax-ns#"
   xmlns:svg="http://www.w3.org/2000/svg"
   xmlns="http://www.w3.org/2000/svg"
   xmlns:xlink="http://www.w3.org/1999/xlink"
   xmlns:sodipodi="http://inkscape.sourceforge.net/DTD/sodipodi-0.dtd"
   xmlns:inkscape="http://www.inkscape.org/namespaces/inkscape"
   id="svg1"
   sodipodi:version="0.32"
   inkscape:version="0.41+cvs"
   width="48.000000pt"
   height="48.000000pt"
   sodipodi:docbase="/home/david/.icons/eXperience/normal/mimetypes"
   sodipodi:docname="gnome-mime-text-plain.svg">
  <defs
     id="defs3">
    <linearGradient
       id="linearGradient1766">
      <stop
         style="stop-color:#000000;stop-opacity:1;"
         offset="0"
         id="stop1767" />
      <stop
         style="stop-color:#000000;stop-opacity:0;"
         offset="1"
         id="stop1768" />
    </linearGradient>
    <linearGradient
       id="linearGradient1762">
      <stop
         style="stop-color:#968ecd;stop-opacity:1.0000000;"
         offset="0.0000000"
         id="stop1763" />
      <stop
         style="stop-color:#554d85;stop-opacity:1.0000000;"
         offset="1.0000000"
         id="stop1764" />
    </linearGradient>
    <linearGradient
       id="linearGradient1751">
      <stop
         style="stop-color:#ffffff;stop-opacity:1.0000000;"
         offset="0.0000000"
         id="stop1752" />
      <stop
         style="stop-color:#afd3ff;stop-opacity:1.0000000;"
         offset="1.0000000"
         id="stop1753" />
    </linearGradient>
    <linearGradient
       id="linearGradient1746">
      <stop
         style="stop-color:#ffffff;stop-opacity:1.0000000;"
         offset="0.0000000"
         id="stop1747" />
      <stop
         style="stop-color:#ffffff;stop-opacity:0.0000000;"
         offset="1.0000000"
         id="stop1748" />
    </linearGradient>
    <radialGradient
       inkscape:collect="always"
       xlink:href="#linearGradient1746"
       id="radialGradient1750"
       cx="43.392352"
       cy="3.1320463"
       r="59.917704"
       fx="43.392352"
       fy="3.1320463"
       gradientTransform="matrix(0.955666,0.000000,0.000000,0.635799,7.628159,11.75470)"
       gradientUnits="userSpaceOnUse" />
    <radialGradient
       inkscape:collect="always"
       xlink:href="#linearGradient1751"
       id="radialGradient1757"
       cx="44.574645"
       cy="47.514152"
       r="78.146215"
       fx="44.574645"
       fy="47.514152"
       gradientTransform="matrix(0.752158,0.000000,0.000000,0.807825,7.628159,11.75470)"
       gradientUnits="userSpaceOnUse" />
    <linearGradient
       inkscape:collect="always"
       xlink:href="#linearGradient1751"
       id="linearGradient1761"
       x1="28.638879"
       y1="66.265707"
       x2="32.073531"
       y2="70.376839"
       gradientTransform="matrix(1.066980,0.000000,0.000000,0.569468,7.628159,11.75470)"
       gradientUnits="userSpaceOnUse" />
    <linearGradient
       inkscape:collect="always"
       xlink:href="#linearGradient1762"
       id="linearGradient1765"
       x1="22.609107"
       y1="7.0258278"
       x2="58.475802"
       y2="51.416283"
       gradientTransform="matrix(0.754092,0.000000,0.000000,0.805753,7.628159,11.75470)"
       gradientUnits="userSpaceOnUse" />
    <linearGradient
       inkscape:collect="always"
       xlink:href="#linearGradient1766"
       id="linearGradient1769"
       x1="50.651265"
       y1="51.526812"
       x2="52.728953"
       y2="55.049853"
       gradientTransform="matrix(0.773746,0.000000,0.000000,0.785286,7.628159,11.75470)"
       gradientUnits="userSpaceOnUse" />
  </defs>
  <sodipodi:namedview
     id="base"
     pagecolor="#ffffff"
     bordercolor="#666666"
     borderopacity="1.0"
     inkscape:pageopacity="0.0"
     inkscape:pageshadow="2"
     inkscape:zoom="1.4142136"
     inkscape:cx="126.58968"
     inkscape:cy="87.983843"
     inkscape:window-width="1022"
     inkscape:window-height="724"
     inkscape:window-x="0"
     inkscape:window-y="0"
     inkscape:current-layer="svg1"
     showguides="false"
     inkscape:guide-bbox="true"
     gridspacingy="1.0000000pt"
     gridspacingx="1.0000000pt"
     gridoriginy="0.0000000pt"
     gridoriginx="0.0000000pt"
     showgrid="false"
     inkscape:grid-points="false"
     inkscape:grid-bbox="false"
     showborder="true">
    <sodipodi:guide
       orientation="vertical"
       position="0.0000000"
       id="guide2809" />
    <sodipodi:guide
       orientation="vertical"
       position="48.000000"
       id="guide2810" />
    <sodipodi:guide
       orientation="horizontal"
       position="0.0000000"
       id="guide2811" />
    <sodipodi:guide
       orientation="horizontal"
       position="47.000000"
       id="guide2819" />
    <sodipodi:guide
       orientation="horizontal"
       position="48.405405"
       id="guide1774" />
  </sodipodi:namedview>
  <metadata
     id="metadata4">
    <rdf:RDF
       id="RDF5">
      <cc:Work
         rdf:about=""
         id="Work6">
        <dc:format
           id="format7">image/svg+xml</dc:format>
        <dc:type
           id="type9"
           rdf:resource="http://purl.org/dc/dcmitype/StillImage" />
      </cc:Work>
    </rdf:RDF>
  </metadata>
  <path
     style="font-size:12.000000;opacity:0.12206573;fill:url(#linearGradient1769);fill-opacity:1.0000000;fill-rule:evenodd;"
     d="M 10.992770,58.212304 C 16.058345,58.213348 20.236121,57.919845 28.754448,57.476007 C 33.274720,57.240483 39.819119,57.197623 46.441869,57.007007 C 50.236075,51.787939 49.286477,48.490671 49.965358,44.482366 C 51.413276,35.933445 52.661476,30.592174 52.790461,15.791218 C 41.006660,19.808932 33.014399,21.603758 22.809868,25.553900 C 19.373245,36.544070 14.429394,47.222133 10.992770,58.212304 z "
     id="path913"
     nodetypes="cccccc"
     sodipodi:nodetypes="cscsccc" />
  <path
     style="font-size:12.000000;fill:url(#linearGradient1765);fill-opacity:1.0000000;fill-rule:evenodd;"
     d="M 8.6025267,55.601307 C 21.381388,57.376296 24.161576,57.851699 30.475466,57.395567 C 40.107377,56.707106 49.118283,51.976595 49.854997,45.085723 C 50.869984,38.616155 52.675173,28.799814 50.289684,11.754740 C 37.091823,13.620084 26.543674,13.904636 11.002063,12.558845 C 13.984037,22.140240 12.279189,43.730727 8.6025267,55.601307 z "
     id="path861"
     sodipodi:nodetypes="cscccc" />
  <path
     style="font-size:12.000000;fill:url(#radialGradient1757);fill-opacity:1.0000000;fill-rule:evenodd;"
     d="M 10.187506,54.626939 C 21.502640,56.249276 24.700474,56.949179 32.010010,55.171182 C 34.540368,54.555690 41.344284,51.388914 41.776801,47.491442 C 42.388523,47.687160 46.707555,49.834530 48.880629,44.111355 C 50.277076,34.710629 50.921318,26.363406 49.196811,13.203125 C 32.032755,14.869908 23.210008,14.739594 12.500000,13.703476 C 15.204938,21.983752 13.211503,45.390614 10.187506,54.626939 z "
     id="path863"
     sodipodi:nodetypes="ccccccc" />
  <g
     id="g3247">
    <path
       sodipodi:nodetypes="cccccccc"
       id="path2074"
       d="M 17.394607,19.106154 C 17.712493,18.933107 19.249460,18.315709 19.812500,18.290729 C 20.641148,18.462113 21.565219,18.767867 21.924937,18.751907 C 23.490176,18.682461 23.835787,18.123870 25.062500,18.682799 C 26.485539,19.331183 29.394474,18.031588 31.062500,18.791595 C 32.400737,19.401339 34.162873,16.704225 36.312500,17.683665 C 37.730908,18.329938 41.488644,17.954013 43.062500,17.884185 C 44.285813,17.829909 47.143513,17.828120 47.312500,17.820623"
       style="fill:none;fill-opacity:0.75000000;fill-rule:evenodd;stroke:#8d94ec;stroke-width:1.0000000pt;stroke-linecap:round;stroke-linejoin:miter;stroke-opacity:1.0000000" />
    <path
       sodipodi:nodetypes="ccccccc"
       id="path2076"
       d="M 17.687500,24.260010 C 18.318015,24.232035 19.020485,23.679860 20.062500,24.154637 C 21.527568,24.822169 23.649028,23.976276 24.937500,24.563345 C 26.524871,25.286603 28.994652,23.883340 30.437500,23.819324 C 31.748723,23.761149 36.387371,23.530278 37.187500,23.894844 C 37.929270,24.232818 40.223695,24.554538 40.812500,24.234012 C 41.661838,23.771660 46.276106,24.241605 47.312500,24.195623"
       style="fill:none;fill-opacity:0.75000000;fill-rule:evenodd;stroke:#8d94ec;stroke-width:1.0000000pt;stroke-linecap:round;stroke-linejoin:miter;stroke-opacity:1.0000000" />
    <path
       sodipodi:nodetypes="cccccccccc"
       id="path2078"
       d="M 17.937500,30.248918 C 18.408904,30.184763 19.778490,30.861600 19.903490,30.814387 C 20.028490,30.767174 21.837747,29.903327 22.640927,30.269282 C 24.982305,31.336090 25.450125,30.415601 28.062500,30.299697 C 28.103254,30.297889 30.371798,30.925338 30.437500,30.944324 C 31.740820,31.320939 34.952096,30.864158 36.437500,30.303119 C 36.763460,30.180004 37.104167,30.106874 37.437500,30.008752 C 38.731737,29.627771 38.796861,29.565621 39.812500,30.028379 C 40.975818,30.558425 41.728071,29.818390 42.812500,29.770277 C 43.020833,29.761033 46.229167,30.368688 46.437500,30.359444"
       style="fill:none;fill-opacity:0.75000000;fill-rule:evenodd;stroke:#8d94ec;stroke-width:1.0000000pt;stroke-linecap:round;stroke-linejoin:miter;stroke-opacity:1.0000000" />
    <path
       id="path2080"
       d="M 17.687500,36.760010 C 18.491128,36.724355 19.316489,36.312735 20.187500,36.274091 C 20.739002,36.249622 23.443670,37.070208 24.062500,37.352167 C 25.545260,38.027761 28.707436,35.611062 30.687500,36.183232 C 33.399926,36.967031 37.145895,35.341155 39.562500,36.039471 C 40.823705,36.403916 43.833358,36.224984 45.062500,36.170450 C 45.354167,36.157509 45.645833,36.144569 45.937500,36.131628"
       style="fill:none;fill-opacity:0.75000000;fill-rule:evenodd;stroke:#8d94ec;stroke-width:1.0000000pt;stroke-linecap:round;stroke-linejoin:miter;stroke-opacity:1.0000000" />
    <path
       sodipodi:nodetypes="cccccccccc"
       id="path2082"
       d="M 17.312500,42.026647 C 18.342038,41.980969 22.673629,40.469353 23.812500,40.988259 C 24.801643,41.438945 25.483152,41.789136 26.562500,41.741248 C 27.508706,41.699267 28.095840,42.594048 29.187500,41.999784 C 30.277960,41.406173 31.108200,41.289567 32.062500,41.247227 C 32.820354,41.213603 34.026231,41.660101 35.062500,41.614125 C 36.271593,41.560480 37.126901,41.147532 38.312500,41.094930 C 39.104016,41.059813 40.618171,41.145468 41.312500,41.461828 C 41.729833,41.651979 42.835974,41.394235 43.312500,41.373093 C 43.676303,41.356952 44.429083,41.654081 44.562500,41.692633"
       style="fill:none;fill-opacity:0.75000000;fill-rule:evenodd;stroke:#8d94ec;stroke-width:1.0000000pt;stroke-linecap:round;stroke-linejoin:miter;stroke-opacity:1.0000000" />
    <path
       sodipodi:nodetypes="ccccccc"
       id="path2084"
       d="M 16.303617,47.532193 C 17.348612,47.485830 19.377828,46.717678 20.312500,47.143545 C 22.390140,48.090185 24.860346,49.980345 27.187500,48.713519 C 27.651705,48.460821 30.515865,48.608756 31.187500,48.411049 C 35.075874,47.266438 33.088409,47.214664 35.562500,48.341941 C 36.273675,48.665975 38.440266,47.339262 39.062500,47.311655 C 39.290579,47.301535 40.922831,47.976224 41.080267,48.047957"
       style="fill:none;fill-opacity:0.75000000;fill-rule:evenodd;stroke:#8d94ec;stroke-width:1.0000000pt;stroke-linecap:round;stroke-linejoin:miter;stroke-opacity:1.0000000" />
  </g>
  <path
     style="font-size:12.000000;opacity:0.91549295;fill:url(#linearGradient1761);fill-opacity:1.0000000;fill-rule:evenodd;"
     d="M 31.371214,56.228951 C 39.879619,54.354932 44.679526,52.444342 47.633347,47.549527 C 45.871856,49.206508 44.165618,49.300366 42.506174,48.780383 C 41.147393,52.068561 38.352084,54.077487 31.371214,56.228951 z "
     id="path1150"
     sodipodi:nodetypes="cccc" />
  <path
     style="font-size:12.000000;fill:url(#radialGradient1750);fill-opacity:1.0000000;fill-rule:evenodd;"
     d="M 50.036832,24.210723 C 50.096858,21.757257 49.627938,16.493195 49.196811,13.203125 C 32.032755,14.869908 23.210008,14.739594 12.500000,13.703476 C 13.992127,18.853811 14.359415,24.182019 13.751781,30.329482 C 21.517035,47.430799 50.096501,32.472189 50.036832,24.210723 z "
     id="path1794"
     sodipodi:nodetypes="ccccc" />
</svg>
