<?xml version="1.0" encoding="UTF-8" standalone="no"?>
<!DOCTYPE svg PUBLIC "-//W3C//DTD SVG 20010904//EN"
"http://www.w3.org/TR/2001/REC-SVG-20010904/DTD/svg10.dtd">
<!-- Created with Inkscape (http://www.inkscape.org/) -->
<svg
   id="svg1"
   sodipodi:version="0.32"
   inkscape:version="0.39cvs"
   width="128.00000pt"
   height="128.00000pt"
   sodipodi:docname="stock_dialog-info.svg"
   sodipodi:docbase="/home/andy/Desktop/etiquette-icons-0.3/scalable/stock/generic"
   xmlns="http://www.w3.org/2000/svg"
   xmlns:inkscape="http://www.inkscape.org/namespaces/inkscape"
   xmlns:sodipodi="http://sodipodi.sourceforge.net/DTD/sodipodi-0.dtd"
   xmlns:xlink="http://www.w3.org/1999/xlink">
  <defs
     id="defs3">
    <linearGradient
       id="linearGradient1029">
      <stop
         style="stop-color:#9b9483;stop-opacity:1.0000000;"
         offset="0.0000000"
         id="stop1030" />
      <stop
         style="stop-color:#6f6c49;stop-opacity:1.0000000;"
         offset="0.35993740"
         id="stop1229" />
      <stop
         style="stop-color:#cfca9b;stop-opacity:1.0000000;"
         offset="0.86792523"
         id="stop1032" />
      <stop
         style="stop-color:#ada985;stop-opacity:1.0000000;"
         offset="1.0000000"
         id="stop1031" />
    </linearGradient>
    <linearGradient
       id="linearGradient980">
      <stop
         style="stop-color:#ffffff;stop-opacity:0.0000000;"
         offset="0.0000000"
         id="stop981" />
      <stop
         style="stop-color:#ffffff;stop-opacity:0.47107437;"
         offset="0.35222223"
         id="stop1105" />
      <stop
         style="stop-color:#ffffff;stop-opacity:0.0000000;"
         offset="1.0000000"
         id="stop982" />
    </linearGradient>
    <linearGradient
       id="linearGradient858">
      <stop
         style="stop-color:#ffffff;stop-opacity:1.0000000;"
         offset="0.00000000"
         id="stop859" />
      <stop
         style="stop-color:#ffffff;stop-opacity:0.00000000;"
         offset="1.0000000"
         id="stop860" />
    </linearGradient>
    <linearGradient
       id="linearGradient853">
      <stop
         style="stop-color:#c4c4c4;stop-opacity:1.0000000;"
         offset="0.00000000"
         id="stop854" />
      <stop
         style="stop-color:#c6c789;stop-opacity:1.0000000;"
         offset="1.0000000"
         id="stop855" />
    </linearGradient>
    <linearGradient
       id="linearGradient843">
      <stop
         style="stop-color:#000000;stop-opacity:0.16666667;"
         offset="0.00000000"
         id="stop844" />
      <stop
         style="stop-color:#000000;stop-opacity:0.00000000;"
         offset="1.0000000"
         id="stop845" />
    </linearGradient>
    <linearGradient
       id="linearGradient839">
      <stop
         style="stop-color:#ffffff;stop-opacity:1.0000000;"
         offset="0.0000000"
         id="stop840" />
      <stop
         style="stop-color:#87b7cd;stop-opacity:1.0000000;"
         offset="0.85000002"
         id="stop974" />
      <stop
         style="stop-color:#7194ad;stop-opacity:1.0000000;"
         offset="1.0000000"
         id="stop841" />
    </linearGradient>
    <linearGradient
       id="linearGradient835">
      <stop
         style="stop-color:#000000;stop-opacity:0.33057851;"
         offset="0.0000000"
         id="stop836" />
      <stop
         style="stop-color:#000000;stop-opacity:0.33333334;"
         offset="0.51139534"
         id="stop1050" />
      <stop
         style="stop-color:#000000;stop-opacity:0.00000000;"
         offset="1.0000000"
         id="stop837" />
    </linearGradient>
    <radialGradient
       xlink:href="#linearGradient839"
       id="radialGradient838"
       cx="0.50352114"
       cy="0.48736462"
       r="0.48552889"
       fx="0.50549448"
       fy="0.063909762" />
    <linearGradient
       xlink:href="#linearGradient1029"
       id="linearGradient842"
       x1="0.97478992"
       y1="0.60937500"
       x2="-0.017575830"
       y2="0.60937500" />
    <linearGradient
       xlink:href="#linearGradient843"
       id="linearGradient846"
       x1="7.8604658e-19"
       y1="0.50000000"
       x2="1.0000000"
       y2="0.50000000" />
    <linearGradient
       xlink:href="#linearGradient835"
       id="linearGradient847"
       x1="-0.96254367"
       y1="1.4734614"
       x2="0.46218488"
       y2="0.24218750" />
    <linearGradient
       xlink:href="#linearGradient1029"
       id="linearGradient848"
       x1="0.77289379"
       y1="0.46610171"
       x2="-0.029583752"
       y2="0.46610171" />
    <linearGradient
       xlink:href="#linearGradient835"
       id="linearGradient849"
       x1="-0.10167370"
       y1="4.8911829"
       x2="0.43499306"
       y2="-0.029151803" />
    <linearGradient
       xlink:href="#linearGradient843"
       id="linearGradient850"
       x1="0.51372552"
       y1="0.88888890"
       x2="0.53725493"
       y2="0.12500000" />
    <linearGradient
       xlink:href="#linearGradient835"
       id="linearGradient851"
       x1="1.6459917"
       y1="0.13729464"
       x2="1.6459917"
       y2="1.0109665" />
    <linearGradient
       xlink:href="#linearGradient835"
       id="linearGradient852"
       x1="-1.0485891"
       y1="0.20138754"
       x2="-1.0485891"
       y2="1.1640199"
       gradientTransform="scale(1.114352,0.897382)" />
    <linearGradient
       xlink:href="#linearGradient858"
       id="linearGradient857"
       x1="0.051612902"
       y1="-0.054687500"
       x2="0.47741935"
       y2="0.57031250" />
    <linearGradient
       xlink:href="#linearGradient858"
       id="linearGradient862"
       x1="1.0000000"
       y1="1.0703125"
       x2="0.55345911"
       y2="0.42968750" />
    <radialGradient
       xlink:href="#linearGradient843"
       id="radialGradient1049"
       cx="0.50000000"
       cy="0.50000000"
       r="0.50000000"
       fx="0.50980395"
       fy="0.82075471" />
    <linearGradient
       xlink:href="#linearGradient835"
       id="linearGradient1113"
       x1="0.51760566"
       y1="-1.0147059"
       x2="0.51760566"
       y2="1.0000000" />
    <linearGradient
       xlink:href="#linearGradient835"
       id="linearGradient1306"
       x1="-0.010881231"
       y1="4.3002377"
       x2="0.45509437"
       y2="0.028022502"
       gradientTransform="scale(0.977674,1.022836)" />
    <linearGradient
       xlink:href="#linearGradient835"
       id="linearGradient1307"
       x1="-0.026529051"
       y1="4.3950195"
       x2="0.45080465"
       y2="0.018669793"
       gradientTransform="scale(0.982729,1.017575)" />
    <linearGradient
       xlink:href="#linearGradient835"
       id="linearGradient1308"
       x1="-0.070669077"
       y1="4.6790357"
       x2="0.44061628"
       y2="-0.0085941190"
       gradientTransform="scale(0.995687,1.004332)" />
    <linearGradient
       xlink:href="#linearGradient835"
       id="linearGradient1309"
       x1="-0.050963484"
       y1="4.5488319"
       x2="0.44472179"
       y2="0.0042289095"
       gradientTransform="scale(0.991370,1.008705)" />
  </defs>
  <sodipodi:namedview
     id="base"
     pagecolor="#ffffff"
     bordercolor="#666666"
     borderopacity="1.0"
     inkscape:pageopacity="0.0"
     inkscape:pageshadow="2"
     inkscape:zoom="1.7366335"
     inkscape:cx="67.402173"
     inkscape:cy="45.174651"
     inkscape:window-width="333"
     inkscape:window-height="496"
     inkscape:window-x="365"
     inkscape:window-y="294"
     borderlayer="top"
     showborder="true" />
  <path
     sodipodi:type="arc"
     style="fill:url(#radialGradient1049);fill-opacity:0.75000000;fill-rule:evenodd;stroke:none;stroke-width:1.0000000pt;"
     id="path1351"
     sodipodi:cx="25.448187"
     sodipodi:cy="144.73109"
     sodipodi:rx="48.860519"
     sodipodi:ry="48.860519"
     d="M 74.308706 144.73109 A 48.860519 48.860519 0 1 0 -23.412333,144.73109 A 48.860519 48.860519 0 1 0 74.308706 144.73109 z"
     transform="matrix(1.166667,0.000000,0.000000,0.479167,43.60122,62.14771)" />
  <path
     style="fill:url(#linearGradient842);fill-opacity:0.75000000;fill-rule:evenodd;stroke-width:0.50000000;"
     d="M 50.378197,101.97162 L 51.208135,130.65529 C 51.406228,137.50163 63.103897,142.33452 68.221843,144.81559 C 73.339788,147.29667 77.005345,147.72027 81.915804,145.54177 C 86.826267,143.36325 97.865860,138.24669 97.684610,131.74455 L 96.854670,101.97162 L 50.378197,101.97162 z "
     id="path1253"
     sodipodi:nodetypes="czzzzcc" />
  <path
     style="fill:url(#radialGradient838);fill-opacity:0.75000000;fill-rule:evenodd;stroke-width:0.50000000;"
     d="M 107.71371,155.87880 C 119.93985,148.44532 135.79642,136.68071 134.70901,110.10419 C 133.62159,84.114520 117.29900,64.916418 84.826405,64.329564 C 52.353811,64.329564 34.476871,87.273006 34.943803,114.79902 C 35.997590,142.32503 49.223920,149.03218 61.352238,155.87880 C 73.480556,162.72544 95.487587,163.31229 107.71371,155.87880 z "
     id="path1254"
     sodipodi:nodetypes="czzzzz"
     transform="translate(-10.17927,-51.91430)" />
  <path
     style="fill:url(#linearGradient850);fill-opacity:0.75000000;fill-rule:evenodd;stroke-width:0.62500000;"
     d="M 61.846063,155.98552 C 62.814322,154.46397 72.400850,148.64033 84.089130,148.57116 C 95.777410,148.08703 104.83756,154.65737 106.49743,156.45557 C 92.832900,163.81737 71.761161,162.76587 61.846063,155.98552 z "
     id="path1255"
     sodipodi:nodetypes="czcc"
     transform="translate(-10.17927,-51.91430)" />
  <path
     style="fill:none;fill-opacity:0.75000000;fill-rule:evenodd;stroke:url(#linearGradient851);stroke-width:1.2229806;"
     d="M 74.959824,156.87054 L 65.000578,121.59821"
     id="path1257"
     transform="translate(-10.17927,-51.91430)" />
  <path
     style="fill:none;fill-opacity:0.75000000;fill-rule:evenodd;stroke:url(#linearGradient852);stroke-width:1.2229806;"
     d="M 94.048377,155.62563 L 101.93278,119.93834"
     id="path1258"
     transform="translate(-10.17927,-51.91430)" />
  <path
     style="fill:url(#linearGradient857);fill-opacity:0.45833334;fill-rule:evenodd;stroke-width:1.0000000pt;"
     d="M 73.401528,24.750624 C 73.401528,24.750624 55.972848,29.730246 53.483038,39.689491 C 50.993218,49.648733 39.374108,29.730246 51.823158,22.260812 C 63.442278,15.621316 73.401528,24.750624 73.401528,24.750624 z "
     id="path1259"
     sodipodi:nodetypes="cczc" />
  <path
     style="fill:url(#linearGradient847);fill-opacity:0.75000000;fill-rule:evenodd;stroke-width:0.50000000;"
     d="M 50.672519,102.32417 L 51.501569,131.00784 C 51.699449,137.85418 63.384469,142.68706 68.496879,145.16814 C 73.609289,147.64923 77.270874,148.07282 82.176034,145.89431 C 87.081184,143.71580 98.108844,138.59924 97.927784,132.09711 L 97.098744,102.32417 L 50.672519,102.32417 z "
     id="path1260"
     sodipodi:nodetypes="czzzzcc" />
  <path
     style="fill:url(#linearGradient862);fill-opacity:0.45833334;fill-rule:evenodd;stroke-width:1.0000000pt;"
     d="M 60.375726,87.344228 C 48.051796,88.517938 108.84391,76.619184 113.90894,56.359054 C 118.97398,36.098918 126.17889,79.553454 100.85372,94.748564 C 77.216895,108.25530 48.638646,96.147043 60.375726,87.344228 z "
     id="path1261"
     sodipodi:nodetypes="cczc" />
  <path
     style="fill:none;fill-opacity:0.75000000;fill-rule:evenodd;stroke:url(#linearGradient1113);stroke-width:0.76576298;"
     d="M 65.713436,122.18469 C 64.979082,118.78915 68.648699,120.45064 68.380505,122.91997 C 70.503394,128.07298 69.581289,116.53582 72.106005,120.20719 C 71.558999,121.87741 72.932639,128.56578 73.833411,123.85193 C 73.492679,121.84066 75.575465,115.82479 75.928422,120.86690 C 75.660424,122.77439 77.225673,125.74118 77.377855,122.13973 C 77.042884,120.44780 78.402137,116.76480 78.444908,120.46642 C 78.320004,122.29468 78.725326,124.23759 78.980151,121.29550 C 79.635340,117.39017 81.683262,119.74930 81.120598,122.36681 C 83.582856,125.68088 80.851000,114.35080 84.045456,118.60724 C 83.512354,120.71904 85.292264,126.62709 86.705197,121.74357 C 87.259893,118.17432 89.363393,118.80160 89.162185,122.18520 C 90.606283,126.33143 92.374283,122.11736 92.819347,120.06962 C 95.332557,117.35753 92.110670,125.13258 95.320784,123.06978 C 95.433296,121.61977 97.168709,115.75332 97.857776,119.61497 C 96.978253,123.94840 100.10201,121.64862 101.06330,119.42598 C 101.57670,119.96472 101.24814,120.88967 101.25823,121.56110"
     id="path1262"
     transform="translate(-10.17927,-51.91430)" />
</svg>
