<?xml version="1.0" encoding="UTF-8" standalone="no"?>
<!DOCTYPE svg PUBLIC "-//W3C//DTD SVG 20010904//EN"
"http://www.w3.org/TR/2001/REC-SVG-20010904/DTD/svg10.dtd">
<!-- Created with Inkscape (http://www.inkscape.org/) -->
<svg
   id="svg1199"
   sodipodi:version="0.32"
   inkscape:version="0.39cvs"
   width="128.00000pt"
   height="128.00000pt"
   sodipodi:docname="stock_cell-phone.svg"
   sodipodi:docbase="/home/andy/Desktop/etiquette-icons-0.5/scalable/stock/generic"
   xmlns="http://www.w3.org/2000/svg"
   xmlns:inkscape="http://www.inkscape.org/namespaces/inkscape"
   xmlns:sodipodi="http://sodipodi.sourceforge.net/DTD/sodipodi-0.dtd"
   xmlns:xml="http://www.w3.org/XML/1998/namespace"
   xmlns:xlink="http://www.w3.org/1999/xlink">
  <defs
     id="defs1201">
    <linearGradient
       id="linearGradient1446">
      <stop
         style="stop-color:#ffffff;stop-opacity:1.0000000;"
         offset="0.0000000"
         id="stop1447" />
      <stop
         style="stop-color:#5d7555;stop-opacity:1.0000000;"
         offset="1.0000000"
         id="stop1448" />
    </linearGradient>
    <linearGradient
       id="linearGradient1442">
      <stop
         style="stop-color:#000000;stop-opacity:0.31250000;"
         offset="0.00000000"
         id="stop1443" />
      <stop
         style="stop-color:#000000;stop-opacity:0.00000000;"
         offset="1.0000000"
         id="stop1444" />
    </linearGradient>
    <linearGradient
       id="linearGradient1296">
      <stop
         style="stop-color:#ffffff;stop-opacity:1.0000000;"
         offset="0.00000000"
         id="stop1297" />
      <stop
         style="stop-color:#ffffff;stop-opacity:0.00000000;"
         offset="1.0000000"
         id="stop1298" />
    </linearGradient>
    <linearGradient
       id="linearGradient1212">
      <stop
         style="stop-color:#000;stop-opacity:1;"
         offset="0"
         id="stop1213" />
      <stop
         style="stop-color:#fff;stop-opacity:1;"
         offset="1"
         id="stop1214" />
    </linearGradient>
    <linearGradient
       xlink:href="#linearGradient1212"
       id="linearGradient1215"
       x1="0.48684210"
       y1="-0.84210527"
       x2="0.34210527"
       y2="0.66666669" />
    <linearGradient
       xlink:href="#linearGradient1296"
       id="linearGradient1295"
       x1="1.3415493"
       y1="-0.90686274"
       x2="0.54577464"
       y2="0.75000000" />
    <linearGradient
       xlink:href="#linearGradient1296"
       id="linearGradient1299"
       x1="-0.13063063"
       y1="1.3421053"
       x2="0.45045045"
       y2="0.44078946" />
    <linearGradient
       xlink:href="#linearGradient1446"
       id="linearGradient1300"
       x1="0.26382980"
       y1="-0.72656250"
       x2="0.68085104"
       y2="1.3671875" />
    <linearGradient
       xlink:href="#linearGradient1446"
       id="linearGradient1301"
       x1="0.47881356"
       y1="1.3554435"
       x2="0.47881356"
       y2="0.30920163" />
    <linearGradient
       xlink:href="#linearGradient1296"
       id="linearGradient1302"
       x1="0.40112993"
       y1="-1.5859375"
       x2="0.62146890"
       y2="0.36718750" />
    <linearGradient
       xlink:href="#linearGradient1446"
       id="linearGradient1303"
       x1="3.3768649"
       y1="-2.3111143"
       x2="0.89836055"
       y2="3.1998146"
       gradientTransform="scale(1.043054,0.958723)" />
    <linearGradient
       xlink:href="#linearGradient1212"
       id="linearGradient1304"
       x1="0.48026314"
       y1="-0.83980542"
       x2="0.48026314"
       y2="2.4802699" />
    <linearGradient
       xlink:href="#linearGradient1446"
       id="linearGradient1305"
       x1="3.4389277"
       y1="-1.4004738"
       x2="0.96042120"
       y2="4.1104593"
       gradientTransform="scale(1.043053,0.958724)" />
    <linearGradient
       xlink:href="#linearGradient1446"
       id="linearGradient1306"
       x1="0.99885786"
       y1="-4.4016433"
       x2="-1.8264812"
       y2="1.8804694"
       gradientTransform="scale(1.054205,0.948582)" />
    <linearGradient
       xlink:href="#linearGradient1446"
       id="linearGradient1307"
       x1="0.93939263"
       y1="-3.2834980"
       x2="-1.7574515"
       y2="2.7129071"
       gradientTransform="scale(1.040112,0.961435)" />
    <linearGradient
       xlink:href="#linearGradient1446"
       id="linearGradient1308"
       x1="0.85103405"
       y1="-2.0926344"
       x2="-1.6274725"
       y2="3.4182994"
       gradientTransform="scale(1.043053,0.958724)" />
    <linearGradient
       xlink:href="#linearGradient1446"
       id="linearGradient1309"
       x1="0.80381781"
       y1="-1.1506341"
       x2="-1.6746883"
       y2="4.3602986"
       gradientTransform="scale(1.043053,0.958724)" />
    <linearGradient
       xlink:href="#linearGradient1446"
       id="linearGradient1310"
       x1="2.3279698"
       y1="-4.6530342"
       x2="-0.40113497"
       y2="1.4151019"
       gradientTransform="scale(0.852004,1.173704)" />
    <linearGradient
       xlink:href="#linearGradient1446"
       id="linearGradient1311"
       x1="2.3513002"
       y1="-3.6757977"
       x2="-0.37780377"
       y2="2.3923373"
       gradientTransform="scale(0.852004,1.173704)" />
    <linearGradient
       xlink:href="#linearGradient1446"
       id="linearGradient1312"
       x1="2.3862970"
       y1="-2.6985624"
       x2="-0.34280741"
       y2="3.3695731"
       gradientTransform="scale(0.852004,1.173704)" />
    <linearGradient
       xlink:href="#linearGradient1446"
       id="linearGradient1313"
       x1="2.4071476"
       y1="-1.8220806"
       x2="-0.32195672"
       y2="4.2460551"
       gradientTransform="scale(0.852004,1.173704)" />
    <linearGradient
       xlink:href="#linearGradient1442"
       id="linearGradient1314" />
    <linearGradient
       xlink:href="#linearGradient1442"
       id="linearGradient1315"
       x1="0.57812500"
       y1="2.2279410"
       x2="0.61328125"
       y2="0.066176474" />
    <linearGradient
       xlink:href="#linearGradient1442"
       id="linearGradient1316"
       x1="1.8846399"
       y1="-0.51565284"
       x2="2.7420013"
       y2="-2.3238006" />
    <linearGradient
       xlink:href="#linearGradient1442"
       id="linearGradient1317"
       x1="1.9251301"
       y1="0.43437436"
       x2="2.7530978"
       y2="-1.3117828"
       gradientTransform="scale(1.065173,0.938815)" />
    <linearGradient
       xlink:href="#linearGradient1442"
       id="linearGradient1318"
       x1="1.9859852"
       y1="1.3465902"
       x2="2.7602460"
       y2="-0.28630111"
       gradientTransform="scale(1.043054,0.958723)" />
    <linearGradient
       xlink:href="#linearGradient1442"
       id="linearGradient1319"
       x1="2.0480468"
       y1="2.2572336"
       x2="2.8223081"
       y2="0.62434101"
       gradientTransform="scale(1.043053,0.958724)" />
    <linearGradient
       xlink:href="#linearGradient1442"
       id="linearGradient1320"
       x1="-0.58665752"
       y1="-0.23208985"
       x2="0.29595119"
       y2="-2.0934832"
       gradientTransform="scale(1.054205,0.948582)" />
    <linearGradient
       xlink:href="#linearGradient1442"
       id="linearGradient1321"
       x1="-0.57401437"
       y1="0.69642597"
       x2="0.26845378"
       y2="-1.0803123"
       gradientTransform="scale(1.040112,0.961435)" />
    <linearGradient
       xlink:href="#linearGradient1442"
       id="linearGradient1322"
       x1="-0.53984696"
       y1="1.5650734"
       x2="0.23441464"
       y2="-0.067819513"
       gradientTransform="scale(1.043053,0.958724)" />
    <linearGradient
       xlink:href="#linearGradient1442"
       id="linearGradient1323"
       x1="2.6797149"
       y1="0.43877265"
       x2="-6.2116466"
       y2="0.73128694"
       gradientTransform="scale(1.043053,0.958724)" />
    <linearGradient
       xlink:href="#linearGradient1442"
       id="linearGradient1324"
       x1="0.79645890"
       y1="-0.62550104"
       x2="1.6490049"
       y2="-2.4234934"
       gradientTransform="scale(0.852004,1.173704)" />
    <linearGradient
       xlink:href="#linearGradient1442"
       id="linearGradient1325"
       x1="0.81978983"
       y1="0.35173467"
       x2="1.6723356"
       y2="-1.4462572"
       gradientTransform="scale(0.852004,1.173704)" />
    <linearGradient
       xlink:href="#linearGradient1442"
       id="linearGradient1326"
       x1="0.85478634"
       y1="1.3289704"
       x2="1.7073323"
       y2="-0.46902162"
       gradientTransform="scale(0.852004,1.173704)" />
    <linearGradient
       xlink:href="#linearGradient1442"
       id="linearGradient1327"
       x1="0.87563705"
       y1="2.2054522"
       x2="1.7281830"
       y2="0.40746030"
       gradientTransform="scale(0.852004,1.173704)" />
    <linearGradient
       xlink:href="#linearGradient1212"
       id="linearGradient1328"
       x1="-0.17253505"
       y1="-0.91981190"
       x2="1.1302818"
       y2="1.2075477" />
    <linearGradient
       xlink:href="#linearGradient1212"
       id="linearGradient1329"
       x1="1.2323945"
       y1="1.4123229"
       x2="0.22887337"
       y2="-0.15165898" />
    <linearGradient
       xlink:href="#linearGradient1296"
       id="linearGradient1331"
       x1="1.2314318"
       y1="0.22426015"
       x2="0.60728145"
       y2="0.77628511"
       gradientTransform="scale(1.043672,0.958155)" />
    <linearGradient
       xlink:href="#linearGradient1296"
       id="linearGradient1333"
       x1="1.2692307"
       y1="0.54081631"
       x2="0.26923078"
       y2="0.53571427" />
    <linearGradient
       xlink:href="#linearGradient1296"
       id="linearGradient1347"
       x1="-0.50000000"
       y1="0.99489796"
       x2="0.55882353"
       y2="0.38775510" />
    <linearGradient
       xlink:href="#linearGradient1212"
       id="linearGradient1348"
       x1="1.0050000"
       y1="1.0089686"
       x2="-0.094999999"
       y2="-0.16143498" />
    <linearGradient
       xlink:href="#linearGradient1212"
       id="linearGradient1349"
       x1="0.86776900"
       y1="0.62361544"
       x2="-0.045454353"
       y2="-0.26568368" />
    <linearGradient
       xlink:href="#linearGradient1212"
       id="linearGradient1350"
       x1="-1.8230093"
       y1="-1.9687501"
       x2="2.0530977"
       y2="2.7812512" />
    <linearGradient
       xlink:href="#linearGradient1212"
       id="linearGradient1351"
       x1="-0.73451322"
       y1="-1.9687515"
       x2="1.7787617"
       y2="2.4687495" />
    <linearGradient
       xlink:href="#linearGradient1442"
       id="linearGradient1353" />
    <linearGradient
       xlink:href="#linearGradient1442"
       id="linearGradient1441"
       x1="0.77464789"
       y1="1.4132652"
       x2="0.55985916"
       y2="-0.025510244" />
  </defs>
  <sodipodi:namedview
     id="base"
     pagecolor="#ffffff"
     bordercolor="#666666"
     borderopacity="1.0"
     inkscape:pageopacity="0.0"
     inkscape:pageshadow="2"
     inkscape:zoom="1.7649173"
     inkscape:cx="64.843610"
     inkscape:cy="60.333726"
     inkscape:window-width="453"
     inkscape:window-height="544"
     inkscape:window-x="18"
     inkscape:window-y="86"
     showborder="false" />
  <text
     xml:space="preserve"
     style="fill:black;fill-opacity:1;stroke:none;font-family:helvetica;font-style:normal;font-weight:normal;font-size:12px;stroke-opacity:1;stroke-width:1pt;stroke-linejoin:miter;stroke-linecap:butt;"
     x="-22.260657"
     y="-12.954206"
     id="text1232"><tspan
       id="tspan1233">Phone</tspan></text>
  <text
     xml:space="preserve"
     style="fill:black;fill-opacity:1;stroke:none;font-family:helvetica;font-style:normal;font-weight:normal;font-size:12px;stroke-opacity:1;stroke-width:1pt;stroke-linejoin:miter;stroke-linecap:butt;"
     x="-30.572827"
     y="-28.034109"
     id="text1235"
     transform="scale(0.246729,0.246729)"><tspan
       id="tspan1236">Created by Andrew Fitzsimon</tspan></text>
  <g
     id="g1373"
     transform="matrix(0.728681,0.000000,0.000000,0.680147,102.5877,44.97297)"
     style="fill:url(#linearGradient1315);">
    <path
       style="fill:url(#linearGradient1315);fill-opacity:0.14876033;fill-rule:evenodd;stroke:none;stroke-width:1.0000000pt;stroke-opacity:1.0000000;"
       d="M -57.257363,-23.679543 C -30.985268,-26.918569 -3.8734334,-20.200589 0.32530661,13.389305 C 4.5240466,46.619308 -0.87432339,103.36224 -7.2324134,127.11509 C -13.590500,150.86794 -27.506314,152.66741 -38.542994,153.74708 C -49.579673,154.82676 -63.975342,154.10697 -73.812383,132.15357 C -83.649423,110.20018 -93.966323,53.097358 -96.485563,26.345408 C -99.364693,-0.40653861 -83.529453,-19.720734 -57.257363,-23.679543 z "
       id="path1352"
       sodipodi:nodetypes="czzzzzz" />
    <path
       style="fill:url(#linearGradient1315);fill-opacity:0.14876033;fill-rule:evenodd;stroke:none;stroke-width:1.0000000pt;stroke-opacity:1.0000000;"
       d="M -56.843750 -22.000000 C -69.358918 -19.559475 -82.126228 -13.693529 -88.779901 -2.2575693 C -96.677330 9.8505674 -95.276599 25.106874 -93.092984 38.721683 C -89.406984 66.023373 -83.988306 93.142885 -76.429615 119.63611 C -73.161417 129.71742 -68.900772 140.26825 -60.521721 147.16441 C -52.554809 152.95541 -42.223201 152.85619 -32.932592 151.10772 C -24.297797 149.79201 -15.692828 144.65583 -12.797699 135.99478 C -6.9122162 124.19270 -5.9046551 110.81204 -3.8013236 97.982868 C -0.42265144 69.330099 1.5422251 40.232785 -1.8720113 11.500148 C -3.3725108 0.023496219 -9.5748596 -11.400412 -20.138828 -16.738456 C -31.439810 -22.459922 -44.430327 -23.155252 -56.843750 -22.000000 z "
       id="path1358" />
    <path
       style="fill:url(#linearGradient1315);fill-opacity:0.14876033;fill-rule:evenodd;stroke:none;stroke-width:1.0000000pt;stroke-opacity:1.0000000;"
       d="M -56.281250 -19.781250 C -68.195973 -16.431852 -81.416295 -11.630688 -87.412436 0.10944881 C -94.976687 13.202579 -91.976506 28.828729 -90.156563 43.005695 C -85.865929 70.817865 -80.431100 98.522772 -71.764296 125.33427 C -68.234585 134.05214 -63.451462 143.70553 -54.315249 147.57261 C -43.991116 150.79596 -32.326912 149.76262 -22.812500 144.62500 C -13.258266 137.57015 -11.755933 124.91235 -8.8750000 114.21875 C -5.5785178 94.857325 -3.6615364 75.236271 -2.9345474 55.611286 C -2.3636468 39.320412 -3.0232180 22.916349 -5.3895320 6.7938319 C -8.3088772 -5.8636194 -19.027320 -16.252285 -31.960687 -18.184399 C -39.891187 -20.511353 -48.135149 -19.833505 -56.281250 -19.781250 z "
       id="path1363" />
    <path
       style="fill:url(#linearGradient1315);fill-opacity:0.14876033;fill-rule:evenodd;stroke:none;stroke-width:1.0000000pt;stroke-opacity:1.0000000;"
       d="M -55.718750 -17.531250 C -66.316868 -13.794570 -78.603157 -10.147964 -84.622144 0.19650149 C -92.453133 12.945540 -89.568073 28.501771 -87.869091 42.504615 C -83.248196 71.272073 -77.458147 99.959498 -68.051832 127.58413 C -64.402686 135.86012 -58.551807 145.57918 -48.500000 146.21875 C -39.427613 147.64390 -29.611804 146.02571 -22.097416 140.65365 C -14.558483 132.19047 -12.881098 120.44880 -10.543423 109.75772 C -7.1036180 88.192591 -6.0951793 66.339884 -5.2706994 44.554551 C -5.8397454 30.144110 -5.2534142 15.272273 -9.9136067 1.4637816 C -15.309302 -11.113203 -29.514641 -17.341794 -42.615868 -17.295477 C -46.978286 -17.737373 -51.343115 -17.539903 -55.718750 -17.531250 z "
       id="path1372" />
  </g>
  <path
     style="fill:#4b6983;fill-rule:evenodd;stroke:#000000;stroke-width:1.0000000pt;stroke-opacity:0.041322295;fill-opacity:1.0000000;"
     d="M 52.184300,61.580269 C 78.456395,58.341243 105.56823,65.059223 109.76697,98.649117 C 113.96571,131.87912 108.56734,188.62205 102.20925,212.37490 C 95.851163,236.12775 81.935349,237.92722 70.898669,239.00689 C 59.861990,240.08657 45.466321,239.36678 35.629280,217.41338 C 25.792240,195.45999 15.475344,138.35717 12.956102,111.60522 C 10.076969,84.853273 25.912205,65.539078 52.184300,61.580269 z "
     id="path1203"
     sodipodi:nodetypes="czzzzzz"
     transform="matrix(0.728681,0.000000,0.000000,0.728681,27.06076,-26.49163)" />
  <path
     style="fill:#9db8d2;fill-rule:evenodd;stroke-width:1.0000000pt;fill-opacity:1.0000000;"
     d="M 56.135085,72.185314 C 86.112793,70.108295 107.63472,83.301883 108.91824,104.67167 C 110.56165,126.04146 108.69345,159.18450 105.86446,175.41763 C 103.39536,191.65076 80.585928,201.12030 67.183216,201.37478 C 53.780504,201.62926 29.065650,194.30293 25.448188,176.94452 C 21.110942,159.58611 15.987063,126.16943 14.250985,106.70752 C 12.514907,86.885718 26.517269,74.262333 56.135085,72.185314 z "
     id="path1209"
     sodipodi:nodetypes="czzzzzz"
     transform="matrix(0.728681,0.000000,0.000000,0.728681,27.06076,-26.49163)" />
  <path
     style="fill:url(#linearGradient1304);fill-opacity:0.75000000;fill-rule:evenodd;stroke-width:1.0000000pt;"
     d="M 24.430260,108.74338 C 25.278533,98.648931 27.144733,97.206868 36.645390,95.001358 C 46.146047,92.795848 71.424580,93.474467 81.434201,95.510322 C 91.443822,97.546177 94.073468,98.224797 96.703114,107.21649 C 99.332760,116.20818 99.163105,139.62051 97.212077,149.46048 C 95.261049,159.30045 93.140367,163.20250 84.996947,166.25628 C 76.853527,169.31006 57.258423,169.56455 48.351557,167.78318 C 39.444691,166.00181 35.542636,165.40802 31.555753,155.56805 C 27.568870,145.72808 23.581987,118.83783 24.430260,108.74338 z "
     id="path1204"
     sodipodi:nodetypes="czzzzzzzz"
     transform="matrix(0.728681,0.000000,0.000000,0.728681,27.06076,-26.49163)" />
  <path
     style="fill:url(#linearGradient1301);fill-opacity:0.75000000;fill-rule:evenodd;stroke:#000000;stroke-width:1.4573621;stroke-opacity:0.18181814;"
     d="M 52.396815,48.492896 C 51.082931,48.518917 49.704810,50.149239 49.800710,51.459873 L 52.025943,81.871397 C 52.123526,83.205029 52.914047,85.222754 54.251177,85.209244 L 90.967526,84.838375 C 92.191280,84.826016 93.563632,83.466086 93.563632,82.242266 L 93.563632,51.459873 C 93.563632,49.711564 91.602876,47.716537 89.854909,47.751149 L 52.396815,48.492896 z "
     id="path1205"
     sodipodi:nodetypes="czzzzzzzz" />
  <path
     style="fill:#565248;fill-opacity:1.0000000;fill-rule:evenodd;stroke:none;stroke-width:1.0000000pt;"
     d="M 65.910806,179.48934 C 74.605604,179.02279 80.204206,183.94278 79.907310,188.39621 C 79.864896,192.59516 74.860086,198.36341 67.183216,198.57548 C 59.506346,199.04203 53.653262,194.12205 53.695676,189.66862 C 53.738090,184.96071 57.470490,179.95589 65.910806,179.48934 z "
     id="path1207"
     sodipodi:nodetypes="czzzz"
     transform="matrix(0.728681,0.000000,0.000000,0.728681,27.06076,-26.49163)" />
  <path
     sodipodi:type="arc"
     style="fill-opacity:0.75000000;fill-rule:evenodd;stroke:url(#linearGradient1215);stroke-width:2.7500000;"
     id="path1211"
     sodipodi:cx="49.125221"
     sodipodi:cy="85.693016"
     sodipodi:rx="2.6991880"
     sodipodi:ry="2.6991880"
     d="M 51.824409 85.693016 A 2.6991880 2.6991880 0 1 0 46.426033,85.693016 A 2.6991880 2.6991880 0 1 0 51.824409 85.693016 z"
     transform="matrix(0.728681,0.000000,0.000000,0.728681,27.06076,-26.49163)" />
  <path
     sodipodi:type="arc"
     style="fill-opacity:0.75000000;fill-rule:evenodd;stroke:url(#linearGradient1215);stroke-width:2.7500000;"
     id="path1216"
     sodipodi:cx="49.125221"
     sodipodi:cy="85.693016"
     sodipodi:rx="2.6991880"
     sodipodi:ry="2.6991880"
     d="M 51.824409 85.693016 A 2.6991880 2.6991880 0 1 0 46.426033,85.693016 A 2.6991880 2.6991880 0 1 0 51.824409 85.693016 z"
     transform="matrix(0.728681,0.000000,0.000000,0.728681,35.32152,-26.62276)" />
  <path
     sodipodi:type="arc"
     style="fill-opacity:0.75000000;fill-rule:evenodd;stroke:url(#linearGradient1215);stroke-width:2.7500000;"
     id="path1217"
     sodipodi:cx="49.125221"
     sodipodi:cy="85.693016"
     sodipodi:rx="2.6991880"
     sodipodi:ry="2.6991880"
     d="M 51.824409 85.693016 A 2.6991880 2.6991880 0 1 0 46.426033,85.693016 A 2.6991880 2.6991880 0 1 0 51.824409 85.693016 z"
     transform="matrix(0.728681,0.000000,0.000000,0.728681,43.45113,-26.09826)" />
  <path
     style="fill:url(#linearGradient1299);fill-opacity:0.60416669;fill-rule:evenodd;stroke-width:1.0000000pt;"
     d="M 68.008877,143.83878 C 55.397757,140.13216 51.102083,119.17552 51.102083,119.17552 C 51.102083,119.17552 56.844932,133.39286 68.215616,136.76252 C 79.586297,139.79519 87.855884,135.41465 87.855884,135.41465 C 87.855884,135.41465 80.413256,147.54539 68.008877,143.83878 z "
     id="path2086"
     sodipodi:nodetypes="cczcz" />
  <path
     style="fill:#565248;fill-opacity:1.0000000;fill-rule:evenodd;stroke:none;stroke-width:1.0000000pt;"
     d="M 83.851779,177.83520 C 85.336256,176.98693 90.765203,176.90211 91.995199,179.61658 C 93.352436,182.71278 93.097954,187.42070 90.468308,188.77793 C 87.965903,190.13517 84.191088,186.53001 83.088333,184.70622 C 81.985578,182.88244 82.367301,178.68348 83.851779,177.83520 z "
     id="path1231"
     sodipodi:nodetypes="czzzz"
     transform="matrix(0.728681,0.000000,0.000000,0.728681,27.06076,-26.49163)" />
  <path
     style="fill:#565248;fill-opacity:1.0000000;fill-rule:evenodd;stroke:none;stroke-width:1.0000000pt;"
     d="M 48.819202,179.34798 C 47.334725,178.49971 41.905778,178.41489 40.675782,181.12936 C 39.318545,184.22556 39.573027,188.93348 42.202673,190.29071 C 44.705078,191.64795 48.479893,188.04279 49.582648,186.21900 C 50.685403,184.39522 50.303680,180.19626 48.819202,179.34798 z "
     id="path1293"
     sodipodi:nodetypes="czzzz"
     transform="matrix(0.728681,0.000000,0.000000,0.728681,27.06076,-26.49163)" />
  <path
     style="fill:url(#linearGradient1331);fill-opacity:0.75000000;fill-rule:evenodd;stroke-width:1.0000000pt;"
     d="M 77.016828,63.739620 C 98.970224,67.698429 106.44812,90.080954 106.44812,90.080954 C 106.44812,90.080954 96.450982,74.896263 76.656937,71.297345 C 56.862892,68.058320 42.467223,72.736913 42.467223,72.736913 C 42.467223,72.736913 55.423325,59.780811 77.016828,63.739620 z "
     id="path1330"
     sodipodi:nodetypes="cczcz"
     transform="matrix(0.728681,0.000000,0.000000,0.728681,27.06076,-26.49163)" />
  <path
     style="fill:url(#linearGradient1333);fill-opacity:0.75000000;fill-rule:evenodd;stroke-width:1.0000000pt;"
     d="M 104.72849,108.36619 C 105.80816,98.709098 106.82786,103.20774 109.04719,112.68489 C 111.26652,122.52193 110.48676,152.69285 107.24773,163.06973 C 104.36860,173.44661 102.98901,179.74472 102.56914,170.62746 C 102.14927,161.51020 103.64882,118.02328 104.72849,108.36619 z "
     id="path1332"
     sodipodi:nodetypes="czzzz"
     transform="matrix(0.728681,0.000000,0.000000,0.728681,27.06076,-26.49163)" />
  <path
     style="fill:url(#linearGradient1347);fill-opacity:0.75000000;fill-rule:evenodd;stroke-width:1.0000000pt;"
     d="M 25.595089,137.14488 C 24.515419,127.48779 23.495719,131.98643 21.276389,141.46358 C 19.057059,151.30062 21.363710,162.13092 24.602740,172.50780 C 27.481870,182.88468 28.861460,189.18279 29.281330,180.06553 C 29.701200,170.94827 26.674759,146.80197 25.595089,137.14488 z "
     id="path1346"
     sodipodi:nodetypes="czzzz"
     transform="matrix(0.728681,0.000000,0.000000,0.728681,27.06076,-26.49163)" />
  <path
     style="fill:url(#linearGradient1295);fill-opacity:0.75000000;fill-rule:evenodd;stroke-width:1.0000000pt;"
     d="M 50.479967,56.264897 C 49.429684,42.127572 52.844607,64.333081 73.008386,65.422658 C 92.699237,66.512235 93.178453,78.401437 91.959117,78.444984 L 52.233161,79.863768 L 50.479967,56.264897 z "
     id="path2087"
     sodipodi:nodetypes="czzcz" />
  <path
     style="fill:url(#linearGradient1331);fill-opacity:0.75000000;fill-rule:evenodd;stroke-width:1.0000000pt;"
     d="M 83.739805,28.801856 C 99.736830,31.686565 105.18583,47.996285 105.18583,47.996285 C 105.18583,47.996285 97.901104,36.931489 83.477559,34.309026 C 69.054015,31.948810 58.564164,35.358012 58.564164,35.358012 C 58.564164,35.358012 68.005029,25.917147 83.739805,28.801856 z "
     id="path1529"
     sodipodi:nodetypes="cczcz" />
  <path
     style="fill:url(#linearGradient1300);fill-opacity:0.69421488;fill-rule:evenodd;stroke:none;stroke-width:0.90168543pt;"
     d="M 97.437500 118.68750 C 96.752826 118.58979 95.947168 118.74487 95.375000 118.90625 L 90.250000 120.34375 C 89.054246 120.68101 87.709564 121.77639 87.906250 123.21875 C 88.102935 124.52998 89.689203 124.45317 90.656250 124.28125 L 96.562500 123.21875 C 97.863490 122.98746 99.109060 121.57653 98.781250 119.93750 C 98.682908 119.11798 98.122174 118.78521 97.437500 118.68750 z M 56.656250 120.28125 C 55.971577 120.37896 55.410842 120.71173 55.312500 121.53125 C 54.984691 123.17028 56.261510 124.58121 57.562500 124.81250 L 63.437500 125.87500 C 64.404547 126.04692 66.022065 126.12373 66.218750 124.81250 C 66.415433 123.37014 65.039504 122.27476 63.843750 121.93750 L 58.718750 120.50000 C 58.146585 120.33862 57.340923 120.18354 56.656250 120.28125 z M 76.968750 121.87500 C 75.575567 121.85588 74.174198 121.89706 73.343750 122.09375 C 71.682857 122.48712 70.628276 123.38197 70.781250 124.12500 C 70.671981 124.73691 71.114020 125.60642 72.687500 125.78125 C 74.260977 125.95608 79.492294 125.87152 81.218750 125.50000 C 82.945204 125.12848 83.106206 124.75506 83.062500 123.53125 C 82.887669 122.30744 82.179684 122.33414 80.562500 122.09375 C 79.753907 121.97355 78.361933 121.89412 76.968750 121.87500 z M 96.843750 124.65625 C 96.159077 124.55854 95.353416 124.71362 94.781250 124.87500 L 89.687500 126.31250 C 88.491746 126.64976 87.115818 127.77638 87.312500 129.21875 C 87.509185 130.52998 89.095457 130.42192 90.062500 130.25000 L 95.968750 129.21875 C 97.269740 128.98746 98.515305 127.57654 98.187500 125.93750 C 98.089158 125.11798 97.528423 124.75396 96.843750 124.65625 z M 57.437500 126.06250 C 56.752827 126.16021 56.192092 126.49298 56.093750 127.31250 C 55.765941 128.95154 57.011510 130.36246 58.312500 130.59375 L 64.218750 131.65625 C 65.185797 131.82817 66.772065 131.90498 66.968750 130.59375 C 67.165436 129.15139 65.820754 128.05601 64.625000 127.71875 L 59.500000 126.28125 C 58.927834 126.11987 58.122173 125.96479 57.437500 126.06250 z M 77.218750 126.90625 C 75.825566 126.88713 74.424195 126.95957 73.593750 127.15625 C 71.932857 127.54962 70.878269 128.44446 71.031250 129.18750 C 70.921981 129.79941 71.364021 130.63767 72.937500 130.81250 C 74.510977 130.98733 79.711045 130.93402 81.437500 130.56250 C 83.163954 130.19098 83.324957 129.81756 83.281250 128.59375 C 83.106419 127.36994 82.398436 127.39664 80.781250 127.15625 C 79.972657 127.03605 78.611934 126.92537 77.218750 126.90625 z M 95.906250 130.50000 C 95.275076 130.41049 94.558707 130.53967 94.031250 130.68750 L 89.312500 132.03125 C 88.210181 132.34020 86.943685 133.33499 87.125000 134.65625 C 87.306316 135.85741 88.764765 135.78248 89.656250 135.62500 L 95.093750 134.65625 C 96.293082 134.44438 97.458447 133.15769 97.156250 131.65625 C 97.065592 130.90553 96.537424 130.58951 95.906250 130.50000 z M 59.593750 132.00000 C 58.967926 132.09361 58.433640 132.43363 58.343750 133.21875 C 58.044118 134.78898 59.217083 136.12217 60.406250 136.34375 L 65.781250 137.34375 C 66.665173 137.50845 68.132721 137.59995 68.312500 136.34375 C 68.492279 134.96194 67.249226 133.91685 66.156250 133.59375 L 61.468750 132.21875 C 60.945763 132.06414 60.219574 131.90639 59.593750 132.00000 z M 77.593750 132.56250 C 76.200567 132.54338 74.799198 132.58457 73.968750 132.78125 C 72.307857 133.17462 71.253275 134.06947 71.406250 134.81250 C 71.296981 135.42441 71.739019 136.29392 73.312500 136.46875 C 74.885977 136.64358 80.117293 136.59026 81.843750 136.21875 C 83.570204 135.84723 83.731205 135.47382 83.687500 134.25000 C 83.512669 133.02619 82.804684 133.02165 81.187500 132.78125 C 80.378907 132.66105 78.986933 132.58162 77.593750 132.56250 z M 95.218750 135.84375 C 94.625026 135.75697 93.933661 135.88794 93.437500 136.03125 L 89.000000 137.31250 C 87.963084 137.61202 86.766943 138.59410 86.937500 139.87500 C 87.108058 141.03946 88.505166 140.96518 89.343750 140.81250 L 94.437500 139.87500 C 95.565673 139.66960 96.659264 138.42432 96.375000 136.96875 C 96.289721 136.24097 95.812474 135.93053 95.218750 135.84375 z M 60.843750 137.53125 C 60.196526 137.61529 59.655463 137.88890 59.562500 138.59375 C 59.252623 140.00345 60.426420 141.23857 61.656250 141.43750 L 67.250000 142.34375 C 68.164150 142.49162 69.657823 142.56527 69.843750 141.43750 C 70.029675 140.19696 68.755350 139.22757 67.625000 138.93750 L 62.781250 137.71875 C 62.240380 137.57995 61.490974 137.44721 60.843750 137.53125 z M 77.875000 138.18750 C 76.481817 138.16838 75.080448 138.24081 74.250000 138.43750 C 72.589107 138.83087 71.534526 139.72571 71.687500 140.46875 C 71.578231 141.08066 72.020270 141.91891 73.593750 142.09375 C 75.167227 142.26858 80.367294 142.21527 82.093750 141.84375 C 83.820204 141.47223 83.981206 141.09881 83.937500 139.87500 C 83.762669 138.65119 83.054684 138.67789 81.437500 138.43750 C 80.628907 138.31730 79.268183 138.20662 77.875000 138.18750 z "
     id="path936" />
  <path
     style="fill:url(#linearGradient1302);fill-rule:evenodd;stroke-width:1.0000000pt;"
     d="M 74.920648,105.72348 C 79.847379,105.45911 83.019713,108.24692 82.851483,110.77037 C 82.827449,113.14962 79.991575,116.41808 75.641633,116.53824 C 71.291691,116.80261 67.975159,114.01480 67.999192,111.49135 C 68.023225,108.82371 70.138114,105.98783 74.920648,105.72348 z "
     id="path1655"
     sodipodi:nodetypes="czzzz" />
  <path
     style="fill:url(#linearGradient1302);fill-rule:evenodd;stroke-width:1.0000000pt;"
     d="M 59.746267,105.50649 C 61.933130,105.34820 63.341255,107.01741 63.266583,108.52835 C 63.255915,109.95294 61.997135,111.90995 60.066295,111.98189 C 58.135457,112.14018 56.663324,110.47097 56.673991,108.96005 C 56.684659,107.36278 57.623410,105.66478 59.746267,105.50649 z "
     id="path1656"
     sodipodi:nodetypes="czzzz" />
  <path
     style="fill:url(#linearGradient1302);fill-rule:evenodd;stroke-width:1.0000000pt;"
     d="M 90.671117,103.67672 C 92.857980,103.51843 94.266105,105.18764 94.191433,106.69858 C 94.180765,108.12317 92.921985,110.08018 90.991145,110.15212 C 89.060307,110.31041 87.588174,108.64120 87.598841,107.13028 C 87.609509,105.53301 88.548260,103.83501 90.671117,103.67672 z "
     id="path1657"
     sodipodi:nodetypes="czzzz" />
</svg>
