<?xml version="1.0" encoding="UTF-8" standalone="no"?>
<!-- Created with Inkscape (http://www.inkscape.org/) -->
<svg
   xmlns:dc="http://purl.org/dc/elements/1.1/"
   xmlns:cc="http://web.resource.org/cc/"
   xmlns:rdf="http://www.w3.org/1999/02/22-rdf-syntax-ns#"
   xmlns:svg="http://www.w3.org/2000/svg"
   xmlns="http://www.w3.org/2000/svg"
   xmlns:xlink="http://www.w3.org/1999/xlink"
   xmlns:sodipodi="http://inkscape.sourceforge.net/DTD/sodipodi-0.dtd"
   xmlns:inkscape="http://www.inkscape.org/namespaces/inkscape"
   sodipodi:docname="gtk-underline.svg"
   sodipodi:docbase="/home/david/.icons/eXperience/normal/stock"
   inkscape:version="0.41+cvs"
   sodipodi:version="0.32"
   id="svg3076"
   height="48.000000pt"
   width="48.000000pt">
  <defs
     id="defs3">
    <linearGradient
       spreadMethod="pad"
       gradientUnits="objectBoundingBox"
       id="linearGradient741"
       y2="0"
       x2="1"
       y1="0"
       x1="0">
      <stop
         id="stop743"
         offset="0"
         style="stop-color:#ffffff;stop-opacity:1.0000;" />
      <stop
         id="stop742"
         offset="1"
         style="stop-color:#cacac5;stop-opacity:1.0000;" />
    </linearGradient>
    <linearGradient
       id="linearGradient774">
      <stop
         id="stop776"
         style="stop-color:#000000;stop-opacity:1.0000;"
         offset="0" />
      <stop
         id="stop775"
         style="stop-color:#005dfa;stop-opacity:1.0000;"
         offset="1" />
    </linearGradient>
    <linearGradient
       id="linearGradient770">
      <stop
         id="stop772"
         style="stop-color:#002aff;stop-opacity:1.0000;"
         offset="0" />
      <stop
         id="stop771"
         style="stop-color:#ffffff;stop-opacity:1.0000;"
         offset="1" />
    </linearGradient>
    <linearGradient
       y2="-5106.7124"
       x2="-7692.7061"
       y1="29580.398"
       x1="24197.057"
       gradientUnits="userSpaceOnUse"
       id="linearGradient2137"
       xlink:href="#linearGradient770"
       inkscape:collect="always" />
    <linearGradient
       spreadMethod="pad"
       gradientUnits="objectBoundingBox"
       id="linearGradient1669"
       y2="0"
       x2="1"
       y1="0"
       x1="0">
      <stop
         id="stop1670"
         offset="0.000000"
         style="stop-color:#ffffff;stop-opacity:1;" />
      <stop
         id="stop1671"
         offset="1.000000"
         style="stop-color:#ffffff;stop-opacity:0;" />
    </linearGradient>
    <linearGradient
       inkscape:collect="always"
       xlink:href="#linearGradient770"
       id="linearGradient2133"
       gradientUnits="userSpaceOnUse"
       x1="24197.057"
       y1="29580.398"
       x2="-7692.7061"
       y2="-5106.7124" />
    <linearGradient
       inkscape:collect="always"
       xlink:href="#linearGradient770"
       id="linearGradient2135"
       gradientUnits="userSpaceOnUse"
       x1="24197.057"
       y1="29580.398"
       x2="-7692.7061"
       y2="-5106.7124" />
    <linearGradient
       inkscape:collect="always"
       xlink:href="#linearGradient1669"
       id="linearGradient2142"
       gradientUnits="userSpaceOnUse"
       x1="2098.0107"
       y1="-1749.8955"
       x2="12448.197"
       y2="14474.721"
       gradientTransform="scale(2.000000e-3,2.000000e-3)" />
    <linearGradient
       inkscape:collect="always"
       xlink:href="#linearGradient774"
       id="linearGradient2148"
       gradientUnits="userSpaceOnUse"
       gradientTransform="scale(1.872832e-3,2.135802e-3)"
       x1="46601.750"
       y1="47345.684"
       x2="597.45831"
       y2="-4389.0869" />
    <radialGradient
       inkscape:collect="always"
       xlink:href="#linearGradient741"
       id="radialGradient2151"
       gradientUnits="userSpaceOnUse"
       spreadMethod="pad"
       cx="2677.0000"
       cy="2676.9990"
       fx="2677.0000"
       fy="2676.9990"
       r="56101.468750"
       gradientTransform="scale(2.000000e-3,2.000000e-3)" />
  </defs>
  <sodipodi:namedview
     inkscape:window-y="19"
     inkscape:window-x="1"
     inkscape:window-height="511"
     inkscape:window-width="721"
     gridtolerance="0.32000000pt"
     inkscape:current-layer="layer1"
     inkscape:document-units="pt"
     inkscape:cy="520.00000"
     inkscape:cx="375.00000"
     inkscape:zoom="0.35000000"
     inkscape:pageshadow="2"
     inkscape:pageopacity="0.0"
     borderopacity="1.0"
     bordercolor="#666666"
     pagecolor="#ffffff"
     id="base" />
  <metadata
     id="metadata4">
    <rdf:RDF
       id="RDF5">
      <cc:Work
         id="Work6"
         rdf:about="">
        <dc:format
           id="format7">image/svg+xml</dc:format>
        <dc:type
           rdf:resource="http://purl.org/dc/dcmitype/StillImage"
           id="type9" />
      </cc:Work>
    </rdf:RDF>
  </metadata>
  <g
     id="layer1"
     inkscape:groupmode="layer"
     inkscape:label="Layer 1">
    <path
       id="path631"
       style="font-size:12.000000;fill:#8b8d8d;fill-opacity:1.0000000"
       d="M 7.5880000,3.7000000 L 52.412000,3.7000000 C 54.552000,3.7000000 56.300000,5.4480000 56.300000,7.5880000 L 56.300000,52.412000 C 56.300000,54.552000 54.552000,56.300000 52.412000,56.300000 L 7.5880000,56.300000 C 5.4480000,56.300000 3.7000000,54.552000 3.7000000,52.412000 L 3.7000000,7.5880000 C 3.7000000,5.4480000 5.4480000,3.7000000 7.5880000,3.7000000 z " />
    <path
       id="path632"
       style="font-size:12.000000;fill:url(#radialGradient2151)"
       d="M 7.9500000,5.3539980 L 52.050000,5.3539980 C 53.478000,5.3539980 54.646000,6.5219980 54.646000,7.9499980 L 54.646000,52.050000 C 54.646000,53.478000 53.478000,54.646000 52.050000,54.646000 L 7.9500000,54.646000 C 6.5220000,54.646000 5.3540000,53.478000 5.3540000,52.050000 L 5.3540000,7.9499980 C 5.3540000,6.5219980 6.5220000,5.3539980 7.9500000,5.3539980 z " />
    <path
       style="font-size:12.000000;fill:url(#linearGradient2148);fill-opacity:1.0000000;fill-rule:evenodd"
       id="path770"
       d="M 31.729220,41.487540 L 31.508060,41.508240 L 31.282760,41.525980 L 31.050520,41.536340 L 30.823840,41.540780 L 30.587460,41.536340 L 30.342800,41.525980 L 30.105060,41.509720 L 29.872840,41.487540 L 29.647520,41.460940 L 29.429120,41.429880 L 29.217640,41.392920 L 29.011680,41.350040 L 28.809860,41.302720 L 28.619120,41.252460 L 28.432500,41.196280 L 28.252800,41.134180 L 28.077260,41.069120 L 27.910000,40.999620 L 27.746900,40.927180 L 27.589320,40.847340 L 27.437260,40.764540 L 27.292120,40.678780 L 27.151140,40.588600 L 27.015680,40.493960 L 26.884360,40.394900 L 26.758580,40.292880 L 26.636940,40.184940 L 26.519440,40.072580 L 26.404720,39.954300 L 26.295520,39.834540 L 26.189080,39.707380 L 26.085400,39.574320 L 25.985880,39.436800 L 25.890500,39.293380 L 25.797900,39.144060 L 25.695600,38.965140 L 25.590560,38.780340 L 25.497940,38.608820 L 25.408100,38.432880 L 25.319620,38.251020 L 25.233920,38.064720 L 25.152380,37.875460 L 25.073580,37.680300 L 24.997560,37.479220 L 24.922920,37.272220 L 24.852420,37.063740 L 24.784680,36.849360 L 24.719720,36.627580 L 24.657520,36.402840 L 24.598080,36.173660 L 24.542780,35.938560 L 24.490260,35.697560 L 24.440500,35.452120 L 24.393500,35.202260 L 24.350660,34.947940 L 24.310560,34.686240 L 24.274620,34.420100 L 24.240080,34.149540 L 24.211040,33.874520 L 24.183400,33.592120 L 24.159900,33.306760 L 24.140540,33.016960 L 24.123960,32.719780 L 24.110140,32.418160 L 24.100460,32.112100 L 24.093560,31.801600 L 24.092160,31.486680 L 24.092160,31.154000 L 24.092160,21.488760 L 24.089400,21.071800 L 24.089400,20.687380 L 24.092160,20.322180 L 24.097700,19.976200 L 24.107380,19.650920 L 24.121200,19.343380 L 24.136400,19.059500 L 24.155760,18.793370 L 24.176480,18.549410 L 24.199980,18.329106 L 24.226240,18.132460 L 24.252520,17.956514 L 24.281540,17.805702 L 24.307800,17.684462 L 24.332680,17.592792 L 24.350660,17.538086 L 24.350660,17.538086 L 24.379680,17.523300 L 24.426680,17.505558 L 24.490260,17.486336 L 24.571820,17.467116 L 24.669960,17.449372 L 24.786060,17.436066 L 24.917380,17.427194 L 25.159280,17.421280 L 26.725400,17.240898 L 27.206420,16.684966 L 27.351560,16.460226 L 27.462140,16.234010 L 27.542320,16.004834 L 27.594840,15.788968 L 27.628020,15.586406 L 27.647380,15.389760 L 27.654280,15.102922 L 27.614200,14.810170 L 27.568580,14.597260 L 27.500860,14.372522 L 27.398560,14.130040 L 27.252040,13.881644 L 27.057140,13.640642 L 26.811100,13.429210 L 26.291360,13.124630 L 25.543560,13.160116 L 25.209040,13.174900 L 24.877300,13.189686 L 24.549700,13.202994 L 24.226240,13.214822 L 23.906940,13.225172 L 23.591780,13.235522 L 23.278000,13.244392 L 22.971140,13.251786 L 22.667040,13.257700 L 22.367100,13.263614 L 22.069900,13.269528 L 21.776860,13.272484 L 21.487960,13.275442 L 21.203220,13.276920 L 20.921240,13.276920 L 20.646160,13.276920 L 20.368320,13.275442 L 20.083580,13.272484 L 19.794682,13.269528 L 19.498876,13.263614 L 19.198924,13.257700 L 18.894824,13.251786 L 18.585194,13.244392 L 18.268654,13.235522 L 17.949348,13.225172 L 17.624514,13.214822 L 17.294152,13.202994 L 16.958260,13.189686 L 16.618220,13.174900 L 16.272652,13.160116 L 15.527606,13.126108 L 14.994050,13.426254 L 14.720360,13.668734 L 14.508872,13.954094 L 14.365116,14.242410 L 14.275268,14.515940 L 14.226888,14.762858 L 14.203390,14.986118 L 14.200626,15.064480 L 14.190950,15.145800 L 14.179892,15.374974 L 14.192332,15.623370 L 14.232418,15.882116 L 14.308442,16.157124 L 14.431464,16.433612 L 14.600102,16.698272 L 15.099102,17.245334 L 16.694246,17.421280 L 16.930614,17.427194 L 17.061930,17.436066 L 17.176658,17.449372 L 17.274800,17.467116 L 17.356354,17.486336 L 17.421320,17.505558 L 17.469700,17.524778 L 17.501492,17.539564 L 17.515314,17.546956 L 17.520844,17.567656 L 17.545724,17.665240 L 17.571988,17.789438 L 17.598252,17.940250 L 17.624514,18.117674 L 17.649396,18.317278 L 17.671512,18.542016 L 17.692246,18.785976 L 17.708834,19.052120 L 17.724038,19.338960 L 17.736478,19.646480 L 17.744772,19.973240 L 17.750302,20.320700 L 17.754448,20.685900 L 17.753066,21.071800 L 17.750302,21.490240 L 17.750302,32.045560 L 17.750302,32.539400 L 17.757212,33.034700 L 17.771036,33.519680 L 17.791770,33.997240 L 17.819414,34.464460 L 17.853972,34.922800 L 17.894058,35.375240 L 17.942438,35.815860 L 17.997728,36.249060 L 18.059930,36.674880 L 18.127662,37.091840 L 18.205070,37.499920 L 18.289388,37.899120 L 18.380618,38.290940 L 18.478758,38.673880 L 18.586576,39.047940 L 18.699922,39.413140 L 18.822944,39.770960 L 18.952878,40.119900 L 19.091106,40.459960 L 19.237626,40.791160 L 19.393824,41.114960 L 19.558314,41.428400 L 19.731098,41.732980 L 19.912176,42.027220 L 20.104320,42.314060 L 20.303360,42.590540 L 20.512080,42.855200 L 20.729100,43.110980 L 20.955800,43.356420 L 21.190780,43.588560 L 21.445120,43.820680 L 21.702220,44.026200 L 21.942740,44.208060 L 22.186020,44.382540 L 22.433440,44.548140 L 22.683640,44.706340 L 22.936580,44.855680 L 23.195080,44.997620 L 23.409320,45.105540 L 23.619440,45.225300 L 23.883440,45.362820 L 24.151600,45.489960 L 24.423920,45.608240 L 24.698980,45.717660 L 24.979580,45.818200 L 25.264340,45.909880 L 25.528340,45.985280 L 25.785460,46.059200 L 26.057760,46.133140 L 26.332840,46.202620 L 26.606520,46.264720 L 26.880220,46.323860 L 27.156660,46.377100 L 27.433120,46.424400 L 27.710960,46.467280 L 27.987420,46.505720 L 28.266640,46.538260 L 28.545860,46.564860 L 28.825060,46.587040 L 29.105680,46.604780 L 29.386280,46.618100 L 29.666880,46.625480 L 29.955760,46.626960 L 30.288900,46.621060 L 30.615120,46.607740 L 30.937180,46.587040 L 31.257860,46.560440 L 31.574400,46.526420 L 31.888180,46.485020 L 32.199200,46.436240 L 32.506060,46.380040 L 32.810160,46.317960 L 33.110120,46.248460 L 33.407300,46.171580 L 33.701720,46.085820 L 33.992000,45.995620 L 34.278140,45.895080 L 34.561500,45.790120 L 34.842100,45.676260 L 35.117180,45.555020 L 35.389480,45.426380 L 35.657640,45.290360 L 35.921660,45.148420 L 36.181520,44.997620 L 36.438620,44.839400 L 36.690200,44.675280 L 36.937620,44.502300 L 37.180900,44.324880 L 37.420040,44.138580 L 37.653640,43.944880 L 37.884480,43.745280 L 38.109800,43.538280 L 38.330960,43.323900 L 38.546600,43.105080 L 38.791260,42.843380 L 39.049740,42.512180 L 39.272280,42.209080 L 39.487920,41.897100 L 39.693880,41.577740 L 39.888780,41.252460 L 40.076760,40.919780 L 40.253700,40.579720 L 40.422340,40.233740 L 40.581300,39.881840 L 40.730580,39.521080 L 40.870200,39.155880 L 41.001500,38.783280 L 41.123140,38.404780 L 41.235120,38.020360 L 41.337400,37.630020 L 41.435540,37.213080 L 41.508800,36.810920 L 41.572380,36.436840 L 41.631820,36.064240 L 41.687120,35.690180 L 41.738260,35.313140 L 41.783880,34.936120 L 41.825340,34.559080 L 41.864040,34.179100 L 41.897220,33.797640 L 41.926240,33.416180 L 41.949740,33.034700 L 41.970480,32.651760 L 41.985680,32.265860 L 41.996740,31.881440 L 42.003660,31.495540 L 42.006420,31.111120 L 42.006420,26.041200 L 42.006420,25.779500 L 42.007800,25.511880 L 42.009180,25.238340 L 42.011960,24.958900 L 42.013340,24.673540 L 42.017480,24.382260 L 42.021620,24.083600 L 42.025780,23.779020 L 42.031300,23.468520 L 42.036840,23.152120 L 42.042360,22.829800 L 42.049280,22.500080 L 42.057560,22.165920 L 42.064480,21.824380 L 42.072780,21.476920 L 42.079680,21.198960 L 42.092120,21.104340 L 42.111480,20.923960 L 42.130820,20.743560 L 42.148800,20.560220 L 42.164000,20.378360 L 42.177820,20.197980 L 42.188880,20.016120 L 42.201320,19.804700 L 42.202700,19.622840 L 42.205460,19.497160 L 42.211000,19.374440 L 42.217900,19.256160 L 42.227580,19.140820 L 42.238640,19.029940 L 42.251080,18.924960 L 42.277340,18.741620 L 42.288400,18.559760 L 42.298080,18.469568 L 42.307760,18.382334 L 42.320200,18.299536 L 42.332640,18.224130 L 42.346460,18.154638 L 42.361660,18.089582 L 42.383780,18.003826 L 42.412800,17.894414 L 42.440460,17.783524 L 42.465340,17.672632 L 42.488840,17.567656 L 42.566240,17.538086 L 42.656080,17.511472 L 42.752840,17.486336 L 42.856520,17.464158 L 42.971240,17.446416 L 43.094260,17.431630 L 43.272580,17.416844 L 44.816580,17.239420 L 45.285180,16.684966 L 45.415100,16.495712 L 45.527060,16.290194 L 45.618300,16.072848 L 45.686040,15.852544 L 45.733020,15.632242 L 45.759300,15.411938 L 45.771740,15.095530 L 45.721960,14.780600 L 45.666680,14.554382 L 45.585120,14.320772 L 45.470400,14.082728 L 45.319720,13.853552 L 45.138660,13.645078 L 44.934080,13.466174 L 44.401900,13.114280 L 43.699700,13.163072 L 43.460580,13.176380 L 43.218680,13.191164 L 42.972620,13.202994 L 42.723820,13.214822 L 42.473620,13.225172 L 42.219300,13.235522 L 41.960800,13.244392 L 41.700940,13.251786 L 41.438300,13.257700 L 41.171520,13.263614 L 40.901980,13.269528 L 40.629680,13.272484 L 40.354600,13.275442 L 40.076760,13.276920 L 39.796160,13.276920 L 39.508660,13.276920 L 39.221140,13.275442 L 38.935020,13.272484 L 38.650260,13.269528 L 38.365520,13.263614 L 38.082140,13.257700 L 37.800160,13.251786 L 37.518180,13.244392 L 37.234820,13.235522 L 36.954220,13.225172 L 36.675000,13.214822 L 36.395780,13.202994 L 36.116560,13.189686 L 35.840100,13.176380 L 35.563640,13.161594 L 34.804780,13.115760 L 34.264320,13.498702 L 34.061120,13.692392 L 33.884180,13.918608 L 33.743200,14.165526 L 33.640900,14.422792 L 33.574560,14.678580 L 33.540000,14.922540 L 33.535860,15.039346 L 33.526180,15.144322 L 33.522040,15.349840 L 33.534480,15.568664 L 33.567640,15.787488 L 33.620180,16.009270 L 33.696200,16.231052 L 33.794340,16.445440 L 34.254640,17.227590 L 35.989380,17.416844 L 36.167700,17.434588 L 36.307320,17.452330 L 36.431720,17.474508 L 36.542300,17.496686 L 36.640440,17.523300 L 36.723380,17.546956 L 36.792480,17.573570 L 36.846400,17.595748 L 36.885100,17.616448 L 36.893400,17.620884 L 36.912740,17.669676 L 36.952840,17.796830 L 36.994300,17.941728 L 37.037160,18.104368 L 37.078620,18.284750 L 37.117320,18.482876 L 37.157400,18.695786 L 37.193340,18.924960 L 37.227900,19.170400 L 37.259700,19.430620 L 37.291480,19.707100 L 37.317760,19.996900 L 37.344020,20.301480 L 37.366140,20.622320 L 37.385480,20.935780 L 37.402080,21.618860 L 37.408980,21.967800 L 37.417280,22.310820 L 37.424180,22.650900 L 37.429720,22.983560 L 37.435240,23.311800 L 37.440780,23.635600 L 37.444920,23.953480 L 37.449060,24.268420 L 37.453220,24.577440 L 37.454600,24.880540 L 37.457360,25.177720 L 37.458740,25.471960 L 37.460120,25.758800 L 37.461500,26.042680 L 37.461500,31.198360 L 37.461500,31.511800 L 37.458740,31.809000 L 37.451840,32.104700 L 37.442160,32.394500 L 37.428340,32.679860 L 37.411740,32.962260 L 37.392400,33.240220 L 37.368900,33.513760 L 37.342640,33.781380 L 37.312220,34.047520 L 37.279040,34.307740 L 37.243100,34.565000 L 37.203020,34.816360 L 37.158800,35.066220 L 37.113180,35.310180 L 37.064800,35.549720 L 37.010880,35.786280 L 36.955600,36.016940 L 36.896160,36.244620 L 36.833960,36.469360 L 36.769000,36.689680 L 36.701260,36.904060 L 36.629380,37.115500 L 36.554740,37.322480 L 36.477340,37.526520 L 36.397160,37.726120 L 36.314220,37.921300 L 36.228520,38.113500 L 36.138680,38.301280 L 36.047440,38.486100 L 35.952060,38.666480 L 35.852540,38.846860 L 35.750260,39.022820 L 35.650740,39.183980 L 35.549820,39.337740 L 35.444780,39.484120 L 35.335580,39.627540 L 35.223600,39.763560 L 35.110260,39.893680 L 34.992760,40.016400 L 34.871120,40.136160 L 34.746720,40.250000 L 34.619560,40.359420 L 34.488240,40.461440 L 34.352780,40.560500 L 34.213160,40.655120 L 34.069420,40.745320 L 33.921500,40.829600 L 33.766700,40.910920 L 33.609120,40.986320 L 33.446000,41.058760 L 33.277360,41.126780 L 33.104580,41.188880 L 32.924880,41.246540 L 32.741040,41.298300 L 32.548920,41.347080 L 32.352620,41.389960 L 32.150820,41.426920 L 31.943480,41.459460 L 31.729220,41.487540 z M 12.951050,46.848740 L 12.951050,52.000000 L 47.048960,52.000000 L 47.048960,46.848740 L 12.951050,46.848740 z "
       class="fil0" />
    <g
       transform="scale(2.000000e-3,2.000000e-3)"
       style="fill-opacity:1.0000000;fill:url(#linearGradient2137)"
       id="g2116">
      <path
         class="fil1"
         d="M 19459.21 15597.70 C 19473.03 17322.42 19170.32 18734.43 18550.37 19825.60 C 17920.05 20961.86 16875.74 21535.53 15412.61 21550.32 C 13894.18 21535.53 12828.45 20984.04 12226.47 19889.17 C 11606.52 18834.97 11303.80 17397.09 11317.63 15575.52 L 11317.63 10748.07 C 11303.80 9611.809 11362.55 8859.233 11495.25 8487.379 C 11620.34 8118.482 11965.22 7932.185 12532.64 7932.185 L 13013.67 7876.001 C 13068.97 7820.555 13096.61 7727.407 13096.61 7596.556 C 13082.79 7462.748 13041.32 7380.688 12974.97 7351.118 C 12055.76 7395.474 11220.18 7418.391 10460.62 7418.391 C 9722.484 7418.391 8879.989 7395.474 7928.985 7351.118 C 7859.180 7380.688 7828.079 7462.748 7828.079 7596.556 C 7807.345 7727.407 7828.079 7820.555 7887.517 7876.001 L 8392.046 7932.185 C 8956.014 7932.185 9304.346 8118.482 9437.044 8487.379 C 9562.140 8859.233 9618.122 9611.809 9604.299 10748.07 L 9604.299 16022.78 C 9589.786 18615.41 10115.74 20373.40 11178.02 21301.18 C 11449.63 21524.44 11735.07 21710.74 12031.57 21855.64 C 12317.01 22023.45 12623.18 22149.87 12954.24 22239.32 C 13612.20 22436.71 14288.13 22533.55 14973.74 22533.55 C 16586.16 22518.77 17878.58 21971.70 18857.23 20894.58 C 19410.83 20209.28 19793.72 19393.86 20005.90 18436.50 C 20183.52 17497.63 20274.06 16536.58 20274.06 15553.34 L 20274.06 13020.60 C 20274.06 12319.77 20287.88 11496.96 20312.77 10539.60 C 20340.41 10316.34 20361.14 10092.34 20371.51 9876.469 C 20371.51 9664.299 20385.33 9466.919 20413.67 9284.314 C 20424.04 9094.321 20451.68 8930.203 20490.39 8792.698 C 20524.94 8661.847 20545.68 8553.913 20559.50 8464.461 C 20625.85 8297.386 20744.03 8170.231 20914.75 8084.476 C 21106.19 7995.763 21325.97 7946.971 21569.94 7932.185 L 22053.74 7876.001 C 22120.09 7805.031 22154.64 7712.622 22154.64 7596.556 C 22140.82 7477.533 22095.21 7395.474 22015.73 7351.118 C 21370.89 7395.474 20664.55 7418.391 19898.08 7418.391 C 19117.79 7418.391 18352.01 7395.474 17603.51 7351.118 C 17530.25 7395.474 17495.00 7470.140 17495.00 7574.378 C 17481.18 7689.704 17498.46 7790.245 17554.44 7876.001 L 18066.57 7932.185 C 18595.98 7976.542 18929.80 8133.268 19076.32 8401.623 C 19253.94 8800.091 19368.67 9477.999 19421.20 10431.67 C 19445.39 11400.11 19459.21 12264.32 19459.21 13020.60 L 19459.21 15597.70 z "
         id="path772"
         style="fill-opacity:1.0;fill-rule:evenodd;image-rendering:optimizeQuality;text-rendering:geometricPrecision;shape-rendering:geometricPrecision;fill:url(#linearGradient2133);font-size:12.000" />
      <path
         class="fil1"
         d="M 7204.674 24204.31 L 22795.33 24204.31 L 22795.33 25220.07 L 7204.674 25220.07 L 7204.674 24204.31 z "
         id="path774"
         style="fill-opacity:1.0;fill-rule:evenodd;image-rendering:optimizeQuality;text-rendering:geometricPrecision;shape-rendering:geometricPrecision;fill:url(#linearGradient2135);font-size:12.000" />
    </g>
    <path
       id="path1668"
       style="font-size:12.000000;fill:url(#linearGradient2142);fill-opacity:1.0000000"
       d="M 7.9500000,5.3540020 L 52.050000,5.3540020 C 53.478000,5.3540020 54.646000,6.5220020 54.646000,7.9500000 C 51.217420,18.616670 43.983000,17.528234 22.426200,21.693600 C 13.684172,23.175920 17.163528,39.954200 5.3540000,47.288100 L 5.3540000,7.9500000 C 5.3540000,6.5220020 6.5220000,5.3540020 7.9500000,5.3540020 z " />
  </g>
</svg>
