<?xml version="1.0" encoding="UTF-8" standalone="no"?>
<!-- Created with Inkscape (http://www.inkscape.org/) -->
<svg
   xmlns:dc="http://purl.org/dc/elements/1.1/"
   xmlns:cc="http://web.resource.org/cc/"
   xmlns:rdf="http://www.w3.org/1999/02/22-rdf-syntax-ns#"
   xmlns:svg="http://www.w3.org/2000/svg"
   xmlns="http://www.w3.org/2000/svg"
   xmlns:xlink="http://www.w3.org/1999/xlink"
   xmlns:sodipodi="http://inkscape.sourceforge.net/DTD/sodipodi-0.dtd"
   xmlns:inkscape="http://www.inkscape.org/namespaces/inkscape"
   id="svg1"
   sodipodi:version="0.32"
   inkscape:version="0.41+cvs"
   width="60.000000px"
   height="60.000000px"
   sodipodi:docbase="/home/david/.icons/eXperience/normal/apps"
   sodipodi:docname="gnome-searchtool.svg">
  <defs
     id="defs3">
    <linearGradient
       id="linearGradient1532">
      <stop
         offset="0.0000000"
         style="stop-color:#175dc4;stop-opacity:1.0000000;"
         id="stop1534" />
      <stop
         offset="1.0000000"
         style="stop-color:#aeccf5;stop-opacity:1.0000000;"
         id="stop1533" />
    </linearGradient>
    <defs
       id="defs2327">
      <linearGradient
         id="linearGradient659"
         gradientUnits="userSpaceOnUse"
         x1="72.902802"
         y1="-4.1747999"
         x2="72.902802"
         y2="62.410500">
        <stop
           offset="0"
           style="stop-color:#ffffff;stop-opacity:1.0000;"
           id="stop661" />
        <stop
           offset="1"
           style="stop-color:#fffff5;stop-opacity:0;"
           id="stop663" />
      </linearGradient>
      <linearGradient
         id="aigrd1"
         gradientUnits="userSpaceOnUse"
         x1="72.902802"
         y1="-4.1747999"
         x2="72.902802"
         y2="62.410500"
         spreadMethod="pad"
         xlink:href="#linearGradient1532" />
      <linearGradient
         id="aigrd15"
         gradientUnits="userSpaceOnUse"
         x1="6.2168002"
         y1="115.26420"
         x2="135.46680"
         y2="115.26420">
        <stop
           offset="0"
           style="stop-color:#415dc4"
           id="stop2291" />
        <stop
           offset="1"
           style="stop-color:#aeccf5"
           id="stop2292" />
      </linearGradient>
      <linearGradient
         xlink:href="#aigrd1"
         id="linearGradient773"
         x1="0.36545247"
         y1="0.070356607"
         x2="0.73793292"
         y2="0.60506731"
         gradientUnits="objectBoundingBox"
         gradientTransform="scale(0.900565,1.110414)" />
      <radialGradient
         xlink:href="#aigrd1"
         id="radialGradient774"
         cx="0.10135135"
         cy="0.093749791"
         r="1.1807489"
         fx="0.10135135"
         fy="0.093749791"
         gradientUnits="objectBoundingBox"
         gradientTransform="scale(1.000001,0.999999)" />
      <radialGradient
         xlink:href="#aigrd1"
         id="radialGradient775"
         cx="-0.98913002"
         cy="0.17187564"
         r="2.1136074"
         fx="-0.98913002"
         fy="0.17187564"
         gradientUnits="objectBoundingBox" />
      <radialGradient
         xlink:href="#linearGradient659"
         id="radialGradient776"
         cx="0.16681667"
         cy="0.12469950"
         r="0.84018791"
         fx="0.16681667"
         fy="0.12469950"
         gradientUnits="objectBoundingBox"
         gradientTransform="scale(0.938914,1.065060)" />
      <radialGradient
         xlink:href="#aigrd1"
         id="radialGradient777"
         cx="-0.029411212"
         cy="0.18749785"
         r="0.85121727"
         fx="-0.029411212"
         fy="0.18749785" />
      <radialGradient
         xlink:href="#aigrd1"
         id="radialGradient778"
         cx="-0.85999984"
         cy="0.50000030"
         r="2.0647945"
         fx="-0.85999984"
         fy="0.50000030"
         gradientUnits="objectBoundingBox" />
      <radialGradient
         xlink:href="#aigrd1"
         id="radialGradient779"
         cx="-0.087153599"
         cy="0.95310795"
         r="1.0279226"
         fx="-0.087153599"
         fy="0.95310795"
         gradientUnits="objectBoundingBox" />
      <radialGradient
         xlink:href="#aigrd1"
         id="radialGradient780"
         cx="-0.047862746"
         cy="0.92963868"
         r="0.95944673"
         fx="-0.047862746"
         fy="0.92963868"
         gradientTransform="scale(1.000006,0.999994)"
         gradientUnits="objectBoundingBox" />
      <radialGradient
         xlink:href="#aigrd1"
         id="radialGradient781"
         cx="-0.14773858"
         cy="0.078127153"
         r="1.5595293"
         fx="-0.14773858"
         fy="0.078127153" />
      <radialGradient
         xlink:href="#aigrd1"
         id="radialGradient782"
         cx="-0.71428186"
         cy="0.19530550"
         r="2.1028900"
         fx="-0.71428186"
         fy="0.19530550" />
      <radialGradient
         xlink:href="#aigrd1"
         id="radialGradient783"
         cx="-0.055557165"
         cy="0.12500304"
         r="1.4306992"
         fx="-0.055557165"
         fy="0.12500304" />
      <radialGradient
         xlink:href="#aigrd1"
         id="radialGradient784"
         cx="-0.014925453"
         cy="0.046874978"
         r="3.3873310"
         fx="-0.014925453"
         fy="0.046874978"
         gradientUnits="objectBoundingBox" />
      <radialGradient
         xlink:href="#aigrd1"
         id="radialGradient884"
         cx="-5.2500367"
         cy="0.16406243"
         r="7.3446145"
         fx="-5.2500367"
         fy="0.16406243" />
      <radialGradient
         xlink:href="#aigrd1"
         id="radialGradient885"
         cx="-0.20238160"
         cy="0.14843710"
         r="1.1100850"
         fx="-0.20238160"
         fy="0.14843710"
         gradientUnits="objectBoundingBox" />
    </defs>
    <radialGradient
       gradientUnits="userSpaceOnUse"
       id="id3"
       fy="21915"
       fx="2458.00000"
       r="8500"
       cy="21915"
       cx="2458.00000">
      <stop
         id="stop598"
         offset="0"
         style="stop-color:#a66500;stop-opacity:1.0000;" />
      <stop
         id="stop600"
         offset="1"
         style="stop-color:#da8f00;stop-opacity:1.0000;" />
    </radialGradient>
    <linearGradient
       gradientUnits="userSpaceOnUse"
       id="id1"
       y2="9295"
       x2="10575"
       y1="20912"
       x1="20158">
      <stop
         id="stop580"
         offset="0"
         style="stop-color:#eda700;stop-opacity:1.0000;" />
      <stop
         id="stop582"
         offset="0.38823500"
         style="stop-color:#ffffff;stop-opacity:1.0000;" />
      <stop
         id="stop584"
         offset="0.7"
         style="stop-color:#ffcb50;stop-opacity:1.0000;" />
      <stop
         id="stop618"
         offset="1"
         style="stop-color:#ed8700;stop-opacity:1.0000;" />
    </linearGradient>
    <linearGradient
       gradientUnits="userSpaceOnUse"
       id="id0"
       y2="19500"
       x2="15000"
       y1="14100"
       x1="10100">
      <stop
         id="stop565"
         offset="0"
         style="stop-color:#f5fffa;stop-opacity:1.0000;" />
      <stop
         id="stop567"
         offset="1.20000005"
         style="stop-color:#6f6d7f;stop-opacity:1.0000;" />
    </linearGradient>
    <linearGradient
       gradientUnits="userSpaceOnUse"
       id="linearGradient629"
       y2="19500"
       x2="15000"
       y1="14100"
       x1="10100">
      <stop
         id="stop633"
         offset="0"
         style="stop-color:#ffffff;stop-opacity:0.6980;" />
      <stop
         id="stop637"
         offset="1.20000005"
         style="stop-color:#5db7ff;stop-opacity:0.6980;" />
    </linearGradient>
    <linearGradient
       gradientUnits="userSpaceOnUse"
       id="linearGradient644"
       y2="19500"
       x2="15000"
       y1="14100"
       x1="10100">
      <stop
         id="stop648"
         offset="0"
         style="stop-color:#f5ffff;stop-opacity:1.0000;" />
      <stop
         id="stop652"
         offset="1.20000005"
         style="stop-color:#ffffff;stop-opacity:0;" />
    </linearGradient>
    <linearGradient
       gradientUnits="userSpaceOnUse"
       id="linearGradient660"
       y2="19500"
       x2="15000"
       y1="14100"
       x1="10100">
      <stop
         id="stop662"
         offset="0"
         style="stop-color:#f5ffff;stop-opacity:0.4902;" />
      <stop
         id="stop664"
         offset="1.20000005"
         style="stop-color:#ffffff;stop-opacity:0;" />
    </linearGradient>
    <radialGradient
       inkscape:collect="always"
       xlink:href="#linearGradient629"
       id="radialGradient2563"
       gradientUnits="userSpaceOnUse"
       cx="18969.1191"
       cy="17830.8145"
       fx="18969.1191"
       fy="17830.8145"
       r="23165.9414" />
    <radialGradient
       inkscape:collect="always"
       xlink:href="#id0"
       id="radialGradient2565"
       gradientUnits="userSpaceOnUse"
       gradientTransform="translate(-1.203106e-5,1.325215e-4)"
       cx="25537.7500"
       cy="27369.5566"
       fx="25537.7500"
       fy="27369.5566"
       r="3682.17627" />
    <radialGradient
       inkscape:collect="always"
       xlink:href="#linearGradient644"
       id="radialGradient2567"
       gradientUnits="userSpaceOnUse"
       gradientTransform="translate(-7.321377e-5,-4.329504e-5)"
       cx="18401.3555"
       cy="17398.3379"
       fx="18401.3555"
       fy="17398.3379"
       r="11887.5078" />
    <radialGradient
       inkscape:collect="always"
       xlink:href="#linearGradient629"
       id="radialGradient2579"
       gradientUnits="userSpaceOnUse"
       gradientTransform="translate(-9.447385e-5,4.096390e-5)"
       cx="13189.8584"
       cy="11245.8857"
       fx="13189.8584"
       fy="11245.8857"
       r="16247.8887" />
    <radialGradient
       inkscape:collect="always"
       xlink:href="#id0"
       id="radialGradient2583"
       gradientUnits="userSpaceOnUse"
       gradientTransform="translate(-1.189675e-4,-1.256190e-4)"
       cx="26631.0430"
       cy="29167.0723"
       fx="26631.0430"
       fy="29167.0723"
       r="4284.19678" />
    <radialGradient
       inkscape:collect="always"
       xlink:href="#linearGradient660"
       id="radialGradient2596"
       gradientUnits="userSpaceOnUse"
       gradientTransform="matrix(1.928043e-3,0.000000,0.000000,1.928043e-3,1.623484,1.605753)"
       cx="11715.2910"
       cy="10444.3965"
       fx="11715.2910"
       fy="10444.3965"
       r="15131.6611" />
    <linearGradient
       inkscape:collect="always"
       xlink:href="#id0"
       id="linearGradient2599"
       gradientUnits="userSpaceOnUse"
       gradientTransform="matrix(1.928043e-3,0.000000,0.000000,1.928043e-3,1.623484,1.605753)"
       x1="389.401825"
       y1="405.028870"
       x2="24589.6562"
       y2="29618.1992" />
    <linearGradient
       inkscape:collect="always"
       xlink:href="#id1"
       id="linearGradient2602"
       gradientUnits="userSpaceOnUse"
       gradientTransform="matrix(1.259971e-3,0.000000,-2.591061e-20,2.950350e-3,1.253771e-2,2.283418)"
       x1="-3478.94458"
       y1="21261.0059"
       x2="3741.10767"
       y2="21260.9609" />
    <linearGradient
       inkscape:collect="always"
       xlink:href="#id3"
       id="linearGradient2605"
       gradientUnits="userSpaceOnUse"
       gradientTransform="matrix(1.331251e-3,0.000000,-2.452328e-20,2.792381e-3,1.253771e-2,2.283418)"
       x1="850.317566"
       y1="27356.0645"
       x2="6753.38184"
       y2="20482.1387" />
    <linearGradient
       inkscape:collect="always"
       xlink:href="#id0"
       id="linearGradient2610"
       gradientUnits="userSpaceOnUse"
       gradientTransform="matrix(1.928043e-3,0.000000,0.000000,1.928043e-3,1.623484,1.605753)"
       x1="-1308.28711"
       y1="-85.1431808"
       x2="12508.2441"
       y2="18950.7070" />
    <linearGradient
       inkscape:collect="always"
       xlink:href="#linearGradient644"
       id="linearGradient2614"
       gradientUnits="userSpaceOnUse"
       gradientTransform="matrix(3.273340e-3,0.000000,-9.973506e-21,1.135647e-3,1.253771e-2,2.283418)"
       x1="-1083.75916"
       y1="39560.3008"
       x2="2312.52173"
       y2="39368.1211" />
    <radialGradient
       inkscape:collect="always"
       xlink:href="#id0"
       id="radialGradient2617"
       gradientUnits="userSpaceOnUse"
       gradientTransform="matrix(1.951941e-3,0.000000,0.000000,1.904438e-3,1.623484,1.605753)"
       cx="17070.1621"
       cy="18596"
       fx="17070.1621"
       fy="18596"
       r="3734.60205" />
    <radialGradient
       inkscape:collect="always"
       xlink:href="#id0"
       id="radialGradient2620"
       gradientUnits="userSpaceOnUse"
       gradientTransform="matrix(3.273338e-3,0.000000,-9.973506e-21,1.135647e-3,1.253771e-2,2.283418)"
       cx="-2182.7423"
       cy="33086.471"
       fx="-2182.7423"
       fy="33086.471"
       r="11539.996" />
    <radialGradient
       inkscape:collect="always"
       xlink:href="#linearGradient629"
       id="radialGradient2623"
       gradientUnits="userSpaceOnUse"
       gradientTransform="matrix(1.928043e-3,0.000000,0.000000,1.928043e-3,1.623484,1.605753)"
       cx="18299.9414"
       cy="17753.1152"
       fx="18299.9414"
       fy="17753.1152"
       r="28430.2363" />
    <radialGradient
       inkscape:collect="always"
       xlink:href="#id0"
       id="radialGradient2626"
       gradientUnits="userSpaceOnUse"
       gradientTransform="matrix(1.915112e-3,0.000000,0.000000,1.941063e-3,1.623484,1.605753)"
       cx="16467.203"
       cy="15673.818"
       fx="16467.203"
       fy="15673.818"
       r="3055.2430" />
    <radialGradient
       inkscape:collect="always"
       xlink:href="#linearGradient629"
       id="radialGradient2633"
       gradientUnits="userSpaceOnUse"
       gradientTransform="matrix(1.928043e-3,0.000000,0.000000,1.928043e-3,1.623484,1.605753)"
       cx="18631.6211"
       cy="17526.4570"
       fx="18631.6211"
       fy="17526.4570"
       r="40170.2656" />
  </defs>
  <sodipodi:namedview
     id="base"
     pagecolor="#ffffff"
     bordercolor="#666666"
     borderopacity="1.0"
     inkscape:pageopacity="0.0"
     inkscape:pageshadow="2"
     inkscape:zoom="5.6568542"
     inkscape:cx="14.302992"
     inkscape:cy="28.730232"
     inkscape:window-width="857"
     inkscape:window-height="519"
     inkscape:window-x="35"
     inkscape:window-y="141"
     inkscape:current-layer="svg1"
     showguides="false"
     inkscape:guide-bbox="true"
     gridspacingy="1.0000000pt"
     gridspacingx="1.0000000pt"
     gridoriginy="0.0000000pt"
     gridoriginx="0.0000000pt"
     showgrid="false"
     inkscape:grid-points="false"
     inkscape:grid-bbox="false"
     showborder="true">
    <sodipodi:guide
       orientation="vertical"
       position="0.0000000"
       id="guide2809" />
    <sodipodi:guide
       orientation="vertical"
       position="48.000000"
       id="guide2810" />
    <sodipodi:guide
       orientation="horizontal"
       position="0.0000000"
       id="guide2811" />
    <sodipodi:guide
       orientation="horizontal"
       position="47.000000"
       id="guide2819" />
    <sodipodi:guide
       orientation="horizontal"
       position="48.405405"
       id="guide1774" />
  </sodipodi:namedview>
  <metadata
     id="metadata4">
    <rdf:RDF
       id="RDF5">
      <cc:Work
         rdf:about=""
         id="Work6">
        <dc:format
           id="format7">image/svg+xml</dc:format>
        <dc:type
           id="type9"
           rdf:resource="http://purl.org/dc/dcmitype/StillImage" />
      </cc:Work>
    </rdf:RDF>
  </metadata>
  <g
     id="g701"
     style="opacity:0.18469997;fill:#000000;fill-opacity:1.0000000"
     transform="matrix(1.928043e-3,0.000000,0.000000,1.928043e-3,1.341519,3.163856)">
    <path
       sodipodi:type="arc"
       style="fill:#000000;fill-opacity:1.0000000;fill-rule:evenodd;stroke:none;stroke-width:1.0000000pt;stroke-linecap:butt;stroke-linejoin:miter;stroke-opacity:1.0000000"
       id="path695"
       d="M 29523.812 27523.809 A 2285.7148 2285.7148 0 1 1  24952.383,27523.809 A 2285.7148 2285.7148 0 1 1  29523.812 27523.809 z"
       sodipodi:cx="27238.098"
       sodipodi:cy="27523.809"
       sodipodi:rx="2285.7148"
       sodipodi:ry="2285.7148"
       transform="matrix(1.036611,0.000000,0.000000,1.036611,-8223.773,-8828.788)" />
    <path
       style="font-size:12.000000;fill:#000000;fill-opacity:1.0000000;fill-rule:evenodd"
       d="M 19682.640,17385.350 C 19218.720,16813.270 19039.730,17202.010 18796.970,17009.070 C 18610.660,16842.070 18923.690,16578.550 18518.340,16140.130 L 16540.400,18107.420 C 16878.390,18440.920 17063.990,18199.100 17271.000,18482.540 C 17426.230,18708.140 17253.890,19001.780 17753.710,19324.950 L 19682.640,17385.350 z "
       id="path696"
       sodipodi:nodetypes="csccscc" />
    <rect
       style="font-size:12.000000;fill:#000000;fill-opacity:1.0000000;fill-rule:evenodd;stroke-width:1.0000000"
       id="rect697"
       width="4666.6738"
       height="1619.0500"
       x="-2063.9500"
       y="23097.424"
       transform="matrix(0.707107,-0.707107,0.707107,0.707107,0.000000,0.000000)" />
    <path
       d="M 19648.880,9700.2740 C 19648.880,14758.310 15548.540,18858.650 10490.510,18858.650 C 5432.4870,18858.650 1332.1460,14758.310 1332.1460,9700.2740 C 1332.1460,4642.2480 5432.4870,541.90210 10490.510,541.90210 C 15548.540,541.90210 19648.880,4642.2480 19648.880,9700.2740 z M 18741.670,9700.2650 C 18741.670,14257.250 15047.500,17951.420 10490.520,17951.420 C 5933.5440,17951.420 2239.3760,14257.250 2239.3760,9700.2650 C 2239.3760,5143.2790 5933.5440,1449.1140 10490.520,1449.1140 C 15047.500,1449.1140 18741.670,5143.2790 18741.670,9700.2650 z "
       style="font-size:12.000000;fill:#000000;fill-opacity:1.0000000;fill-rule:evenodd"
       id="path698" />
    <path
       sodipodi:type="arc"
       style="fill:#000000;fill-opacity:1.0000000;fill-rule:evenodd;stroke:none;stroke-width:1.0000000pt;stroke-linecap:butt;stroke-linejoin:miter;stroke-opacity:1.0000000"
       id="path699"
       d="M 29523.812 27523.809 A 2285.7148 2285.7148 0 1 1  24952.383,27523.809 A 2285.7148 2285.7148 0 1 1  29523.812 27523.809 z"
       sodipodi:cx="27238.098"
       sodipodi:cy="27523.809"
       sodipodi:rx="2285.7148"
       sodipodi:ry="2285.7148"
       transform="matrix(0.958333,0.000000,0.000000,0.958333,944.4438,99.20413)" />
    <rect
       width="5522.1807"
       height="11583.108"
       x="-2374.9519"
       y="26814.203"
       transform="matrix(0.707107,-0.707107,0.707107,0.707107,0.000000,0.000000)"
       style="font-size:12.000000;fill:#000000;fill-opacity:1.0000000"
       id="rect700" />
  </g>
  <path
     style="font-size:12.000000;opacity:0.29300001;fill:url(#radialGradient2633);fill-opacity:1.0000000;fill-rule:evenodd"
     d="M 36.251503,22.692374 C 36.251503,29.427240 30.791844,34.886899 24.056978,34.886899 C 17.322163,34.886899 11.862489,29.427240 11.862489,22.692374 C 11.862489,15.957536 17.322163,10.497868 24.056978,10.497868 C 30.791844,10.497868 36.251503,15.957536 36.251503,22.692374 z M 38.099763,20.290343 C 38.099763,29.279745 30.812416,36.567150 21.822974,36.567150 C 12.833554,36.567150 5.5461897,29.279745 5.5461897,20.290343 C 5.5461897,11.300919 12.833554,4.0135509 21.822974,4.0135509 C 30.812416,4.0135509 38.099763,11.300919 38.099763,20.290343 z "
     id="path667" />
  <path
     sodipodi:type="arc"
     style="opacity:0.68790001;fill:url(#radialGradient2563);fill-opacity:1.0000000;fill-rule:evenodd;stroke:none;stroke-width:1.0000000pt;stroke-linecap:butt;stroke-linejoin:miter;stroke-opacity:1.0000000"
     id="path643"
     d="M 19394.938 9325.5361 A 9226.0645 9226.0635 0 1 1  942.80859,9325.5361 A 9226.0645 9226.0635 0 1 1  19394.938 9325.5361 z"
     sodipodi:cx="10168.873"
     sodipodi:cy="9325.5361"
     sodipodi:rx="9226.0645"
     sodipodi:ry="9226.0635"
     transform="matrix(1.797218e-3,0.000000,0.000000,1.797218e-3,4.035358,3.288025)" />
  <path
     sodipodi:type="arc"
     style="fill:#717386;fill-opacity:1.0000000;fill-rule:evenodd;stroke:none;stroke-width:1.0000000pt;stroke-linecap:butt;stroke-linejoin:miter;stroke-opacity:1.0000000"
     id="path669"
     d="M 29523.812 27523.809 A 2285.7148 2285.7148 0 1 1  24952.383,27523.809 A 2285.7148 2285.7148 0 1 1  29523.812 27523.809 z"
     sodipodi:cx="27238.098"
     sodipodi:cy="27523.809"
     sodipodi:rx="2285.7148"
     sodipodi:ry="2285.7148"
     transform="matrix(1.998631e-3,0.000000,0.000000,1.998631e-3,-14.23230,-15.41653)" />
  <path
     sodipodi:type="arc"
     style="opacity:1.0000000;fill:url(#radialGradient2565);fill-opacity:1.0000000;fill-rule:evenodd;stroke:none;stroke-width:1.0000000pt;stroke-linecap:butt;stroke-linejoin:miter;stroke-opacity:1.0000000"
     id="path666"
     d="M 29523.812 27523.809 A 2285.7148 2285.7148 0 1 1  24952.383,27523.809 A 2285.7148 2285.7148 0 1 1  29523.812 27523.809 z"
     sodipodi:cx="27238.098"
     sodipodi:cy="27523.809"
     sodipodi:rx="2285.7148"
     sodipodi:ry="2285.7148"
     transform="matrix(1.823917e-3,0.000000,0.000000,1.823917e-3,-9.473389,-10.60768)" />
  <path
     sodipodi:type="arc"
     style="opacity:1.0000000;fill:url(#radialGradient2567);fill-opacity:1.0000000;fill-rule:evenodd;stroke:none;stroke-width:1.0000000pt;stroke-linecap:butt;stroke-linejoin:miter;stroke-opacity:1.0000000"
     id="path622"
     d="M 19394.938 9325.5361 A 9226.0645 9226.0635 0 1 1  942.80859,9325.5361 A 9226.0645 9226.0635 0 1 1  19394.938 9325.5361 z"
     sodipodi:cx="10168.873"
     sodipodi:cy="9325.5361"
     sodipodi:rx="9226.0645"
     sodipodi:ry="9226.0635"
     transform="matrix(1.797218e-3,0.000000,0.000000,1.797218e-3,3.851735,3.288025)" />
  <path
     style="font-size:12.000000;opacity:1.0000000;fill:url(#radialGradient2626);fill-rule:evenodd"
     d="M 39.572460,35.125455 C 38.678003,34.022461 38.332902,34.771968 37.864850,34.399971 C 37.505637,34.077988 38.109172,33.569910 37.327640,32.724618 L 33.514086,36.517637 C 34.165746,37.160640 34.523590,36.694400 34.922715,37.240885 C 35.222005,37.675851 34.889726,38.242002 35.853400,38.865088 L 39.572460,35.125455 z "
     id="path675"
     sodipodi:nodetypes="csccscc" />
  <path
     style="font-size:12.000000;opacity:1.0000000;fill:url(#radialGradient2623);fill-rule:evenodd;stroke-width:1.0000000"
     d="M 37.601326,20.664535 C 37.601326,29.033707 30.865939,35.818259 22.557423,35.818259 C 14.248905,35.818259 7.5135165,29.033707 7.5135165,20.664535 C 7.5135165,12.295381 14.248905,5.5108383 22.557423,5.5108383 C 30.865939,5.5108383 37.601326,12.295381 37.601326,20.664535 z M 38.833461,20.050278 C 38.833461,29.441199 31.220641,37.054019 21.829722,37.054019 C 12.438822,37.054019 4.8259866,29.441199 4.8259866,20.050278 C 4.8259866,10.659371 12.438822,3.0465365 21.829722,3.0465365 C 31.220641,3.0465365 38.833461,10.659371 38.833461,20.050278 z "
     id="path661" />
  <rect
     style="font-size:12.000000;opacity:0.95539999;fill:url(#radialGradient2620);fill-opacity:1.0000000;fill-rule:evenodd;stroke-width:1.0000000"
     id="rect982"
     width="8.9975643"
     height="3.1216035"
     x="-3.9668536"
     y="46.816326"
     transform="matrix(0.707107,-0.707107,0.707107,0.707107,0.000000,0.000000)" />
  <path
     style="font-size:12.000000;opacity:1.0000000;fill:url(#radialGradient2617);fill-rule:evenodd"
     d="M 39.342927,35.446802 C 38.448469,34.343807 38.103369,35.093315 37.635317,34.721318 C 37.276103,34.399335 37.833732,33.615817 36.822685,32.632804 L 33.284553,36.104496 C 34.073932,36.885219 34.844937,36.373073 35.244062,36.919557 C 35.543352,37.354524 35.211073,37.920655 36.174747,38.543741 L 39.342927,35.446802 z "
     id="path677"
     sodipodi:nodetypes="csccscc" />
  <rect
     style="font-size:12.000000;opacity:1.0000000;fill:url(#linearGradient2614);fill-opacity:1.0000000;fill-rule:evenodd;stroke-width:1.0000000"
     id="rect983"
     width="7.4552183"
     height="2.5865037"
     x="-3.1956699"
     y="46.564583"
     transform="matrix(0.707107,-0.707107,0.707107,0.707107,0.000000,0.000000)" />
  <path
     sodipodi:type="arc"
     style="opacity:0.21019997;fill:url(#radialGradient2579);fill-opacity:1.0000000;fill-rule:evenodd;stroke:none;stroke-width:1.0000000pt;stroke-linecap:butt;stroke-linejoin:miter;stroke-opacity:1.0000000"
     id="path668"
     d="M 13468.702 7843.9863 A 3569.2063 3569.2063 0 1 1  6330.2898,7843.9863 A 3569.2063 3569.2063 0 1 1  13468.702 7843.9863 z"
     sodipodi:cx="9899.4961"
     sodipodi:cy="7843.9863"
     sodipodi:rx="3569.2063"
     sodipodi:ry="3569.2063"
     transform="matrix(1.627667e-3,0.000000,0.000000,1.627667e-3,0.567913,-0.102252)" />
  <path
     d="M 39.507370,20.308296 C 39.507370,30.060409 31.601738,37.966041 21.849638,37.966041 C 12.097553,37.966041 4.1919188,30.060409 4.1919188,20.308296 C 4.1919188,10.556205 12.097553,2.6505612 21.849638,2.6505612 C 31.601738,2.6505612 39.507370,10.556205 39.507370,20.308296 z M 37.758230,20.308279 C 37.758230,29.094344 30.635711,36.216863 21.849658,36.216863 C 13.063612,36.216863 5.9410972,29.094344 5.9410972,20.308279 C 5.9410972,11.522214 13.063612,4.3997052 21.849658,4.3997052 C 30.635711,4.3997052 37.758230,11.522214 37.758230,20.308279 z "
     style="font-size:12.000000;opacity:1.0000000;fill:url(#linearGradient2610);fill-rule:evenodd"
     id="path792" />
  <path
     sodipodi:type="arc"
     style="fill:#808080;fill-opacity:1.0000000;fill-rule:evenodd;stroke:none;stroke-width:1.0000000pt;stroke-linecap:butt;stroke-linejoin:miter;stroke-opacity:1.0000000"
     id="path619"
     d="M 29523.812 27523.809 A 2285.7148 2285.7148 0 1 1  24952.383,27523.809 A 2285.7148 2285.7148 0 1 1  29523.812 27523.809 z"
     sodipodi:cx="27238.098"
     sodipodi:cy="27523.809"
     sodipodi:rx="2285.7148"
     sodipodi:ry="2285.7148"
     transform="matrix(1.847707e-3,0.000000,0.000000,1.847707e-3,3.444412,1.797023)" />
  <path
     sodipodi:type="arc"
     style="fill:url(#radialGradient2583);fill-opacity:1.0000000;fill-rule:evenodd;stroke:none;stroke-width:1.0000000pt;stroke-linecap:butt;stroke-linejoin:miter;stroke-opacity:1.0000000"
     id="path620"
     d="M 29523.812 27523.809 A 2285.7148 2285.7148 0 1 1  24952.383,27523.809 A 2285.7148 2285.7148 0 1 1  29523.812 27523.809 z"
     sodipodi:cx="27238.098"
     sodipodi:cy="27523.809"
     sodipodi:rx="2285.7148"
     sodipodi:ry="2285.7148"
     transform="matrix(1.677291e-3,0.000000,0.000000,1.677291e-3,7.924890,6.465252)" />
  <rect
     width="10.647016"
     height="22.332766"
     x="-4.5664783"
     y="53.982426"
     transform="matrix(0.707107,-0.707107,0.707107,0.707107,0.000000,0.000000)"
     style="font-size:12.000000;fill:url(#linearGradient2605)"
     id="rect624" />
  <rect
     width="8.5129890"
     height="19.933985"
     x="-3.4992933"
     y="55.181950"
     transform="matrix(0.707107,-0.707107,0.707107,0.707107,0.000000,0.000000)"
     style="font-size:12.000000;fill:url(#linearGradient2602);fill-opacity:1.0000000"
     id="rect629" />
  <path
     style="font-size:12.000000;opacity:1.0000000;fill:url(#linearGradient2599);fill-opacity:1.0000000;fill-rule:evenodd;stroke-width:1.0000000"
     d="M 38.103407,20.170534 C 38.103407,29.092455 30.870739,36.325122 21.948817,36.325122 C 13.026890,36.325122 5.7942324,29.092455 5.7942324,20.170534 C 5.7942324,11.248600 13.026890,4.0159456 21.948817,4.0159456 C 30.870739,4.0159456 38.103407,11.248600 38.103407,20.170534 z M 37.621184,20.170540 C 37.621184,28.826153 30.604400,35.842919 21.948817,35.842919 C 13.293219,35.842919 6.2764610,28.826153 6.2764610,20.170540 C 6.2764610,11.514930 13.293219,4.4981742 21.948817,4.4981742 C 30.604400,4.4981742 37.621184,11.514930 37.621184,20.170540 z "
     id="path646" />
  <path
     style="font-size:12.000000;opacity:0.54140002;fill:url(#radialGradient2596);fill-rule:evenodd;stroke-width:1.0000000"
     d="M 24.503493,15.228337 C 24.503493,18.843117 21.573138,21.773488 17.958346,21.773488 C 14.343568,21.773488 11.413205,18.843117 11.413205,15.228337 C 11.413205,11.613559 14.343568,8.6831959 17.958346,8.6831959 C 21.573138,8.6831959 24.503493,11.613559 24.503493,15.228337 z M 25.651778,14.539393 C 25.651778,19.168862 21.898861,22.921792 17.269383,22.921792 C 12.639932,22.921792 8.8870004,19.168862 8.8870004,14.539393 C 8.8870004,9.9099229 12.639932,6.1569910 17.269383,6.1569910 C 21.898861,6.1569910 25.651778,9.9099229 25.651778,14.539393 z "
     id="path659" />
  <path
     style="font-size:12.000000;opacity:1.0000000;fill:#9a9ba9;fill-opacity:1.0000000;fill-rule:evenodd"
     d="M 35.860785,38.319432 L 36.151456,38.555984 L 39.373737,35.454746 L 39.197822,35.172288 L 35.860785,38.319432 z "
     id="path680"
     sodipodi:nodetypes="ccccc" />
  <path
     style="font-size:12.000000;opacity:1.0000000;fill:#8a92a0;fill-opacity:1.0000000;fill-rule:evenodd"
     d="M 33.338384,36.174099 L 33.606189,36.371627 L 37.097547,32.948714 L 36.889106,32.626924 L 33.338384,36.174099 z "
     id="path681"
     sodipodi:nodetypes="ccccc" />
</svg>
