<?xml version="1.0" encoding="UTF-8" standalone="no"?>
<!-- Created with Inkscape (http://www.inkscape.org/) -->
<svg
   xmlns:dc="http://purl.org/dc/elements/1.1/"
   xmlns:cc="http://web.resource.org/cc/"
   xmlns:rdf="http://www.w3.org/1999/02/22-rdf-syntax-ns#"
   xmlns:svg="http://www.w3.org/2000/svg"
   xmlns="http://www.w3.org/2000/svg"
   xmlns:xlink="http://www.w3.org/1999/xlink"
   xmlns:sodipodi="http://inkscape.sourceforge.net/DTD/sodipodi-0.dtd"
   xmlns:inkscape="http://www.inkscape.org/namespaces/inkscape"
   width="48.000000pt"
   height="48.000000pt"
   id="svg4002"
   sodipodi:version="0.32"
   inkscape:version="0.41+cvs"
   sodipodi:docbase="/home/david/.icons/eXperience/scalable/stock"
   sodipodi:docname="gtk-revert-to-saved.svg">
  <defs
     id="defs3">
    <linearGradient
       inkscape:collect="always"
       id="linearGradient3813">
      <stop
         style="stop-color:#000000;stop-opacity:1;"
         offset="0"
         id="stop3815" />
      <stop
         style="stop-color:#000000;stop-opacity:0;"
         offset="1"
         id="stop3817" />
    </linearGradient>
    <linearGradient
       id="linearGradient784">
      <stop
         offset="0"
         style="stop-color:#e8eded;stop-opacity:1.0000;"
         id="stop786" />
      <stop
         offset="1"
         style="stop-color:#3527b7;stop-opacity:1.0000;"
         id="stop785" />
    </linearGradient>
    <linearGradient
       id="linearGradient790">
      <stop
         offset="0"
         style="stop-color:#ffffff;stop-opacity:1.0000;"
         id="stop792" />
      <stop
         offset="1"
         style="stop-color:#cccccc;stop-opacity:1.0000;"
         id="stop791" />
    </linearGradient>
    <linearGradient
       id="linearGradient799">
      <stop
         offset="0"
         style="stop-color:#ffffff;stop-opacity:1.0000;"
         id="stop800" />
      <stop
         offset="1"
         style="stop-color:#ffffff;stop-opacity:0;"
         id="stop801" />
    </linearGradient>
    <linearGradient
       id="linearGradient690">
      <stop
         offset="0"
         style="stop-color:#666767;stop-opacity:1.0000;"
         id="stop693" />
      <stop
         offset="1"
         style="stop-color:#ffffff;stop-opacity:1.0000;"
         id="stop692" />
    </linearGradient>
    <linearGradient
       id="linearGradient4726">
      <stop
         offset="0.0000000"
         style="stop-color:#12067b;stop-opacity:1.0000000;"
         id="stop4728" />
      <stop
         offset="1"
         style="stop-color:#5a44cd;stop-opacity:1.0000;"
         id="stop4730" />
    </linearGradient>
    <linearGradient
       id="linearGradient3129"
       gradientUnits="userSpaceOnUse"
       x1="19681"
       y1="21628"
       x2="-2598"
       y2="26610">
      <stop
         offset="0.0000000"
         style="stop-color:#80ff3d;stop-opacity:1.0000000;"
         id="stop3131" />
      <stop
         offset="1.0000000"
         style="stop-color:#06a700;stop-opacity:1.0000000;"
         id="stop3133" />
    </linearGradient>
    <radialGradient
       inkscape:collect="always"
       xlink:href="#linearGradient3129"
       id="radialGradient2138"
       gradientUnits="userSpaceOnUse"
       gradientTransform="matrix(-1.391706,-1.042452,1.159007,-1.547312,120.7420,93.62611)"
       cx="51.359165"
       cy="7.9099178"
       fx="51.359165"
       fy="7.9099178"
       r="7.5814556" />
    <linearGradient
       inkscape:collect="always"
       xlink:href="#linearGradient3129"
       id="linearGradient2141"
       gradientUnits="userSpaceOnUse"
       gradientTransform="matrix(0.716501,0.000000,0.000000,0.716501,16.46906,18.03110)"
       x1="33.391163"
       y1="27.995689"
       x2="52.487068"
       y2="42.688202" />
    <linearGradient
       inkscape:collect="always"
       xlink:href="#linearGradient3129"
       id="linearGradient2144"
       gradientUnits="userSpaceOnUse"
       gradientTransform="matrix(0.716501,0.000000,0.000000,0.716501,16.46906,18.03110)"
       x1="29.017241"
       y1="1.2187502"
       x2="35.204742"
       y2="16.580818" />
    <linearGradient
       inkscape:collect="always"
       xlink:href="#linearGradient3129"
       id="linearGradient2147"
       gradientUnits="userSpaceOnUse"
       gradientTransform="matrix(0.801228,0.000000,0.000000,0.640734,16.46906,18.03110)"
       x1="23.388313"
       y1="-5.7868624"
       x2="33.546825"
       y2="16.484520" />
    <radialGradient
       inkscape:collect="always"
       xlink:href="#linearGradient3129"
       id="radialGradient2150"
       gradientUnits="userSpaceOnUse"
       gradientTransform="matrix(0.520780,-0.105866,0.330978,1.628165,2.341789,-4.145942)"
       cx="71.970230"
       cy="44.999588"
       fx="70.946449"
       fy="44.711411"
       r="23.251600" />
    <radialGradient
       inkscape:collect="always"
       xlink:href="#linearGradient3129"
       id="radialGradient2153"
       gradientUnits="userSpaceOnUse"
       gradientTransform="matrix(0.531432,0.000000,0.000000,0.966020,16.46906,18.03110)"
       cx="76.429031"
       cy="42.388439"
       fx="75.405251"
       fy="42.100262"
       r="23.251600" />
    <linearGradient
       inkscape:collect="always"
       xlink:href="#linearGradient690"
       id="linearGradient2158"
       gradientUnits="userSpaceOnUse"
       gradientTransform="matrix(2.185901e-3,5.342913e-4,-3.954149e-4,1.617736e-3,-41.61990,-24.87461)"
       spreadMethod="reflect"
       x1="42335.297"
       y1="38982.820"
       x2="35796.434"
       y2="27926.238" />
    <linearGradient
       inkscape:collect="always"
       xlink:href="#linearGradient4726"
       id="linearGradient2160"
       gradientUnits="userSpaceOnUse"
       gradientTransform="matrix(3.928434e-6,0.000000,0.000000,3.928434e-6,-53.04911,-21.84279)"
       x1="19294824."
       y1="17915604."
       x2="19282764."
       y2="16318247." />
    <linearGradient
       inkscape:collect="always"
       xlink:href="#linearGradient799"
       id="linearGradient2163"
       gradientUnits="userSpaceOnUse"
       gradientTransform="matrix(1.375796,0.000000,0.000000,1.375796,-3.867631,-2.706219)"
       x1="19.394928"
       y1="4.0139074"
       x2="31.920822"
       y2="27.998980" />
    <linearGradient
       inkscape:collect="always"
       xlink:href="#linearGradient790"
       id="linearGradient2167"
       gradientUnits="userSpaceOnUse"
       gradientTransform="matrix(1.932760e-3,1.078424e-9,-8.439863e-10,1.512601e-3,-40.00901,-23.05011)"
       x1="34351.180"
       y1="17769.768"
       x2="39556.582"
       y2="28202.678" />
    <linearGradient
       inkscape:collect="always"
       xlink:href="#linearGradient4726"
       id="linearGradient2169"
       gradientUnits="userSpaceOnUse"
       gradientTransform="matrix(1.964215e-3,1.095975e-9,-1.095975e-9,1.964215e-3,-49.25353,-18.14006)"
       x1="53468.406"
       y1="25578.031"
       x2="34054.016"
       y2="5828.8491" />
    <linearGradient
       inkscape:collect="always"
       xlink:href="#linearGradient799"
       id="linearGradient2173"
       gradientUnits="userSpaceOnUse"
       gradientTransform="matrix(1.660929e-3,4.059740e-4,-4.059740e-4,1.660929e-3,-46.12126,-21.03358)"
       x1="31820.559"
       y1="-425.32996"
       x2="53259.949"
       y2="24254.156" />
    <linearGradient
       inkscape:collect="always"
       xlink:href="#linearGradient784"
       id="linearGradient2176"
       gradientUnits="userSpaceOnUse"
       gradientTransform="matrix(3.274285e-6,8.003202e-7,-8.237458e-7,3.370128e-6,-53.02879,-21.84794)"
       x1="17852804."
       y1="-3546414.0"
       x2="35152116."
       y2="17164414." />
    <linearGradient
       inkscape:collect="always"
       xlink:href="#linearGradient4726"
       id="linearGradient2179"
       gradientUnits="userSpaceOnUse"
       gradientTransform="matrix(3.928434e-6,0.000000,0.000000,3.928434e-6,-53.04911,-21.84279)"
       x1="17206980."
       y1="17535692."
       x2="15018035."
       y2="13466274." />
    <linearGradient
       inkscape:collect="always"
       xlink:href="#linearGradient3813"
       id="linearGradient2182"
       gradientUnits="userSpaceOnUse"
       gradientTransform="matrix(3.786847e-6,1.045166e-6,-1.045166e-6,3.786847e-6,-53.02380,-21.85690)"
       x1="37179696."
       y1="16832558."
       x2="19937692."
       y2="5225754.0" />
  </defs>
  <sodipodi:namedview
     id="base"
     pagecolor="#ffffff"
     bordercolor="#666666"
     borderopacity="1.0"
     inkscape:pageopacity="0.0"
     inkscape:pageshadow="2"
     inkscape:zoom="4.9497475"
     inkscape:cx="63.427515"
     inkscape:cy="26.337613"
     inkscape:current-layer="layer1"
     showgrid="true"
     inkscape:grid-bbox="true"
     inkscape:document-units="px"
     inkscape:window-width="723"
     inkscape:window-height="511"
     inkscape:window-x="78"
     inkscape:window-y="66" />
  <metadata
     id="metadata4">
    <rdf:RDF
       id="RDF5">
      <cc:Work
         rdf:about=""
         id="Work6">
        <dc:format
           id="format7">image/svg+xml</dc:format>
        <dc:type
           id="type9"
           rdf:resource="http://purl.org/dc/dcmitype/StillImage" />
      </cc:Work>
    </rdf:RDF>
  </metadata>
  <g
     id="layer1"
     inkscape:label="Layer 1"
     inkscape:groupmode="layer">
    <path
       d="M 44.675985,59.281143 L 42.934501,60.000000 L 4.6419603,44.941617 L 4.3686213,44.132288 L 20.349968,3.4927163 L 58.650457,18.554222 L 59.723103,21.017253 L 44.675985,59.281143 z "
       id="path3675"
       style="font-size:12.000000;fill:url(#linearGradient2182);fill-opacity:0.48993286;fill-rule:evenodd" />
    <path
       style="font-size:12.000000;fill:none;fill-rule:evenodd;stroke:url(#linearGradient2179);stroke-width:2.2352560;stroke-miterlimit:4.0000000;stroke-dasharray:none;stroke-opacity:1.0000000"
       id="path3776"
       d="M 53.038549,10.893317 L 53.968474,12.424895 L 43.896260,53.632569 L 42.364690,54.562493 L 3.0094207,44.955385 L 1.6063799,42.644585 L 11.528383,2.0514508 L 13.147987,1.1430447 L 53.038549,10.893317 z "
       sodipodi:nodetypes="ccccccccc" />
    <path
       sodipodi:nodetypes="ccccccccc"
       d="M 53.038569,10.893323 L 53.968492,12.424899 L 43.896277,53.632587 L 42.364703,54.562509 L 3.0094228,44.955399 L 1.6063809,42.644599 L 11.528386,2.0514537 L 13.147993,1.1430472 L 53.038569,10.893323 z "
       id="path3679"
       style="font-size:12.000000;fill:url(#linearGradient2176);fill-rule:evenodd" />
    <path
       id="path856"
       d="M 13.150205,1.1384927 L 3.8689304,38.814410 C 7.5683919,35.477457 15.700462,32.882353 26.041548,33.472447 C 39.551750,34.019384 39.800178,7.7825809 53.027652,10.887721 L 13.150205,1.1384927 z "
       style="font-size:12.000000;fill:url(#linearGradient2173);fill-rule:evenodd" />
    <path
       style="font-size:12.000000;fill:#000000;fill-opacity:0.37583891;fill-rule:evenodd"
       d="M 17.152952,32.560084 L 13.178644,47.887336 L 35.639310,52.901089 L 39.482822,37.682098 L 17.152952,32.560084 z M 19.846908,37.502911 L 26.353622,39.214014 L 23.155980,48.362458 L 17.548625,47.044185 L 19.846908,37.502911 z "
       id="path3807"
       sodipodi:nodetypes="cccccccccc" />
    <rect
       ry="0.0000000"
       transform="matrix(0.971403,0.237436,-0.237436,0.971403,0.000000,0.000000)"
       style="font-size:12.000000;fill:url(#linearGradient2167);fill-rule:evenodd;stroke:url(#linearGradient2169);stroke-width:0.89633399;stroke-miterlimit:4.0000000;stroke-dasharray:none"
       id="rect862"
       height="23.210581"
       width="29.030123"
       y="-2.4283907"
       x="19.379135" />
    <path
       style="fill:none;fill-opacity:0.75000000;fill-rule:evenodd;stroke:#b2b2b2;stroke-width:1.3511605pt;stroke-linecap:butt;stroke-linejoin:miter;stroke-opacity:1.0000000"
       d="M 23.482881,9.6672213 C 22.537926,12.414416 21.559712,15.459647 21.559712,19.125346 C 21.559712,23.564942 25.766774,14.748040 27.536363,17.774185 C 33.212305,27.480534 26.985966,11.273337 29.476006,17.048525 C 29.611006,17.361629 31.374839,15.207194 32.205763,17.048525 C 33.817340,20.619788 38.345647,8.7300662 38.345647,16.423025 C 38.345647,20.045750 40.052024,20.470471 38.345647,23.872916 C 38.247459,24.068698 38.345647,24.310964 38.345647,24.529987"
       id="path4950" />
    <path
       sodipodi:nodetypes="ccscc"
       id="path798"
       d="M 20.106297,2.8160956 L 14.899747,24.117254 C 18.577386,21.575744 22.674987,10.661559 26.979669,11.696109 C 36.516186,13.826916 40.193790,11.810167 47.324356,9.4688848 L 20.106297,2.8160956 z "
       style="font-size:12.000000;fill:url(#linearGradient2163);fill-rule:evenodd" />
    <path
       sodipodi:nodetypes="cccccccccc"
       id="path874"
       d="M 16.298668,31.520871 L 12.432623,47.530939 L 34.680329,53.003837 L 38.737616,37.185016 L 16.298668,31.520871 z M 19.608242,37.141487 L 25.554487,38.606473 L 23.665253,46.231984 L 17.757147,44.763333 L 19.608242,37.141487 z "
       style="font-size:12.000000;fill:url(#linearGradient2158);fill-rule:evenodd;stroke:url(#linearGradient2160);stroke-width:0.56104928;stroke-miterlimit:4.0000000;stroke-dasharray:none;stroke-opacity:1.0000000" />
    <g
       id="g2949"
       style="opacity:0.29999998;stroke:#000000;stroke-opacity:1.0000000"
       transform="translate(-61.75487,-111.8669)">
      <path
         sodipodi:nodetypes="cccscsccc"
         style="stroke-opacity:1.0000000;stroke-dasharray:none;stroke-miterlimit:4.0000000;stroke-linejoin:round;stroke-width:2.4181917;stroke:#000000;fill-rule:evenodd;fill:url(#radialGradient2123);font-size:12.000000"
         id="path2941"
         d="M 99.871092,133.70924 L 116.40163,133.87702 L 111.18419,138.91854 C 114.12605,139.94495 122.09520,147.06258 120.27990,157.07812 C 118.06535,169.28164 110.03476,170.70144 106.00058,171.29104 C 109.63646,169.72800 113.81802,163.37908 113.50687,158.10448 C 112.96823,148.87623 106.05770,145.82645 104.96078,145.09771 L 100.06476,150.86377 L 99.871092,133.70924 z "
         class="fil1" />
    </g>
    <path
       sodipodi:nodetypes="cccscsccc"
       style="font-size:12.000000;fill:url(#radialGradient2153);fill-rule:evenodd;stroke:#146000;stroke-width:2.4181917;stroke-linejoin:round;stroke-miterlimit:4.0000000;stroke-dasharray:none;stroke-opacity:1.0000000"
       id="path3156"
       d="M 36.683222,20.562203 L 53.213763,20.729986 L 47.996320,25.771504 C 50.938178,26.797913 58.907327,33.915552 57.092029,43.931091 C 54.877482,56.134608 46.846888,57.554403 42.812711,58.144012 C 46.448587,56.580975 50.630148,50.232044 50.319003,44.957445 C 49.780355,35.729199 42.869825,32.679419 41.772905,31.950674 L 36.876892,37.716744 L 36.683222,20.562203 z "
       class="fil1" />
    <path
       class="fil1"
       d="M 36.683222,20.562203 L 53.213763,20.729986 L 47.996320,25.771504 C 50.938178,26.797913 58.907327,33.915552 57.092029,43.931091 C 54.877482,56.134608 46.846888,57.554403 42.812711,58.144012 C 46.448587,56.580975 50.630148,50.232044 50.319003,44.957445 C 49.780355,35.729199 42.869825,32.679419 41.772905,31.950674 L 36.876892,37.716744 L 36.683222,20.562203 z "
       id="path583"
       style="font-size:12.000000;fill:url(#radialGradient2150);fill-rule:evenodd"
       sodipodi:nodetypes="cccscsccc" />
    <path
       class="fil2"
       d="M 36.705510,20.606017 L 52.204001,20.747311 C 48.498697,23.244253 44.799619,26.107858 41.669099,24.492169 C 37.653059,22.328285 39.653230,31.463727 36.768485,33.000000 L 36.705510,20.606017 z "
       id="path584"
       style="font-size:12.000000;fill:url(#linearGradient2147);fill-rule:evenodd"
       sodipodi:nodetypes="ccscc" />
    <path
       class="fil5"
       d="M 36.692611,20.618613 L 52.348949,20.727127 C 54.108893,21.119333 38.441677,20.682174 37.588232,21.648963 C 36.332017,22.937361 38.711503,28.210230 36.846128,31.350932 L 36.692611,20.618613 z "
       id="path585"
       style="font-size:12.000000;fill:url(#linearGradient2144);fill-rule:evenodd"
       sodipodi:nodetypes="ccscc" />
    <path
       class="fil5"
       d="M 42.866125,58.123542 C 49.778686,56.029319 56.017634,52.654703 57.334634,39.366119 C 57.601455,52.284834 50.213712,57.501626 42.866125,58.123542 z "
       id="path586"
       style="font-size:12.000000;fill:url(#linearGradient2141);fill-rule:evenodd"
       sodipodi:nodetypes="ccc" />
    <path
       class="fil2"
       d="M 48.010666,25.699997 C 52.266933,27.826165 56.416147,32.998349 56.638102,37.400013 C 54.243013,41.051501 51.295201,33.258031 48.791436,31.792309 C 47.431280,30.966496 43.206278,28.312246 48.010666,25.699997 z "
       id="path638"
       style="font-size:12.000000;fill:url(#radialGradient2138);fill-rule:evenodd"
       sodipodi:nodetypes="ccsc" />
  </g>
</svg>
