<?xml version="1.0" encoding="UTF-8" standalone="no"?>
<!-- Created with Inkscape (http://www.inkscape.org/) -->
<svg
   xmlns:dc="http://purl.org/dc/elements/1.1/"
   xmlns:cc="http://web.resource.org/cc/"
   xmlns:rdf="http://www.w3.org/1999/02/22-rdf-syntax-ns#"
   xmlns:svg="http://www.w3.org/2000/svg"
   xmlns="http://www.w3.org/2000/svg"
   xmlns:xlink="http://www.w3.org/1999/xlink"
   xmlns:sodipodi="http://inkscape.sourceforge.net/DTD/sodipodi-0.dtd"
   xmlns:inkscape="http://www.inkscape.org/namespaces/inkscape"
   sodipodi:docname="gtk-sort-descending.svg"
   sodipodi:docbase="/home/david/.icons/eXperience/normal/stock"
   inkscape:version="0.41+cvs"
   sodipodi:version="0.32"
   id="svg3076"
   height="48.000000pt"
   width="48.000000pt">
  <defs
     id="defs3">
    <linearGradient
       id="id2"
       gradientUnits="userSpaceOnUse"
       x1="14807"
       y1="28599"
       x2="2167"
       y2="16702">
      <stop
         offset="0"
         style="stop-color:#000057;stop-opacity:1.0000;"
         id="stop575" />
      <stop
         offset="1"
         style="stop-color:#0000a5;stop-opacity:1.0000;"
         id="stop577" />
    </linearGradient>
    <linearGradient
       id="linearGradient2104"
       gradientUnits="userSpaceOnUse"
       x1="19681"
       y1="21628"
       x2="-2598"
       y2="26610">
      <stop
         offset="0.0000000"
         style="stop-color:#80ff3d;stop-opacity:1.0000000;"
         id="stop2106" />
      <stop
         offset="1.0000000"
         style="stop-color:#06a700;stop-opacity:1.0000000;"
         id="stop2108" />
    </linearGradient>
    <linearGradient
       id="linearGradient720"
       gradientUnits="userSpaceOnUse"
       x1="26170"
       y1="29212"
       x2="11499"
       y2="16234">
      <stop
         offset="0"
         style="stop-color:#ffff3a;stop-opacity:0.7490;"
         id="stop722" />
      <stop
         offset="1"
         style="stop-color:#008f00;stop-opacity:0;"
         id="stop724" />
    </linearGradient>
    <linearGradient
       id="linearGradient2155"
       gradientUnits="userSpaceOnUse"
       x1="14360"
       y1="12757"
       x2="2425"
       y2="1525">
      <stop
         offset="0"
         style="stop-color:#002fa7;stop-opacity:1.0000;"
         id="stop2157" />
      <stop
         offset="1"
         style="stop-color:#ffffff;stop-opacity:1.0000;"
         id="stop2159" />
    </linearGradient>
    <linearGradient
       inkscape:collect="always"
       xlink:href="#linearGradient2155"
       id="linearGradient2287"
       gradientUnits="userSpaceOnUse"
       gradientTransform="scale(1.857252e-3,2.153720e-3)"
       x1="23659.490"
       y1="37473.824"
       x2="-12781.563"
       y2="-7552.7544" />
    <linearGradient
       inkscape:collect="always"
       xlink:href="#id2"
       id="linearGradient2290"
       gradientUnits="userSpaceOnUse"
       x1="14807"
       y1="28599"
       x2="2167"
       y2="16702"
       gradientTransform="scale(2.000000e-3,2.000000e-3)" />
    <linearGradient
       inkscape:collect="always"
       xlink:href="#linearGradient2155"
       id="linearGradient2293"
       gradientUnits="userSpaceOnUse"
       gradientTransform="scale(1.977484e-3,2.022772e-3)"
       x1="22220.982"
       y1="39899.762"
       x2="-12004.438"
       y2="-8041.6963" />
    <linearGradient
       inkscape:collect="always"
       xlink:href="#id2"
       id="linearGradient2296"
       gradientUnits="userSpaceOnUse"
       x1="15202.8887"
       y1="13426.3115"
       x2="4605.11133"
       y2="1518.70190"
       gradientTransform="scale(2.000000e-3,2.000000e-3)" />
    <linearGradient
       inkscape:collect="always"
       xlink:href="#linearGradient2104"
       id="linearGradient2299"
       gradientUnits="userSpaceOnUse"
       gradientTransform="matrix(2.156591e-3,0.000000,0.000000,2.156591e-3,-1.321891e-2,-5.654141)"
       x1="15438.138"
       y1="16536.842"
       x2="22743.439"
       y2="18304.609" />
    <linearGradient
       inkscape:collect="always"
       xlink:href="#linearGradient2104"
       id="linearGradient2302"
       gradientUnits="userSpaceOnUse"
       gradientTransform="matrix(2.156591e-3,0.000000,0.000000,2.156591e-3,-1.321891e-2,-5.654141)"
       x1="16036.171"
       y1="21918.781"
       x2="23304.260"
       y2="29747.463" />
    <linearGradient
       inkscape:collect="always"
       xlink:href="#linearGradient2104"
       id="linearGradient2305"
       gradientUnits="userSpaceOnUse"
       gradientTransform="matrix(1.324526e-3,0.000000,0.000000,3.511357e-3,-1.321891e-2,-5.654141)"
       x1="3700.6384"
       y1="8569.6309"
       x2="58799.031"
       y2="24164.082" />
    <radialGradient
       inkscape:collect="always"
       xlink:href="#linearGradient2104"
       id="radialGradient2308"
       gradientUnits="userSpaceOnUse"
       gradientTransform="matrix(2.155618e-3,6.476842e-5,-8.881465e-5,2.955923e-3,2.516324,-29.78111)"
       cx="24299.199"
       cy="28215.000"
       fx="24299.199"
       fy="28215.000"
       r="12264.2266" />
    <radialGradient
       inkscape:collect="always"
       xlink:href="#linearGradient720"
       id="radialGradient2311"
       gradientUnits="userSpaceOnUse"
       gradientTransform="matrix(4.672824e-6,0.000000,0.000000,4.672824e-6,0.178370,-5.667393)"
       cx="23765.3711"
       cy="9723"
       fx="23765.3711"
       fy="9723"
       r="7272.40039" />
  </defs>
  <sodipodi:namedview
     inkscape:window-y="19"
     inkscape:window-x="1"
     inkscape:window-height="511"
     inkscape:window-width="721"
     gridtolerance="0.32000000pt"
     inkscape:current-layer="layer1"
     inkscape:document-units="pt"
     inkscape:cy="35.435737"
     inkscape:cx="73.614924"
     inkscape:zoom="3.9597980"
     inkscape:pageshadow="2"
     inkscape:pageopacity="0.0"
     borderopacity="1.0"
     bordercolor="#666666"
     pagecolor="#ffffff"
     id="base" />
  <metadata
     id="metadata4">
    <rdf:RDF
       id="RDF5">
      <cc:Work
         id="Work6"
         rdf:about="">
        <dc:format
           id="format7">image/svg+xml</dc:format>
        <dc:type
           rdf:resource="http://purl.org/dc/dcmitype/StillImage"
           id="type9" />
      </cc:Work>
    </rdf:RDF>
  </metadata>
  <g
     id="layer1"
     inkscape:groupmode="layer"
     inkscape:label="Layer 1">
    <path
       id="path2216"
       d="M 38.503497,42.502537 L 43.625401,4.1173713 L 49.821287,42.502537 L 58.124162,42.502537 L 43.784989,56.841711 L 29.454441,42.502537 C 32.458572,42.502537 35.503679,42.405491 38.503497,42.502537 z "
       style="font-size:12.000000;opacity:1.0000000;color:#000000;fill:url(#radialGradient2311);fill-opacity:1.0000000;fill-rule:evenodd;stroke:#0f5c00;stroke-width:2.9234359;stroke-linecap:round;stroke-linejoin:round;marker:none;marker-start:none;marker-mid:none;marker-end:none;stroke-miterlimit:4.0000000;stroke-dasharray:none;stroke-dashoffset:0.0000000;stroke-opacity:1.0000000;visibility:visible;display:inline;overflow:visible;font-family:Bitstream Vera Sans" />
    <path
       style="font-size:12.000000;fill:url(#radialGradient2308);fill-rule:evenodd"
       d="M 38.503497,42.502537 L 43.625401,4.1173713 L 49.821287,42.502537 L 58.124162,42.502537 L 43.784989,56.841711 L 29.454441,42.502537 C 32.458572,42.502537 35.503679,42.405491 38.503497,42.502537 z "
       id="path603" />
    <path
       class="fil1"
       d="M 45.398334,15.110479 L 43.437109,3.8694561 L 38.400951,42.570383 L 29.881770,42.461907 C 33.244132,45.431209 37.240597,45.654740 40.101682,43.883014 C 42.933868,42.104344 42.927204,39.285011 42.487109,35.679579 C 42.104875,32.342815 42.898910,17.621752 45.398334,15.110479 z "
       id="path560"
       style="font-size:12.000000;fill:url(#linearGradient2305);fill-opacity:1.0000000;fill-rule:evenodd"
       nodetypes="cccscc"
       sodipodi:nodetypes="ccccssc" />
    <path
       style="font-size:12.000000;fill:url(#linearGradient2302);fill-opacity:1.0000000;fill-rule:evenodd"
       d="M 43.860469,56.790363 C 43.860469,56.790363 38.865804,51.789228 37.498526,50.277458 C 39.366133,51.539063 41.919214,55.261016 43.936964,54.769745 C 48.560350,53.644069 52.803162,46.404975 57.544341,43.146840 L 43.860469,56.790363 z "
       id="path605"
       sodipodi:nodetypes="ccscc" />
    <path
       style="font-size:12.000000;fill:url(#linearGradient2299);fill-rule:evenodd"
       d="M 40.195386,36.110401 L 43.044243,7.7404443 L 38.726747,42.474501 L 40.195386,36.110401 z "
       id="path607" />
    <path
       style="font-size:12.000000;fill:url(#linearGradient2296);fill-rule:evenodd"
       d="M 19.236000,1.0154290 L 18.908000,0.78342900 L 18.546000,0.61942900 L 18.176000,0.53142900 L 17.276000,0.46342900 L 16.820000,0.95542900 L 16.778000,1.0014290 L 16.704000,1.0774290 L 16.600000,1.1834290 L 16.472000,1.3134290 L 16.320000,1.4694290 L 15.964000,1.8354290 L 15.884000,1.9094290 L 15.792000,1.9894290 L 15.698000,2.0674280 L 15.602000,2.1414280 L 15.500000,2.2154280 L 15.396000,2.2874280 L 15.290000,2.3554280 L 15.180000,2.4234280 L 15.066000,2.4874280 L 14.950000,2.5494280 L 14.828000,2.6094300 L 14.702000,2.6694300 L 14.574000,2.7254300 L 14.442000,2.7774300 L 14.306000,2.8294300 L 13.270000,3.1874300 L 13.262000,4.2694300 L 13.254000,4.4034300 L 13.234000,4.5634300 L 13.206000,4.7474300 L 13.166000,4.9534300 L 13.114000,5.1814300 L 13.050000,5.4294300 L 12.974000,5.6954300 L 12.884000,5.9814300 L 12.784000,6.2874300 L 12.670000,6.6094300 L 12.544000,6.9494300 L 12.406000,7.3054300 L 12.256000,7.6794300 L 12.094000,8.0714300 L 11.902000,8.5214300 L 8.5480000,17.911430 L 8.4600000,18.159430 L 8.3740000,18.403430 L 8.2880000,18.643430 L 8.2020000,18.879430 L 8.1180000,19.111430 L 8.0360000,19.341430 L 7.9540000,19.565430 L 7.8740000,19.785430 L 7.7960000,20.005420 L 7.7160000,20.219420 L 7.6400000,20.429420 L 7.5600000,20.643440 L 7.4140000,21.037440 L 7.3400000,21.235440 L 7.2700000,21.427440 L 7.1980000,21.615440 L 7.1280000,21.799440 L 7.0600000,21.981440 L 6.9920000,22.159440 L 6.9260000,22.333440 L 6.8600000,22.503440 L 6.7940000,22.669440 L 6.7320000,22.831440 L 6.6700000,22.989440 L 6.6080000,23.147440 L 6.5480000,23.297440 L 6.4880000,23.443440 L 6.4300000,23.589440 L 6.3740000,23.729440 L 6.2680000,23.983440 L 6.1740000,24.199440 L 6.0820000,24.381440 L 5.9960000,24.535440 L 5.9180000,24.661440 L 5.8460000,24.759440 L 5.7860000,24.827440 L 5.7400000,24.871440 L 5.7160000,24.891440 L 5.6780000,24.915440 L 5.6060000,24.955440 L 5.5300000,24.989440 L 5.4500000,25.021440 L 5.3620000,25.049440 L 5.2720000,25.071440 L 5.1760000,25.089440 L 5.0520000,25.107440 L 3.4100000,25.295440 L 3.0040000,25.985440 L 2.9160000,26.171440 L 2.8440000,26.367440 L 2.7940000,26.565440 L 2.7600000,26.761440 L 2.7420000,26.957440 L 2.7400000,27.153440 L 2.7480000,27.287440 L 2.7540000,27.435440 L 2.7820000,27.653440 L 2.8300000,27.873440 L 2.9060000,28.093440 L 3.0060000,28.311440 L 3.1360000,28.519440 L 3.2920000,28.713440 L 3.8160000,29.215440 L 4.6520000,29.189440 L 4.9260000,29.179440 L 5.1940000,29.171440 L 5.4580000,29.161440 L 5.9680000,29.145440 L 6.2160000,29.139440 L 6.4580000,29.131440 L 6.6920000,29.123440 L 6.9240000,29.117440 L 7.1480000,29.111440 L 7.3660000,29.105440 L 7.5800000,29.099440 L 7.7880000,29.093440 L 7.9900000,29.087440 L 8.1580000,29.083440 L 8.4260000,29.089440 L 8.7160000,29.093440 L 9.2680000,29.103440 L 9.8500000,29.117440 L 10.378000,29.131440 L 10.664000,29.139440 L 10.932000,29.147440 L 11.194000,29.153440 L 11.452000,29.161440 L 11.708000,29.171440 L 11.962000,29.179440 L 12.212000,29.189440 L 12.982000,29.217440 L 13.514000,28.753440 L 13.696000,28.535440 L 13.838000,28.303440 L 13.942000,28.067440 L 14.010000,27.835440 L 14.054000,27.613440 L 14.078000,27.395440 L 14.084000,27.187440 L 14.080000,27.003440 L 14.064000,26.823440 L 14.038000,26.639440 L 13.994000,26.445440 L 13.930000,26.247440 L 13.840000,26.043440 L 13.720000,25.841440 L 13.314000,25.317440 L 11.724000,25.045440 L 11.592000,25.013440 L 11.560000,25.005440 L 11.584000,24.919440 L 11.648000,24.695440 L 12.976000,20.403420 L 12.988000,20.403420 L 17.156000,20.403420 L 17.374000,20.405420 L 17.570000,20.407420 L 17.744000,20.413420 L 17.754000,20.413420 L 18.678000,23.471440 L 18.766000,23.745440 L 18.846000,23.989440 L 18.918000,24.221440 L 18.986000,24.435440 L 19.046000,24.637440 L 19.102000,24.825440 L 19.152000,24.999440 L 19.174000,25.079440 L 17.740000,25.307440 L 17.318000,25.827440 L 17.192000,26.023440 L 17.086000,26.231440 L 17.008000,26.447440 L 16.950000,26.667440 L 16.918000,26.887440 L 16.904000,27.103440 L 16.910000,27.269440 L 16.918000,27.449440 L 16.952000,27.681440 L 17.010000,27.915440 L 17.098000,28.145440 L 17.214000,28.367440 L 17.360000,28.577440 L 17.530000,28.765440 L 18.058000,29.221440 L 18.882000,29.183440 L 19.182000,29.171440 L 19.484000,29.159440 L 19.786000,29.147440 L 20.090000,29.137440 L 20.396000,29.127440 L 20.704000,29.119440 L 21.014000,29.111440 L 21.324000,29.105440 L 21.638000,29.099440 L 21.952000,29.095440 L 22.268000,29.091440 L 22.586000,29.087440 L 22.906000,29.085440 L 23.228000,29.083440 L 23.550000,29.083440 L 23.734000,29.083440 L 23.916000,29.083440 L 24.100000,29.085440 L 24.284000,29.085440 L 24.466000,29.087440 L 24.648000,29.087440 L 25.010000,29.091440 L 25.368000,29.095440 L 25.550000,29.097440 L 25.728000,29.099440 L 25.906000,29.103440 L 26.086000,29.105440 L 26.264000,29.109440 L 26.440000,29.111440 L 26.616000,29.115440 L 26.792000,29.119440 L 27.144000,29.127440 L 27.494000,29.137440 L 27.668000,29.143440 L 27.842000,29.147440 L 28.014000,29.153440 L 28.186000,29.159440 L 28.360000,29.165440 L 28.530000,29.171440 L 28.702000,29.177440 L 28.874000,29.183440 L 29.044000,29.191440 L 29.786000,29.219440 L 30.320000,28.695440 L 30.482000,28.483440 L 30.610000,28.259440 L 30.706000,28.033440 L 30.774000,27.807440 L 30.818000,27.587440 L 30.842000,27.369440 L 30.852000,27.099440 L 30.826000,26.861440 L 30.796000,26.683440 L 30.754000,26.503440 L 30.696000,26.317440 L 30.616000,26.127440 L 30.510000,25.931440 L 30.372000,25.737440 L 29.958000,25.297440 L 28.148000,25.013440 L 28.030000,24.983440 L 27.936000,24.951440 L 27.862000,24.917440 L 27.806000,24.881440 L 27.760000,24.847440 L 27.720000,24.809440 L 27.682000,24.759440 L 27.608000,24.645440 L 27.556000,24.561440 L 27.514000,24.485440 L 27.468000,24.401440 L 27.422000,24.307440 L 27.376000,24.205440 L 27.330000,24.099440 L 27.284000,23.983440 L 27.222000,23.823440 L 27.148000,23.647440 L 27.080000,23.489440 L 27.010000,23.325440 L 26.938000,23.153440 L 26.860000,22.975440 L 26.782000,22.787440 L 26.702000,22.595440 L 26.636000,22.431440 L 21.602000,7.4054300 L 21.440000,6.9334300 L 21.290000,6.4834300 L 21.144000,6.0514300 L 21.008000,5.6394300 L 20.878000,5.2474300 L 20.756000,4.8754300 L 20.640000,4.5214300 L 20.532000,4.1874300 L 20.430000,3.8734300 L 20.338000,3.5794300 L 20.252000,3.3034300 L 20.174000,3.0474300 L 20.102000,2.8114300 L 20.038000,2.5954300 L 19.984000,2.4034280 L 19.930000,2.2134280 L 19.852000,1.9454290 L 19.708000,1.6174290 L 19.504000,1.3034290 L 19.236000,1.0154290 z M 15.342000,12.757430 L 15.384000,12.887430 L 15.484000,13.211430 L 16.264000,15.745430 L 14.384000,15.745430 L 15.128000,13.427430 L 15.238000,13.085430 L 15.342000,12.757430 z "
       id="path609" />
    <path
       style="font-size:12.000000;fill:url(#linearGradient2293);fill-opacity:1.0000000;fill-rule:evenodd"
       d="M 17.160000,19.085432 C 17.798000,19.085432 18.240000,19.111432 18.484000,19.161432 C 18.740000,19.257432 18.886000,19.469432 18.938000,19.775432 L 19.936000,23.075440 C 20.408000,24.515440 20.646000,25.385440 20.646000,25.685440 C 20.646000,25.795440 20.594000,25.917440 20.498000,26.037440 C 20.376000,26.165440 20.096000,26.269440 19.648000,26.339440 L 18.444000,26.531440 C 18.278000,26.715440 18.208000,26.947440 18.228000,27.221440 C 18.228000,27.509440 18.330000,27.733440 18.522000,27.879440 C 20.128000,27.803440 21.804000,27.765440 23.550000,27.765440 C 25.532000,27.765440 27.438000,27.803440 29.268000,27.879440 C 29.442000,27.733440 29.530000,27.483440 29.530000,27.151440 C 29.506000,26.851440 29.428000,26.639440 29.306000,26.531440 L 27.886000,26.307440 C 27.246000,26.179440 26.780000,25.859440 26.492000,25.347440 C 26.306000,25.059440 26.146000,24.713440 26.000000,24.317440 C 25.834000,23.927440 25.628000,23.453440 25.398000,22.891440 L 20.352000,7.8274320 C 19.482000,5.2614320 18.918000,3.5154320 18.662000,2.5754320 C 18.548000,2.0754320 18.260000,1.8254314 17.812000,1.8254314 C 17.766000,1.8774314 17.454000,2.1974320 16.884000,2.7794320 C 16.270000,3.3674320 15.502000,3.8214320 14.582000,4.1294320 C 14.608000,5.0954320 14.120000,6.7194320 13.130000,9.0034320 L 9.7900000,18.355432 C 8.8440000,21.017440 8.0760000,23.069440 7.4820000,24.503440 C 7.1800000,25.219440 6.8480000,25.705440 6.4840000,25.967440 C 6.1120000,26.217440 5.6840000,26.363440 5.2160000,26.415440 L 4.2120000,26.531440 C 4.0900000,26.715440 4.0400000,26.947440 4.0660000,27.221440 C 4.0660000,27.509440 4.1540000,27.733440 4.3280000,27.879440 C 5.8360000,27.829440 7.1160000,27.791440 8.1520000,27.765440 C 9.7400000,27.791440 11.192000,27.829440 12.508000,27.879440 C 12.682000,27.751440 12.764000,27.521440 12.764000,27.183440 C 12.764000,26.883440 12.708000,26.665440 12.586000,26.531440 L 11.460000,26.339440 C 10.936000,26.217440 10.596000,26.101440 10.424000,26.005440 C 10.218000,25.929440 10.116000,25.821440 10.116000,25.685440 C 10.092000,25.461440 10.180000,25.001440 10.386000,24.317440 L 11.766000,19.853432 C 11.862000,19.487432 11.998000,19.257432 12.170000,19.161432 C 12.284000,19.111432 12.560000,19.085432 12.982000,19.085432 L 17.160000,19.085432 z M 13.730000,17.063432 C 13.282000,17.089432 12.994000,17.005432 12.874000,16.821432 C 12.720000,16.693432 12.746000,16.385432 12.950000,15.899432 L 13.872000,13.027432 C 14.466000,11.153432 14.972000,9.7394320 15.400000,8.7854320 C 15.752000,9.7134320 16.200000,11.057432 16.744000,12.821432 L 17.702000,15.937432 C 17.914000,16.423432 17.952000,16.731432 17.818000,16.859432 C 17.690000,16.993432 17.408000,17.063432 16.962000,17.063432 L 13.730000,17.063432 z "
       id="path611" />
    <path
       style="font-size:12.000000;fill:url(#linearGradient2290);fill-rule:evenodd"
       d="M 29.508000,53.780000 L 29.550000,53.530000 L 29.586000,53.286000 L 29.620000,53.044000 L 29.646000,52.810000 L 29.670000,52.578000 L 29.686000,52.354000 L 29.726000,51.724000 L 29.408000,51.216000 L 29.246000,51.018000 L 29.056000,50.838000 L 28.850000,50.686000 L 28.634000,50.564000 L 28.412000,50.470000 L 28.194000,50.404000 L 28.000000,50.362000 L 27.800000,50.328000 L 27.564000,50.310000 L 27.326000,50.316000 L 27.092000,50.346000 L 26.860000,50.400000 L 26.640000,50.472000 L 26.434000,50.564000 L 25.910000,50.848000 L 25.546000,51.602000 L 25.376000,51.940000 L 25.206000,52.260000 L 25.038000,52.562000 L 24.872000,52.842000 L 24.706000,53.104000 L 24.544000,53.348000 L 24.384000,53.570000 L 24.228000,53.774000 L 24.076000,53.958000 L 23.928000,54.122000 L 23.786000,54.266000 L 23.650000,54.392000 L 23.522000,54.498000 L 23.400000,54.586000 L 23.284000,54.662000 L 23.154000,54.734000 L 23.006000,54.806000 L 22.850000,54.874000 L 22.680000,54.938000 L 22.500000,55.000000 L 22.310000,55.056000 L 22.106000,55.108000 L 21.892000,55.154000 L 21.666000,55.196000 L 21.428000,55.232000 L 21.176000,55.262000 L 20.916000,55.286000 L 20.642000,55.304000 L 20.358000,55.316000 L 20.062000,55.322000 L 19.738000,55.320000 L 16.180000,55.320000 L 15.910000,55.320000 L 15.656000,55.318000 L 15.414000,55.316000 L 15.186000,55.312000 L 14.968000,55.306000 L 14.764000,55.300000 L 14.576000,55.294000 L 14.522000,55.292000 L 14.744000,54.922000 L 14.798000,54.838000 L 14.870000,54.730000 L 14.944000,54.614000 L 15.022000,54.494000 L 15.104000,54.368000 L 15.190000,54.236000 L 15.278000,54.100000 L 15.370000,53.958000 L 15.464000,53.810000 L 15.562000,53.658000 L 15.664000,53.500000 L 15.770000,53.338000 L 15.878000,53.168000 L 15.990000,52.994000 L 16.224000,52.628000 L 16.346000,52.438000 L 16.472000,52.242000 L 16.600000,52.040000 L 16.732000,51.834000 L 16.868000,51.622000 L 17.008000,51.404000 L 17.296000,50.952000 L 17.444000,50.718000 L 17.596000,50.480000 L 17.752000,50.236000 L 17.912000,49.984000 L 18.074000,49.728000 L 18.240000,49.468000 L 18.410000,49.200000 L 18.582000,48.932000 L 22.754000,42.460000 L 23.038000,42.026000 L 23.320000,41.598000 L 23.596000,41.182000 L 23.862000,40.780000 L 24.122000,40.388000 L 24.376000,40.008000 L 24.622000,39.640000 L 24.862000,39.284000 L 25.092000,38.942000 L 25.318000,38.610000 L 25.534000,38.290000 L 25.744000,37.984000 L 25.948000,37.688000 L 26.144000,37.404000 L 26.332000,37.134000 L 26.514000,36.874000 L 26.688000,36.628000 L 26.856000,36.394000 L 27.014000,36.172000 L 27.166000,35.960000 L 27.310000,35.764000 L 27.448000,35.580000 L 27.578000,35.408000 L 27.700000,35.248000 L 27.814000,35.100000 L 27.918000,34.968000 L 28.016000,34.846000 L 28.104000,34.740000 L 28.182000,34.650000 L 28.250000,34.572000 L 28.306000,34.512000 L 28.680000,34.132000 L 28.754000,33.512000 L 28.752000,33.248000 L 28.712000,32.978000 L 28.626000,32.702000 L 28.494000,32.440000 L 28.328000,32.208000 L 28.140000,32.018000 L 27.560000,31.562000 L 26.926000,31.652000 L 26.840000,31.660000 L 26.720000,31.670000 L 26.570000,31.680000 L 26.394000,31.690000 L 26.192000,31.698000 L 25.966000,31.706000 L 25.712000,31.714000 L 25.436000,31.722000 L 25.138000,31.726000 L 24.816000,31.732000 L 24.468000,31.736000 L 24.098000,31.738000 L 23.706000,31.740000 L 23.290000,31.742000 L 22.850000,31.742000 L 12.220000,31.742000 L 11.988000,31.742000 L 11.770000,31.740000 L 11.562000,31.736000 L 11.368000,31.732000 L 11.186000,31.726000 L 11.016000,31.718000 L 10.860000,31.710000 L 10.718000,31.700000 L 10.586000,31.688000 L 10.472000,31.676000 L 10.372000,31.666000 L 10.288000,31.654000 L 10.284000,31.652000 L 10.080000,31.156000 L 9.5080000,30.896000 L 9.3680000,30.844000 L 9.2320000,30.802000 L 9.0940000,30.768000 L 8.9520000,30.744000 L 8.8140000,30.726000 L 8.6740000,30.716000 L 8.4480000,30.710000 L 8.2340000,30.744000 L 8.1080000,30.768000 L 7.9820000,30.800000 L 7.8560000,30.840000 L 7.7240000,30.888000 L 7.5920000,30.948000 L 7.4560000,31.024000 L 6.8960000,31.396000 L 6.7680000,32.138000 L 6.7380000,32.320000 L 6.7060000,32.504000 L 6.6720000,32.688000 L 6.6380000,32.876000 L 6.6020000,33.064000 L 6.5680000,33.256000 L 6.5300000,33.446000 L 6.4920000,33.642000 L 6.4540000,33.838000 L 6.4140000,34.038000 L 6.3740000,34.238000 L 6.3320000,34.440000 L 6.2900000,34.646000 L 6.2460000,34.852000 L 6.2020000,35.058000 L 6.1560000,35.268000 L 6.1100000,35.482000 L 6.0620000,35.696000 L 6.0160000,35.912000 L 5.9660000,36.130000 L 5.9160000,36.350000 L 5.8660000,36.572000 L 5.8140000,36.796000 L 5.7620000,37.020000 L 5.7080000,37.248000 L 5.6540000,37.478000 L 5.5980000,37.710000 L 5.5420000,37.942000 L 5.4840000,38.178000 L 5.4260000,38.416000 L 5.2220000,39.244000 L 5.6820000,39.888000 L 5.8720000,40.086000 L 6.0800000,40.250000 L 6.2920000,40.378000 L 6.5060000,40.476000 L 6.7200000,40.552000 L 6.9300000,40.608000 L 7.0920000,40.638000 L 7.2620000,40.672000 L 7.4960000,40.696000 L 7.7360000,40.700000 L 7.9740000,40.680000 L 8.2120000,40.638000 L 8.4480000,40.570000 L 8.6740000,40.478000 L 9.2840000,40.160000 L 9.5620000,39.402000 L 9.6620000,39.148000 L 9.7620000,38.906000 L 9.8660000,38.674000 L 9.9720000,38.454000 L 10.078000,38.246000 L 10.186000,38.050000 L 10.296000,37.864000 L 10.406000,37.692000 L 10.516000,37.530000 L 10.628000,37.380000 L 10.740000,37.240000 L 10.850000,37.114000 L 10.962000,36.996000 L 11.074000,36.890000 L 11.156000,36.816000 L 11.226000,36.768000 L 11.328000,36.706000 L 11.450000,36.642000 L 11.592000,36.578000 L 11.754000,36.516000 L 11.934000,36.458000 L 12.136000,36.400000 L 12.356000,36.348000 L 12.594000,36.302000 L 12.852000,36.260000 L 13.128000,36.224000 L 13.422000,36.194000 L 13.736000,36.170000 L 14.066000,36.152000 L 14.414000,36.142000 L 14.784000,36.138000 L 18.204000,36.138000 L 18.100000,36.314000 L 17.902000,36.648000 L 17.702000,36.980000 L 17.504000,37.308000 L 17.304000,37.636000 L 17.106000,37.960000 L 16.906000,38.284000 L 16.708000,38.604000 L 16.508000,38.922000 L 16.310000,39.238000 L 16.112000,39.552000 L 15.912000,39.862000 L 15.714000,40.172000 L 15.516000,40.478000 L 7.9700000,51.980000 L 7.8580000,52.142000 L 7.7400000,52.316000 L 7.6220000,52.494000 L 7.5020000,52.672000 L 7.3820000,52.852000 L 7.2600000,53.034000 L 7.1380000,53.218000 L 7.0160000,53.402000 L 6.8900000,53.590000 L 6.7640000,53.780000 L 6.6380000,53.972000 L 6.5120000,54.166000 L 6.3840000,54.360000 L 6.2540000,54.558000 L 6.1240000,54.758000 L 5.9900000,54.962000 L 5.8640000,55.158000 L 5.7460000,55.338000 L 5.6320000,55.512000 L 5.5240000,55.676000 L 5.4200000,55.834000 L 5.3180000,55.982000 L 5.2220000,56.124000 L 5.1320000,56.254000 L 5.0440000,56.380000 L 4.9600000,56.496000 L 4.8820000,56.604000 L 4.8100000,56.702000 L 4.7420000,56.792000 L 4.6780000,56.872000 L 4.6200000,56.944000 L 4.3680000,57.252000 L 4.2480000,57.754000 L 4.2220000,58.078000 L 4.2600000,58.426000 L 4.3700000,58.766000 L 4.5420000,59.072000 L 4.7580000,59.326000 L 4.9960000,59.524000 L 5.5880000,59.892000 L 6.1720000,59.800000 L 6.2720000,59.788000 L 6.3960000,59.774000 L 6.5400000,59.760000 L 6.7020000,59.748000 L 6.8840000,59.736000 L 7.0840000,59.726000 L 7.2800000,59.718000 L 18.986000,59.718000 L 19.220000,59.718000 L 19.452000,59.718000 L 19.916000,59.720000 L 20.376000,59.722000 L 20.606000,59.724000 L 20.834000,59.728000 L 21.294000,59.732000 L 21.740000,59.738000 L 21.966000,59.742000 L 22.192000,59.746000 L 22.416000,59.750000 L 22.650000,59.756000 L 22.886000,59.756000 L 23.112000,59.756000 L 23.342000,59.758000 L 23.576000,59.760000 L 23.812000,59.764000 L 24.056000,59.766000 L 24.302000,59.770000 L 24.552000,59.774000 L 24.806000,59.780000 L 25.064000,59.786000 L 25.578000,59.798000 L 25.866000,59.806000 L 26.144000,59.814000 L 26.424000,59.822000 L 27.554000,59.858000 L 27.990000,58.988000 L 28.056000,58.852000 L 28.122000,58.708000 L 28.192000,58.556000 L 28.262000,58.394000 L 28.334000,58.222000 L 28.408000,58.042000 L 28.500000,57.814000 L 28.576000,57.576000 L 28.640000,57.370000 L 28.700000,57.156000 L 28.762000,56.940000 L 28.820000,56.718000 L 28.880000,56.492000 L 28.936000,56.262000 L 28.994000,56.026000 L 29.050000,55.792000 L 29.106000,55.556000 L 29.162000,55.318000 L 29.218000,55.076000 L 29.308000,54.692000 L 29.390000,54.342000 L 29.458000,54.056000 L 29.508000,53.780000 z "
       id="path613" />
    <path
       style="font-size:12.000000;fill:url(#linearGradient2287);fill-opacity:1.0000000;fill-rule:evenodd"
       d="M 18.922000,34.820000 C 19.824000,34.820000 20.260000,34.896000 20.234000,35.044000 C 20.234000,35.216000 20.100000,35.524000 19.838000,35.966000 C 18.762000,37.800000 17.694000,39.548000 16.620000,41.198000 L 9.0660000,52.712000 C 8.4520000,53.614000 7.7980000,54.606000 7.0960000,55.680000 C 6.4240000,56.728000 5.9180000,57.452000 5.5800000,57.854000 C 5.4900000,58.142000 5.5860000,58.360000 5.8680000,58.514000 C 6.1540000,58.462000 6.6160000,58.424000 7.2480000,58.398000 C 7.8620000,58.398000 8.6560000,58.398000 9.6220000,58.398000 L 18.986000,58.398000 C 20.240000,58.398000 21.468000,58.412000 22.664000,58.436000 C 23.854000,58.436000 25.210000,58.462000 26.752000,58.514000 C 26.894000,58.238000 27.066000,57.854000 27.258000,57.368000 C 27.418000,56.882000 27.564000,56.332000 27.712000,55.718000 C 27.860000,55.104000 28.006000,54.464000 28.166000,53.786000 C 28.288000,53.154000 28.358000,52.578000 28.384000,52.066000 C 28.262000,51.842000 28.050000,51.708000 27.750000,51.656000 C 27.456000,51.592000 27.182000,51.644000 26.912000,51.804000 C 25.940000,53.876000 24.954000,55.206000 23.956000,55.796000 C 22.952000,56.384000 21.552000,56.664000 19.736000,56.640000 L 16.178000,56.640000 C 14.688000,56.640000 13.716000,56.588000 13.256000,56.492000 C 12.814000,56.402000 12.610000,56.282000 12.634000,56.134000 C 12.610000,55.986000 12.942000,55.348000 13.626000,54.222000 C 14.330000,53.146000 15.610000,51.152000 17.470000,48.222000 L 21.648000,41.742000 C 24.776000,36.976000 26.694000,34.244000 27.424000,33.528000 C 27.468000,33.278000 27.392000,33.086000 27.188000,32.946000 C 26.714000,33.022000 25.268000,33.060000 22.850000,33.060000 L 12.218000,33.060000 C 10.914000,33.060000 10.082000,32.996000 9.7300000,32.876000 C 9.5380000,32.798000 9.3980000,32.710000 9.3140000,32.614000 C 9.2180000,32.486000 9.1360000,32.332000 9.0580000,32.140000 C 8.9180000,32.070000 8.7400000,32.032000 8.5340000,32.032000 C 8.3420000,32.056000 8.1960000,32.108000 8.1000000,32.178000 C 7.7740000,34.122000 7.2880000,36.388000 6.6480000,38.972000 C 6.7680000,39.170000 7.0060000,39.292000 7.3380000,39.342000 C 7.6640000,39.420000 7.9580000,39.380000 8.2220000,39.228000 C 8.7840000,37.642000 9.4880000,36.490000 10.338000,35.780000 C 11.176000,35.140000 12.654000,34.820000 14.778000,34.820000 L 18.922000,34.820000 z "
       id="path615" />
  </g>
</svg>
