<?xml version="1.0" encoding="UTF-8" standalone="no"?>
<!-- Created with Inkscape (http://www.inkscape.org/) -->
<svg
   xmlns:dc="http://purl.org/dc/elements/1.1/"
   xmlns:cc="http://web.resource.org/cc/"
   xmlns:rdf="http://www.w3.org/1999/02/22-rdf-syntax-ns#"
   xmlns:svg="http://www.w3.org/2000/svg"
   xmlns="http://www.w3.org/2000/svg"
   xmlns:xlink="http://www.w3.org/1999/xlink"
   xmlns:sodipodi="http://inkscape.sourceforge.net/DTD/sodipodi-0.dtd"
   xmlns:inkscape="http://www.inkscape.org/namespaces/inkscape"
   sodipodi:docname="gtk-strikethrough.svg"
   sodipodi:docbase="/home/david/.icons/eXperience/normal/stock"
   inkscape:version="0.41+cvs"
   sodipodi:version="0.32"
   id="svg3076"
   height="48.000000pt"
   width="48.000000pt">
  <defs
     id="defs3">
    <linearGradient
       spreadMethod="pad"
       gradientUnits="objectBoundingBox"
       id="linearGradient741"
       y2="0"
       x2="1"
       y1="0"
       x1="0">
      <stop
         id="stop743"
         offset="0"
         style="stop-color:#ffffff;stop-opacity:1.0000;" />
      <stop
         id="stop742"
         offset="1"
         style="stop-color:#cacac5;stop-opacity:1.0000;" />
    </linearGradient>
    <linearGradient
       spreadMethod="pad"
       gradientUnits="objectBoundingBox"
       id="linearGradient1669"
       y2="0"
       x2="1"
       y1="0"
       x1="0">
      <stop
         id="stop1670"
         offset="0"
         style="stop-color:#ffffff;stop-opacity:1.0000;" />
      <stop
         id="stop1671"
         offset="1"
         style="stop-color:#ffffff;stop-opacity:0;" />
    </linearGradient>
    <linearGradient
       id="linearGradient774">
      <stop
         id="stop776"
         offset="0"
         style="stop-color:#000000;stop-opacity:1.0000;" />
      <stop
         id="stop775"
         offset="1"
         style="stop-color:#005dfa;stop-opacity:1.0000;" />
    </linearGradient>
    <linearGradient
       id="linearGradient770">
      <stop
         id="stop772"
         offset="0"
         style="stop-color:#002aff;stop-opacity:1.0000;" />
      <stop
         id="stop771"
         offset="1"
         style="stop-color:#ffffff;stop-opacity:1.0000;" />
    </linearGradient>
    <linearGradient
       inkscape:collect="always"
       xlink:href="#linearGradient774"
       id="linearGradient2132"
       gradientUnits="userSpaceOnUse"
       gradientTransform="scale(2.290309,0.436622)"
       x1="25342.230"
       y1="142389.11"
       x2="-1607.7700"
       y2="-12688.774" />
    <linearGradient
       inkscape:collect="always"
       xlink:href="#linearGradient774"
       id="linearGradient2134"
       gradientUnits="userSpaceOnUse"
       gradientTransform="scale(2.290309,0.436622)"
       x1="25342.230"
       y1="142389.11"
       x2="-1607.7700"
       y2="-12688.774" />
    <linearGradient
       inkscape:collect="always"
       xlink:href="#linearGradient770"
       id="linearGradient2139"
       gradientUnits="userSpaceOnUse"
       gradientTransform="scale(1.706572e-3,2.343880e-3)"
       x1="26120.137"
       y1="17007.990"
       x2="1082.9996"
       y2="-4516.1460" />
    <linearGradient
       inkscape:collect="always"
       xlink:href="#linearGradient770"
       id="linearGradient2144"
       gradientUnits="userSpaceOnUse"
       gradientTransform="scale(1.706572e-3,2.343880e-3)"
       x1="26120.137"
       y1="17007.990"
       x2="1082.9996"
       y2="-4516.1460" />
    <linearGradient
       inkscape:collect="always"
       xlink:href="#linearGradient1669"
       id="linearGradient2147"
       gradientUnits="userSpaceOnUse"
       x1="3419.6892"
       y1="-4196.8911"
       x2="17098.445"
       y2="15077.721"
       gradientTransform="scale(2.000000e-3,2.000000e-3)" />
    <linearGradient
       inkscape:collect="always"
       xlink:href="#linearGradient774"
       id="linearGradient2150"
       gradientUnits="userSpaceOnUse"
       gradientTransform="matrix(1.194560e-3,0.000000,0.000000,1.898527e-3,7.410652,7.410652)"
       x1="73171.688"
       y1="49314.871"
       x2="-4642.1821"
       y2="-4394.6143" />
    <radialGradient
       inkscape:collect="always"
       xlink:href="#linearGradient741"
       id="radialGradient2153"
       gradientUnits="userSpaceOnUse"
       spreadMethod="pad"
       cx="4374.7148"
       cy="5243.4980"
       fx="4374.7148"
       fy="5243.4980"
       r="56101.4688"
       gradientTransform="scale(2.000000e-3,2.000000e-3)" />
  </defs>
  <sodipodi:namedview
     inkscape:window-y="19"
     inkscape:window-x="1"
     inkscape:window-height="511"
     inkscape:window-width="721"
     gridtolerance="0.32000000pt"
     inkscape:current-layer="layer1"
     inkscape:document-units="pt"
     inkscape:cy="-22.857143"
     inkscape:cx="-189.60798"
     inkscape:zoom="0.70000000"
     inkscape:pageshadow="2"
     inkscape:pageopacity="0.0"
     borderopacity="1.0"
     bordercolor="#666666"
     pagecolor="#ffffff"
     id="base" />
  <metadata
     id="metadata4">
    <rdf:RDF
       id="RDF5">
      <cc:Work
         id="Work6"
         rdf:about="">
        <dc:format
           id="format7">image/svg+xml</dc:format>
        <dc:type
           rdf:resource="http://purl.org/dc/dcmitype/StillImage"
           id="type9" />
      </cc:Work>
    </rdf:RDF>
  </metadata>
  <g
     id="layer1"
     inkscape:groupmode="layer"
     inkscape:label="Layer 1">
    <path
       id="path631"
       style="font-size:12.000000;fill:#8b8d8d"
       d="M 7.5880000,3.7000000 L 52.412000,3.7000000 C 54.552000,3.7000000 56.300000,5.4480000 56.300000,7.5880000 L 56.300000,52.412000 C 56.300000,54.552000 54.552000,56.300000 52.412000,56.300000 L 7.5880000,56.300000 C 5.4480000,56.300000 3.7000000,54.552000 3.7000000,52.412000 L 3.7000000,7.5880000 C 3.7000000,5.4480000 5.4480000,3.7000000 7.5880000,3.7000000 z " />
    <path
       id="path632"
       style="font-size:12.000000;fill:url(#radialGradient2153)"
       d="M 7.9500000,5.3539980 L 52.050000,5.3539980 C 53.478000,5.3539980 54.646000,6.5219980 54.646000,7.9499980 L 54.646000,52.050000 C 54.646000,53.478000 53.478000,54.646000 52.050000,54.646000 L 7.9500000,54.646000 C 6.5220000,54.646000 5.3540000,53.478000 5.3540000,52.050000 L 5.3540000,7.9499980 C 5.3540000,6.5219980 6.5220000,5.3539980 7.9500000,5.3539980 z " />
    <path
       style="font-size:12.000000;fill:url(#linearGradient2150);fill-opacity:1.0000000;fill-rule:nonzero"
       id="path694"
       d="M 28.721435,47.017295 L 29.058770,47.011271 L 29.375020,47.000729 L 29.689765,46.985670 L 29.999992,46.964586 L 30.305701,46.937479 L 30.608398,46.905854 L 30.908083,46.868205 L 31.203251,46.826038 L 31.495406,46.779354 L 31.784550,46.725139 L 32.069176,46.666407 L 32.350789,46.601651 L 32.627885,46.532377 L 32.901969,46.457079 L 33.174547,46.374252 L 33.441101,46.288412 L 33.703138,46.195043 L 33.962162,46.097156 L 34.218175,45.991739 L 34.468163,45.881804 L 34.716646,45.765845 L 34.959105,45.643863 L 35.198552,45.515857 L 35.433481,45.381827 L 35.662387,45.243279 L 35.888280,45.097201 L 36.111161,44.946605 L 36.328019,44.788480 L 36.540359,44.625837 L 36.746675,44.457170 L 36.949979,44.282479 L 37.135212,44.113812 L 37.489111,43.787019 L 37.846023,43.421072 L 38.180345,43.038559 L 38.490572,42.639481 L 38.775198,42.223837 L 39.037234,41.794639 L 39.273669,41.350382 L 39.484503,40.889560 L 39.668230,40.418196 L 39.827861,39.933278 L 39.961891,39.437818 L 40.071826,38.930311 L 40.156159,38.412262 L 40.214892,37.883672 L 40.251034,37.344539 L 40.263082,36.790348 L 40.248023,36.306936 L 40.216398,35.843101 L 40.171219,35.388303 L 40.106463,34.941034 L 40.026647,34.502800 L 39.930266,34.072097 L 39.815813,33.650429 L 39.683289,33.236291 L 39.534199,32.831189 L 39.367038,32.436629 L 39.183312,32.054116 L 38.981514,31.679133 L 38.761644,31.314692 L 38.525209,30.963804 L 38.272208,30.624964 L 38.017702,30.314737 L 37.775243,30.028605 L 37.523748,29.743979 L 37.267736,29.468390 L 37.005699,29.198823 L 36.739145,28.939799 L 36.468073,28.688304 L 36.193989,28.445845 L 35.912375,28.210916 L 35.626244,27.985023 L 35.337100,27.769671 L 35.043439,27.561849 L 34.743753,27.361557 L 34.439550,27.171807 L 34.133841,26.991092 L 33.820602,26.819413 L 33.540495,26.674841 L 30.882482,25.205028 L 30.424672,24.920402 L 29.992462,24.631259 L 29.596396,24.342115 L 29.236472,24.054478 L 28.912692,23.771358 L 28.625054,23.489744 L 28.372054,23.214154 L 28.152184,22.943082 L 27.965445,22.676528 L 27.808826,22.419009 L 27.682326,22.167515 L 27.582933,21.920538 L 27.509141,21.678079 L 27.457938,21.440138 L 27.429325,21.199185 L 27.421795,20.926607 L 27.424807,20.753422 L 27.435349,20.578731 L 27.451914,20.410064 L 27.476010,20.245915 L 27.506129,20.086284 L 27.542272,19.929664 L 27.584439,19.777563 L 27.634135,19.628473 L 27.688350,19.483901 L 27.750094,19.342341 L 27.819368,19.200782 L 27.894666,19.062234 L 27.975987,18.926698 L 28.066344,18.791161 L 28.162726,18.658637 L 28.256095,18.542679 L 28.344946,18.444792 L 28.442833,18.351422 L 28.548250,18.264077 L 28.662703,18.179743 L 28.786191,18.101434 L 28.920222,18.027642 L 29.063287,17.958368 L 29.219907,17.893612 L 29.388574,17.834879 L 29.572300,17.780665 L 29.769581,17.733980 L 29.980415,17.693320 L 30.203296,17.658683 L 30.442743,17.633081 L 30.695744,17.615010 L 30.953262,17.605974 L 31.087292,17.607480 L 31.236382,17.611998 L 31.382460,17.619528 L 31.521008,17.628563 L 31.655038,17.642117 L 31.784550,17.657177 L 31.911050,17.673742 L 32.028515,17.693320 L 32.142967,17.715909 L 32.254408,17.740004 L 32.359825,17.767111 L 32.459218,17.794219 L 32.555599,17.825844 L 32.647463,17.857469 L 32.734808,17.892106 L 32.789023,17.914695 L 32.956184,18.002041 L 33.133886,18.107457 L 33.304059,18.217392 L 33.466703,18.334857 L 33.621816,18.459851 L 33.772412,18.592375 L 33.915478,18.730923 L 34.041978,18.864953 L 34.166972,19.017055 L 34.299496,19.190240 L 34.425997,19.367943 L 34.544967,19.545645 L 34.654902,19.724854 L 34.757307,19.907075 L 34.855194,20.093813 L 34.941034,20.274528 L 35.019343,20.464279 L 35.100665,20.672101 L 35.177469,20.876911 L 35.246743,21.080215 L 35.311499,21.282013 L 35.370231,21.482305 L 35.424446,21.681091 L 35.639797,22.539486 L 36.383739,22.890374 L 36.579514,22.964166 L 36.778300,23.022898 L 36.978592,23.063559 L 37.178884,23.090666 L 37.380682,23.104219 L 37.582480,23.102714 L 37.715005,23.092172 L 37.859576,23.086148 L 38.091494,23.056029 L 38.332447,22.997297 L 38.579423,22.905433 L 38.824894,22.774415 L 39.055305,22.604242 L 39.263127,22.397926 L 39.648652,21.872347 L 39.644134,21.185632 L 39.641122,20.958232 L 39.635098,20.729327 L 39.627569,20.500422 L 39.618533,20.271516 L 39.606485,20.042611 L 39.591426,19.813706 L 39.576366,19.584800 L 39.556789,19.354389 L 39.537211,19.125484 L 39.514622,18.896578 L 39.490527,18.664661 L 39.464925,18.435756 L 39.437818,18.206851 L 39.407699,17.976439 L 39.376074,17.741510 L 39.339931,17.503569 L 39.303788,17.277676 L 39.266139,17.057806 L 39.226984,16.842454 L 39.184818,16.634632 L 39.142651,16.432834 L 39.098978,16.238566 L 39.052294,16.048816 L 39.004103,15.863583 L 38.952900,15.685880 L 38.900192,15.512695 L 38.842966,15.342522 L 38.782727,15.178373 L 38.719477,15.018742 L 38.653215,14.863628 L 38.308351,14.134746 L 37.477064,13.925418 L 37.290325,13.878733 L 37.103586,13.833554 L 36.916848,13.788376 L 36.730109,13.744703 L 36.544877,13.701030 L 36.358138,13.658863 L 36.171400,13.616697 L 35.984661,13.574530 L 35.799429,13.535375 L 35.615702,13.496220 L 35.430469,13.457065 L 35.245237,13.420922 L 35.061510,13.384779 L 34.879289,13.348637 L 34.715140,13.318517 L 34.543461,13.282374 L 34.346181,13.243220 L 34.147395,13.208583 L 33.945597,13.173946 L 33.739281,13.143826 L 33.534471,13.115213 L 33.325143,13.091118 L 33.114309,13.068529 L 32.900463,13.047445 L 32.685112,13.030880 L 32.468254,13.015820 L 32.249890,13.003773 L 32.025503,12.994737 L 31.802621,12.988713 L 31.578234,12.984195 L 31.341799,12.982689 L 31.015006,12.988713 L 30.701767,12.999255 L 30.390035,13.014314 L 30.082820,13.033892 L 29.780122,13.059493 L 29.481943,13.089612 L 29.186776,13.125755 L 28.896126,13.166416 L 28.608489,13.213100 L 28.325369,13.262797 L 28.046767,13.320023 L 27.771177,13.381768 L 27.500105,13.449536 L 27.235057,13.521821 L 26.971514,13.600131 L 26.712490,13.682959 L 26.456478,13.773316 L 26.207995,13.869697 L 25.961018,13.970596 L 25.720065,14.077519 L 25.482124,14.190466 L 25.250207,14.307930 L 25.021301,14.432925 L 24.798420,14.563943 L 24.578550,14.699479 L 24.366211,14.842545 L 24.156883,14.990129 L 23.953579,15.143736 L 23.754792,15.304873 L 23.562030,15.470529 L 23.373786,15.642207 L 23.199095,15.812381 L 22.870796,16.143691 L 22.548522,16.500602 L 22.245825,16.871068 L 21.964211,17.253580 L 21.703680,17.649647 L 21.465739,18.054749 L 21.248882,18.471899 L 21.054613,18.899590 L 20.884440,19.336318 L 20.736857,19.783586 L 20.611862,20.239891 L 20.509457,20.703726 L 20.431148,21.175090 L 20.375427,21.653984 L 20.342296,22.140408 L 20.331754,22.640385 L 20.345308,23.083136 L 20.375427,23.507816 L 20.422112,23.926471 L 20.485362,24.339103 L 20.566684,24.745712 L 20.663065,25.146296 L 20.777517,25.539350 L 20.907030,25.924875 L 21.054613,26.304376 L 21.220269,26.674841 L 21.402489,27.037777 L 21.599769,27.390170 L 21.815121,27.735034 L 22.045532,28.070862 L 22.292509,28.397655 L 22.540992,28.694328 L 22.780439,28.978954 L 23.033440,29.263580 L 23.292464,29.543687 L 23.557512,29.816265 L 23.828584,30.081314 L 24.107186,30.341844 L 24.390306,30.594845 L 24.679449,30.841821 L 24.974617,31.081268 L 25.275808,31.314692 L 25.583023,31.542091 L 25.896262,31.763466 L 26.215525,31.977312 L 26.539305,32.185134 L 26.869109,32.386932 L 27.192890,32.573671 L 29.076841,33.659465 L 29.372008,33.828132 L 29.640069,33.987763 L 29.896081,34.148901 L 30.138540,34.308532 L 30.368951,34.469669 L 30.587315,34.629301 L 30.792125,34.788932 L 30.983381,34.947057 L 31.162590,35.103677 L 31.329751,35.261802 L 31.484865,35.416916 L 31.627930,35.570523 L 31.757443,35.722625 L 31.877919,35.873220 L 31.984842,36.020804 L 32.072187,36.150316 L 32.152003,36.291876 L 32.239349,36.457531 L 32.319164,36.624692 L 32.392956,36.791854 L 32.460724,36.962027 L 32.522468,37.132200 L 32.578189,37.306891 L 32.629391,37.480075 L 32.673064,37.656272 L 32.710713,37.836987 L 32.743844,38.020714 L 32.770951,38.205946 L 32.792034,38.394191 L 32.807094,38.583941 L 32.816130,38.779715 L 32.819142,38.973984 L 32.814624,39.175782 L 32.802576,39.367038 L 32.782999,39.552271 L 32.757397,39.728468 L 32.724266,39.897135 L 32.683606,40.059778 L 32.636921,40.214892 L 32.585718,40.365487 L 32.525480,40.510059 L 32.459218,40.650113 L 32.386932,40.787155 L 32.307117,40.919679 L 32.219771,41.049191 L 32.124896,41.175691 L 32.020985,41.300686 L 31.921592,41.409115 L 31.808645,41.516038 L 31.679133,41.624466 L 31.545103,41.726871 L 31.405049,41.818735 L 31.257465,41.906080 L 31.103858,41.985896 L 30.941214,42.059688 L 30.769536,42.125950 L 30.588821,42.186188 L 30.397564,42.238896 L 30.197272,42.285581 L 29.984932,42.323230 L 29.760545,42.353349 L 29.527122,42.375938 L 29.281651,42.387986 L 29.024133,42.394010 L 28.879561,42.390998 L 28.734989,42.383468 L 28.593429,42.371421 L 28.454881,42.354855 L 28.319345,42.335278 L 28.185315,42.309676 L 28.054297,42.279557 L 27.924785,42.244920 L 27.796778,42.205765 L 27.670278,42.162093 L 27.545284,42.113902 L 27.423301,42.061194 L 27.299813,42.002461 L 27.177830,41.940717 L 27.057354,41.872949 L 26.935372,41.799157 L 26.670323,41.625972 L 26.420335,41.448270 L 26.182394,41.261531 L 25.951982,41.064251 L 25.730607,40.859441 L 25.518267,40.642583 L 25.314963,40.416690 L 25.114671,40.172725 L 25.019796,40.050742 L 24.920402,39.918218 L 24.822515,39.785694 L 24.727640,39.651664 L 24.634271,39.517634 L 24.543913,39.386616 L 24.458074,39.255598 L 24.372234,39.121567 L 24.289407,38.989043 L 24.209591,38.859531 L 24.132787,38.728513 L 24.057490,38.595989 L 23.985204,38.464971 L 23.915930,38.333953 L 23.846656,38.202934 L 23.783406,38.074928 L 23.655399,37.805362 L 23.530405,37.535796 L 23.411434,37.276771 L 23.296982,37.023771 L 23.187047,36.781312 L 23.084642,36.547889 L 22.985249,36.323501 L 22.777427,35.844607 L 22.441599,35.525345 L 22.224741,35.364207 L 21.985294,35.231683 L 21.733800,35.132290 L 21.480799,35.069040 L 21.233822,35.034403 L 20.992869,35.025367 L 20.748904,35.038921 L 20.500422,35.078076 L 20.254951,35.145844 L 20.007974,35.242225 L 19.774551,35.370231 L 19.557693,35.526851 L 19.363425,35.704553 L 19.197770,35.898822 L 18.848388,36.407835 L 18.851400,37.127682 L 18.855918,37.412307 L 18.864953,37.696933 L 18.875495,37.977041 L 18.889049,38.255643 L 18.907120,38.534245 L 18.928203,38.809835 L 18.952299,39.082413 L 18.979406,39.353485 L 19.009525,39.621545 L 19.044162,39.889605 L 19.080305,40.154653 L 19.120966,40.418196 L 19.164639,40.680232 L 19.211323,40.939256 L 19.259514,41.181715 L 19.304692,41.425680 L 19.358907,41.680187 L 19.417639,41.928669 L 19.479383,42.168116 L 19.547151,42.403046 L 19.619437,42.630445 L 19.694735,42.851821 L 19.750455,42.999404 L 19.795634,43.146988 L 19.861896,43.353304 L 19.932676,43.552090 L 20.006468,43.743346 L 20.084778,43.928579 L 20.170617,44.109294 L 20.263986,44.288503 L 20.513975,44.711676 L 20.893476,44.960159 L 21.019976,45.038469 L 21.150995,45.113766 L 21.286531,45.189064 L 21.426584,45.262856 L 21.577180,45.339660 L 21.732294,45.414958 L 21.891925,45.491761 L 22.059086,45.568565 L 22.236789,45.648381 L 22.419009,45.728196 L 22.610266,45.809518 L 22.807546,45.893852 L 23.015368,45.978185 L 23.229214,46.065531 L 23.449083,46.151370 L 23.696060,46.249257 L 23.974662,46.347144 L 24.260794,46.437502 L 24.552949,46.521835 L 24.854140,46.597133 L 25.164367,46.666407 L 25.482124,46.729657 L 25.805905,46.785378 L 26.137215,46.835074 L 26.479067,46.878747 L 26.829955,46.916396 L 27.186866,46.948021 L 27.552813,46.973622 L 27.927797,46.994705 L 28.311815,47.008259 L 28.721435,47.017295 z "
       class="fil0" />
    <path
       id="path1668"
       style="font-size:12.000000;fill:url(#linearGradient2147);fill-opacity:1.0000000"
       d="M 7.9500000,5.3540020 L 52.050000,5.3540020 C 53.478000,5.3540020 54.646000,6.5220020 54.646000,7.9500000 C 51.217420,18.616670 43.983000,17.528234 22.426200,21.693600 C 13.684172,23.175920 17.163528,39.954200 5.3540000,47.288100 L 5.3540000,7.9500000 C 5.3540000,6.5220020 6.5220000,5.3540020 7.9500000,5.3540020 z " />
    <path
       style="font-size:12.000000;fill:url(#linearGradient2144);fill-rule:evenodd"
       id="path697"
       d="M 28.725960,45.607740 C 31.920100,45.577620 34.409440,44.735780 36.183460,43.073200 C 37.965000,41.517560 38.852020,39.427280 38.852020,36.796380 C 38.821900,34.517860 38.183360,32.661020 36.934940,31.218320 C 35.740700,29.766580 34.386860,28.668740 32.876380,27.917260 L 30.168660,26.421840 C 27.364580,24.744220 25.982100,22.917480 26.010720,20.932640 C 26.010720,19.670642 26.402280,18.565270 27.183860,17.625552 C 27.980520,16.700896 29.228960,16.226518 30.935200,16.196400 C 31.906540,16.196400 32.725780,16.339466 33.394420,16.640656 C 34.063080,16.970462 34.627800,17.407188 35.100680,17.932768 C 35.567520,18.482442 35.942500,19.068258 36.228640,19.700760 C 36.499700,20.331760 36.701500,20.947700 36.844580,21.550080 C 37.078000,21.670560 37.341540,21.714220 37.635200,21.685620 C 37.919820,21.685620 38.123120,21.595260 38.236080,21.414540 C 38.236080,20.271520 38.145720,19.113438 37.980060,17.940298 C 37.806880,16.746074 37.590020,15.881654 37.318940,15.339510 C 36.341580,15.091028 35.379280,14.874170 34.439560,14.700984 C 33.514900,14.497680 32.484820,14.392264 31.349340,14.392264 C 28.153700,14.422382 25.771280,15.226564 24.191520,16.813842 C 22.560580,18.384554 21.741340,20.324220 21.741340,22.632860 C 21.771460,24.661380 22.394920,26.376660 23.620760,27.789260 C 24.808960,29.225940 26.236620,30.414140 27.899200,31.353860 L 29.778620,32.436640 C 31.439700,33.359780 32.605300,34.352220 33.273940,35.412400 C 33.912480,36.495180 34.228720,37.683380 34.228720,38.977000 C 34.228720,40.359480 33.793500,41.494960 32.927580,42.397040 C 31.987860,43.336760 30.688220,43.803600 29.025640,43.803600 C 27.988040,43.803600 27.040800,43.532520 26.183900,42.991880 C 25.349600,42.472340 24.620720,41.826280 24.012320,41.052220 C 23.402400,40.269120 22.906940,39.487520 22.515400,38.690880 C 22.147940,37.916820 21.846760,37.239140 21.598260,36.668380 C 21.432620,36.487660 21.199200,36.412360 20.899500,36.442480 C 20.613380,36.472600 20.402540,36.608140 20.260980,36.841560 C 20.260980,38.291800 20.387480,39.653180 20.643500,40.916680 C 20.756440,41.547680 20.907040,42.088320 21.087740,42.547620 C 21.229300,43.043080 21.387440,43.434640 21.560620,43.713240 C 21.997340,44.006900 22.801520,44.381880 23.967140,44.841200 C 25.131240,45.321600 26.718520,45.577620 28.725960,45.607740 z "
       class="fil1" />
    <g
       transform="matrix(1.505956e-3,0.000000,0.000000,1.505956e-3,7.410652,7.410652)"
       style="font-size:12.000000;fill:url(#linearGradient2132);shape-rendering:geometricPrecision;text-rendering:geometricPrecision;image-rendering:optimizeQuality;fill-rule:evenodd;fill-opacity:1.0000000"
       id="g699">
      <path
         style="fill:url(#linearGradient2134);fill-opacity:1.0"
         id="path701"
         d="M6518 13959l16964 0 0 3234 -16964 0 0 -3234z"
         class="fil2" />
    </g>
    <path
       style="font-size:12.000000;fill:url(#linearGradient2139);fill-rule:evenodd"
       id="path704"
       d="M 18.636052,29.841880 L 41.363940,29.841880 L 41.363940,31.892980 L 18.636052,31.892980 L 18.636052,29.841880 z "
       class="fil3" />
  </g>
</svg>
