<?xml version="1.0" encoding="UTF-8" standalone="no"?>
<!-- Created with Sodipodi ("http://www.sodipodi.com/") -->
<svg
   xmlns:xml="http://www.w3.org/XML/1998/namespace"
   xmlns:dc="http://purl.org/dc/elements/1.1/"
   xmlns:cc="http://web.resource.org/cc/"
   xmlns:rdf="http://www.w3.org/1999/02/22-rdf-syntax-ns#"
   xmlns:svg="http://www.w3.org/2000/svg"
   xmlns="http://www.w3.org/2000/svg"
   xmlns:xlink="http://www.w3.org/1999/xlink"
   xmlns:sodipodi="http://inkscape.sourceforge.net/DTD/sodipodi-0.dtd"
   xmlns:inkscape="http://www.inkscape.org/namespaces/inkscape"
   xml:space="preserve"
   width="60.000000px"
   height="60.000000px"
   shape-rendering="geometricPrecision"
   text-rendering="geometricPrecision"
   image-rendering="optimizeQuality"
   fill-rule="evenodd"
   id="svg1393"
   sodipodi:version="0.32"
   sodipodi:docname="gtk-network.svg"
   sodipodi:docbase="/home/david/.icons/eXperience/normal/stock"
   inkscape:version="0.41+cvs"><metadata
   id="metadata123"><rdf:RDF
     id="RDF125"><cc:Work
       rdf:about=""
       id="Work127"><dc:format
         id="format129">image/svg+xml</dc:format><dc:type
         id="type131"
         rdf:resource="http://purl.org/dc/dcmitype/StillImage" /></cc:Work></rdf:RDF></metadata><defs
   id="defs1586"><linearGradient
     id="linearGradient3260"
     inkscape:collect="always"><stop
       id="stop3262"
       offset="0"
       style="stop-color:#1164ec;stop-opacity:1;" /><stop
       id="stop3264"
       offset="1"
       style="stop-color:#1164ec;stop-opacity:0;" /></linearGradient><linearGradient
     id="linearGradient3507">
  <stop
   offset="0.0000000"
   style="stop-color:#000000;stop-opacity:1.0000000;"
   id="stop3508" />
  <stop
   offset="0.78700000"
   style="stop-color:#000000;stop-opacity:0.74901962;"
   id="stop3510" />
  <stop
   offset="1.0000000"
   style="stop-color:#000000;stop-opacity:0.0000000;"
   id="stop3509" />
</linearGradient><linearGradient
     id="linearGradient3503">
  <stop
   offset="0.0000000"
   style="stop-color:#000000;stop-opacity:1.0000000;"
   id="stop3505" />
  <stop
   offset="1.0000000"
   style="stop-color:#ffffff;stop-opacity:1.0000000;"
   id="stop3504" />
</linearGradient><linearGradient
     id="linearGradient3498">
  <stop
   offset="0.0000000"
   style="stop-color:#000000;stop-opacity:1.0000000;"
   id="stop3501" />


  <stop
   offset="0.38039199"
   style="stop-color:#7f7f7f;stop-opacity:1.0000000;"
   id="stop3500" />


  <stop
   offset="1.0000000"
   style="stop-color:#ffffff;stop-opacity:1.0000000;"
   id="stop3499" />


</linearGradient><linearGradient
     id="linearGradient3906">
  <stop
   offset="0.0000000"
   style="stop-color:#000000;stop-opacity:1.0000000;"
   id="stop3909" />



  <stop
   offset="0.50980401"
   style="stop-color:#a5a5a5;stop-opacity:1.0000000;"
   id="stop3908" />



  <stop
   offset="1.0000000"
   style="stop-color:#ffffff;stop-opacity:1.0000000;"
   id="stop3907" />



</linearGradient><linearGradient
     id="linearGradient3901">
  <stop
   offset="0.0000000"
   style="stop-color:#000000;stop-opacity:1.0000000;"
   id="stop3904" />



  <stop
   offset="0.27058801"
   style="stop-color:#7f7f7f;stop-opacity:1.0000000;"
   id="stop3903" />



  <stop
   offset="1.0000000"
   style="stop-color:#ffffff;stop-opacity:1.0000000;"
   id="stop3902" />



</linearGradient><linearGradient
     id="linearGradient3896">
  <stop
   offset="0.0000000"
   style="stop-color:#000000;stop-opacity:1.0000000;"
   id="stop3899" />



  <stop
   offset="0.27058801"
   style="stop-color:#7f7f7f;stop-opacity:1.0000000;"
   id="stop3898" />



  <stop
   offset="1.0000000"
   style="stop-color:#ffffff;stop-opacity:1.0000000;"
   id="stop3897" />



</linearGradient><linearGradient
     id="linearGradient3891">
  <stop
   offset="0.0000000"
   style="stop-color:#ffffff;stop-opacity:1.0000000;"
   id="stop3895" />



  <stop
   offset="0.40000001"
   style="stop-color:#cdcdcd;stop-opacity:1.0000000;"
   id="stop3894" />



  <stop
   offset="0.87843102"
   style="stop-color:#dfdfdf;stop-opacity:1.0000000;"
   id="stop3893" />



  <stop
   offset="1.0000000"
   style="stop-color:#ffffff;stop-opacity:1.0000000;"
   id="stop3892" />



</linearGradient><linearGradient
     id="linearGradient3835">
  <stop
   offset="0.0000000"
   style="stop-color:#828282;stop-opacity:1.0000000;"
   id="stop3837" />



  <stop
   offset="1.0000000"
   style="stop-color:#ffffff;stop-opacity:1.0000000;"
   id="stop3836" />



</linearGradient><linearGradient
     id="linearGradient3247">
  <stop
   offset="0.0000000"
   style="stop-color:#000000;stop-opacity:1.0000000;"
   id="stop3249" />



  <stop
   offset="1.0000000"
   style="stop-color:#ffffff;stop-opacity:1.0000000;"
   id="stop3248" />



</linearGradient><linearGradient
     id="linearGradient763">
  <stop
   offset="0"
   style="stop-color:#ffffff;stop-opacity:1.0000;"
   id="stop765" />







  <stop
   offset="1"
   style="stop-color:#fffffd;stop-opacity:0;"
   id="stop767" />







</linearGradient><linearGradient
     id="linearGradient1888">
    <stop
   offset="0"
   style="stop-color:#ffffff;stop-opacity:1.0000;"
   id="stop1890" />








    <stop
   offset="1"
   style="stop-color:#2f82ff;stop-opacity:1.0000;"
   id="stop1889" />








  </linearGradient><linearGradient
     id="linearGradient1947"><stop
       offset="0.69999999"
       style="stop-color:#67b00a;stop-opacity:1.0000000;"
       id="stop1949" /><stop
       offset="1.0000000"
       style="stop-color:#85ff00;stop-opacity:1.0000000;"
       id="stop1948" /></linearGradient><linearGradient
     id="linearGradient775"><stop
       offset="0.0000000"
       style="stop-color:#000000;stop-opacity:0.81250000;"
       id="stop777" /><stop
       id="stop3110"
       style="stop-color:#000000;stop-opacity:0.50000000;"
       offset="0.50000000" /><stop
       offset="1.0000000"
       style="stop-color:#000000;stop-opacity:0.0000000;"
       id="stop779" /></linearGradient><linearGradient
     id="linearGradient3565"><stop
       style="stop-color:#c5c8ff;stop-opacity:1.0000000;"
       offset="0.0000000"
       id="stop3567" /><stop
       style="stop-color:#2241c8;stop-opacity:1.0000000;"
       offset="1.0000000"
       id="stop3569" /></linearGradient><linearGradient
     id="linearGradient2059"><stop
       id="stop2061"
       offset="0.0000000"
       style="stop-color:#78acff;stop-opacity:1.0000000;" /><stop
       id="stop2063"
       offset="1.0000000"
       style="stop-color:#245bd3;stop-opacity:1.0000000;" /></linearGradient><linearGradient
     id="linearGradient3116"><stop
       id="stop3118"
       style="stop-opacity:1.0000000;stop-color:#abf949"
       offset="0.69999999" /><stop
       id="stop3120"
       style="stop-opacity:1.0000000;stop-color:#549e00"
       offset="1.0000000" /></linearGradient><radialGradient
     inkscape:collect="always"
     xlink:href="#linearGradient775"
     id="radialGradient2251"
     gradientUnits="userSpaceOnUse"
     gradientTransform="matrix(1.000000,0.000000,0.000000,0.348315,3.713801e-12,19240.23)"
     cx="12571.429"
     cy="29523.809"
     fx="12571.429"
     fy="29523.809"
     r="8476.1904" /><radialGradient
     inkscape:collect="always"
     xlink:href="#linearGradient2059"
     id="radialGradient2253"
     gradientUnits="userSpaceOnUse"
     gradientTransform="matrix(-0.364932,-0.517197,0.802699,-0.566386,25.86979,38.43256)"
     cx="44.919426"
     cy="1.6170073"
     fx="44.919426"
     fy="1.6170073"
     r="27.268733" /><radialGradient
     inkscape:collect="always"
     xlink:href="#linearGradient3565"
     id="radialGradient2255"
     gradientUnits="userSpaceOnUse"
     gradientTransform="matrix(-0.348419,-1.658671,2.158876,-0.453556,142.6139,208.0555)"
     cx="95.778847"
     cy="-27.914494"
     fx="95.778847"
     fy="-27.914494"
     r="27.268733" /><radialGradient
     inkscape:collect="always"
     xlink:href="#linearGradient1947"
     id="radialGradient2257"
     gradientUnits="userSpaceOnUse"
     gradientTransform="matrix(0.839540,0.635996,-0.406185,0.536184,143.9677,108.8689)"
     cx="-166.72978"
     cy="-1.0897120"
     fx="-166.72978"
     fy="-1.0897120"
     r="45.540088" /><radialGradient
     inkscape:collect="always"
     xlink:href="#linearGradient763"
     id="radialGradient2259"
     gradientUnits="userSpaceOnUse"
     gradientTransform="matrix(1.132285,-0.412679,0.414458,1.137170,1.431750,4.263392)"
     cx="10.945668"
     cy="-10.721850"
     fx="10.945668"
     fy="-10.721850"
     r="31.370909" /><radialGradient
     inkscape:collect="always"
     xlink:href="#linearGradient3116"
     id="radialGradient2261"
     gradientUnits="userSpaceOnUse"
     gradientTransform="matrix(0.476943,1.741163,-1.366342,0.374264,32.46214,-186.7916)"
     cx="94.797943"
     cy="48.357563"
     fx="94.797943"
     fy="48.357563"
     r="23.753850" /><radialGradient
     inkscape:collect="always"
     xlink:href="#linearGradient3507"
     id="radialGradient2263"
     cx="-4.9651209"
     cy="77.032923"
     fx="-4.9651209"
     fy="77.032923"
     r="9.8744539"
     gradientTransform="scale(1.536229,0.650945)"
     gradientUnits="userSpaceOnUse" /><linearGradient
     inkscape:collect="always"
     xlink:href="#linearGradient3503"
     id="linearGradient2265"
     gradientUnits="userSpaceOnUse"
     spreadMethod="pad"
     x1="35919.000"
     y1="31432.000"
     x2="10289.000"
     y2="20934.000" /><linearGradient
     inkscape:collect="always"
     xlink:href="#linearGradient3835"
     id="linearGradient2267"
     gradientUnits="userSpaceOnUse"
     x1="45311.812"
     y1="46339.297"
     x2="13984.000"
     y2="22961.889" /><linearGradient
     inkscape:collect="always"
     xlink:href="#linearGradient3901"
     id="linearGradient2277"
     gradientUnits="userSpaceOnUse"
     gradientTransform="matrix(1.284835,0.000000,0.000000,1.284835,124.7943,-47.90786)"
     x1="104.83418"
     y1="97.245689"
     x2="18.287123"
     y2="3.0084519" /><linearGradient
     inkscape:collect="always"
     xlink:href="#linearGradient3901"
     id="linearGradient2279"
     gradientUnits="userSpaceOnUse"
     x1="-46.077564"
     y1="-68.344788"
     x2="98.188980"
     y2="75.921753" /><linearGradient
     inkscape:collect="always"
     xlink:href="#linearGradient763"
     id="linearGradient2281"
     gradientUnits="userSpaceOnUse"
     x1="33.582916"
     y1="26.905378"
     x2="60.585392"
     y2="49.922516" /><radialGradient
     inkscape:collect="always"
     xlink:href="#linearGradient1888"
     id="radialGradient2283"
     gradientUnits="userSpaceOnUse"
     gradientTransform="matrix(0.564511,2.167581,-4.538955,1.182110,34.30314,-64.47381)"
     cx="26.870626"
     cy="1.8305982"
     fx="26.870626"
     fy="1.8305982"
     r="23.220965" /><linearGradient
     inkscape:collect="always"
     xlink:href="#linearGradient3896"
     id="linearGradient2285"
     gradientUnits="userSpaceOnUse"
     gradientTransform="matrix(0.985670,0.000000,0.000000,1.093911,128.2238,-49.36797)"
     x1="48.529095"
     y1="89.738075"
     x2="33.169331"
     y2="8.9657488" /><linearGradient
     inkscape:collect="always"
     xlink:href="#linearGradient3891"
     id="linearGradient2294"
     gradientUnits="userSpaceOnUse"
     x1="48.584187"
     y1="45.297169"
     x2="41.358562"
     y2="46.320377" /><linearGradient
     inkscape:collect="always"
     xlink:href="#linearGradient3498"
     id="linearGradient2297"
     gradientUnits="userSpaceOnUse"
     x1="34.757740"
     y1="47.984699"
     x2="41.370853"
     y2="46.826473" /><linearGradient
     inkscape:collect="always"
     xlink:href="#linearGradient3906"
     id="linearGradient2300"
     gradientUnits="userSpaceOnUse"
     x1="55.361603"
     y1="42.386826"
     x2="40.238621"
     y2="42.983715" /><linearGradient
     inkscape:collect="always"
     xlink:href="#linearGradient3247"
     id="linearGradient2303"
     gradientUnits="userSpaceOnUse"
     x1="66.306602"
     y1="73.642776"
     x2="41.139889"
     y2="44.311832" /><linearGradient
     gradientUnits="userSpaceOnUse"
     y2="-28.209549"
     x2="21.547653"
     y1="48.860023"
     x1="31.676796"
     id="linearGradient3242"
     xlink:href="#linearGradient3260"
     inkscape:collect="always" /><linearGradient
     gradientUnits="userSpaceOnUse"
     y2="41.657028"
     x2="24.203856"
     y1="45.838840"
     x1="63.994488"
     id="linearGradient3272"
     xlink:href="#linearGradient3247"
     inkscape:collect="always" /></defs>
















<sodipodi:namedview
   id="base"
   showguides="false"
   snaptoguides="false"
   inkscape:zoom="3.9456522"
   inkscape:cx="89.764254"
   inkscape:cy="17.348027"
   inkscape:window-width="1022"
   inkscape:window-height="724"
   inkscape:window-x="0"
   inkscape:window-y="0"
   inkscape:current-layer="svg1393">
  <sodipodi:guide
   orientation="horizontal"
   position="0.0000000"
   id="guide3243" />



  <sodipodi:guide
   orientation="vertical"
   position="0.0000000"
   id="guide3244" />



  <sodipodi:guide
   orientation="horizontal"
   position="48.000000"
   id="guide3245" />



  <sodipodi:guide
   orientation="vertical"
   position="48.000000"
   id="guide3246" />



</sodipodi:namedview>









 
  
   

   









   









   









   









   









   









   










   









   


   


   

   














  

  
   
   














   



   

    


     

     

   

   


   

   

   




<g
   id="g2203"
   transform="matrix(1.052801,0.000000,0.000000,1.052801,-1.569877e-8,-6.119652e-3)"><circle
     d="M 24064.000 13291.000 A 11992.000 11992.000 0 1 0 80.000000,13291.000 A 11992.000 11992.000 0 1 0 24064.000 13291.000 z"
     sodipodi:ry="11992.000"
     sodipodi:rx="11992.000"
     sodipodi:cy="13291.000"
     sodipodi:cx="12072.000"
     transform="matrix(1.922883e-3,0.000000,0.000000,1.922883e-3,1.727759,-2.381924)"
     style="font-size:12.000000;opacity:0.083333321;fill:#000000;fill-opacity:1.0000000"
     id="circle2177"
     r="11992.000"
     cy="13291.000"
     cx="12072.000" /><path
     sodipodi:type="arc"
     style="opacity:1.0000000;fill:url(#radialGradient2251);fill-opacity:1.0000000;stroke-width:1.0000000pt"
     id="path774"
     d="M 21047.619 29523.809 A 8476.1904 2952.3818 0 1 1  4095.2383,29523.809 A 8476.1904 2952.3818 0 1 1  21047.619 29523.809 z"
     sodipodi:cx="12571.429"
     sodipodi:cy="29523.809"
     sodipodi:rx="8476.1904"
     sodipodi:ry="2952.3818"
     transform="matrix(2.505182e-3,0.000000,0.000000,3.569378e-3,-8.507286,-64.40269)" /><path
     style="font-size:12.000000;fill:url(#radialGradient2253);fill-opacity:1.0000000"
     id="path3233"
     d="M 23.240431,0.61163171 C 36.040765,0.61163171 46.480864,10.994907 46.480864,23.729837 C 46.480864,36.462852 36.040765,46.848044 23.240431,46.848044 C 10.436249,46.848044 -2.4776760e-07,36.462852 -2.4776760e-07,23.729837 C -2.4776760e-07,13.714245 6.4550339,5.1559897 15.441644,1.9559811 L 15.441644,1.9559811 C 15.466670,1.9464055 15.491697,1.9387462 15.518650,1.9272561 C 17.936642,1.0769828 20.535594,0.61163171 23.240431,0.61163171 z "
     sodipodi:nodetypes="cccccccc" /><path
     sodipodi:nodetypes="cccczz"
     d="M 32.064931,32.896385 C 37.081339,29.627617 46.480864,10.994907 46.480864,23.729837 C 46.480864,36.462852 36.040765,46.848044 23.240431,46.848044 C 10.436249,46.848044 -2.4776760e-07,36.462852 -2.4776760e-07,23.729837 C 12.268206,41.909596 16.302801,33.107586 24.481376,32.518881 C 32.659949,31.930175 27.110357,36.124861 32.064931,32.896385 z "
     id="path3628"
     style="font-size:12.000000;fill:url(#radialGradient2255);fill-opacity:1.0000000" /><path
     style="font-size:12.000000;fill:url(#radialGradient2257);stroke:#0034b5;stroke-opacity:1.0000000"
     d="M 21.758993,1.2049544 C 21.190435,1.2049544 21.019720,1.3538438 20.776325,1.3538437 C 20.776325,1.6752021 20.925215,1.8383883 20.925214,2.1578456 C 20.854859,2.3004589 20.872316,2.2926633 20.121212,2.6045134 C 20.096491,2.6843776 20.073067,2.7831403 20.061656,2.8725140 C 19.633813,2.9447723 19.525811,3.2171071 19.168321,3.3787375 C 18.137696,4.2686529 14.150508,5.5125855 13.986975,7.0414130 C 14.291219,7.1003597 14.304373,7.0904354 15.833201,6.5351895 C 17.941996,6.4420149 20.251654,6.3116498 21.907883,4.5698514 C 22.280582,4.5945710 22.657231,4.6211528 23.039441,4.6591850 C 23.039441,4.5736164 23.039440,4.5027275 23.039441,4.4209622 C 24.047249,4.3391982 24.693270,4.5128049 25.689670,4.5698514 C 26.524438,4.2009538 26.508081,4.2169676 26.880783,4.1827394 C 26.880783,4.1028753 26.880783,3.9965040 26.880783,3.9147387 C 27.472159,3.8348748 28.074183,3.7747497 28.667455,3.7062938 C 28.667455,3.6245287 28.667457,3.5200595 28.667455,3.4382932 C 28.747320,3.4382932 28.823914,3.4382934 28.905677,3.4382932 C 28.778276,2.8260006 28.469242,2.6668457 28.250565,2.0982900 C 26.685608,1.4137397 21.758993,1.1460069 21.758993,1.2049544 z M 29.620346,2.2471792 C 29.669785,2.3745807 29.740067,2.4973819 29.799013,2.6342912 C 30.040507,2.7407772 30.268386,2.8458547 30.513681,2.9618476 C 30.557418,3.2280614 30.605525,3.4882283 30.662570,3.7658495 C 30.339313,3.7316238 30.023430,3.7310138 29.709679,3.7062938 C 29.732498,3.8298950 29.762883,3.9507916 29.799013,4.0934059 C 29.916906,4.9148663 30.233548,5.9411505 30.454125,6.8329680 C 30.290597,6.8329680 30.111433,6.8329680 29.947902,6.8329680 C 29.947902,6.9926935 29.947901,7.1477861 29.947902,7.3094135 C 29.947902,7.3303334 29.947901,7.3664230 29.947902,7.3987472 C 29.276665,7.6668640 28.829958,8.0417274 28.101675,8.2623044 C 26.352270,7.2183659 25.684084,7.0924078 23.932777,7.8454146 C 23.619025,8.9578060 22.196457,9.2579045 21.490993,10.138309 C 21.584166,10.716373 21.599873,10.708384 21.818549,11.031644 C 22.063844,10.999319 22.319601,10.967031 22.562995,10.942311 C 22.585813,11.094433 22.584520,11.253323 22.622551,11.418757 C 22.462821,11.800964 23.298620,12.511790 23.188330,12.222759 C 23.279604,12.175219 23.337219,12.129013 23.337220,12.073869 C 23.869650,11.701170 24.099272,11.282154 24.409222,10.704088 C 24.297033,10.542460 24.188152,10.361398 24.081666,10.197865 C 24.243296,9.9544697 24.230554,9.9737132 24.230555,9.6618636 C 24.671711,9.4507954 24.690420,9.4362684 24.945223,9.5427524 C 25.004172,10.075181 24.981845,10.078525 25.272780,10.614755 C 25.538994,10.576723 25.828938,10.548238 26.106560,10.525421 C 26.211143,10.525421 26.301654,10.525421 26.404338,10.525421 C 26.404338,10.628104 26.404338,10.735082 26.404338,10.852977 C 26.160943,10.875794 25.925461,10.908083 25.689670,10.942311 C 25.689670,11.569814 25.755239,11.746313 25.034557,11.746313 C 24.981316,11.966888 24.929402,12.184647 24.885668,12.401426 C 24.328522,12.578267 23.549013,13.061867 23.128775,12.460981 C 23.128775,12.303157 22.372272,12.454022 22.414107,12.431204 C 22.463545,12.402682 22.363337,11.914254 22.562995,11.805869 C 22.370942,11.769737 22.099251,11.568902 22.026994,11.597424 C 21.981357,11.770464 21.942110,11.952780 21.907883,12.133425 C 21.885064,12.276039 21.861642,12.411502 21.848327,12.550315 C 21.629653,12.616868 21.413793,12.706773 21.193215,12.788537 C 20.869957,13.113700 20.849460,13.090613 20.210545,13.413872 C 20.128779,13.354922 20.052189,13.308717 19.972323,13.264983 C 19.833512,13.308718 19.712611,13.354922 19.585211,13.413872 C 19.383647,13.982428 18.622394,13.998627 18.126096,14.068985 C 18.285823,14.879035 18.631256,15.180573 18.155874,15.944989 C 17.844025,15.933576 17.533198,15.926624 17.232760,15.915212 C 15.679210,15.764993 15.209045,16.567734 15.416311,18.178328 C 15.539912,18.227769 15.692487,18.299949 15.833201,18.356996 C 15.867428,18.541444 15.906679,18.710451 15.952313,18.892997 C 16.020770,18.892997 16.106871,18.892997 16.190536,18.892997 C 16.374985,18.813130 16.560459,18.732737 16.756315,18.654774 C 16.801955,18.698509 16.850056,18.774497 16.905204,18.833441 C 17.960551,18.312425 18.246040,17.497430 19.257654,17.046770 C 19.915581,16.269046 20.698588,16.500577 21.729216,16.629880 C 21.810982,16.768692 21.874264,16.906056 21.967438,17.046770 C 22.260275,17.489826 22.409997,17.183185 23.128775,18.208106 C 23.263782,18.398258 23.179545,18.663560 22.979885,18.863219 C 22.945657,18.897446 22.653621,18.766281 22.592773,18.773885 C 22.408327,18.798606 22.144852,19.100150 22.116328,19.160998 C 22.095411,19.219944 22.436239,19.655202 22.533218,19.607665 C 22.586460,19.577237 23.000156,18.909463 23.009664,18.922774 C 23.057200,18.977918 23.752855,18.784234 23.724332,18.297440 C 23.887865,18.179547 23.921940,18.381755 24.081666,18.267662 C 23.513109,17.585015 23.038380,17.199161 22.562995,16.421435 C 22.585813,16.339670 22.584520,16.233298 22.622551,16.153434 C 23.291887,16.683962 23.976205,17.217600 24.647445,17.761438 C 24.801468,17.808976 24.958458,17.884963 25.123890,17.940106 C 25.146710,18.149276 25.175196,18.344859 25.213224,18.565441 C 25.258861,18.508396 25.303165,18.462190 25.362114,18.416551 C 25.383029,18.623817 25.413416,18.849186 25.451447,19.071664 C 25.578849,19.094483 25.701646,19.098896 25.838559,19.131219 C 25.863279,18.887826 25.889864,18.661849 25.927893,18.416551 C 26.215024,18.393732 26.522687,18.377913 26.821228,18.356996 C 26.866866,18.377913 26.913071,18.393733 26.970117,18.416551 C 27.099422,19.158146 27.146578,19.642385 27.863453,19.935221 C 28.072620,19.874371 28.299892,19.831967 28.518565,19.786332 C 28.820908,19.752103 29.100050,19.719817 29.411901,19.696999 C 29.444229,19.617136 29.513252,19.538641 29.560791,19.458776 C 29.686290,19.538641 29.810992,19.617135 29.947902,19.696999 C 29.970720,20.092515 30.006811,20.510964 30.037236,20.917891 C 29.913635,21.668996 29.925199,21.674203 29.679902,22.079226 C 27.835419,22.278887 26.545092,21.782056 24.826112,21.841004 C 24.736741,22.059678 24.667755,22.293909 24.587889,22.525895 C 24.051661,22.676115 21.541802,21.128427 21.252770,20.679668 C 21.659697,20.329786 21.508790,20.096357 21.371882,19.607665 C 20.029402,19.470756 17.221772,19.864485 16.250091,19.339664 C 16.225372,19.235078 16.198143,19.114791 16.190536,19.012108 C 16.106870,19.012108 16.020771,19.012107 15.952313,19.012108 C 15.524472,19.557850 15.141618,19.542937 14.493198,19.786332 C 14.133810,20.204669 14.030104,20.298028 13.927419,20.828557 C 13.379782,21.374292 12.519913,21.586084 11.842969,22.109004 C 10.884599,23.489512 10.011994,25.120255 9.9074092,26.873460 C 9.8731819,27.164395 9.8427949,27.468256 9.8180764,27.766796 C 10.051964,28.820242 11.243987,30.317802 11.842969,31.221027 C 14.314955,32.643371 17.217314,31.271982 19.257654,33.603254 C 18.919183,36.603863 20.221114,36.378372 20.686991,39.171712 C 20.521557,39.567233 20.358865,39.989483 20.210545,40.392604 C 20.128779,40.392604 20.052189,40.392605 19.972323,40.392604 C 19.886755,40.497187 19.817767,40.604168 19.734100,40.720160 C 19.954675,41.600567 20.723042,41.962156 20.865659,42.983277 C 21.188916,43.468164 21.170128,43.458885 21.818549,43.936168 C 21.887004,44.145339 21.976910,44.340929 22.056772,44.561503 C 23.739624,44.639467 24.921146,44.778505 26.404338,44.025502 C 27.157343,43.479764 27.904943,42.920148 28.667455,42.387720 C 28.832889,41.566258 28.848596,41.569798 28.995011,41.524162 C 29.768932,40.909969 31.108518,40.497572 31.317684,39.499269 C 31.317684,39.383277 31.317684,39.276300 31.317684,39.171712 C 31.283457,38.576536 31.251169,38.006191 31.228350,37.414819 C 31.317724,36.880490 31.401807,36.798535 31.734573,36.372594 C 31.882894,36.100676 32.047487,35.832906 32.211019,35.568592 C 34.340730,33.653757 35.675783,32.431123 36.231029,29.523689 C 35.953405,29.603550 35.691334,29.682048 35.427027,29.761912 C 34.685431,30.085170 34.406668,30.311950 33.640355,30.089469 C 33.583306,29.891712 33.537105,29.708136 33.491466,29.523689 C 33.829938,29.417202 34.396667,28.972551 34.801692,28.809021 C 36.678501,27.521686 39.674920,25.359437 37.183920,23.389452 C 36.801712,23.507345 36.776612,23.564161 36.588362,23.925453 C 36.356376,23.934959 36.125951,23.964093 35.903472,23.985009 C 35.658175,23.579986 35.427025,23.485860 35.427027,23.240563 C 34.997282,22.862159 34.697222,22.677560 34.533691,22.109004 C 34.556509,21.972094 34.586898,21.853101 34.623025,21.721893 C 35.098405,21.805562 35.114604,21.804154 35.278138,22.049449 C 36.622518,23.032537 38.337036,22.896199 39.774592,22.198338 C 40.249975,22.396095 40.634271,22.424316 40.816818,22.913006 C 40.889073,23.015689 40.945400,23.135977 41.025262,23.240563 C 41.223022,23.240563 41.423063,23.231056 41.620820,23.240563 C 41.873722,23.542906 41.967315,24.142039 42.127042,24.372121 C 42.438896,25.311478 42.756670,26.261662 43.079934,27.201017 C 43.195927,27.155381 43.309864,27.116133 43.437268,27.081905 C 43.598897,25.946695 43.547935,24.604151 44.032825,21.305003 C 44.032825,20.911385 44.205140,20.743216 44.241270,20.292556 C 44.357263,20.303965 44.469302,20.329293 44.598604,20.352111 C 44.701289,20.665864 44.813972,20.979840 44.926161,21.305003 C 45.137228,21.407684 45.360693,21.518469 45.581273,21.632559 C 45.581273,21.121048 45.581271,20.621597 45.581273,20.113889 C 44.851085,19.267711 44.845842,17.974145 44.509271,16.897881 C 44.372362,16.570816 44.247657,16.240373 44.122159,15.915212 C 44.122159,15.753583 44.122159,15.588990 44.122159,15.438766 C 44.040391,15.438766 43.965706,15.438767 43.883936,15.438766 C 43.408555,14.060159 43.400799,14.075872 42.752378,12.788537 C 41.662801,10.611290 39.963534,8.6798837 38.166589,7.0711908 C 37.734939,6.7194091 37.313984,6.3750447 36.886141,6.0289661 C 35.817479,5.1922947 34.836417,4.5270308 33.640355,3.9147387 C 32.341616,3.2644147 31.035079,2.5837483 29.620346,2.2471792 z M 12.885195,3.7658495 C 12.445942,4.0206549 11.604747,4.3953695 11.604747,4.9867413 C 11.752338,4.9707379 11.901524,4.9695873 12.051414,4.9569635 C 12.474433,4.3522942 12.885195,3.7293498 12.885195,3.7658495 z M 12.051414,4.9569635 C 11.548837,5.6753558 11.038968,6.4009186 11.038968,6.3565224 C 8.7210054,6.3565224 6.7420244,7.8084839 5.4109548,9.7214188 C 6.2362184,9.2707576 6.5788667,8.9916157 7.4954039,8.8280840 C 7.4954039,8.9916157 7.4954039,9.1745794 7.4954039,9.3343074 C 7.6589331,9.3343074 7.8102203,9.3343074 7.9718498,9.3343074 C 8.2266550,8.5832052 8.2238774,8.5646486 8.5376285,8.2623044 C 8.5851666,8.0417274 8.6592488,7.8480396 8.7162958,7.6369697 C 9.1935786,7.7206391 9.5080498,8.0303180 9.9967429,8.2623044 C 11.198509,7.4750717 11.707616,5.9723053 12.646972,5.1356305 C 12.610844,5.0557674 12.580459,4.9791719 12.557638,4.8974078 C 12.384513,4.9095569 12.222098,4.9425885 12.051414,4.9569635 z M 28.518565,5.0760749 C 28.102131,5.8043610 28.337084,6.4627412 28.995011,6.9818572 C 29.019731,6.8221317 29.027945,6.6556321 29.054567,6.5054116 C 28.951885,6.3913201 28.861370,6.2805389 28.756788,6.1778553 C 28.779607,5.7937459 28.782118,5.4449716 28.816344,5.0760749 C 28.700352,5.0760749 28.626952,5.0760748 28.518565,5.0760749 z M 19.198098,10.793422 C 19.040273,10.793422 18.494268,10.912533 18.334541,10.912533 C 18.172912,11.083669 18.644451,11.333795 18.423875,11.478313 C 18.368732,11.478313 18.737512,12.133425 18.691875,12.133425 C 18.575880,12.327380 18.921960,12.322053 18.691875,12.728982 C 18.743215,12.998997 18.156481,13.136247 18.215430,13.413872 C 19.097739,13.413872 19.073815,13.424711 19.317210,13.264983 C 19.398975,13.308718 19.473668,13.265591 19.555433,13.324539 C 19.682834,13.265591 19.772054,13.131952 19.912767,13.086316 C 19.831000,12.169778 19.131548,11.696646 19.198098,10.793422 z M 18.394096,11.805869 C 17.943433,11.507330 17.990060,12.287905 17.560317,12.550315 C 17.478551,12.820333 17.616031,12.907613 17.709206,12.996982 C 17.941192,12.962756 18.033492,12.930469 18.274985,12.907649 C 18.425206,12.765033 18.278101,12.005527 18.394096,11.805869 z M 10.711411,12.401426 C 10.654366,12.409033 10.587889,12.410286 10.532745,12.431204 C 10.509925,12.701219 10.496008,12.987358 10.473189,13.264983 C 10.520729,13.308718 10.561229,13.354922 10.622078,13.413872 C 10.943436,13.461410 11.283390,13.535492 11.604747,13.592539 C 11.754967,13.535492 11.921464,13.461410 12.081193,13.413872 C 12.081193,13.461410 12.081193,13.535492 12.081193,13.592539 C 12.297968,13.543100 12.535997,13.509558 12.766083,13.473428 C 12.800309,13.347927 12.839556,13.232085 12.885195,13.116094 C 12.839557,12.931643 12.800309,12.751230 12.766083,12.580092 C 12.535997,12.545866 12.297968,12.495209 12.081193,12.460981 C 12.081193,12.611204 12.072561,12.626910 11.515413,12.788537 C 11.237789,12.647824 10.979528,12.525024 10.711411,12.401426 z M 20.865659,17.046770 C 20.738255,17.130435 20.705322,17.255786 20.806102,17.404104 C 20.891672,17.535311 20.939096,17.763340 21.074103,17.761438 C 21.095021,17.761438 21.032916,17.956573 21.044325,17.969883 C 21.126088,18.118202 21.196981,18.085192 21.282548,18.088995 C 21.390937,18.098503 21.501146,18.110594 21.461215,17.969883 C 21.383253,17.682752 21.155829,17.715191 21.163437,17.701882 C 21.231893,17.564972 21.157769,17.231827 21.074103,17.106326 C 20.975223,16.958007 20.991158,16.963103 20.865659,17.046770 z M 29.799013,23.478786 C 29.905498,23.478786 30.014378,23.478785 30.126569,23.478786 C 31.377775,25.403133 32.684688,26.942819 33.253244,29.196133 C 32.928081,29.196133 32.776302,29.047246 32.449242,29.047243 C 32.392196,28.967381 32.316211,28.890785 32.270574,28.809021 C 32.048094,28.481960 31.850604,28.138202 31.645240,27.826351 C 31.177462,27.295827 31.214432,27.024556 31.168794,26.307682 C 30.413888,25.841806 29.935924,24.359189 29.799013,23.478786 z M 0.61672099,24.044564 L 1.6887236,30.089469 C 2.9399285,33.276429 3.7807417,35.479259 3.8625066,35.479259 C 3.8625066,35.205439 3.6242841,35.092263 3.6242838,34.824146 C 3.2325693,32.276099 4.2681826,31.559729 2.3438363,29.196133 C 1.5185736,27.627372 0.96850364,25.778759 0.61672099,24.044564 z M 34.474136,38.695267 C 34.196514,38.986198 33.906570,39.288164 33.640355,39.588602 C 32.493735,40.204698 32.688341,40.262993 32.121686,41.107272 C 31.773705,41.514200 31.759294,41.580332 31.734573,42.089942 C 31.839158,42.137479 31.927766,42.179885 32.032352,42.238830 C 32.787257,41.626540 33.305570,40.993564 33.908356,40.213937 C 34.322886,39.683412 34.588723,39.345589 34.801692,38.695267 C 34.687601,38.695267 34.576817,38.695268 34.474136,38.695267 z "
     id="path3247"
     sodipodi:nodetypes="cccccccccccccccccccccccccccccccccccccccccccccccccccccccccccccccccccccccccccccccccccccccccccccccccccccccccccccccccccccccccccccccccccccccccccccccccccccccccccccccccccccccccccccccccccccccccccccccccccccccccccccccccccccccccccccccccccccccccccccccc" /><path
     style="font-size:12.000000;fill:url(#radialGradient2259)"
     d="M 27.134851,9.1204412 C 18.939433,7.2880427 21.302296,14.779321 12.135063,15.085614 C 3.5953560,15.202238 3.5921390,18.687381 0.78512266,23.517718 C 0.78512266,11.265564 10.717462,1.3332236 22.969591,1.3332236 C 29.095687,1.3332236 34.641798,3.8163083 38.656413,7.8309123 C 38.884799,12.660563 31.445771,10.084314 27.134851,9.1204412 z "
     id="path772"
     sodipodi:nodetypes="cscccs" /><path
     d="M 19.163753,3.3710493 C 19.521244,3.2094191 19.627730,2.9527145 20.055573,2.8804563 C 20.066984,2.7910827 20.091701,2.6960070 20.116422,2.6161428 C 20.867525,2.3042925 20.867525,2.3042925 20.937881,2.1616792 C 20.937881,1.8422219 20.776252,1.6748877 20.776252,1.3535293 C 21.019647,1.3535293 21.181277,1.1918993 21.749836,1.1918993 C 21.749836,1.1329518 21.749836,1.0740056 21.749836,1.0283680 C 22.280360,1.0283680 22.812788,1.0283680 23.347116,1.0283680 C 25.180189,1.3649382 26.697608,1.3991658 28.262564,2.0837160 C 28.481241,2.6522717 28.783585,2.8367194 28.910986,3.4490121 C 28.829221,3.4490121 28.749357,3.4490121 28.669492,3.4490121 C 28.669492,3.5307782 28.669492,3.6125434 28.669492,3.6943085 C 28.076218,3.7627642 27.486743,3.8445305 26.895368,3.9243945 C 26.895368,4.0061595 26.895368,4.0898268 26.895368,4.1696909 C 26.522666,4.2039188 26.522666,4.2039188 25.687896,4.5728165 C 24.691496,4.5157701 24.043076,4.3313225 23.035268,4.4130865 C 23.035268,4.4948514 23.035268,4.5728165 23.035268,4.6583851 C 22.653059,4.6203532 22.270851,4.5975360 21.898153,4.5728165 C 20.241924,6.3146152 17.935369,6.4515238 15.826575,6.5446984 C 14.297747,7.0999443 14.297747,7.0999443 13.993502,7.0409975 C 14.157035,5.5121703 18.133128,4.2609647 19.163753,3.3710493 z "
     id="path1456"
     style="font-size:12.000000;fill:#ffffff" /><path
     d="M 0.29679889,26.278750 L 0.60484693,24.057766 C 0.95662950,25.791960 1.5213832,27.636441 2.3466459,29.205201 C 4.2709920,31.568798 3.2403640,32.287577 3.6320785,34.835624 C 3.6320785,35.103743 3.6320785,35.371857 3.6320785,35.645676 C 3.5503137,35.645676 3.4742520,35.645676 3.3905844,35.645676 C 2.3466459,33.468426 2.3466459,33.468426 1.0954410,30.281465 C 0.94522037,29.657764 0.71323445,26.560177 0.29679889,26.278750 z M 5.0011792,9.9636445 C 6.3322493,8.0507086 10.574557,3.5326794 12.892518,3.5326794 C 12.892518,3.6144447 12.892518,3.6943085 12.892518,3.7741725 C 12.453267,4.0289782 11.607084,4.3883688 11.607084,4.9797408 C 11.922738,4.9455134 12.244097,4.9207949 12.569257,4.8979768 C 12.592078,4.9797408 12.614896,5.0615066 12.651024,5.1413698 C 11.711669,5.9780436 11.200159,7.4840530 9.9983937,8.2712857 C 9.5097007,8.0392993 9.1864417,7.7160411 8.7091588,7.6323708 C 8.6521119,7.8434416 8.5950649,8.0507086 8.5475268,8.2712857 C 8.2337766,8.5736290 8.2337766,8.5736290 7.9789705,9.3247313 C 7.8173410,9.3247313 7.6557107,9.3247313 7.4921815,9.3247313 C 7.4921815,9.1650041 7.4921815,9.0033737 7.4921815,8.8398411 C 6.5756443,9.0033737 5.8264429,9.5129824 5.0011792,9.9636445 z M 42.750302,12.779807 C 43.398724,14.067141 43.398724,14.067141 43.874105,15.445748 C 43.955873,15.445748 44.035735,15.445748 44.117503,15.445748 C 44.117503,15.595970 44.117503,15.759501 44.117503,15.921130 C 44.243001,16.246291 44.385619,16.569549 44.522528,16.896615 C 44.859099,17.972878 44.836278,19.258312 45.566466,20.104491 C 45.566466,20.612198 45.566466,21.123710 45.566466,21.635221 C 45.345888,21.521129 45.138621,21.414643 44.927553,21.311962 C 44.815364,20.986799 44.708879,20.661639 44.606194,20.347886 C 44.476891,20.325068 44.349487,20.315560 44.233495,20.304150 C 44.197365,20.754811 44.035735,20.918344 44.035735,21.311962 C 43.550847,24.611110 43.594583,25.936475 43.432954,27.071686 C 43.305549,27.105916 43.189559,27.142044 43.073566,27.187680 C 42.750302,26.248326 42.425144,25.308972 42.113291,24.369615 C 41.953564,24.139532 41.879405,23.546255 41.626503,23.243913 C 41.428744,23.234405 41.230983,23.234405 41.033223,23.234405 C 40.953361,23.129820 40.883003,23.025235 40.810748,22.922552 C 40.628200,22.433860 40.247897,22.399632 39.772513,22.201876 C 38.334957,22.899736 36.608370,23.025235 35.263989,22.042147 C 35.100456,21.796852 35.100456,21.796852 34.625076,21.713182 C 34.588948,21.844389 34.566130,21.985101 34.543312,22.122011 C 34.706844,22.690569 34.995877,22.865509 35.425622,23.243913 C 35.425622,23.489210 35.667113,23.570976 35.912410,23.976000 C 36.134890,23.955083 36.351664,23.941772 36.583651,23.932266 C 36.771901,23.570976 36.792818,23.502519 37.175025,23.384626 C 39.666025,25.354610 36.665416,27.510940 34.788607,28.798274 C 34.383582,28.961806 33.826434,29.421975 33.487963,29.528462 C 33.533601,29.712909 33.583038,29.897358 33.640088,30.095115 C 34.406399,30.317595 34.684027,30.095115 35.425622,29.771857 C 35.689931,29.691994 35.958047,29.608324 36.235670,29.528462 C 35.680425,32.435896 34.334142,33.654777 32.204431,35.569613 C 32.040901,35.833927 31.875469,36.096337 31.727148,36.368255 C 31.394381,36.794196 31.331633,36.874062 31.242258,37.408391 C 31.265077,37.999764 31.287897,38.587339 31.322123,39.182516 C 31.322123,39.287102 31.322123,39.391684 31.322123,39.507676 C 31.112956,40.505980 29.764771,40.911005 28.990850,41.525199 C 28.844435,41.570834 28.844435,41.570834 28.679000,42.392296 C 27.916488,42.924724 27.159680,43.470463 26.406674,44.016199 C 24.923483,44.769203 23.744535,44.651310 22.061683,44.573345 C 21.981820,44.352773 21.898153,44.145505 21.829698,43.936334 C 21.181277,43.459052 21.181277,43.459052 20.858019,42.974165 C 20.715403,41.953043 19.952888,41.593654 19.732313,40.713247 C 19.815981,40.597254 19.890140,40.492667 19.975707,40.388083 C 20.055573,40.388083 20.137337,40.388083 20.219103,40.388083 C 20.367423,39.984962 20.529051,39.578036 20.694485,39.182516 C 20.228609,36.389175 18.918460,36.609748 19.256930,33.609139 C 17.216591,31.277867 14.309156,32.643164 11.837171,31.220820 C 11.238188,30.317595 10.066848,28.807782 9.8329605,27.754336 C 9.8576790,27.455795 9.8804978,27.164862 9.9147260,26.873927 C 10.019310,25.120720 10.878800,23.502519 11.837171,22.122011 C 12.514114,21.599091 13.392623,21.380415 13.940260,20.834679 C 14.042944,20.304150 14.145625,20.210978 14.505014,19.792640 C 15.153434,19.549244 15.526135,19.560655 15.953977,19.014914 C 16.022433,19.014914 16.104199,19.014914 16.187865,19.014914 C 16.195471,19.117597 16.237304,19.241197 16.262025,19.345783 C 17.233706,19.870603 20.015640,19.475086 21.358120,19.611996 C 21.495029,20.100689 21.668069,20.325068 21.261143,20.674949 C 21.550173,21.123710 24.041176,22.667751 24.577405,22.517530 C 24.657270,22.285545 24.739035,22.051654 24.828407,21.832980 C 26.547387,21.774031 27.821409,22.274135 29.665892,22.074474 C 29.911189,21.669450 29.911189,21.669450 30.034790,20.918344 C 30.004365,20.511418 29.975841,20.104491 29.953023,19.708974 C 29.816114,19.629111 29.677302,19.549244 29.551802,19.469379 C 29.504262,19.549244 29.452923,19.629111 29.420594,19.708974 C 29.108745,19.731793 28.806403,19.758412 28.504059,19.792640 C 28.285386,19.838275 28.064806,19.885815 27.855639,19.946665 C 27.138762,19.653828 27.104535,19.155628 26.975231,18.414032 C 26.918185,18.391214 26.859239,18.364595 26.813601,18.343677 C 26.515062,18.364595 26.222225,18.391214 25.935094,18.414032 C 25.897065,18.659330 25.876148,18.898923 25.851429,19.142317 C 25.714517,19.109993 25.573805,19.085272 25.446404,19.062453 C 25.408372,18.839975 25.385554,18.621299 25.364637,18.414032 C 25.305690,18.459671 25.250544,18.518619 25.204908,18.575663 C 25.166878,18.355083 25.144061,18.145918 25.121242,17.936748 C 24.955808,17.881604 24.797982,17.822656 24.643959,17.775119 C 23.972719,17.231281 23.301481,16.696955 22.632144,16.166427 C 22.594112,16.246291 22.571292,16.326155 22.548474,16.407920 C 23.023858,17.185646 23.508746,17.579264 24.077302,18.261910 C 23.917575,18.376003 23.879546,18.176343 23.716012,18.294235 C 23.744535,18.781029 23.050477,18.992097 23.002941,18.936953 C 22.993433,18.923642 22.590308,19.589175 22.537066,19.619603 C 22.440087,19.667138 22.095911,19.233591 22.116827,19.174643 C 22.145352,19.113796 22.422974,18.813354 22.607421,18.788634 C 22.668268,18.781029 22.936386,18.912232 22.970615,18.878004 C 23.170274,18.678346 23.252040,18.387409 23.117032,18.197256 C 22.398254,17.172335 22.274657,17.487989 21.981820,17.044934 C 21.888646,16.904221 21.806880,16.767310 21.725114,16.628499 C 20.694485,16.499195 19.903450,16.267210 19.245523,17.044934 C 18.233908,17.495595 17.969596,18.298041 16.914249,18.819057 C 16.859102,18.760112 16.800158,18.703066 16.754519,18.659330 C 16.558665,18.737293 16.372314,18.819057 16.187865,18.898923 C 16.104199,18.898923 16.022433,18.898923 15.953977,18.898923 C 15.908342,18.716377 15.860801,18.528125 15.826575,18.343677 C 15.685861,18.286630 15.545151,18.229585 15.421550,18.180145 C 15.214286,16.569549 15.685861,15.770911 17.239412,15.921130 C 17.539851,15.932541 17.844097,15.945847 18.155946,15.957261 C 18.631328,15.192844 18.281446,14.877192 18.121720,14.067141 C 18.618018,13.996785 19.371021,13.996785 19.572586,13.428229 C 19.699987,13.369279 19.836896,13.312234 19.975707,13.268500 C 20.055573,13.312234 20.137337,13.369279 20.219103,13.428229 C 20.858019,13.104969 20.858019,13.104969 21.181277,12.779807 C 21.401856,12.698041 21.622431,12.625782 21.841105,12.559229 C 21.854419,12.420418 21.875334,12.283507 21.898153,12.140893 C 21.932379,11.960247 21.968510,11.783408 22.014147,11.610367 C 22.086406,11.581843 22.356421,11.764391 22.548474,11.800522 C 22.348816,11.908908 22.472414,12.412813 22.422974,12.441335 C 22.381141,12.464153 23.115129,12.310131 23.115129,12.467955 C 23.535368,13.068840 24.322601,12.572541 24.879747,12.395700 C 24.923483,12.178923 24.986234,11.960247 25.039475,11.739672 C 25.760157,11.739672 25.687896,11.564731 25.687896,10.937227 C 25.923687,10.902999 26.163280,10.880182 26.406674,10.857365 C 26.406674,10.739469 26.406674,10.634885 26.406674,10.532202 C 26.303991,10.532202 26.199407,10.532202 26.094824,10.532202 C 25.817200,10.555019 25.550987,10.577837 25.284773,10.615868 C 24.993839,10.079639 24.993839,10.079639 24.934891,9.5472097 C 24.680088,9.4407258 24.680088,9.4407258 24.238933,9.6517940 C 24.238933,9.9636445 24.238933,9.9636445 24.077302,10.207039 C 24.183788,10.370572 24.288374,10.532202 24.400563,10.693831 C 24.090614,11.271897 23.879546,11.688331 23.347116,12.061029 C 23.347116,12.116173 23.282466,12.171317 23.191192,12.218856 C 23.301481,12.507889 22.472414,11.794817 22.632144,11.412609 C 22.594112,11.247176 22.571292,11.089350 22.548474,10.937227 C 22.305079,10.961947 22.061683,10.996175 21.816387,11.028500 C 21.597710,10.705240 21.597710,10.705240 21.504537,10.127175 C 22.210001,9.2467704 23.613331,8.9653427 23.927083,7.8529512 C 25.678389,7.0999443 26.351531,7.2273472 28.100938,8.2712857 C 28.829221,8.0507086 29.281786,7.6570927 29.953023,7.3889758 C 29.953023,7.3566525 29.953023,7.3319331 29.953023,7.3110132 C 29.953023,7.1493860 29.953023,6.9820488 29.953023,6.8223232 C 30.116554,6.8223232 30.278185,6.8223232 30.441715,6.8223232 C 30.221139,5.9305058 29.911189,4.9112872 29.793296,4.0898268 C 29.757165,3.9472130 29.734348,3.8179096 29.711530,3.6943085 C 30.025281,3.7190283 30.348541,3.7399468 30.671800,3.7741725 C 30.614754,3.4965515 30.567217,3.2303366 30.523481,2.9641227 C 30.278185,2.8481298 30.034790,2.7435455 29.793296,2.6370596 C 29.734348,2.5001504 29.677302,2.3727478 29.627862,2.2453463 C 31.042596,2.5819154 32.352754,3.2759725 33.651494,3.9262966 C 34.847554,4.5385882 35.807824,5.1870090 36.876487,6.0236804 C 37.304330,6.3697590 37.730271,6.7158367 38.161919,7.0676184 C 39.958862,8.6763110 41.660726,10.602558 42.750302,12.779807 z M 33.651494,39.587542 C 33.917707,39.287102 34.185826,38.986658 34.463446,38.695726 C 34.566130,38.695726 34.674516,38.695726 34.788607,38.695726 C 34.575637,39.346047 34.311323,39.694029 33.896794,40.224554 C 33.294006,41.004182 32.795806,41.629782 32.040901,42.242072 C 31.936315,42.183128 31.831733,42.127982 31.727148,42.080444 C 31.751869,41.570834 31.774687,41.525199 32.122667,41.118272 C 32.689322,40.273993 32.504873,40.203638 33.651494,39.587542 z M 10.635405,13.428229 C 10.574557,13.369279 10.519412,13.312234 10.471872,13.268500 C 10.494691,12.990876 10.519412,12.711350 10.542231,12.441335 C 10.597374,12.420418 10.656321,12.395700 10.713367,12.388092 C 10.981484,12.511691 11.247695,12.639093 11.525318,12.779807 C 12.082467,12.618178 12.082467,12.618178 12.082467,12.467955 C 12.299242,12.502183 12.535030,12.538314 12.765116,12.572541 C 12.799342,12.743679 12.846882,12.920518 12.892518,13.104969 C 12.846882,13.220961 12.799342,13.336953 12.765116,13.462455 C 12.535030,13.498584 12.299242,13.542320 12.082467,13.591760 C 12.082467,13.534713 12.082467,13.475767 12.082467,13.428229 C 11.922738,13.475767 11.757304,13.534713 11.607084,13.591760 C 11.285728,13.534713 10.956763,13.475767 10.635405,13.428229 z M 27.695911,17.936748 C 27.216727,17.381502 27.625555,16.291928 28.100938,15.839364 C 28.749357,16.050432 29.049799,16.212064 29.686809,15.957261 C 30.278185,16.594271 31.092038,16.653219 31.485653,17.453762 C 31.485653,17.476579 31.485653,17.495595 31.485653,17.533625 C 30.860052,17.891111 30.671800,17.799838 29.953023,17.695254 C 29.734348,17.636308 29.515673,17.579264 29.306504,17.533625 C 28.760766,17.659126 28.226438,17.799838 27.695911,17.936748 z M 33.571631,17.044934 C 33.280697,16.196851 32.388881,16.326155 32.932716,15.202354 C 33.060119,15.063539 33.187523,14.936137 33.316823,14.806834 C 33.465146,14.806834 33.617269,14.818244 33.767488,14.829653 C 34.128778,16.444050 34.916010,16.985987 35.505482,18.737293 C 35.298217,18.851384 35.298217,18.851384 34.056520,18.737293 C 34.012784,18.261910 33.965245,17.786528 33.929117,17.322556 C 33.803618,17.231281 33.685723,17.136206 33.571631,17.044934 z M 31.649187,27.836101 C 31.854551,28.147950 32.061818,28.471213 32.284298,28.798274 C 32.329933,28.880041 32.388881,28.961806 32.445926,29.041669 C 32.772987,29.041669 32.932716,29.205201 33.257879,29.205201 C 32.689322,26.951889 31.367760,25.413557 30.116554,23.489210 C 30.004365,23.489210 29.899780,23.489210 29.793296,23.489210 C 29.930206,24.369615 30.405588,25.841399 31.160494,26.307274 C 31.206129,27.024148 31.181409,27.305577 31.649187,27.836101 z M 19.551667,13.314136 C 19.469901,13.255187 19.409053,13.312234 19.327289,13.268500 C 19.083893,13.428229 19.083893,13.428229 18.201583,13.428229 C 18.142635,13.150604 18.739714,13.013694 18.688375,12.743679 C 18.918460,12.336749 18.572380,12.313932 18.688375,12.119978 C 18.734011,12.119978 18.372720,11.469655 18.427863,11.469655 C 18.648440,11.325138 18.178766,11.085545 18.340395,10.914409 C 18.500123,10.914409 19.049663,10.806022 19.207490,10.806022 C 19.140939,11.709246 19.836896,12.178923 19.918664,13.095461 C 19.777949,13.141097 19.679068,13.255187 19.551667,13.314136 z M 17.572179,12.559229 C 18.001922,12.296820 17.950581,11.513391 18.401244,11.811930 C 18.285250,12.011588 18.418358,12.774101 18.268138,12.916717 C 18.026643,12.939536 17.946778,12.950945 17.714792,12.985171 C 17.621616,12.895801 17.490414,12.829247 17.572179,12.559229 z M 28.990850,6.9820488 C 28.332921,6.4629328 28.087626,5.7897923 28.504059,5.0615066 C 28.612446,5.0615066 28.713228,5.0615066 28.829221,5.0615066 C 28.794993,5.4304034 28.772175,5.8031032 28.749357,6.1872127 C 28.853940,6.2898962 28.960426,6.3944790 29.063108,6.5085705 C 29.036488,6.6587909 29.015570,6.8223232 28.990850,6.9820488 z M 20.854214,17.035426 C 20.979713,16.951759 20.987321,16.951759 21.086202,17.100077 C 21.169868,17.225579 21.238325,17.560247 21.169868,17.697157 C 21.162261,17.710466 21.377135,17.668634 21.455096,17.955765 C 21.495029,18.096476 21.390446,18.094578 21.282057,18.085069 C 21.196488,18.081266 21.120427,18.113590 21.038664,17.965273 C 21.027254,17.951962 21.099513,17.759907 21.078595,17.759907 C 20.943588,17.761808 20.880836,17.533625 20.795266,17.402419 C 20.694485,17.254101 20.726810,17.119091 20.854214,17.035426 z "
     id="path1458"
     style="font-size:12.000000;fill:url(#radialGradient2261);fill-opacity:1.0000000" /><path
     sodipodi:nodetypes="cccccccc"
     d="M 23.240431,0.94438355 C 35.856525,0.94438355 46.146353,11.178206 46.146353,23.729837 C 46.146353,36.279580 35.856525,46.515292 23.240431,46.515292 C 10.620547,46.515292 0.33451091,36.279580 0.33451091,23.729837 C 0.33451091,13.858404 6.6966338,5.4233320 15.553896,2.2693832 L 15.553896,2.2693832 C 15.578562,2.2599456 15.603228,2.2523960 15.629793,2.2410715 C 18.012981,1.4030365 20.574526,0.94438355 23.240431,0.94438355 z "
     id="path3240"
     style="font-size:12.000000;fill:none;stroke:#12007f;stroke-width:0.66902179;stroke-miterlimit:4.0000000;stroke-dasharray:none;stroke-opacity:1.0000000" /></g><path
   sodipodi:type="arc"
   style="fill:url(#radialGradient2263);fill-opacity:0.75000000;stroke-width:3.0000000pt"
   id="path3501"
   sodipodi:cx="-7.6275635"
   sodipodi:cy="50.144161"
   sodipodi:rx="15.169424"
   sodipodi:ry="6.4277220"
   d="M 7.5418606 50.144161 A 15.169424 6.4277220 0 1 0 -22.796988,50.144161 A 15.169424 6.4277220 0 1 0 7.5418606 50.144161 z"
   transform="matrix(1.062909,0.000000,0.000000,1.213334,51.65606,-9.497580)" /><path
   id="ellipse3228"
   d="M 43.343750 41.625000 C 41.193368 41.625000 39.147180 41.839359 37.281250 42.250000 C 37.002320 42.311385 36.801694 42.430552 36.531250 42.500000 C 34.953124 42.891773 33.491188 43.371951 32.281250 44.000000 C 32.272946 44.004311 32.258284 43.995680 32.250000 44.000000 C 32.101940 44.077424 32.048318 44.200793 31.906250 44.281250 C 30.730000 44.947833 29.686760 45.688497 29.031250 46.531250 C 28.182345 47.539506 27.656250 48.640751 27.656250 49.812500 C 27.656250 54.333369 34.698347 58.000001 43.343750 58.000000 C 51.989152 58.000000 59.000000 54.333369 59.000000 49.812500 C 59.000000 45.291631 51.989152 41.625001 43.343750 41.625000 z "
   style="stroke-dashoffset:0;stroke-opacity:1.0000000;visibility:visible;display:inline;overflow:visible;font-family:Bitstream Vera Sans;stroke-dasharray:none;stroke-miterlimit:4.0000000;marker-end:none;marker-mid:none;marker-start:none;marker:none;stroke-linejoin:miter;stroke-linecap:butt;stroke-width:0.74999999;stroke:#8c8c8c;fill-rule:evenodd;fill-opacity:1.0000000;color:#000000;opacity:1.0000000;fill:#000000;font-size:12.000000" /><ellipse
   cx="21665.000"
   cy="25906.000"
   rx="7831.0000"
   ry="4095.0000"
   id="ellipse1520"
   style="font-size:12.000000;fill:url(#linearGradient2265)"
   transform="matrix(1.999995e-3,0.000000,0.000000,1.999995e-3,-1.124029e-6,-2.010524)"
   d="M 29496.000 25906.000 A 7831.0000 4095.0000 0 1 0 13834.000,25906.000 A 7831.0000 4095.0000 0 1 0 29496.000 25906.000 z"
   sodipodi:cx="21665.000"
   sodipodi:cy="25906.000"
   sodipodi:rx="7831.0000"
   sodipodi:ry="4095.0000" /><ellipse
   cx="21603.000"
   cy="25643.000"
   rx="7619.0000"
   ry="3810.0000"
   id="ellipse1522"
   style="font-size:12.000000;fill:url(#linearGradient2267)"
   transform="matrix(1.999995e-3,0.000000,0.000000,1.999995e-3,-1.124029e-6,-2.010524)"
   d="M 29222.000 25643.000 A 7619.0000 3810.0000 0 1 0 13984.000,25643.000 A 7619.0000 3810.0000 0 1 0 29222.000 25643.000 z"
   sodipodi:cx="21603.000"
   sodipodi:cy="25643.000"
   sodipodi:rx="7619.0000"
   sodipodi:ry="3810.0000" /><path
   d="M 42.464001,45.959471 C 46.628000,45.441472 51.214000,42.511471 53.972000,43.891472 C 56.732000,45.271472 58.442002,47.177471 58.442002,49.275471 C 58.442002,53.471473 51.600000,56.893473 43.206001,56.893473 C 39.272002,56.893473 35.826001,56.141472 33.117999,54.909470 C 47.445999,54.135476 37.698001,46.553473 42.464001,45.959471 z "
   id="path1524"
   style="font-size:12.000000;fill:url(#linearGradient2303)" /><path
   id="path3221"
   d="M 50.750000 34.187500 L 39.468750 37.750000 L 39.781250 39.281250 L 37.562500 38.250000 L 39.781250 51.218750 C 39.825250 51.354476 39.896749 51.487715 39.968750 51.593750 L 42.406250 53.656250 C 42.658496 53.801885 42.527464 53.708043 42.656250 53.687500 L 42.656250 53.750000 C 42.939462 53.862934 43.231751 53.781252 43.343750 53.781250 L 45.531250 52.937500 L 49.562500 51.625000 C 49.820499 51.512602 50.465500 51.414347 50.437500 50.718750 L 50.750000 34.187500 z "
   style="stroke-dashoffset:0;stroke-opacity:1.0000000;visibility:visible;display:inline;overflow:visible;font-family:Bitstream Vera Sans;stroke-dasharray:none;stroke-miterlimit:4.0000000;marker-end:none;marker-mid:none;marker-start:none;marker:none;stroke-linejoin:miter;stroke-linecap:butt;stroke-width:0.74999999;stroke:url(#linearGradient3272);fill-rule:evenodd;fill-opacity:1.0;color:#000000;opacity:1.0000000;fill:#000000" /><path
   d="M 42.345893,36.987421 L 50.751872,34.188076 L 50.425873,50.733900 C 50.453873,51.429495 49.817874,51.514324 49.559875,51.626722 L 45.523885,52.947928 C 42.187893,44.704705 49.381875,47.022648 42.345893,36.987421 z "
   id="path1540"
   style="fill:url(#linearGradient2300)" /><path
   sodipodi:nodetypes="ccccccc"
   d="M 37.559905,38.255609 L 41.637895,40.164253 L 43.074315,53.757237 C 43.341133,53.533223 43.081644,54.029250 42.417838,53.646001 L 39.979899,51.599152 C 39.907899,51.493117 39.839899,51.365874 39.795899,51.230148 L 37.559905,38.255609 z "
   id="path1567"
   style="fill:url(#linearGradient2297)" /><path
   d="M 39.479900,37.748758 L 50.751872,34.188076 L 50.751872,34.188076 L 42.472615,37.114143 C 49.508597,47.149370 42.377976,44.641344 45.713968,52.884567 C 45.713968,52.884567 43.346924,53.792181 43.346924,53.792181 C 43.234925,53.792181 42.947387,53.871045 42.664175,53.758111 L 39.479900,37.748758 z "
   id="path1569"
   style="fill:url(#linearGradient2294)"
   sodipodi:nodetypes="cccccccc" /><g
   id="g2992"
   transform="matrix(0.630544,0.000000,0.000000,0.630544,-71.71295,33.11360)"><path
     sodipodi:nodetypes="cccccccccccccsc"
     id="path3216"
     transform="matrix(1.585932,0.000000,0.000000,1.585932,113.7319,-52.51592)"
     d="M 52.906250,6.7812500 C 52.303069,6.8161469 51.551120,6.9589143 50.531250,7.1562500 L 25.875000,11.062500 C 24.339411,11.310137 24.138053,12.367830 24.218750,13.125000 L 28.968750,40.437500 L 29.031250,40.843750 C 29.038787,40.886335 29.158058,41.257432 29.500000,41.718750 C 29.777569,42.129201 30.161271,42.487448 30.593750,42.750000 C 30.606405,42.757683 30.612230,42.773719 30.625000,42.781250 C 31.482325,43.286854 32.490744,43.400827 33.437500,43.093750 L 56.656250,35.562500 C 58.220542,35.054446 59.208174,33.510183 59.031250,31.875000 L 56.343750,9.8437500 C 56.153667,8.3864496 55.367158,7.7290727 54.375000,7.1562500 C 53.903424,6.8839854 53.509431,6.7463531 52.906250,6.7812500 z "
     style="stroke-opacity:1.0000000;stroke:#8c8c8c;fill-rule:evenodd;fill:#000000;font-size:12.000000;fill-opacity:1.0000000;stroke-dasharray:none;stroke-miterlimit:4.0000000;stroke-width:0.75000007" /><path
     style="font-size:12.000000;fill:url(#linearGradient2277);fill-rule:evenodd"
     d="M 197.47807,-41.623787 L 156.52791,-34.786645 C 155.04197,-34.567763 153.62016,-34.737487 152.74995,-33.513291 C 151.87973,-32.289096 152.53260,-31.210764 152.81421,-29.735428 L 159.66773,11.627430 C 159.96812,13.177079 160.91864,14.523509 162.27830,15.325360 C 163.63796,16.127212 165.27621,16.307488 166.77770,15.820484 L 203.57760,3.8924180 C 206.05846,3.0866770 207.63455,0.65189300 207.35396,-1.9413960 L 203.06601,-36.906762 C 202.74642,-39.773134 200.36028,-41.728966 197.47807,-41.623787 z "
     id="path2449"
     sodipodi:nodetypes="ccccccccccc" /><path
     sodipodi:type="inkscape:offset"
     inkscape:radius="1.8276073"
     inkscape:original="M 48.375000 5.3437500 L 7.8750000 12.718750 L 14.718750 52.593750 L 52.468750 41.343750 L 48.375000 5.3437500 z "
     style="font-size:12.000000;fill:url(#linearGradient2279);fill-opacity:1.0000000;fill-rule:evenodd"
     id="path2442"
     d="M 48.062500,3.5312500 L 7.5625000,10.906250 C 7.0803515,10.986262 6.6503304,11.256038 6.3684809,11.655325 C 6.0866314,12.054612 5.9764336,12.550145 6.0625000,13.031250 L 12.906250,52.906250 C 12.995006,53.425350 13.303352,53.880941 13.752274,54.156279 C 14.201195,54.431618 14.747063,54.499944 15.250000,54.343750 L 53.000000,43.093750 C 53.848053,42.835110 54.388190,42.005143 54.281250,41.125000 L 50.187500,5.1250000 C 50.130390,4.6257337 49.870244,4.1720038 49.468226,3.8704905 C 49.066208,3.5689773 48.557786,3.4462811 48.062500,3.5312500 z "
     transform="matrix(0.915975,0.000000,0.000000,0.915975,153.4513,-39.83230)" /><path
     sodipodi:type="inkscape:offset"
     inkscape:radius="1.1334339"
     inkscape:original="M 48.375000 5.3437500 L 14.718750 52.593750 L 52.468750 41.343750 L 48.375000 5.3437500 z "
     style="font-size:12.000000;fill:url(#linearGradient2281);fill-opacity:1.0000000;fill-rule:evenodd"
     id="path2447"
     d="M 48.218750,4.2187500 C 47.904237,4.2588636 47.620900,4.4288659 47.437500,4.6875000 L 13.781250,51.937500 C 13.494428,52.332081 13.492211,52.865910 13.775746,53.262860 C 14.059282,53.659809 14.564975,53.830846 15.031250,53.687500 L 52.781250,42.437500 C 53.313437,42.284272 53.656996,41.768933 53.593750,41.218750 L 49.500000,5.2187500 C 49.466787,4.9144342 49.311904,4.6364888 49.070583,4.4481403 C 48.829261,4.2597918 48.522020,4.1770548 48.218750,4.2187500 L 48.218750,4.2187500 z "
     transform="matrix(0.942107,0.000000,0.000000,0.942107,152.7713,-40.31998)" /><path
     sodipodi:type="inkscape:offset"
     inkscape:radius="1.6228304"
     inkscape:original="M 47.906250 6.1562500 L 8.5937500 13.250000 L 15.281250 51.781250 L 51.781250 40.968750 L 47.906250 6.1562500 z "
     style="stroke-opacity:1.0000000;stroke:url(#linearGradient3242);fill-rule:evenodd;fill-opacity:1.0;fill:url(#radialGradient2283);font-size:12.000000;stroke-dasharray:none;stroke-miterlimit:4.0000000;stroke-width:0.56473805"
     id="path2438"
     d="M 47.843750,4.5312500 C 47.770208,4.5366850 47.697122,4.5471259 47.625000,4.5625000 L 8.3125000,11.656250 C 7.4337734,11.813895 6.8473502,12.651642 7.0000000,13.531250 L 13.687500,52.062500 C 13.765950,52.519931 14.036478,52.921893 14.430712,53.166796 C 14.824946,53.411699 15.305164,53.476110 15.750000,53.343750 L 52.250000,42.531250 C 53.011214,42.308760 53.500160,41.568733 53.406250,40.781250 L 49.531250,5.9687500 C 49.434556,5.1202362 48.696844,4.4918151 47.843750,4.5312500 z "
     transform="matrix(0.912685,0.000000,0.000000,0.912685,153.5534,-39.73656)" /><path
     style="font-size:12.000000;fill:url(#linearGradient2285);fill-rule:evenodd"
     d="M 193.85889,-41.148625 L 154.77408,-34.967011 C 152.33874,-34.574275 152.03202,-32.902848 152.16000,-31.702028 L 159.76936,12.279061 C 159.78913,12.390766 159.78242,13.627136 162.23657,15.272671 L 153.88332,-31.106878 C 153.43069,-33.188973 154.59096,-33.389348 155.75123,-33.589722 L 199.97933,-41.144668 C 198.62617,-42.221257 197.09378,-41.774547 193.85889,-41.148625 z "
     id="path2461"
     sodipodi:nodetypes="ccccccccc" /></g></svg>