<?xml version="1.0" encoding="UTF-8" standalone="no"?>
<!-- Created with Inkscape (http://www.inkscape.org/) -->
<svg
   xmlns:dc="http://purl.org/dc/elements/1.1/"
   xmlns:cc="http://web.resource.org/cc/"
   xmlns:rdf="http://www.w3.org/1999/02/22-rdf-syntax-ns#"
   xmlns:svg="http://www.w3.org/2000/svg"
   xmlns="http://www.w3.org/2000/svg"
   xmlns:xlink="http://www.w3.org/1999/xlink"
   xmlns:sodipodi="http://inkscape.sourceforge.net/DTD/sodipodi-0.dtd"
   xmlns:inkscape="http://www.inkscape.org/namespaces/inkscape"
   sodipodi:docname="gtk-quit.svg"
   sodipodi:docbase="/home/david/.icons/eXperience/normal/stock"
   inkscape:version="0.41+cvs"
   sodipodi:version="0.32"
   id="svg2071"
   height="60.000000px"
   width="60.000000px">
  <defs
     id="defs3">
    <linearGradient
       x1="0.00000000"
       y1="0.00000000"
       x2="1.00000000"
       y2="0.00000000"
       id="linearGradient604"
       gradientUnits="objectBoundingBox"
       spreadMethod="pad">
      <stop
         style="stop-color:#ffb087;stop-opacity:1;"
         offset="0.00000000"
         id="stop608" />
      <stop
         style="stop-color:#f55e42;stop-opacity:1;"
         offset="0.25097999"
         id="stop607" />
      <stop
         style="stop-color:#e72106;stop-opacity:1;"
         offset="0.60000002"
         id="stop606" />
      <stop
         style="stop-color:#571f00;stop-opacity:1;"
         offset="1.00000000"
         id="stop605" />
    </linearGradient>
    <linearGradient
       id="linearGradient597">
      <stop
         offset="0"
         style="stop-color:#ffffff;stop-opacity:1.0000;"
         id="stop598" />
      <stop
         offset="1"
         style="stop-color:#333333;stop-opacity:1.0000;"
         id="stop601" />
    </linearGradient>
    <linearGradient
       inkscape:collect="always"
       xlink:href="#linearGradient597"
       id="linearGradient3476"
       gradientUnits="userSpaceOnUse"
       gradientTransform="matrix(0.756549,0.000000,0.000000,0.756549,109.9319,-14.48393)"
       x1="-18.467127"
       y1="66.243362"
       x2="35.010696"
       y2="168.67740" />
    <radialGradient
       inkscape:collect="always"
       xlink:href="#linearGradient604"
       id="radialGradient3480"
       gradientUnits="userSpaceOnUse"
       gradientTransform="matrix(5.488486e-3,-4.732571e-3,5.012156e-3,5.808319e-3,77.32871,40.96999)"
       cx="3105.4971"
       cy="-4087.9246"
       fx="3105.4971"
       fy="-4087.9246"
       r="10694.468" />
    <radialGradient
       inkscape:collect="always"
       xlink:href="#linearGradient604"
       id="radialGradient3489"
       gradientUnits="userSpaceOnUse"
       gradientTransform="matrix(0.710824,-0.327171,0.369755,0.803335,85111.82,21077.25)"
       spreadMethod="pad"
       cx="-79727.742"
       cy="-21306.646"
       fx="-79727.742"
       fy="-21306.646"
       r="48197.5195" />
    <linearGradient
       inkscape:collect="always"
       xlink:href="#linearGradient604"
       id="linearGradient3491"
       gradientUnits="userSpaceOnUse"
       x1="24961.625"
       y1="24652.912"
       x2="2498.9380"
       y2="-4829.0477" />
    <radialGradient
       inkscape:collect="always"
       xlink:href="#linearGradient604"
       id="radialGradient3501"
       cx="39.025887"
       cy="53.334183"
       fx="39.025887"
       fy="53.334183"
       r="19.775211"
       gradientTransform="matrix(-2.194227,-3.060693,2.815422,-2.018433,-15.08383,280.6735)"
       gradientUnits="userSpaceOnUse" />
    <radialGradient
       inkscape:collect="always"
       xlink:href="#linearGradient604"
       id="radialGradient3505"
       gradientUnits="userSpaceOnUse"
       gradientTransform="matrix(3.123530,3.977500,-2.724521,2.139548,-22.10997,-325.8319)"
       cx="55.467934"
       cy="51.975033"
       fx="55.467934"
       fy="51.975033"
       r="19.775211" />
  </defs>
  <sodipodi:namedview
     inkscape:guide-bbox="true"
     showguides="true"
     inkscape:window-y="71"
     inkscape:window-x="170"
     inkscape:window-height="511"
     inkscape:window-width="721"
     inkscape:document-units="px"
     inkscape:grid-bbox="true"
     showgrid="true"
     inkscape:current-layer="layer1"
     inkscape:cy="-11.929356"
     inkscape:cx="134.71659"
     inkscape:zoom="1.2062500"
     inkscape:pageshadow="2"
     inkscape:pageopacity="0.0"
     borderopacity="1.0"
     bordercolor="#666666"
     pagecolor="#ffffff"
     id="base" />
  <metadata
     id="metadata4">
    <rdf:RDF
       id="RDF5">
      <cc:Work
         id="Work6"
         rdf:about="">
        <dc:format
           id="format7">image/svg+xml</dc:format>
        <dc:type
           rdf:resource="http://purl.org/dc/dcmitype/StillImage"
           id="type9" />
      </cc:Work>
    </rdf:RDF>
  </metadata>
  <g
     inkscape:groupmode="layer"
     inkscape:label="Layer 1"
     id="layer1">
    <path
       style="font-size:12.000000;opacity:0.29999998;fill:#000000;fill-opacity:1.0000000;stroke:#000000;stroke-width:1.0474764;stroke-miterlimit:4.0000000;stroke-dasharray:none;stroke-opacity:1.0000000;font-family:DanceFloor eXit"
       d="M 35.915393,11.575542 C 35.939291,10.547703 36.222660,9.5877560 36.765526,8.6958884 C 37.317360,7.8201020 38.030492,7.1405846 38.904990,6.6573428 C 39.827974,6.1472695 40.758526,5.9184203 41.696452,5.9708460 C 42.740474,5.9857213 43.691465,6.2529287 44.549281,6.7724147 C 45.416061,7.3079949 46.095571,8.0211977 46.587758,8.9118585 C 47.079963,9.8024462 47.308825,10.732919 47.274343,11.703262 C 47.259448,12.747360 46.996685,13.706391 46.486201,14.580458 C 45.975658,15.454448 45.266954,16.142075 44.360126,16.643209 C 43.469540,17.135414 42.539094,17.364200 41.568726,17.329796 C 40.524651,17.314825 39.565604,17.052140 38.691543,16.541581 C 37.817545,16.031113 37.129988,15.322423 36.628786,14.415579 C 36.118703,13.492594 35.880842,12.545870 35.915393,11.575542 z M 20.448208,13.940115 L 32.367744,14.106877 L 42.250828,20.916406 L 42.172843,29.267097 L 50.995382,29.338019 L 50.921293,34.769473 L 36.678222,34.586743 L 36.537719,22.716064 L 28.495894,30.251945 L 39.458260,42.658176 L 39.320924,57.098125 L 33.018885,56.997808 L 33.215621,43.698253 L 27.581507,35.396770 L 27.451184,46.693697 L 10.984247,46.503301 L 11.076267,40.300927 L 21.836864,40.378929 L 21.933301,30.971501 L 28.325421,19.701971 L 25.241235,15.359282 L 16.338341,17.679518 L 14.067012,21.557141 L 20.448208,13.940115 z "
       id="path3509"
       sodipodi:nodetypes="ccccccccccccccccccccccccccccccccccccc" />
    <path
       style="font-size:12.000000;opacity:1.0000000;fill:url(#radialGradient3501);fill-opacity:1.0000000;stroke:#a90000;stroke-width:1.0474764;stroke-miterlimit:4.0000000;stroke-dasharray:none;stroke-opacity:1.0000000;font-family:DanceFloor eXit"
       d="M 33.839127,9.4992749 C 33.863025,8.4714370 34.146393,7.5114898 34.689259,6.6196222 C 35.241093,5.7438353 35.954225,5.0643179 36.828724,4.5810762 C 37.751707,4.0710028 38.682258,3.8421537 39.620185,3.8945794 C 40.664207,3.9094548 41.615198,4.1766620 42.473015,4.6961481 C 43.339795,5.2317283 44.019304,5.9449310 44.511491,6.8355923 C 45.003696,7.7261800 45.232558,8.6566521 45.198076,9.6269964 C 45.183183,10.671093 44.920418,11.630125 44.409934,12.504193 C 43.899391,13.378181 43.190688,14.065808 42.283860,14.566943 C 41.393273,15.059147 40.462828,15.287932 39.492458,15.253530 C 38.448385,15.238559 37.489337,14.975873 36.615277,14.465314 C 35.741279,13.954847 35.053721,13.246156 34.552520,12.339313 C 34.042435,11.416327 33.804576,10.469602 33.839127,9.4992749 z M 18.371941,11.863849 L 30.291476,12.030611 L 40.174562,18.840140 L 40.096578,27.190830 L 48.919114,27.261751 L 48.845027,32.693207 L 34.601955,32.510475 L 34.676610,25.588411 L 30.937927,31.618192 L 37.381994,40.581909 L 37.244657,55.021857 L 30.942619,54.921541 L 31.139354,41.621987 L 25.505241,33.320502 L 25.374918,44.617430 L 8.9079799,44.427035 L 9.0000000,38.224661 L 19.760597,38.302663 L 19.857035,28.895235 L 26.249155,17.625704 L 20.583083,17.586159 L 15.983332,22.918594 L 11.990746,19.480873 L 18.371941,11.863849 z "
       id="path1756" />
    <path
       style="font-size:12.000000;fill:#000000;fill-opacity:0.29803923;fill-rule:evenodd;stroke-width:1.0000000"
       d="M 117.85926,32.142777 C 117.85926,45.259518 107.22601,55.892746 94.109291,55.892746 C 80.992514,55.892746 70.359284,45.259518 70.359284,32.142777 C 70.359284,19.026002 80.992514,8.3927695 94.109291,8.3927695 C 107.22601,8.3927695 117.85926,19.026002 117.85926,32.142777 z "
       id="path2133"
       sodipodi:nodetypes="ccccc" />
    <circle
       id="circle570"
       style="font-size:12.000000;fill:url(#linearGradient3491)"
       transform="matrix(1.652552e-3,0.000000,0.000000,1.652552e-3,67.40331,5.436794)"
       r="14267.000"
       cy="15011.000"
       cx="15010.000"
       sodipodi:cx="15010.000"
       sodipodi:cy="15011.000"
       sodipodi:rx="14267.000"
       sodipodi:ry="14267.000" />
    <circle
       id="circle572"
       style="font-size:12.000000;fill:url(#radialGradient3489)"
       transform="matrix(1.652552e-3,0.000000,0.000000,1.652552e-3,67.40331,5.436794)"
       r="12870.000"
       cy="15000.000"
       cx="15000.000"
       sodipodi:cx="15000.000"
       sodipodi:cy="15000.000"
       sodipodi:rx="12870.000"
       sodipodi:ry="12870.000" />
    <path
       sodipodi:nodetypes="ccsssccc"
       id="path571"
       style="font-size:12.000000;fill:url(#radialGradient3480);fill-opacity:1.0000000"
       d="M 92.188746,6.6662931 C 99.790543,6.6662931 106.56354,10.361399 110.83534,16.062702 C 108.69699,13.711121 105.60413,13.910161 102.46419,15.440990 C 99.324265,16.971823 96.137295,19.834453 93.810695,22.810055 C 88.287184,29.652255 82.792059,28.796111 79.071345,29.576097 C 75.350642,30.356103 73.404377,32.772240 74.978641,46.159001 C 71.158903,41.959859 68.819887,36.369267 68.819887,30.243251 C 68.819887,17.257501 79.317612,6.6662931 92.188746,6.6662931 z " />
    <path
       id="path847"
       d="M 114.92419,30.142755 C 114.92419,42.743106 104.70962,52.957691 92.109268,52.957691 C 79.508902,52.957691 69.294300,42.743106 69.294300,30.142755 C 69.294300,17.542391 79.508902,7.3277856 92.109268,7.3277856 C 104.70962,7.3277856 114.92419,17.542391 114.92419,30.142755 z M 115.85924,30.142755 C 115.85924,43.259495 105.22599,53.892723 92.109268,53.892723 C 78.992491,53.892723 68.359262,43.259495 68.359262,30.142755 C 68.359262,17.025980 78.992491,6.3927469 92.109268,6.3927469 C 105.22599,6.3927469 115.85924,17.025980 115.85924,30.142755 z "
       style="font-size:12.000000;fill:#a90000;fill-opacity:1.0000000;fill-rule:evenodd;stroke-width:1.0000000" />
    <path
       id="path2697"
       d="M 94.664137,15.395891 C 94.681553,14.646844 94.888061,13.947273 95.283680,13.297315 C 95.685834,12.659078 96.205536,12.163873 96.842834,11.811706 C 97.515468,11.439985 98.193616,11.273209 98.877138,11.311415 C 99.637980,11.322255 100.33102,11.516985 100.95617,11.895566 C 101.58784,12.285874 102.08304,12.805628 102.44173,13.454706 C 102.80042,14.103730 102.96721,14.781821 102.94208,15.488969 C 102.93123,16.249865 102.73973,16.948768 102.36771,17.585753 C 101.99565,18.222681 101.47918,18.723796 100.81832,19.089002 C 100.16929,19.447701 99.491223,19.614431 98.784056,19.589359 C 98.023178,19.578449 97.324262,19.387015 96.687283,19.014940 C 96.050348,18.642931 95.549285,18.126467 95.184029,17.465595 C 94.812301,16.792961 94.638958,16.103026 94.664137,15.395891 z M 83.392276,17.119096 L 92.078753,17.240626 L 99.281147,22.203136 L 99.224314,28.288782 L 105.65382,28.340466 L 105.59983,32.298692 L 95.220056,32.165524 L 95.274461,27.121004 L 92.549860,31.515265 L 97.246035,38.047659 L 97.145950,48.570911 L 92.553279,48.497803 L 92.696652,38.805626 L 88.590737,32.755840 L 88.495763,40.988584 L 76.495324,40.849832 L 76.562385,36.329791 L 84.404273,36.386637 L 84.474553,29.530883 L 89.132872,21.318104 L 85.003667,21.289285 L 81.651555,25.175350 L 78.741919,22.670076 L 83.392276,17.119096 z "
       style="font-size:12.000000;opacity:1.0000000;fill:url(#linearGradient3476);fill-opacity:1.0000000;stroke:#a90000;stroke-width:0.69099998;stroke-miterlimit:4.0000000;stroke-dasharray:none;stroke-opacity:1.0000000;font-family:DanceFloor eXit" />
    <path
       id="path3503"
       d="M 33.839127,9.4992749 C 33.863025,8.4714370 34.146393,7.5114898 34.689259,6.6196222 C 35.241093,5.7438353 35.954225,5.0643179 36.828724,4.5810762 C 37.751707,4.0710028 38.682258,3.8421537 39.620185,3.8945794 C 40.664207,3.9094548 41.615198,4.1766620 42.473015,4.6961481 C 43.339795,5.2317283 44.019304,5.9449310 44.511491,6.8355923 C 45.003696,7.7261800 41.752282,8.0814984 39.268831,7.6230010 C 36.753912,7.1586937 33.804576,10.469602 33.839127,9.4992749 z M 18.371941,11.863849 C 22.345119,11.919436 26.318298,11.975023 30.291476,12.030611 C 33.585838,14.300453 36.880201,16.570296 40.174562,18.840140 C 36.800997,19.618823 32.310841,20.109812 30.053868,21.176188 C 27.796894,22.242563 23.407432,29.025689 22.614598,31.494833 C 21.821764,33.963979 23.576955,38.202169 21.875720,40.053257 C 20.174483,41.904346 14.553132,42.906131 12.407178,42.601365 C 10.261226,42.296600 10.135726,39.683561 9.0000000,38.224661 C 12.586866,38.250661 16.173732,38.276662 19.760597,38.302663 C 19.792742,35.166853 19.824890,32.031044 19.857035,28.895235 C 21.987740,25.138724 24.118448,21.382214 26.249155,17.625704 C 24.360464,17.612522 22.471772,17.599341 20.583083,17.586159 C 19.049832,19.363638 17.516582,21.141116 15.983332,22.918594 C 14.652469,21.772687 13.321608,20.626780 11.990746,19.480873 C 14.117812,16.941866 16.244876,14.402857 18.371941,11.863849 z "
       style="font-size:12.000000;opacity:1.0000000;fill:url(#radialGradient3505);fill-opacity:1.0000000;stroke:none;stroke-width:1.0089999;stroke-miterlimit:4.0000000;stroke-dasharray:none;stroke-opacity:1.0000000;font-family:DanceFloor eXit"
       sodipodi:nodetypes="cccccczcccczzzzcccccccc" />
    <path
       id="path3507"
       d="M 33.839127,9.4992749 C 33.863025,8.4714370 34.146393,7.5114898 34.689259,6.6196222 C 35.241093,5.7438353 35.954225,5.0643179 36.828724,4.5810762 C 37.751707,4.0710028 38.682258,3.8421537 39.620185,3.8945794 C 40.664207,3.9094548 41.615198,4.1766620 42.473015,4.6961481 C 43.339795,5.2317283 44.019304,5.9449310 44.511491,6.8355923 C 45.003696,7.7261800 45.232558,8.6566521 45.198076,9.6269964 C 45.183183,10.671093 44.920418,11.630125 44.409934,12.504193 C 43.899391,13.378181 43.190688,14.065808 42.283860,14.566943 C 41.393273,15.059147 40.462828,15.287932 39.492458,15.253530 C 38.448385,15.238559 37.489337,14.975873 36.615277,14.465314 C 35.741279,13.954847 35.053721,13.246156 34.552520,12.339313 C 34.042435,11.416327 33.804576,10.469602 33.839127,9.4992749 z M 18.371941,11.863849 L 30.291476,12.030611 L 40.174562,18.840140 L 40.096578,27.190830 L 48.919114,27.261751 L 48.845027,32.693207 L 34.601955,32.510475 L 34.676610,25.588411 L 30.937927,31.618192 L 37.381994,40.581909 L 37.244657,55.021857 L 30.942619,54.921541 L 31.139354,41.621987 L 25.505241,33.320502 L 25.374918,44.617430 L 8.9079799,44.427035 L 9.0000000,38.224661 L 19.760597,38.302663 L 19.857035,28.895235 L 26.249155,17.625704 L 20.583083,17.586159 L 15.983332,22.918594 L 11.990746,19.480873 L 18.371941,11.863849 z "
       style="font-size:12.000000;opacity:1.0000000;fill:none;fill-opacity:1.0000000;stroke:#a90000;stroke-width:1.0474764;stroke-miterlimit:4.0000000;stroke-dasharray:none;stroke-opacity:1.0000000;font-family:DanceFloor eXit" />
  </g>
</svg>
