<?xml version="1.0" encoding="UTF-8" standalone="no"?>
<!-- Created with Inkscape (http://www.inkscape.org/) -->
<svg
   xmlns:dc="http://purl.org/dc/elements/1.1/"
   xmlns:cc="http://web.resource.org/cc/"
   xmlns:rdf="http://www.w3.org/1999/02/22-rdf-syntax-ns#"
   xmlns:svg="http://www.w3.org/2000/svg"
   xmlns="http://www.w3.org/2000/svg"
   xmlns:xlink="http://www.w3.org/1999/xlink"
   xmlns:sodipodi="http://inkscape.sourceforge.net/DTD/sodipodi-0.dtd"
   xmlns:inkscape="http://www.inkscape.org/namespaces/inkscape"
   sodipodi:docname="gtk-italic.svg"
   sodipodi:docbase="/home/david/.icons/eXperience/normal/stock"
   inkscape:version="0.41+cvs"
   sodipodi:version="0.32"
   id="svg3076"
   height="48.000000pt"
   width="48.000000pt">
  <defs
     id="defs3">
    <linearGradient
       spreadMethod="pad"
       gradientUnits="objectBoundingBox"
       id="linearGradient741"
       y2="0"
       x2="1"
       y1="0"
       x1="0">
      <stop
         id="stop743"
         offset="0"
         style="stop-color:#ffffff;stop-opacity:1.0000;" />
      <stop
         id="stop742"
         offset="1"
         style="stop-color:#cacac5;stop-opacity:1.0000;" />
    </linearGradient>
    <linearGradient
       id="linearGradient774">
      <stop
         id="stop776"
         offset="0"
         style="stop-color:#000000;stop-opacity:1.0000;" />
      <stop
         id="stop775"
         offset="1"
         style="stop-color:#005dfa;stop-opacity:1.0000;" />
    </linearGradient>
    <linearGradient
       id="linearGradient770">
      <stop
         id="stop772"
         offset="0"
         style="stop-color:#002aff;stop-opacity:1.0000;" />
      <stop
         id="stop771"
         offset="1"
         style="stop-color:#ffffff;stop-opacity:1.0000;" />
    </linearGradient>
    <linearGradient
       spreadMethod="pad"
       gradientUnits="objectBoundingBox"
       id="linearGradient1669"
       y2="0"
       x2="1"
       y1="0"
       x1="0">
      <stop
         id="stop1670"
         offset="0"
         style="stop-color:#ffffff;stop-opacity:1.0000;" />
      <stop
         id="stop1671"
         offset="1"
         style="stop-color:#ffffff;stop-opacity:0;" />
    </linearGradient>
    <linearGradient
       inkscape:collect="always"
       xlink:href="#linearGradient1669"
       id="linearGradient2119"
       gradientUnits="userSpaceOnUse"
       x1="-3257.3679"
       y1="-5016.7065"
       x2="15000.000"
       y2="16156.186"
       gradientTransform="scale(2.000000e-3,2.000000e-3)" />
    <linearGradient
       inkscape:collect="always"
       xlink:href="#linearGradient770"
       id="linearGradient2122"
       gradientUnits="userSpaceOnUse"
       gradientTransform="scale(1.632154e-3,2.450750e-3)"
       x1="24597.238"
       y1="18458.684"
       x2="12160.349"
       y2="1969.1777" />
    <linearGradient
       inkscape:collect="always"
       xlink:href="#linearGradient774"
       id="linearGradient2125"
       gradientUnits="userSpaceOnUse"
       gradientTransform="scale(1.669720e-3,2.395612e-3)"
       x1="33294.9531"
       y1="18461.4687"
       x2="17028.6445"
       y2="7244.16846" />
    <radialGradient
       inkscape:collect="always"
       xlink:href="#linearGradient741"
       id="radialGradient2128"
       gradientUnits="userSpaceOnUse"
       gradientTransform="matrix(3.481486e-3,7.942346e-20,-9.238718e-20,2.392236e-3,-1.859019,-0.871406)"
       spreadMethod="pad"
       cx="1254.8333"
       cy="2221.6382"
       fx="1254.8333"
       fy="2221.6382"
       r="56101.4688" />
  </defs>
  <sodipodi:namedview
     inkscape:window-y="19"
     inkscape:window-x="1"
     inkscape:window-height="511"
     inkscape:window-width="721"
     gridtolerance="0.32000000pt"
     inkscape:current-layer="layer1"
     inkscape:document-units="pt"
     inkscape:cy="-101.55474"
     inkscape:cx="103.07369"
     inkscape:zoom="0.70000000"
     inkscape:pageshadow="2"
     inkscape:pageopacity="0.0"
     borderopacity="1.0"
     bordercolor="#666666"
     pagecolor="#ffffff"
     id="base" />
  <metadata
     id="metadata4">
    <rdf:RDF
       id="RDF5">
      <cc:Work
         id="Work6"
         rdf:about="">
        <dc:format
           id="format7">image/svg+xml</dc:format>
        <dc:type
           rdf:resource="http://purl.org/dc/dcmitype/StillImage"
           id="type9" />
      </cc:Work>
    </rdf:RDF>
  </metadata>
  <g
     id="layer1"
     inkscape:groupmode="layer"
     inkscape:label="Layer 1">
    <path
       id="path631"
       style="font-size:12.000000;fill:#8b8d8d"
       d="M 7.5880000,3.7000000 L 52.412000,3.7000000 C 54.552000,3.7000000 56.300000,5.4480000 56.300000,7.5880000 L 56.300000,52.412000 C 56.300000,54.552000 54.552000,56.300000 52.412000,56.300000 L 7.5880000,56.300000 C 5.4480000,56.300000 3.7000000,54.552000 3.7000000,52.412000 L 3.7000000,7.5880000 C 3.7000000,5.4480000 5.4480000,3.7000000 7.5880000,3.7000000 z " />
    <path
       id="path632"
       style="font-size:12.000000;fill:url(#radialGradient2128)"
       d="M 7.9500000,5.3539980 L 52.050000,5.3539980 C 53.478000,5.3539980 54.646000,6.5219980 54.646000,7.9499980 L 54.646000,52.050000 C 54.646000,53.478000 53.478000,54.646000 52.050000,54.646000 L 7.9500000,54.646000 C 6.5220000,54.646000 5.3540000,53.478000 5.3540000,52.050000 L 5.3540000,7.9499980 C 5.3540000,6.5219980 6.5220000,5.3539980 7.9500000,5.3539980 z " />
    <path
       id="path686"
       style="font-size:12.000000;fill:url(#linearGradient2125)"
       d="M 21.363560,42.396600 L 19.396940,42.589080 L 18.880664,43.080000 L 18.721006,43.266500 L 18.577762,43.473920 L 18.458392,43.697740 L 18.364388,43.934980 L 18.298734,44.181180 L 18.259938,44.425900 L 18.248002,44.667620 L 18.261430,44.927240 L 18.307686,45.192840 L 18.383786,45.458440 L 18.495694,45.712100 L 18.634462,45.949360 L 18.798596,46.164220 L 18.979144,46.350740 L 19.590916,46.861040 L 20.532440,46.817780 L 20.854740,46.802860 L 21.175560,46.789420 L 21.496360,46.777480 L 21.818660,46.767040 L 22.140960,46.755100 L 22.463260,46.746160 L 22.787060,46.737200 L 23.109360,46.729740 L 23.434640,46.723760 L 23.758420,46.717800 L 24.083720,46.713320 L 24.409000,46.708840 L 24.735780,46.707360 L 25.062540,46.704380 L 25.390820,46.704380 L 25.722080,46.704380 L 26.057800,46.707360 L 26.396520,46.708840 L 26.738200,46.713320 L 27.081400,46.717800 L 27.429060,46.723760 L 27.779720,46.729740 L 28.131860,46.737200 L 28.488480,46.746160 L 28.848080,46.755100 L 29.209180,46.767040 L 29.573260,46.777480 L 29.940320,46.790920 L 30.310360,46.802860 L 30.684880,46.817780 L 31.611500,46.855080 L 32.180000,46.446240 L 32.350100,46.298520 L 32.509760,46.131400 L 32.651520,45.950840 L 32.773860,45.764340 L 32.876820,45.567380 L 32.964860,45.364440 L 33.105120,44.945160 L 33.090200,44.512440 L 33.067820,44.308020 L 33.029020,44.099120 L 32.969340,43.878280 L 32.882800,43.655960 L 32.770880,43.436620 L 32.629140,43.224720 L 32.105400,42.599520 L 30.082060,42.401080 L 29.789620,42.363780 L 29.710520,42.345860 L 29.712020,42.302600 L 29.722460,42.177260 L 29.740380,42.026560 L 29.765740,41.853460 L 29.803040,41.658000 L 29.847800,41.440140 L 29.901520,41.202900 L 29.965680,40.946240 L 30.038800,40.671700 L 30.122360,40.377740 L 30.213380,40.067380 L 30.316340,39.739120 L 30.426740,39.394440 L 30.555080,39.010960 L 35.892420,21.923100 L 36.016260,21.515760 L 36.134140,21.138260 L 36.249040,20.778640 L 36.362440,20.438440 L 36.469860,20.120620 L 36.575800,19.822192 L 36.677280,19.543164 L 36.775760,19.286518 L 36.868260,19.050762 L 36.957800,18.835896 L 37.042840,18.643410 L 37.121920,18.474800 L 37.193540,18.330064 L 37.256220,18.212186 L 37.309940,18.121166 L 37.341280,18.073418 L 37.357680,18.052528 L 37.377080,18.031638 L 37.400960,18.007764 L 37.432280,17.980906 L 37.469600,17.954048 L 37.518840,17.924204 L 37.578520,17.891378 L 37.650140,17.858552 L 37.733700,17.825724 L 37.832180,17.791406 L 37.942600,17.760070 L 38.067940,17.730228 L 38.205220,17.704862 L 38.357400,17.680988 L 38.521540,17.661590 L 38.787140,17.639208 L 40.428480,17.372118 L 40.874620,17.058770 L 41.080540,16.881208 L 41.271540,16.669326 L 41.441640,16.421632 L 41.578920,16.148572 L 41.675900,15.860592 L 41.729620,15.572612 L 41.752000,15.199580 L 41.690820,14.853406 L 41.625160,14.616158 L 41.531160,14.378908 L 41.402840,14.137184 L 41.240200,13.910380 L 41.053680,13.704466 L 40.841800,13.525412 L 40.259880,13.138950 L 39.373540,13.179238 L 39.013940,13.195652 L 38.657320,13.209080 L 38.305180,13.222510 L 37.956020,13.234446 L 37.611340,13.246384 L 37.268160,13.256828 L 36.929440,13.264290 L 36.595200,13.273242 L 36.265440,13.279210 L 35.937180,13.285178 L 35.614880,13.289656 L 35.294080,13.294132 L 34.979240,13.297116 L 34.667380,13.298608 L 34.358500,13.298608 L 34.027260,13.298608 L 33.697500,13.297116 L 33.369220,13.294132 L 33.040960,13.289656 L 32.712680,13.285178 L 32.385920,13.279210 L 32.060620,13.273242 L 31.735340,13.264290 L 31.408560,13.256828 L 31.084780,13.246384 L 30.760980,13.234446 L 30.437200,13.222510 L 30.113400,13.209080 L 29.792600,13.195652 L 29.471780,13.180730 L 28.749600,13.143426 L 28.236300,13.383660 L 28.016960,13.516458 L 27.809560,13.679100 L 27.621540,13.864124 L 27.452940,14.076006 L 27.315660,14.298334 L 27.205240,14.532598 L 27.084380,14.889216 L 27.060500,15.239866 L 27.060500,15.441304 L 27.076920,15.650202 L 27.111240,15.860592 L 27.161980,16.069490 L 27.233600,16.278388 L 27.323120,16.481318 L 27.769260,17.300496 L 29.752300,17.633240 L 30.185020,17.686956 L 30.444660,17.740674 L 30.455100,17.743658 L 30.438680,17.857060 L 30.408840,18.037606 L 30.368560,18.240536 L 30.319320,18.464356 L 30.262620,18.709064 L 30.193980,18.974662 L 30.117880,19.258168 L 30.032820,19.559578 L 29.937340,19.880384 L 29.832880,20.217600 L 29.717980,20.574220 L 29.592660,20.959200 L 24.088200,38.045560 L 23.959860,38.472300 L 23.840500,38.857280 L 23.725600,39.222840 L 23.612200,39.566040 L 23.503280,39.889820 L 23.395840,40.191240 L 23.292880,40.473240 L 23.194400,40.732880 L 23.098900,40.970120 L 23.006400,41.185000 L 22.919860,41.377480 L 22.840780,41.543100 L 22.767660,41.684860 L 22.703500,41.798260 L 22.649780,41.884800 L 22.634860,41.907180 L 22.616960,41.926580 L 22.567720,41.977320 L 22.515480,42.025060 L 22.461780,42.068340 L 22.405060,42.108620 L 22.346880,42.145920 L 22.284200,42.181740 L 22.215560,42.216060 L 22.139480,42.247380 L 22.058900,42.277220 L 21.972360,42.304080 L 21.878340,42.329460 L 21.772400,42.350340 L 21.660500,42.369740 L 21.539640,42.383160 L 21.363560,42.396600 z " />
    <path
       id="path688"
       style="font-size:12.000000;fill:url(#linearGradient2122)"
       d="M 25.611660,38.520040 C 24.941680,40.792560 24.368720,42.248880 23.895700,42.889000 C 23.339140,43.560460 22.546820,43.926020 21.502340,43.987200 L 20.098240,44.124480 C 19.931122,44.269220 19.847562,44.452760 19.847562,44.666120 C 19.847562,44.901880 19.946044,45.092880 20.137040,45.237620 C 21.867900,45.154060 23.613700,45.107800 25.390820,45.107800 C 27.182860,45.107800 29.097260,45.154060 31.125060,45.237620 C 31.301140,45.124200 31.430960,44.948140 31.499580,44.712380 C 31.499580,44.467680 31.438420,44.269220 31.301140,44.124480 L 29.906000,43.987200 C 28.776460,43.896180 28.182580,43.467940 28.128880,42.690540 C 28.037860,41.957920 28.342240,40.570240 29.036080,38.520040 L 34.365960,21.453080 C 35.037420,19.225342 35.593980,17.792900 36.037160,17.151284 C 36.493740,16.503700 37.348740,16.138130 38.591680,16.054570 L 39.810740,15.856118 C 40.040520,15.711380 40.146480,15.527850 40.146480,15.290600 C 40.116620,15.054844 40.009200,14.871312 39.810740,14.757912 C 37.844120,14.848930 36.020740,14.895186 34.358500,14.895186 C 32.566460,14.895186 30.805760,14.848930 29.065920,14.757912 C 28.860020,14.841470 28.722740,14.993668 28.663060,15.207042 C 28.639180,15.436830 28.677980,15.650204 28.800340,15.856118 L 29.982100,16.054570 C 31.286220,16.167972 31.980060,16.564878 32.071080,17.236336 C 32.132260,17.937636 31.811440,19.347696 31.110140,21.453080 L 25.611660,38.520040 z " />
    <path
       id="path1668"
       style="font-size:12.000000;fill:url(#linearGradient2119);fill-opacity:1.0000000"
       d="M 7.9500000,5.3540020 L 52.050000,5.3540020 C 53.478000,5.3540020 54.646000,6.5220020 54.646000,7.9500000 C 51.217420,18.616670 43.983000,17.528234 22.426200,21.693600 C 13.684172,23.175920 17.163528,39.954200 5.3540000,47.288100 L 5.3540000,7.9500000 C 5.3540000,6.5220020 6.5220000,5.3540020 7.9500000,5.3540020 z " />
  </g>
</svg>
