<?xml version="1.0" encoding="UTF-8" standalone="no"?>
<!-- Created with Inkscape (http://www.inkscape.org/) -->
<svg
   xmlns:dc="http://purl.org/dc/elements/1.1/"
   xmlns:cc="http://web.resource.org/cc/"
   xmlns:rdf="http://www.w3.org/1999/02/22-rdf-syntax-ns#"
   xmlns:svg="http://www.w3.org/2000/svg"
   xmlns="http://www.w3.org/2000/svg"
   xmlns:xlink="http://www.w3.org/1999/xlink"
   xmlns:sodipodi="http://inkscape.sourceforge.net/DTD/sodipodi-0.dtd"
   xmlns:inkscape="http://www.inkscape.org/namespaces/inkscape"
   sodipodi:docname="gtk-find.svg"
   sodipodi:docbase="/home/david/.icons/eXperience/normal/stock"
   height="60.000000px"
   width="60.000000px"
   inkscape:version="0.41+cvs"
   sodipodi:version="0.32"
   id="svg1">
  <defs
     id="defs3">
    <linearGradient
       id="linearGradient1532">
      <stop
         id="stop1534"
         style="stop-color:#175dc4;stop-opacity:1.0000000;"
         offset="0.0000000" />
      <stop
         id="stop1533"
         style="stop-color:#aeccf5;stop-opacity:1.0000000;"
         offset="1.0000000" />
    </linearGradient>
    <linearGradient
       id="linearGradient1766">
      <stop
         id="stop1767"
         offset="0"
         style="stop-color:#000000;stop-opacity:1;" />
      <stop
         id="stop1768"
         offset="1"
         style="stop-color:#000000;stop-opacity:0;" />
    </linearGradient>
    <linearGradient
       id="linearGradient1762">
      <stop
         id="stop1763"
         offset="0.0000000"
         style="stop-color:#968ecd;stop-opacity:1.0000000;" />
      <stop
         id="stop1764"
         offset="1.0000000"
         style="stop-color:#554d85;stop-opacity:1.0000000;" />
    </linearGradient>
    <linearGradient
       id="linearGradient1751">
      <stop
         id="stop1752"
         offset="0.0000000"
         style="stop-color:#ffffff;stop-opacity:1.0000000;" />
      <stop
         id="stop1753"
         offset="1.0000000"
         style="stop-color:#afd3ff;stop-opacity:1.0000000;" />
    </linearGradient>
    <linearGradient
       id="linearGradient1746">
      <stop
         id="stop1747"
         offset="0.0000000"
         style="stop-color:#ffffff;stop-opacity:1.0000000;" />
      <stop
         id="stop1748"
         offset="1.0000000"
         style="stop-color:#ffffff;stop-opacity:0.0000000;" />
    </linearGradient>
    <radialGradient
       gradientUnits="userSpaceOnUse"
       gradientTransform="matrix(1.089376,0.000000,0.000000,0.724755,2.650608,6.254694)"
       fy="3.1320463"
       fx="43.392352"
       r="59.917704"
       cy="3.1320463"
       cx="43.392352"
       id="radialGradient1750"
       xlink:href="#linearGradient1746"
       inkscape:collect="always" />
    <radialGradient
       gradientUnits="userSpaceOnUse"
       gradientTransform="matrix(0.857394,0.000000,0.000000,0.920850,2.650608,6.254694)"
       fy="47.514152"
       fx="44.574645"
       r="78.146215"
       cy="47.514152"
       cx="44.574645"
       id="radialGradient1757"
       xlink:href="#linearGradient1751"
       inkscape:collect="always" />
    <linearGradient
       gradientUnits="userSpaceOnUse"
       gradientTransform="matrix(1.216264,0.000000,0.000000,0.649144,2.650608,6.254694)"
       y2="70.376839"
       x2="32.073531"
       y1="66.265707"
       x1="28.638879"
       id="linearGradient1761"
       xlink:href="#linearGradient1751"
       inkscape:collect="always" />
    <linearGradient
       gradientUnits="userSpaceOnUse"
       gradientTransform="matrix(0.859599,0.000000,0.000000,0.918488,2.650608,6.254694)"
       y2="51.416283"
       x2="58.475802"
       y1="7.0258278"
       x1="22.609107"
       id="linearGradient1765"
       xlink:href="#linearGradient1762"
       inkscape:collect="always" />
    <linearGradient
       gradientUnits="userSpaceOnUse"
       gradientTransform="matrix(0.882003,0.000000,0.000000,0.895157,2.650608,6.254694)"
       y2="55.049853"
       x2="52.728953"
       y1="51.526812"
       x1="50.651265"
       id="linearGradient1769"
       xlink:href="#linearGradient1766"
       inkscape:collect="always" />
    <defs
       id="defs2327">
      <linearGradient
         y2="62.410500"
         x2="72.902802"
         y1="-4.1747999"
         x1="72.902802"
         gradientUnits="userSpaceOnUse"
         id="linearGradient659">
        <stop
           id="stop661"
           style="stop-color:#ffffff;stop-opacity:1.0000;"
           offset="0" />
        <stop
           id="stop663"
           style="stop-color:#fffff5;stop-opacity:0;"
           offset="1" />
      </linearGradient>
      <linearGradient
         xlink:href="#linearGradient1532"
         spreadMethod="pad"
         y2="62.410500"
         x2="72.902802"
         y1="-4.1747999"
         x1="72.902802"
         gradientUnits="userSpaceOnUse"
         id="aigrd1" />
      <linearGradient
         y2="115.26420"
         x2="135.46680"
         y1="115.26420"
         x1="6.2168002"
         gradientUnits="userSpaceOnUse"
         id="aigrd15">
        <stop
           id="stop2291"
           style="stop-color:#415dc4"
           offset="0" />
        <stop
           id="stop2292"
           style="stop-color:#aeccf5"
           offset="1" />
      </linearGradient>
      <linearGradient
         gradientTransform="scale(0.900565,1.110414)"
         gradientUnits="objectBoundingBox"
         y2="0.60506731"
         x2="0.73793292"
         y1="0.070356607"
         x1="0.36545247"
         id="linearGradient773"
         xlink:href="#aigrd1" />
      <radialGradient
         gradientTransform="scale(1.000001,0.999999)"
         gradientUnits="objectBoundingBox"
         fy="0.093749791"
         fx="0.10135135"
         r="1.1807489"
         cy="0.093749791"
         cx="0.10135135"
         id="radialGradient774"
         xlink:href="#aigrd1" />
      <radialGradient
         gradientUnits="objectBoundingBox"
         fy="0.17187564"
         fx="-0.98913002"
         r="2.1136074"
         cy="0.17187564"
         cx="-0.98913002"
         id="radialGradient775"
         xlink:href="#aigrd1" />
      <radialGradient
         gradientTransform="scale(0.938914,1.065060)"
         gradientUnits="objectBoundingBox"
         fy="0.12469950"
         fx="0.16681667"
         r="0.84018791"
         cy="0.12469950"
         cx="0.16681667"
         id="radialGradient776"
         xlink:href="#linearGradient659" />
      <radialGradient
         fy="0.18749785"
         fx="-0.029411212"
         r="0.85121727"
         cy="0.18749785"
         cx="-0.029411212"
         id="radialGradient777"
         xlink:href="#aigrd1" />
      <radialGradient
         gradientUnits="objectBoundingBox"
         fy="0.50000030"
         fx="-0.85999984"
         r="2.0647945"
         cy="0.50000030"
         cx="-0.85999984"
         id="radialGradient778"
         xlink:href="#aigrd1" />
      <radialGradient
         gradientUnits="objectBoundingBox"
         fy="0.95310795"
         fx="-0.087153599"
         r="1.0279226"
         cy="0.95310795"
         cx="-0.087153599"
         id="radialGradient779"
         xlink:href="#aigrd1" />
      <radialGradient
         gradientUnits="objectBoundingBox"
         gradientTransform="scale(1.000006,0.999994)"
         fy="0.92963868"
         fx="-0.047862746"
         r="0.95944673"
         cy="0.92963868"
         cx="-0.047862746"
         id="radialGradient780"
         xlink:href="#aigrd1" />
      <radialGradient
         fy="0.078127153"
         fx="-0.14773858"
         r="1.5595293"
         cy="0.078127153"
         cx="-0.14773858"
         id="radialGradient781"
         xlink:href="#aigrd1" />
      <radialGradient
         fy="0.19530550"
         fx="-0.71428186"
         r="2.1028900"
         cy="0.19530550"
         cx="-0.71428186"
         id="radialGradient782"
         xlink:href="#aigrd1" />
      <radialGradient
         fy="0.12500304"
         fx="-0.055557165"
         r="1.4306992"
         cy="0.12500304"
         cx="-0.055557165"
         id="radialGradient783"
         xlink:href="#aigrd1" />
      <radialGradient
         gradientUnits="objectBoundingBox"
         fy="0.046874978"
         fx="-0.014925453"
         r="3.3873310"
         cy="0.046874978"
         cx="-0.014925453"
         id="radialGradient784"
         xlink:href="#aigrd1" />
      <radialGradient
         fy="0.16406243"
         fx="-5.2500367"
         r="7.3446145"
         cy="0.16406243"
         cx="-5.2500367"
         id="radialGradient884"
         xlink:href="#aigrd1" />
      <radialGradient
         gradientUnits="objectBoundingBox"
         fy="0.14843710"
         fx="-0.20238160"
         r="1.1100850"
         cy="0.14843710"
         cx="-0.20238160"
         id="radialGradient885"
         xlink:href="#aigrd1" />
    </defs>
    <radialGradient
       cx="2458.00000"
       cy="21915"
       r="8500"
       fx="2458.00000"
       fy="21915"
       id="id3"
       gradientUnits="userSpaceOnUse">
      <stop
         style="stop-color:#a66500;stop-opacity:1.0000;"
         offset="0"
         id="stop598" />
      <stop
         style="stop-color:#da8f00;stop-opacity:1.0000;"
         offset="1"
         id="stop600" />
    </radialGradient>
    <linearGradient
       x1="20158"
       y1="20912"
       x2="10575"
       y2="9295"
       id="id1"
       gradientUnits="userSpaceOnUse">
      <stop
         style="stop-color:#eda700;stop-opacity:1.0000;"
         offset="0"
         id="stop580" />
      <stop
         style="stop-color:#ffffff;stop-opacity:1.0000;"
         offset="0.38823500"
         id="stop582" />
      <stop
         style="stop-color:#ffcb50;stop-opacity:1.0000;"
         offset="0.7"
         id="stop584" />
      <stop
         style="stop-color:#ed8700;stop-opacity:1.0000;"
         offset="1"
         id="stop618" />
    </linearGradient>
    <linearGradient
       x1="10100"
       y1="14100"
       x2="15000"
       y2="19500"
       id="id0"
       gradientUnits="userSpaceOnUse">
      <stop
         style="stop-color:#f5fffa;stop-opacity:1.0000;"
         offset="0"
         id="stop565" />
      <stop
         style="stop-color:#6f6d7f;stop-opacity:1.0000;"
         offset="1.20000005"
         id="stop567" />
    </linearGradient>
    <linearGradient
       x1="10100"
       y1="14100"
       x2="15000"
       y2="19500"
       id="linearGradient629"
       gradientUnits="userSpaceOnUse">
      <stop
         style="stop-color:#ffffff;stop-opacity:0.6980;"
         offset="0"
         id="stop633" />
      <stop
         style="stop-color:#5db7ff;stop-opacity:0.6980;"
         offset="1.20000005"
         id="stop637" />
    </linearGradient>
    <linearGradient
       x1="10100"
       y1="14100"
       x2="15000"
       y2="19500"
       id="linearGradient644"
       gradientUnits="userSpaceOnUse">
      <stop
         style="stop-color:#f5ffff;stop-opacity:1.0000;"
         offset="0"
         id="stop648" />
      <stop
         style="stop-color:#ffffff;stop-opacity:0;"
         offset="1.20000005"
         id="stop652" />
    </linearGradient>
    <linearGradient
       x1="10100"
       y1="14100"
       x2="15000"
       y2="19500"
       id="linearGradient660"
       gradientUnits="userSpaceOnUse">
      <stop
         style="stop-color:#f5ffff;stop-opacity:0.4902;"
         offset="0"
         id="stop662" />
      <stop
         style="stop-color:#ffffff;stop-opacity:0;"
         offset="1.20000005"
         id="stop664" />
    </linearGradient>
    <radialGradient
       r="23165.9414"
       fy="17830.8145"
       fx="18969.1191"
       cy="17830.8145"
       cx="18969.1191"
       gradientUnits="userSpaceOnUse"
       id="radialGradient2344"
       xlink:href="#linearGradient629"
       inkscape:collect="always" />
    <radialGradient
       r="3682.17627"
       fy="27369.5566"
       fx="25537.7500"
       cy="27369.5566"
       cx="25537.7500"
       gradientTransform="translate(-1.203106e-5,1.325215e-4)"
       gradientUnits="userSpaceOnUse"
       id="radialGradient2346"
       xlink:href="#id0"
       inkscape:collect="always" />
    <radialGradient
       r="11887.5078"
       fy="17398.3379"
       fx="18401.3555"
       cy="17398.3379"
       cx="18401.3555"
       gradientTransform="translate(-7.321377e-5,-4.329504e-5)"
       gradientUnits="userSpaceOnUse"
       id="radialGradient2349"
       xlink:href="#linearGradient644"
       inkscape:collect="always" />
    <radialGradient
       r="16247.8887"
       fy="11245.8857"
       fx="13189.8584"
       cy="11245.8857"
       cx="13189.8584"
       gradientTransform="translate(-9.447385e-5,4.096390e-5)"
       gradientUnits="userSpaceOnUse"
       id="radialGradient2364"
       xlink:href="#linearGradient629"
       inkscape:collect="always" />
    <radialGradient
       r="4284.19678"
       fy="29167.0723"
       fx="26631.0430"
       cy="29167.0723"
       cx="26631.0430"
       gradientTransform="translate(-1.189675e-4,-1.256190e-4)"
       gradientUnits="userSpaceOnUse"
       id="radialGradient2368"
       xlink:href="#id0"
       inkscape:collect="always" />
    <radialGradient
       r="15131.6611"
       fy="10444.3965"
       fx="11715.2910"
       cy="10444.3965"
       cx="11715.2910"
       gradientTransform="matrix(1.599965e-3,0.000000,0.000000,1.599965e-3,11.26124,11.32948)"
       gradientUnits="userSpaceOnUse"
       id="radialGradient2381"
       xlink:href="#linearGradient660"
       inkscape:collect="always" />
    <linearGradient
       y2="29618.1992"
       x2="24589.6562"
       y1="405.028870"
       x1="389.401825"
       gradientTransform="matrix(1.599965e-3,0.000000,0.000000,1.599965e-3,11.26124,11.32948)"
       gradientUnits="userSpaceOnUse"
       id="linearGradient2384"
       xlink:href="#id0"
       inkscape:collect="always" />
    <linearGradient
       y2="21260.9609"
       x2="3741.10767"
       y1="21261.0059"
       x1="-3478.94458"
       gradientTransform="matrix(1.045572e-3,0.000000,2.766048e-20,2.448313e-3,-4.825299e-2,15.97405)"
       gradientUnits="userSpaceOnUse"
       id="linearGradient2387"
       xlink:href="#id1"
       inkscape:collect="always" />
    <linearGradient
       y2="20482.1387"
       x2="6753.38184"
       y1="27356.0645"
       x1="850.317566"
       gradientTransform="matrix(1.104723e-3,0.000000,2.617947e-20,2.317225e-3,-4.825299e-2,15.97405)"
       gradientUnits="userSpaceOnUse"
       id="linearGradient2390"
       xlink:href="#id3"
       inkscape:collect="always" />
    <linearGradient
       y2="18950.7070"
       x2="12508.2441"
       y1="-85.1431808"
       x1="-1308.28711"
       gradientTransform="matrix(1.599965e-3,0.000000,0.000000,1.599965e-3,11.26124,11.32948)"
       gradientUnits="userSpaceOnUse"
       id="linearGradient2395"
       xlink:href="#id0"
       inkscape:collect="always" />
    <linearGradient
       y2="39368.1211"
       x2="2312.52173"
       y1="39560.3008"
       x1="-1083.75916"
       gradientTransform="matrix(2.716342e-3,0.000000,1.064704e-20,9.424039e-4,-4.825299e-2,15.97405)"
       gradientUnits="userSpaceOnUse"
       id="linearGradient2399"
       xlink:href="#linearGradient644"
       inkscape:collect="always" />
    <radialGradient
       r="3734.60205"
       fy="18596"
       fx="17070.1621"
       cy="18596"
       cx="17070.1621"
       gradientTransform="matrix(1.619797e-3,0.000000,0.000000,1.580377e-3,11.26124,11.32948)"
       gradientUnits="userSpaceOnUse"
       id="radialGradient2402"
       xlink:href="#id0"
       inkscape:collect="always" />
    <radialGradient
       r="11539.996"
       fy="33086.471"
       fx="-2182.7423"
       cy="33086.471"
       cx="-2182.7423"
       gradientTransform="matrix(2.716341e-3,0.000000,1.064704e-20,9.424039e-4,-4.825299e-2,15.97405)"
       gradientUnits="userSpaceOnUse"
       id="radialGradient2405"
       xlink:href="#id0"
       inkscape:collect="always" />
    <radialGradient
       r="28430.2363"
       fy="17753.1152"
       fx="18299.9414"
       cy="17753.1152"
       cx="18299.9414"
       gradientTransform="matrix(1.599965e-3,0.000000,0.000000,1.599965e-3,11.26124,11.32948)"
       gradientUnits="userSpaceOnUse"
       id="radialGradient2408"
       xlink:href="#linearGradient629"
       inkscape:collect="always" />
    <radialGradient
       r="3055.2430"
       fy="15673.818"
       fx="16467.203"
       cy="15673.818"
       cx="16467.203"
       gradientTransform="matrix(1.589234e-3,0.000000,0.000000,1.610770e-3,11.26124,11.32948)"
       gradientUnits="userSpaceOnUse"
       id="radialGradient2411"
       xlink:href="#id0"
       inkscape:collect="always" />
    <radialGradient
       r="40170.2656"
       fy="17526.4570"
       fx="18631.6211"
       cy="17526.4570"
       cx="18631.6211"
       gradientTransform="matrix(1.599965e-3,0.000000,0.000000,1.599965e-3,11.26124,11.32948)"
       gradientUnits="userSpaceOnUse"
       id="radialGradient2418"
       xlink:href="#linearGradient629"
       inkscape:collect="always" />
  </defs>
  <sodipodi:namedview
     showborder="true"
     inkscape:grid-bbox="false"
     inkscape:grid-points="false"
     showgrid="false"
     gridoriginx="0.0000000pt"
     gridoriginy="0.0000000pt"
     gridspacingx="1.0000000pt"
     gridspacingy="1.0000000pt"
     inkscape:guide-bbox="true"
     showguides="false"
     inkscape:current-layer="svg1"
     inkscape:window-y="141"
     inkscape:window-x="35"
     inkscape:window-height="519"
     inkscape:window-width="857"
     inkscape:cy="-2.2118774"
     inkscape:cx="73.944201"
     inkscape:zoom="2.8284271"
     inkscape:pageshadow="2"
     inkscape:pageopacity="0.0"
     borderopacity="1.0"
     bordercolor="#666666"
     pagecolor="#ffffff"
     id="base">
    <sodipodi:guide
       id="guide2809"
       position="0.0000000"
       orientation="vertical" />
    <sodipodi:guide
       id="guide2810"
       position="48.000000"
       orientation="vertical" />
    <sodipodi:guide
       id="guide2811"
       position="0.0000000"
       orientation="horizontal" />
    <sodipodi:guide
       id="guide2819"
       position="47.000000"
       orientation="horizontal" />
    <sodipodi:guide
       id="guide1774"
       position="48.405405"
       orientation="horizontal" />
  </sodipodi:namedview>
  <metadata
     id="metadata4">
    <rdf:RDF
       id="RDF5">
      <cc:Work
         id="Work6"
         rdf:about="">
        <dc:format
           id="format7">image/svg+xml</dc:format>
        <dc:type
           rdf:resource="http://purl.org/dc/dcmitype/StillImage"
           id="type9" />
      </cc:Work>
    </rdf:RDF>
  </metadata>
  <g
     id="g2255">
    <path
       style="font-size:12.000000;opacity:0.12206573;fill:url(#linearGradient1769);fill-opacity:1.0000000;fill-rule:evenodd"
       d="M 6.4859703,59.212304 C 12.260283,59.213494 17.022583,58.878926 26.732731,58.372989 C 31.885446,58.104513 39.345489,58.055656 46.894846,57.838370 C 51.219909,51.889089 50.137450,48.130491 50.911315,43.561374 C 52.561815,33.816351 53.984654,27.727769 54.131686,10.855972 C 40.699182,15.435815 31.588703,17.481760 19.956429,21.984577 C 16.038980,34.512410 10.403421,46.684469 6.4859703,59.212304 z "
       id="path913"
       nodetypes="cccccc"
       sodipodi:nodetypes="cscsccc" />
    <path
       style="font-size:12.000000;fill:url(#linearGradient1765);fill-opacity:1.0000000;fill-rule:evenodd"
       d="M 3.7613018,56.235995 C 18.328087,58.259328 21.497259,58.801245 28.694541,58.281295 C 39.674078,57.496509 49.945724,52.104140 50.785513,44.249148 C 51.942510,36.874406 54.000268,25.684635 51.281019,6.2547400 C 36.236610,8.3810690 24.212642,8.7054340 6.4965635,7.1713494 C 9.8957530,18.093303 7.9523756,42.704571 3.7613018,56.235995 z "
       id="path861"
       sodipodi:nodetypes="cscccc" />
    <path
       style="font-size:12.000000;fill:url(#radialGradient1757);fill-opacity:1.0000000;fill-rule:evenodd"
       d="M 5.5680397,55.125301 C 18.466304,56.974623 22.111555,57.772451 30.443787,55.745690 C 33.328175,55.044083 41.084044,51.434235 41.577076,46.991458 C 42.274385,47.214559 47.197705,49.662373 49.674819,43.138454 C 51.266647,32.422448 52.001026,22.907343 50.035239,7.9057720 C 30.469715,9.8057590 20.412554,9.6572130 8.2040808,8.4761290 C 11.287474,17.914920 9.0151320,44.596697 5.5680397,55.125301 z "
       id="path863"
       sodipodi:nodetypes="ccccccc" />
    <path
       style="font-size:12.000000;opacity:0.91549295;fill:url(#linearGradient1761);fill-opacity:1.0000000;fill-rule:evenodd"
       d="M 29.715616,56.951454 C 39.414454,54.815237 44.885929,52.637331 48.253027,47.057670 C 46.245081,48.946483 44.300118,49.053473 42.408497,48.460738 C 40.859606,52.208973 37.673198,54.498974 29.715616,56.951454 z "
       id="path1150"
       sodipodi:nodetypes="cccc" />
    <path
       style="font-size:12.000000;fill:url(#radialGradient1750);fill-opacity:1.0000000;fill-rule:evenodd"
       d="M 50.992789,20.453472 C 51.061214,17.656735 50.526686,11.656165 50.035239,7.9057720 C 30.469715,9.8057590 20.412554,9.6572130 8.2040808,8.4761290 C 9.9049750,14.347061 10.323651,20.420752 9.6310020,27.428323 C 18.482713,46.922330 51.060807,29.870822 50.992789,20.453472 z "
       id="path1794"
       sodipodi:nodetypes="ccccc" />
  </g>
  <g
     transform="matrix(1.599965e-3,0.000000,0.000000,1.599965e-3,11.02725,12.62245)"
     style="fill-opacity:1.0000000;fill:#000000;opacity:0.18469997"
     id="g701">
    <path
       transform="matrix(1.036611,0.000000,0.000000,1.036611,-8223.773,-8828.788)"
       sodipodi:ry="2285.7148"
       sodipodi:rx="2285.7148"
       sodipodi:cy="27523.809"
       sodipodi:cx="27238.098"
       d="M 29523.812 27523.809 A 2285.7148 2285.7148 0 1 1  24952.383,27523.809 A 2285.7148 2285.7148 0 1 1  29523.812 27523.809 z"
       id="path695"
       style="fill:#000000;fill-opacity:1.0000000;fill-rule:evenodd;stroke:none;stroke-width:1.0000000pt;stroke-linecap:butt;stroke-linejoin:miter;stroke-opacity:1.0000000"
       sodipodi:type="arc" />
    <path
       sodipodi:nodetypes="csccscc"
       id="path696"
       d="M 19682.640,17385.350 C 19218.720,16813.270 19039.730,17202.010 18796.970,17009.070 C 18610.660,16842.070 18923.690,16578.550 18518.340,16140.130 L 16540.400,18107.420 C 16878.390,18440.920 17063.990,18199.100 17271.000,18482.540 C 17426.230,18708.140 17253.890,19001.780 17753.710,19324.950 L 19682.640,17385.350 z "
       style="font-size:12.000000;fill:#000000;fill-opacity:1.0000000;fill-rule:evenodd" />
    <rect
       transform="matrix(0.707107,-0.707107,0.707107,0.707107,0.000000,0.000000)"
       y="23097.424"
       x="-2063.9500"
       height="1619.0500"
       width="4666.6738"
       id="rect697"
       style="font-size:12.000000;fill:#000000;fill-opacity:1.0000000;fill-rule:evenodd;stroke-width:1.0000000" />
    <path
       id="path698"
       style="font-size:12.000000;fill:#000000;fill-opacity:1.0000000;fill-rule:evenodd"
       d="M 19648.880,9700.2740 C 19648.880,14758.310 15548.540,18858.650 10490.510,18858.650 C 5432.4870,18858.650 1332.1460,14758.310 1332.1460,9700.2740 C 1332.1460,4642.2480 5432.4870,541.90210 10490.510,541.90210 C 15548.540,541.90210 19648.880,4642.2480 19648.880,9700.2740 z M 18741.670,9700.2650 C 18741.670,14257.250 15047.500,17951.420 10490.520,17951.420 C 5933.5440,17951.420 2239.3760,14257.250 2239.3760,9700.2650 C 2239.3760,5143.2790 5933.5440,1449.1140 10490.520,1449.1140 C 15047.500,1449.1140 18741.670,5143.2790 18741.670,9700.2650 z " />
    <path
       transform="matrix(0.958333,0.000000,0.000000,0.958333,944.4438,99.20413)"
       sodipodi:ry="2285.7148"
       sodipodi:rx="2285.7148"
       sodipodi:cy="27523.809"
       sodipodi:cx="27238.098"
       d="M 29523.812 27523.809 A 2285.7148 2285.7148 0 1 1  24952.383,27523.809 A 2285.7148 2285.7148 0 1 1  29523.812 27523.809 z"
       id="path699"
       style="fill:#000000;fill-opacity:1.0000000;fill-rule:evenodd;stroke:none;stroke-width:1.0000000pt;stroke-linecap:butt;stroke-linejoin:miter;stroke-opacity:1.0000000"
       sodipodi:type="arc" />
    <rect
       id="rect700"
       style="font-size:12.000000;fill:#000000;fill-opacity:1.0000000"
       transform="matrix(0.707107,-0.707107,0.707107,0.707107,0.000000,0.000000)"
       y="26814.203"
       x="-2374.9519"
       height="11583.108"
       width="5522.1807" />
  </g>
  <path
     id="path667"
     d="M 39.996915,28.827977 C 39.996915,34.416831 35.466279,38.947468 29.877425,38.947468 C 24.288614,38.947468 19.757965,34.416831 19.757965,28.827977 C 19.757965,23.239147 24.288614,18.708503 29.877425,18.708503 C 35.466279,18.708503 39.996915,23.239147 39.996915,28.827977 z M 41.530674,26.834678 C 41.530674,34.294434 35.483350,40.341805 28.023561,40.341805 C 20.563792,40.341805 14.516454,34.294434 14.516454,26.834678 C 14.516454,19.374906 20.563792,13.327564 28.023561,13.327564 C 35.483350,13.327564 41.530674,19.374906 41.530674,26.834678 z "
     style="font-size:12.000000;opacity:0.29300001;fill:url(#radialGradient2418);fill-opacity:1.0000000;fill-rule:evenodd" />
  <path
     transform="matrix(1.491401e-3,0.000000,0.000000,1.491401e-3,13.26271,12.72550)"
     sodipodi:ry="9226.0635"
     sodipodi:rx="9226.0645"
     sodipodi:cy="9325.5361"
     sodipodi:cx="10168.873"
     d="M 19394.938 9325.5361 A 9226.0645 9226.0635 0 1 1  942.80859,9325.5361 A 9226.0645 9226.0635 0 1 1  19394.938 9325.5361 z"
     id="path643"
     style="opacity:0.68790001;fill:url(#radialGradient2344);fill-opacity:1.0000000;fill-rule:evenodd;stroke:none;stroke-width:1.0000000pt;stroke-linecap:butt;stroke-linejoin:miter;stroke-opacity:1.0000000"
     sodipodi:type="arc" />
  <path
     transform="matrix(1.658541e-3,0.000000,0.000000,1.658541e-3,-1.896509,-2.796272)"
     sodipodi:ry="2285.7148"
     sodipodi:rx="2285.7148"
     sodipodi:cy="27523.809"
     sodipodi:cx="27238.098"
     d="M 29523.812 27523.809 A 2285.7148 2285.7148 0 1 1  24952.383,27523.809 A 2285.7148 2285.7148 0 1 1  29523.812 27523.809 z"
     id="path669"
     style="stroke-opacity:1.0000000;stroke-linejoin:miter;stroke-linecap:butt;stroke-width:1.0000000pt;stroke:none;fill-rule:evenodd;fill-opacity:1.0000000;fill:#717386"
     sodipodi:type="arc" />
  <path
     transform="matrix(1.513557e-3,0.000000,0.000000,1.513557e-3,2.052624,1.194297)"
     sodipodi:ry="2285.7148"
     sodipodi:rx="2285.7148"
     sodipodi:cy="27523.809"
     sodipodi:cx="27238.098"
     d="M 29523.812 27523.809 A 2285.7148 2285.7148 0 1 1  24952.383,27523.809 A 2285.7148 2285.7148 0 1 1  29523.812 27523.809 z"
     id="path666"
     style="opacity:1.0000000;fill:url(#radialGradient2346);fill-opacity:1.0000000;fill-rule:evenodd;stroke:none;stroke-width:1.0000000pt;stroke-linecap:butt;stroke-linejoin:miter;stroke-opacity:1.0000000"
     sodipodi:type="arc" />
  <path
     transform="matrix(1.491401e-3,0.000000,0.000000,1.491401e-3,13.11033,12.72550)"
     sodipodi:ry="9226.0635"
     sodipodi:rx="9226.0645"
     sodipodi:cy="9325.5361"
     sodipodi:cx="10168.873"
     d="M 19394.938 9325.5361 A 9226.0645 9226.0635 0 1 1  942.80859,9325.5361 A 9226.0645 9226.0635 0 1 1  19394.938 9325.5361 z"
     id="path622"
     style="opacity:1.0000000;fill:url(#radialGradient2349);fill-opacity:1.0000000;fill-rule:evenodd;stroke:none;stroke-width:1.0000000pt;stroke-linecap:butt;stroke-linejoin:miter;stroke-opacity:1.0000000"
     sodipodi:type="arc" />
  <path
     sodipodi:nodetypes="csccscc"
     id="path675"
     d="M 42.752775,39.145432 C 42.010519,38.230124 41.724142,38.852094 41.335734,38.543397 C 41.037645,38.276203 41.538482,37.854580 40.889936,37.153123 L 37.725301,40.300718 C 38.266073,40.834307 38.563027,40.447403 38.894236,40.900897 C 39.142598,41.261849 38.866860,41.731663 39.666555,42.248724 L 42.752775,39.145432 z "
     style="font-size:12.000000;opacity:1.0000000;fill:url(#radialGradient2411);fill-rule:evenodd" />
  <path
     id="path661"
     d="M 41.117051,27.145198 C 41.117051,34.090262 35.527765,39.720347 28.633036,39.720347 C 21.738305,39.720347 16.149018,34.090262 16.149018,27.145198 C 16.149018,20.200148 21.738305,14.570072 28.633036,14.570072 C 35.527765,14.570072 41.117051,20.200148 41.117051,27.145198 z M 42.139525,26.635464 C 42.139525,34.428415 35.822111,40.745829 28.029161,40.745829 C 20.236228,40.745829 13.918801,34.428415 13.918801,26.635464 C 13.918801,18.842524 20.236228,12.525098 28.029161,12.525098 C 35.822111,12.525098 42.139525,18.842524 42.139525,26.635464 z "
     style="font-size:12.000000;opacity:1.0000000;fill:url(#radialGradient2408);fill-rule:evenodd;stroke-width:1.0000000" />
  <rect
     transform="matrix(0.707107,-0.707107,0.707107,0.707107,0.000000,0.000000)"
     y="52.929161"
     x="-3.3505034"
     height="2.5904255"
     width="7.4665213"
     id="rect982"
     style="font-size:12.000000;opacity:0.95539999;fill:url(#radialGradient2405);fill-opacity:1.0000000;fill-rule:evenodd;stroke-width:1.0000000" />
  <path
     sodipodi:nodetypes="csccscc"
     id="path677"
     d="M 42.562299,39.412098 C 41.820044,38.496790 41.533666,39.118760 41.145258,38.810063 C 40.847169,38.542869 41.309911,37.892675 40.470905,37.076933 L 37.534825,39.957878 C 38.189883,40.605752 38.829693,40.180753 39.160902,40.634247 C 39.409264,40.995199 39.133526,41.464997 39.933221,41.982057 L 42.562299,39.412098 z "
     style="font-size:12.000000;opacity:1.0000000;fill:url(#radialGradient2402);fill-rule:evenodd" />
  <rect
     transform="matrix(0.707107,-0.707107,0.707107,0.707107,0.000000,0.000000)"
     y="52.720257"
     x="-2.7105463"
     height="2.1463797"
     width="6.1866236"
     id="rect983"
     style="font-size:12.000000;opacity:1.0000000;fill:url(#linearGradient2399);fill-opacity:1.0000000;fill-rule:evenodd;stroke-width:1.0000000" />
  <path
     transform="matrix(1.350702e-3,0.000000,0.000000,1.350702e-3,10.38529,9.912111)"
     sodipodi:ry="3569.2063"
     sodipodi:rx="3569.2063"
     sodipodi:cy="7843.9863"
     sodipodi:cx="9899.4961"
     d="M 13468.702 7843.9863 A 3569.2063 3569.2063 0 1 1  6330.2898,7843.9863 A 3569.2063 3569.2063 0 1 1  13468.702 7843.9863 z"
     id="path668"
     style="opacity:0.21019997;fill:url(#radialGradient2364);fill-opacity:1.0000000;fill-rule:evenodd;stroke:none;stroke-width:1.0000000pt;stroke-linecap:butt;stroke-linejoin:miter;stroke-opacity:1.0000000"
     sodipodi:type="arc" />
  <path
     id="path792"
     style="font-size:12.000000;opacity:1.0000000;fill:url(#linearGradient2395);fill-rule:evenodd"
     d="M 42.698760,26.849577 C 42.698760,34.942259 36.138360,41.502660 28.045689,41.502660 C 19.953029,41.502660 13.392627,34.942259 13.392627,26.849577 C 13.392627,18.756913 19.953029,12.196502 28.045689,12.196502 C 36.138360,12.196502 42.698760,18.756913 42.698760,26.849577 z M 41.247256,26.849563 C 41.247256,34.140581 35.336713,40.051124 28.045705,40.051124 C 20.754703,40.051124 14.844163,34.140581 14.844163,26.849563 C 14.844163,19.558545 20.754703,13.648010 28.045705,13.648010 C 35.336713,13.648010 41.247256,19.558545 41.247256,26.849563 z " />
  <path
     transform="matrix(1.533299e-3,0.000000,0.000000,1.533299e-3,12.77232,11.48820)"
     sodipodi:ry="2285.7148"
     sodipodi:rx="2285.7148"
     sodipodi:cy="27523.809"
     sodipodi:cx="27238.098"
     d="M 29523.812 27523.809 A 2285.7148 2285.7148 0 1 1  24952.383,27523.809 A 2285.7148 2285.7148 0 1 1  29523.812 27523.809 z"
     id="path619"
     style="stroke-opacity:1.0000000;stroke-linejoin:miter;stroke-linecap:butt;stroke-width:1.0000000pt;stroke:none;fill-rule:evenodd;fill-opacity:1.0000000;fill:#808080"
     sodipodi:type="arc" />
  <path
     transform="matrix(1.391882e-3,0.000000,0.000000,1.391882e-3,16.49039,15.36208)"
     sodipodi:ry="2285.7148"
     sodipodi:rx="2285.7148"
     sodipodi:cy="27523.809"
     sodipodi:cx="27238.098"
     d="M 29523.812 27523.809 A 2285.7148 2285.7148 0 1 1  24952.383,27523.809 A 2285.7148 2285.7148 0 1 1  29523.812 27523.809 z"
     id="path620"
     style="fill:url(#radialGradient2368);fill-opacity:1.0000000;fill-rule:evenodd;stroke:none;stroke-width:1.0000000pt;stroke-linecap:butt;stroke-linejoin:miter;stroke-opacity:1.0000000"
     sodipodi:type="arc" />
  <rect
     id="rect624"
     style="font-size:12.000000;fill:url(#linearGradient2390)"
     transform="matrix(0.707107,-0.707107,0.707107,0.707107,0.000000,0.000000)"
     y="58.875874"
     x="-3.8480949"
     height="18.532578"
     width="8.8353004" />
  <rect
     id="rect629"
     style="font-size:12.000000;fill:url(#linearGradient2387);fill-opacity:1.0000000"
     transform="matrix(0.707107,-0.707107,0.707107,0.707107,0.000000,0.000000)"
     y="59.871284"
     x="-2.9625039"
     height="16.541983"
     width="7.0644026" />
  <path
     id="path646"
     d="M 41.533698,26.735257 C 41.533698,34.139013 35.531749,40.140962 28.127991,40.140962 C 20.724230,40.140962 14.722289,34.139013 14.722289,26.735257 C 14.722289,19.331489 20.724230,13.329551 28.127991,13.329551 C 35.531749,13.329551 41.533698,19.331489 41.533698,26.735257 z M 41.133531,26.735261 C 41.133531,33.918026 35.310730,39.740810 28.127991,39.740810 C 20.945239,39.740810 15.122461,33.918026 15.122461,26.735261 C 15.122461,19.552500 20.945239,13.729723 28.127991,13.729723 C 35.310730,13.729723 41.133531,19.552500 41.133531,26.735261 z "
     style="font-size:12.000000;opacity:1.0000000;fill:url(#linearGradient2384);fill-opacity:1.0000000;fill-rule:evenodd;stroke-width:1.0000000" />
  <path
     id="path659"
     d="M 30.247961,22.634030 C 30.247961,25.633714 27.816238,28.065450 24.816543,28.065450 C 21.816860,28.065450 19.385131,25.633714 19.385131,22.634030 C 19.385131,19.634346 21.816860,17.202617 24.816543,17.202617 C 27.816238,17.202617 30.247961,19.634346 30.247961,22.634030 z M 31.200852,22.062317 C 31.200852,25.904030 28.086536,29.018357 24.244815,29.018357 C 20.403117,29.018357 17.288788,25.904030 17.288788,22.062317 C 17.288788,18.220603 20.403117,15.106274 24.244815,15.106274 C 28.086536,15.106274 31.200852,18.220603 31.200852,22.062317 z "
     style="font-size:12.000000;opacity:0.54140002;fill:url(#radialGradient2381);fill-rule:evenodd;stroke-width:1.0000000" />
  <path
     sodipodi:nodetypes="ccccc"
     id="path680"
     d="M 39.672682,41.795918 L 39.913893,41.992217 L 42.587867,39.418690 L 42.441886,39.184295 L 39.672682,41.795918 z "
     style="font-size:12.000000;opacity:1.0000000;fill:#9a9ba9;fill-opacity:1.0000000;fill-rule:evenodd" />
  <path
     sodipodi:nodetypes="ccccc"
     id="path681"
     d="M 37.579496,40.015636 L 37.801731,40.179553 L 40.698996,37.339087 L 40.526024,37.072053 L 37.579496,40.015636 z "
     style="font-size:12.000000;opacity:1.0000000;fill:#8a92a0;fill-opacity:1.0000000;fill-rule:evenodd" />
</svg>
