<?xml version="1.0" encoding="UTF-8" standalone="no"?>
<!-- Created with Inkscape (http://www.inkscape.org/) -->
<svg
   xmlns:dc="http://purl.org/dc/elements/1.1/"
   xmlns:cc="http://web.resource.org/cc/"
   xmlns:rdf="http://www.w3.org/1999/02/22-rdf-syntax-ns#"
   xmlns:svg="http://www.w3.org/2000/svg"
   xmlns="http://www.w3.org/2000/svg"
   xmlns:xlink="http://www.w3.org/1999/xlink"
   xmlns:sodipodi="http://inkscape.sourceforge.net/DTD/sodipodi-0.dtd"
   xmlns:inkscape="http://www.inkscape.org/namespaces/inkscape"
   sodipodi:docname="gtk-sort-ascending.svg"
   sodipodi:docbase="/home/david/.icons/eXperience/normal/stock"
   inkscape:version="0.41+cvs"
   sodipodi:version="0.32"
   id="svg3076"
   height="48.000000pt"
   width="48.000000pt">
  <defs
     id="defs3">
    <linearGradient
       id="id0"
       gradientUnits="userSpaceOnUse"
       x1="14360"
       y1="12757"
       x2="2425"
       y2="1525">
      <stop
         offset="0"
         style="stop-color:#002fa7;stop-opacity:1.0000;"
         id="stop565" />
      <stop
         offset="1"
         style="stop-color:#ffffff;stop-opacity:1.0000;"
         id="stop567" />
    </linearGradient>
    <linearGradient
       id="id2"
       gradientUnits="userSpaceOnUse"
       x1="14807"
       y1="28599"
       x2="2167"
       y2="16702">
      <stop
         offset="0"
         style="stop-color:#000057;stop-opacity:1.0000;"
         id="stop575" />
      <stop
         offset="1"
         style="stop-color:#0000a5;stop-opacity:1.0000;"
         id="stop577" />
    </linearGradient>
    <linearGradient
       id="linearGradient720"
       gradientUnits="userSpaceOnUse"
       x1="26170"
       y1="29212"
       x2="11499"
       y2="16234">
      <stop
         offset="0"
         style="stop-color:#ffff3a;stop-opacity:0.7490;"
         id="stop722" />
      <stop
         offset="1"
         style="stop-color:#008f00;stop-opacity:0;"
         id="stop724" />
    </linearGradient>
    <linearGradient
       id="linearGradient2104"
       gradientUnits="userSpaceOnUse"
       x1="19681"
       y1="21628"
       x2="-2598"
       y2="26610">
      <stop
         offset="0.0000000"
         style="stop-color:#80ff3d;stop-opacity:1.0000000;"
         id="stop2106" />
      <stop
         offset="1.0000000"
         style="stop-color:#06a700;stop-opacity:1.0000000;"
         id="stop2108" />
    </linearGradient>
    <radialGradient
       inkscape:collect="always"
       xlink:href="#linearGradient2104"
       id="radialGradient3336"
       gradientUnits="userSpaceOnUse"
       gradientTransform="matrix(1.695950e-3,1.034735e-3,-2.568845e-3,4.210381e-3,12.47808,-19.48326)"
       cx="14256.002"
       cy="2227.2048"
       fx="14256.002"
       fy="2227.2048"
       r="13516.4404" />
    <linearGradient
       inkscape:collect="always"
       xlink:href="#id0"
       id="linearGradient3339"
       gradientUnits="userSpaceOnUse"
       gradientTransform="matrix(1.977484e-3,0.000000,0.000000,2.022772e-3,0.000000,31.04762)"
       x1="22394.980"
       y1="18197.562"
       x2="-10113.861"
       y2="-29120.811" />
    <linearGradient
       inkscape:collect="always"
       xlink:href="#id2"
       id="linearGradient3342"
       gradientUnits="userSpaceOnUse"
       x1="15202.8887"
       y1="13426.3115"
       x2="4605.11133"
       y2="1518.70190"
       gradientTransform="matrix(2.000000e-3,0.000000,0.000000,2.000000e-3,0.000000,31.04762)" />
    <linearGradient
       inkscape:collect="always"
       xlink:href="#id0"
       id="linearGradient3345"
       gradientUnits="userSpaceOnUse"
       gradientTransform="scale(1.857252e-3,2.153720e-3)"
       x1="23844.752"
       y1="31506.947"
       x2="-10768.598"
       y2="-12934.430" />
    <linearGradient
       inkscape:collect="always"
       xlink:href="#id2"
       id="linearGradient3348"
       gradientUnits="userSpaceOnUse"
       x1="14807"
       y1="28599"
       x2="2167"
       y2="16702"
       gradientTransform="scale(2.000000e-3,2.000000e-3)" />
    <linearGradient
       inkscape:collect="always"
       xlink:href="#linearGradient2104"
       id="linearGradient3351"
       gradientUnits="userSpaceOnUse"
       gradientTransform="matrix(2.166764e-3,0.000000,0.000000,2.166764e-3,-0.148652,-8.377800e-2)"
       x1="16926.467"
       y1="8973.2148"
       x2="21503.480"
       y2="12633.929" />
    <radialGradient
       inkscape:collect="always"
       xlink:href="#linearGradient720"
       id="radialGradient3357"
       gradientUnits="userSpaceOnUse"
       gradientTransform="matrix(2.166764e-3,0.000000,0.000000,2.166764e-3,-0.148652,-8.377800e-2)"
       cx="23765.3711"
       cy="9723"
       fx="23765.3711"
       fy="9723"
       r="7272.40039" />
    <linearGradient
       inkscape:collect="always"
       xlink:href="#linearGradient2104"
       id="linearGradient3359"
       x1="63.214287"
       y1="35.000000"
       x2="38.214287"
       y2="12.142858"
       gradientUnits="userSpaceOnUse" />
    <linearGradient
       inkscape:collect="always"
       xlink:href="#linearGradient2104"
       id="linearGradient3362"
       gradientUnits="userSpaceOnUse"
       gradientTransform="matrix(2.166764e-3,0.000000,0.000000,2.166764e-3,-0.148652,-8.377800e-2)"
       x1="15743.146"
       y1="2440.0249"
       x2="24200.404"
       y2="7478.2402" />
  </defs>
  <sodipodi:namedview
     inkscape:window-y="56"
     inkscape:window-x="-136"
     inkscape:window-height="664"
     inkscape:window-width="822"
     gridtolerance="0.32000000pt"
     inkscape:current-layer="layer1"
     inkscape:document-units="pt"
     inkscape:cy="6.5398952"
     inkscape:cx="89.745227"
     inkscape:zoom="2.8000000"
     inkscape:pageshadow="2"
     inkscape:pageopacity="0.0"
     borderopacity="1.0"
     bordercolor="#666666"
     pagecolor="#ffffff"
     id="base" />
  <metadata
     id="metadata4">
    <rdf:RDF
       id="RDF5">
      <cc:Work
         id="Work6"
         rdf:about="">
        <dc:format
           id="format7">image/svg+xml</dc:format>
        <dc:type
           rdf:resource="http://purl.org/dc/dcmitype/StillImage"
           id="type9" />
      </cc:Work>
    </rdf:RDF>
  </metadata>
  <g
     id="layer1"
     inkscape:groupmode="layer"
     inkscape:label="Layer 1">
    <path
       id="path2244"
       d="M 48.837552,16.767147 L 43.691487,55.333382 L 37.466374,16.767147 L 29.124332,16.767147 L 43.531147,2.3603318 L 57.929295,16.767147 C 54.910992,16.767147 51.851521,16.864651 48.837552,16.767147 z "
       style="font-size:12.000000;fill:url(#radialGradient3357);fill-rule:evenodd;stroke:#0f5c00;stroke-width:2.7111638;stroke-linecap:round;stroke-linejoin:round;stroke-miterlimit:4.0000000;stroke-dasharray:none;stroke-opacity:1.0000000" />
    <path
       style="font-size:12.000000;fill:url(#linearGradient3359);fill-opacity:1.0000000;fill-rule:evenodd"
       d="M 48.837552,16.767147 L 43.691487,55.333382 L 37.466374,16.767147 L 29.124332,16.767147 L 43.531147,2.3603318 L 57.929295,16.767147 C 54.910992,16.767147 51.851521,16.864651 48.837552,16.767147 z "
       id="path603" />
    <path
       style="font-size:12.000000;fill:url(#linearGradient3351);fill-opacity:1.0000000;fill-rule:evenodd"
       d="M 47.137682,23.189436 L 44.275387,51.693219 L 48.613249,16.795315 L 47.137682,23.189436 z "
       id="path607" />
    <path
       style="font-size:12.000000;fill:url(#linearGradient3348);fill-rule:evenodd"
       d="M 29.508000,23.494280 L 29.550000,23.244280 L 29.586000,23.000280 L 29.620000,22.758280 L 29.646000,22.524280 L 29.670000,22.292280 L 29.686000,22.068280 L 29.726000,21.438280 L 29.408000,20.930280 L 29.246000,20.732280 L 29.056000,20.552280 L 28.850000,20.400280 L 28.634000,20.278280 L 28.412000,20.184280 L 28.194000,20.118280 L 28.000000,20.076280 L 27.800000,20.042280 L 27.564000,20.024280 L 27.326000,20.030280 L 27.092000,20.060280 L 26.860000,20.114280 L 26.640000,20.186280 L 26.434000,20.278280 L 25.910000,20.562280 L 25.546000,21.316280 L 25.376000,21.654280 L 25.206000,21.974280 L 25.038000,22.276280 L 24.872000,22.556280 L 24.706000,22.818280 L 24.544000,23.062280 L 24.384000,23.284280 L 24.228000,23.488280 L 24.076000,23.672280 L 23.928000,23.836280 L 23.786000,23.980280 L 23.650000,24.106280 L 23.522000,24.212280 L 23.400000,24.300280 L 23.284000,24.376280 L 23.154000,24.448280 L 23.006000,24.520280 L 22.850000,24.588280 L 22.680000,24.652280 L 22.500000,24.714280 L 22.310000,24.770280 L 22.106000,24.822280 L 21.892000,24.868280 L 21.666000,24.910280 L 21.428000,24.946280 L 21.176000,24.976280 L 20.916000,25.000280 L 20.642000,25.018280 L 20.358000,25.030280 L 20.062000,25.036280 L 19.738000,25.034280 L 16.180000,25.034280 L 15.910000,25.034280 L 15.656000,25.032280 L 15.414000,25.030280 L 15.186000,25.026280 L 14.968000,25.020280 L 14.764000,25.014280 L 14.576000,25.008280 L 14.522000,25.006280 L 14.744000,24.636280 L 14.798000,24.552280 L 14.870000,24.444280 L 14.944000,24.328280 L 15.022000,24.208280 L 15.104000,24.082280 L 15.190000,23.950280 L 15.278000,23.814280 L 15.370000,23.672280 L 15.464000,23.524280 L 15.562000,23.372280 L 15.664000,23.214280 L 15.770000,23.052280 L 15.878000,22.882280 L 15.990000,22.708280 L 16.224000,22.342280 L 16.346000,22.152280 L 16.472000,21.956280 L 16.600000,21.754280 L 16.732000,21.548280 L 16.868000,21.336280 L 17.008000,21.118280 L 17.296000,20.666280 L 17.444000,20.432280 L 17.596000,20.194280 L 17.752000,19.950280 L 17.912000,19.698280 L 18.074000,19.442280 L 18.240000,19.182280 L 18.410000,18.914280 L 18.582000,18.646280 L 22.754000,12.174280 L 23.038000,11.740280 L 23.320000,11.312280 L 23.596000,10.896280 L 23.862000,10.494280 L 24.122000,10.102280 L 24.376000,9.7222800 L 24.622000,9.3542800 L 24.862000,8.9982800 L 25.092000,8.6562800 L 25.318000,8.3242800 L 25.534000,8.0042800 L 25.744000,7.6982800 L 25.948000,7.4022800 L 26.144000,7.1182800 L 26.332000,6.8482800 L 26.514000,6.5882800 L 26.688000,6.3422800 L 26.856000,6.1082800 L 27.014000,5.8862800 L 27.166000,5.6742800 L 27.310000,5.4782800 L 27.448000,5.2942800 L 27.578000,5.1222800 L 27.700000,4.9622800 L 27.814000,4.8142800 L 27.918000,4.6822800 L 28.016000,4.5602800 L 28.104000,4.4542800 L 28.182000,4.3642800 L 28.250000,4.2862800 L 28.306000,4.2262800 L 28.680000,3.8462800 L 28.754000,3.2262800 L 28.752000,2.9622800 L 28.712000,2.6922800 L 28.626000,2.4162800 L 28.494000,2.1542800 L 28.328000,1.9222792 L 28.140000,1.7322792 L 27.560000,1.2762792 L 26.926000,1.3662792 L 26.840000,1.3742792 L 26.720000,1.3842792 L 26.570000,1.3942792 L 26.394000,1.4042792 L 26.192000,1.4122792 L 25.966000,1.4202792 L 25.712000,1.4282792 L 25.436000,1.4362792 L 25.138000,1.4402792 L 24.816000,1.4462792 L 24.468000,1.4502792 L 24.098000,1.4522792 L 23.706000,1.4542792 L 23.290000,1.4562792 L 22.850000,1.4562792 L 12.220000,1.4562792 L 11.988000,1.4562792 L 11.770000,1.4542792 L 11.562000,1.4502792 L 11.368000,1.4462792 L 11.186000,1.4402792 L 11.016000,1.4322792 L 10.860000,1.4242792 L 10.718000,1.4142792 L 10.586000,1.4022792 L 10.472000,1.3902792 L 10.372000,1.3802792 L 10.288000,1.3682792 L 10.284000,1.3662792 L 10.080000,0.87027920 L 9.5080000,0.61027920 L 9.3680000,0.55827920 L 9.2320000,0.51627920 L 9.0940000,0.48227920 L 8.9520000,0.45827920 L 8.8140000,0.44027920 L 8.6740000,0.43027920 L 8.4480000,0.42427920 L 8.2340000,0.45827920 L 8.1080000,0.48227920 L 7.9820000,0.51427920 L 7.8560000,0.55427920 L 7.7240000,0.60227920 L 7.5920000,0.66227920 L 7.4560000,0.73827920 L 6.8960000,1.1102792 L 6.7680000,1.8522792 L 6.7380000,2.0342800 L 6.7060000,2.2182800 L 6.6720000,2.4022800 L 6.6380000,2.5902800 L 6.6020000,2.7782800 L 6.5680000,2.9702800 L 6.5300000,3.1602800 L 6.4920000,3.3562800 L 6.4540000,3.5522800 L 6.4140000,3.7522800 L 6.3740000,3.9522800 L 6.3320000,4.1542800 L 6.2900000,4.3602800 L 6.2460000,4.5662800 L 6.2020000,4.7722800 L 6.1560000,4.9822800 L 6.1100000,5.1962800 L 6.0620000,5.4102800 L 6.0160000,5.6262800 L 5.9660000,5.8442800 L 5.9160000,6.0642800 L 5.8660000,6.2862800 L 5.8140000,6.5102800 L 5.7620000,6.7342800 L 5.7080000,6.9622800 L 5.6540000,7.1922800 L 5.5980000,7.4242800 L 5.5420000,7.6562800 L 5.4840000,7.8922800 L 5.4260000,8.1302800 L 5.2220000,8.9582800 L 5.6820000,9.6022800 L 5.8720000,9.8002800 L 6.0800000,9.9642800 L 6.2920000,10.092280 L 6.5060000,10.190280 L 6.7200000,10.266280 L 6.9300000,10.322280 L 7.0920000,10.352280 L 7.2620000,10.386280 L 7.4960000,10.410280 L 7.7360000,10.414280 L 7.9740000,10.394280 L 8.2120000,10.352280 L 8.4480000,10.284280 L 8.6740000,10.192280 L 9.2840000,9.8742800 L 9.5620000,9.1162800 L 9.6620000,8.8622800 L 9.7620000,8.6202800 L 9.8660000,8.3882800 L 9.9720000,8.1682800 L 10.078000,7.9602800 L 10.186000,7.7642800 L 10.296000,7.5782800 L 10.406000,7.4062800 L 10.516000,7.2442800 L 10.628000,7.0942800 L 10.740000,6.9542800 L 10.850000,6.8282800 L 10.962000,6.7102800 L 11.074000,6.6042800 L 11.156000,6.5302800 L 11.226000,6.4822800 L 11.328000,6.4202800 L 11.450000,6.3562800 L 11.592000,6.2922800 L 11.754000,6.2302800 L 11.934000,6.1722800 L 12.136000,6.1142800 L 12.356000,6.0622800 L 12.594000,6.0162800 L 12.852000,5.9742800 L 13.128000,5.9382800 L 13.422000,5.9082800 L 13.736000,5.8842800 L 14.066000,5.8662800 L 14.414000,5.8562800 L 14.784000,5.8522800 L 18.204000,5.8522800 L 18.100000,6.0282800 L 17.902000,6.3622800 L 17.702000,6.6942800 L 17.504000,7.0222800 L 17.304000,7.3502800 L 17.106000,7.6742800 L 16.906000,7.9982800 L 16.708000,8.3182800 L 16.508000,8.6362800 L 16.310000,8.9522800 L 16.112000,9.2662800 L 15.912000,9.5762800 L 15.714000,9.8862800 L 15.516000,10.192280 L 7.9700000,21.694280 L 7.8580000,21.856280 L 7.7400000,22.030280 L 7.6220000,22.208280 L 7.5020000,22.386280 L 7.3820000,22.566280 L 7.2600000,22.748280 L 7.1380000,22.932280 L 7.0160000,23.116280 L 6.8900000,23.304280 L 6.7640000,23.494280 L 6.6380000,23.686280 L 6.5120000,23.880280 L 6.3840000,24.074280 L 6.2540000,24.272280 L 6.1240000,24.472280 L 5.9900000,24.676280 L 5.8640000,24.872280 L 5.7460000,25.052280 L 5.6320000,25.226280 L 5.5240000,25.390280 L 5.4200000,25.548280 L 5.3180000,25.696280 L 5.2220000,25.838280 L 5.1320000,25.968280 L 5.0440000,26.094280 L 4.9600000,26.210280 L 4.8820000,26.318280 L 4.8100000,26.416280 L 4.7420000,26.506280 L 4.6780000,26.586280 L 4.6200000,26.658280 L 4.3680000,26.966280 L 4.2480000,27.468280 L 4.2220000,27.792280 L 4.2600000,28.140280 L 4.3700000,28.480280 L 4.5420000,28.786280 L 4.7580000,29.040280 L 4.9960000,29.238280 L 5.5880000,29.606280 L 6.1720000,29.514280 L 6.2720000,29.502280 L 6.3960000,29.488280 L 6.5400000,29.474280 L 6.7020000,29.462280 L 6.8840000,29.450280 L 7.0840000,29.440280 L 7.2800000,29.432280 L 18.986000,29.432280 L 19.220000,29.432280 L 19.452000,29.432280 L 19.916000,29.434280 L 20.376000,29.436280 L 20.606000,29.438280 L 20.834000,29.442280 L 21.294000,29.446280 L 21.740000,29.452280 L 21.966000,29.456280 L 22.192000,29.460280 L 22.416000,29.464280 L 22.650000,29.470280 L 22.886000,29.470280 L 23.112000,29.470280 L 23.342000,29.472280 L 23.576000,29.474280 L 23.812000,29.478280 L 24.056000,29.480280 L 24.302000,29.484280 L 24.552000,29.488280 L 24.806000,29.494280 L 25.064000,29.500280 L 25.578000,29.512280 L 25.866000,29.520280 L 26.144000,29.528280 L 26.424000,29.536280 L 27.554000,29.572280 L 27.990000,28.702280 L 28.056000,28.566280 L 28.122000,28.422280 L 28.192000,28.270280 L 28.262000,28.108280 L 28.334000,27.936280 L 28.408000,27.756280 L 28.500000,27.528280 L 28.576000,27.290280 L 28.640000,27.084280 L 28.700000,26.870280 L 28.762000,26.654280 L 28.820000,26.432280 L 28.880000,26.206280 L 28.936000,25.976280 L 28.994000,25.740280 L 29.050000,25.506280 L 29.106000,25.270280 L 29.162000,25.032280 L 29.218000,24.790280 L 29.308000,24.406280 L 29.390000,24.056280 L 29.458000,23.770280 L 29.508000,23.494280 z "
       id="path613" />
    <path
       style="font-size:12.000000;fill:url(#linearGradient3345);fill-opacity:1.0000000;fill-rule:evenodd"
       d="M 18.922000,4.5342800 C 19.824000,4.5342800 20.260000,4.6102800 20.234000,4.7582800 C 20.234000,4.9302800 20.100000,5.2382800 19.838000,5.6802800 C 18.762000,7.5142800 17.694000,9.2622800 16.620000,10.912280 L 9.0660000,22.426280 C 8.4520000,23.328280 7.7980000,24.320280 7.0960000,25.394280 C 6.4240000,26.442280 5.9180000,27.166280 5.5800000,27.568280 C 5.4900000,27.856280 5.5860000,28.074280 5.8680000,28.228280 C 6.1540000,28.176280 6.6160000,28.138280 7.2480000,28.112280 C 7.8620000,28.112280 8.6560000,28.112280 9.6220000,28.112280 L 18.986000,28.112280 C 20.240000,28.112280 21.468000,28.126280 22.664000,28.150280 C 23.854000,28.150280 25.210000,28.176280 26.752000,28.228280 C 26.894000,27.952280 27.066000,27.568280 27.258000,27.082280 C 27.418000,26.596280 27.564000,26.046280 27.712000,25.432280 C 27.860000,24.818280 28.006000,24.178280 28.166000,23.500280 C 28.288000,22.868280 28.358000,22.292280 28.384000,21.780280 C 28.262000,21.556280 28.050000,21.422280 27.750000,21.370280 C 27.456000,21.306280 27.182000,21.358280 26.912000,21.518280 C 25.940000,23.590280 24.954000,24.920280 23.956000,25.510280 C 22.952000,26.098280 21.552000,26.378280 19.736000,26.354280 L 16.178000,26.354280 C 14.688000,26.354280 13.716000,26.302280 13.256000,26.206280 C 12.814000,26.116280 12.610000,25.996280 12.634000,25.848280 C 12.610000,25.700280 12.942000,25.062280 13.626000,23.936280 C 14.330000,22.860280 15.610000,20.866280 17.470000,17.936280 L 21.648000,11.456280 C 24.776000,6.6902800 26.694000,3.9582800 27.424000,3.2422800 C 27.468000,2.9922800 27.392000,2.8002800 27.188000,2.6602800 C 26.714000,2.7362800 25.268000,2.7742800 22.850000,2.7742800 L 12.218000,2.7742800 C 10.914000,2.7742800 10.082000,2.7102800 9.7300000,2.5902800 C 9.5380000,2.5122800 9.3980000,2.4242800 9.3140000,2.3282800 C 9.2180000,2.2002800 9.1360000,2.0462800 9.0580000,1.8542792 C 8.9180000,1.7842792 8.7400000,1.7462792 8.5340000,1.7462792 C 8.3420000,1.7702792 8.1960000,1.8222792 8.1000000,1.8922792 C 7.7740000,3.8362800 7.2880000,6.1022800 6.6480000,8.6862800 C 6.7680000,8.8842800 7.0060000,9.0062800 7.3380000,9.0562800 C 7.6640000,9.1342800 7.9580000,9.0942800 8.2220000,8.9422800 C 8.7840000,7.3562800 9.4880000,6.2042800 10.338000,5.4942800 C 11.176000,4.8542800 12.654000,4.5342800 14.778000,4.5342800 L 18.922000,4.5342800 z "
       id="path615" />
    <path
       style="font-size:12.000000;fill:url(#linearGradient3342);fill-rule:evenodd"
       d="M 19.236000,32.063049 L 18.908000,31.831049 L 18.546000,31.667049 L 18.176000,31.579049 L 17.276000,31.511049 L 16.820000,32.003049 L 16.778000,32.049049 L 16.704000,32.125049 L 16.600000,32.231049 L 16.472000,32.361049 L 16.320000,32.517049 L 15.964000,32.883049 L 15.884000,32.957049 L 15.792000,33.037049 L 15.698000,33.115048 L 15.602000,33.189048 L 15.500000,33.263048 L 15.396000,33.335048 L 15.290000,33.403048 L 15.180000,33.471048 L 15.066000,33.535048 L 14.950000,33.597048 L 14.828000,33.657050 L 14.702000,33.717050 L 14.574000,33.773050 L 14.442000,33.825050 L 14.306000,33.877050 L 13.270000,34.235050 L 13.262000,35.317050 L 13.254000,35.451050 L 13.234000,35.611050 L 13.206000,35.795050 L 13.166000,36.001050 L 13.114000,36.229050 L 13.050000,36.477050 L 12.974000,36.743050 L 12.884000,37.029050 L 12.784000,37.335050 L 12.670000,37.657050 L 12.544000,37.997050 L 12.406000,38.353050 L 12.256000,38.727050 L 12.094000,39.119050 L 11.902000,39.569050 L 8.5480000,48.959050 L 8.4600000,49.207050 L 8.3740000,49.451050 L 8.2880000,49.691050 L 8.2020000,49.927050 L 8.1180000,50.159050 L 8.0360000,50.389050 L 7.9540000,50.613050 L 7.8740000,50.833050 L 7.7960000,51.053040 L 7.7160000,51.267040 L 7.6400000,51.477040 L 7.5600000,51.691060 L 7.4140000,52.085060 L 7.3400000,52.283060 L 7.2700000,52.475060 L 7.1980000,52.663060 L 7.1280000,52.847060 L 7.0600000,53.029060 L 6.9920000,53.207060 L 6.9260000,53.381060 L 6.8600000,53.551060 L 6.7940000,53.717060 L 6.7320000,53.879060 L 6.6700000,54.037060 L 6.6080000,54.195060 L 6.5480000,54.345060 L 6.4880000,54.491060 L 6.4300000,54.637060 L 6.3740000,54.777060 L 6.2680000,55.031060 L 6.1740000,55.247060 L 6.0820000,55.429060 L 5.9960000,55.583060 L 5.9180000,55.709060 L 5.8460000,55.807060 L 5.7860000,55.875060 L 5.7400000,55.919060 L 5.7160000,55.939060 L 5.6780000,55.963060 L 5.6060000,56.003060 L 5.5300000,56.037060 L 5.4500000,56.069060 L 5.3620000,56.097060 L 5.2720000,56.119060 L 5.1760000,56.137060 L 5.0520000,56.155060 L 3.4100000,56.343060 L 3.0040000,57.033060 L 2.9160000,57.219060 L 2.8440000,57.415060 L 2.7940000,57.613060 L 2.7600000,57.809060 L 2.7420000,58.005060 L 2.7400000,58.201060 L 2.7480000,58.335060 L 2.7540000,58.483060 L 2.7820000,58.701060 L 2.8300000,58.921060 L 2.9060000,59.141060 L 3.0060000,59.359060 L 3.1360000,59.567060 L 3.2920000,59.761060 L 3.8160000,60.263060 L 4.6520000,60.237060 L 4.9260000,60.227060 L 5.1940000,60.219060 L 5.4580000,60.209060 L 5.9680000,60.193060 L 6.2160000,60.187060 L 6.4580000,60.179060 L 6.6920000,60.171060 L 6.9240000,60.165060 L 7.1480000,60.159060 L 7.3660000,60.153060 L 7.5800000,60.147060 L 7.7880000,60.141060 L 7.9900000,60.135060 L 8.1580000,60.131060 L 8.4260000,60.137060 L 8.7160000,60.141060 L 9.2680000,60.151060 L 9.8500000,60.165060 L 10.378000,60.179060 L 10.664000,60.187060 L 10.932000,60.195060 L 11.194000,60.201060 L 11.452000,60.209060 L 11.708000,60.219060 L 11.962000,60.227060 L 12.212000,60.237060 L 12.982000,60.265060 L 13.514000,59.801060 L 13.696000,59.583060 L 13.838000,59.351060 L 13.942000,59.115060 L 14.010000,58.883060 L 14.054000,58.661060 L 14.078000,58.443060 L 14.084000,58.235060 L 14.080000,58.051060 L 14.064000,57.871060 L 14.038000,57.687060 L 13.994000,57.493060 L 13.930000,57.295060 L 13.840000,57.091060 L 13.720000,56.889060 L 13.314000,56.365060 L 11.724000,56.093060 L 11.592000,56.061060 L 11.560000,56.053060 L 11.584000,55.967060 L 11.648000,55.743060 L 12.976000,51.451040 L 12.988000,51.451040 L 17.156000,51.451040 L 17.374000,51.453040 L 17.570000,51.455040 L 17.744000,51.461040 L 17.754000,51.461040 L 18.678000,54.519060 L 18.766000,54.793060 L 18.846000,55.037060 L 18.918000,55.269060 L 18.986000,55.483060 L 19.046000,55.685060 L 19.102000,55.873060 L 19.152000,56.047060 L 19.174000,56.127060 L 17.740000,56.355060 L 17.318000,56.875060 L 17.192000,57.071060 L 17.086000,57.279060 L 17.008000,57.495060 L 16.950000,57.715060 L 16.918000,57.935060 L 16.904000,58.151060 L 16.910000,58.317060 L 16.918000,58.497060 L 16.952000,58.729060 L 17.010000,58.963060 L 17.098000,59.193060 L 17.214000,59.415060 L 17.360000,59.625060 L 17.530000,59.813060 L 18.058000,60.269060 L 18.882000,60.231060 L 19.182000,60.219060 L 19.484000,60.207060 L 19.786000,60.195060 L 20.090000,60.185060 L 20.396000,60.175060 L 20.704000,60.167060 L 21.014000,60.159060 L 21.324000,60.153060 L 21.638000,60.147060 L 21.952000,60.143060 L 22.268000,60.139060 L 22.586000,60.135060 L 22.906000,60.133060 L 23.228000,60.131060 L 23.550000,60.131060 L 23.734000,60.131060 L 23.916000,60.131060 L 24.100000,60.133060 L 24.284000,60.133060 L 24.466000,60.135060 L 24.648000,60.135060 L 25.010000,60.139060 L 25.368000,60.143060 L 25.550000,60.145060 L 25.728000,60.147060 L 25.906000,60.151060 L 26.086000,60.153060 L 26.264000,60.157060 L 26.440000,60.159060 L 26.616000,60.163060 L 26.792000,60.167060 L 27.144000,60.175060 L 27.494000,60.185060 L 27.668000,60.191060 L 27.842000,60.195060 L 28.014000,60.201060 L 28.186000,60.207060 L 28.360000,60.213060 L 28.530000,60.219060 L 28.702000,60.225060 L 28.874000,60.231060 L 29.044000,60.239060 L 29.786000,60.267060 L 30.320000,59.743060 L 30.482000,59.531060 L 30.610000,59.307060 L 30.706000,59.081060 L 30.774000,58.855060 L 30.818000,58.635060 L 30.842000,58.417060 L 30.852000,58.147060 L 30.826000,57.909060 L 30.796000,57.731060 L 30.754000,57.551060 L 30.696000,57.365060 L 30.616000,57.175060 L 30.510000,56.979060 L 30.372000,56.785060 L 29.958000,56.345060 L 28.148000,56.061060 L 28.030000,56.031060 L 27.936000,55.999060 L 27.862000,55.965060 L 27.806000,55.929060 L 27.760000,55.895060 L 27.720000,55.857060 L 27.682000,55.807060 L 27.608000,55.693060 L 27.556000,55.609060 L 27.514000,55.533060 L 27.468000,55.449060 L 27.422000,55.355060 L 27.376000,55.253060 L 27.330000,55.147060 L 27.284000,55.031060 L 27.222000,54.871060 L 27.148000,54.695060 L 27.080000,54.537060 L 27.010000,54.373060 L 26.938000,54.201060 L 26.860000,54.023060 L 26.782000,53.835060 L 26.702000,53.643060 L 26.636000,53.479060 L 21.602000,38.453050 L 21.440000,37.981050 L 21.290000,37.531050 L 21.144000,37.099050 L 21.008000,36.687050 L 20.878000,36.295050 L 20.756000,35.923050 L 20.640000,35.569050 L 20.532000,35.235050 L 20.430000,34.921050 L 20.338000,34.627050 L 20.252000,34.351050 L 20.174000,34.095050 L 20.102000,33.859050 L 20.038000,33.643050 L 19.984000,33.451048 L 19.930000,33.261048 L 19.852000,32.993049 L 19.708000,32.665049 L 19.504000,32.351049 L 19.236000,32.063049 z M 15.342000,43.805050 L 15.384000,43.935050 L 15.484000,44.259050 L 16.264000,46.793050 L 14.384000,46.793050 L 15.128000,44.475050 L 15.238000,44.133050 L 15.342000,43.805050 z "
       id="path609" />
    <path
       style="font-size:12.000000;fill:url(#linearGradient3339);fill-opacity:1.0000000;fill-rule:evenodd"
       d="M 17.160000,50.133052 C 17.798000,50.133052 18.240000,50.159052 18.484000,50.209052 C 18.740000,50.305052 18.886000,50.517052 18.938000,50.823052 L 19.936000,54.123060 C 20.408000,55.563060 20.646000,56.433060 20.646000,56.733060 C 20.646000,56.843060 20.594000,56.965060 20.498000,57.085060 C 20.376000,57.213060 20.096000,57.317060 19.648000,57.387060 L 18.444000,57.579060 C 18.278000,57.763060 18.208000,57.995060 18.228000,58.269060 C 18.228000,58.557060 18.330000,58.781060 18.522000,58.927060 C 20.128000,58.851060 21.804000,58.813060 23.550000,58.813060 C 25.532000,58.813060 27.438000,58.851060 29.268000,58.927060 C 29.442000,58.781060 29.530000,58.531060 29.530000,58.199060 C 29.506000,57.899060 29.428000,57.687060 29.306000,57.579060 L 27.886000,57.355060 C 27.246000,57.227060 26.780000,56.907060 26.492000,56.395060 C 26.306000,56.107060 26.146000,55.761060 26.000000,55.365060 C 25.834000,54.975060 25.628000,54.501060 25.398000,53.939060 L 20.352000,38.875052 C 19.482000,36.309052 18.918000,34.563052 18.662000,33.623052 C 18.548000,33.123052 18.260000,32.873051 17.812000,32.873051 C 17.766000,32.925051 17.454000,33.245052 16.884000,33.827052 C 16.270000,34.415052 15.502000,34.869052 14.582000,35.177052 C 14.608000,36.143052 14.120000,37.767052 13.130000,40.051052 L 9.7900000,49.403052 C 8.8440000,52.065060 8.0760000,54.117060 7.4820000,55.551060 C 7.1800000,56.267060 6.8480000,56.753060 6.4840000,57.015060 C 6.1120000,57.265060 5.6840000,57.411060 5.2160000,57.463060 L 4.2120000,57.579060 C 4.0900000,57.763060 4.0400000,57.995060 4.0660000,58.269060 C 4.0660000,58.557060 4.1540000,58.781060 4.3280000,58.927060 C 5.8360000,58.877060 7.1160000,58.839060 8.1520000,58.813060 C 9.7400000,58.839060 11.192000,58.877060 12.508000,58.927060 C 12.682000,58.799060 12.764000,58.569060 12.764000,58.231060 C 12.764000,57.931060 12.708000,57.713060 12.586000,57.579060 L 11.460000,57.387060 C 10.936000,57.265060 10.596000,57.149060 10.424000,57.053060 C 10.218000,56.977060 10.116000,56.869060 10.116000,56.733060 C 10.092000,56.509060 10.180000,56.049060 10.386000,55.365060 L 11.766000,50.901052 C 11.862000,50.535052 11.998000,50.305052 12.170000,50.209052 C 12.284000,50.159052 12.560000,50.133052 12.982000,50.133052 L 17.160000,50.133052 z M 13.730000,48.111052 C 13.282000,48.137052 12.994000,48.053052 12.874000,47.869052 C 12.720000,47.741052 12.746000,47.433052 12.950000,46.947052 L 13.872000,44.075052 C 14.466000,42.201052 14.972000,40.787052 15.400000,39.833052 C 15.752000,40.761052 16.200000,42.105052 16.744000,43.869052 L 17.702000,46.985052 C 17.914000,47.471052 17.952000,47.779052 17.818000,47.907052 C 17.690000,48.041052 17.408000,48.111052 16.962000,48.111052 L 13.730000,48.111052 z "
       id="path611" />
    <path
       class="fil1"
       d="M 40.561348,34.805410 L 37.534639,16.675034 L 29.373110,16.651503 L 43.229824,2.4570987 L 51.203732,10.310288 C 45.303049,8.8657280 46.599015,13.888628 42.382145,14.222725 C 39.321483,14.457689 41.178941,32.792313 40.561348,34.805410 z "
       id="path716"
       style="font-size:12.000000;fill:url(#radialGradient3336);fill-opacity:1.0000000;fill-rule:evenodd"
       nodetypes="cccscc"
       sodipodi:nodetypes="cccccsc" />
    <path
       style="font-size:12.000000;fill:url(#linearGradient3362);fill-opacity:1.0000000;fill-rule:evenodd"
       d="M 43.455310,2.4119225 C 43.455310,2.4119225 48.473536,7.4366486 49.847264,8.9555500 C 47.970847,7.6879933 45.405723,3.9484833 43.378455,4.4420722 C 38.733259,5.5730581 34.470432,12.846300 29.706888,16.119804 L 43.455310,2.4119225 z "
       id="path605"
       sodipodi:nodetypes="ccscc" />
  </g>
</svg>
