<?xml version="1.0" encoding="UTF-8" standalone="no"?>
<!-- Created with Inkscape (http://www.inkscape.org/) -->
<svg
   xmlns:dc="http://purl.org/dc/elements/1.1/"
   xmlns:cc="http://web.resource.org/cc/"
   xmlns:rdf="http://www.w3.org/1999/02/22-rdf-syntax-ns#"
   xmlns:svg="http://www.w3.org/2000/svg"
   xmlns="http://www.w3.org/2000/svg"
   xmlns:xlink="http://www.w3.org/1999/xlink"
   xmlns:sodipodi="http://inkscape.sourceforge.net/DTD/sodipodi-0.dtd"
   xmlns:inkscape="http://www.inkscape.org/namespaces/inkscape"
   width="48.000000pt"
   height="48.000000pt"
   id="svg3076"
   sodipodi:version="0.32"
   inkscape:version="0.41+cvs"
   sodipodi:docbase="/home/david/.icons/eXperience/scalable/stock"
   sodipodi:docname="gtk-bold.svg">
  <defs
     id="defs3">
    <linearGradient
       x1="0"
       y1="0"
       x2="1"
       y2="0"
       id="linearGradient741"
       gradientUnits="objectBoundingBox"
       spreadMethod="pad">
      <stop
         style="stop-color:#ffffff;stop-opacity:1.0000;"
         offset="0"
         id="stop743" />
      <stop
         style="stop-color:#cacac5;stop-opacity:1.0000;"
         offset="1"
         id="stop742" />
    </linearGradient>
    <radialGradient
       inkscape:collect="always"
       xlink:href="#linearGradient741"
       id="radialGradient2133"
       gradientUnits="userSpaceOnUse"
       gradientTransform="matrix(1.320088,-2.590380e-17,-1.962279e-17,1.320475,-406.8717,51.35988)"
       spreadMethod="pad"
       cx="1271.1254"
       cy="-160.26173"
       fx="1271.1254"
       fy="-160.26173"
       r="56101.468750" />
    <linearGradient
       id="linearGradient774">
      <stop
         offset="0"
         style="stop-color:#000000;stop-opacity:1.0000;"
         id="stop776" />
      <stop
         offset="1"
         style="stop-color:#005dfa;stop-opacity:1.0000;"
         id="stop775" />
    </linearGradient>
    <linearGradient
       inkscape:collect="always"
       xlink:href="#linearGradient774"
       id="linearGradient2130"
       gradientUnits="userSpaceOnUse"
       gradientTransform="matrix(0.690766,0.000000,0.000000,0.803630,3824.034,3824.033)"
       x1="55208.539"
       y1="51891.102"
       x2="-1081.3380"
       y2="-6761.8940" />
    <linearGradient
       id="linearGradient770">
      <stop
         offset="0"
         style="stop-color:#002aff;stop-opacity:1.0000;"
         id="stop772" />
      <stop
         offset="1"
         style="stop-color:#ffffff;stop-opacity:1.0000;"
         id="stop771" />
    </linearGradient>
    <linearGradient
       inkscape:collect="always"
       xlink:href="#linearGradient770"
       id="linearGradient2127"
       gradientUnits="userSpaceOnUse"
       gradientTransform="matrix(0.684818,0.000000,0.000000,0.810610,3824.034,3824.033)"
       x1="23418.096"
       y1="21421.303"
       x2="543.19159"
       y2="-4460.5732" />
    <linearGradient
       x1="0"
       y1="0"
       x2="1"
       y2="0"
       id="linearGradient1669"
       gradientUnits="objectBoundingBox"
       spreadMethod="pad">
      <stop
         style="stop-color:#ffffff;stop-opacity:1;"
         offset="0.000000"
         id="stop1670" />
      <stop
         style="stop-color:#ffffff;stop-opacity:0;"
         offset="1.000000"
         id="stop1671" />
    </linearGradient>
    <linearGradient
       inkscape:collect="always"
       xlink:href="#linearGradient1669"
       id="linearGradient2124"
       gradientUnits="userSpaceOnUse"
       x1="-12308.329"
       y1="-13638.623"
       x2="15000.000"
       y2="23644.051" />
  </defs>
  <sodipodi:namedview
     id="base"
     pagecolor="#ffffff"
     bordercolor="#666666"
     borderopacity="1.0"
     inkscape:pageopacity="0.0"
     inkscape:pageshadow="2"
     inkscape:zoom="1.4000000"
     inkscape:cx="-94.086108"
     inkscape:cy="16.577257"
     inkscape:document-units="pt"
     inkscape:current-layer="layer1"
     gridtolerance="0.32000000pt"
     inkscape:window-width="721"
     inkscape:window-height="511"
     inkscape:window-x="1"
     inkscape:window-y="19" />
  <metadata
     id="metadata4">
    <rdf:RDF
       id="RDF5">
      <cc:Work
         rdf:about=""
         id="Work6">
        <dc:format
           id="format7">image/svg+xml</dc:format>
        <dc:type
           id="type9"
           rdf:resource="http://purl.org/dc/dcmitype/StillImage" />
      </cc:Work>
    </rdf:RDF>
  </metadata>
  <g
     inkscape:label="Layer 1"
     inkscape:groupmode="layer"
     id="layer1">
    <path
       d="M 3794.0000,1850.0000 L 26206.000,1850.0000 C 27276.000,1850.0000 28150.000,2724.0000 28150.000,3794.0000 L 28150.000,26206.000 C 28150.000,27276.000 27276.000,28150.000 26206.000,28150.000 L 3794.0000,28150.000 C 2724.0000,28150.000 1850.0000,27276.000 1850.0000,26206.000 L 1850.0000,3794.0000 C 1850.0000,2724.0000 2724.0000,1850.0000 3794.0000,1850.0000 z "
       style="fill-opacity:1.0000000;fill:#8b8d8d;font-size:12.000000"
       id="path631"
       transform="scale(2.000000e-3,2.000000e-3)" />
    <path
       d="M 3975.0000,2676.9990 L 26025.000,2676.9990 C 26739.000,2676.9990 27323.000,3260.9990 27323.000,3974.9990 L 27323.000,26025.000 C 27323.000,26739.000 26739.000,27323.000 26025.000,27323.000 L 3975.0000,27323.000 C 3261.0000,27323.000 2677.0000,26739.000 2677.0000,26025.000 L 2677.0000,3974.9990 C 2677.0000,3260.9990 3261.0000,2676.9990 3975.0000,2676.9990 z "
       style="fill:url(#radialGradient2133);font-size:12.000000"
       id="path632"
       transform="scale(2.000000e-3,2.000000e-3)" />
    <path
       class="fil0"
       d="M 13562.766,23399.845 L 13642.487,23403.570 L 13722.954,23406.550 L 13801.186,23409.530 L 13879.418,23411.766 L 13959.140,23414.001 L 14038.116,23415.491 L 14116.348,23416.981 L 14193.835,23417.726 L 14272.066,23419.216 L 14350.298,23419.216 L 14427.785,23419.216 L 14561.896,23419.216 L 14698.243,23417.726 L 14836.825,23415.491 L 14975.407,23412.511 L 15114.734,23408.785 L 15256.296,23404.315 L 15399.348,23398.354 L 15541.656,23391.649 L 15685.453,23384.198 L 15831.485,23376.002 L 15977.518,23366.317 L 16125.041,23355.886 L 16273.308,23344.710 L 16422.321,23332.789 L 16573.569,23319.378 L 16718.112,23305.966 L 16862.654,23294.045 L 17018.372,23278.399 L 17173.346,23260.518 L 17326.829,23239.656 L 17479.567,23216.559 L 17631.560,23191.227 L 17783.553,23163.659 L 17933.311,23133.112 L 18082.324,23101.074 L 18231.337,23066.056 L 18378.859,23028.803 L 18525.637,22988.569 L 18670.924,22946.846 L 18815.467,22902.142 L 18959.264,22855.948 L 19097.101,22808.264 L 19251.329,22755.364 L 19415.243,22691.289 L 19575.432,22621.998 L 19732.641,22546.746 L 19886.124,22465.534 L 20037.372,22379.107 L 20184.149,22286.719 L 20327.947,22188.370 L 20468.019,22085.552 L 20603.620,21976.772 L 20736.242,21862.778 L 20864.393,21743.567 L 20989.563,21619.142 L 21109.519,21490.246 L 21225.749,21356.134 L 21344.214,21210.847 L 21457.464,21054.383 L 21561.028,20895.684 L 21657.141,20731.025 L 21745.803,20561.896 L 21827.015,20388.296 L 21900.032,20209.480 L 21965.597,20026.940 L 22024.457,19839.929 L 22075.122,19649.937 L 22119.081,19455.476 L 22155.589,19258.034 L 22185.391,19056.121 L 22207.743,18851.229 L 22224.135,18642.611 L 22233.820,18431.013 L 22236.801,18204.513 L 22227.115,17961.622 L 22209.233,17732.143 L 22183.901,17507.878 L 22149.628,17287.339 L 22107.905,17071.271 L 22056.495,16860.418 L 21996.890,16654.035 L 21929.089,16452.123 L 21850.857,16255.426 L 21765.175,16065.435 L 21669.062,15880.659 L 21564.753,15701.843 L 21450.758,15528.988 L 21327.823,15364.329 L 21196.691,15205.631 L 21053.639,15051.402 L 20905.371,14912.075 L 20762.319,14786.160 L 20614.051,14665.459 L 20461.313,14549.974 L 20304.850,14441.195 L 20143.916,14337.631 L 19980.002,14240.773 L 19810.872,14149.130 L 19784.795,14136.464 L 19795.971,14128.268 L 19904.005,14047.801 L 20012.785,13963.609 L 20121.564,13875.691 L 20238.539,13776.598 L 20359.984,13664.093 L 20477.705,13541.903 L 20587.974,13415.242 L 20692.283,13282.620 L 20790.631,13144.784 L 20882.274,13001.731 L 20967.957,12854.209 L 21059.600,12680.609 L 21104.303,12567.359 L 21137.086,12479.441 L 21166.144,12390.779 L 21193.711,12299.881 L 21219.043,12208.238 L 21241.395,12115.850 L 21261.512,12022.717 L 21279.393,11926.604 L 21295.040,11829.746 L 21308.451,11732.887 L 21319.627,11635.284 L 21329.313,11535.445 L 21336.018,11434.862 L 21341.234,11332.788 L 21344.214,11230.714 L 21345.704,11115.974 L 21335.273,10832.105 L 21311.431,10554.196 L 21274.178,10282.248 L 21222.023,10016.260 L 21154.968,9756.9776 L 21073.011,9505.8911 L 20975.407,9262.2551 L 20861.412,9026.8149 L 20732.516,8801.0605 L 20587.974,8584.9920 L 20428.530,8380.8444 L 20254.185,8187.8728 L 20065.684,8006.8223 L 19865.262,7839.1829 L 19652.174,7684.2096 L 19436.105,7547.1178 L 19325.836,7481.5522 L 19213.331,7420.4569 L 19097.846,7360.8518 L 18979.381,7304.2269 L 18857.935,7249.8373 L 18733.510,7198.4279 L 18607.594,7149.2536 L 18477.208,7102.3146 L 18344.586,7057.6108 L 18209.730,7015.8872 L 18071.893,6975.6537 L 17931.076,6937.6555 L 17787.278,6901.8924 L 17641.246,6868.3645 L 17492.233,6836.3268 L 17340.240,6806.5242 L 17183.777,6778.2118 L 17025.823,6752.8796 L 16865.634,6729.0375 L 16701.720,6706.6856 L 16534.826,6686.5689 L 16364.951,6667.9423 L 16192.096,6651.5509 L 16016.261,6635.9045 L 15836.701,6623.2384 L 15655.650,6612.0625 L 15470.874,6602.3767 L 15282.373,6594.9260 L 15090.892,6588.9655 L 14897.175,6584.4951 L 14699.733,6581.5149 L 14497.821,6580.7698 L 14295.909,6582.2599 L 14100.702,6584.4951 L 13906.240,6586.7303 L 13714.014,6588.9655 L 13522.532,6591.9458 L 13333.286,6594.9260 L 13145.530,6598.6513 L 12958.519,6602.3767 L 12772.998,6606.8470 L 12589.712,6611.3174 L 12407.171,6616.5329 L 12226.866,6621.0033 L 12046.560,6626.9638 L 11869.980,6632.9243 L 11693.400,6638.8848 L 11518.310,6644.8453 L 11344.710,6652.2959 L 11172.600,6659.7466 L 11002.726,6667.1972 L 10833.596,6674.6479 L 10665.957,6682.8436 L 10500.553,6691.7843 L 10335.893,6700.7251 L 10172.724,6709.6659 L 10011.045,6719.3517 L 9851.6018,6729.7826 L 9692.9031,6740.2135 L 9535.6946,6750.6444 L 9379.9762,6761.8204 L 9226.4931,6772.9963 L 9073.7549,6784.1723 L 8847.2555,6802.7989 L 8642.3629,6859.4237 L 8444.9209,6961.4975 L 8272.0661,7107.5300 L 8140.9348,7278.8948 L 8052.2722,7457.7101 L 8000.8628,7630.5650 L 7975.5306,7792.2439 L 7970.3152,7911.4541 L 7965.8448,8020.9785 L 7970.3152,8157.3252 L 7986.7066,8298.8874 L 8020.2344,8445.6650 L 8073.8791,8596.9130 L 8153.6009,8748.9060 L 8260.8901,8894.1935 L 8524.6428,9148.2603 L 9408.2887,9295.7830 L 9570.7126,9303.9787 L 9597.5349,9308.4491 L 9599.7701,9317.3899 L 9610.2010,9368.7993 L 9620.6319,9435.8550 L 9631.0628,9517.0670 L 9641.4937,9610.9451 L 9650.4345,9716.7442 L 9658.6302,9833.7192 L 9664.5907,9962.6153 L 9670.5512,10102.687 L 9674.2765,10252.445 L 9676.5117,10412.634 L 9678.0018,10583.254 L 9677.2568,10764.304 L 9675.7667,10955.041 L 9672.0413,11165.149 L 9672.0413,19241.642 L 9671.2963,19418.223 L 9669.0611,19584.372 L 9666.0808,19740.835 L 9661.6104,19888.358 L 9655.6499,20026.940 L 9648.9444,20155.836 L 9640.7486,20275.791 L 9631.8079,20385.316 L 9622.1220,20484.409 L 9611.6912,20573.817 L 9600.5152,20652.049 L 9589.3392,20716.869 L 9578.1633,20769.769 L 9576.6731,20775.729 L 9574.4380,20777.219 L 9528.2440,20798.826 L 9455.2277,20824.903 L 9354.6441,20850.236 L 9188.4948,20879.293 L 8397.2368,21049.913 L 8171.4824,21193.710 L 8029.1752,21333.782 L 7922.6311,21487.265 L 7851.8500,21638.513 L 7806.4011,21780.820 L 7780.3238,21915.677 L 7766.9127,22043.083 L 7763.1874,22163.783 L 7766.9127,22287.464 L 7778.8337,22412.635 L 7801.1856,22543.021 L 7837.6938,22674.152 L 7889.1032,22809.754 L 7962.1195,22945.355 L 8053.7623,23074.252 L 8374.1398,23411.766 L 8849.4907,23395.374 L 8964.9756,23391.649 L 9078.9704,23387.924 L 9192.9652,23384.198 L 9305.4698,23380.473 L 9417.9745,23376.748 L 9530.4792,23373.767 L 9642.2388,23370.042 L 9751.7632,23367.062 L 9862.7777,23364.081 L 9972.3021,23361.101 L 10081.827,23358.121 L 10189.861,23355.886 L 10297.895,23352.906 L 10405.184,23351.415 L 10512.474,23348.435 L 10617.528,23346.945 L 10723.327,23344.710 L 10829.126,23343.220 L 10933.435,23341.730 L 11036.999,23340.239 L 11140.562,23338.749 L 11243.381,23337.259 L 11345.455,23335.769 L 11446.784,23335.024 L 11547.367,23334.279 L 11648.696,23333.534 L 11748.535,23332.789 L 11847.628,23332.789 L 11945.977,23332.044 L 12043.580,23332.044 L 12139.693,23332.044 L 12255.178,23332.789 L 12372.898,23334.279 L 12495.089,23338.004 L 12621.750,23342.475 L 12751.391,23348.435 L 12884.757,23355.886 L 13021.849,23364.827 L 13164.901,23375.257 L 13242.388,23381.218 L 13322.855,23386.433 L 13404.067,23391.649 L 13483.789,23396.119 L 13562.766,23399.845 z M 16470.750,11884.880 L 16452.124,11972.053 L 16431.262,12055.500 L 16407.420,12136.712 L 16380.598,12216.434 L 16350.050,12293.175 L 16317.267,12368.427 L 16281.504,12441.443 L 16242.016,12512.969 L 16199.547,12582.260 L 16154.098,12650.806 L 16108.649,12713.392 L 16060.220,12772.252 L 16011.791,12822.916 L 15959.636,12870.600 L 15903.757,12916.049 L 15841.916,12958.518 L 15774.861,12998.751 L 15701.844,13036.749 L 15621.377,13072.512 L 15533.460,13105.295 L 15438.092,13134.353 L 15334.528,13161.175 L 15222.768,13183.527 L 15102.068,13202.154 L 14973.917,13217.055 L 14836.825,13226.741 L 14694.518,13231.211 L 14524.643,13229.721 L 14367.435,13225.251 L 14324.966,13222.270 L 14324.966,9611.6902 L 14322.731,9444.7958 L 14324.966,9316.6448 L 14330.927,9233.1976 L 14446.411,9225.7470 L 14586.483,9222.7667 L 14704.204,9225.0019 L 14817.453,9231.7075 L 14926.978,9242.8835 L 15030.542,9257.0397 L 15129.635,9275.6663 L 15225.003,9298.0182 L 15315.901,9323.3504 L 15403.074,9353.1529 L 15486.521,9385.9358 L 15566.988,9421.6988 L 15644.474,9461.9323 L 15719.726,9505.1460 L 15791.997,9552.8301 L 15862.778,9603.4944 L 15932.069,9659.3742 L 15984.224,9706.3133 L 16030.418,9756.9776 L 16084.807,9824.0334 L 16136.962,9895.5595 L 16185.391,9972.3011 L 16230.840,10054.258 L 16274.053,10143.666 L 16314.287,10239.034 L 16351.540,10340.363 L 16385.813,10449.887 L 16416.361,10566.117 L 16443.183,10689.798 L 16465.535,10820.184 L 16484.161,10958.021 L 16498.318,11104.053 L 16508.004,11256.791 L 16512.474,11410.275 L 16510.984,11506.388 L 16505.768,11606.226 L 16497.573,11702.340 L 16485.652,11794.728 L 16470.750,11884.880 z M 16608.587,16507.257 L 16671.918,16583.254 L 16738.228,16671.172 L 16800.069,16763.559 L 16857.439,16859.673 L 16910.338,16959.511 L 16959.512,17064.565 L 17004.961,17174.090 L 17045.195,17288.830 L 17081.703,17408.785 L 17113.741,17535.446 L 17141.308,17667.322 L 17164.405,17805.159 L 17182.286,17948.956 L 17195.698,18098.714 L 17203.148,18255.178 L 17206.129,18417.602 L 17203.893,18565.869 L 17197.933,18709.667 L 17186.757,18847.503 L 17173.346,18980.870 L 17154.719,19108.276 L 17133.112,19230.466 L 17107.035,19347.441 L 17078.723,19459.201 L 17045.940,19565.745 L 17010.922,19667.074 L 16972.178,19764.677 L 16930.455,19857.065 L 16885.751,19944.983 L 16838.067,20029.175 L 16787.403,20109.642 L 16729.288,20192.344 L 16668.192,20273.556 L 16611.567,20340.612 L 16553.452,20401.707 L 16493.847,20456.097 L 16432.007,20506.016 L 16368.677,20550.720 L 16302.366,20590.953 L 16232.330,20627.461 L 16158.569,20660.989 L 16080.337,20690.047 L 15996.145,20715.379 L 15905.992,20736.241 L 15809.879,20754.122 L 15707.060,20766.788 L 15598.280,20774.239 L 15482.050,20777.219 L 15368.056,20774.239 L 15264.492,20766.788 L 15172.104,20755.612 L 15089.402,20739.966 L 15017.130,20722.085 L 14954.545,20701.223 L 14900.155,20678.871 L 14839.805,20647.578 L 14781.690,20614.795 L 14737.731,20585.738 L 14699.733,20556.680 L 14666.950,20526.878 L 14637.148,20496.330 L 14611.816,20464.292 L 14587.974,20430.764 L 14571.582,20402.452 L 14552.211,20360.728 L 14524.643,20292.183 L 14497.821,20216.186 L 14472.489,20134.974 L 14448.647,20047.057 L 14426.295,19953.178 L 14405.433,19854.085 L 14387.551,19747.541 L 14371.160,19635.036 L 14357.004,19516.571 L 14345.083,19392.890 L 14336.142,19262.504 L 14329.436,19126.902 L 14324.966,18986.085 L 14323.476,18838.563 L 14324.966,18675.394 L 14324.966,15964.106 L 14322.731,15843.405 L 14397.237,15838.935 L 14564.132,15833.720 L 14745.182,15831.484 L 14910.586,15837.445 L 15070.775,15848.621 L 15225.003,15865.012 L 15370.291,15887.364 L 15508.128,15914.187 L 15639.259,15946.969 L 15763.685,15983.477 L 15879.915,16025.201 L 15990.184,16070.650 L 16094.493,16120.569 L 16193.587,16174.959 L 16286.720,16233.074 L 16374.637,16296.404 L 16458.829,16363.460 L 16538.551,16435.731 L 16608.587,16507.257 z "
       id="path2925"
       style="fill-opacity:1.0000000;fill:url(#linearGradient2130);font-size:12.000000"
       transform="scale(2.000000e-3,2.000000e-3)" />
    <path
       class="fil1"
       d="M 10469.260,19243.132 C 10469.260,20229.597 10411.890,20862.157 10297.895,21140.065 C 10164.529,21414.249 9848.6215,21589.339 9341.9780,21662.355 L 8705.6933,21799.447 C 8606.5998,21848.621 8561.1509,21974.537 8561.1509,22164.528 C 8561.1509,22366.441 8606.5998,22511.728 8705.6933,22602.626 C 9946.9700,22557.177 11093.623,22534.080 12141.183,22534.080 C 12465.286,22534.080 12827.387,22549.727 13223.016,22580.274 C 13626.841,22610.077 14030.666,22621.998 14427.040,22621.998 C 15119.949,22621.998 15862.778,22587.725 16647.331,22511.728 C 17413.256,22454.358 18144.164,22297.895 18837.819,22054.259 C 19584.373,21810.623 20208.736,21365.075 20711.655,20725.065 C 21199.672,20085.055 21439.582,19250.583 21439.582,18214.944 C 21412.760,17098.838 21092.382,16230.094 20487.390,15613.181 C 19866.007,15003.718 19097.101,14603.619 18178.437,14421.078 C 17969.074,14375.629 17862.530,14314.534 17862.530,14242.263 C 17877.431,14116.347 18022.719,14028.430 18304.353,13982.981 C 18719.353,13895.063 19187.999,13628.330 19710.289,13179.057 C 19961.375,12958.518 20167.013,12680.609 20334.652,12345.330 C 20475.469,12010.051 20547.741,11602.501 20547.741,11126.405 C 20532.839,9789.0154 20026.196,8821.9223 19020.359,8227.3612 C 18091.265,7659.6225 16582.510,7377.9883 14499.311,7377.9883 C 12404.191,7393.6346 10564.628,7462.1805 8987.3275,7591.0766 C 8839.0598,7617.8989 8766.7886,7740.0894 8766.7886,7945.7270 C 8751.1422,8162.5407 8792.8658,8315.2788 8900.1550,8402.4513 L 9493.9710,8501.5448 C 9943.2446,8501.5448 10225.624,8669.1842 10339.619,9004.4630 C 10449.888,9324.8405 10492.357,10048.298 10469.260,11171.854 L 10469.260,19243.132 z M 13527.748,9617.6507 C 13512.846,9130.3788 13562.020,8802.5506 13680.486,8638.6366 C 13801.931,8494.0942 14102.937,8425.5483 14586.483,8425.5483 C 15386.682,8425.5483 16037.868,8661.7336 16544.512,9137.8294 C 17039.979,9644.4730 17294.791,10402.203 17310.437,11404.314 C 17310.437,12105.419 17119.701,12702.961 16738.973,13202.154 C 16327.698,13739.345 15649.690,14013.528 14704.949,14028.430 C 14156.582,14028.430 13821.303,13990.431 13699.112,13918.160 C 13569.471,13857.065 13512.846,13681.975 13527.748,13392.890 L 13527.748,9617.6507 z M 13527.748,15971.556 C 13512.846,15533.459 13562.020,15259.275 13680.486,15156.456 C 13817.577,15075.990 14175.208,15034.266 14754.123,15034.266 C 15821.055,15049.167 16636.155,15362.094 17200.168,15971.556 C 17736.614,16581.019 18003.347,17396.119 18003.347,18416.857 C 18003.347,19345.951 17793.984,20092.505 17375.258,20660.244 C 16944.611,21269.707 16316.522,21574.438 15482.050,21574.438 C 15070.775,21574.438 14731.771,21502.167 14461.313,21349.428 C 14194.580,21208.611 13996.393,21018.620 13863.026,20770.514 C 13623.116,20272.066 13512.846,19574.686 13527.748,18671.668 L 13527.748,15971.556 z "
       id="path2927"
       style="fill-opacity:1.0000000;fill:url(#linearGradient2127);font-size:12.000000"
       transform="scale(2.000000e-3,2.000000e-3)" />
    <path
       d="M 3975.0000,2677.0000 L 26025.000,2677.0000 C 26739.000,2677.0000 27323.000,3261.0000 27323.000,3974.9990 C 25608.710,9308.3340 21991.500,8764.1160 11213.100,10846.800 C 6842.0860,11587.960 8581.7640,19977.100 2677.0000,23644.050 L 2677.0000,3974.9990 C 2677.0000,3261.0000 3261.0000,2677.0000 3975.0000,2677.0000 z "
       style="fill-opacity:1.0000000;fill:url(#linearGradient2124);font-size:12.000000"
       id="path1668"
       transform="scale(2.000000e-3,2.000000e-3)" />
  </g>
</svg>
