<?xml version="1.0" encoding="UTF-8" standalone="no"?>
<!-- Created with Inkscape (http://www.inkscape.org/) -->
<svg
   xmlns:dc="http://purl.org/dc/elements/1.1/"
   xmlns:cc="http://web.resource.org/cc/"
   xmlns:rdf="http://www.w3.org/1999/02/22-rdf-syntax-ns#"
   xmlns:svg="http://www.w3.org/2000/svg"
   xmlns="http://www.w3.org/2000/svg"
   xmlns:xlink="http://www.w3.org/1999/xlink"
   xmlns:sodipodi="http://inkscape.sourceforge.net/DTD/sodipodi-0.dtd"
   xmlns:inkscape="http://www.inkscape.org/namespaces/inkscape"
   sodipodi:docname="gtk-spell-check.svg"
   sodipodi:docbase="/home/david/.icons/eXperience/normal/stock"
   inkscape:version="0.41+cvs"
   sodipodi:version="0.32"
   id="svg3076"
   height="48.000000pt"
   width="48.000000pt">
  <defs
     id="defs3">
    <linearGradient
       id="id2"
       gradientUnits="userSpaceOnUse"
       x1="16766"
       y1="31859"
       x2="11108"
       y2="9562">
      <stop
         offset="0"
         style="stop-color:#ffff00;stop-opacity:1.0000;"
         id="stop830" />
      <stop
         offset="1"
         style="stop-color:#00a206;stop-opacity:1.0000;"
         id="stop832" />
    </linearGradient>
    <linearGradient
       id="id0"
       gradientUnits="userSpaceOnUse"
       x1="24332"
       y1="18120"
       x2="5745"
       y2="627">
      <stop
         offset="0"
         style="stop-color:#0000f2;stop-opacity:1.0000;"
         id="stop816" />
      <stop
         offset="1"
         style="stop-color:#ffffff;stop-opacity:1.0000;"
         id="stop818" />
    </linearGradient>
    <linearGradient
       id="id1"
       gradientUnits="userSpaceOnUse"
       x1="25161"
       y1="18887"
       x2="4926"
       y2="-157">
      <stop
         offset="0"
         style="stop-color:#000087;stop-opacity:1.0000;"
         id="stop823" />
      <stop
         offset="1"
         style="stop-color:#0033cd;stop-opacity:1.0000;"
         id="stop825" />
    </linearGradient>
    <linearGradient
       y2="26610"
       x2="-2598"
       y1="21628"
       x1="19681"
       gradientUnits="userSpaceOnUse"
       id="linearGradient3129">
      <stop
         id="stop3131"
         style="stop-color:#80ff3d;stop-opacity:1.0000000;"
         offset="0.0000000" />
      <stop
         id="stop3133"
         style="stop-color:#06a700;stop-opacity:1.0000000;"
         offset="1.0000000" />
    </linearGradient>
    <linearGradient
       inkscape:collect="always"
       xlink:href="#linearGradient3129"
       id="linearGradient3121"
       gradientUnits="userSpaceOnUse"
       gradientTransform="translate(7.142857,-1.714286)"
       x1="21.785713"
       y1="20.535715"
       x2="43.214287"
       y2="66.626854" />
    <radialGradient
       inkscape:collect="always"
       xlink:href="#linearGradient3129"
       id="radialGradient3124"
       gradientUnits="userSpaceOnUse"
       gradientTransform="matrix(1.144613e-3,-1.360278e-3,8.977103e-4,7.553850e-4,-2.418050,54.25444)"
       cx="18053.760"
       cy="27555.473"
       fx="18053.760"
       fy="27555.473"
       r="14322.1406" />
    <radialGradient
       inkscape:collect="always"
       xlink:href="#linearGradient3129"
       id="radialGradient3127"
       gradientUnits="userSpaceOnUse"
       gradientTransform="matrix(1.144613e-3,-1.360278e-3,8.977103e-4,7.553850e-4,-2.418051,54.25444)"
       cx="18053.760"
       cy="27555.473"
       fx="18053.760"
       fy="27555.473"
       r="14322.1406" />
    <radialGradient
       inkscape:collect="always"
       xlink:href="#id2"
       id="radialGradient3132"
       gradientUnits="userSpaceOnUse"
       gradientTransform="matrix(1.777778e-3,0.000000,0.000000,1.777778e-3,10.88781,1.523806)"
       cx="18053.7598"
       cy="27555.4727"
       fx="18053.7598"
       fy="27555.4727"
       r="14322.1406" />
    <linearGradient
       inkscape:collect="always"
       xlink:href="#id0"
       id="linearGradient3135"
       gradientUnits="userSpaceOnUse"
       gradientTransform="matrix(2.000000e-3,0.000000,0.000000,2.000000e-3,0.000000,5.714285)"
       x1="34285.715"
       y1="23035.715"
       x2="-9285.7148"
       y2="-10178.572" />
    <linearGradient
       inkscape:collect="always"
       xlink:href="#id0"
       id="linearGradient3138"
       gradientUnits="userSpaceOnUse"
       gradientTransform="matrix(2.000000e-3,0.000000,0.000000,2.000000e-3,-0.190476,9.523805)"
       x1="34380.953"
       y1="21130.955"
       x2="-9190.4766"
       y2="-12083.332" />
    <linearGradient
       inkscape:collect="always"
       xlink:href="#id0"
       id="linearGradient3141"
       gradientUnits="userSpaceOnUse"
       gradientTransform="matrix(2.000000e-3,0.000000,0.000000,2.000000e-3,-0.190476,9.523805)"
       x1="34380.953"
       y1="21130.955"
       x2="-9190.4766"
       y2="-12083.332" />
    <linearGradient
       inkscape:collect="always"
       xlink:href="#id1"
       id="linearGradient3144"
       gradientUnits="userSpaceOnUse"
       gradientTransform="matrix(2.000000e-3,0.000000,0.000000,2.000000e-3,-0.190476,9.523805)"
       x1="17193.1445"
       y1="14274.6670"
       x2="3286.92480"
       y2="2063.44482" />
  </defs>
  <sodipodi:namedview
     inkscape:window-y="19"
     inkscape:window-x="1"
     inkscape:window-height="511"
     inkscape:window-width="721"
     gridtolerance="0.32000000pt"
     inkscape:current-layer="layer1"
     inkscape:document-units="pt"
     inkscape:cy="20.634003"
     inkscape:cx="3.5194397"
     inkscape:zoom="2.8000000"
     inkscape:pageshadow="2"
     inkscape:pageopacity="0.0"
     borderopacity="1.0"
     bordercolor="#666666"
     pagecolor="#ffffff"
     id="base" />
  <metadata
     id="metadata4">
    <rdf:RDF
       id="RDF5">
      <cc:Work
         id="Work6"
         rdf:about="">
        <dc:format
           id="format7">image/svg+xml</dc:format>
        <dc:type
           rdf:resource="http://purl.org/dc/dcmitype/StillImage"
           id="type9" />
      </cc:Work>
    </rdf:RDF>
  </metadata>
  <g
     id="layer1"
     inkscape:groupmode="layer"
     inkscape:label="Layer 1">
    <path
       style="font-size:12.000000;fill:url(#linearGradient3144);fill-rule:evenodd"
       d="M 18.569524,35.503805 L 18.519524,35.389805 L 18.471524,35.267805 L 18.419524,35.137805 L 18.365524,34.997805 L 18.311524,34.849805 L 18.257524,34.695805 L 18.201524,34.529805 L 14.013524,21.943805 L 13.937524,21.693805 L 13.857524,21.431805 L 13.775524,21.169805 L 13.695524,20.909805 L 13.613524,20.649805 L 13.531524,20.389805 L 13.451524,20.129805 L 13.369524,19.871805 L 13.285524,19.611805 L 13.203524,19.353805 L 13.121524,19.095805 L 13.039524,18.839805 L 12.955524,18.581805 L 12.871524,18.323805 L 12.661524,17.673805 L 12.499524,17.449805 L 12.361524,17.305805 L 12.203524,17.183805 L 12.031524,17.085805 L 11.851524,17.015805 L 11.675524,16.969805 L 11.499524,16.943805 L 11.051524,16.923805 L 10.729524,17.151805 L 10.641524,17.229805 L 10.569524,17.297805 L 10.489524,17.377805 L 10.395524,17.469805 L 10.287524,17.579805 L 10.163524,17.705805 L 10.041524,17.829805 L 9.9295240,17.933805 L 9.8215240,18.023805 L 9.7055240,18.105805 L 9.5855240,18.179805 L 9.4575240,18.247805 L 9.3255240,18.309805 L 9.1875240,18.363805 L 8.3155240,18.639805 L 8.3775240,19.441805 L 8.3775240,19.493805 L 8.3755240,19.553805 L 8.3695240,19.623805 L 8.3595240,19.705805 L 8.3455240,19.793805 L 8.3255240,19.893805 L 8.3015240,19.997805 L 8.2695240,20.111805 L 8.2335240,20.233805 L 8.1915240,20.363805 L 8.1455240,20.497805 L 8.0915240,20.641805 L 8.0315240,20.791805 L 7.9655240,20.947805 L 7.8815240,21.141805 L 3.8795240,31.877805 L 3.7675240,32.181805 L 3.6595240,32.473805 L 3.5555240,32.755805 L 3.4555240,33.025805 L 3.3575240,33.287805 L 3.2615240,33.539805 L 3.1695240,33.779805 L 3.0815240,34.011805 L 2.9955240,34.231805 L 2.9115240,34.443805 L 2.8315240,34.645805 L 2.7535240,34.835805 L 2.6795240,35.017805 L 2.6075240,35.187805 L 2.5395240,35.349805 L 2.4755240,35.497805 L 2.4095240,35.645805 L 2.3495240,35.771805 L 2.2915240,35.881805 L 2.2375240,35.975805 L 2.1855240,36.055805 L 2.1375240,36.119805 L 2.0995240,36.167805 L 2.0955240,36.171805 L 2.0915240,36.173805 L 2.0535240,36.199805 L 2.0035240,36.225805 L 1.9435240,36.251805 L 1.8715240,36.277805 L 1.7875240,36.301805 L 1.6915240,36.325805 L 1.5635240,36.347805 L 0.26152400,36.573805 L 0.0035240000,37.037805 L -0.046476000,37.145805 L -0.090476000,37.255805 L -0.12647600,37.367805 L -0.15447600,37.483805 L -0.17447600,37.605805 L -0.18647600,37.723805 L -0.19047600,37.841805 L -0.18647600,37.975805 L -0.17047600,38.111805 L -0.14447600,38.251805 L -0.10247600,38.391805 L -0.046476000,38.531805 L 0.027524000,38.669805 L 0.11952400,38.801805 L 0.48952400,39.213805 L 1.1175240,39.177805 L 1.2975240,39.167805 L 1.4795240,39.157805 L 1.6595240,39.149805 L 1.8375240,39.141805 L 2.0155240,39.135805 L 2.1935240,39.129805 L 2.3715240,39.123805 L 2.5475240,39.119805 L 2.7255240,39.113805 L 2.9015240,39.111805 L 3.0755240,39.107805 L 3.2515240,39.105805 L 3.4255240,39.105805 L 3.5995240,39.103805 L 3.7655240,39.103805 L 4.1835240,39.111805 L 4.3935240,39.115805 L 4.6015240,39.119805 L 4.8055240,39.123805 L 5.0075240,39.129805 L 5.2075240,39.133805 L 5.4035240,39.137805 L 5.5955240,39.143805 L 5.7855240,39.149805 L 5.9735240,39.155805 L 6.1575240,39.161805 L 6.3395240,39.167805 L 6.5175240,39.173805 L 6.6935240,39.181805 L 7.1895240,39.201805 L 7.5435240,38.943805 L 7.6715240,38.821805 L 7.7795240,38.689805 L 7.8655240,38.551805 L 7.9315240,38.415805 L 7.9835240,38.281805 L 8.0215240,38.149805 L 8.0735240,37.925805 L 8.0635240,37.693805 L 8.0435240,37.543805 L 8.0095240,37.391805 L 7.9555240,37.237805 L 7.8835240,37.087805 L 7.7935240,36.945805 L 7.6835240,36.813805 L 7.3995240,36.545805 L 6.2295240,36.345805 L 6.0975240,36.325805 L 6.1155240,36.249805 L 6.1395240,36.153805 L 6.1675240,36.047805 L 6.2015240,35.931805 L 6.2395240,35.807805 L 6.2815240,35.675805 L 6.3315240,35.527805 L 7.5335240,31.915805 L 7.5775240,31.775805 L 7.5895240,31.737805 L 7.6475240,31.735805 L 11.503524,31.735805 L 11.629524,31.737805 L 11.737524,31.741805 L 11.769524,31.743805 L 11.781524,31.775805 L 11.823524,31.915805 L 13.203524,36.009805 L 13.267524,36.207805 L 13.315524,36.371805 L 13.319524,36.387805 L 13.183524,36.399805 L 12.101524,36.547805 L 11.811524,36.965805 L 11.739524,37.103805 L 11.683524,37.245805 L 11.645524,37.387805 L 11.623524,37.525805 L 11.613524,37.661805 L 11.613524,37.793805 L 11.621524,37.867805 L 11.623524,37.953805 L 11.639524,38.101805 L 11.671524,38.253805 L 11.721524,38.411805 L 11.793524,38.569805 L 11.889524,38.723805 L 12.009524,38.867805 L 12.385524,39.207805 L 12.973524,39.177805 L 13.179524,39.167805 L 13.387524,39.157805 L 13.597524,39.149805 L 13.809524,39.141805 L 14.025524,39.135805 L 14.243524,39.129805 L 14.463524,39.123805 L 14.685524,39.119805 L 14.909524,39.113805 L 15.137524,39.111805 L 15.367524,39.107805 L 15.599524,39.105805 L 15.835524,39.105805 L 16.071524,39.103805 L 16.311524,39.103805 L 16.573524,39.103805 L 16.831524,39.105805 L 17.085524,39.105805 L 17.335524,39.107805 L 17.581524,39.111805 L 17.823524,39.113805 L 18.063524,39.119805 L 18.297524,39.123805 L 18.527524,39.129805 L 18.753524,39.135805 L 18.977524,39.141805 L 19.195524,39.149805 L 19.411524,39.157805 L 19.623524,39.167805 L 19.829524,39.177805 L 20.407524,39.207805 L 20.779524,38.885805 L 20.851524,38.803805 L 20.975524,38.931805 L 21.345524,39.201805 L 21.917524,39.177805 L 22.163524,39.167805 L 22.407524,39.157805 L 22.653524,39.149805 L 22.897524,39.141805 L 23.141524,39.133805 L 23.387524,39.127805 L 23.631524,39.121805 L 23.875524,39.115805 L 24.119524,39.111805 L 24.363524,39.107805 L 24.607524,39.103805 L 24.851524,39.101805 L 25.095524,39.099805 L 25.339524,39.099805 L 25.573524,39.097805 L 25.775524,39.103805 L 25.987524,39.105805 L 26.385524,39.113805 L 26.637524,39.119805 L 26.857524,39.125805 L 27.081524,39.131805 L 27.305524,39.135805 L 27.529524,39.141805 L 27.757524,39.147805 L 27.989524,39.153805 L 28.219524,39.159805 L 28.453524,39.167805 L 28.689524,39.173805 L 28.925524,39.181805 L 29.181524,39.189805 L 29.501524,39.187805 L 29.803524,39.181805 L 30.099524,39.173805 L 30.391524,39.161805 L 30.677524,39.145805 L 30.957524,39.127805 L 31.233524,39.105805 L 31.503524,39.079805 L 31.767524,39.049805 L 32.027524,39.015805 L 32.283524,38.979805 L 32.533524,38.939805 L 32.777524,38.895805 L 33.017524,38.847805 L 33.251524,38.795805 L 33.481524,38.739805 L 33.703524,38.679805 L 33.923524,38.615805 L 34.137524,38.547805 L 34.347524,38.475805 L 34.551524,38.399805 L 34.751524,38.319805 L 34.945524,38.235805 L 35.135524,38.145805 L 35.319524,38.051805 L 35.499524,37.953805 L 35.671524,37.849805 L 35.841524,37.741805 L 36.003524,37.627805 L 36.161524,37.509805 L 36.313524,37.385805 L 36.447524,37.269805 L 36.579524,37.151805 L 36.715524,37.025805 L 36.847524,36.897805 L 36.973524,36.765805 L 37.095524,36.633805 L 37.213524,36.497805 L 37.327524,36.357805 L 37.435524,36.217805 L 37.539524,36.075805 L 37.639524,35.929805 L 37.733524,35.781805 L 37.823524,35.631805 L 37.907524,35.479805 L 37.987524,35.325805 L 38.061524,35.167805 L 38.145524,34.979805 L 38.201524,34.799805 L 38.245524,34.655805 L 38.285524,34.511805 L 38.323524,34.365805 L 38.359524,34.219805 L 38.391524,34.071805 L 38.419524,33.925805 L 38.445524,33.777805 L 38.467524,33.629805 L 38.487524,33.481805 L 38.505524,33.331805 L 38.519524,33.183805 L 38.529524,33.033805 L 38.537524,32.883805 L 38.543524,32.733805 L 38.543524,32.569805 L 38.529524,32.213805 L 38.503524,31.875805 L 38.465524,31.545805 L 38.413524,31.223805 L 38.349524,30.909805 L 38.271524,30.603805 L 38.181524,30.307805 L 38.077524,30.019805 L 37.957524,29.739805 L 37.825524,29.471805 L 37.679524,29.213805 L 37.517524,28.963805 L 37.341524,28.727805 L 37.151524,28.501805 L 36.947524,28.289805 L 36.725524,28.085805 L 36.499524,27.907805 L 36.289524,27.751805 L 36.073524,27.603805 L 35.857524,27.463805 L 35.635524,27.331805 L 35.411524,27.207805 L 35.183524,27.091805 L 34.953524,26.983805 L 34.943524,26.979805 L 35.075524,26.891805 L 35.399524,26.641805 L 35.695524,26.373805 L 35.967524,26.083805 L 36.211524,25.777805 L 36.425524,25.449805 L 36.609524,25.107805 L 36.761524,24.747805 L 36.879524,24.375805 L 36.967524,23.989805 L 37.023524,23.597805 L 37.047524,23.189805 L 37.037524,22.789805 L 37.009524,22.415805 L 36.963524,22.051805 L 36.897524,21.697805 L 36.811524,21.353805 L 36.705524,21.019805 L 36.577524,20.697805 L 36.429524,20.387805 L 36.259524,20.089805 L 36.069524,19.807805 L 35.857524,19.541805 L 35.625524,19.289805 L 35.375524,19.055805 L 35.109524,18.839805 L 34.823524,18.641805 L 34.551524,18.477805 L 34.417524,18.397805 L 34.267524,18.311805 L 34.113524,18.231805 L 33.955524,18.155805 L 33.793524,18.083805 L 33.629524,18.013805 L 33.461524,17.949805 L 33.289524,17.889805 L 33.113524,17.833805 L 32.935524,17.781805 L 32.753524,17.733805 L 32.569524,17.687805 L 32.381524,17.647805 L 32.189524,17.609805 L 31.993524,17.575805 L 31.801524,17.547805 L 31.607524,17.519805 L 31.409524,17.493805 L 31.209524,17.469805 L 31.007524,17.447805 L 30.801524,17.427805 L 30.593524,17.407805 L 30.383524,17.391805 L 30.169524,17.375805 L 29.951524,17.361805 L 29.733524,17.349805 L 29.511524,17.339805 L 29.287524,17.331805 L 29.061524,17.325805 L 28.831524,17.321805 L 28.597524,17.319805 L 28.361524,17.317805 L 28.059524,17.319805 L 27.769524,17.321805 L 27.485524,17.325805 L 27.205524,17.329805 L 26.931524,17.331805 L 26.663524,17.335805 L 26.401524,17.341805 L 26.143524,17.345805 L 25.891524,17.351805 L 25.645524,17.357805 L 25.405524,17.363805 L 25.171524,17.371805 L 24.941524,17.377805 L 24.717524,17.385805 L 24.499524,17.393805 L 24.285524,17.401805 L 24.075524,17.411805 L 23.873524,17.421805 L 23.677524,17.431805 L 23.485524,17.441805 L 23.297524,17.451805 L 23.117524,17.463805 L 22.941524,17.475805 L 22.771524,17.487805 L 22.605524,17.501805 L 22.445524,17.513805 L 22.291524,17.527805 L 22.141524,17.543805 L 21.995524,17.557805 L 21.857524,17.573805 L 21.723524,17.589805 L 21.365524,17.635805 L 21.079524,17.839805 L 20.949524,17.965805 L 20.837524,18.107805 L 20.749524,18.259805 L 20.683524,18.419805 L 20.641524,18.577805 L 20.619524,18.729805 L 20.613524,18.867805 L 20.617524,19.003805 L 20.629524,19.133805 L 20.653524,19.265805 L 20.687524,19.397805 L 20.731524,19.531805 L 20.789524,19.661805 L 20.861524,19.789805 L 21.157524,20.225805 L 22.361524,20.369805 L 22.593524,20.379805 L 22.709524,20.397805 L 22.779524,20.415805 L 22.779524,20.415805 L 22.787524,20.441805 L 22.801524,20.495805 L 22.815524,20.567805 L 22.831524,20.657805 L 22.845524,20.761805 L 22.859524,20.883805 L 22.873524,21.019805 L 22.883524,21.169805 L 22.893524,21.333805 L 22.901524,21.509805 L 22.907524,21.701805 L 22.913524,21.903805 L 22.915524,22.117805 L 22.915524,22.345805 L 22.915524,22.585805 L 22.913524,22.847805 L 22.913524,33.853805 L 22.911524,34.125805 L 22.907524,34.383805 L 22.903524,34.625805 L 22.895524,34.853805 L 22.885524,35.067805 L 22.873524,35.265805 L 22.859524,35.447805 L 22.843524,35.613805 L 22.825524,35.761805 L 22.807524,35.895805 L 22.787524,36.009805 L 22.769524,36.105805 L 22.749524,36.177805 L 22.735524,36.227805 L 22.731524,36.237805 L 22.725524,36.245805 L 22.719524,36.253805 L 22.697524,36.269805 L 22.653524,36.295805 L 22.579524,36.323805 L 22.471524,36.353805 L 22.329524,36.379805 L 22.103524,36.399805 L 21.041524,36.549805 L 20.821524,36.865805 L 20.731524,36.771805 L 20.473524,36.553805 L 19.803524,36.409805 L 19.561524,36.367805 L 19.383524,36.327805 L 19.235524,36.281805 L 19.115524,36.235805 L 19.025524,36.191805 L 18.965524,36.153805 L 18.929524,36.123805 L 18.883524,36.075805 L 18.867524,36.055805 L 18.843524,36.025805 L 18.815524,35.983805 L 18.781524,35.927805 L 18.745524,35.863805 L 18.705524,35.787805 L 18.661524,35.703805 L 18.615524,35.607805 L 18.569524,35.503805 z M 9.7375240,25.379805 L 9.7415240,25.365805 L 10.811524,28.531805 L 8.6435240,28.531805 L 9.7375240,25.379805 z M 32.417524,30.729805 L 32.503524,30.889805 L 32.581524,31.059805 L 32.653524,31.237805 L 32.719524,31.427805 L 32.777524,31.627805 L 32.829524,31.839805 L 32.871524,32.059805 L 32.907524,32.293805 L 32.935524,32.537805 L 32.953524,32.793805 L 32.963524,33.041805 L 32.957524,33.235805 L 32.943524,33.439805 L 32.923524,33.631805 L 32.897524,33.815805 L 32.863524,33.989805 L 32.825524,34.153805 L 32.781524,34.307805 L 32.731524,34.453805 L 32.677524,34.589805 L 32.617524,34.717805 L 32.553524,34.837805 L 32.485524,34.951805 L 32.411524,35.057805 L 32.331524,35.157805 L 32.247524,35.251805 L 32.151524,35.345805 L 32.043524,35.445805 L 31.933524,35.535805 L 31.821524,35.619805 L 31.709524,35.695805 L 31.595524,35.765805 L 31.479524,35.829805 L 31.359524,35.887805 L 31.239524,35.937805 L 31.113524,35.983805 L 30.987524,36.021805 L 30.855524,36.055805 L 30.721524,36.083805 L 30.583524,36.105805 L 30.439524,36.121805 L 30.293524,36.129805 L 30.137524,36.133805 L 29.951524,36.129805 L 29.775524,36.121805 L 29.613524,36.107805 L 29.465524,36.087805 L 29.329524,36.063805 L 29.209524,36.035805 L 29.101524,36.003805 L 29.007524,35.969805 L 28.927524,35.933805 L 28.859524,35.897805 L 28.803524,35.863805 L 28.757524,35.827805 L 28.719524,35.793805 L 28.687524,35.759805 L 28.661524,35.723805 L 28.627524,35.669805 L 28.589524,35.597805 L 28.551524,35.517805 L 28.515524,35.425805 L 28.479524,35.321805 L 28.443524,35.207805 L 28.411524,35.081805 L 28.379524,34.943805 L 28.351524,34.793805 L 28.327524,34.633805 L 28.305524,34.465805 L 28.289524,34.285805 L 28.273524,34.093805 L 28.263524,33.891805 L 28.257524,33.681805 L 28.255524,33.459805 L 28.257524,33.217805 L 28.257524,29.043805 L 28.301524,29.039805 L 28.467524,29.033805 L 28.647524,29.031805 L 28.927524,29.041805 L 29.203524,29.059805 L 29.467524,29.085805 L 29.719524,29.117805 L 29.961524,29.159805 L 30.191524,29.207805 L 30.409524,29.265805 L 30.615524,29.327805 L 30.809524,29.397805 L 30.993524,29.473805 L 31.167524,29.555805 L 31.331524,29.643805 L 31.483524,29.737805 L 31.629524,29.839805 L 31.763524,29.945805 L 31.891524,30.057805 L 32.009524,30.177805 L 32.121524,30.303805 L 32.227524,30.437805 L 32.325524,30.579805 L 32.417524,30.729805 z M 31.149524,25.011805 L 31.015524,25.203805 L 30.865524,25.369805 L 30.693524,25.515805 L 30.497524,25.645805 L 30.269524,25.759805 L 30.005524,25.857805 L 29.705524,25.935805 L 29.367524,25.991805 L 28.987524,26.025805 L 28.555524,26.031805 L 28.391524,26.029805 L 28.257524,26.025805 L 28.257524,20.701805 L 28.253524,20.511805 L 28.257524,20.391805 L 28.425524,20.381805 L 28.625524,20.375805 L 28.847524,20.373805 L 28.989524,20.375805 L 29.121524,20.383805 L 29.253524,20.397805 L 29.381524,20.413805 L 29.505524,20.437805 L 29.629524,20.465805 L 29.749524,20.497805 L 29.869524,20.535805 L 29.983524,20.579805 L 30.099524,20.627805 L 30.213524,20.679805 L 30.325524,20.737805 L 30.435524,20.801805 L 30.545524,20.871805 L 30.653524,20.945805 L 30.757524,21.025805 L 30.851524,21.101805 L 30.931524,21.179805 L 31.007524,21.261805 L 31.077524,21.349805 L 31.143524,21.447805 L 31.205524,21.551805 L 31.263524,21.665805 L 31.317524,21.787805 L 31.367524,21.921805 L 31.411524,22.065805 L 31.449524,22.219805 L 31.483524,22.385805 L 31.511524,22.561805 L 31.531524,22.749805 L 31.545524,22.947805 L 31.551524,23.145805 L 31.541524,23.555805 L 31.505524,23.921805 L 31.445524,24.249805 L 31.365524,24.539805 L 31.265524,24.793805 L 31.149524,25.011805 z M 58.941524,17.913805 L 58.133524,17.773805 L 58.051524,17.757805 L 57.965524,17.739805 L 57.873524,17.719805 L 57.777524,17.699805 L 57.679524,17.675805 L 57.575524,17.651805 L 57.475524,17.627805 L 57.335524,17.589805 L 57.183524,17.549805 L 57.029524,17.511805 L 56.873524,17.473805 L 56.717524,17.437805 L 56.561524,17.403805 L 56.403524,17.371805 L 56.245524,17.337805 L 56.085524,17.307805 L 55.925524,17.277805 L 55.765524,17.249805 L 55.603524,17.221805 L 55.441524,17.195805 L 55.277524,17.171805 L 55.113524,17.147805 L 54.949524,17.125805 L 54.783524,17.103805 L 54.617524,17.083805 L 54.451524,17.065805 L 54.283524,17.049805 L 54.113524,17.033805 L 53.945524,17.017805 L 53.775524,17.003805 L 53.603524,16.991805 L 53.431524,16.981805 L 53.259524,16.971805 L 53.085524,16.961805 L 52.911524,16.953805 L 52.735524,16.947805 L 52.561524,16.943805 L 52.385524,16.939805 L 52.199524,16.935805 L 51.893524,16.939805 L 51.593524,16.947805 L 51.295524,16.961805 L 50.999524,16.979805 L 50.705524,17.003805 L 50.415524,17.031805 L 50.123524,17.067805 L 49.837524,17.107805 L 49.551524,17.151805 L 49.267524,17.203805 L 48.985524,17.259805 L 48.707524,17.319805 L 48.429524,17.387805 L 48.155524,17.459805 L 47.881524,17.535805 L 47.611524,17.619805 L 47.343524,17.707805 L 47.077524,17.801805 L 46.813524,17.899805 L 46.553524,18.003805 L 46.293524,18.115805 L 46.037524,18.229805 L 45.783524,18.349805 L 45.533524,18.475805 L 45.283524,18.607805 L 45.037524,18.743805 L 44.793524,18.885805 L 44.551524,19.033805 L 44.311524,19.185805 L 44.075524,19.343805 L 43.841524,19.505805 L 43.611524,19.673805 L 43.373524,19.853805 L 43.139524,20.043805 L 42.911524,20.239805 L 42.691524,20.439805 L 42.477524,20.647805 L 42.271524,20.861805 L 42.073524,21.081805 L 41.881524,21.307805 L 41.697524,21.539805 L 41.521524,21.777805 L 41.351524,22.021805 L 41.191524,22.271805 L 41.037524,22.525805 L 40.893524,22.787805 L 40.755524,23.053805 L 40.623524,23.323805 L 40.501524,23.601805 L 40.387524,23.883805 L 40.279524,24.169805 L 40.179524,24.463805 L 40.087524,24.759805 L 40.003524,25.061805 L 39.925524,25.369805 L 39.857524,25.681805 L 39.793524,25.997805 L 39.739524,26.319805 L 39.693524,26.647805 L 39.653524,26.977805 L 39.619524,27.313805 L 39.595524,27.655805 L 39.577524,28.001805 L 39.565524,28.363805 L 39.569524,28.573805 L 39.575524,28.765805 L 39.581524,28.957805 L 39.593524,29.145805 L 39.605524,29.333805 L 39.621524,29.519805 L 39.639524,29.703805 L 39.659524,29.887805 L 39.681524,30.069805 L 39.707524,30.249805 L 39.735524,30.427805 L 39.765524,30.605805 L 39.797524,30.781805 L 39.833524,30.955805 L 39.871524,31.129805 L 39.911524,31.299805 L 39.955524,31.469805 L 40.001524,31.637805 L 40.049524,31.803805 L 40.099524,31.969805 L 40.153524,32.131805 L 40.209524,32.295805 L 40.267524,32.455805 L 40.329524,32.613805 L 40.391524,32.769805 L 40.459524,32.925805 L 40.527524,33.079805 L 40.599524,33.231805 L 40.673524,33.381805 L 40.751524,33.531805 L 40.829524,33.677805 L 40.907524,33.815805 L 41.057524,34.081805 L 41.221524,34.353805 L 41.389524,34.619805 L 41.563524,34.877805 L 41.745524,35.127805 L 41.931524,35.371805 L 42.123524,35.609805 L 42.321524,35.839805 L 42.523524,36.061805 L 42.733524,36.277805 L 42.947524,36.485805 L 43.169524,36.685805 L 43.395524,36.879805 L 43.627524,37.065805 L 43.865524,37.243805 L 44.113524,37.419805 L 44.337524,37.563805 L 44.555524,37.693805 L 44.773524,37.819805 L 44.993524,37.941805 L 45.215524,38.059805 L 45.441524,38.173805 L 45.669524,38.281805 L 45.899524,38.385805 L 46.131524,38.485805 L 46.367524,38.581805 L 46.605524,38.673805 L 46.843524,38.761805 L 47.085524,38.843805 L 47.329524,38.921805 L 47.575524,38.995805 L 47.825524,39.065805 L 48.075524,39.129805 L 48.327524,39.191805 L 48.583524,39.247805 L 48.839524,39.299805 L 49.099524,39.347805 L 49.361524,39.389805 L 49.623524,39.429805 L 49.889524,39.463805 L 50.157524,39.493805 L 50.427524,39.519805 L 50.697524,39.541805 L 50.971524,39.557805 L 51.247524,39.571805 L 51.525524,39.579805 L 51.805524,39.583805 L 52.093524,39.583805 L 52.293524,39.579805 L 52.485524,39.573805 L 52.677524,39.563805 L 52.867524,39.553805 L 53.057524,39.539805 L 53.245524,39.525805 L 53.431524,39.507805 L 53.617524,39.487805 L 53.799524,39.467805 L 53.983524,39.443805 L 54.165524,39.417805 L 54.343524,39.389805 L 54.523524,39.361805 L 54.701524,39.329805 L 54.877524,39.293805 L 55.047524,39.259805 L 55.205524,39.225805 L 55.355524,39.191805 L 55.499524,39.161805 L 55.637524,39.129805 L 55.769524,39.099805 L 55.897524,39.071805 L 56.019524,39.043805 L 56.135524,39.017805 L 56.245524,38.991805 L 56.351524,38.967805 L 56.451524,38.943805 L 56.545524,38.921805 L 56.637524,38.899805 L 56.721524,38.877805 L 56.801524,38.855805 L 56.901524,38.829805 L 57.041524,38.783805 L 57.149524,38.747805 L 57.259524,38.715805 L 57.373524,38.683805 L 57.487524,38.651805 L 57.605524,38.621805 L 57.725524,38.593805 L 58.191524,38.483805 L 58.447524,38.125805 L 58.513524,38.027805 L 58.573524,37.927805 L 58.633524,37.825805 L 58.693524,37.717805 L 58.751524,37.605805 L 58.809524,37.487805 L 58.867524,37.365805 L 58.925524,37.237805 L 58.983524,37.105805 L 59.041524,36.967805 L 59.099524,36.825805 L 59.159524,36.677805 L 59.217524,36.523805 L 59.277524,36.363805 L 59.341524,36.187805 L 59.401524,36.007805 L 59.455524,35.833805 L 59.507524,35.655805 L 59.557524,35.477805 L 59.605524,35.295805 L 59.649524,35.113805 L 59.691524,34.929805 L 59.731524,34.743805 L 59.769524,34.553805 L 59.803524,34.365805 L 59.835524,34.173805 L 59.865524,33.979805 L 59.893524,33.783805 L 59.917524,33.585805 L 59.939524,33.387805 L 59.985524,32.943805 L 59.831524,32.607805 L 59.733524,32.447805 L 59.609524,32.297805 L 59.461524,32.167805 L 59.299524,32.063805 L 59.135524,31.987805 L 58.973524,31.935805 L 58.833524,31.905805 L 58.683524,31.883805 L 58.495524,31.877805 L 58.305524,31.899805 L 58.123524,31.945805 L 57.951524,32.013805 L 57.795524,32.097805 L 57.657524,32.195805 L 57.389524,32.423805 L 57.271524,32.721805 L 57.239524,32.801805 L 57.205524,32.879805 L 57.169524,32.959805 L 57.133524,33.039805 L 57.095524,33.121805 L 57.055524,33.201805 L 57.013524,33.283805 L 56.971524,33.365805 L 56.925524,33.447805 L 56.879524,33.531805 L 56.833524,33.615805 L 56.783524,33.699805 L 56.733524,33.783805 L 56.683524,33.869805 L 56.627524,33.957805 L 56.571524,34.049805 L 56.517524,34.131805 L 56.463524,34.215805 L 56.405524,34.297805 L 56.347524,34.379805 L 56.287524,34.459805 L 56.225524,34.539805 L 56.161524,34.619805 L 56.095524,34.699805 L 56.029524,34.777805 L 55.959524,34.855805 L 55.887524,34.933805 L 55.815524,35.009805 L 55.739524,35.085805 L 55.663524,35.161805 L 55.583524,35.237805 L 55.509524,35.307805 L 55.435524,35.371805 L 55.359524,35.435805 L 55.281524,35.497805 L 55.199524,35.559805 L 55.117524,35.617805 L 55.031524,35.677805 L 54.943524,35.733805 L 54.853524,35.789805 L 54.759524,35.845805 L 54.663524,35.897805 L 54.565524,35.949805 L 54.465524,36.001805 L 54.361524,36.049805 L 54.257524,36.097805 L 54.137524,36.147805 L 54.019524,36.197805 L 53.913524,36.239805 L 53.803524,36.277805 L 53.691524,36.313805 L 53.575524,36.347805 L 53.457524,36.377805 L 53.335524,36.407805 L 53.209524,36.431805 L 53.081524,36.455805 L 52.947524,36.473805 L 52.813524,36.491805 L 52.673524,36.503805 L 52.531524,36.515805 L 52.383524,36.523805 L 52.235524,36.527805 L 52.083524,36.529805 L 51.923524,36.527805 L 51.765524,36.521805 L 51.611524,36.511805 L 51.457524,36.497805 L 51.305524,36.479805 L 51.155524,36.457805 L 51.005524,36.431805 L 50.857524,36.401805 L 50.709524,36.367805 L 50.565524,36.329805 L 50.421524,36.287805 L 50.277524,36.243805 L 50.133524,36.193805 L 49.993524,36.139805 L 49.853524,36.081805 L 49.713524,36.019805 L 49.573524,35.953805 L 49.435524,35.883805 L 49.299524,35.809805 L 49.161524,35.729805 L 49.025524,35.647805 L 48.891524,35.559805 L 48.757524,35.469805 L 48.623524,35.371805 L 48.489524,35.271805 L 48.357524,35.167805 L 48.225524,35.057805 L 48.093524,34.943805 L 47.963524,34.823805 L 47.833524,34.699805 L 47.703524,34.571805 L 47.567524,34.431805 L 47.427524,34.287805 L 47.303524,34.153805 L 47.183524,34.015805 L 47.069524,33.873805 L 46.955524,33.725805 L 46.847524,33.575805 L 46.743524,33.419805 L 46.641524,33.257805 L 46.545524,33.093805 L 46.451524,32.923805 L 46.361524,32.749805 L 46.275524,32.569805 L 46.191524,32.385805 L 46.115524,32.195805 L 46.039524,32.001805 L 45.969524,31.801805 L 45.901524,31.597805 L 45.837524,31.389805 L 45.779524,31.175805 L 45.723524,30.955805 L 45.671524,30.731805 L 45.625524,30.501805 L 45.581524,30.265805 L 45.543524,30.025805 L 45.507524,29.781805 L 45.477524,29.529805 L 45.449524,29.275805 L 45.427524,29.013805 L 45.409524,28.747805 L 45.395524,28.477805 L 45.385524,28.201805 L 45.379524,27.929805 L 45.385524,27.667805 L 45.395524,27.399805 L 45.407524,27.137805 L 45.425524,26.881805 L 45.447524,26.629805 L 45.471524,26.383805 L 45.501524,26.143805 L 45.535524,25.907805 L 45.571524,25.677805 L 45.613524,25.453805 L 45.657524,25.235805 L 45.705524,25.021805 L 45.759524,24.811805 L 45.813524,24.609805 L 45.873524,24.413805 L 45.937524,24.219805 L 46.003524,24.033805 L 46.073524,23.851805 L 46.147524,23.677805 L 46.223524,23.505805 L 46.305524,23.339805 L 46.387524,23.179805 L 46.475524,23.023805 L 46.565524,22.873805 L 46.659524,22.727805 L 46.757524,22.587805 L 46.857524,22.451805 L 46.959524,22.319805 L 47.067524,22.193805 L 47.177524,22.071805 L 47.289524,21.953805 L 47.409524,21.837805 L 47.533524,21.723805 L 47.659524,21.609805 L 47.787524,21.501805 L 47.915524,21.397805 L 48.043524,21.297805 L 48.173524,21.201805 L 48.303524,21.109805 L 48.435524,21.019805 L 48.567524,20.935805 L 48.699524,20.855805 L 48.833524,20.777805 L 48.967524,20.703805 L 49.103524,20.635805 L 49.239524,20.569805 L 49.375524,20.507805 L 49.513524,20.447805 L 49.653524,20.393805 L 49.793524,20.341805 L 49.933524,20.293805 L 50.077524,20.249805 L 50.219524,20.207805 L 50.363524,20.171805 L 50.511524,20.137805 L 50.657524,20.107805 L 50.805524,20.079805 L 50.955524,20.057805 L 51.107524,20.037805 L 51.259524,20.021805 L 51.413524,20.009805 L 51.569524,19.999805 L 51.727524,19.993805 L 51.887524,19.991805 L 52.045524,19.993805 L 52.203524,19.997805 L 52.357524,20.003805 L 52.507524,20.013805 L 52.653524,20.025805 L 52.797524,20.039805 L 52.939524,20.057805 L 53.073524,20.075805 L 53.207524,20.097805 L 53.337524,20.123805 L 53.463524,20.149805 L 53.585524,20.177805 L 53.705524,20.209805 L 53.821524,20.243805 L 53.935524,20.279805 L 54.017524,20.307805 L 54.091524,20.341805 L 54.195524,20.389805 L 54.293524,20.439805 L 54.391524,20.489805 L 54.483524,20.541805 L 54.575524,20.593805 L 54.663524,20.647805 L 54.747524,20.699805 L 54.827524,20.753805 L 54.909524,20.811805 L 54.985524,20.867805 L 55.057524,20.923805 L 55.129524,20.981805 L 55.199524,21.043805 L 55.263524,21.101805 L 55.335524,21.171805 L 55.485524,21.315805 L 55.613524,21.449805 L 55.731524,21.585805 L 55.839524,21.725805 L 55.939524,21.867805 L 56.033524,22.011805 L 56.117524,22.159805 L 56.193524,22.311805 L 56.227524,22.383805 L 56.263524,22.467805 L 56.299524,22.553805 L 56.333524,22.637805 L 56.365524,22.721805 L 56.395524,22.807805 L 56.425524,22.889805 L 56.453524,22.971805 L 56.479524,23.053805 L 56.503524,23.137805 L 56.527524,23.219805 L 56.547524,23.299805 L 56.567524,23.381805 L 56.587524,23.463805 L 56.603524,23.545805 L 56.699524,24.025805 L 57.125524,24.293805 L 57.259524,24.357805 L 57.391524,24.407805 L 57.519524,24.443805 L 57.647524,24.469805 L 57.777524,24.487805 L 57.903524,24.497805 L 58.035524,24.499805 L 58.179524,24.493805 L 58.335524,24.471805 L 58.493524,24.433805 L 58.649524,24.375805 L 58.799524,24.299805 L 58.939524,24.205805 L 59.065524,24.097805 L 59.439524,23.699805 L 59.361524,23.059805 L 59.335524,22.855805 L 59.311524,22.653805 L 59.289524,22.455805 L 59.267524,22.261805 L 59.247524,22.071805 L 59.227524,21.885805 L 59.209524,21.703805 L 59.191524,21.523805 L 59.175524,21.349805 L 59.159524,21.179805 L 59.143524,21.011805 L 59.129524,20.849805 L 59.117524,20.689805 L 59.105524,20.533805 L 59.095524,20.377805 L 59.083524,20.225805 L 59.073524,20.079805 L 59.063524,19.941805 L 59.055524,19.807805 L 59.045524,19.681805 L 59.039524,19.559805 L 59.029524,19.443805 L 59.023524,19.331805 L 59.017524,19.225805 L 59.009524,19.125805 L 59.003524,19.033805 L 58.999524,18.943805 L 58.993524,18.859805 L 58.989524,18.785805 L 58.985524,18.713805 L 58.941524,17.913805 z "
       id="path842" />
    <path
       style="font-size:12.000000;fill:url(#linearGradient3141);fill-opacity:1.0000000;fill-rule:evenodd"
       d="M 11.509524,30.809805 C 11.899524,30.809805 12.175524,30.839805 12.335524,30.899805 C 12.471524,30.985805 12.591524,31.229805 12.705524,31.631805 L 14.083524,35.717805 C 14.293524,36.329805 14.349524,36.729805 14.253524,36.925805 C 14.157524,37.149805 13.837524,37.279805 13.291524,37.321805 L 12.631524,37.411805 C 12.555524,37.505805 12.525524,37.641805 12.545524,37.811805 C 12.545524,38.017805 12.601524,38.167805 12.721524,38.261805 C 13.817524,38.201805 15.015524,38.177805 16.311524,38.177805 C 17.729524,38.177805 18.985524,38.201805 20.083524,38.261805 C 20.207524,38.167805 20.273524,38.017805 20.273524,37.811805 C 20.253524,37.641805 20.177524,37.505805 20.053524,37.411805 L 19.627524,37.321805 C 18.925524,37.215805 18.445524,37.005805 18.189524,36.689805 C 17.925524,36.389805 17.639524,35.763805 17.323524,34.825805 L 13.131524,22.225805 C 12.705524,20.833805 12.269524,19.461805 11.825524,18.099805 C 11.729524,17.943805 11.563524,17.863805 11.329524,17.863805 C 11.289524,17.883805 11.077524,18.093805 10.687524,18.493805 C 10.301524,18.875805 9.8355240,19.145805 9.2955240,19.301805 C 9.3495240,19.801805 9.1695240,20.533805 8.7395240,21.489805 L 4.7475240,32.197805 C 4.1515240,33.839805 3.6755240,35.061805 3.3255240,35.867805 C 3.1295240,36.329805 2.9255240,36.659805 2.7155240,36.865805 C 2.4795240,37.059805 2.1495240,37.195805 1.7235240,37.259805 L 0.85552400,37.411805 C 0.77552400,37.545805 0.73552400,37.685805 0.73552400,37.841805 C 0.73552400,38.027805 0.78552400,38.167805 0.88152400,38.261805 C 1.8675240,38.201805 2.8355240,38.177805 3.7715240,38.177805 C 4.9335240,38.197805 5.9795240,38.221805 6.9055240,38.261805 C 7.0275240,38.187805 7.1015240,38.047805 7.1415240,37.841805 C 7.1415240,37.651805 7.0815240,37.505805 6.9675240,37.411805 L 6.0855240,37.259805 C 5.5495240,37.195805 5.2435240,37.049805 5.1695240,36.835805 C 5.0735240,36.589805 5.1695240,36.057805 5.4535240,35.231805 L 6.6515240,31.631805 C 6.7715240,31.229805 6.8815240,30.985805 6.9775240,30.899805 C 7.0715240,30.839805 7.2915240,30.809805 7.6435240,30.809805 L 11.509524,30.809805 z M 8.1135240,29.457805 C 7.7835240,29.477805 7.5875240,29.437805 7.5275240,29.341805 C 7.4475240,29.241805 7.4875240,28.991805 7.6435240,28.591805 L 8.8655240,25.065805 C 9.1395240,24.339805 9.3455240,23.787805 9.4815240,23.417805 C 9.5915240,23.017805 9.6755240,22.771805 9.7355240,22.681805 L 9.7915240,22.681805 C 9.8955240,22.791805 10.171524,23.583805 10.617524,25.065805 L 11.839524,28.681805 C 11.955524,29.021805 11.975524,29.231805 11.899524,29.311805 C 11.799524,29.407805 11.549524,29.457805 11.143524,29.457805 L 8.1135240,29.457805 z "
       id="path844" />
    <path
       style="font-size:12.000000;fill:url(#linearGradient3138);fill-opacity:1.0000000;fill-rule:evenodd"
       d="M 23.839524,33.855805 C 23.839524,35.381805 23.739524,36.329805 23.543524,36.689805 C 23.333524,37.069805 22.887524,37.279805 22.211524,37.321805 L 21.571524,37.411805 C 21.495524,37.505805 21.455524,37.651805 21.455524,37.841805 C 21.455524,38.047805 21.511524,38.187805 21.631524,38.261805 C 22.953524,38.201805 24.269524,38.171805 25.581524,38.171805 C 26.703524,38.191805 27.911524,38.221805 29.193524,38.261805 C 32.393524,38.261805 34.603524,37.701805 35.835524,36.573805 C 36.501524,35.997805 36.981524,35.357805 37.277524,34.651805 C 37.501524,33.975805 37.617524,33.283805 37.617524,32.583805 C 37.577524,30.879805 37.081524,29.617805 36.125524,28.791805 C 35.137524,27.989805 34.061524,27.509805 32.889524,27.353805 C 32.723524,27.299805 32.643524,27.233805 32.643524,27.163805 C 32.643524,27.083805 32.703524,27.027805 32.819524,26.987805 C 34.983524,26.247805 36.079524,24.975805 36.119524,23.171805 C 36.119524,21.333805 35.439524,20.031805 34.071524,19.271805 C 33.435524,18.869805 32.633524,18.599805 31.667524,18.463805 C 30.685524,18.319805 29.589524,18.243805 28.361524,18.243805 C 25.191524,18.263805 22.977524,18.353805 21.715524,18.523805 C 21.595524,18.599805 21.541524,18.719805 21.541524,18.875805 C 21.541524,19.059805 21.585524,19.221805 21.685524,19.355805 L 22.437524,19.445805 C 23.117524,19.445805 23.523524,19.665805 23.653524,20.107805 C 23.799524,20.527805 23.859524,21.439805 23.839524,22.851805 L 23.839524,33.855805 z M 27.329524,28.881805 C 27.309524,28.581805 27.379524,28.371805 27.541524,28.251805 C 27.691524,28.155805 28.061524,28.105805 28.657524,28.105805 C 32.073524,28.165805 33.815524,29.807805 33.891524,33.037805 C 33.871524,34.361805 33.505524,35.351805 32.789524,36.017805 C 32.057524,36.713805 31.171524,37.059805 30.139524,37.059805 C 28.943524,37.059805 28.171524,36.755805 27.825524,36.133805 C 27.475524,35.527805 27.309524,34.555805 27.329524,33.213805 L 27.329524,28.881805 z M 27.329524,20.707805 C 27.309524,20.131805 27.389524,19.757805 27.565524,19.591805 C 27.735524,19.495805 28.161524,19.445805 28.853524,19.445805 C 29.779524,19.445805 30.611524,19.731805 31.331524,20.297805 C 32.077524,20.873805 32.459524,21.825805 32.479524,23.141805 C 32.499524,25.725805 31.191524,26.997805 28.557524,26.957805 C 28.025524,26.957805 27.685524,26.907805 27.541524,26.813805 C 27.379524,26.733805 27.309524,26.513805 27.329524,26.151805 L 27.329524,20.707805 z "
       id="path846" />
    <path
       style="font-size:12.000000;fill:url(#linearGradient3135);fill-opacity:1.0000000;fill-rule:evenodd"
       d="M 58.055520,18.699805 C 57.821520,18.659805 57.549520,18.599805 57.245520,18.523805 C 55.707520,18.103805 54.025520,17.883805 52.197520,17.863805 C 49.137520,17.863805 46.457520,18.715805 44.163520,20.417805 C 41.789520,22.159805 40.567520,24.809805 40.491520,28.371805 C 40.511520,30.319805 40.917520,31.981805 41.713520,33.359805 C 42.475520,34.751805 43.447520,35.843805 44.629520,36.649805 C 46.727520,38.007805 49.211520,38.677805 52.081520,38.657805 C 53.067520,38.637805 53.995520,38.537805 54.855520,38.351805 C 55.691520,38.171805 56.283520,38.037805 56.633520,37.941805 C 56.953520,37.831805 57.289520,37.741805 57.641520,37.661805 C 57.881520,37.341805 58.155520,36.745805 58.467520,35.883805 C 58.751520,35.041805 58.943520,34.115805 59.037520,33.099805 C 58.977520,32.937805 58.857520,32.847805 58.667520,32.817805 C 58.487520,32.777805 58.321520,32.833805 58.165520,32.977805 C 57.981520,33.459805 57.725520,33.949805 57.415520,34.445805 C 57.099520,34.967805 56.703520,35.457805 56.217520,35.913805 C 55.751520,36.353805 55.181520,36.719805 54.499520,36.999805 C 53.813520,37.305805 53.007520,37.455805 52.081520,37.455805 C 50.133520,37.455805 48.409520,36.663805 46.903520,35.077805 C 45.305520,33.493805 44.489520,31.109805 44.453520,27.929805 C 44.489520,24.839805 45.265520,22.581805 46.773520,21.163805 C 48.255520,19.765805 49.957520,19.065805 51.885520,19.065805 C 52.833520,19.065805 53.659520,19.191805 54.359520,19.445805 C 55.011520,19.731805 55.551520,20.081805 55.977520,20.503805 C 56.433520,20.923805 56.783520,21.393805 57.029520,21.909805 C 57.269520,22.431805 57.435520,22.947805 57.529520,23.453805 C 57.645520,23.533805 57.811520,23.573805 58.025520,23.573805 C 58.217520,23.573805 58.361520,23.507805 58.467520,23.381805 C 58.327520,22.245805 58.227520,21.269805 58.171520,20.443805 C 58.111520,19.621805 58.075520,19.039805 58.055520,18.699805 z "
       id="path848" />
    <path
       style="font-size:12.000000;fill:url(#radialGradient3132);fill-rule:evenodd"
       d="M 34.263814,38.780699 L 59.049595,9.1166960 L 35.675370,52.194034 L 20.222923,30.322032 C 22.587368,31.932699 31.958036,37.093588 34.263814,38.780699 z "
       id="path855" />
    <path
       style="font-size:12.000000;fill:#ffffff;fill-rule:evenodd"
       d="M 39.059757,33.895374 L 56.595757,11.872252 L 34.496197,38.739814 L 39.059757,33.895374 z "
       id="path857" />
    <path
       style="font-size:12.000000;fill:#007500;fill-opacity:0.49609998;fill-rule:evenodd"
       d="M 35.776957,52.348454 L 30.649857,45.344014 L 35.657857,50.510234 L 51.837417,23.214234 L 35.776957,52.348454 z "
       id="path859" />
    <path
       id="path3077"
       d="M 34.263814,38.780699 L 59.049595,9.1166960 L 35.675370,52.194034 L 20.222923,30.322032 C 22.587368,31.932699 31.958036,37.093588 34.263814,38.780699 z "
       style="font-size:12.000000;fill:url(#radialGradient3127);fill-rule:evenodd;stroke:#0f5c00;stroke-width:2.3762500;stroke-linejoin:round;stroke-miterlimit:4.0000000;stroke-dasharray:none;stroke-opacity:1.0000000" />
    <path
       style="font-size:12.000000;fill:url(#radialGradient3124);fill-rule:evenodd;stroke:none;stroke-width:703.82806;stroke-linejoin:round;stroke-miterlimit:4.0000000;stroke-dasharray:none;stroke-opacity:1.0000000"
       d="M 34.263814,38.780699 L 59.049595,9.1166960 L 35.675370,52.194034 L 20.222923,30.322032 C 22.587368,31.932699 31.958036,37.093588 34.263814,38.780699 z "
       id="path3086" />
    <path
       style="font-size:12.000000;fill:url(#linearGradient3121);fill-opacity:1.0000000;fill-rule:evenodd"
       d="M 35.576553,43.135686 C 31.217257,43.473404 29.577188,37.068297 22.887962,31.868366 L 33.936342,38.801792 L 54.337431,14.912568 C 34.834120,38.675606 40.111087,42.784393 35.576553,43.135686 z "
       id="path916"
       sodipodi:nodetypes="ccccs" />
  </g>
</svg>
