<?xml version="1.0" encoding="UTF-8" standalone="no"?>
<!-- Created with Inkscape (http://www.inkscape.org/) -->
<svg
   xmlns:dc="http://purl.org/dc/elements/1.1/"
   xmlns:cc="http://web.resource.org/cc/"
   xmlns:rdf="http://www.w3.org/1999/02/22-rdf-syntax-ns#"
   xmlns:svg="http://www.w3.org/2000/svg"
   xmlns="http://www.w3.org/2000/svg"
   xmlns:xlink="http://www.w3.org/1999/xlink"
   xmlns:sodipodi="http://inkscape.sourceforge.net/DTD/sodipodi-0.dtd"
   xmlns:inkscape="http://www.inkscape.org/namespaces/inkscape"
   sodipodi:docname="gnome-run.svg"
   sodipodi:docbase="/home/david/.icons/eXperience/normal/apps"
   inkscape:version="0.41+cvs"
   sodipodi:version="0.32"
   id="svg3076"
   height="48.000000pt"
   width="48.000000pt">
  <defs
     id="defs3">
    <linearGradient
       id="aigrd15"
       gradientUnits="userSpaceOnUse"
       x1="6.2168"
       y1="115.2642"
       x2="135.4668"
       y2="115.2642">
      <stop
         offset="0"
         style="stop-color:#415dc4"
         id="stop2291" />
      <stop
         offset="1.0000000"
         style="stop-color:#aebcf5;stop-opacity:1.0000000;"
         id="stop2292" />
    </linearGradient>
    <linearGradient
       id="aigrd1"
       gradientUnits="userSpaceOnUse"
       x1="72.9028"
       y1="-4.1748"
       x2="72.9028"
       y2="62.4105">
      <stop
         offset="0.0000000"
         style="stop-color:#1737c4;stop-opacity:1.0000000;"
         id="stop2235" />
      <stop
         offset="1.0000000"
         style="stop-color:#aebcf5;stop-opacity:1.0000000;"
         id="stop2236" />
    </linearGradient>
    <linearGradient
       id="linearGradient659"
       gradientUnits="userSpaceOnUse"
       x1="72.9028"
       y1="-4.1748"
       x2="72.9028"
       y2="62.4105">
      <stop
         offset="0"
         style="stop-color:#ffffff;stop-opacity:1.0000;"
         id="stop661" />
      <stop
         offset="1"
         style="stop-color:#fffff5;stop-opacity:0;"
         id="stop663" />
    </linearGradient>
    <linearGradient
       inkscape:collect="always"
       xlink:href="#linearGradient659"
       id="linearGradient2169"
       gradientUnits="userSpaceOnUse"
       x1="-3.9285715"
       y1="-18.571428"
       x2="33.928570"
       y2="28.571428" />
    <radialGradient
       inkscape:collect="always"
       xlink:href="#aigrd1"
       id="radialGradient2179"
       gradientUnits="userSpaceOnUse"
       gradientTransform="scale(0.364300,0.476562)"
       cx="20.297345"
       cy="83.796523"
       fx="20.297345"
       fy="83.796523"
       r="42.513870" />
    <radialGradient
       inkscape:collect="always"
       xlink:href="#aigrd1"
       id="radialGradient2182"
       gradientUnits="userSpaceOnUse"
       gradientTransform="matrix(2.101441,1.930845e-16,-2.846286e-16,1.430881,-28.13135,-23.33792)"
       cx="37.247623"
       cy="61.528835"
       fx="37.247623"
       fy="61.528835"
       r="59.2076874" />
    <linearGradient
       inkscape:collect="always"
       xlink:href="#aigrd15"
       id="linearGradient2186"
       gradientUnits="userSpaceOnUse"
       gradientTransform="scale(0.416667,0.416667)"
       x1="6.2168"
       y1="115.2642"
       x2="135.4668"
       y2="115.2642" />
    <radialGradient
       inkscape:collect="always"
       xlink:href="#aigrd1"
       id="radialGradient2189"
       gradientUnits="userSpaceOnUse"
       gradientTransform="scale(0.302576,0.573778)"
       cx="25.424830"
       cy="48.865474"
       fx="25.424830"
       fy="48.865474"
       r="15.860805" />
    <radialGradient
       inkscape:collect="always"
       xlink:href="#aigrd1"
       id="radialGradient2192"
       gradientUnits="userSpaceOnUse"
       gradientTransform="scale(0.337235,0.514808)"
       cx="-2.20997405"
       cy="42.2353821"
       fx="-2.20997405"
       fy="42.2353821"
       r="37.9357643" />
    <radialGradient
       inkscape:collect="always"
       xlink:href="#aigrd1"
       id="radialGradient2195"
       gradientUnits="userSpaceOnUse"
       gradientTransform="scale(0.268548,0.646481)"
       cx="55.147962"
       cy="6.2773865"
       fx="55.147962"
       fy="6.2773865"
       r="13.194714" />
    <radialGradient
       inkscape:collect="always"
       xlink:href="#aigrd1"
       id="radialGradient2198"
       gradientUnits="userSpaceOnUse"
       gradientTransform="scale(0.481410,0.360631)"
       cx="90.7676086"
       cy="121.410950"
       fx="90.7676086"
       fy="121.410950"
       r="22.1388569" />
    <radialGradient
       inkscape:collect="always"
       xlink:href="#aigrd1"
       id="radialGradient2201"
       gradientUnits="userSpaceOnUse"
       gradientTransform="matrix(1.909319,-0.511600,0.156467,0.583943,-154.2374,30.96763)"
       cx="100.18805"
       cy="85.046982"
       fx="100.18805"
       fy="85.046982"
       r="9.25267792" />
    <radialGradient
       inkscape:collect="always"
       xlink:href="#aigrd1"
       id="radialGradient2204"
       gradientUnits="userSpaceOnUse"
       gradientTransform="matrix(0.518583,1.861250e-2,-2.256264e-2,0.628642,4.107960,-54.87202)"
       cx="93.238243"
       cy="180.68929"
       fx="93.238243"
       fy="180.68929"
       r="66.9822998" />
    <radialGradient
       inkscape:collect="always"
       xlink:href="#aigrd1"
       id="radialGradient2207"
       gradientUnits="userSpaceOnUse"
       gradientTransform="matrix(0.993887,1.063026e-17,-3.385631e-18,0.348751,-45.20826,7.105427e-15)"
       cx="91.131264"
       cy="180.01776"
       fx="91.131264"
       fy="180.01776"
       r="113.013298" />
    <radialGradient
       inkscape:collect="always"
       xlink:href="#aigrd1"
       id="radialGradient2210"
       gradientUnits="userSpaceOnUse"
       gradientTransform="scale(0.344144,0.504472)"
       cx="12.040728"
       cy="22.236517"
       fx="12.040728"
       fy="22.236517"
       r="26.915924" />
    <linearGradient
       inkscape:collect="always"
       xlink:href="#aigrd1"
       id="linearGradient2216"
       gradientUnits="userSpaceOnUse"
       gradientTransform="matrix(0.416667,0.000000,0.000000,0.416667,-0.571430,1.714284)"
       x1="62.8513756"
       y1="25.3955002"
       x2="89.5266113"
       y2="63.6888695" />
  </defs>
  <sodipodi:namedview
     inkscape:window-y="19"
     inkscape:window-x="1"
     inkscape:window-height="511"
     inkscape:window-width="721"
     gridtolerance="0.32000000pt"
     inkscape:current-layer="layer1"
     inkscape:document-units="pt"
     inkscape:cy="40.606036"
     inkscape:cx="56.731180"
     inkscape:zoom="2.8000000"
     inkscape:pageshadow="2"
     inkscape:pageopacity="0.0"
     borderopacity="1.0"
     bordercolor="#666666"
     pagecolor="#ffffff"
     id="base" />
  <metadata
     id="metadata4">
    <rdf:RDF
       id="RDF5">
      <cc:Work
         id="Work6"
         rdf:about="">
        <dc:format
           id="format7">image/svg+xml</dc:format>
        <dc:type
           rdf:resource="http://purl.org/dc/dcmitype/StillImage"
           id="type9" />
      </cc:Work>
    </rdf:RDF>
  </metadata>
  <g
     id="layer1"
     inkscape:groupmode="layer"
     inkscape:label="Layer 1">
    <path
       style="font-size:12.000000;opacity:0.14999999;stroke-width:0.0000000"
       d="M 59.144214,35.974612 C 59.144214,35.974612 55.151294,32.997943 54.305877,32.367526 C 54.310877,32.245026 54.311710,32.223359 54.315877,32.122109 C 54.728377,31.833775 55.286711,31.473775 55.805461,31.141275 C 57.392129,30.122941 58.125880,29.629607 58.492547,29.179607 C 58.676714,28.953773 58.773797,28.673773 58.773797,28.389606 C 58.773797,28.267939 58.756297,28.146273 58.720047,28.026689 C 58.125463,26.066688 57.278796,24.106269 56.202545,22.199184 C 56.026711,21.887101 55.725461,21.665851 55.375461,21.591267 C 55.375461,21.591267 51.127958,20.684600 50.761707,20.606683 C 50.125873,19.615016 49.405873,18.655015 48.623372,17.725848 C 49.233789,16.944180 50.085040,15.853346 50.085040,15.853346 C 50.262540,15.625846 50.349624,15.354596 50.349624,15.084595 C 50.349624,14.757095 50.221707,14.431678 49.970873,14.187928 C 48.497955,12.755844 46.910454,11.436259 45.253370,10.265425 C 44.886703,10.006258 44.409619,9.9637580 44.002952,10.153758 C 44.002952,10.153758 42.089617,11.047926 41.288366,11.422092 C 40.288782,10.807925 39.252948,10.252508 38.190031,9.7550078 C 38.209197,8.8200071 38.243781,7.1412557 38.243781,7.1325057 C 38.243781,6.6266720 37.938780,6.1695883 37.469197,5.9766714 C 35.451278,5.1466708 33.366277,4.4970869 31.272108,4.0454199 C 30.653358,3.9120865 30.032524,4.2620867 29.826691,4.8608372 C 29.826691,4.8608372 29.356273,6.2287550 29.028773,7.1800057 C 28.030856,7.0833390 27.044605,7.0416723 26.079604,7.0670890 C 25.494187,6.3275051 23.524185,3.8383364 23.524185,3.8383364 C 23.267935,3.5145903 22.868352,3.3383360 22.456268,3.3670902 C 20.716267,3.4895861 19.041682,3.8000030 17.442097,4.2408367 C 17.249180,4.1816700 17.053347,4.1287575 16.845847,4.1704200 C 16.317096,4.2754201 15.915429,4.7079204 15.849179,5.2429209 C 15.797096,5.6662545 15.779596,6.8637555 15.779596,8.2391733 C 15.779596,8.8687571 15.783763,9.5270910 15.789179,10.173758 C 14.602512,9.5954243 11.174592,7.9250063 11.174592,7.9250063 C 10.733759,7.7100062 10.204591,7.7712562 9.8266745,8.0833398 C 8.4716734,9.2033407 7.3037558,10.497925 6.3554218,11.931260 C 6.2450050,12.097926 6.1762549,12.288760 6.1550049,12.487510 C 6.1158382,12.853760 5.9162547,16.896264 5.8558380,18.126265 C 5.8550047,18.146681 5.8545880,18.167098 5.8545880,18.187515 C 5.8545880,18.602098 6.0604215,18.991265 6.4062551,19.224182 C 6.4062551,19.224182 6.9766722,19.608349 7.2754225,19.809599 C 5.9679214,19.886266 4.5929203,19.966683 4.5929203,19.966683 C 4.0008365,20.001266 3.5150028,20.447100 3.4291694,21.034183 L 2.4333353,27.869606 C 2.4245853,27.929606 2.4204186,27.989606 2.4204186,28.050022 C 2.4204186,28.102522 2.4237519,28.155439 2.4304186,28.207939 L 3.1625025,33.955444 C 3.2370859,34.539611 3.7154196,34.993361 4.3020868,35.043361 C 4.3020868,35.043361 8.9691738,35.454195 9.1020906,35.466278 C 9.4858409,36.300029 9.9225079,37.120446 10.328342,37.818780 C 10.306675,37.847530 10.279175,37.853780 10.258758,37.887530 L 9.8645912,38.526697 C 9.5125076,39.467532 8.7604237,41.287116 7.6283394,43.934618 C 7.5608394,44.092535 7.5275060,44.259619 7.5275060,44.425869 C 7.5275060,44.695869 7.6150061,44.963786 7.7845896,45.185453 C 8.9541738,46.714621 12.781677,50.589207 14.448762,50.986707 C 14.794179,51.068791 15.157929,51.000457 15.450012,50.798374 C 15.450012,50.798374 19.084182,48.282539 20.117099,47.567121 C 21.012517,48.122955 22.340851,48.921289 23.306269,49.393373 C 23.409602,50.310874 24.032103,55.851711 24.032103,55.851711 C 24.085019,56.320878 24.397103,56.720045 24.839603,56.884212 C 28.196273,58.128797 30.375441,58.671714 32.126692,58.700047 C 32.564609,58.707130 32.976276,58.482130 33.208360,58.110463 L 36.042112,53.579626 C 36.247529,53.252959 36.361696,53.067542 36.444196,52.923376 C 37.124196,52.885459 38.041280,52.809626 38.850448,52.667542 C 39.362531,53.325876 41.915034,56.607962 41.915034,56.607962 C 42.216284,56.995462 42.716701,57.170879 43.193785,57.055879 C 45.358370,56.535462 47.605871,54.924627 47.700455,54.856711 C 47.767955,54.807961 47.830455,54.752544 47.886705,54.691710 C 48.066288,54.497544 52.295875,49.922957 52.930042,49.174206 C 53.127543,48.941289 53.230043,48.654206 53.230043,48.365455 C 53.230043,48.156705 53.176709,47.947122 53.067126,47.755872 C 53.067126,47.755872 52.851709,47.379621 52.771292,47.238371 C 52.801709,47.216704 52.837959,47.207538 52.866709,47.182954 L 57.862963,42.914201 C 58.004213,42.793368 58.116713,42.642951 58.192547,42.472951 C 58.934214,40.810033 59.420881,39.009198 59.638381,37.120446 C 59.643798,37.072530 59.646714,37.024613 59.646714,36.977113 C 59.646714,36.585446 59.462548,36.212529 59.143797,35.975029 L 59.144214,35.974612 z M 39.461698,37.935864 C 35.414612,38.796698 30.507524,37.694197 26.336271,34.985861 C 21.084600,31.576692 15.365179,25.482312 17.477722,22.372310 C 21.043809,17.261722 29.419190,16.930847 35.673362,21.324600 C 41.086700,25.126687 43.647535,31.542942 42.884618,36.579613 C 41.892950,37.202113 40.745866,37.662113 39.461698,37.935447 L 39.461698,37.935864 z "
       id="path2233"
       sodipodi:nodetypes="cccccccccccccccccccccccccccccccccccccccccccccccccccccccccccccccccccccccccccccccccscccc" />
    <path
       style="font-size:12.000000;fill:url(#linearGradient2216);stroke:#1d2c75;stroke-width:0.87500000;stroke-miterlimit:4.0000000;stroke-dasharray:none;stroke-opacity:1.0000000"
       d="M 14.761499,22.290550 C 18.061085,17.155130 26.374425,16.288879 33.018597,20.955966 C 38.744018,24.976803 41.283603,31.924308 40.069436,37.068896 C 48.272776,31.951267 50.786111,20.696174 43.700689,15.220961 C 31.129095,5.6971455 13.657873,10.637166 14.761499,22.290550 z "
       id="path2237"
       sodipodi:nodetypes="cccsc" />
    <path
       style="font-size:12.000000;fill:url(#aigrd3);stroke-width:0.0000000"
       d="M 46.862954,43.137118 C 46.862954,43.242951 46.888371,43.349618 46.940454,43.447535 C 46.940454,43.447535 48.502539,46.376704 48.867956,47.062121 C 48.850039,47.082538 48.819622,47.118788 48.790872,47.152954 L 49.360873,46.864204 L 47.105454,42.634201 C 47.088788,42.647951 47.069621,42.655867 47.054621,42.671284 C 46.928371,42.798368 46.862954,42.966284 46.862954,43.137118 L 46.862954,43.137118 z "
       id="path2245" />
    <path
       style="font-size:12.000000;fill:url(#aigrd4);stroke-width:0.0000000"
       d="M 55.037544,34.142111 L 50.454624,30.721691 L 50.366290,29.128773 C 50.275874,29.240023 50.219624,29.308773 50.219624,29.308773 C 50.123790,29.426690 50.071707,29.574607 50.071707,29.725857 C 50.071707,29.737940 50.072123,29.750440 50.072123,29.762524 L 50.131290,30.822525 C 50.142123,31.017525 50.239624,31.198358 50.395874,31.315025 C 50.395874,31.315025 54.195460,34.150444 54.737960,34.555861 C 54.664210,35.100445 54.285460,37.888364 54.148377,38.895864 L 54.352960,38.998365 L 55.037127,34.142527 L 55.037544,34.142111 z "
       id="path2249" />
    <path
       sodipodi:nodetypes="ccccccccccccccccccccccccccccccccccccccccccccc"
       id="path2104"
       d="M 20.500000,2.0625000 C 18.616061,2.1951330 16.704798,2.5421395 15.004464,3.0625000 C 15.004464,3.0625000 14.958862,7.6996008 14.968750,8.5669643 C 14.649442,8.7840947 14.266995,9.0072932 13.968750,9.2500000 C 13.085333,8.8187577 9.6710540,7.1563476 8.4687500,6.5625000 C 7.2223146,7.5981404 5.4530226,9.5781165 5.1862309,10.215577 C 5.1478975,10.574328 5.0312500,16.093750 5.0312500,16.093750 L 8.5937500,18.531250 L 2.4687500,18.906250 L 1.5937500,25.968750 L 2.3125000,31.718750 C 2.3124999,31.718751 2.3041622,31.699583 7.8437500,32.187500 C 8.5632200,33.944445 9.3822140,35.244980 9.8042910,35.898993 L 9.0154660,36.718750 C 8.9392160,36.789583 9.1012520,36.696662 6.6875000,42.343750 C 8.0237510,44.090832 11.576666,47.430000 12.656250,47.687500 C 18.000837,43.987497 18.000000,44.000000 18.000000,44.000000 C 18.000001,44.000001 21.467083,46.212083 22.375000,46.468750 C 23.181668,53.643338 22.380833,46.450411 23.187500,53.625000 C 26.012502,54.672502 28.303749,55.346667 30.062500,55.375000 C 33.309585,50.157496 33.300834,50.234583 33.312500,50.156250 C 33.334098,50.012684 33.392787,49.625000 33.392857,49.625000 C 33.392856,49.624998 36.047499,49.564167 37.281250,49.187500 C 40.830418,53.750420 37.263331,49.187080 40.812500,53.750000 C 42.762502,53.281250 44.875000,51.750000 44.875000,51.750000 C 44.875000,51.750001 49.282082,47.017917 49.906250,46.281250 C 49.591222,45.718301 48.835847,44.413965 48.093750,43.125000 L 49.968750,44.156250 C 49.968750,44.156250 54.977679,39.888393 54.977679,39.888393 C 55.680594,38.303719 56.452746,36.649793 56.656250,34.875000 L 50.937500,30.531250 C 50.955052,30.248093 50.969796,29.540005 50.968750,29.468750 L 55.781250,26.187500 C 55.203437,24.271654 54.376671,22.371601 53.343750,20.531250 C 52.167526,20.278339 48.895614,19.558263 48.187500,19.406250 C 47.333583,18.002682 46.338123,16.649294 45.187500,15.375000 L 47.281250,12.687500 C 46.714491,11.898241 43.071157,9.1383713 42.656250,8.8437500 C 42.656250,8.8437500 40.528998,9.7635752 39.187500,10.343750 C 37.811470,9.4591799 36.426157,8.6858150 35.000000,8.0625000 C 35.000000,8.0625000 35.047937,4.6571834 35.049107,4.6250000 C 33.137107,3.8803800 32.039415,3.4408213 29.017857,2.7366071 L 27.906250,6.0312500 C 26.392121,5.8209095 24.904678,5.7626623 23.468750,5.8437500 L 20.500000,2.0625000 z "
       style="font-size:12.000000;fill:none;stroke:#1d2c75;stroke-width:1.5000000;stroke-linecap:round;stroke-linejoin:round;stroke-miterlimit:4.0000000;stroke-dasharray:none;stroke-opacity:1.0000000" />
    <path
       style="font-size:12.000000;fill:url(#radialGradient2210);stroke-width:0.0000000"
       d="M 10.960842,13.772928 L 7.2220891,10.991675 C 7.2183391,10.996259 5.3179209,10.533758 5.3145876,10.537508 C 5.2762542,10.896259 5.0212540,16.104180 5.0212540,16.104180 L 9.6837577,19.244182 L 10.960425,13.772928 L 10.960842,13.772928 z "
       id="path2253" />
    <path
       style="font-size:12.000000;fill:url(#radialGradient2207);stroke-width:0.0000000"
       d="M 25.745854,41.225033 L 20.020016,38.052114 L 14.359178,41.944617 L 9.0266739,36.719196 C 8.9504238,36.790029 9.1079240,36.695863 6.6941720,42.342951 C 8.0304231,44.090035 11.575843,47.430038 12.655427,47.687538 C 18.000014,43.987535 18.000014,43.987535 18.000014,43.987535 C 18.000014,43.987535 21.477101,46.197537 22.385018,46.454204 C 23.191685,53.628793 22.385018,46.454204 23.191685,53.628793 C 26.016687,54.676294 28.305856,55.338378 30.064607,55.366711 C 33.311693,50.149207 33.300027,50.227540 33.311693,50.149207 L 25.822521,48.399622 L 25.745854,41.225033 z "
       id="path2257" />
    <path
       style="font-size:12.000000;fill:url(#radialGradient2204);stroke-width:0.0000000"
       d="M 39.769198,42.903784 L 34.348361,43.272535 L 33.060443,49.238789 C 33.061276,49.238789 33.430443,49.628790 33.431277,49.628790 C 33.431277,49.628790 36.036279,49.570873 37.270030,49.194206 C 40.819199,53.757126 37.270030,49.194206 40.819199,53.757126 C 42.769201,53.288376 44.886703,51.759625 44.886703,51.759625 C 44.886703,51.759625 49.270039,47.019204 49.894207,46.282537 L 44.087535,49.250873 L 39.769615,42.903784 L 39.769198,42.903784 z "
       id="path2261" />
    <path
       style="font-size:12.000000;fill:url(#radialGradient2201);stroke-width:0.0000000"
       d="M 50.777541,29.608357 C 51.290458,28.978773 54.891294,26.979605 55.440044,26.306271 L 50.592540,26.277521 L 50.777541,29.608357 L 50.777541,29.608357 z "
       id="path2265" />
    <path
       style="font-size:12.000000;fill:url(#radialGradient2198);stroke-width:0.0000000"
       d="M 44.600036,41.225866 L 49.972123,44.148785 L 54.968377,39.880032 L 48.970039,36.381696 L 44.600036,41.225866 z "
       id="path2269" />
    <path
       style="font-size:12.000000;fill:url(#radialGradient2195);stroke-width:0.0000000"
       d="M 15.006679,3.3129193 C 14.902512,4.1562533 14.967512,9.2741741 14.967512,9.2741741 C 14.967095,9.2775074 14.967929,9.2708407 14.967512,9.2741741 L 17.424181,7.5791727 C 17.424181,7.5791727 15.007095,3.3129193 15.006679,3.3129193 L 15.006679,3.3129193 z "
       id="path2273" />
    <path
       style="font-size:12.000000;fill:url(#radialGradient2192);stroke-width:0.0000000"
       d="M 10.422925,26.033771 L 3.6729196,25.388354 L 2.5833354,19.131682 L 1.5870846,25.966687 L 2.3191685,31.714192 C 2.3191685,31.714192 2.3191685,31.714192 7.8587563,32.202109 C 8.7495903,34.377528 10.325425,36.724613 10.325425,36.724613 L 13.111677,32.090442 L 10.422925,26.033771 L 10.422925,26.033771 z "
       id="path2277" />
    <path
       style="font-size:12.000000;fill:url(#radialGradient2189);stroke-width:0.0000000"
       d="M 10.422925,26.033771 L 7.8587563,32.202109 L 10.462508,36.724613 L 13.496677,31.666692 L 10.423342,26.033354 L 10.422925,26.033771 z "
       id="path2285" />
    <path
       style="font-size:12.000000;fill:url(#linearGradient2186);stroke-width:0.0000000"
       d="M 47.770038,47.672955 C 47.310038,47.906288 46.827954,48.150039 46.371704,48.380872 C 46.852954,48.162539 47.317955,47.925455 47.770038,47.672955 z "
       id="path2293" />
    <path
       d="M 50.956707,30.900026 L 50.949624,30.816693 C 50.978374,30.441276 50.997540,30.062526 50.997540,29.679192 C 50.997540,28.649608 50.887124,27.589190 50.675874,26.509189 L 55.440461,26.306273 C 54.867544,24.416271 54.055043,22.545853 53.030875,20.730435 C 51.864624,20.480851 48.631705,19.791684 47.929621,19.641684 C 47.082954,18.257100 46.078370,16.921682 44.937536,15.664597 L 47.016704,13.001262 C 45.614619,11.638344 44.089202,10.362093 42.449200,9.2033423 L 39.139198,10.750010 C 37.737113,9.8437595 36.296279,9.0795922 34.840861,8.4466750 L 34.910861,5.0500056 C 32.920859,4.2316716 30.914608,3.6137545 28.925856,3.1845875 L 27.805022,6.4429234 C 26.303771,6.2354232 24.828353,6.1708399 23.404602,6.2508399 L 20.460849,2.5312536 C 18.592931,2.6620871 16.799180,2.9875040 15.113345,3.5008377 L 17.424180,7.5795910 C 16.166679,8.1075081 15.010845,8.7862586 13.984594,9.6170926 C 13.108760,9.1916756 9.7325075,7.5500076 8.5404232,6.9641738 C 7.3045888,7.9858413 6.2170880,9.1754256 5.3150039,10.538760 L 10.533758,13.968346 C 9.8183409,15.460014 9.4120905,17.069182 9.2900071,18.739600 L 2.5833351,19.131684 C 2.4891683,21.160019 2.7183352,23.252104 3.2454189,25.351689 L 10.422925,26.033772 C 11.139175,27.957941 12.176259,29.859609 13.496260,31.667110 L 9.1079236,36.695864 C 10.621675,38.559199 12.377510,40.326701 14.359178,41.945035 L 20.020016,38.052532 L 20.042516,38.065032 C 20.367933,38.295032 20.699183,38.520866 21.037516,38.740449 C 22.548351,39.721283 24.130852,40.551284 25.745854,41.225451 L 25.822520,48.399624 C 28.308356,49.275458 30.830441,49.866708 33.311693,50.149208 C 33.575027,48.398790 34.301277,43.586286 34.348777,43.272953 C 36.220029,43.384203 38.047113,43.268786 39.769615,42.904203 L 44.087535,49.251291 C 44.880036,49.000874 45.642953,48.711291 46.372120,48.381290 C 46.828370,48.150457 47.310038,47.906707 47.770455,47.673373 C 48.520038,47.255873 49.228372,46.791706 49.894206,46.283372 C 49.260456,45.150871 46.942537,41.138368 46.239620,39.922534 C 47.278787,39.077533 48.173788,38.086282 48.904622,36.959198 C 48.931289,36.918364 48.953372,36.875031 48.979622,36.834198 L 54.968794,39.880450 C 55.665878,38.317116 56.112545,36.645031 56.314211,34.894196 L 50.957540,30.900860 L 50.956707,30.900026 z M 43.736285,32.222527 C 40.216282,37.646282 31.366691,38.151699 23.972102,33.352112 C 16.576680,28.551274 13.436260,20.262518 16.957513,14.838347 C 20.478349,9.4137591 29.327523,8.9083420 36.722946,13.708763 C 44.117952,18.510433 47.258371,26.798356 43.736285,32.222527 L 43.736285,32.222527 z "
       id="path2298"
       style="font-size:12.000000;fill:#c9d4ff;fill-opacity:1.0000000;stroke-width:0.0000000" />
    <path
       style="font-size:12.000000;fill:url(#radialGradient2182);fill-opacity:1.0000000;stroke-width:0.0000000"
       d="M 42.172918,30.877106 C 39.143757,35.568126 31.528205,36.005320 25.164678,31.854133 C 18.800550,27.701820 16.097996,20.532790 19.128257,15.841463 C 22.158118,11.149726 29.773370,10.712532 36.137497,14.864538 C 42.501324,19.017466 45.203778,26.185779 42.172918,30.877106 L 42.172918,30.877106 z M 50.798990,30.445752 C 50.918793,29.512772 50.941893,27.246700 50.728789,26.151566 L 55.768390,26.173180 C 55.190578,24.257334 54.371062,22.361361 53.338141,20.521010 C 52.161918,20.268098 48.901252,19.569489 48.193138,19.417476 C 47.339221,18.013909 46.326001,16.660227 45.175378,15.385933 L 47.272420,12.686254 C 45.858292,11.304710 44.319861,10.010954 42.665728,8.8363702 L 39.327361,10.404202 C 37.913233,9.4855328 36.460004,8.7109280 34.992074,8.0693559 L 35.062676,4.6262425 C 33.055635,3.7967222 31.032195,3.1703617 29.026355,2.7353297 L 27.895932,6.0382093 C 26.381802,5.8278689 24.893772,5.7624128 23.457844,5.8435005 L 20.488784,2.0730554 C 18.604846,2.2056885 16.795710,2.5355401 15.095376,3.0559006 L 17.426123,7.1904209 C 16.157798,7.7255424 14.991974,8.4135791 13.957053,9.2557809 C 13.073636,8.8245389 9.6684377,7.1604279 8.4661337,6.5665803 C 7.2196987,7.6022207 6.1228668,8.8080673 5.2130486,10.190113 L 10.666088,13.481561 C 9.9444932,14.993607 9.7386191,16.786530 9.6154867,18.479374 L 2.4583735,18.900485 C 2.3634016,20.956462 2.8504614,22.826724 3.3820620,24.955020 L 10.666088,25.377463 C 11.388502,27.327829 12.836631,29.739973 14.167958,31.572129 L 9.9655737,36.640520 C 11.185598,38.150108 11.878412,39.279558 14.238159,41.215994 C 14.238159,41.215994 14.167958,41.215994 19.981574,37.203504 C 21.172098,38.400152 24.726469,40.110206 26.355401,40.793653 L 26.565406,48.185070 C 29.072656,49.072773 30.366582,49.306326 32.869032,49.592734 C 33.134737,47.818352 33.801550,43.011887 33.849451,42.694236 C 35.736789,42.807119 38.556245,42.641482 40.293080,42.271896 L 44.565566,48.607308 C 45.826291,48.255545 48.726849,46.729466 49.398362,46.213807 C 48.759150,45.065918 46.605506,40.970251 45.896492,39.737751 C 46.944613,38.881188 48.311241,37.430808 49.048355,36.288246 C 49.075256,36.246964 55.141877,39.526530 55.141877,39.526530 C 55.844791,37.941857 56.446203,36.652813 56.649707,34.878020 L 50.798990,30.445752 L 50.798990,30.445752 z "
       id="path2647" />
    <path
       style="font-size:12.000000;fill:url(#radialGradient2179);stroke-width:0.0000000"
       d="M 14.358761,41.945034 L 12.655010,47.687121 L 17.999598,43.987119 L 20.020016,38.052530 L 14.359178,41.945034 L 14.358761,41.945034 z "
       id="path2302" />
    <path
       style="font-size:12.000000;opacity:0.40000001;fill:#f0e7ff;fill-opacity:1.0000000;stroke-width:0.0000000"
       d="M 22.384601,46.453787 L 25.745854,41.225033 L 25.822521,48.399205 L 23.191269,53.628376 L 22.384601,46.453787 z "
       id="path2303" />
    <path
       style="font-size:12.000000;opacity:0.40000001;fill:#ffffff;stroke-width:0.0000000"
       d="M 39.736698,43.010868 L 37.270030,49.194206 L 40.819199,53.757126 L 44.087535,49.250873 L 39.737115,43.010451 L 39.736698,43.010868 z "
       id="path2304" />
    <path
       style="font-size:12.000000;fill:none;stroke-width:0.0000000"
       d="M 32.871276,20.264600 C 27.567522,16.539180 20.691267,16.545430 17.247930,20.180433 C 17.420014,24.361269 20.375850,28.896273 24.932937,31.854609 L 24.932937,31.854609 C 28.831690,34.386278 33.387110,35.423778 37.117113,34.630444 C 38.032530,34.435444 38.853364,34.106277 39.609615,33.702944 C 39.642948,33.350027 39.687948,32.999610 39.687948,32.641693 C 39.687948,28.095022 37.048363,23.198352 32.870860,20.264600 L 32.871276,20.264600 z "
       id="path2309" />
    <path
       d="M 25.929604,47.777955 L 23.169185,53.559210 L 26.502521,48.559206 L 25.929604,47.777955 z "
       id="path2322"
       style="font-size:12.000000;fill:#c9d4ff;fill-opacity:1.0000000;stroke-width:0.0000000" />
    <path
       d="M 43.898368,48.975873 L 40.877533,53.663376 L 44.679619,49.080039 L 43.898368,48.975873 z "
       id="path2323"
       style="font-size:12.000000;fill:#c6caff;fill-opacity:1.0000000;stroke-width:0.0000000" />
    <path
       d="M 14.106678,41.736283 L 12.596260,47.621705 L 14.731678,41.684200 L 14.106678,41.736283 z "
       id="path2324"
       style="font-size:12.000000;fill:#c9d4ff;fill-opacity:1.0000000;stroke-width:0.0000000" />
    <path
       d="M 3.1691692,25.017520 L 2.3358352,31.632109 L 3.4816695,25.382104 L 3.1691692,25.017520 z "
       id="path2325"
       style="font-size:12.000000;fill:#c9d4ff;fill-opacity:1.0000000;stroke-width:0.0000000" />
    <path
       style="font-size:12.000000;fill:url(#linearGradient2169);fill-opacity:1.0000000;stroke-width:0.0000000"
       d="M 25.164678,31.854133 C 18.800550,27.701820 16.097996,20.532790 19.128257,15.841463 C 22.158118,11.149726 30.344801,10.712532 36.708929,14.864538 C 40.807520,12.601683 42.719499,15.645730 47.173348,12.580203 C 46.420623,11.399575 43.506474,9.4655743 42.658458,9.0706057 C 41.521915,9.0331923 41.214099,9.4878765 39.102466,10.387792 C 37.529585,9.2673960 36.477564,8.6709302 34.802440,8.0938902 C 35.012935,7.3100365 34.909023,5.4004559 34.943003,4.4660267 C 33.031005,3.7214068 32.370772,4.0630271 29.059036,2.4659558 L 27.895932,6.0382113 C 26.381802,5.8278689 24.893772,5.7624138 23.457844,5.8434994 L 20.488784,2.0730564 C 18.604846,2.2056885 16.795710,2.5355411 15.095376,3.0558996 L 17.426123,7.1904219 C 16.157798,7.7255434 14.991974,8.4135812 13.957053,9.2557809 C 13.073636,8.8245389 9.6684377,7.1604289 8.4661347,6.5665803 C 7.2196987,7.6022186 6.1228668,8.8080684 5.2130486,10.190113 L 10.666088,13.481561 C 9.9444932,14.993607 9.7386191,16.786530 9.6154867,18.479374 L 2.4583735,18.900485 C 2.3634016,20.956462 2.8504614,22.826724 3.3820620,24.955020 L 10.666088,25.377463 C 11.388502,27.327829 12.836631,29.739973 14.167958,31.572129 L 9.9655737,36.640520 C 20.709399,32.435822 19.909163,37.148179 25.164678,31.854133 z "
       id="path658"
       sodipodi:nodetypes="ccccccccccccccccccccccccc" />
  </g>
</svg>
