<?xml version="1.0" encoding="UTF-8" standalone="no"?>
<!-- Created with Inkscape (http://www.inkscape.org/) -->
<svg
   xmlns:dc="http://purl.org/dc/elements/1.1/"
   xmlns:cc="http://web.resource.org/cc/"
   xmlns:rdf="http://www.w3.org/1999/02/22-rdf-syntax-ns#"
   xmlns:svg="http://www.w3.org/2000/svg"
   xmlns="http://www.w3.org/2000/svg"
   xmlns:xlink="http://www.w3.org/1999/xlink"
   xmlns:sodipodi="http://inkscape.sourceforge.net/DTD/sodipodi-0.dtd"
   xmlns:inkscape="http://www.inkscape.org/namespaces/inkscape"
   width="48.000000pt"
   height="48.000000pt"
   id="svg3076"
   sodipodi:version="0.32"
   inkscape:version="0.41+cvs"
   sodipodi:docbase="/home/david/.icons/eXperience/normal/stock"
   sodipodi:docname="gtk-book.svg">
  <defs
     id="defs3">
    <linearGradient
       id="linearGradient2865"
       inkscape:collect="always">
      <stop
         id="stop2867"
         offset="0"
         style="stop-color:#000000;stop-opacity:1;" />
      <stop
         id="stop2869"
         offset="1"
         style="stop-color:#000000;stop-opacity:0;" />
    </linearGradient>
    <linearGradient
       id="linearGradient3620">
      <stop
         style="stop-color:#d8b72a;stop-opacity:1.0000000;"
         offset="0.0000000"
         id="stop3622" />
      <stop
         style="stop-color:#ffffff;stop-opacity:1.0000000;"
         offset="1.0000000"
         id="stop3624" />
    </linearGradient>
    <linearGradient
       y2="11989"
       x2="-1535"
       y1="23432"
       x1="19079"
       gradientUnits="userSpaceOnUse"
       id="id2">
      <stop
         id="stop992"
         offset="0.0000000"
         style="stop-color:#001c9a;stop-opacity:1.0000000;" />
      <stop
         id="stop998"
         offset="1.0000000"
         style="stop-color:#ffffff;stop-opacity:1.0000000;" />
    </linearGradient>
    <linearGradient
       inkscape:collect="always"
       xlink:href="#id2"
       id="linearGradient2133"
       gradientUnits="userSpaceOnUse"
       gradientTransform="matrix(2.070987e-3,6.800267e-4,-9.473266e-4,2.264869e-3,13.81268,-15.39912)"
       spreadMethod="pad"
       x1="17986.535"
       y1="25759.336"
       x2="14956.094"
       y2="20339.361" />
    <linearGradient
       inkscape:collect="always"
       xlink:href="#id2"
       id="linearGradient2136"
       gradientUnits="userSpaceOnUse"
       gradientTransform="matrix(2.177733e-3,3.716923e-4,-5.041117e-4,2.252815e-3,5.428935,-9.995200)"
       x1="21151.703"
       y1="16646.172"
       x2="4104.8770"
       y2="-1996.5599" />
    <linearGradient
       inkscape:collect="always"
       xlink:href="#id2"
       id="linearGradient2139"
       gradientUnits="userSpaceOnUse"
       x1="51.428574"
       y1="36.428570"
       x2="-0.71428585"
       y2="-15.714286" />
    <linearGradient
       inkscape:collect="always"
       xlink:href="#id2"
       id="linearGradient2142"
       gradientUnits="userSpaceOnUse"
       gradientTransform="matrix(2.070987e-3,6.800267e-4,-9.473266e-4,2.264869e-3,13.81268,-15.39912)"
       spreadMethod="pad"
       x1="-10293.986"
       y1="18089.670"
       x2="68599.586"
       y2="9224.5625" />
    <linearGradient
       inkscape:collect="always"
       xlink:href="#id2"
       id="linearGradient2145"
       gradientUnits="userSpaceOnUse"
       gradientTransform="matrix(2.070987e-3,6.800267e-4,-9.473266e-4,2.264869e-3,13.81268,-15.39912)"
       spreadMethod="pad"
       x1="17634.785"
       y1="14303.633"
       x2="-5397.5752"
       y2="4710.3945" />
    <linearGradient
       inkscape:collect="always"
       xlink:href="#linearGradient3620"
       id="linearGradient2148"
       gradientUnits="userSpaceOnUse"
       x1="76.071426"
       y1="42.142857"
       x2="-16.071428"
       y2="35.000000" />
    <linearGradient
       inkscape:collect="always"
       xlink:href="#id2"
       id="linearGradient2151"
       gradientUnits="userSpaceOnUse"
       gradientTransform="matrix(2.070987e-3,6.800267e-4,-9.473266e-4,2.264869e-3,13.81268,-15.39912)"
       x1="15802.128"
       y1="24488.270"
       x2="-7038.8364"
       y2="7392.3145" />
    <linearGradient
       inkscape:collect="always"
       xlink:href="#linearGradient3620"
       id="linearGradient2154"
       gradientUnits="userSpaceOnUse"
       x1="17.500000"
       y1="46.056725"
       x2="74.285713"
       y2="48.303570" />
    <linearGradient
       inkscape:collect="always"
       xlink:href="#id2"
       id="linearGradient2157"
       gradientUnits="userSpaceOnUse"
       gradientTransform="matrix(2.070987e-3,6.800267e-4,-9.473266e-4,2.264869e-3,13.81268,-15.39912)"
       x1="19079"
       y1="23432"
       x2="-4624.7603"
       y2="10824.194" />
    <linearGradient
       inkscape:collect="always"
       xlink:href="#id2"
       id="linearGradient2160"
       gradientUnits="userSpaceOnUse"
       gradientTransform="matrix(1.128400,3.126769e-2,-1.756493e-2,1.086112,-2.659341,-5.141953)"
       x1="33.571430"
       y1="47.677769"
       x2="6.4285688"
       y2="-2.3222330" />
    <linearGradient
       inkscape:collect="always"
       xlink:href="#linearGradient2865"
       id="linearGradient2163"
       gradientUnits="userSpaceOnUse"
       x1="38.928570"
       y1="63.928574"
       x2="3.9285715"
       y2="37.421284"
       gradientTransform="matrix(1.000000,0.000000,0.000000,1.537912,0.000000,-29.63680)" />
  </defs>
  <sodipodi:namedview
     inkscape:guide-bbox="true"
     showguides="true"
     id="base"
     pagecolor="#ffffff"
     bordercolor="#666666"
     borderopacity="1.0"
     inkscape:pageopacity="0.0"
     inkscape:pageshadow="2"
     inkscape:zoom="2.8000000"
     inkscape:cx="71.668832"
     inkscape:cy="26.896820"
     inkscape:document-units="pt"
     inkscape:current-layer="layer1"
     gridtolerance="0.32000000pt"
     inkscape:window-width="721"
     inkscape:window-height="511"
     inkscape:window-x="315"
     inkscape:window-y="43" />
  <metadata
     id="metadata4">
    <rdf:RDF
       id="RDF5">
      <cc:Work
         rdf:about=""
         id="Work6">
        <dc:format
           id="format7">image/svg+xml</dc:format>
        <dc:type
           id="type9"
           rdf:resource="http://purl.org/dc/dcmitype/StillImage" />
      </cc:Work>
    </rdf:RDF>
  </metadata>
  <g
     inkscape:label="Layer 1"
     inkscape:groupmode="layer"
     id="layer1">
    <path
       sodipodi:nodetypes="ccccccccc"
       d="M 1.9785092,29.455228 L 35.814539,22.421282 L 57.501515,44.484348 C 58.408932,45.409462 57.323682,45.867709 56.621182,46.063322 L 25.402250,54.767982 C 23.205546,55.395112 22.526699,55.070791 21.758567,54.238233 L 1.0825949,31.672888 C 0.53081887,31.075778 0.81872297,30.791812 1.1940270,30.502182 C 1.4558701,30.300683 2.8128986,30.605597 1.9785092,29.455228 z "
       id="path2068"
       style="font-size:12.000000;fill:url(#linearGradient2163);fill-opacity:1.0000000" />
    <path
       style="font-size:12.000000;fill:url(#linearGradient2160);fill-opacity:1.0000000"
       id="path1086"
       d="M 1.9785092,14.853829 L 35.814539,12.358113 L 57.501515,47.118947 C 58.408932,48.576076 57.323682,48.974473 56.621182,49.094128 L 25.402250,54.427501 L 21.758567,52.934833 L 1.0825949,17.699704 C 0.53081887,16.766353 0.81872297,16.438437 1.1940270,16.121186 C 1.4558701,15.900628 2.8128986,16.603812 1.9785092,14.853829 z " />
    <path
       style="font-size:12.000000;fill:url(#linearGradient2157)"
       id="path1092"
       d="M 4.5229271,8.4045781 C 4.4938482,7.2126762 5.1247321,6.3688534 7.3753740,6.2758445 L 30.069118,44.339887 C 28.854353,44.118748 27.773929,44.387355 26.988895,45.729236 C 25.593661,47.527611 24.754574,49.511182 24.363721,51.577537 C 24.358710,52.276541 23.962587,52.795606 25.727037,52.738725 L 25.402250,54.427501 C 23.872118,54.842101 22.866685,55.027145 22.010110,53.499131 L 1.6716038,17.282613 C 1.3665008,16.739373 0.68384277,16.265349 0.83169097,15.883718 C 1.0970729,15.192926 1.3045773,15.817463 1.6512314,15.016838 L 4.5229271,8.4045781 z " />
    <path
       style="font-size:12.000000;fill:url(#linearGradient2154);fill-opacity:1.0000000"
       id="path1088"
       d="M 59.162784,38.901127 L 26.717731,44.524821 L 22.744841,53.212320 L 55.563457,47.371266 L 59.162784,38.901127 z " />
    <path
       style="font-size:12.000000;fill:url(#linearGradient2151)"
       id="path1108"
       d="M 1.1149484,15.690799 L 23.267698,53.291274 C 23.372989,53.467520 23.362131,53.842620 23.245613,54.121195 L 23.245613,54.121195 C 23.129095,54.399778 22.948588,54.482184 22.844243,54.303670 L 0.75964027,16.810579 C 0.65641927,16.635009 0.66632727,16.262174 0.78379547,15.981332 L 0.78379547,15.981332 C 0.90031607,15.702754 1.0096565,15.514549 1.1149484,15.690799 z " />
    <path
       style="font-size:12.000000;fill:url(#linearGradient2148);fill-opacity:1.0000000"
       id="path1090"
       d="M 59.162784,38.901127 L 54.886123,39.642597 C 55.832610,40.015208 57.805005,39.416110 58.751494,39.788719 C 57.253299,39.997428 55.661022,40.966050 54.162830,41.174759 C 55.288166,41.446392 57.260317,40.628256 58.105038,41.170952 C 56.372125,41.524114 55.002535,42.174323 52.664699,42.413864 C 54.182965,42.647077 55.810414,42.112452 57.329807,42.348615 C 55.627987,43.106104 53.601318,43.221140 50.972774,43.615091 C 52.455947,43.870269 54.512401,43.667127 55.477394,44.102488 C 52.350080,44.675256 50.952748,45.020126 48.592017,45.218661 C 51.073703,45.265914 52.136487,45.050760 54.341594,45.336921 C 34.082591,47.893651 46.436273,48.508650 30.406078,51.784205 L 55.563457,47.371266 L 59.162784,38.901127 z " />
    <path
       style="font-size:12.000000;fill:url(#linearGradient2145)"
       id="path1102"
       d="M 7.3763205,6.2735835 L 35.369991,3.1268338 C 38.085558,2.8232842 39.373371,2.6614122 40.798260,4.9762285 L 60.840605,37.525254 C 61.742162,38.990764 60.662774,39.380780 59.961224,39.498170 L 29.959934,44.623448 C 27.627691,44.967865 26.982329,44.415930 25.802881,42.454755 L 5.9888656,9.5118816 C 5.8781307,9.3261154 4.8889755,7.9348838 4.8263054,7.1724355 C 4.7839952,6.6485113 5.2063413,6.6017278 5.5915869,6.5479073 L 6.9143191,6.3588640 C 7.0946918,6.3330848 7.2566015,6.3063962 7.3763205,6.2735835 z " />
    <path
       style="font-size:12.000000;fill:url(#linearGradient2142);fill-opacity:1.0000000"
       id="path1104"
       d="M 40.081229,5.5135632 L 60.111739,38.045826 C 60.333803,38.404673 60.380337,38.569356 59.928339,38.647618 L 29.950427,43.767694 C 28.014968,44.036324 27.461040,43.462895 26.526304,41.924674 L 6.7145342,8.9876858 L 6.6310109,8.8494967 C 5.7443912,7.5228429 5.7205936,7.3038035 7.4174905,7.1268528 L 35.346890,3.9873385 C 37.573778,3.7371267 38.858924,3.5872591 40.081229,5.5135632 z " />
    <path
       style="font-size:12.000000;fill:url(#linearGradient2139);fill-opacity:1.0000000"
       id="path1106"
       d="M 7.4586599,7.9801244 L 35.321721,4.8471622 C 37.264029,4.6297260 38.307464,4.3876116 39.364198,6.0509003 L 59.003525,37.947254 L 29.938842,42.911259 C 28.320401,43.137151 28.039358,42.699696 27.248778,41.396852 L 7.4402039,8.4634913 C 7.2904289,8.2133874 7.0710357,8.0846784 7.4586599,7.9801244 z " />
    <path
       sodipodi:nodetypes="ccccsccc"
       style="font-size:12.000000;fill:url(#linearGradient2136);fill-opacity:1.0000000"
       id="path1496"
       d="M 7.4586589,7.9801255 L 35.321724,4.8471610 C 37.264029,4.6297260 38.307464,4.3876116 39.364194,6.0508968 L 42.468860,10.438553 C 45.428291,14.620981 37.278183,16.034146 32.622007,14.444869 C 16.985890,9.1078579 24.163883,36.625406 23.373296,35.322559 L 7.4402039,8.4634913 C 7.2904289,8.2133874 7.0710357,8.0846784 7.4586589,7.9801255 z " />
    <path
       style="font-size:12.000000;fill:url(#linearGradient2133);fill-opacity:1.0000000"
       id="path1098"
       d="M 27.231345,43.876897 L 27.231345,43.876897 C 27.471576,43.955780 27.567340,44.425136 27.315920,44.862914 C 25.809063,47.508185 24.730063,50.087871 24.078912,52.601972 C 23.957794,53.077387 23.530714,53.377637 23.290479,53.298751 L 23.290479,53.298751 C 23.050242,53.219870 22.817735,52.733949 22.965601,52.262168 C 23.794019,49.600199 25.002341,46.908420 26.345484,44.418048 C 26.585423,43.973915 26.991115,43.798018 27.231345,43.876897 z " />
    <path
       style="fill-opacity:1.0000000;fill:#001c9a;font-size:12.000000"
       id="path1100"
       d="M 27.318091,44.170704 L 27.511482,44.136319 C 27.603091,44.120034 27.743038,44.140230 27.714287,44.349738 C 27.691286,44.517351 27.311848,45.075382 27.206052,45.277628 C 25.825549,47.874229 24.703917,50.555833 23.841157,53.322440 C 23.687786,53.813024 23.359516,54.158600 23.218694,54.112356 L 23.218694,54.112356 C 23.077863,54.066115 23.183409,53.644833 23.327550,53.153796 C 24.052840,50.682071 25.080553,48.039175 26.692450,45.108980 C 26.944286,44.653306 27.153161,44.198978 27.318091,44.170704 z " />
    <path
       style="font-size:12.000000;fill:#aca2e0"
       id="path1094"
       d="M 6.5338609,6.7053294 C 6.5888954,6.6976451 6.0451396,7.1811117 5.8675268,7.5606996 C 5.6878432,7.9396065 5.3798200,8.0058977 5.3215694,8.1001132 C 3.7171362,10.736527 2.4843562,13.492397 1.9112725,16.467468 C 1.8713993,16.681054 1.6730720,16.811702 1.5715942,16.778381 L 1.0662731,16.612457 C 0.96479487,16.579135 0.98407027,16.392267 1.0373176,16.180493 C 1.7687426,13.254843 2.8108803,10.402887 4.5373472,7.7112343 C 5.0917816,6.8474594 5.6227653,6.8337728 6.5338609,6.7053294 z " />
    <path
       style="fill-opacity:1.0000000;fill:#001c9a;font-size:12.000000"
       id="path1096"
       d="M 5.5017455,8.1592758 C 5.1812510,8.1596528 1.6615942,15.504515 1.9992588,17.282013 C 2.0128533,17.350878 1.5227725,16.788110 1.4565004,16.766349 C 1.3840159,16.742549 1.5585411,16.150722 1.6155775,15.929889 C 2.2852092,13.326549 3.3395800,10.805749 4.7796396,8.3652260 C 4.9211231,8.1283308 6.0251515,8.1637038 5.5017455,8.1592758 z " />
    <path
       style="font-size:12.000000;fill:#aca2e0"
       id="path1110"
       d="M 6.6666512,11.102589 L 6.6666512,11.102589 C 6.9068858,11.181471 7.0308854,11.577666 6.8184838,11.927800 C 5.5283891,14.049207 4.6540094,16.139679 4.1953449,18.199218 C 4.1081494,18.587892 3.7134559,18.816344 3.4732217,18.737461 L 3.4732217,18.737461 C 3.2329881,18.658576 3.2095178,18.297968 3.3193175,17.911570 C 3.9431080,15.738815 4.8029911,13.643578 5.9424578,11.640149 C 6.1454516,11.284351 6.4264164,11.023704 6.6666512,11.102589 z " />
    <path
       style="fill-opacity:1.0000000;fill:#001c9a;font-size:12.000000"
       id="path1112"
       d="M 6.7786436,11.476812 L 6.7786436,11.476812 C 6.9194719,11.523051 6.9588020,11.868262 6.7673528,12.202091 C 5.6862025,14.082993 4.8629779,16.051166 4.2995742,18.102074 C 4.1983003,18.468091 3.9145595,18.707213 3.7737325,18.660972 L 3.7737325,18.660972 C 3.6329052,18.614731 3.6939282,18.299898 3.7859707,17.933427 C 4.2450580,16.098128 4.9809939,14.152812 6.2537486,12.033444 C 6.4514111,11.701656 6.6378169,11.430568 6.7786436,11.476812 z " />
    <path
       style="font-size:12.000000;fill:#aca2e0"
       id="path1114"
       d="M 8.4941898,14.247805 L 8.4941898,14.247805 C 8.7344236,14.326684 8.8584246,14.722880 8.6460226,15.073013 C 7.3559290,17.194419 6.4815482,19.284893 6.0228831,21.344434 C 5.9356883,21.733102 5.5409946,21.961560 5.3007605,21.882674 L 5.3007605,21.882674 C 5.0584555,21.803110 5.0370564,21.443182 5.1468559,21.056785 C 5.7706474,18.884025 6.6284590,16.788112 7.7699969,14.785364 C 7.9729909,14.429566 8.2518848,14.168239 8.4941898,14.247805 z " />
    <path
       style="fill-opacity:1.0000000;fill:#001c9a;font-size:12.000000"
       id="path1116"
       d="M 8.6061826,14.622026 L 8.6061826,14.622026 C 8.7470096,14.668266 8.7842706,15.012793 8.5948916,15.347305 C 7.5137426,17.228207 6.6905174,19.196377 6.1271130,21.247287 C 6.0237688,21.612621 5.7420982,21.852428 5.6012708,21.806188 L 5.6012708,21.806188 C 5.4583732,21.759264 5.5214667,21.445110 5.6135092,21.078638 C 6.0725964,19.243343 6.8085319,17.298029 8.0812881,15.178657 C 8.2789494,14.846870 8.4632851,14.575099 8.6061826,14.622026 z " />
    <path
       style="font-size:12.000000;fill:#aca2e0"
       id="path1118"
       d="M 10.466613,17.559081 L 10.466613,17.559081 C 10.708918,17.638644 10.832918,18.034841 10.620515,18.384973 C 9.3304216,20.506377 8.4560429,22.596850 7.9973757,24.656394 C 7.9101817,25.045060 7.5154879,25.273519 7.2731828,25.193952 L 7.2731828,25.193952 C 7.0329485,25.115067 7.0115491,24.755141 7.1213486,24.368744 C 7.7451395,22.195984 8.6029516,20.100074 9.7444896,18.097322 C 9.9474846,17.741525 10.226378,17.480201 10.466613,17.559081 z " />
    <path
       style="fill-opacity:1.0000000;fill:#001c9a;font-size:12.000000"
       id="path1120"
       d="M 10.581624,17.931719 L 10.581624,17.931719 C 10.722451,17.977961 10.759713,18.322490 10.567313,18.658584 C 9.4882346,20.540163 8.6650106,22.508339 8.0995355,24.558564 C 7.9982609,24.924583 7.7165911,25.164386 7.5757642,25.118145 L 7.5757642,25.118145 C 7.4349372,25.071903 7.4959595,24.757071 7.5880022,24.390599 C 8.0450179,22.554624 8.7830246,20.609989 10.055780,18.490618 C 10.253444,18.158828 10.440796,17.885477 10.581624,17.931719 z " />
    <path
       style="font-size:12.000000;fill:#aca2e0"
       id="path1122"
       d="M 12.460260,21.110552 L 12.460260,21.110552 C 12.700493,21.189438 12.824494,21.585631 12.612092,21.935762 C 11.321999,24.057169 10.447619,26.147643 9.9889536,28.207185 C 9.9017596,28.595857 9.5070626,28.824307 9.2668306,28.745425 L 9.2668306,28.745425 C 9.0245246,28.665862 9.0031276,28.305931 9.1129256,27.919531 C 9.7367156,25.746778 10.594528,23.650863 11.736064,21.648114 C 11.939061,21.292313 12.217956,21.030991 12.460260,21.110552 z " />
    <path
       style="fill-opacity:1.0000000;fill:#001c9a;font-size:12.000000"
       id="path1124"
       d="M 12.573201,21.482507 L 12.573201,21.482507 C 12.714027,21.528748 12.751289,21.873280 12.558890,22.209373 C 11.479809,24.090957 10.656587,26.059128 10.091113,28.109356 C 9.9898386,28.475370 9.7081676,28.715177 9.5673426,28.668935 L 9.5673426,28.668935 C 9.4265126,28.622695 9.4875356,28.307862 9.5795786,27.941390 C 10.038667,26.106091 10.774601,24.160777 12.047360,22.041408 C 12.245020,21.709620 12.432370,21.436270 12.573201,21.482507 z " />
  </g>
</svg>
