<?xml version="1.0" encoding="UTF-8" standalone="no"?>
<!-- Created with Inkscape (http://www.inkscape.org/) -->
<svg
   xmlns:dc="http://purl.org/dc/elements/1.1/"
   xmlns:cc="http://web.resource.org/cc/"
   xmlns:rdf="http://www.w3.org/1999/02/22-rdf-syntax-ns#"
   xmlns:svg="http://www.w3.org/2000/svg"
   xmlns="http://www.w3.org/2000/svg"
   xmlns:xlink="http://www.w3.org/1999/xlink"
   xmlns:sodipodi="http://inkscape.sourceforge.net/DTD/sodipodi-0.dtd"
   xmlns:inkscape="http://www.inkscape.org/namespaces/inkscape"
   sodipodi:docname="gtk-select-font.svg"
   sodipodi:docbase="/home/david/.icons/eXperience/normal/stock"
   inkscape:version="0.41+cvs"
   sodipodi:version="0.32"
   id="svg3076"
   height="48.000000pt"
   width="48.000000pt">
  <defs
     id="defs3">
    <linearGradient
       spreadMethod="pad"
       gradientUnits="objectBoundingBox"
       id="linearGradient741"
       y2="0"
       x2="1"
       y1="0"
       x1="0">
      <stop
         id="stop743"
         offset="0"
         style="stop-color:#ffffff;stop-opacity:1.0000;" />
      <stop
         id="stop742"
         offset="1"
         style="stop-color:#cacac5;stop-opacity:1.0000;" />
    </linearGradient>
    <linearGradient
       id="linearGradient774">
      <stop
         id="stop776"
         style="stop-color:#000000;stop-opacity:1.0000;"
         offset="0" />
      <stop
         id="stop775"
         style="stop-color:#005dfa;stop-opacity:1.0000;"
         offset="1" />
    </linearGradient>
    <linearGradient
       id="linearGradient770">
      <stop
         id="stop772"
         style="stop-color:#002aff;stop-opacity:1.0000;"
         offset="0" />
      <stop
         id="stop771"
         style="stop-color:#ffffff;stop-opacity:1.0000;"
         offset="1" />
    </linearGradient>
    <linearGradient
       spreadMethod="pad"
       gradientUnits="objectBoundingBox"
       id="linearGradient1669"
       y2="0"
       x2="1"
       y1="0"
       x1="0">
      <stop
         id="stop1670"
         offset="0.000000"
         style="stop-color:#ffffff;stop-opacity:1;" />
      <stop
         id="stop1671"
         offset="1.000000"
         style="stop-color:#ffffff;stop-opacity:0;" />
    </linearGradient>
    <linearGradient
       inkscape:collect="always"
       xlink:href="#linearGradient1669"
       id="linearGradient2270"
       gradientUnits="userSpaceOnUse"
       x1="5142.8613"
       y1="-263.75900"
       x2="10483.524"
       y2="13160.525"
       gradientTransform="scale(2.000000e-3,2.000000e-3)" />
    <linearGradient
       inkscape:collect="always"
       xlink:href="#linearGradient770"
       id="linearGradient2273"
       gradientUnits="userSpaceOnUse"
       gradientTransform="matrix(1.214510e-3,0.000000,0.000000,1.838578e-3,7.585330,7.585328)"
       x1="26687.010"
       y1="21813.789"
       x2="-12694.757"
       y2="-9528.5713" />
    <linearGradient
       inkscape:collect="always"
       xlink:href="#linearGradient774"
       id="linearGradient2276"
       gradientUnits="userSpaceOnUse"
       gradientTransform="matrix(1.240234e-3,0.000000,0.000000,1.800442e-3,7.585330,7.585328)"
       x1="58636.043"
       y1="28013.492"
       x2="6461.4595"
       y2="-18788.256" />
    <radialGradient
       inkscape:collect="always"
       xlink:href="#linearGradient741"
       id="radialGradient2279"
       gradientUnits="userSpaceOnUse"
       gradientTransform="matrix(2.562928e-3,-2.205930e-11,2.109026e-11,2.450342e-3,-1.506957,-1.205565)"
       spreadMethod="pad"
       cx="2677.0000"
       cy="2676.9990"
       fx="2677.0000"
       fy="2676.9990"
       r="59631.4258" />
  </defs>
  <sodipodi:namedview
     inkscape:window-y="19"
     inkscape:window-x="1"
     inkscape:window-height="511"
     inkscape:window-width="721"
     gridtolerance="0.32000000pt"
     inkscape:current-layer="layer1"
     inkscape:document-units="pt"
     inkscape:cy="-160.00000"
     inkscape:cx="-185.00000"
     inkscape:zoom="0.35000000"
     inkscape:pageshadow="2"
     inkscape:pageopacity="0.0"
     borderopacity="1.0"
     bordercolor="#666666"
     pagecolor="#ffffff"
     id="base" />
  <metadata
     id="metadata4">
    <rdf:RDF
       id="RDF5">
      <cc:Work
         id="Work6"
         rdf:about="">
        <dc:format
           id="format7">image/svg+xml</dc:format>
        <dc:type
           rdf:resource="http://purl.org/dc/dcmitype/StillImage"
           id="type9" />
      </cc:Work>
    </rdf:RDF>
  </metadata>
  <g
     id="layer1"
     inkscape:groupmode="layer"
     inkscape:label="Layer 1">
    <path
       id="path631"
       style="font-size:12.000000;fill:#8b8d8d;fill-opacity:1.0000000"
       d="M 7.5880000,3.7000000 L 52.412000,3.7000000 C 54.552000,3.7000000 56.300000,5.4480000 56.300000,7.5880000 L 56.300000,52.412000 C 56.300000,54.552000 54.552000,56.300000 52.412000,56.300000 L 7.5880000,56.300000 C 5.4480000,56.300000 3.7000000,54.552000 3.7000000,52.412000 L 3.7000000,7.5880000 C 3.7000000,5.4480000 5.4480000,3.7000000 7.5880000,3.7000000 z " />
    <path
       id="path632"
       style="font-size:12.000000;fill:url(#radialGradient2279)"
       d="M 7.9500000,5.3539980 L 52.050000,5.3539980 C 53.478000,5.3539980 54.646000,6.5219980 54.646000,7.9499980 L 54.646000,52.050000 C 54.646000,53.478000 53.478000,54.646000 52.050000,54.646000 L 7.9500000,54.646000 C 6.5220000,54.646000 5.3540000,53.478000 5.3540000,52.050000 L 5.3540000,7.9499980 C 5.3540000,6.5219980 6.5220000,5.3539980 7.9500000,5.3539980 z " />
    <path
       style="font-size:12.000000;fill:url(#linearGradient2276);fill-opacity:1.0000000"
       id="path1391"
       d="M 22.234070,40.466170 L 22.202690,41.010098 L 22.157860,41.468852 L 22.107054,41.833464 L 22.053258,42.094970 L 22.032338,42.166696 L 22.024866,42.174168 L 21.968084,42.208538 L 21.854516,42.259344 L 21.673704,42.314634 L 21.424154,42.363946 L 21.038620,42.405786 L 19.245447,42.628438 L 18.732898,43.315822 L 18.601398,43.547440 L 18.499785,43.789520 L 18.429552,44.027114 L 18.387711,44.263216 L 18.368285,44.499318 L 18.371274,44.727948 L 18.381734,44.835538 L 18.386217,44.946116 L 18.416103,45.183712 L 18.474382,45.425790 L 18.558063,45.658904 L 18.677608,45.905464 L 18.830028,46.129612 L 19.009345,46.340310 L 19.632473,46.885734 L 20.989308,46.830444 L 21.693130,46.805040 L 22.389478,46.784120 L 23.079852,46.766188 L 23.761258,46.751246 L 24.438180,46.740786 L 25.104644,46.734808 L 25.766624,46.731820 L 26.353888,46.734808 L 26.984488,46.740786 L 27.655434,46.751246 L 28.368222,46.766188 L 29.118366,46.784120 L 29.911846,46.805040 L 30.744178,46.830444 L 32.219064,46.879756 L 32.821272,46.392610 L 33.012542,46.193868 L 33.175424,45.974204 L 33.309912,45.741090 L 33.408536,45.507978 L 33.481756,45.277854 L 33.529574,45.052212 L 33.568428,44.757834 L 33.559462,44.490352 L 33.541530,44.297586 L 33.505666,44.098842 L 33.450376,43.877684 L 33.359224,43.641582 L 33.242668,43.412952 L 33.090248,43.190300 L 32.555284,42.595564 L 30.419912,42.401304 L 30.046334,42.368428 L 29.799772,42.326588 L 29.627926,42.278770 L 29.523324,42.232446 L 29.478496,42.205548 L 29.441138,42.094970 L 29.385848,41.846914 L 29.329064,41.486784 L 29.281246,41.026536 L 29.243888,40.479618 L 29.219980,39.846030 L 29.208024,39.130254 L 29.212508,38.317348 L 29.212508,32.358032 L 32.030780,32.358032 L 32.615056,32.362516 L 33.142548,32.372976 L 33.611762,32.389412 L 34.024192,32.411828 L 34.378344,32.440220 L 34.671230,32.471600 L 34.890894,32.504474 L 34.910320,32.508958 L 34.931240,32.519418 L 35.008944,32.565742 L 35.059750,32.607582 L 35.094120,32.646434 L 35.125500,32.691264 L 35.159870,32.757014 L 35.192744,32.851156 L 35.245046,33.079786 L 35.863690,35.546894 L 36.603374,35.965302 L 36.787176,36.048982 L 36.970976,36.120710 L 37.154776,36.174506 L 37.343060,36.220828 L 37.543296,36.250716 L 37.725604,36.267152 L 37.903426,36.271636 L 38.085732,36.267152 L 38.281488,36.247726 L 38.507128,36.210368 L 38.743230,36.140136 L 38.991286,36.038522 L 39.251296,35.883114 L 39.505328,35.673910 L 40.047764,35.016414 L 39.974542,33.925566 L 39.947644,33.454858 L 39.922242,32.954262 L 39.901322,32.425276 L 39.880400,31.869392 L 39.863964,31.288104 L 39.850514,30.675438 L 39.841548,30.068746 L 39.860974,29.436652 L 39.880400,28.797086 L 39.901322,28.181430 L 39.944656,27.039776 L 39.965576,26.507800 L 39.986498,26.004218 L 40.035810,24.879000 L 39.500846,24.270816 L 39.297620,24.087016 L 39.066000,23.928618 L 38.814956,23.800108 L 38.571384,23.716426 L 38.330800,23.655160 L 38.093204,23.625274 L 37.866068,23.614812 L 37.640428,23.625274 L 37.413292,23.653664 L 37.187650,23.705966 L 36.973964,23.774704 L 36.758784,23.867352 L 36.557052,23.977930 L 36.368768,24.104948 L 35.808400,24.554736 L 35.283898,26.926208 L 35.245046,27.099548 L 35.212170,27.228060 L 35.182284,27.329672 L 35.168836,27.367030 L 34.956642,27.402894 L 34.644332,27.440252 L 34.257304,27.473126 L 33.800046,27.500024 L 33.275542,27.519450 L 32.686782,27.532898 L 32.032274,27.535888 L 29.212508,27.535888 L 29.212508,18.271153 L 29.208024,18.076893 L 31.583980,18.076893 L 32.244466,18.081375 L 32.858628,18.093330 L 33.429456,18.114250 L 33.952466,18.141148 L 34.429150,18.177011 L 34.859512,18.217358 L 35.237574,18.265176 L 35.452754,18.299545 L 35.650004,18.368283 L 35.896566,18.475874 L 36.105768,18.587947 L 36.274626,18.697032 L 36.407620,18.804622 L 36.513716,18.909224 L 36.598892,19.015320 L 36.675102,19.134865 L 36.769244,19.321654 L 36.872350,19.551778 L 36.966492,19.802823 L 37.054656,20.067316 L 37.130866,20.349742 L 37.202594,20.651592 L 37.263860,20.968386 L 37.434212,22.087626 L 38.251600,22.570288 L 38.493680,22.674890 L 38.744724,22.754090 L 38.994274,22.798918 L 39.231870,22.819838 L 39.472454,22.815356 L 39.692118,22.791446 L 39.724992,22.785470 L 39.762350,22.783976 L 40.014890,22.749606 L 40.280876,22.679374 L 40.552842,22.567300 L 40.817334,22.407408 L 41.069874,22.196710 L 41.276088,21.948654 L 41.631734,21.365874 L 41.586906,20.529058 L 41.570468,20.188356 L 41.554030,19.844664 L 41.540582,19.494995 L 41.527132,19.140843 L 41.513684,18.783702 L 41.503224,18.422079 L 41.483798,17.691360 L 41.476326,17.304333 L 41.470348,16.923284 L 41.465866,16.539246 L 41.461384,16.149230 L 41.458394,15.751743 L 41.456900,15.354256 L 41.456900,13.114282 L 39.487396,13.369810 L 39.326012,13.386247 L 39.127268,13.402685 L 38.898638,13.417628 L 38.638628,13.431077 L 38.347236,13.443031 L 38.027454,13.454986 L 37.680774,13.462457 L 37.302712,13.471423 L 36.900742,13.475906 L 36.467392,13.480389 L 36.008638,13.483377 L 35.522988,13.483377 L 35.010438,13.481883 L 34.468002,13.478895 L 33.894188,13.474412 L 25.422932,13.474412 L 25.115104,13.471423 L 24.807276,13.468434 L 24.496458,13.462457 L 24.188630,13.456480 L 23.882296,13.449008 L 23.577458,13.440042 L 23.242732,13.428088 L 22.915476,13.428088 L 22.618108,13.422111 L 22.313270,13.416133 L 22.005440,13.405673 L 21.690140,13.395213 L 21.373346,13.378776 L 21.053564,13.362338 L 20.281004,13.310037 L 19.686269,13.616371 L 19.388900,13.852473 L 19.148316,14.133403 L 18.980953,14.424794 L 18.870374,14.710208 L 18.804624,14.979184 L 18.771750,15.233217 L 18.767267,15.376671 L 18.756807,15.502193 L 18.755312,15.718868 L 18.771750,15.954970 L 18.813590,16.194059 L 18.882329,16.445104 L 18.995896,16.715574 L 19.166248,16.995011 L 19.684774,17.585264 L 21.032644,17.800445 L 21.468982,17.836308 L 21.720028,17.878149 L 21.900838,17.927461 L 22.008430,17.970796 L 22.044292,17.991717 L 22.051764,18.020109 L 22.105560,18.292073 L 22.157860,18.671629 L 22.201196,19.146820 L 22.234070,19.711670 L 22.256486,20.361696 L 22.263956,21.096898 L 22.259474,21.926240 L 22.259474,38.315854 L 22.263956,39.124278 L 22.256486,39.835570 L 22.234070,40.466170 z "
       class="fil0" />
    <path
       style="font-size:12.000000;fill:url(#linearGradient2273);fill-opacity:1.0000000"
       id="path1393"
       d="M 27.601640,18.292073 C 27.571754,17.473191 27.631526,16.942710 27.776474,16.684194 C 27.912456,16.540740 28.292012,16.464530 28.906174,16.464530 L 31.588464,16.464530 C 33.453366,16.464530 34.878938,16.555683 35.848748,16.730517 C 36.933618,17.071221 37.676290,17.609173 38.078260,18.336903 C 38.495174,19.103485 38.768632,20.019498 38.912086,21.089426 C 39.101864,21.210464 39.306586,21.232880 39.541192,21.180578 C 39.768328,21.180578 39.920748,21.104368 39.996958,20.953444 C 39.898332,19.140843 39.844538,17.139959 39.844538,14.949298 C 38.995768,15.070337 37.009828,15.115166 33.886716,15.085280 L 25.736738,15.085280 C 24.887968,15.085280 24.045176,15.070337 23.211350,15.038956 C 22.393962,15.038956 21.528756,15.009070 20.618720,14.949298 C 20.460322,15.009070 20.376640,15.183905 20.376640,15.463341 C 20.346754,15.759215 20.391584,15.965430 20.512624,16.084975 L 21.225410,16.200037 C 22.461206,16.252338 23.227788,16.631893 23.531134,17.329737 C 23.788156,18.055972 23.901722,19.587642 23.871836,21.930724 L 23.871836,38.312866 C 23.901722,40.587208 23.788156,42.072554 23.531134,42.785342 C 23.227788,43.513072 22.461206,43.915042 21.225410,44.006194 L 20.127090,44.142176 C 20.006052,44.287126 19.959728,44.484374 19.991108,44.726452 C 19.991108,44.961060 20.065824,45.135894 20.209278,45.249462 C 22.135446,45.165780 23.985404,45.120952 25.766624,45.120952 C 27.313238,45.120952 29.284234,45.165780 31.672146,45.249462 C 31.832036,45.135894 31.930662,44.946116 31.953076,44.681624 C 31.953076,44.438050 31.899280,44.255744 31.778242,44.142176 L 30.277952,44.006194 C 29.049628,43.944928 28.283046,43.559396 27.988666,42.831666 C 27.700264,42.118878 27.571754,40.609624 27.601640,38.312866 L 27.601640,31.968016 C 27.571754,31.391212 27.653940,31.028094 27.858660,30.883146 C 28.018552,30.793488 28.413050,30.747164 29.057100,30.747164 L 32.036758,30.747164 C 33.704410,30.747164 34.834110,30.823374 35.416892,30.966828 C 36.205888,31.277644 36.667630,31.861920 36.812578,32.703218 L 37.259378,34.484438 C 37.464098,34.605478 37.676290,34.659272 37.903426,34.659272 C 38.147000,34.659272 38.312868,34.605478 38.396550,34.484438 C 38.312868,33.294966 38.253096,31.823068 38.229186,30.056792 C 38.282982,28.229248 38.344248,26.699072 38.396550,25.455806 C 38.282982,25.304880 38.108146,25.228670 37.866068,25.228670 C 37.629968,25.228670 37.434212,25.304880 37.259378,25.455806 L 36.857408,27.274382 C 36.743840,27.828772 36.600386,28.206834 36.425552,28.411554 C 36.243246,28.638690 36.023582,28.791110 35.766560,28.882262 C 35.152398,29.057098 33.909130,29.148250 32.036758,29.148250 L 29.057100,29.148250 C 28.413050,29.178136 28.018552,29.116870 27.858660,28.973416 C 27.653940,28.852376 27.571754,28.502708 27.601640,27.927398 L 27.601640,18.292073 z "
       class="fil1" />
    <path
       id="path1668"
       style="font-size:12.000000;fill:url(#linearGradient2270);fill-opacity:1.0000000"
       d="M 7.9500000,5.3540020 L 52.050000,5.3540020 C 53.478000,5.3540020 54.646000,6.5220020 54.646000,7.9500000 C 51.217420,18.616670 43.983000,17.528234 22.426200,21.693600 C 13.684172,23.175920 17.163528,39.954200 5.3540000,47.288100 L 5.3540000,7.9500000 C 5.3540000,6.5220020 6.5220000,5.3540020 7.9500000,5.3540020 z " />
  </g>
</svg>
