<?xml version="1.0" encoding="UTF-8" standalone="no"?>
<!-- Created with Sodipodi ("http://www.sodipodi.com/") -->
<svg
   xmlns:dc="http://purl.org/dc/elements/1.1/"
   xmlns:cc="http://web.resource.org/cc/"
   xmlns:rdf="http://www.w3.org/1999/02/22-rdf-syntax-ns#"
   xmlns:svg="http://www.w3.org/2000/svg"
   xmlns="http://www.w3.org/2000/svg"
   xmlns:xlink="http://www.w3.org/1999/xlink"
   xmlns:sodipodi="http://inkscape.sourceforge.net/DTD/sodipodi-0.dtd"
   xmlns:inkscape="http://www.inkscape.org/namespaces/inkscape"
   inkscape:version="0.41+cvs"
   sodipodi:docbase="/home/david/.icons/eXperience/normal/devices"
   sodipodi:docname="gnome-dev-cdrom.svg"
   sodipodi:version="0.32"
   id="svg548"
   height="60px"
   width="60px"
   y="0.00000000"
   x="0.00000000"
   version="1">
  <metadata
     id="metadata78">
    <rdf:RDF
       id="RDF80">
      <cc:Work
         id="Work82"
         rdf:about="">
        <dc:format
           id="format84">image/svg+xml</dc:format>
        <dc:type
           rdf:resource="http://purl.org/dc/dcmitype/StillImage"
           id="type86" />
      </cc:Work>
    </rdf:RDF>
  </metadata>
  <sodipodi:namedview
     inkscape:current-layer="svg548"
     inkscape:window-y="21"
     inkscape:window-x="3"
     inkscape:window-height="512"
     inkscape:window-width="723"
     inkscape:cy="39.091794"
     inkscape:cx="20.285816"
     inkscape:zoom="3.0916666"
     id="base" />
  <defs
     id="defs550">
    <linearGradient
       spreadMethod="pad"
       gradientUnits="objectBoundingBox"
       id="linearGradient645"
       y2="0.00000000"
       x2="1.00000000"
       y1="0.00000000"
       x1="0.00000000">
      <stop
         id="stop646"
         offset="0.00000000"
         style="stop-color:#4a857a;stop-opacity:1;" />
      <stop
         id="stop647"
         offset="1.00000000"
         style="stop-color:#ffffff;stop-opacity:1;" />
    </linearGradient>
    <linearGradient
       spreadMethod="pad"
       gradientUnits="objectBoundingBox"
       id="linearGradient604"
       y2="0.00000000"
       x2="1.00000000"
       y1="0.00000000"
       x1="0.00000000">
      <stop
         id="stop605"
         offset="0.00000000"
         style="stop-color:#7a85ff;stop-opacity:1;" />
      <stop
         id="stop606"
         offset="1.00000000"
         style="stop-color:#ffffff;stop-opacity:1;" />
    </linearGradient>
    <linearGradient
       gradientTransform="matrix(0.586849,0.000000,0.000000,0.586849,-1.437972,-1.437605)"
       y2="47.5711784"
       x2="45.1833153"
       y1="71.9071045"
       x1="84.9686203"
       spreadMethod="pad"
       gradientUnits="userSpaceOnUse"
       id="linearGradient2415"
       xlink:href="#linearGradient645"
       inkscape:collect="always" />
    <linearGradient
       gradientTransform="matrix(0.801799,0.000000,0.000000,0.801799,-0.895024,-5.344150)"
       y2="29.9997158"
       x2="34.4150009"
       y1="14.5672569"
       x1="84.8860245"
       spreadMethod="pad"
       gradientUnits="userSpaceOnUse"
       id="linearGradient2419"
       xlink:href="#linearGradient604"
       inkscape:collect="always" />
    <linearGradient
       gradientTransform="matrix(0.801799,0.000000,0.000000,0.801799,-0.895024,-5.344152)"
       y2="51.9332390"
       x2="51.2827301"
       y1="55.0642128"
       x1="-5.37402678"
       spreadMethod="pad"
       gradientUnits="userSpaceOnUse"
       id="linearGradient2422"
       xlink:href="#linearGradient604"
       inkscape:collect="always" />
    <linearGradient
       y2="60.3486557"
       x2="54.9022446"
       y1="95.0897141"
       x1="2.83522463"
       spreadMethod="reflect"
       gradientTransform="matrix(0.587822,0.000000,0.000000,0.591299,0.230555,-3.043518)"
       gradientUnits="userSpaceOnUse"
       id="linearGradient2425"
       xlink:href="#linearGradient604"
       inkscape:collect="always" />
    <linearGradient
       gradientTransform="matrix(0.589558,0.000000,0.000000,0.589558,0.230555,-3.043518)"
       y2="51.8688812"
       x2="67.0174026"
       y1="88.5792084"
       x1="76.1403580"
       spreadMethod="reflect"
       gradientUnits="userSpaceOnUse"
       id="linearGradient2428"
       xlink:href="#linearGradient604"
       inkscape:collect="always" />
  </defs>
  <path
     style="font-size:12.000000;opacity:0.29999998;fill:#000000;fill-opacity:1.0000000;fill-rule:evenodd;stroke-width:1.0000000pt"
     d="M 31.937500,4.6250000 C 16.860599,4.6250000 4.6250000,16.860656 4.6250000,31.937500 C 4.6250000,47.014342 16.860599,59.249998 31.937500,59.250000 C 47.014344,59.250000 59.250001,47.014342 59.250000,31.937500 C 59.250000,16.860656 47.014344,4.6250000 31.937500,4.6250000 z M 31.937500,26.718750 C 34.814013,26.718750 37.156250,29.061047 37.156250,31.937500 C 37.156251,34.814016 34.814013,37.125000 31.937500,37.125000 C 29.061045,37.125001 26.718750,34.814015 26.718750,31.937500 C 26.718750,31.218375 26.861192,30.529621 27.125000,29.906250 C 27.916421,28.036159 29.780159,26.718750 31.937500,26.718750 z "
     id="path2112" />
  <path
     id="path648"
     style="font-size:12.000000;fill:#4f4b92;fill-rule:evenodd;stroke-width:1.0000000pt"
     d="M 57.246480,29.923309 C 57.246480,45.000151 45.010251,57.236502 29.933407,57.236502 C 14.856506,57.236502 2.6202204,45.000151 2.6202204,29.923309 C 2.6202204,14.846465 14.856506,2.6101749 29.933407,2.6101749 C 45.010251,2.6101749 57.246480,14.846465 57.246480,29.923309 z M 35.288898,29.923309 C 35.288898,32.879589 32.889628,35.278859 29.933348,35.278859 C 26.977128,35.278859 24.577856,32.879589 24.577856,29.923309 C 24.577856,26.967088 26.977128,24.567818 29.933348,24.567818 C 32.889628,24.567818 35.288898,26.967088 35.288898,29.923309 z " />
  <path
     id="path570"
     style="font-size:12.000000;fill:url(#linearGradient2428);fill-rule:evenodd;stroke-width:1.0000000pt"
     d="M 56.509479,29.923274 C 56.509479,44.593308 44.603411,56.499494 29.933378,56.499494 C 15.263285,56.499494 3.3571651,44.593308 3.3571651,29.923274 C 3.3571651,15.253241 15.263285,3.3471157 29.933378,3.3471157 C 44.603411,3.3471157 56.509479,15.253241 56.509479,29.923274 z M 35.144364,29.923274 C 35.144364,32.799789 32.809832,35.134320 29.933319,35.134320 C 27.056864,35.134320 24.722333,32.799789 24.722333,29.923274 C 24.722333,27.046821 27.056864,24.712288 29.933319,24.712288 C 32.809832,24.712288 35.144364,27.046821 35.144364,29.923274 z " />
  <path
     sodipodi:nodetypes="cccccccccc"
     id="path598"
     style="font-size:12.000000;fill:url(#linearGradient2425);fill-rule:evenodd;stroke-width:1.0000000pt"
     d="M 3.7710172,25.251441 C 5.8492509,13.613267 14.809914,5.0769381 26.535164,3.5652522 L 29.214530,22.275586 L 22.511608,28.522955 L 3.7710172,25.251441 z M 56.238754,33.706765 C 54.484523,45.903661 45.061794,55.008384 32.811896,56.343261 L 31.053656,37.905126 L 37.344714,30.904772 L 56.238754,33.706765 z " />
  <path
     sodipodi:nodetypes="ccccc"
     id="path594"
     style="font-size:12.000000;fill:url(#linearGradient2422);fill-rule:evenodd;stroke-width:1.0000000pt"
     d="M 46.960532,50.328385 C 37.166392,58.501207 22.946721,58.562464 13.082504,50.474314 L 25.148782,35.997745 L 34.694525,35.804672 L 46.960532,50.328385 z " />
  <path
     sodipodi:nodetypes="ccccccc"
     id="path658"
     d="M 16.534011,6.9722094 C 25.689997,1.6267894 37.147149,2.2347057 45.686072,8.5190406 L 33.871558,24.572186 L 29.373223,22.221471 L 26.583522,24.185558 L 23.233686,18.447802 L 16.534011,6.9722094 z "
     style="font-size:12.000000;fill:url(#linearGradient2419);fill-rule:evenodd;stroke-width:1.0000000pt" />
  <path
     id="path654"
     d="M 40.085810,29.923305 C 40.085810,35.527478 35.537554,40.075790 29.933383,40.075790 C 24.329210,40.075790 19.780839,35.527478 19.780839,29.923305 C 19.780839,24.319133 24.329210,19.770821 29.933383,19.770821 C 35.537554,19.770821 40.085810,24.319133 40.085810,29.923305 z M 35.697061,29.923305 C 35.697061,33.104907 33.114925,35.687042 29.933323,35.687042 C 26.751782,35.687042 24.169587,33.104907 24.169587,29.923305 C 24.169587,26.741763 26.751782,24.159569 29.933323,24.159569 C 33.114925,24.159569 35.697061,26.741763 35.697061,29.923305 z "
     style="font-size:12.000000;fill:#8478b9;fill-rule:evenodd;stroke-width:1.0000000pt" />
  <path
     id="path583"
     style="font-size:12.000000;fill:url(#linearGradient2415);fill-rule:evenodd;stroke-width:1.0000000pt"
     d="M 35.144366,29.923305 C 35.144366,32.799804 32.809823,35.134346 29.933323,35.134346 C 27.056884,35.134346 24.722341,32.799804 24.722341,29.923305 C 24.722341,27.046805 27.056884,24.712322 29.933323,24.712322 C 32.809823,24.712322 35.144366,27.046805 35.144366,29.923305 z M 39.834228,29.923364 C 39.834228,35.388629 35.398646,39.824209 29.933323,39.824209 C 24.468000,39.824209 20.032420,35.388629 20.032420,29.923364 C 20.032420,24.458041 24.468000,20.022344 29.933323,20.022344 C 35.398646,20.022344 39.834228,24.458041 39.834228,29.923364 z " />
  <path
     id="path657"
     d="M 35.697061,29.923305 C 35.697061,33.104907 33.114925,35.687042 29.933323,35.687042 C 26.751782,35.687042 24.169587,33.104907 24.169587,29.923305 C 24.169587,26.741763 26.751782,24.159569 29.933323,24.159569 C 33.114925,24.159569 35.697061,26.741763 35.697061,29.923305 z M 35.144366,29.923305 C 35.144366,32.799804 32.809823,35.134289 29.933323,35.134289 C 27.056884,35.134289 24.722341,32.799804 24.722341,29.923305 C 24.722341,27.046805 27.056884,24.712264 29.933323,24.712264 C 32.809823,24.712264 35.144366,27.046805 35.144366,29.923305 z "
     style="font-size:12.000000;fill:#55529d;fill-rule:evenodd;stroke-width:1.0000000pt" />
</svg>
