<?xml version="1.0" encoding="UTF-8" standalone="no"?>
<!-- Created with Inkscape (http://www.inkscape.org/) -->
<svg
   xmlns:dc="http://purl.org/dc/elements/1.1/"
   xmlns:cc="http://web.resource.org/cc/"
   xmlns:rdf="http://www.w3.org/1999/02/22-rdf-syntax-ns#"
   xmlns:svg="http://www.w3.org/2000/svg"
   xmlns="http://www.w3.org/2000/svg"
   xmlns:xlink="http://www.w3.org/1999/xlink"
   xmlns:sodipodi="http://inkscape.sourceforge.net/DTD/sodipodi-0.dtd"
   xmlns:inkscape="http://www.inkscape.org/namespaces/inkscape"
   sodipodi:docname="stock_mail-forward.svg"
   sodipodi:docbase="/home/david/.icons/eXperience/normal/stock"
   inkscape:version="0.41+cvs"
   sodipodi:version="0.32"
   id="svg3076"
   height="48.000000pt"
   width="48.000000pt">
  <defs
     id="defs3">
    <linearGradient
       id="linearGradient990">
      <text
         id="text567" />
      <text
         id="text568" />
      <text
         id="text569" />
      <stop
         id="stop992"
         offset="0"
         style="stop-color:#ffffff;stop-opacity:1.0000;" />
      <text
         id="text571" />
      <text
         id="text572" />
      <text
         id="text573" />
      <stop
         id="stop991"
         offset="1"
         style="stop-color:#72afff;stop-opacity:1.0000;" />
      <text
         id="text575" />
      <text
         id="text576" />
      <text
         id="text577" />
    </linearGradient>
    <linearGradient
       id="linearGradient955">
      <text
         id="text627" />
      <text
         id="text628" />
      <text
         id="text629" />
      <stop
         id="stop956"
         offset="0.0000000"
         style="stop-color:#3360a2;stop-opacity:1.0000000;" />
      <text
         id="text631" />
      <text
         id="text632" />
      <text
         id="text633" />
      <stop
         id="stop957"
         offset="1.0000000"
         style="stop-color:#6a3eff;stop-opacity:1.0000000;" />
      <text
         id="text635" />
      <text
         id="text636" />
      <text
         id="text637" />
    </linearGradient>
    <linearGradient
       id="linearGradient959">
      <text
         id="text612" />
      <text
         id="text613" />
      <text
         id="text614" />
      <stop
         id="stop960"
         offset="0"
         style="stop-color:#ffffff;stop-opacity:1.0000;" />
      <text
         id="text616" />
      <text
         id="text617" />
      <text
         id="text618" />
      <stop
         id="stop961"
         offset="1"
         style="stop-color:#ffffff;stop-opacity:0;" />
      <text
         id="text620" />
      <text
         id="text621" />
      <text
         id="text622" />
    </linearGradient>
    <linearGradient
       spreadMethod="pad"
       gradientUnits="objectBoundingBox"
       id="linearGradient604"
       y2="0.00000000"
       x2="1.00000000"
       y1="0.00000000"
       x1="0.00000000">
      <stop
         id="stop608"
         offset="0.0000000"
         style="stop-color:#8790ff;stop-opacity:1.0000000;" />
      <stop
         id="stop606"
         offset="0.60000002"
         style="stop-color:#061de7;stop-opacity:1.0000000;" />
      <stop
         id="stop605"
         offset="1.0000000"
         style="stop-color:#031192;stop-opacity:1.0000000;" />
    </linearGradient>
    <linearGradient
       inkscape:collect="always"
       xlink:href="#linearGradient955"
       id="linearGradient2404"
       gradientUnits="userSpaceOnUse"
       gradientTransform="matrix(1.082458,4.719041e-2,0.000000,0.923824,0.000000,-631.2775)"
       x1="20279.271"
       y1="21276.324"
       x2="1511.3947"
       y2="4738.2075" />
    <linearGradient
       inkscape:collect="always"
       xlink:href="#linearGradient990"
       id="linearGradient2406"
       gradientUnits="userSpaceOnUse"
       gradientTransform="matrix(1.000000,4.359561e-2,0.000000,1.000000,0.000000,-631.2775)"
       x1="1106.8480"
       y1="-2642.9209"
       x2="78368.961"
       y2="83876.102" />
    <radialGradient
       inkscape:collect="always"
       xlink:href="#linearGradient604"
       id="radialGradient2408"
       gradientUnits="userSpaceOnUse"
       gradientTransform="matrix(-1360.706,129.9323,126.9230,1329.144,94356.48,-26348.92)"
       cx="53.278271"
       cy="36.600353"
       fx="53.278271"
       fy="36.600353"
       r="26.750790" />
    <linearGradient
       inkscape:collect="always"
       xlink:href="#linearGradient604"
       id="linearGradient2410"
       gradientUnits="userSpaceOnUse"
       x1="10038.294"
       y1="15817.206"
       x2="32576.906"
       y2="36338.184" />
    <linearGradient
       inkscape:collect="always"
       xlink:href="#linearGradient604"
       id="linearGradient2412"
       gradientUnits="userSpaceOnUse"
       gradientTransform="matrix(307.6062,0.000000,0.000000,307.6062,12140.29,11481.70)"
       x1="9.8427801"
       y1="6.9610662"
       x2="53.435474"
       y2="97.719620" />
    <linearGradient
       inkscape:collect="always"
       xlink:href="#linearGradient959"
       id="linearGradient2414"
       gradientUnits="userSpaceOnUse"
       gradientTransform="matrix(5.707732e-14,369.4354,256.1249,-3.957098e-14,12164.85,11417.18)"
       x1="-2.6572680"
       y1="-0.29057381"
       x2="30.157879"
       y2="27.174269" />
  </defs>
  <sodipodi:namedview
     inkscape:window-y="19"
     inkscape:window-x="1"
     inkscape:window-height="511"
     inkscape:window-width="721"
     gridtolerance="0.32000000pt"
     inkscape:current-layer="layer1"
     inkscape:document-units="pt"
     inkscape:cy="0.84553310"
     inkscape:cx="14.495523"
     inkscape:zoom="1.4000000"
     inkscape:pageshadow="2"
     inkscape:pageopacity="0.0"
     borderopacity="1.0"
     bordercolor="#666666"
     pagecolor="#ffffff"
     id="base" />
  <metadata
     id="metadata4">
    <rdf:RDF
       id="RDF5">
      <cc:Work
         id="Work6"
         rdf:about="">
        <dc:format
           id="format7">image/svg+xml</dc:format>
        <dc:type
           rdf:resource="http://purl.org/dc/dcmitype/StillImage"
           id="type9" />
      </cc:Work>
    </rdf:RDF>
  </metadata>
  <g
     id="layer1"
     inkscape:groupmode="layer"
     inkscape:label="Layer 1">
    <g
       transform="scale(2.000000e-3,2.000000e-3)"
       id="g2737">
      <path
         d="M 2952.8403,5479.2998 L 27009.318,3932.2116 C 27783.058,3887.4323 28539.738,5087.8632 28565.908,6045.9411 L 28741.098,20880.927 C 28758.168,21526.841 28604.558,21888.805 27826.268,22008.485 L 2996.1133,25984.519 C 2077.8634,26125.417 1826.3964,25952.874 1826.3964,24969.764 L 1596.5144,7585.5130 C 1596.5144,6633.1250 2131.3074,5526.5466 2952.8403,5479.2998 z "
         style="font-size:12.000000;fill:#000000;fill-opacity:0.29803923"
         id="path2256" />
      <path
         id="path830"
         style="font-size:12.000000;fill:url(#linearGradient2404)"
         d="M 1574.6020,3963.2562 L 25631.080,2416.1680 C 26404.820,2371.3886 27161.500,3571.8196 27187.670,4529.8975 L 27362.860,19364.883 C 27379.930,20010.797 27226.320,20372.760 26448.030,20492.440 L 1617.8750,24468.475 C 699.62510,24609.373 448.15810,24436.830 448.15810,23453.720 L 218.27610,6069.4693 C 218.27610,5117.0813 753.06910,4010.5030 1574.6020,3963.2562 z " />
      <path
         id="path832"
         style="fill-opacity:1.0000000;fill:url(#linearGradient2406);font-size:12.000000"
         d="M 1997.0690,7563.2259 L 8680.4890,13489.264 L 1750.1540,21618.291 C 1314.2200,22129.627 1196.4360,22253.722 1189.9370,21215.708 L 1106.8730,7948.9073 C 1104.1800,7518.6789 1319.2780,6962.2462 1997.0690,7563.2259 z M 2086.5680,22780.668 L 9425.3590,13974.207 C 12689.450,16564.007 17519.680,16249.674 20421.220,11899.838 L 25620.870,18586.170 C 26141.350,19255.471 26058.970,19536.129 25034.880,19698.483 L 2477.9910,23274.492 C 1700.8350,23397.641 1680.3530,23254.518 2086.5680,22780.668 z M 25432.340,5294.2138 C 24208.370,6975.4581 20927.530,11138.711 21015.140,11251.770 L 25767.270,17241.562 C 26371.110,18002.667 26485.030,17862.633 26470.850,17014.295 L 26272.860,5163.5568 C 26263.010,4573.7103 25761.360,4842.2686 25432.340,5294.2138 z M 25012.120,4285.2120 L 19180.600,12097.642 C 16651.470,15485.893 12302.200,15364.634 9522.4690,12919.880 L 1992.1260,6296.9624 C 1528.4660,5889.1739 1181.9720,4880.2842 2204.9050,4813.3696 L 24621.830,3363.6001 C 25398.990,3313.2789 25253.060,3962.4290 25012.120,4285.2120 z " />
    </g>
    <g
       transform="scale(2.000000e-3,2.000000e-3)"
       id="g2759">
      <path
         class="fil2"
         d="M 29088.398,21649.702 L 21494.092,29198.534 L 21518.985,24722.734 L 15366.861,24722.734 L 15378.180,18593.248 L 21514.327,18619.450 L 21554.014,14096.635 L 29088.398,21649.702 z "
         id="path2073"
         style="opacity:0.29999998;fill:#000000;fill-opacity:1.0000000;fill-rule:evenodd;stroke:#000000;stroke-width:1500.0000;stroke-linejoin:round;stroke-miterlimit:4.0000000;stroke-dasharray:none;stroke-opacity:1.0000000"
         nodetypes="cccccccc"
         sodipodi:nodetypes="cccccccc" />
      <path
         sodipodi:nodetypes="cccccccc"
         nodetypes="cccccccc"
         style="fill:none;fill-opacity:0.29803923;fill-rule:evenodd;stroke:#000b7b;stroke-width:1500.0000;stroke-linejoin:round;stroke-miterlimit:4.0000000;stroke-dasharray:none;stroke-opacity:1.0000000"
         id="path2053"
         d="M 28106.946,20710.462 L 20512.640,28259.294 L 20537.533,23783.494 L 14385.409,23783.494 L 14396.727,17654.007 L 20532.875,17680.209 L 20572.562,13157.394 L 28106.946,20710.462 z "
         class="fil2" />
      <path
         class="fil2"
         d="M 28168.880,20572.798 L 20574.573,28121.630 L 20599.466,23645.830 L 14447.342,23645.830 L 14458.661,17516.343 L 20594.808,17542.545 L 20634.495,13019.730 L 28168.880,20572.798 z "
         id="path561"
         style="fill:url(#radialGradient2408);fill-rule:evenodd"
         nodetypes="cccccccc"
         sodipodi:nodetypes="cccccccc" />
      <path
         class="fil3"
         d="M 28199.506,20576.439 L 24712.717,17048.166 C 25344.827,18712.221 27054.685,19701.505 27037.148,20578.561 C 27012.623,21805.069 21446.108,25780.529 20655.939,28043.769 L 28199.506,20576.439 z "
         id="path562"
         style="stroke-opacity:1.0000000;stroke:none;fill-rule:evenodd;fill-opacity:1.0000000;fill:url(#linearGradient2410)"
         nodetypes="cccsccc"
         sodipodi:nodetypes="ccscc" />
      <path
         class="fil1"
         d="M 14405.092,23746.897 L 14369.044,17609.927 L 20539.029,17636.771 L 20616.472,13277.869 L 21967.518,14612.092 C 24621.146,19191.621 21862.820,21886.287 19119.902,20773.650 C 16391.928,19667.074 14891.153,21376.047 14405.092,23746.897 z "
         id="path560"
         style="fill-rule:evenodd;fill-opacity:1.0;fill:url(#linearGradient2412)"
         nodetypes="cccscc"
         sodipodi:nodetypes="ccccczc" />
      <path
         class="fil4"
         d="M 15346.982,18354.027 C 14753.074,18915.161 15223.170,22008.632 14416.852,22558.568 L 14392.779,17716.620 L 20538.005,17581.374 L 20606.646,13079.085 C 20829.086,14453.336 21330.843,17302.581 20628.100,17850.785 C 19731.608,18550.131 15808.799,17888.047 15346.982,18354.027 z "
         id="path563"
         style="fill:url(#linearGradient2414);fill-opacity:1.0;fill-rule:evenodd"
         nodetypes="ccccss"
         sodipodi:nodetypes="cccccsc" />
    </g>
  </g>
</svg>
