<?xml version="1.0" encoding="UTF-8" standalone="no"?>
<!-- Created with Inkscape (http://www.inkscape.org/) -->
<svg
   xmlns:dc="http://purl.org/dc/elements/1.1/"
   xmlns:cc="http://web.resource.org/cc/"
   xmlns:rdf="http://www.w3.org/1999/02/22-rdf-syntax-ns#"
   xmlns:svg="http://www.w3.org/2000/svg"
   xmlns="http://www.w3.org/2000/svg"
   xmlns:xlink="http://www.w3.org/1999/xlink"
   xmlns:sodipodi="http://inkscape.sourceforge.net/DTD/sodipodi-0.dtd"
   xmlns:inkscape="http://www.inkscape.org/namespaces/inkscape"
   id="svg1"
   sodipodi:version="0.32"
   inkscape:version="0.41+cvs"
   width="60.000000px"
   height="60.000000px"
   sodipodi:docbase="/home/david/.icons/eXperience/normal/stock"
   sodipodi:docname="stock_calendar-and-tasks.svg">
  <defs
     id="defs3">
    <linearGradient
       id="linearGradient2871">
      <stop
         style="stop-color:#f31818;stop-opacity:1;"
         offset="0"
         id="stop2873" />
      <stop
         style="stop-color:#ffffff;stop-opacity:1.0000000;"
         offset="1.0000000"
         id="stop2875" />
    </linearGradient>
    <linearGradient
       id="linearGradient3180" />
    <linearGradient
       id="linearGradient1532">
      <stop
         offset="0.0000000"
         style="stop-color:#175dc4;stop-opacity:1.0000000;"
         id="stop1534" />
      <stop
         offset="1.0000000"
         style="stop-color:#aeccf5;stop-opacity:1.0000000;"
         id="stop1533" />
    </linearGradient>
    <linearGradient
       id="linearGradient1766">
      <stop
         style="stop-color:#000000;stop-opacity:1;"
         offset="0"
         id="stop1767" />
      <stop
         style="stop-color:#000000;stop-opacity:0;"
         offset="1"
         id="stop1768" />
    </linearGradient>
    <linearGradient
       id="linearGradient1762">
      <stop
         style="stop-color:#968ecd;stop-opacity:1.0000000;"
         offset="0.0000000"
         id="stop1763" />
      <stop
         style="stop-color:#554d85;stop-opacity:1.0000000;"
         offset="1.0000000"
         id="stop1764" />
    </linearGradient>
    <linearGradient
       id="linearGradient1751">
      <stop
         style="stop-color:#ffffff;stop-opacity:1.0000000;"
         offset="0.0000000"
         id="stop1752" />
      <stop
         style="stop-color:#afd3ff;stop-opacity:1.0000000;"
         offset="1.0000000"
         id="stop1753" />
    </linearGradient>
    <linearGradient
       id="linearGradient1746">
      <stop
         style="stop-color:#ffffff;stop-opacity:1.0000000;"
         offset="0.0000000"
         id="stop1747" />
      <stop
         style="stop-color:#ffffff;stop-opacity:0.0000000;"
         offset="1.0000000"
         id="stop1748" />
    </linearGradient>
    <defs
       id="defs2327">
      <linearGradient
         xlink:href="#linearGradient3180"
         spreadMethod="pad"
         id="linearGradient659"
         gradientUnits="userSpaceOnUse"
         x1="72.902802"
         y1="-4.1747999"
         x2="72.902802"
         y2="62.410500" />
      <linearGradient
         id="aigrd1"
         gradientUnits="userSpaceOnUse"
         x1="72.902802"
         y1="-4.1747999"
         x2="72.902802"
         y2="62.410500"
         spreadMethod="pad"
         xlink:href="#linearGradient1532" />
      <linearGradient
         id="aigrd15"
         gradientUnits="userSpaceOnUse"
         x1="6.2168002"
         y1="115.26420"
         x2="135.46680"
         y2="115.26420">
        <stop
           offset="0"
           style="stop-color:#415dc4"
           id="stop2291" />
        <stop
           offset="1"
           style="stop-color:#aeccf5"
           id="stop2292" />
      </linearGradient>
      <linearGradient
         xlink:href="#aigrd1"
         id="linearGradient773"
         x1="0.36545247"
         y1="0.070356607"
         x2="0.73793292"
         y2="0.60506731"
         gradientUnits="objectBoundingBox"
         gradientTransform="scale(0.900565,1.110414)" />
      <radialGradient
         xlink:href="#aigrd1"
         id="radialGradient774"
         cx="0.10135135"
         cy="0.093749791"
         r="1.1807489"
         fx="0.10135135"
         fy="0.093749791"
         gradientUnits="objectBoundingBox"
         gradientTransform="scale(1.000001,0.999999)" />
      <radialGradient
         xlink:href="#aigrd1"
         id="radialGradient775"
         cx="-0.98913002"
         cy="0.17187564"
         r="2.1136074"
         fx="-0.98913002"
         fy="0.17187564"
         gradientUnits="objectBoundingBox" />
      <radialGradient
         xlink:href="#linearGradient659"
         id="radialGradient776"
         cx="0.16681667"
         cy="0.12469950"
         r="0.84018791"
         fx="0.16681667"
         fy="0.12469950"
         gradientUnits="objectBoundingBox"
         gradientTransform="scale(0.938914,1.065060)" />
      <radialGradient
         xlink:href="#aigrd1"
         id="radialGradient777"
         cx="-0.029411212"
         cy="0.18749785"
         r="0.85121727"
         fx="-0.029411212"
         fy="0.18749785" />
      <radialGradient
         xlink:href="#aigrd1"
         id="radialGradient778"
         cx="-0.85999984"
         cy="0.50000030"
         r="2.0647945"
         fx="-0.85999984"
         fy="0.50000030"
         gradientUnits="objectBoundingBox" />
      <radialGradient
         xlink:href="#aigrd1"
         id="radialGradient779"
         cx="-0.087153599"
         cy="0.95310795"
         r="1.0279226"
         fx="-0.087153599"
         fy="0.95310795"
         gradientUnits="objectBoundingBox" />
      <radialGradient
         xlink:href="#aigrd1"
         id="radialGradient780"
         cx="-0.047862746"
         cy="0.92963868"
         r="0.95944673"
         fx="-0.047862746"
         fy="0.92963868"
         gradientTransform="scale(1.000006,0.999994)"
         gradientUnits="objectBoundingBox" />
      <radialGradient
         xlink:href="#aigrd1"
         id="radialGradient781"
         cx="-0.14773858"
         cy="0.078127153"
         r="1.5595293"
         fx="-0.14773858"
         fy="0.078127153" />
      <radialGradient
         xlink:href="#aigrd1"
         id="radialGradient782"
         cx="-0.71428186"
         cy="0.19530550"
         r="2.1028900"
         fx="-0.71428186"
         fy="0.19530550" />
      <radialGradient
         xlink:href="#aigrd1"
         id="radialGradient783"
         cx="-0.055557165"
         cy="0.12500304"
         r="1.4306992"
         fx="-0.055557165"
         fy="0.12500304" />
      <radialGradient
         xlink:href="#aigrd1"
         id="radialGradient784"
         cx="-0.014925453"
         cy="0.046874978"
         r="3.3873310"
         fx="-0.014925453"
         fy="0.046874978"
         gradientUnits="objectBoundingBox" />
      <radialGradient
         xlink:href="#aigrd1"
         id="radialGradient884"
         cx="-5.2500367"
         cy="0.16406243"
         r="7.3446145"
         fx="-5.2500367"
         fy="0.16406243" />
      <radialGradient
         xlink:href="#aigrd1"
         id="radialGradient885"
         cx="-0.20238160"
         cy="0.14843710"
         r="1.1100850"
         fx="-0.20238160"
         fy="0.14843710"
         gradientUnits="objectBoundingBox" />
    </defs>
    <linearGradient
       id="linearGradient1108">
      <stop
         id="stop1110"
         style="stop-color:#ffffff;stop-opacity:1.0000;"
         offset="0" />
      <stop
         id="stop1109"
         style="stop-color:#ffb500;stop-opacity:1.0000;"
         offset="1" />
    </linearGradient>
    <linearGradient
       gradientUnits="userSpaceOnUse"
       id="id0"
       y2="19500"
       x2="15000"
       y1="14100"
       x1="10100">
      <stop
         id="stop565"
         offset="0"
         style="stop-color:#f5fffa;stop-opacity:1.0000;" />
      <stop
         id="stop567"
         offset="1.20000005"
         style="stop-color:#6f6d7f;stop-opacity:1.0000;" />
    </linearGradient>
    <linearGradient
       id="linearGradient4082">
      <stop
         id="stop4084"
         offset="0"
         style="stop-color:#ff0000;stop-opacity:1;" />
      <stop
         id="stop4086"
         offset="1"
         style="stop-opacity:1.0000000;stop-color:#ffffff" />
    </linearGradient>
    <linearGradient
       inkscape:collect="always"
       xlink:href="#linearGradient1766"
       id="linearGradient2367"
       gradientUnits="userSpaceOnUse"
       gradientTransform="matrix(0.882003,0.000000,0.000000,0.895157,2.650608,6.254694)"
       x1="50.651265"
       y1="51.526812"
       x2="52.728953"
       y2="55.049853" />
    <linearGradient
       inkscape:collect="always"
       xlink:href="#linearGradient1762"
       id="linearGradient2369"
       gradientUnits="userSpaceOnUse"
       gradientTransform="matrix(0.859599,0.000000,0.000000,0.918488,2.650608,6.254694)"
       x1="22.609107"
       y1="7.0258278"
       x2="58.475802"
       y2="51.416283" />
    <radialGradient
       inkscape:collect="always"
       xlink:href="#linearGradient1751"
       id="radialGradient2371"
       gradientUnits="userSpaceOnUse"
       gradientTransform="matrix(0.857394,0.000000,0.000000,0.920850,2.650608,6.254694)"
       cx="44.574645"
       cy="47.514152"
       fx="44.574645"
       fy="47.514152"
       r="78.146215" />
    <linearGradient
       inkscape:collect="always"
       xlink:href="#linearGradient1751"
       id="linearGradient2373"
       gradientUnits="userSpaceOnUse"
       gradientTransform="matrix(1.216264,0.000000,0.000000,0.649144,2.650608,6.254694)"
       x1="28.638879"
       y1="66.265707"
       x2="32.073531"
       y2="70.376839" />
    <radialGradient
       inkscape:collect="always"
       xlink:href="#linearGradient1746"
       id="radialGradient2375"
       gradientUnits="userSpaceOnUse"
       gradientTransform="matrix(1.089376,0.000000,0.000000,0.724755,2.650608,6.254694)"
       cx="43.392352"
       cy="3.1320463"
       fx="43.392352"
       fy="3.1320463"
       r="59.917704" />
    <linearGradient
       inkscape:collect="always"
       xlink:href="#linearGradient2871"
       id="linearGradient2382"
       gradientUnits="userSpaceOnUse"
       gradientTransform="matrix(0.835271,0.000000,0.000000,0.835271,-3.128083,-6.045406)"
       x1="24.395184"
       y1="32.670219"
       x2="45.361481"
       y2="41.438450" />
    <linearGradient
       inkscape:collect="always"
       xlink:href="#id0"
       id="linearGradient2385"
       gradientUnits="userSpaceOnUse"
       gradientTransform="matrix(1.493638e-3,0.000000,0.000000,1.493638e-3,4.880493,1.522495)"
       x1="12818.114"
       y1="2990.6414"
       x2="12818.114"
       y2="-365.53424" />
    <radialGradient
       inkscape:collect="always"
       xlink:href="#linearGradient1746"
       id="radialGradient2398"
       gradientUnits="userSpaceOnUse"
       gradientTransform="matrix(1.291324,1.171439,-0.583654,0.643384,-7.481368,-26.88938)"
       cx="15.034442"
       cy="16.673668"
       fx="15.034442"
       fy="16.673668"
       r="19.937851" />
    <radialGradient
       inkscape:collect="always"
       xlink:href="#linearGradient1746"
       id="radialGradient2401"
       gradientUnits="userSpaceOnUse"
       gradientTransform="matrix(1.291324,1.171439,-0.583654,0.643384,-7.481368,-26.88938)"
       cx="15.034442"
       cy="16.673668"
       fx="15.034442"
       fy="16.673668"
       r="19.937851" />
    <radialGradient
       inkscape:collect="always"
       xlink:href="#linearGradient1108"
       id="radialGradient2404"
       gradientUnits="userSpaceOnUse"
       gradientTransform="matrix(1.481031,-1.341890,1.183257,1.305918,-47.19152,-2.172856)"
       cx="16.913607"
       cy="28.295282"
       fx="16.913607"
       fy="28.295282"
       r="19.937851" />
    <linearGradient
       inkscape:collect="always"
       xlink:href="#linearGradient1762"
       id="linearGradient2419"
       gradientUnits="userSpaceOnUse"
       gradientTransform="matrix(0.859599,-1.652507e-17,-1.187177e-16,0.918488,2.650608,6.254694)"
       x1="66.271034"
       y1="72.485519"
       x2="16.509480"
       y2="30.725012" />
    <radialGradient
       inkscape:collect="always"
       xlink:href="#linearGradient1751"
       id="radialGradient2421"
       gradientUnits="userSpaceOnUse"
       gradientTransform="matrix(0.857394,-1.648267e-17,-1.190229e-16,0.920850,2.650608,6.254694)"
       cx="44.574645"
       cy="47.514152"
       fx="44.574645"
       fy="47.514152"
       r="78.146215" />
    <linearGradient
       inkscape:collect="always"
       xlink:href="#aigrd15"
       id="linearGradient2423"
       gradientUnits="userSpaceOnUse"
       gradientTransform="matrix(0.658255,1.083157e-8,-2.506046e-9,0.679766,17.32865,18.71661)"
       x1="9.0352183"
       y1="14.455839"
       x2="54.853217"
       y2="14.455839" />
    <linearGradient
       inkscape:collect="always"
       xlink:href="#aigrd15"
       id="linearGradient2425"
       gradientUnits="userSpaceOnUse"
       gradientTransform="matrix(5.677467e-2,4.440644e-9,2.338841e-9,0.694295,-37.12453,-10.59560)"
       x1="19.406609"
       y1="15.278517"
       x2="161.39568"
       y2="23.115805" />
    <linearGradient
       inkscape:collect="always"
       xlink:href="#aigrd15"
       id="linearGradient2427"
       gradientUnits="userSpaceOnUse"
       gradientTransform="matrix(0.649434,-5.037735e-2,-0.180557,-0.383286,20.02348,28.88333)"
       x1="9.0352183"
       y1="14.455839"
       x2="54.853217"
       y2="14.455839" />
    <linearGradient
       inkscape:collect="always"
       xlink:href="#linearGradient4082"
       id="linearGradient2432"
       gradientUnits="userSpaceOnUse"
       gradientTransform="matrix(0.676563,-7.152262e-2,-2.853819e-2,0.759693,21.57085,16.82888)"
       x1="13.331230"
       y1="26.956861"
       x2="57.052181"
       y2="50.728481" />
  </defs>
  <sodipodi:namedview
     id="base"
     pagecolor="#ffffff"
     bordercolor="#666666"
     borderopacity="1.0"
     inkscape:pageopacity="0.0"
     inkscape:pageshadow="2"
     inkscape:zoom="7.9999999"
     inkscape:cx="39.776886"
     inkscape:cy="32.598374"
     inkscape:window-width="1022"
     inkscape:window-height="724"
     inkscape:window-x="0"
     inkscape:window-y="0"
     inkscape:current-layer="svg1"
     showguides="true"
     inkscape:guide-bbox="true"
     gridspacingy="1.0000000pt"
     gridspacingx="1.0000000pt"
     gridoriginy="0.0000000pt"
     gridoriginx="0.0000000pt"
     showgrid="false"
     inkscape:grid-points="false"
     inkscape:grid-bbox="false"
     showborder="true">
    <sodipodi:guide
       orientation="vertical"
       position="0.0000000"
       id="guide2809" />
    <sodipodi:guide
       orientation="vertical"
       position="48.000000"
       id="guide2810" />
    <sodipodi:guide
       orientation="horizontal"
       position="0.0000000"
       id="guide2811" />
    <sodipodi:guide
       orientation="horizontal"
       position="47.000000"
       id="guide2819" />
    <sodipodi:guide
       orientation="horizontal"
       position="48.405405"
       id="guide1774" />
  </sodipodi:namedview>
  <metadata
     id="metadata4">
    <rdf:RDF
       id="RDF5">
      <cc:Work
         rdf:about=""
         id="Work6">
        <dc:format
           id="format7">image/svg+xml</dc:format>
        <dc:type
           id="type9"
           rdf:resource="http://purl.org/dc/dcmitype/StillImage" />
      </cc:Work>
    </rdf:RDF>
  </metadata>
  <path
     d="M -38.976413,49.862325 L -27.477049,49.862325 L -27.477049,45.410215 L -23.025581,45.410215 L -23.025581,32.593853 L -38.976413,32.534003 L -38.976413,49.862325 z M -27.192954,49.839662 L -23.167312,45.635088 L -27.192954,45.635088 L -27.192954,49.839662 z "
     style="font-size:12.000000;fill:url(#radialGradient605);fill-rule:evenodd"
     id="path691" />
  <path
     sodipodi:nodetypes="cccccccccccc"
     id="path2376"
     d="M 52.187500,22.031250 L 24.062500,23.781250 L 24.125000,29.062500 L 24.968750,30.000000 L 24.781250,54.937500 C 25.697461,54.851044 26.100711,54.997983 26.968750,56.218750 C 26.968750,56.218750 27.175290,56.081462 27.406250,57.812500 C 35.177631,56.223889 49.549920,54.467707 55.156250,55.531250 C 54.252827,45.472122 53.527908,37.357407 54.125000,28.812500 L 54.750000,28.781250 L 54.656250,23.625000 L 52.187500,22.031250 z "
     style="opacity:0.29999998;color:#000000;fill:#000000;fill-opacity:1.0000000;fill-rule:nonzero;stroke:#000000;stroke-width:1.2023479;stroke-linecap:butt;marker:none;marker-start:none;marker-mid:none;marker-end:none;stroke-miterlimit:4.0000000;stroke-dasharray:none;stroke-dashoffset:0.0000000;stroke-opacity:1.0000000;visibility:visible;display:inline;overflow:visible" />
  <rect
     rx="3.1620882"
     ry="3.1620882"
     y="6.4772019"
     x="8.3741608"
     height="34.692501"
     width="29.843740"
     id="rect2879"
     style="opacity:0.24999996;color:#000000;fill:#000000;fill-opacity:1.0000000;fill-rule:nonzero;stroke:#000000;stroke-width:0.89437354;stroke-linecap:butt;stroke-linejoin:miter;marker:none;marker-start:none;marker-mid:none;marker-end:none;stroke-miterlimit:4.0000000;stroke-dasharray:none;stroke-dashoffset:0.0000000;stroke-opacity:1.0000000;visibility:visible;display:inline;overflow:visible" />
  <rect
     ry="3.1620882"
     y="5.0462041"
     x="6.9431629"
     height="34.692501"
     width="29.843740"
     id="rect2118"
     style="opacity:1.0000000;color:#000000;fill:url(#radialGradient2404);fill-opacity:1.0000000;fill-rule:nonzero;stroke:#655627;stroke-width:0.89437354;stroke-linecap:butt;stroke-linejoin:miter;marker:none;marker-start:none;marker-mid:none;marker-end:none;stroke-miterlimit:4.0000000;stroke-dasharray:none;stroke-dashoffset:0.0000000;stroke-opacity:1.0000000;visibility:visible;display:inline;overflow:visible"
     rx="3.1620882" />
  <path
     style="color:#000000;fill:url(#radialGradient2401);fill-opacity:1.0000000;fill-rule:nonzero;stroke:none;stroke-width:1.1950001;stroke-linecap:butt;stroke-linejoin:miter;marker:none;marker-start:none;marker-mid:none;marker-end:none;stroke-miterlimit:4.0000000;stroke-dashoffset:0.0000000;stroke-opacity:1.0000000;visibility:visible;display:inline;overflow:visible"
     d="M 10.541833,5.3488684 L 32.898503,5.3488684 C 34.736129,5.3488684 31.788275,6.9432205 29.747159,6.8934691 C 16.732362,6.5762391 8.1253879,4.0040017 8.0325502,8.3255748 C 7.9120200,13.936281 8.1182272,27.330132 8.1273350,37.697608 C 6.2897097,37.697608 7.2248203,37.570340 7.2248203,35.732715 L 7.2248203,8.6658825 C 7.2248203,6.8282566 8.7042088,5.3488684 10.541833,5.3488684 z "
     id="path3184"
     sodipodi:nodetypes="ccsscccc" />
  <path
     sodipodi:nodetypes="ccsscccc"
     id="rect3175"
     d="M 10.541833,5.3488684 L 32.898503,5.3488684 C 34.736129,5.3488684 28.752311,10.531568 27.815559,12.012207 C 24.749882,16.857853 12.713029,6.4884555 14.020507,18.659630 C 14.623456,24.272410 12.657485,33.800989 10.541833,39.049728 C 8.7042088,39.049728 7.2248203,37.570340 7.2248203,35.732715 L 7.2248203,8.6658825 C 7.2248203,6.8282566 8.7042088,5.3488684 10.541833,5.3488684 z "
     style="color:#000000;fill:url(#radialGradient2398);fill-opacity:1.0000000;fill-rule:nonzero;stroke:none;stroke-width:1.1950001;stroke-linecap:butt;stroke-linejoin:miter;marker:none;marker-start:none;marker-mid:none;marker-end:none;stroke-miterlimit:4.0000000;stroke-dashoffset:0.0000000;stroke-opacity:1.0000000;visibility:visible;display:inline;overflow:visible" />
  <g
     id="g3439"
     transform="matrix(0.592405,0.000000,0.000000,0.621584,4.633312,1.097778)">
    <path
       sodipodi:nodetypes="cscsccc"
       nodetypes="cccccc"
       id="path913"
       d="M 6.4859703,59.212304 C 12.260283,59.213494 17.022583,58.878926 26.732731,58.372989 C 31.885446,58.104513 39.345489,58.055656 46.894846,57.838370 C 51.219909,51.889089 50.137450,48.130491 50.911315,43.561374 C 52.561815,33.816351 53.984654,27.727769 54.131686,10.855972 C 40.699182,15.435815 31.588703,17.481760 19.956429,21.984577 C 16.038980,34.512410 10.403421,46.684469 6.4859703,59.212304 z "
       style="fill-rule:evenodd;fill-opacity:1.0000000;fill:url(#linearGradient2367);opacity:0.12206573;font-size:12.000000" />
    <path
       sodipodi:nodetypes="cscccc"
       id="path861"
       d="M 3.7613018,56.235995 C 18.328087,58.259328 21.497259,58.801245 28.694541,58.281295 C 39.674078,57.496509 49.945724,52.104140 50.785513,44.249148 C 51.942510,36.874406 54.000268,25.684635 51.281019,6.2547400 C 36.236610,8.3810690 24.212642,8.7054340 6.4965635,7.1713494 C 9.8957530,18.093303 7.9523756,42.704571 3.7613018,56.235995 z "
       style="fill-rule:evenodd;fill-opacity:1.0000000;fill:url(#linearGradient2369);font-size:12.000000" />
    <path
       sodipodi:nodetypes="ccccccc"
       id="path863"
       d="M 5.5680397,55.125301 C 18.466304,56.974623 22.111555,57.772451 30.443787,55.745690 C 33.328175,55.044083 41.084044,51.434235 41.577076,46.991458 C 42.274385,47.214559 47.197705,49.662373 49.674819,43.138454 C 51.266647,32.422448 52.001026,22.907343 50.035239,7.9057720 C 30.469715,9.8057590 20.412554,9.6572130 8.2040808,8.4761290 C 11.287474,17.914920 9.0151320,44.596697 5.5680397,55.125301 z "
       style="fill-rule:evenodd;fill-opacity:1.0000000;fill:url(#radialGradient2371);font-size:12.000000" />
    <path
       sodipodi:nodetypes="cccc"
       id="path1150"
       d="M 29.715616,56.951454 C 39.414454,54.815237 44.885929,52.637331 48.253027,47.057670 C 46.245081,48.946483 44.300118,49.053473 42.408497,48.460738 C 40.859606,52.208973 37.673198,54.498974 29.715616,56.951454 z "
       style="fill-rule:evenodd;fill-opacity:1.0000000;fill:url(#linearGradient2373);opacity:0.91549295;font-size:12.000000" />
    <path
       sodipodi:nodetypes="ccccc"
       id="path1794"
       d="M 50.992789,20.453472 C 51.061214,17.656735 50.526686,11.656165 50.035239,7.9057720 C 30.469715,9.8057590 20.412554,9.6572130 8.2040808,8.4761290 C 9.9049750,14.347061 10.323651,20.420752 9.6310020,27.428323 C 18.482713,46.922330 51.060807,29.870822 50.992789,20.453472 z "
       style="fill-rule:evenodd;fill-opacity:1.0000000;fill:url(#radialGradient2375);font-size:12.000000" />
  </g>
  <path
     style="color:#000000;fill:none;fill-opacity:1.0000000;fill-rule:nonzero;stroke:#2f4d94;stroke-width:1.0732484;stroke-linecap:butt;stroke-linejoin:round;marker:none;marker-start:none;marker-mid:none;marker-end:none;stroke-miterlimit:4.0000000;stroke-dashoffset:0.0000000;stroke-opacity:1.0000000;visibility:visible;display:inline;overflow:visible"
     d="M 16.558727,18.241914 L 27.854451,18.547614 C 27.984193,20.364571 27.584472,26.890244 26.920017,30.307812 L 15.255153,30.102759 C 15.771951,27.778812 16.522900,21.120200 16.558727,18.241914 z "
     id="rect2108"
     sodipodi:nodetypes="ccccc" />
  <path
     style="font-size:12.000000;fill:#000000;fill-opacity:0.18791945;fill-rule:evenodd"
     d="M 13.999146,2.4141957 L 30.181208,2.4141957 L 32.669609,6.1482884 L 32.048254,8.0153337 L 12.754947,8.0153337 L 12.132101,6.1482884 L 13.999146,2.4141957 z "
     id="path684" />
  <path
     style="font-size:12.000000;fill:#666666;fill-rule:evenodd"
     d="M 13.592877,1.5224942 L 29.774939,1.5224942 L 32.264832,5.2565870 L 31.641985,7.1236333 L 12.348679,7.1236333 L 11.725831,5.2565870 L 13.592877,1.5224942 z "
     id="path688" />
  <path
     style="font-size:12.000000;fill:url(#linearGradient2385);fill-rule:evenodd"
     d="M 13.939400,2.1453411 L 29.565831,2.1453411 L 31.503077,5.0489713 L 31.019138,6.5007864 L 12.971524,6.5007864 L 12.487585,5.0489713 L 13.939400,2.1453411 z "
     id="path690" />
  <path
     style="fill:url(#linearGradient2382);fill-opacity:1.0000000;fill-rule:nonzero;stroke:none;stroke-width:1.0000000pt;stroke-linecap:butt;stroke-linejoin:miter;stroke-opacity:1.0000000"
     id="path2106"
     d="M 14.792154,20.778544 C 16.446980,21.224300 18.501636,23.034431 20.597914,25.686998 C 21.445317,23.532002 30.004407,11.717628 34.761064,12.631023 C 30.626681,13.516962 24.504191,21.477388 21.410205,29.905410 C 21.101856,28.774806 14.907237,22.468900 11.827151,22.070722 L 14.792154,20.778544 z "
     sodipodi:nodetypes="cccccc" />
  <path
     style="color:#000000;fill:#635b95;fill-opacity:1.0000000;fill-rule:nonzero;stroke:#5d558e;stroke-width:1.2023479;stroke-linecap:butt;marker:none;marker-start:none;marker-mid:none;marker-end:none;stroke-miterlimit:4.0000000;stroke-dasharray:none;stroke-dashoffset:0.0000000;stroke-opacity:1.0000000;visibility:visible;display:inline;overflow:visible"
     d="M 23.478398,27.636867 L 28.090758,29.267020 L 25.468873,54.715477 C 24.600834,53.494712 24.198493,53.342605 23.282282,53.429061 L 23.478398,27.636867 z "
     id="rect3991"
     sodipodi:nodetypes="ccccc" />
  <g
     transform="matrix(-1.121128e-2,-0.619036,-0.509819,3.065957e-2,55.79876,56.90936)"
     id="g3994">
    <path
       style="fill-rule:evenodd;fill-opacity:1.0000000;fill:url(#linearGradient2419);font-size:12.000000"
       d="M 3.8754590,58.540899 C 18.442244,60.564232 21.497259,58.801245 28.694541,58.281295 C 39.674078,57.496509 49.945724,52.104140 50.785513,44.249148 C 51.942510,36.874406 54.311424,24.293344 51.592175,4.8634491 C 36.547766,6.9897781 22.574227,5.6426824 4.8581486,4.1085978 C 7.1183884,15.055598 5.6847793,43.257699 3.8754590,58.540899 z "
       id="path3996"
       sodipodi:nodetypes="cscccc" />
    <path
       style="fill-rule:evenodd;fill-opacity:1.0000000;fill:url(#radialGradient2421);font-size:12.000000"
       d="M 5.6593654,56.969224 C 24.003172,58.798915 38.979312,58.553609 48.707533,57.523323 C 57.258034,56.617767 51.144293,31.862499 50.392058,7.4364421 C 30.826534,9.3364291 19.228688,8.1793191 6.5949022,6.0846225 C 9.0559842,18.305995 7.6146896,45.690532 5.6593654,56.969224 z "
       id="path3998"
       sodipodi:nodetypes="csccc" />
  </g>
  <rect
     style="opacity:1.0000000;color:#000000;fill:url(#linearGradient2423);fill-opacity:1.0000000;fill-rule:nonzero;stroke:#1b48b3;stroke-width:0.81901300;stroke-linecap:butt;stroke-linejoin:round;marker:none;marker-start:none;marker-mid:none;marker-end:none;stroke-miterlimit:4.0000000;stroke-dasharray:none;stroke-dashoffset:0.0000000;stroke-opacity:0.98039216;visibility:visible;display:inline;overflow:visible"
     id="rect2944"
     width="28.989218"
     height="5.1500034"
     x="23.861458"
     y="25.968201"
     transform="matrix(0.997365,-7.255010e-2,1.772605e-2,0.999843,0.000000,0.000000)" />
  <rect
     transform="matrix(-0.663603,-0.748085,9.302256e-3,0.999957,0.000000,0.000000)"
     y="-3.1889939"
     x="-36.561104"
     height="5.2600813"
     width="2.5003438"
     id="rect4025"
     style="opacity:1.0000000;color:#000000;fill:url(#linearGradient2425);fill-opacity:1.0000000;fill-rule:nonzero;stroke:#1b48b3;stroke-width:0.76903236;stroke-linecap:butt;stroke-linejoin:round;marker:none;marker-start:none;marker-mid:none;marker-end:none;stroke-miterlimit:4.0000000;stroke-dasharray:none;stroke-dashoffset:0.0000000;stroke-opacity:0.98039216;visibility:visible;display:inline;overflow:visible" />
  <path
     style="color:#000000;fill:url(#linearGradient2427);fill-opacity:1.0000000;fill-rule:nonzero;stroke:#1b48b3;stroke-width:0.81868523;stroke-linecap:butt;stroke-linejoin:round;marker:none;marker-start:none;marker-mid:none;marker-end:none;stroke-miterlimit:4.0000000;stroke-dashoffset:0.0000000;stroke-opacity:0.98039216;visibility:visible;display:inline;overflow:visible"
     d="M 24.542655,24.294555 L 53.143466,22.075931 L 50.685480,20.535136 L 22.699061,22.283744 L 24.542655,24.294555 z "
     id="rect4073"
     sodipodi:nodetypes="ccccc" />
  <path
     style="font-size:23.002741;font-style:normal;font-variant:normal;font-weight:bold;font-stretch:normal;line-height:100.00000%;writing-mode:lr-tb;text-anchor:start;fill:#a90000;fill-opacity:1.0000000;stroke:#a90000;stroke-width:0.89437354;stroke-linecap:butt;stroke-linejoin:round;stroke-miterlimit:4.0000000;stroke-opacity:1.0000000;font-family:Bitstream Vera Sans"
     d="M 36.787132,40.081666 C 37.543758,40.222656 38.109286,40.548152 38.483716,41.058154 C 38.863407,41.561945 39.320431,42.152686 39.288601,43.000264 C 39.241152,44.263109 38.954912,45.273493 38.068910,46.024398 C 37.183106,46.769618 35.914447,47.229522 34.262932,47.404111 C 33.680337,47.465701 33.097242,47.473516 32.513648,47.427559 C 31.934899,47.386756 31.338520,47.471791 30.773968,47.321834 L 30.430320,44.688634 C 30.965910,44.937975 31.499212,45.113899 32.030229,45.216405 C 32.566520,45.312693 33.095566,45.333255 33.617370,45.278090 C 34.392465,45.196153 34.990850,44.982749 35.412530,44.637877 C 35.839262,44.292476 36.063208,43.838193 36.084371,43.275030 C 36.106160,42.694811 35.909843,42.279292 35.495415,42.028471 C 35.086256,41.771439 34.468798,41.686567 33.643043,41.773855 L 32.472793,41.897568 L 32.359435,39.868153 L 33.783328,39.651315 C 34.517896,39.573668 35.069833,39.387838 35.439142,39.093824 C 35.808653,38.794139 36.003347,38.379777 36.023227,37.850740 C 36.041597,37.361541 35.610303,36.996469 35.270798,36.766052 C 34.931281,36.535658 34.442365,36.454195 33.804054,36.521663 C 33.332909,36.571482 32.854462,36.681553 32.368706,36.851876 C 31.882944,37.022222 31.397580,37.249176 30.912616,37.532734 L 31.080884,35.218471 C 31.665245,34.975400 32.435683,34.691660 33.006500,34.540650 C 33.577308,34.389665 34.136278,34.285247 34.683413,34.227394 C 36.157618,34.071562 37.249218,34.228127 37.958218,34.697087 C 38.672481,35.159850 39.009102,35.937318 38.968084,37.029495 C 38.940080,37.774696 38.742331,38.404684 38.374837,38.919459 C 38.007535,39.428564 37.478301,39.815966 36.787132,40.081666 M 41.384806,44.001410 L 44.030303,43.277239 C 44.339669,40.508184 44.581766,37.569780 44.902656,35.603233 L 42.227518,36.497951 L 42.311498,34.262378 L 45.074046,33.280814 L 47.752681,33.075250 C 47.140638,38.093404 46.700383,39.717982 46.706105,42.983072 L 49.326872,42.439317 L 49.422095,44.712530 L 41.299545,46.271114 L 41.384806,44.001410"
     id="text4078"
     sodipodi:nodetypes="cccccccccccccccccccccccccccccccccccccccccc" />
  <path
     sodipodi:nodetypes="cccccccccccccccccccccccccccccccccccccccccc"
     id="path4132"
     d="M 36.787132,40.081666 C 37.543758,40.222656 38.109286,40.548152 38.483716,41.058154 C 38.863407,41.561945 39.320431,42.152686 39.288601,43.000264 C 39.241152,44.263109 38.954912,45.273493 38.068910,46.024398 C 37.183106,46.769618 35.914447,47.229522 34.262932,47.404111 C 33.680337,47.465701 33.097242,47.473516 32.513648,47.427559 C 31.934899,47.386756 31.338520,47.471791 30.773968,47.321834 L 30.430320,44.688634 C 30.965910,44.937975 31.499212,45.113899 32.030229,45.216405 C 32.566520,45.312693 33.095566,45.333255 33.617370,45.278090 C 34.392465,45.196153 34.990850,44.982749 35.412530,44.637877 C 35.839262,44.292476 36.063208,43.838193 36.084371,43.275030 C 36.106160,42.694811 35.909843,42.279292 35.495415,42.028471 C 35.086256,41.771439 34.468798,41.686567 33.643043,41.773855 L 32.472793,41.897568 L 32.359435,39.868153 L 33.783328,39.651315 C 34.517896,39.573668 35.069833,39.387838 35.439142,39.093824 C 35.808653,38.794139 36.003347,38.379777 36.023227,37.850740 C 36.041597,37.361541 35.610303,36.996469 35.270798,36.766052 C 34.931281,36.535658 34.442365,36.454195 33.804054,36.521663 C 33.332909,36.571482 32.854462,36.681553 32.368706,36.851876 C 31.882944,37.022222 31.397580,37.249176 30.912616,37.532734 L 31.080884,35.218471 C 31.665245,34.975400 32.435683,34.691660 33.006500,34.540650 C 33.577308,34.389665 34.136278,34.285247 34.683413,34.227394 C 36.157618,34.071562 37.249218,34.228127 37.958218,34.697087 C 38.672481,35.159850 39.009102,35.937318 38.968084,37.029495 C 38.940080,37.774696 38.742331,38.404684 38.374837,38.919459 C 38.007535,39.428564 37.478301,39.815966 36.787132,40.081666 M 41.384806,44.001410 L 44.030303,43.277239 C 44.339669,40.508184 44.581766,37.569780 44.902656,35.603233 L 42.227518,36.497951 L 42.311498,34.262378 L 45.074046,33.280814 L 47.752681,33.075250 C 47.140638,38.093404 46.700383,39.717982 46.706105,42.983072 L 49.326872,42.439317 L 49.422095,44.712530 L 41.299545,46.271114 L 41.384806,44.001410"
     style="font-size:23.002741;font-style:normal;font-variant:normal;font-weight:bold;font-stretch:normal;line-height:100.00000%;writing-mode:lr-tb;text-anchor:start;fill:url(#linearGradient2432);fill-opacity:1.0000000;stroke:none;stroke-width:1.2499999;stroke-linecap:butt;stroke-linejoin:round;stroke-miterlimit:4.0000000;stroke-opacity:1.0000000;font-family:Bitstream Vera Sans" />
</svg>
