<?xml version="1.0" encoding="UTF-8" standalone="no"?>
<!-- Created with Inkscape (http://www.inkscape.org/) -->
<svg
   xmlns:dc="http://purl.org/dc/elements/1.1/"
   xmlns:cc="http://web.resource.org/cc/"
   xmlns:rdf="http://www.w3.org/1999/02/22-rdf-syntax-ns#"
   xmlns:svg="http://www.w3.org/2000/svg"
   xmlns="http://www.w3.org/2000/svg"
   xmlns:xlink="http://www.w3.org/1999/xlink"
   xmlns:sodipodi="http://inkscape.sourceforge.net/DTD/sodipodi-0.dtd"
   xmlns:inkscape="http://www.inkscape.org/namespaces/inkscape"
   sodipodi:docname="stock_mail-send.svg"
   sodipodi:docbase="/home/david/.icons/eXperience/normal/stock"
   inkscape:version="0.41+cvs"
   sodipodi:version="0.32"
   id="svg3076"
   height="48.000000pt"
   width="48.000000pt">
  <defs
     id="defs3">
    <linearGradient
       id="linearGradient990">
      <text
         id="text567" />
      <text
         id="text568" />
      <text
         id="text569" />
      <stop
         style="stop-color:#ffffff;stop-opacity:1.0000;"
         offset="0"
         id="stop992" />
      <text
         id="text571" />
      <text
         id="text572" />
      <text
         id="text573" />
      <stop
         style="stop-color:#72afff;stop-opacity:1.0000;"
         offset="1"
         id="stop991" />
      <text
         id="text575" />
      <text
         id="text576" />
      <text
         id="text577" />
    </linearGradient>
    <linearGradient
       id="linearGradient955">
      <text
         id="text627" />
      <text
         id="text628" />
      <text
         id="text629" />
      <stop
         style="stop-color:#3360a2;stop-opacity:1.0000000;"
         offset="0.0000000"
         id="stop956" />
      <text
         id="text631" />
      <text
         id="text632" />
      <text
         id="text633" />
      <stop
         style="stop-color:#6a3eff;stop-opacity:1.0000000;"
         offset="1.0000000"
         id="stop957" />
      <text
         id="text635" />
      <text
         id="text636" />
      <text
         id="text637" />
    </linearGradient>
    <linearGradient
       spreadMethod="pad"
       gradientUnits="objectBoundingBox"
       id="linearGradient6155"
       y2="0.00000000"
       x2="1.00000000"
       y1="0.00000000"
       x1="0.00000000">
      <stop
         id="stop6157"
         offset="0.00000000"
         style="stop-color:#ffb087;stop-opacity:1;" />
      <stop
         id="stop6159"
         offset="0.25097999"
         style="stop-color:#f55e42;stop-opacity:1;" />
      <stop
         id="stop6161"
         offset="0.60000002"
         style="stop-color:#e72106;stop-opacity:1;" />
      <stop
         id="stop6163"
         offset="1.00000000"
         style="stop-color:#571f00;stop-opacity:1;" />
    </linearGradient>
    <linearGradient
       inkscape:collect="always"
       xlink:href="#linearGradient955"
       id="linearGradient2484"
       gradientUnits="userSpaceOnUse"
       gradientTransform="matrix(1.082458,4.719041e-2,0.000000,0.923824,0.000000,-631.2775)"
       x1="20279.271"
       y1="21276.324"
       x2="1511.3947"
       y2="4738.2075" />
    <linearGradient
       inkscape:collect="always"
       xlink:href="#linearGradient990"
       id="linearGradient2486"
       gradientUnits="userSpaceOnUse"
       gradientTransform="matrix(1.000000,4.359561e-2,0.000000,1.000000,0.000000,-631.2775)"
       x1="1106.8480"
       y1="-2642.9209"
       x2="78368.961"
       y2="83876.102" />
    <linearGradient
       inkscape:collect="always"
       xlink:href="#linearGradient6155"
       id="linearGradient2516"
       gradientUnits="userSpaceOnUse"
       gradientTransform="matrix(0.000000,0.601070,0.601070,0.000000,12.62846,-1.989285)"
       x1="20.731108"
       y1="12.998938"
       x2="61.352142"
       y2="51.909153" />
    <linearGradient
       inkscape:collect="always"
       xlink:href="#linearGradient6155"
       id="linearGradient2519"
       gradientUnits="userSpaceOnUse"
       gradientTransform="matrix(0.000000,0.402661,0.897245,0.000000,12.62846,-1.989285)"
       x1="61.439548"
       y1="-6.2730432"
       x2="78.823914"
       y2="28.358234" />
    <linearGradient
       inkscape:collect="always"
       xlink:href="#linearGradient6155"
       id="linearGradient2522"
       gradientUnits="userSpaceOnUse"
       gradientTransform="matrix(0.000000,1.716667,0.210458,0.000000,12.62846,-1.989285)"
       x1="3.5342741"
       y1="16.223923"
       x2="32.063988"
       y2="242.73752" />
    <radialGradient
       inkscape:collect="always"
       xlink:href="#linearGradient6155"
       id="radialGradient2525"
       gradientUnits="userSpaceOnUse"
       gradientTransform="matrix(-1.076015e-2,-1.712194e-3,-1.291086e-3,8.112416e-3,188.1821,-174.3537)"
       cx="9396.5820"
       cy="27458.902"
       fx="9396.5820"
       fy="27458.902"
       r="6726.8389" />
  </defs>
  <sodipodi:namedview
     inkscape:window-y="19"
     inkscape:window-x="1"
     inkscape:window-height="511"
     inkscape:window-width="721"
     gridtolerance="0.32000000pt"
     inkscape:current-layer="layer1"
     inkscape:document-units="pt"
     inkscape:cy="55.241503"
     inkscape:cx="22.897252"
     inkscape:zoom="1.4000000"
     inkscape:pageshadow="2"
     inkscape:pageopacity="0.0"
     borderopacity="1.0"
     bordercolor="#666666"
     pagecolor="#ffffff"
     id="base" />
  <metadata
     id="metadata4">
    <rdf:RDF
       id="RDF5">
      <cc:Work
         id="Work6"
         rdf:about="">
        <dc:format
           id="format7">image/svg+xml</dc:format>
        <dc:type
           rdf:resource="http://purl.org/dc/dcmitype/StillImage"
           id="type9" />
      </cc:Work>
    </rdf:RDF>
  </metadata>
  <g
     id="layer1"
     inkscape:groupmode="layer"
     inkscape:label="Layer 1">
    <g
       transform="matrix(2.000000e-3,0.000000,0.000000,2.000000e-3,2.000000,6.000000)"
       id="g2737">
      <path
         id="path2256"
         style="font-size:12.000000;fill:#000000;fill-opacity:0.29803923"
         d="M 2952.8403,5479.2998 L 27009.318,3932.2116 C 27783.058,3887.4323 28539.738,5087.8632 28565.908,6045.9411 L 28741.098,20880.927 C 28758.168,21526.841 28604.558,21888.805 27826.268,22008.485 L 2996.1133,25984.519 C 2077.8634,26125.417 1826.3964,25952.874 1826.3964,24969.764 L 1596.5144,7585.5130 C 1596.5144,6633.1250 2131.3074,5526.5466 2952.8403,5479.2998 z " />
      <path
         d="M 1574.6020,3963.2562 L 25631.080,2416.1680 C 26404.820,2371.3886 27161.500,3571.8196 27187.670,4529.8975 L 27362.860,19364.883 C 27379.930,20010.797 27226.320,20372.760 26448.030,20492.440 L 1617.8750,24468.475 C 699.62510,24609.373 448.15810,24436.830 448.15810,23453.720 L 218.27610,6069.4693 C 218.27610,5117.0813 753.06910,4010.5030 1574.6020,3963.2562 z "
         style="fill:url(#linearGradient2484);font-size:12.000000"
         id="path830" />
      <path
         d="M 1997.0690,7563.2259 L 8680.4890,13489.264 L 1750.1540,21618.291 C 1314.2200,22129.627 1196.4360,22253.722 1189.9370,21215.708 L 1106.8730,7948.9073 C 1104.1800,7518.6789 1319.2780,6962.2462 1997.0690,7563.2259 z M 2086.5680,22780.668 L 9425.3590,13974.207 C 12689.450,16564.007 17519.680,16249.674 20421.220,11899.838 L 25620.870,18586.170 C 26141.350,19255.471 26058.970,19536.129 25034.880,19698.483 L 2477.9910,23274.492 C 1700.8350,23397.641 1680.3530,23254.518 2086.5680,22780.668 z M 25432.340,5294.2138 C 24208.370,6975.4581 20927.530,11138.711 21015.140,11251.770 L 25767.270,17241.562 C 26371.110,18002.667 26485.030,17862.633 26470.850,17014.295 L 26272.860,5163.5568 C 26263.010,4573.7103 25761.360,4842.2686 25432.340,5294.2138 z M 25012.120,4285.2120 L 19180.600,12097.642 C 16651.470,15485.893 12302.200,15364.634 9522.4690,12919.880 L 1992.1260,6296.9624 C 1528.4660,5889.1739 1181.9720,4880.2842 2204.9050,4813.3696 L 24621.830,3363.6001 C 25398.990,3313.2789 25253.060,3962.4290 25012.120,4285.2120 z "
         style="fill-opacity:1.0000000;fill:url(#linearGradient2486);font-size:12.000000"
         id="path832" />
    </g>
    <g
       id="g2529">
      <path
         class="fil2"
         d="M 32.840062,4.1900314 L 18.041892,19.124622 L 26.787718,19.075980 L 26.787718,31.097388 L 38.809126,31.097388 L 38.713694,19.085082 L 47.551390,19.007532 L 32.840062,4.1900314 z "
         id="path2863"
         style="font-size:12.000000;opacity:0.29999998;fill:#000000;fill-opacity:1.0000000;fill-rule:evenodd;stroke:#000000;stroke-width:3.0000000;stroke-linejoin:round;stroke-miterlimit:4.0000000;stroke-dasharray:none;stroke-opacity:1.0000000"
         nodetypes="cccccccc"
         sodipodi:nodetypes="cccccccc" />
      <path
         sodipodi:nodetypes="cccccccc"
         nodetypes="cccccccc"
         style="font-size:12.000000;fill:#b3b3b3;fill-opacity:1.0000000;fill-rule:evenodd;stroke:#a90000;stroke-width:3.0000000;stroke-linejoin:round;stroke-miterlimit:4.0000000;stroke-dasharray:none;stroke-opacity:1.0000000"
         id="path2071"
         d="M 30.702204,1.9082154 L 15.904032,16.842807 L 24.649860,16.794165 L 24.649860,28.815572 L 36.671268,28.815572 L 36.575834,16.803267 L 45.413532,16.725717 L 30.702204,1.9082154 z "
         class="fil2" />
      <path
         class="fil2"
         d="M 30.702210,1.9082152 L 15.904040,16.842805 L 24.649866,16.794165 L 24.649866,28.815570 L 36.671274,28.815570 L 36.575842,16.803267 L 45.413538,16.725717 L 30.702210,1.9082152 z "
         id="path5914"
         style="font-size:12.000000;fill:url(#radialGradient2525);fill-opacity:1.0000000;fill-rule:evenodd"
         nodetypes="cccccccc"
         sodipodi:nodetypes="cccccccc" />
      <path
         class="fil1"
         d="M 24.649866,16.794165 L 16.042908,16.794165 L 30.699728,2.0189312 C 34.914340,7.4139170 28.381548,12.194166 29.864320,15.935292 C 34.187078,26.729410 28.739260,28.912260 24.649866,28.815570 L 24.649866,16.794165 z "
         id="path5916"
         style="font-size:12.000000;fill:url(#linearGradient2522);fill-rule:evenodd"
         nodetypes="cccscc"
         sodipodi:nodetypes="cccccc" />
      <path
         class="fil3"
         d="M 30.676596,2.1114732 L 38.072756,9.4351684 C 34.821150,8.2000096 31.975266,4.5513326 30.263670,4.9115674 C 27.424846,5.4170158 20.717050,15.871089 18.633712,16.250519 L 15.931502,16.788139 L 30.676596,2.1114732 z "
         id="path5918"
         style="font-size:12.000000;fill:url(#linearGradient2519);fill-opacity:1.0000000;fill-rule:evenodd"
         nodetypes="cccsccc"
         sodipodi:nodetypes="cccccc" />
      <path
         class="fil4"
         d="M 35.119662,26.998074 C 34.023192,28.158584 27.978470,27.240004 26.903880,28.815570 L 36.671274,28.815570 L 36.672642,16.797573 C 34.570092,17.600077 36.030200,26.095670 35.119662,26.998074 z "
         id="path5920"
         style="font-size:12.000000;fill:url(#linearGradient2516);fill-rule:evenodd;stroke:none"
         nodetypes="ccccss"
         sodipodi:nodetypes="ccccc" />
    </g>
  </g>
</svg>
